<svg width="48" height="48" viewBox="0 0 48 48" fill="none" xmlns="http://www.w3.org/2000/svg" stroke="currentColor" stroke-width="4">
<path d="M10.8002 27.0251C10.2336 27.4811 9.6263 28.1469 9.44995 28.9931C9.20995 30.1493 9.39986 31.5966 10.5153 32.7319C11.8666 34.1083 13.9202 34.485 14.8072 34.5497C17.2166 34.7239 19.7846 33.5291 21.7202 32.1664C22.4788 31.6311 23.7779 30.5563 25.0197 28.8982C22.2367 27.4613 18.763 25.8721 15.0493 26.0276C13.1522 26.1069 11.7936 26.5003 10.8002 27.0251ZM46.0904 33.3788C47.3186 30.4957 48 27.3266 48 24C48 10.7666 37.2344 0 24 0C10.7656 0 0 10.7666 0 24C0 37.2344 10.7656 48 24 48C31.9868 48 39.0699 44.0755 43.4358 38.0567C39.311 36.0063 32.5127 32.6317 28.3252 30.5896C26.327 32.8675 23.3729 35.1506 20.0358 36.144C17.9395 36.767 16.0497 37.0049 14.0734 36.601C12.1169 36.2003 10.6758 35.2842 9.83583 34.3659C9.408 33.8974 8.91652 33.3016 8.5607 32.593C8.59409 32.6828 8.61704 32.736 8.61704 32.736C8.61704 32.736 8.41252 32.3833 8.256 31.8219C8.17565 31.5506 8.12139 31.2678 8.09948 30.9715C8.08278 30.7774 8.07861 30.5729 8.09009 30.36C8.07235 29.999 8.08696 29.6202 8.16835 29.232C8.36452 28.2835 8.76939 27.1784 9.81704 26.1527C12.1169 23.9009 15.1972 23.7798 16.7927 23.7892C19.1562 23.8028 23.2633 24.8369 26.7214 26.0598C27.6793 24.0198 28.2939 21.8379 28.6904 20.3833H14.3113V18.8285H21.695V15.719H12.7565V14.1642H21.695V11.0557C21.695 10.6289 21.7795 10.2783 22.4723 10.2783H25.9701V14.1642H35.687V15.719H25.9701V18.8285H33.743C33.743 18.8285 32.9624 23.1798 30.5217 27.4685C35.9384 29.4031 43.559 32.3833 46.0904 33.3788Z" fill="currentColor" stroke="none" stroke-width="none" stroke-linecap="butt"></path>
</svg>