<svg width="48" height="48" viewBox="0 0 48 48" fill="none" xmlns="http://www.w3.org/2000/svg" stroke="currentColor" stroke-width="4">
<path d="M45 15.6998V32.7998L24.5 44.6998C24.2 44.8998 23.8 44.8998 23.5 44.6998L3.5 33.1998C3.2 32.9998 3 32.6998 3 32.2998V15.6998C3 15.2998 3.2 14.9998 3.5 14.7998L23.5 3.1998C23.8 2.9998 24.2 2.9998 24.5 3.1998L44.5 14.7998C44.8 14.9998 45 15.2998 45 15.6998ZM26 8.9998V18.7998L31.5 21.9998L40 17.0998L26 8.9998ZM22 8.9998L8 17.0998L16.4 21.9998L22 18.7998V8.9998ZM22 30.1998L16.5 26.9998L9 31.3998L22 38.9998V30.1998ZM39 31.3998L31.4 26.9998L26 30.1998V38.9998L39 31.3998ZM41 27.9998V21.9998L36 24.9998L41 27.9998ZM12 24.9998L7 21.9998V27.9998L12 24.9998ZM20 24.9998L24 26.9998L28 24.9998L24 22.9998L20 24.9998Z" fill="currentColor" stroke="none" stroke-width="none" stroke-linecap="butt"></path>
</svg>