<svg width="48" height="48" viewBox="0 0 48 48" fill="none" xmlns="http://www.w3.org/2000/svg" stroke="currentColor" stroke-width="4">
<path d="M25.0016 1.5998L42.9016 11.8998C43.5016 12.2998 43.9016 12.8998 43.9016 13.5998V34.2998C43.9016 34.9998 43.5016 35.6998 42.9016 35.9998L25.0016 46.3998C24.4016 46.7998 23.6016 46.7998 23.0016 46.3998L5.10156 36.0998C4.50156 35.6998 4.10156 35.0998 4.10156 34.3998V13.6998C4.10156 12.9998 4.50156 12.2998 5.10156 11.9998L23.0016 1.5998C23.6016 1.1998 24.4016 1.1998 25.0016 1.5998ZM38.5016 13.9998L30.6016 9.49981L24.0016 13.9998L17.5016 9.9998L10.2016 14.2998L24.0016 22.9998L38.5016 13.9998ZM22.0016 40.3998V26.2998L8.00156 17.3998V25.2998L16.0016 30.7998V36.9998L22.0016 40.3998ZM26.0016 40.3998L32.0016 36.8998V31.6998L40.0016 26.1998V17.2998L26.0016 26.1998V40.3998Z" fill="currentColor" stroke="none" stroke-width="none" stroke-linecap="butt"></path>
</svg>