<svg width="48" height="48" viewBox="0 0 48 48" fill="none" xmlns="http://www.w3.org/2000/svg" stroke="currentColor" stroke-width="4">
<path d="M0.0561875 24.6182C0.0561875 35.0717 6.75519 43.9622 16.0941 47.2262C17.3526 47.5457 17.1606 46.6442 17.1606 46.0367V41.8877C9.89619 42.7412 9.60819 37.9307 9.11769 37.1297C8.13069 35.4437 5.80569 35.0177 6.49869 34.2182C8.15169 33.3647 9.83769 34.4312 11.7891 37.3172C13.2021 39.4082 15.9546 39.0557 17.3511 38.7032C17.6517 37.4659 18.2948 36.3383 19.2066 35.4497C11.6871 34.1117 8.55069 29.5187 8.55069 24.0572C8.55069 21.4112 9.42519 18.9752 11.1366 17.0117C10.0491 13.7687 11.2386 11.0012 11.3976 10.5902C14.5071 10.3082 17.7336 12.8147 17.9841 13.0112C19.7496 12.5372 21.7656 12.2807 24.0216 12.2807C26.2881 12.2807 28.3146 12.5417 30.0906 13.0217C30.6936 12.5627 33.6906 10.4132 36.5811 10.6757C36.7356 11.0867 37.8981 13.7957 36.8751 16.9907C38.6091 18.9587 39.4941 21.4127 39.4941 24.0677C39.4941 29.5397 36.3366 34.1372 28.7961 35.4647C29.4427 36.101 29.9559 36.8599 30.3056 37.697C30.6554 38.5341 30.8347 39.4325 30.8331 40.3397V46.3607C30.8751 46.8407 30.8331 47.3207 31.6386 47.3207C41.1156 44.1257 47.9376 35.1707 47.9376 24.6227C47.9376 11.3957 37.2171 0.681155 23.9961 0.681155C10.7691 0.675155 0.0546875 11.3912 0.0546875 24.6167L0.0561875 24.6182Z" fill="currentColor" stroke="none" stroke-width="none" stroke-linecap="butt"></path>
</svg>