<svg width="48" height="48" viewBox="0 0 48 48" fill="none" xmlns="http://www.w3.org/2000/svg" stroke="currentColor" stroke-width="4">
<path d="M45.5292 26.1536L39.6952 6.28933V6.28397C39.2881 5.05718 38.3185 4.32861 37.1077 4.32861C35.8542 4.32861 34.831 5.05183 34.4452 6.21433L30.6202 17.625H17.3988L13.5738 6.21433C13.1881 5.05183 12.1649 4.32861 10.9113 4.32861C9.67387 4.32861 8.63458 5.12147 8.31851 6.28933L2.48994 26.1536C2.25422 26.9411 2.55422 27.8358 3.21315 28.334L22.9542 43.1411C23.0935 43.334 23.2863 43.4786 23.5113 43.559L23.972 43.9018L24.4274 43.559C24.6899 43.4679 24.9095 43.3072 25.0649 43.0822L44.8006 28.3286C45.4649 27.8358 45.7649 26.9411 45.5292 26.1536ZM36.8399 6.93218C36.8935 6.83576 36.9952 6.8304 37.0274 6.8304C37.0863 6.8304 37.1613 6.84647 37.2095 6.99111L40.3917 17.6947H33.24L36.8399 6.93218ZM10.7292 6.98576C10.7774 6.84647 10.8524 6.8304 10.9113 6.8304C11.056 6.8304 11.0667 6.83576 11.0935 6.92147L14.6988 17.7H7.6328L10.7292 6.98576ZM5.07744 26.5018L6.58815 21.2893L17.431 35.7643L5.07744 26.5018ZM9.03637 20.2661H15.5774L20.4417 35.4965L9.03637 20.2661ZM24.047 38.1429L18.3042 20.2661H29.7845L24.047 38.1429ZM32.506 20.2661H38.9077L27.6417 35.309L32.506 20.2661ZM30.3256 36.0108L41.431 21.1875L43.0113 26.5018L30.3256 36.0108Z" fill="currentColor" stroke="none" stroke-width="none" stroke-linecap="butt"></path>
</svg>