<svg width="48" height="48" viewBox="0 0 48 48" fill="none" xmlns="http://www.w3.org/2000/svg" stroke="currentColor" stroke-width="4">
<path d="M23.9973 21.0537H43.4169C43.6312 22.2501 43.7383 23.393 43.7383 24.4823C43.7383 28.3573 42.9258 31.8171 41.3008 34.8617C39.6758 37.9064 37.3588 40.2858 34.3498 42.0001C31.3409 43.7144 27.8901 44.5716 23.9973 44.5716C21.1937 44.5716 18.524 44.0314 15.9883 42.951C13.4526 41.8707 11.2651 40.4108 9.42578 38.5716C7.5865 36.7323 6.12668 34.5448 5.04632 32.0091C3.96596 29.4733 3.42578 26.8037 3.42578 24.0001C3.42578 21.1966 3.96596 18.5269 5.04632 15.9912C6.12668 13.4555 7.5865 11.268 9.42578 9.42871C11.2651 7.58942 13.4526 6.1296 15.9883 5.04925C18.524 3.96889 21.1937 3.42871 23.9973 3.42871C29.3544 3.42871 33.9526 5.22335 37.7919 8.81264L32.1936 14.1966C29.9972 12.0716 27.2651 11.0091 23.9973 11.0091C21.6937 11.0091 19.5642 11.5894 17.6089 12.7501C15.6535 13.9109 14.1044 15.4867 12.9615 17.4778C11.8187 19.4689 11.2473 21.643 11.2473 24.0001C11.2473 26.3573 11.8187 28.5314 12.9615 30.5225C14.1044 32.5135 15.6535 34.0894 17.6089 35.2501C19.5642 36.4108 21.6937 36.9912 23.9973 36.9912C25.5508 36.9912 26.9794 36.7769 28.283 36.3484C29.5865 35.9198 30.658 35.3841 31.4973 34.7412C32.3365 34.0984 33.0686 33.3662 33.6936 32.5448C34.3186 31.7233 34.7785 30.9466 35.0732 30.2144C35.3678 29.4823 35.5687 28.7859 35.6758 28.1251H23.9973V21.0537Z" fill="currentColor" stroke="none" stroke-width="none" stroke-linecap="butt"></path>
</svg>