<svg width="48" height="48" viewBox="0 0 48 48" fill="none" xmlns="http://www.w3.org/2000/svg" stroke="currentColor" stroke-width="4">
<path d="M25.0991 3.9001C25.2991 4.0001 25.4991 4.2001 25.5991 4.4001L32.3991 14.4001L43.9991 17.8001C45.0991 18.1001 45.6991 19.2001 45.3991 20.3001C45.2991 20.5001 45.1991 20.8001 45.0991 21.0001L37.6991 30.5001L38.0991 42.5001C38.0991 43.6001 37.2991 44.5001 36.1991 44.6001C35.9991 44.6001 35.6991 44.6001 35.4991 44.5001L23.9991 40.4001L12.6991 44.5001C11.6991 44.9001 10.4991 44.3001 10.0991 43.3001C9.99906 43.0001 9.99906 42.7001 9.99906 42.5001L10.3991 30.5001L2.99906 20.9001C2.29906 20.0001 2.49906 18.8001 3.39906 18.1001C3.59906 17.9001 3.79906 17.8001 4.09906 17.8001L15.6991 14.4001L22.4991 4.4001C22.9991 3.5001 24.1991 3.3001 25.0991 3.9001ZM23.9991 9.1001L18.0991 17.8001L7.99906 20.8001L14.4991 29.1001L14.1991 39.6001L24.0991 36.0001L33.9991 39.6001L33.6991 29.1001L40.1991 20.8001L30.0991 17.8001L23.9991 9.1001ZM28.9991 20.6001C29.7991 20.6001 30.4991 21.1001 30.7991 21.8001C31.0991 22.5001 30.8991 23.4001 30.2991 23.9001L23.9991 29.6001H28.9991C29.9991 29.6001 30.8991 30.5001 30.8991 31.5001C30.8991 32.5001 29.9991 33.4001 28.9991 33.4001H18.9991C18.1991 33.4001 17.4991 32.9001 17.1991 32.2001C16.8991 31.5001 17.0991 30.6001 17.6991 30.1001L23.9991 24.4001H18.9991C17.9991 24.4001 17.0991 23.5001 17.0991 22.5001C17.0991 21.5001 17.9991 20.6001 18.9991 20.6001H28.9991Z" fill="currentColor" stroke="none" stroke-width="none" stroke-linecap="butt"></path>
</svg>