<svg width="48" height="48" viewBox="0 0 48 48" fill="none" xmlns="http://www.w3.org/2000/svg" stroke="currentColor" stroke-width="4">
<path d="M7.84991 32.8249C7.84991 32.8249 9.00337 35.9609 11.1139 38.7798C11.1139 38.7798 7.335 40.0612 7.65646 43.3907C7.65646 43.3907 7.52846 47.1041 15.7248 46.8481C15.7248 46.8481 21.4892 46.3987 23.2186 43.9681H24.7386C26.4681 46.4001 32.2325 46.8481 32.2325 46.8481C40.4259 47.1041 40.3008 43.3907 40.3008 43.3907C40.6194 40.0612 36.8434 38.7798 36.8434 38.7798C38.9539 35.9609 40.1074 32.8249 40.1074 32.8249C45.2288 41.0838 44.7183 31.6714 44.7183 31.6714C43.7583 26.1005 39.7234 22.4496 39.7234 22.4496C40.2994 17.3921 38.1859 16.4947 38.1859 16.4947C37.7423 0.843786 24.2601 1.12015 23.9779 1.12596C23.6943 1.12015 10.2106 0.84524 9.767 16.4947C9.767 16.4947 7.65355 17.3921 8.22955 22.4496C8.22955 22.4496 4.19609 26.1005 3.23464 31.6714C3.24046 31.6714 2.72555 41.0838 7.84991 32.8249Z" fill="currentColor" stroke="none" stroke-width="none" stroke-linecap="butt"></path>
</svg>