<svg width="48" height="48" viewBox="0 0 48 48" fill="none" xmlns="http://www.w3.org/2000/svg" stroke="currentColor" stroke-width="4">
<path d="M43.2774 13.575C43.2774 30.1875 32.3649 42.15 16.3149 42.675C9.52734 43.2 4.87734 41.1375 0.714844 38.025C5.36484 38.55 11.6274 37.0125 14.7024 33.8625C10.0524 33.8625 7.42734 31.2375 5.88984 27.675H10.0524C5.88984 26.1 2.73984 22.9875 2.73984 17.8125C3.75234 18.3375 4.80234 18.825 6.90234 18.825C3.26484 16.7625 1.20234 10.0125 3.78984 5.85001C8.43984 11.025 14.1399 15.7125 23.5524 16.2C20.9274 5.85001 34.4649 0.600014 40.1649 7.38751C42.7899 6.86251 44.3274 5.85001 46.3524 4.76251C45.8274 7.38751 44.2899 8.92501 42.1899 9.93751C44.2524 9.93751 45.8274 9.41251 47.3649 8.40001C46.8774 10.4625 44.8149 12.5625 43.2774 13.575Z" fill="currentColor" stroke="none" stroke-width="none" stroke-linecap="butt"></path>
</svg>