<svg width="48" height="48" viewBox="0 0 48 48" fill="none" xmlns="http://www.w3.org/2000/svg" stroke="currentColor" stroke-width="4">
<path d="M32.0905 16.3616C29.6782 16.3436 27.2883 16.9321 25.1635 18.0776C23.1106 19.1602 21.3766 20.7819 20.1547 22.754C18.9284 24.6946 18.2815 26.9361 18.2994 29.2272C18.3084 30.3637 18.4836 31.5002 18.8161 32.5873H17.3112C15.7119 32.5334 14.1128 32.3357 12.545 31.9944L11.6196 31.8281L5.95495 34.7571L7.50475 29.91C3.17879 26.7834 1.01805 23.0774 1.00008 18.7918C0.991094 16.3076 1.75926 13.8953 3.18777 11.8649C4.69265 9.69516 6.73659 7.95669 9.12643 6.83814C11.6959 5.5983 14.5216 4.97389 17.374 5.00084C19.9256 4.99186 22.4547 5.50845 24.7997 6.50572C27.0367 7.4401 29.0492 8.85064 30.6934 10.634C32.2162 12.2602 33.245 14.2727 33.6851 16.4514C33.182 16.4064 32.6384 16.3616 32.0905 16.3616ZM11.9385 15.9483C12.4821 15.9842 13.0211 15.818 13.4435 15.4766C13.8477 15.0993 14.0633 14.5691 14.0364 14.0167C14.0633 13.4641 13.8432 12.934 13.4435 12.5566C13.0346 12.1793 12.4911 11.9861 11.9385 12.0221C11.3366 12.0132 10.7481 12.2063 10.2674 12.5566C9.81374 12.8801 9.53971 13.4057 9.53971 13.9582C9.49478 14.5557 9.7733 15.1352 10.2674 15.4811C10.7616 15.8 11.3456 15.9663 11.9385 15.9483ZM47 28.989C46.982 30.8354 46.4295 32.6457 45.4097 34.1821C44.2822 35.7812 42.8896 37.1828 41.2814 38.3104L42.5393 42.4387L38.0291 40.0263H37.7865C36.2816 40.4486 34.7453 40.7092 33.1865 40.7855C30.7473 40.8125 28.3395 40.2689 26.1563 39.1953C24.1438 38.207 22.4233 36.7291 21.1475 34.8828C19.9481 33.1354 19.3102 31.06 19.3102 28.9441C19.3013 26.8283 19.9391 24.7619 21.1475 23.0234C22.4143 21.1772 24.1483 19.6903 26.1563 18.7109C28.344 17.6373 30.7563 17.0938 33.1865 17.1207C35.5315 17.1118 37.8494 17.6553 39.9473 18.7109C41.9822 19.6903 43.7342 21.1772 45.0369 23.0234C46.3037 24.7484 46.9865 26.8373 46.9775 28.989H47ZM23.407 11.9547C22.7782 11.9278 22.1672 12.121 21.6596 12.4893C21.161 12.8127 20.8735 13.3653 20.9004 13.9493C20.8825 14.5332 21.17 15.0948 21.6596 15.4092C22.1582 15.7686 22.7602 15.9528 23.3756 15.9438C23.9192 15.9887 24.4582 15.8225 24.8805 15.4721C25.2489 15.0678 25.442 14.5467 25.415 14.0122C25.4869 13.4417 25.2848 12.8846 24.8805 12.4804C24.4762 12.076 23.9102 11.8873 23.3487 11.9457H23.4115V11.9547H23.407ZM28.6629 26.9856C29.1975 27.0215 29.7231 26.8373 30.1228 26.4869C30.4553 26.1994 30.6485 25.7861 30.6575 25.3504C30.6395 24.9147 30.4463 24.5014 30.1228 24.2139C29.7186 23.8635 29.1975 23.6883 28.6629 23.7153C28.2452 23.7332 27.8588 23.9085 27.5713 24.2139C27.2659 24.5104 27.0817 24.9236 27.0727 25.3504C27.0817 25.7772 27.2568 26.1904 27.5713 26.4869C27.8588 26.7924 28.2497 26.9675 28.6629 26.9856ZM37.6158 26.9856C38.1504 27.0215 38.6759 26.8373 39.0758 26.4869C39.4082 26.1994 39.6014 25.7861 39.6103 25.3504C39.5834 24.9057 39.3678 24.4835 39.0174 24.2139C38.6221 23.8814 38.1235 23.7062 37.6158 23.7153C37.1981 23.7243 36.8028 23.8994 36.5242 24.2139C36.2188 24.5104 36.0346 24.9236 36.0256 25.3504C36.0346 25.7772 36.2098 26.1904 36.5242 26.4869C36.8028 26.7924 37.1981 26.9766 37.6158 26.9856Z" fill="currentColor" stroke="none" stroke-width="none" stroke-linecap="butt"></path>
</svg>