<svg width="48" height="48" viewBox="0 0 48 48" fill="none" xmlns="http://www.w3.org/2000/svg" stroke="currentColor" stroke-width="4">
<path d="M17.5141 29.5201C17.2954 29.6321 17.0714 29.6854 16.7994 29.6854C16.1914 29.6854 15.6954 29.3547 15.4181 28.8587L15.3061 28.6401L10.9487 19.1467C10.8954 19.0347 10.8954 18.9281 10.8954 18.8161C10.8954 18.3734 11.2261 18.0427 11.6687 18.0427C11.8341 18.0427 11.9994 18.0961 12.1647 18.2081L17.2954 21.8507C17.6794 22.0694 18.1221 22.2347 18.6181 22.2347C18.8954 22.2347 19.1674 22.1814 19.4447 22.0694L43.5034 11.3654C39.1994 6.28807 32.0847 2.97607 24.0261 2.97607C10.8954 2.97607 0.191406 11.8614 0.191406 22.8374C0.191406 28.7947 3.39141 34.2027 8.41007 37.8454C8.79407 38.1227 9.07141 38.6187 9.07141 39.1147C9.07141 39.2801 9.01807 39.4454 8.95941 39.6107C8.57541 41.0987 7.90874 43.5307 7.90874 43.6374C7.85541 43.8027 7.79674 44.0214 7.79674 44.2454C7.79674 44.6881 8.12741 45.0187 8.57007 45.0187C8.73541 45.0187 8.90074 44.9654 9.01274 44.8534L14.1967 41.8187C14.5807 41.6001 15.0234 41.4347 15.4661 41.4347C15.6847 41.4347 15.9621 41.4881 16.1807 41.5467C18.6074 42.2614 21.2581 42.6507 23.9621 42.6507C37.0927 42.6507 47.7967 33.7654 47.7967 22.7894C47.7967 19.4774 46.8047 16.3361 45.0927 13.5734L17.6794 29.4081L17.5141 29.5201Z" fill="currentColor" stroke="none" stroke-width="none" stroke-linecap="butt"></path>
</svg>