<svg width="48" height="48" viewBox="0 0 48 48" fill="none" xmlns="http://www.w3.org/2000/svg" stroke="currentColor" stroke-width="4">
<path d="M31.8194 5.59991C30.375 6.23471 30.0438 7.74351 31.0926 8.79231C31.6078 9.30751 32.0862 9.39951 34.2022 9.39951C37.1554 9.39951 39.1425 10.1815 40.6513 11.9296C42.4913 14.0088 42.703 14.6436 42.703 18.4432C42.703 21.8196 42.703 21.884 43.485 22.3348C45.2974 23.356 46.5025 22.0956 46.9257 18.7192C47.4685 14.3216 44.8466 9.18791 40.8998 6.84191C38.3054 5.33311 33.871 4.72591 31.8194 5.59991ZM16.989 11.212C13.6126 12.4172 10.3558 14.7356 6.85978 18.48C-1.42942 27.2844 -0.886622 35.6656 8.24898 40.1276C17.7434 44.7644 30.5314 43.228 37.4958 36.5948C42.7121 31.6544 42.0774 25.4352 36.1434 23.3284C35.0854 22.9696 34.7542 22.6936 34.9106 22.3624C35.4534 21.0376 35.6374 19.5012 35.3338 18.5904C34.3954 15.7292 30.9914 15.0668 25.9314 16.778L23.9074 17.468L24.0913 15.444C24.3029 13.0612 23.7878 11.764 22.371 11.0464C21.1842 10.4575 18.921 10.5219 16.989 11.212ZM25.3702 22.8776C29.8598 24.1104 32.6013 26.8244 32.6013 30.0536C32.6013 33.6416 29.409 36.8708 24.2202 38.582C21.451 39.4836 16.2897 39.6676 13.7597 38.9776C8.96658 37.6252 6.25258 34.9664 6.25258 31.5624C6.25258 29.6948 7.06218 28.0664 8.84698 26.4104C10.503 24.8464 11.7726 24.092 14.2106 23.2732C17.8998 22.0312 21.8466 21.884 25.3702 22.8776ZM15.8758 25.8032C12.8305 27.22 11.2022 29.3912 11.2022 32.1052C11.2022 34.58 12.2878 36.2636 14.6706 37.5332C16.5106 38.5268 19.8869 38.4348 21.9385 37.386C24.5605 35.9968 26.281 33.4392 26.281 30.9368C26.2534 28.8852 24.441 26.4472 22.2974 25.5732C20.577 24.8372 17.6882 24.9568 15.8758 25.8032ZM18.0746 31.4704C18.2862 31.682 18.4334 32.1972 18.4334 32.648C18.4334 34.1568 15.9034 35.3896 14.873 34.3684C14.3026 33.798 14.4498 32.3812 15.1122 31.7188C15.7746 31.0564 17.5042 30.9 18.0746 31.4704ZM32.3346 11.7824C30.9454 13.1716 31.8838 14.8276 34.0826 14.8276C35.9778 14.8276 36.8242 15.7936 36.8242 17.9648C36.8242 19.3172 36.9438 19.7128 37.4866 20.0716C39.115 21.2216 40.4398 19.952 40.4398 17.2656C40.4398 13.9812 38.0846 11.5064 34.745 11.2672C33.2362 11.1476 32.8774 11.2396 32.3346 11.7824Z" fill="currentColor" stroke="none" stroke-width="none" stroke-linecap="butt"></path>
</svg>