<?xml version="1.0" standalone="no"?><!DOCTYPE svg PUBLIC "-//W3C//DTD SVG 1.1//EN" "http://www.w3.org/Graphics/SVG/1.1/DTD/svg11.dtd"><svg t="1557470591157" style="" viewBox="0 0 1024 1024" version="1.1" xmlns="http://www.w3.org/2000/svg" p-id="6387" xmlns:xlink="http://www.w3.org/1999/xlink" width="32" height="32"><defs><style type="text/css"></style></defs><path d="M812.8 401.066667c-4.266667-32-10.666667-166.4-42.666667-209.066667-113.066667-89.6-256-85.333333-256-85.333333s-142.933333-4.266667-256 85.333333c-29.866667 42.666667-40.533333 177.066667-42.666666 209.066667l10.666666 196.266666v4.266667s40.533333 177.066667 57.6 206.933333c19.2 38.4 76.8 110.933333 123.733334 138.666667 19.2 10.666667 70.4 12.8 106.666666 12.8 40.533333 0 89.6-4.266667 106.666667-12.8 46.933333-23.466667 102.4-98.133333 123.733333-138.666667 17.066667-29.866667 57.6-206.933333 57.6-206.933333V597.333333l10.666667-196.266666z" fill="#B71C1C" p-id="6388"></path><path d="M744.533333 618.666667c-10.666667 12.8-72.533333 132.266667-72.533333 132.266666s-10.666667 46.933333 0 89.6-10.666667 46.933333-10.666667 46.933334L635.733333 917.333333l-46.933333-19.2h-142.933333l-46.933334 19.2-25.6-29.866666s-19.2-4.266667-10.666666-46.933334c10.666667-42.666667 0-89.6 0-89.6s-72.533333-117.333333-83.2-132.266666c-10.666667-12.8-17.066667-59.733333-17.066667-59.733334l25.6-74.666666-6.4-226.133334s19.2-29.866667 46.933333-49.066666c23.466667-17.066667 89.6-36.266667 89.6-36.266667l23.466667 166.4s6.4 36.266667 6.4 38.4c0 4.266667 23.466667 10.666667 23.466667 10.666667h87.466666s23.466667-6.4 23.466667-10.666667 6.4-38.4 6.4-38.4l23.466667-166.4s66.133333 17.066667 89.6 36.266667c19.2 19.2 42.666667 49.066667 42.666666 49.066666l-6.4 224 25.6 74.666667c-2.133333 2.133333-8.533333 49.066667-19.2 61.866667z" fill="#FFC107" p-id="6389"></path><path d="M731.733333 576l-12.8 6.4c-25.6 14.933333-40.533333 23.466667-51.2 27.733333-8.533333 8.533333-21.333333 8.533333-25.6 8.533334l-66.133333 4.266666v8.533334-8.533334c-8.533333 0-19.2-2.133333-25.6-12.8-2.133333-2.133333-6.4-8.533333-14.933333-21.333333-4.266667-4.266667-14.933333-6.4-23.466667-6.4s-17.066667 0-23.466667 6.4c-8.533333 12.8-12.8 17.066667-14.933333 21.333333-6.4 8.533333-17.066667 12.8-25.6 12.8l-68.266667-4.266666c-2.133333 0-14.933333 0-27.733333-8.533334-8.533333-4.266667-23.466667-12.8-49.066667-27.733333l-14.933333-8.533333c-4.266667-2.133333-8.533333-6.4-8.533333-12.8-2.133333-8.533333 4.266667-17.066667 6.4-19.2l27.733333-21.333334c2.133333-2.133333 12.8-6.4 23.466667-2.133333 4.266667 2.133333 8.533333 2.133333 14.933333 4.266667 25.6 8.533333 74.666667 27.733333 117.333333 29.866666h78.933334c44.8-2.133333 91.733333-21.333333 117.333333-29.866666 6.4-2.133333 10.666667-4.266667 14.933333-4.266667 8.533333-4.266667 21.333333 0 23.466667 2.133333l27.733333 21.333334c2.133333 2.133333 8.533333 8.533333 6.4 19.2 4.266667 6.4 0 10.666667-6.4 14.933333z" fill="#E8B006" p-id="6390"></path><path d="M546.133333 580.266667s12.8 19.2 17.066667 23.466666c4.266667 6.4 12.8 6.4 12.8 6.4l66.133333-4.266666s12.8 0 19.2-6.4c10.666667-4.266667 46.933333-25.6 64-36.266667 6.4-4.266667 0-10.666667 0-10.666667l-25.6-19.2s-4.266667-4.266667-10.666666 0c-19.2 6.4-78.933333 32-136.533334 36.266667-17.066667 2.133333-6.4 10.666667-6.4 10.666667zM477.866667 580.266667s-12.8 19.2-17.066667 23.466666c-4.266667 6.4-12.8 6.4-12.8 6.4l-66.133333-4.266666s-12.8 0-19.2-6.4c-10.666667-4.266667-46.933333-25.6-64-36.266667-6.4-4.266667 0-10.666667 0-10.666667l25.6-19.2s4.266667-4.266667 10.666666 0c19.2 6.4 78.933333 32 136.533334 36.266667 17.066667 2.133333 6.4 10.666667 6.4 10.666667z" fill="#81D4FA" p-id="6391"></path><path d="M588.8 590.933333h55.466667l53.333333-32-14.933333-23.466666c-21.333333 8.533333-64 25.6-108.8 32l14.933333 23.466666zM450.133333 567.466667c-44.8-6.4-87.466667-23.466667-108.8-32l-14.933333 23.466666 53.333333 32h55.466667l14.933333-23.466666z" fill="#E1F5FE" p-id="6392"></path><path d="M795.733333 599.466667h17.066667c6.4 0 12.8-6.4 12.8-12.8l6.4-170.666667c0-6.4-6.4-12.8-12.8-12.8h-6.4l-17.066667 196.266667zM211.2 401.066667h-6.4c-6.4 0-12.8 6.4-12.8 12.8l6.4 170.666666c0 6.4 6.4 12.8 12.8 12.8h17.066667l-17.066667-196.266666z" fill="#851414" p-id="6393"></path></svg>