<svg width="48" height="48" viewBox="0 0 48 48" fill="none" xmlns="http://www.w3.org/2000/svg" stroke="currentColor" stroke-width="4">
<path d="M29 16H41C41.5523 16 42 16.4477 42 17V39C42 39.5523 41.5523 40 41 40H7C6.44772 40 6 39.5523 6 39V17C6 16.4477 6.44772 16 7 16H19M29 16L37 7M29 16H19M19 16L11 7M28.2814 28.8801L22.0855 33.3549C21.4242 33.8325 20.5 33.36 20.5 32.5442V24.2831C20.5 23.5021 21.3551 23.0226 22.0214 23.4298L28.2173 27.2162C28.8269 27.5887 28.8606 28.4618 28.2814 28.8801Z" stroke-linecap="butt"></path>
</svg>