<svg width="48" height="48" viewBox="0 0 48 48" fill="none" xmlns="http://www.w3.org/2000/svg" stroke="currentColor" stroke-width="4">
<path d="M15 37C15 34.7909 13.2091 33 11 33C8.79086 33 7 34.7909 7 37C7 39.2091 8.79086 41 11 41C13.2091 41 15 39.2091 15 37ZM15 37V18.5M41 37C41 34.7909 39.2091 33 37 33C34.7909 33 33 34.7909 33 37C33 39.2091 34.7909 41 37 41C39.2091 41 41 39.2091 41 37ZM41 37V16.5M15 18.5V9.92603C15 9.40349 15.4023 8.96905 15.9233 8.92898L39.9233 7.08282C40.5041 7.03815 41 7.49737 41 8.07988V16.5M15 18.5L41 16.5" stroke-linecap="butt"></path>
</svg>