<svg width="48" height="48" viewBox="0 0 48 48" fill="none" xmlns="http://www.w3.org/2000/svg" stroke="currentColor" stroke-width="4">
<path fill-rule="evenodd" clip-rule="evenodd" d="M24 6C33.9411 6 42 14.0589 42 24C42 33.9411 33.9411 42 24 42C14.0589 42 6 33.9411 6 24C6 14.0589 14.0589 6 24 6Z" stroke-linecap="butt"></path>
<path d="M19 20C19 19.4477 19.4477 19 20 19H28C28.5523 19 29 19.4477 29 20V28C29 28.5523 28.5523 29 28 29H20C19.4477 29 19 28.5523 19 28V20Z" fill="currentColor" stroke="none" stroke-width="none" stroke-linecap="butt"></path>
<path d="M19 20C19 19.4477 19.4477 19 20 19H28C28.5523 19 29 19.4477 29 20V28C29 28.5523 28.5523 29 28 29H20C19.4477 29 19 28.5523 19 28V20Z" stroke-linecap="butt"></path>
</svg>