<svg width="110" height="34" viewBox="0 0 71 33" fill="none" xmlns="http://www.w3.org/2000/svg">
<path d="M11.1319 2.44923L2.54906 9.19657C1.3505 10.1396 0.645264 11.6146 0.645264 13.1796V29.2131C0.645264 29.9341 1.45365 30.327 1.98286 29.8623L12.234 20.8632L22.4851 29.8623C23.0144 30.327 23.8227 29.9352 23.8227 29.2131V13.1796C23.8227 11.6135 23.1175 10.1385 21.9189 9.19657L13.3361 2.44923C12.6836 1.93554 11.7844 1.93554 11.1319 2.44923Z" fill="#00E5E5"/>
<path d="M21.9201 9.19694L13.3373 2.44959C12.6847 1.93705 11.7855 1.93705 11.133 2.44959L2.5502 9.19694C1.91672 9.69581 1.42563 10.345 1.09937 11.0763L19.9782 27.661L22.4863 29.8627C23.0155 30.3274 23.8239 29.9356 23.8239 29.2134V13.18C23.8239 11.6139 23.1198 10.14 21.9201 9.19694Z" fill="#006EFF"/>
<path d="M54.7458 10.7545H56.8346C56.9546 10.7545 57.0521 10.6554 57.0521 10.5335V8.06081C57.0521 7.93894 56.9546 7.83984 56.8346 7.83984H54.7458C54.6259 7.83984 54.5283 7.93894 54.5283 8.06081V10.5335C54.5294 10.6554 54.6259 10.7545 54.7458 10.7545Z" fill="#4B4B4B"/>
<path d="M70.4283 24.7777H59.7062C59.6087 24.7777 59.5111 24.7788 59.4158 24.7799C58.5065 24.7913 57.7722 24.7993 56.8685 23.7731C57.0075 23.1888 57.077 22.5441 57.077 21.8288V13.9049V12.668V11.8274C57.077 11.7055 56.9795 11.6064 56.8595 11.6064H52.9061C52.7862 11.6064 52.6886 11.7055 52.6886 11.8274V13.9026C52.6886 14.0245 52.7862 14.1236 52.9061 14.1236H54.5532V21.8277C54.5532 23.6387 54.0116 24.6136 52.7223 25.0123C52.6326 25.0396 52.572 25.1262 52.572 25.2219V27.5408C52.572 27.6092 52.6337 27.6604 52.6987 27.649C53.4096 27.5158 54.043 27.2891 54.5891 26.9702C54.9994 26.731 55.3627 26.4383 55.6755 26.0989C56.9593 27.1991 58.1948 27.2994 59.1344 27.2994C59.242 27.2994 59.3463 27.2982 59.4461 27.2971C59.5369 27.296 59.6233 27.2948 59.7051 27.2948H70.4272C70.5471 27.2948 70.6447 27.1957 70.6447 27.0739V24.9986C70.6447 24.8768 70.5471 24.7777 70.4283 24.7777Z" fill="#4B4B4B"/>
<path d="M57.8893 21.8653H63.8126V24.1137C63.8126 24.2355 63.9101 24.3346 64.0301 24.3346H66.0281C66.148 24.3346 66.2456 24.2355 66.2456 24.1137V21.8653H70.3077C70.4277 21.8653 70.5252 21.7662 70.5252 21.6443V19.7548C70.5252 19.6329 70.4277 19.5338 70.3077 19.5338H66.2456V17.6283H69.9579C70.0778 17.6283 70.1754 17.5292 70.1754 17.4073V15.5177C70.1754 15.3959 70.0778 15.2968 69.9579 15.2968H66.2456V12.6839C66.2456 12.5621 66.148 12.463 66.0281 12.463H64.0301C63.9101 12.463 63.8126 12.5621 63.8126 12.6839V15.2991H61.1385C61.0645 15.2991 61.0129 15.2239 61.0376 15.1533L62.3258 11.57H70.1507C70.2707 11.57 70.3682 11.4709 70.3682 11.3491V9.45948C70.3682 9.33761 70.2707 9.23852 70.1507 9.23852H63.1634L63.6141 7.98563C63.6399 7.91502 63.5883 7.83984 63.5132 7.83984H61.3616C61.2708 7.83984 61.1901 7.89679 61.1587 7.98336L60.6979 9.23852H58.3658C58.2458 9.23852 58.1482 9.33761 58.1482 9.45948V11.3491C58.1482 11.4709 58.2458 11.57 58.3658 11.57H59.8424L58.4981 15.2319C58.4812 15.2763 58.4734 15.3241 58.4734 15.3719V17.4096C58.4734 17.5315 58.5709 17.6306 58.6909 17.6306H63.8137V19.5361H57.8904C57.7704 19.5361 57.6729 19.6352 57.6729 19.757V21.6466C57.6717 21.7673 57.7693 21.8653 57.8893 21.8653Z" fill="#4B4B4B"/>
<path d="M48.774 9.64685C48.811 9.57396 48.7583 9.4874 48.6787 9.4874H46.2917C46.2154 9.4874 46.1448 9.5284 46.1056 9.59446C44.9687 11.5045 44.1939 12.3075 43.2218 13.2335C43.1725 13.2802 43.1243 13.3258 43.0761 13.3702V8.92018C43.0761 8.79831 42.9785 8.69922 42.8586 8.69922H32.03C31.91 8.69922 31.8125 8.79831 31.8125 8.92018V10.8098C31.8125 10.9316 31.91 11.0307 32.03 11.0307H40.5646C40.6846 11.0307 40.7821 11.1298 40.7821 11.2517V16.6459C40.7821 19.3966 40.9525 21.0731 41.3685 22.4331C41.6152 23.2384 41.9526 23.9354 42.4022 24.563C42.8429 25.1803 43.3945 25.735 44.0874 26.2578C44.833 26.8205 45.7232 27.2089 46.7346 27.4093C47.3557 27.5335 47.8894 27.5585 48.2224 27.5642C48.3435 27.5665 48.4422 27.4674 48.4422 27.3433V25.4525C48.4422 25.3318 48.3469 25.235 48.228 25.2327C47.0889 25.2008 46.1571 24.9172 45.4553 24.3876C44.4653 23.6393 43.8979 22.8477 43.5582 21.7406C43.2342 20.6813 43.0907 19.3009 43.0772 17.04C44.7859 18.8202 45.5024 20.2087 46.0843 21.3123C46.1224 21.3841 46.1953 21.4285 46.2749 21.4285H48.6776C48.7527 21.4285 48.8054 21.3533 48.7785 21.2816C48.3267 20.0663 46.8074 17.5491 44.5336 15.2233C45.8141 14.0559 47.4499 12.2426 48.774 9.64685Z" fill="#4B4B4B"/>
</svg>
