<svg width="110" height="34" viewBox="0 0 73 33" fill="none" xmlns="http://www.w3.org/2000/svg">
<path d="M11.3779 6.38965H0V9.63988H11.3741C13.241 9.64187 15.0309 10.3844 16.3511 11.7045C17.6712 13.0246 18.4137 14.8145 18.4157 16.6814V28.0534H21.666V16.6814C21.663 13.9534 20.5783 11.338 18.6496 9.40867C16.721 7.47935 14.1059 6.39364 11.3779 6.38965Z" fill="#F5333F"/>
<path d="M11.3779 10.7219H0V13.9722H6.98697C6.86132 14.5828 6.52917 15.1316 6.04639 15.5261C5.56362 15.9206 4.95969 16.1368 4.33622 16.1383H0V19.381H4.33622C5.82212 19.3793 7.25391 18.8232 8.35129 17.8213C9.44867 16.8195 10.1326 15.4442 10.2693 13.9646H11.3552C11.219 15.7336 10.4208 17.3862 9.11969 18.5926C7.81863 19.7989 6.1105 20.4703 4.33622 20.4726H0V23.7172H4.33622C6.48969 23.7144 8.58821 23.0372 10.3371 21.7807C12.086 20.5242 13.3973 18.7515 14.0871 16.7115V19.2679C13.0786 20.9546 11.6503 22.3512 9.94141 23.3215C8.23254 24.2919 6.3014 24.803 4.33622 24.805H0V28.0533H4.33622C7.93629 28.0558 11.4098 26.7254 14.0871 24.3186V28.0533H17.3449V16.6813C17.3434 15.0999 16.714 13.5839 15.5951 12.4664C14.4761 11.3489 12.9593 10.7214 11.3779 10.7219Z" fill="#F5333F"/>
<path d="M11.3779 2.05713H0V5.30547H11.3741C14.3899 5.30896 17.2812 6.50867 19.4136 8.64134C21.5459 10.774 22.7452 13.6655 22.7482 16.6813V28.0533H25.9985V16.6813C25.9945 12.8046 24.4529 9.08777 21.712 6.34618C18.9711 3.60459 15.2546 2.06212 11.3779 2.05713Z" fill="#F5333F"/>
<path d="M44.6331 17.9727C44.2887 17.1319 44.0359 16.2565 43.879 15.3615H51.3392V12.6505H43.6905V8.33887H40.7343V12.6505H33.0932V15.3615H40.5778C40.0988 17.574 39.1038 19.6419 37.6741 21.397C36.2443 23.152 34.4202 24.5445 32.3503 25.461L33.8247 28.0401C37.4932 26.3395 40.4516 23.4098 42.1879 19.758C43.8678 23.3985 46.7959 26.3172 50.4418 27.9854L50.5964 28.057L52.0707 25.4799L51.6767 25.2913C48.4873 23.8309 45.9703 21.2156 44.6331 17.9727Z" fill="black"/>
<path d="M69.568 12.6505H63.9008V8.33887H60.9427V12.6505H54.297V15.3615H60.8729C60.8522 15.535 60.8315 15.7066 60.8051 15.8781C60.4947 17.8795 59.6958 19.7736 58.4791 21.3927C57.2624 23.0119 55.6654 24.3062 53.8294 25.1613L53.2751 25.4139L54.7476 27.9911L55.0775 27.8384C57.3528 26.7781 59.3318 25.1737 60.8398 23.1669C62.3478 21.1602 63.3382 18.8129 63.7235 16.3325C63.7726 16.012 63.8103 15.6877 63.8404 15.3615H69.4492L69.1344 22.3823C69.125 22.6293 69.1174 22.8914 69.0967 23.1365C69.0852 23.491 69.0158 23.8413 68.8912 24.1734C68.8919 24.1796 68.8919 24.186 68.8912 24.1922C68.582 24.788 67.9994 25.0896 67.2623 25.0896H63.6613L64.1477 27.8006H67.7147C68.8278 27.8027 69.8986 27.3743 70.7032 26.6052C71.5078 25.8361 71.9839 24.7858 72.0321 23.6738L72.5298 12.643L69.568 12.6505Z" fill="black"/>
</svg>
