<svg width="110" height="34" viewBox="0 0 110 34" fill="none" xmlns="http://www.w3.org/2000/svg">
<path fill-rule="evenodd" clip-rule="evenodd" d="M16.241 8H21.4676L30.4276 26.6667H15.3076L17.4543 22.3733H22.9609L16.241 8Z" fill="#135ED3"/>
<path opacity="0.8" fill-rule="evenodd" clip-rule="evenodd" d="M20.3467 8H21.4667L14.6533 22.3733L12.5067 26.6667H7L16.24 8H20.3467Z" fill="url(#paint0_linear)"/>
<path d="M91.908 20.7869V14.4402H89.5747V20.5069C89.5747 22.6535 88.4547 23.4002 86.9613 23.4002C85.468 23.4002 84.348 22.6535 84.348 20.5069V14.4402H82.0146V20.7869C82.0146 24.3335 84.4413 25.7335 86.9613 25.7335C89.4813 25.7335 91.908 24.2402 91.908 20.7869Z" fill="white" fill-opacity="0.9"/>
<path fill-rule="evenodd" clip-rule="evenodd" d="M68.2281 14.1599C71.5881 14.1599 74.0147 16.6799 74.0147 19.9466C74.0147 23.2132 71.5881 25.7332 68.2281 25.7332C64.8681 25.7332 62.4414 23.2132 62.4414 19.9466C62.4414 16.6799 64.8681 14.1599 68.2281 14.1599ZM68.2282 16.3999C66.2682 16.3999 64.8682 17.7999 64.8682 19.9466C64.8682 22.0932 66.2682 23.4932 68.2282 23.4932C70.1882 23.4932 71.5882 22.0932 71.5882 19.9466C71.5882 17.7999 70.0948 16.3999 68.2282 16.3999Z" fill="white" fill-opacity="0.9"/>
<path fill-rule="evenodd" clip-rule="evenodd" d="M56.1877 14.1599C59.1744 14.1599 61.2277 16.4932 61.2277 19.9466V20.8799H53.2944C53.5744 22.8399 54.9744 23.6799 56.4677 23.6799C57.5877 23.6799 58.7077 23.2132 59.5477 22.5599L60.6677 24.2399C59.3611 25.3599 57.8677 25.8266 56.2811 25.8266C53.1077 25.8266 50.7744 23.4932 50.7744 20.0399C50.7744 16.4932 53.0144 14.1599 56.1877 14.1599ZM56.0945 16.3066C54.4145 16.3066 53.4812 17.4266 53.2012 19.0133H58.8012C58.6145 17.3333 57.5878 16.3066 56.0945 16.3066Z" fill="white" fill-opacity="0.9"/>
<path fill-rule="evenodd" clip-rule="evenodd" d="M44.2406 9.3999L50.4006 25.4532H47.6939L46.1072 21.3466H39.0139L37.4272 25.4532H34.9072L41.0672 9.3999H44.2406ZM42.6544 12.0132L40.041 18.9198H45.2677L42.6544 12.0132Z" fill="white" fill-opacity="0.9"/>
<path d="M79.3079 25.4533V8.93335H76.9746V25.4533H79.3079Z" fill="white" fill-opacity="0.9"/>
<path d="M103.24 15.2133L102.213 17.08C101.56 16.7067 100.253 16.1467 98.8533 16.1467C97.5467 16.1467 96.8 16.7067 96.8 17.4533C96.8 18.2 97.5467 18.48 98.5733 18.5733L99.6933 18.76C102.027 19.1333 103.427 20.16 103.427 22.0267C103.427 24.1733 101.653 25.5733 98.5733 25.5733C97.4533 25.5733 95.4933 25.3867 94 24.1733L95.12 22.4C95.8667 23.0533 96.8933 23.52 98.6667 23.52C100.253 23.52 101.093 22.96 101.093 22.2133C101.093 21.56 100.533 21.1867 99.2267 21L98.1067 20.8133C95.7733 20.44 94.4667 19.32 94.4667 17.5467C94.4667 15.4 96.1467 14 98.9467 14C100.627 14 102.12 14.4667 103.24 15.2133Z" fill="white" fill-opacity="0.9"/>
<defs>
<linearGradient id="paint0_linear" x1="16.2799" y1="7.84564" x2="9.82345" y2="25.6336" gradientUnits="userSpaceOnUse">
<stop stop-color="#5E9EFF"/>
<stop offset="1" stop-color="#004FC9"/>
</linearGradient>
</defs>
</svg>
