<svg width="110" height="34" viewBox="0 0 112 32" fill="none" xmlns="http://www.w3.org/2000/svg">
<path d="M19.875 13.5517L16.646 27.5547C16.5912 27.7736 16.7633 27.9847 16.99 27.9847H23.4403C23.667 27.9847 23.839 27.7736 23.7843 27.5547L20.5552 13.5517C20.477 13.1843 19.9532 13.1843 19.875 13.5517Z" fill="#00E5E5"/>
<path d="M2.00958 18.8601L0.00803526 27.5543C-0.0388759 27.7732 0.125313 27.9843 0.35205 27.9843H4.35513C4.58187 27.9843 4.74606 27.7732 4.69915 27.5543L2.69761 18.8601C2.61942 18.5004 2.09558 18.5004 2.00958 18.8601Z" fill="#00E5E5"/>
<path d="M6.41112 8.24264L1.96238 27.5622C1.90765 27.7811 2.07966 27.9922 2.3064 27.9922H11.1961C11.4228 27.9922 11.5948 27.7811 11.5401 27.5622L7.09133 8.24264C7.01315 7.87517 6.49712 7.87517 6.41112 8.24264Z" fill="#006EFF"/>
<path d="M13.8784 0.275603L7.59226 27.5622C7.53753 27.7811 7.70954 27.9922 7.93628 27.9922H20.5006C20.7274 27.9922 20.8994 27.7811 20.8447 27.5622L14.5586 0.275603C14.4804 -0.0918676 13.9644 -0.0918676 13.8784 0.275603Z" fill="#006EFF"/>
<path d="M9.71875 10.8933L5.87986 27.5624C5.82513 27.7813 5.99714 27.9924 6.22388 27.9924H13.8938C14.1206 27.9924 14.2926 27.7813 14.2379 27.5624L10.399 10.8933C10.3208 10.5258 9.80476 10.5258 9.71875 10.8933Z" fill="#00E5E5"/>
<path d="M58.1982 27.3978H56.394C56.2833 27.3978 56.1982 27.3127 56.1982 27.2021V10.7092C56.1982 10.5985 56.2833 10.5134 56.394 10.5134H58.1982C58.3088 10.5134 58.3939 10.5985 58.3939 10.7092V27.2021C58.4024 27.3042 58.3088 27.3978 58.1982 27.3978Z" fill="white"/>
<path d="M82.2996 27.9427H80.4018C80.2912 27.9427 80.2061 27.8491 80.2061 27.747V10.7009C80.2061 10.5902 80.2997 10.5051 80.4018 10.5051H82.2996C82.4102 10.5051 82.4953 10.5987 82.4953 10.7009V27.747C82.5038 27.8491 82.4102 27.9427 82.2996 27.9427Z" fill="white"/>
<path d="M51.7987 27.8238H49.9946C49.8839 27.8238 49.7988 27.7302 49.7988 27.6281V12.6926C49.7988 12.5819 49.8924 12.4968 49.9946 12.4968H51.7987C51.9094 12.4968 51.9945 12.5904 51.9945 12.6926V27.6196C52.003 27.7302 51.9094 27.8238 51.7987 27.8238Z" fill="white"/>
<path d="M64.6064 27.8238H62.8022C62.6915 27.8238 62.6064 27.7302 62.6064 27.6281V12.6926C62.6064 12.5819 62.7001 12.4968 62.8022 12.4968H64.6064C64.717 12.4968 64.8021 12.5904 64.8021 12.6926V27.6196C64.8106 27.7302 64.717 27.8238 64.6064 27.8238Z" fill="white"/>
<path d="M49.8921 27.4491V25.6194H64.7V27.4491C64.7 27.6533 64.5383 27.815 64.334 27.815H50.258C50.0538 27.8235 49.8921 27.6533 49.8921 27.4491Z" fill="white"/>
<path d="M86.1538 12.4112V10.9815C86.1538 10.9305 86.1964 10.8794 86.2559 10.8794H94.8598C94.9109 10.8794 94.962 10.9219 94.962 10.9815V12.4112C94.962 12.4623 94.9194 12.5134 94.8598 12.5134H86.2559C86.1964 12.5049 86.1538 12.4623 86.1538 12.4112Z" fill="white"/>
<path d="M96.9536 12.8453V11.5006C96.9536 11.39 97.0472 11.2964 97.1579 11.2964H102.647C102.698 11.2964 102.749 11.3389 102.749 11.3985V12.9559C102.749 13.007 102.707 13.058 102.647 13.058H97.1579C97.0472 13.0495 96.9536 12.9559 96.9536 12.8453Z" fill="white"/>
<path d="M43.0671 12.8881C43.0331 13.7562 42.9139 15.7391 42.5054 18.8623C42.4884 18.9815 42.582 19.0921 42.7097 19.0921H44.7862C44.8883 19.0921 44.9734 19.0155 44.9904 18.9134C45.3904 15.7646 45.5095 13.7817 45.5351 12.9051C45.5351 12.7945 45.45 12.6924 45.3308 12.6924H43.2628C43.1607 12.7009 43.0671 12.786 43.0671 12.8881Z" fill="white"/>
<path d="M33.0931 12.8966C33.1272 13.7647 33.2463 15.7731 33.6548 18.9134C33.6718 19.0325 33.5782 19.1432 33.4506 19.1432H31.357C31.2549 19.1432 31.1698 19.0666 31.1528 18.9645C30.7443 15.7901 30.6337 13.7902 30.5996 12.9051C30.5996 12.786 30.6847 12.6924 30.8039 12.6924H32.8889C32.9995 12.7009 33.0846 12.786 33.0931 12.8966Z" fill="white"/>
<path d="M85.9584 13.9685C85.9073 13.9685 85.8647 14.0196 85.8647 14.0706V15.7216C85.8647 15.7812 85.9158 15.8323 85.9754 15.8237C87.4647 15.6876 88.5625 14.6153 88.7072 12.9983C88.7157 12.9388 88.6646 12.8877 88.6051 12.8877H86.937C86.886 12.8877 86.8434 12.9302 86.8349 12.9813C86.7328 13.8494 86.2477 13.9515 85.9584 13.9685Z" fill="white"/>
<path d="M97.8046 14.105H96.0855C96.0259 14.105 95.9748 14.1646 95.9834 14.2241C96.545 17.3644 99.2513 19.3558 102.979 19.3473C103.038 19.3473 103.081 19.2963 103.081 19.2452V17.5602C103.081 17.5006 103.038 17.458 102.979 17.458C100.834 17.458 98.4854 16.5985 97.8982 14.1816C97.8897 14.139 97.8471 14.105 97.8046 14.105Z" fill="white"/>
<path d="M89.4481 12.7007H87.5333C87.4822 12.7007 87.4312 12.6582 87.4312 12.5986V10.5987C87.4312 10.5476 87.4737 10.4966 87.5333 10.4966H89.4481C89.4991 10.4966 89.5502 10.5391 89.5502 10.5987V12.5986C89.5417 12.6497 89.4991 12.7007 89.4481 12.7007Z" fill="white"/>
<path d="M93.5755 12.7007H91.6607C91.6097 12.7007 91.5586 12.6582 91.5586 12.5986V10.5987C91.5586 10.5476 91.6011 10.4966 91.6607 10.4966H93.5755C93.6266 10.4966 93.6776 10.5391 93.6776 10.5987V12.5986C93.6776 12.6497 93.6266 12.7007 93.5755 12.7007Z" fill="white"/>
<path d="M102 12.7514C102 12.6918 102 12.6407 102 12.6067H100.069C100.069 12.6578 100.069 12.7258 100.069 12.8109C100.086 13.4662 100.128 14.9896 99.0899 16.0704C98.2984 16.8874 97.0049 17.3214 95.2432 17.3639C95.1837 17.3639 95.1411 17.415 95.1411 17.4661L95.1581 19.1936C95.1581 19.2532 95.2092 19.2958 95.2688 19.2958C97.575 19.2532 99.3282 18.6149 100.486 17.415C102.077 15.7385 102.017 13.5683 102 12.7514Z" fill="white"/>
<path d="M98.4688 10.4792H96.7498C96.6987 10.4792 96.6562 10.5218 96.6476 10.5729C96.6051 11.4069 96.0094 12.0707 95.2179 12.1728C95.1668 12.1813 95.1328 12.2239 95.1328 12.2664V13.994C95.1328 14.0536 95.1839 14.0961 95.2349 14.0961C97.0902 13.977 98.5114 12.4792 98.5625 10.5814C98.571 10.5218 98.5199 10.4792 98.4688 10.4792Z" fill="white"/>
<path d="M68.2827 11.0924V12.8965C68.2827 13.0072 68.3763 13.1008 68.487 13.1008H74.691C74.742 13.1008 74.7931 13.1433 74.7931 13.2029V15.2283C74.7931 15.2794 74.7505 15.3305 74.691 15.3305H68.487C68.3763 15.3305 68.2827 15.4241 68.2827 15.5347V21.5855C68.2827 21.6962 68.3763 21.7898 68.487 21.7898H74.691C74.742 21.7898 74.7931 21.8323 74.7931 21.8919V25.2705C74.7931 25.3811 74.708 25.4662 74.5973 25.4662H70.0358C69.9422 25.4662 69.8656 25.5258 69.8401 25.6194L69.3976 27.5512C69.3805 27.6108 69.4316 27.6704 69.4912 27.6704H76.4015C76.7334 27.6704 76.9972 27.4066 76.9972 27.0747V19.7899C76.9972 19.6792 76.9121 19.5941 76.8015 19.5941H70.5975C70.5465 19.5941 70.4954 19.5516 70.4954 19.492V17.6453C70.4954 17.5942 70.5379 17.5431 70.5975 17.5431H76.8015C76.9121 17.5431 77.0058 17.4495 77.0058 17.3389V11.1094C77.0058 10.9987 76.9121 10.9051 76.8015 10.9051H68.4955C68.3678 10.8966 68.2827 10.9817 68.2827 11.0924Z" fill="white"/>
<path d="M94.4174 13.3904H87.5411C87.49 13.3904 87.439 13.4329 87.439 13.4925V14.701C87.439 14.752 87.4815 14.8031 87.5411 14.8031H92.6473C92.6983 14.8031 92.7494 14.8456 92.7494 14.9052V17.62C92.7494 17.6711 92.7068 17.7221 92.6473 17.7221H92.0515C92.009 17.7221 91.9664 17.7562 91.9579 17.7987L91.626 19.2369C91.609 19.2965 91.6601 19.3561 91.7196 19.3561H93.7961C94.2472 19.3561 94.6046 18.9901 94.6046 18.5476V13.5946C94.6131 13.4755 94.528 13.3904 94.4174 13.3904Z" fill="white"/>
<path d="M93.3377 20.4963V26.2067C93.3377 26.3173 93.2526 26.4024 93.1419 26.4024H91.7548C91.6612 26.4024 91.5846 26.462 91.559 26.5556L91.2186 27.8151C91.2016 27.8832 91.2527 27.9428 91.3208 27.9428H94.9036C95.3461 27.9428 95.7036 27.5854 95.7036 27.1428V20.4878H93.3377V20.4963Z" fill="white"/>
<path d="M86.6226 15.4753V18.2837C86.6226 18.3943 86.7077 18.4794 86.8183 18.4794H91.2777C91.3883 18.4794 91.4734 18.3943 91.4734 18.2837V15.4753C91.4734 15.3646 91.3883 15.2795 91.2777 15.2795H86.8183C86.7162 15.2795 86.6226 15.3732 86.6226 15.4753ZM89.8139 17.356H88.2906C88.2395 17.356 88.1884 17.3135 88.1884 17.2539V16.505C88.1884 16.454 88.231 16.4029 88.2906 16.4029H89.8139C89.865 16.4029 89.916 16.4454 89.916 16.505V17.2539C89.916 17.3135 89.8735 17.356 89.8139 17.356Z" fill="white"/>
<path d="M86.6143 21.1175V19.8665C86.6143 19.8155 86.6568 19.7644 86.7164 19.7644H102.324C102.375 19.7644 102.426 19.807 102.426 19.8665V21.1175C102.426 21.1686 102.384 21.2197 102.324 21.2197H86.7164C86.6568 21.2112 86.6143 21.1686 86.6143 21.1175Z" fill="white"/>
<path d="M86.8608 23.2706V22.0196C86.8608 21.9685 86.9034 21.9175 86.963 21.9175H102.077C102.128 21.9175 102.179 21.96 102.179 22.0196V23.2706C102.179 23.3217 102.137 23.3727 102.077 23.3727H86.963C86.9034 23.3727 86.8608 23.3302 86.8608 23.2706Z" fill="white"/>
<path d="M86.0352 25.4066V24.1556C86.0352 24.1045 86.0777 24.0535 86.1373 24.0535H102.894C102.945 24.0535 102.996 24.096 102.996 24.1556V25.4066C102.996 25.4577 102.954 25.5087 102.894 25.5087H86.1373C86.0862 25.5087 86.0352 25.4662 86.0352 25.4066Z" fill="white"/>
<path d="M36.957 17.0243C37.0506 22.0709 32.6593 25.4495 30.0551 25.6197C29.9445 25.6282 29.8594 25.7133 29.8594 25.8154V27.6536C29.8594 27.7643 29.953 27.8579 30.0636 27.8494C32.0125 27.7302 34.2166 26.6835 35.8847 25.0665C37.391 23.6112 39.1781 21.0326 39.1781 17.0243V10.3522C39.1781 10.2416 39.093 10.1565 38.9824 10.1565H37.1442C37.0335 10.1565 36.9484 10.2416 36.9484 10.3522V17.0243H36.957Z" fill="white"/>
<path d="M39.187 17.024C39.0934 22.0706 43.4847 25.4492 46.0888 25.6194C46.1995 25.6279 46.2846 25.713 46.2846 25.8152V27.6534C46.2846 27.764 46.191 27.8576 46.0803 27.8491C44.1315 27.73 41.9273 26.6832 40.2593 25.0663C38.753 23.611 36.9658 21.0324 36.9658 17.024V10.352C36.9658 10.2414 37.0509 10.1562 37.1616 10.1562H38.9998C39.1104 10.1562 39.1955 10.2414 39.1955 10.352V17.024H39.187Z" fill="white"/>
</svg>
