<svg width="110" height="34" viewBox="0 0 107 32" fill="none" xmlns="http://www.w3.org/2000/svg">
<path d="M74.0609 11.759V9.37323L68.6846 8.60278V10.9885L74.0609 11.759Z" fill="white"/>
<path d="M68.6841 12.6372V15.0229L74.0604 15.7934V13.4077L68.6841 12.6372Z" fill="white"/>
<path d="M82.4622 17.4446H67.2837V19.5807H82.4622V17.4446Z" fill="white"/>
<path d="M48.0139 17.4446H34.4243V19.5807H48.0139V17.4446Z" fill="white"/>
<path d="M65.1457 8.60278H51.5562V10.7389H65.1457V8.60278Z" fill="white"/>
<path d="M65.1457 22.2639H51.5562V24.4H65.1457V22.2639Z" fill="white"/>
<path d="M61.6031 15.3088H51.5562V17.445H61.6031V15.3088Z" fill="white"/>
<path d="M99.7737 17.4446H84.5952V19.5807H99.7737V17.4446Z" fill="white"/>
<path d="M98.9298 8.60278H87.8867V10.7389H98.9298V8.60278Z" fill="white"/>
<path d="M47.7067 19.9792L48.014 19.6288V17.4495H45.5394V18.6927C44.829 19.4824 42.9209 21.5777 40.1367 24.4003H43.5905C46.1803 21.7145 47.6875 20.0032 47.7067 19.9792Z" fill="white"/>
<path d="M78.2613 8.06982H75.8443C75.7819 12.8869 75.7147 15.5967 74.8459 17.4952C73.965 19.4201 72.0881 20.9538 68.3511 24.0067C68.1951 24.1339 68.0343 24.2659 67.8711 24.4004H71.6777C77.8821 19.2353 78.1269 18.0544 78.2613 8.06982Z" fill="white"/>
<path d="M80.1144 20.6489H77.1982L79.5408 24.4003H82.4593L80.1144 20.6489Z" fill="white"/>
<path d="M97.4484 20.6489H94.5322L96.8748 24.4003H99.7909L97.4484 20.6489Z" fill="white"/>
<path d="M89.8666 20.6489H86.9504L84.6055 24.4003H87.5216L89.8666 20.6489Z" fill="white"/>
<path d="M93.4052 16.2307H90.9307V24.4008H93.4052V16.2307Z" fill="white"/>
<path d="M33.1177 13.4395V16.2309C38.3164 13.6003 41.3549 10.9386 42.999 7.53516H40.1645C38.782 9.71208 36.5427 11.5794 33.1177 13.4395Z" fill="white"/>
<path d="M42.4761 7.96899L40.4312 9.35867C42.3225 12.1428 46.1123 14.5334 49.4197 16.2255V13.4269C46.0787 11.6004 43.6569 9.70429 42.4761 7.96899Z" fill="white"/>
<path d="M39.2388 13.3142V15.6975L43.7222 16.3288V13.9454L39.2388 13.3142Z" fill="white"/>
<path d="M96.7063 8.60278V10.1029C95.2974 11.2405 92.4557 13.1438 84.5952 14.4663V16.744C94.143 15.1864 97.3999 12.4598 98.9312 11.0869V8.60278H96.7063Z" fill="white"/>
<path d="M87.375 9.94489C87.2694 9.86809 87.171 9.79368 87.075 9.72168L85.0181 10.9602C85.0181 10.9602 85.9349 11.6754 86.0357 11.7498C87.7158 12.9979 90.7856 15.2756 99.7741 16.7445V14.4644C91.6088 13.0867 88.8799 11.0634 87.375 9.94489Z" fill="white"/>
<path d="M85.0181 10.9626L87.0966 12.3282L89.5999 8.60322L87.3126 7.53516L85.0181 10.9626Z" fill="white"/>
<path d="M54.0307 8.60278H51.5562V24.4005H54.0307V8.60278Z" fill="white"/>
<path d="M65.1459 8.60278H62.6714V24.4005H65.1459V8.60278Z" fill="white"/>
<path d="M23.0197 30H4.98028C2.23453 30 0 27.7655 0 25.0197V6.98028C0 4.23453 2.23453 2 4.98028 2H23.0197C25.7655 2 28 4.23453 28 6.98028V25.0197C28 27.7655 25.7655 30 23.0197 30Z" fill="white"/>
<path d="M28 23.5585L0 25.0201V8.4424L28 6.98071V23.5585Z" fill="#FF373C"/>
<path d="M7.62994 13.1202V11.4281L3.79932 11.0801V12.7746L7.62994 13.1202Z" fill="white"/>
<path d="M3.79932 13.9463V15.6408L7.62994 15.9888V14.2943L3.79932 13.9463Z" fill="white"/>
<path d="M13.6139 18.3662L2.80127 18.9302V17.4134L13.6139 16.8469V18.3662Z" fill="white"/>
<path d="M25.1862 17.762L14.3735 18.326V16.8091L25.1862 16.2427V17.762Z" fill="white"/>
<path d="M24.5874 11.5122L16.7197 11.9226V10.4057L24.5874 9.99292V11.5122Z" fill="white"/>
<path d="M10.6202 10.3433L8.89695 10.4345C8.85134 13.8595 8.80574 15.7868 8.1865 17.1693C7.56007 18.5685 6.22319 19.7278 3.55904 22.0391C3.44863 22.1351 3.33343 22.2335 3.21582 22.3367L5.92798 22.1951C10.349 18.2925 10.5242 17.4453 10.6202 10.3433Z" fill="white"/>
<path d="M11.9418 19.2114L9.86572 19.3194L11.5338 21.8996L13.6123 21.7892L11.9418 19.2114Z" fill="white"/>
<path d="M23.5307 18.6069L21.4521 18.7149L23.1226 21.2927L25.1988 21.1847L23.5307 18.6069Z" fill="white"/>
<path d="M18.1284 18.8877L16.0499 18.9981L14.3818 21.7511L16.458 21.6407L18.1284 18.8877Z" fill="white"/>
<path d="M20.6494 21.4219L18.8877 21.5131V15.7096L20.6494 15.616V21.4219Z" fill="white"/>
<path d="M23.002 10.0769V11.1426C21.9988 12.0018 19.9731 13.4611 14.3735 14.6948V16.3149C21.1755 14.8532 23.4965 12.7939 24.5861 11.7618V9.99292L23.002 10.0769Z" fill="white"/>
<path d="M16.3554 11.3776C16.281 11.3272 16.209 11.2768 16.1418 11.2312L14.6777 12.1889C14.6777 12.1889 15.3306 12.6617 15.4026 12.7121C16.6002 13.5353 18.7868 15.0402 25.1903 15.7507V14.1306C19.37 13.4513 17.4283 12.1145 16.3554 11.3776Z" fill="white"/>
<path d="M14.6738 12.1864L16.1547 13.0793L17.938 10.3407L16.3083 9.66626L14.6738 12.1864Z" fill="white"/>
</svg>
