<svg width="110" height="34" viewBox="0 0 73 32" fill="none" xmlns="http://www.w3.org/2000/svg">
<path d="M11.3779 6.33252H0V9.58275H11.3741C13.241 9.58474 15.0309 10.3273 16.3511 11.6474C17.6712 12.9675 18.4137 14.7574 18.4157 16.6243V27.9963H21.666V16.6243C21.663 13.8963 20.5783 11.2809 18.6496 9.35154C16.721 7.42222 14.1059 6.33651 11.3779 6.33252Z" fill="#F5333F"/>
<path d="M11.3779 10.6648H0V13.915H6.98697C6.86132 14.5257 6.52917 15.0745 6.04639 15.469C5.56362 15.8635 4.95969 16.0797 4.33622 16.0812H0V19.3239H4.33622C5.82212 19.3222 7.25391 18.766 8.35129 17.7642C9.44867 16.7624 10.1326 15.3871 10.2693 13.9075H11.3552C11.219 15.6765 10.4208 17.3291 9.11969 18.5354C7.81863 19.7418 6.1105 20.4131 4.33622 20.4155H0V23.6601H4.33622C6.48969 23.6573 8.58821 22.9801 10.3371 21.7236C12.086 20.4671 13.3973 18.6943 14.0871 16.6543V19.2108C13.0786 20.8974 11.6503 22.294 9.94141 23.2644C8.23254 24.2348 6.3014 24.7459 4.33622 24.7479H0V27.9962H4.33622C7.93629 27.9987 11.4098 26.6683 14.0871 24.2615V27.9962H17.3449V16.6242C17.3434 15.0428 16.714 13.5267 15.5951 12.4092C14.4761 11.2918 12.9593 10.6643 11.3779 10.6648Z" fill="#F5333F"/>
<path d="M11.3779 2H0V5.24834H11.3741C14.3899 5.25184 17.2812 6.45154 19.4136 8.58421C21.5459 10.7169 22.7452 13.6083 22.7482 16.6241V27.9962H25.9985V16.6241C25.9945 12.7475 24.4529 9.03064 21.712 6.28905C18.9711 3.54747 15.2546 2.00499 11.3779 2Z" fill="#F5333F"/>
<path d="M44.6331 17.9155C44.2887 17.0748 44.0359 16.1993 43.879 15.3044H51.3392V12.5934H43.6905V8.28174H40.7343V12.5934H33.0932V15.3044H40.5778C40.0988 17.5168 39.1038 19.5848 37.6741 21.3398C36.2443 23.0949 34.4202 24.4874 32.3503 25.4039L33.8247 27.9829C37.4932 26.2824 40.4516 23.3526 42.1879 19.7009C43.8678 23.3414 46.7959 26.26 50.4418 27.9283L50.5964 27.9999L52.0707 25.4227L51.6767 25.2342C48.4873 23.7738 45.9703 21.1585 44.6331 17.9155Z" fill="white"/>
<path d="M69.568 12.5934H63.9008V8.28174H60.9427V12.5934H54.297V15.3044H60.8729C60.8522 15.4779 60.8315 15.6494 60.8051 15.821C60.4947 17.8224 59.6958 19.7164 58.4791 21.3356C57.2624 22.9547 55.6654 24.2491 53.8294 25.1041L53.2751 25.3567L54.7476 27.9339L55.0775 27.7812C57.3528 26.7209 59.3318 25.1165 60.8398 23.1098C62.3478 21.103 63.3382 18.7557 63.7235 16.2753C63.7726 15.9548 63.8103 15.6306 63.8404 15.3044H69.4492L69.1344 22.3252C69.125 22.5722 69.1174 22.8342 69.0967 23.0793C69.0852 23.4339 69.0158 23.7841 68.8912 24.1162C68.8919 24.1225 68.8919 24.1288 68.8912 24.1351C68.582 24.7308 67.9994 25.0325 67.2623 25.0325H63.6613L64.1477 27.7435H67.7147C68.8278 27.7455 69.8986 27.3172 70.7032 26.5481C71.5078 25.779 71.9839 24.7286 72.0321 23.6166L72.5298 12.5858L69.568 12.5934Z" fill="white"/>
</svg>
