<svg width="110" height="34" viewBox="0 0 97 32" fill="none" xmlns="http://www.w3.org/2000/svg">
<g clip-path="url(#clip0_802:12832)">
<path d="M35.1025 13.3913H34.0059V8.86793H31.9338V23.5186H34.0059V15.5593C34.0059 15.4063 34.1293 15.2806 34.2823 15.2806H35.1025V25.7369H37.1768V7.81934H35.1025V13.3913Z" fill="white"/>
<path d="M50.5368 8.70802C50.5551 8.41331 50.5665 8.11861 50.5665 7.81934H48.451C48.451 8.11861 48.4373 8.41331 48.4168 8.70802H42.2851C42.2622 8.4156 42.2508 8.11861 42.2508 7.81934H40.1148C40.1148 8.11861 40.1262 8.41331 40.1445 8.70802H40.1148H38.2346V10.1381H52.4398V8.70802H50.5642H50.5368Z" fill="white"/>
<path d="M38.2371 12.5186H44.2819V13.4256H38.2371V14.7575H44.2819V15.6644H38.3833V19.603C38.3833 20.5419 39.144 21.3004 40.0807 21.3004H44.2819V22.2119H38.2371V23.4867H44.2819V24.405H38.2371V25.7369H52.4422V24.405H46.3974V23.4867H52.4422V22.2119H46.3974V21.3004H50.2331H52.296V17.3618C52.296 16.4229 51.5353 15.6644 50.5986 15.6644H46.3974V14.7575H52.4422V13.4256H46.3974V12.5186H52.4422V11.1868H38.2371V12.5186ZM39.8728 16.9483H44.2819V17.8347H39.8728V17.6451V16.9483ZM39.8728 19.74V19.1186H44.2819V20.0188H40.1492C39.9961 20.0165 39.8728 19.8931 39.8728 19.74ZM50.2331 20.0165H46.3974V19.1164H50.8065V20.0165H50.2331ZM50.8065 17.2248V17.8325H46.3974V16.9483H50.5278C50.6832 16.9483 50.8065 17.0717 50.8065 17.2248Z" fill="white"/>
<path d="M95.0142 13.5603H94.2854C94.3403 13.0531 94.3722 12.5414 94.3722 12.0205H92.2339C92.2339 12.5414 92.1974 13.0554 92.1334 13.5603H88.3411H87.473H82.6618C82.5978 13.0554 82.5612 12.5437 82.5612 12.0205H80.4229C80.4229 12.5414 80.4549 13.0531 80.5097 13.5603H79.4726C78.1521 13.5603 77.0784 14.634 77.0784 15.9545V18.0105H79.1938V15.9545C79.1938 15.7991 79.3195 15.6758 79.4726 15.6758H87.4753H88.3434H95.0188C95.1741 15.6758 95.2975 15.8014 95.2975 15.9545V18.0105H97.4129V15.9545C97.4107 14.634 96.3369 13.5603 95.0142 13.5603Z" fill="white"/>
<path d="M93.7327 18.4902H89.8879H88.3253V17.1606H86.2098V18.4902H86.187H81.0148C79.6943 18.4902 78.6206 19.564 78.6206 20.8844V24.6516H80.7361V20.8821C80.7361 20.7291 80.8617 20.6034 81.0148 20.6034H86.187H86.2098V25.7345H88.3253V20.6057H89.8879H93.7327C93.8858 20.6057 94.0115 20.7314 94.0115 20.8844V24.6516H96.1269V20.8821C96.1246 19.564 95.0509 18.4902 93.7327 18.4902Z" fill="white"/>
<path d="M88.325 8.6509V7.81934H86.2096V8.6509H77.092V10.7664H97.4426V8.6509H88.325Z" fill="white"/>
<path d="M61.3747 7.81934H58.9668L58.5144 8.6509H54.6467V10.7664H57.363L55.4098 14.3577C55.0008 15.1115 54.9574 16.0345 55.3801 16.7815C55.8141 17.5469 56.6023 18.006 57.4795 18.006H64.7398V20.4893H54.6467V22.6048H64.7398V25.7369H66.8552V22.6048H74.9973V20.4893H66.8552V18.006H74.9973V15.8906H66.8552V13.2656H64.7398V15.8883H57.4476C57.2374 15.8883 57.1026 15.6621 57.2031 15.4771L59.7732 10.7641H74.9996V8.64862H60.9246L61.3747 7.81934Z" fill="white"/>
<path d="M22.4942 8.77412C17.4614 3.74131 9.30108 3.74131 4.26826 8.77412C-0.764551 13.8069 -0.764551 21.9673 4.26826 27.0001L7.6585 23.6098C6.96172 22.9131 6.39516 22.0861 5.98851 21.1723C8.34843 20.5554 10.8249 20.2219 13.3812 20.2219C15.9353 20.2219 18.4095 20.56 20.7717 21.1768C20.365 22.0883 19.8008 22.9131 19.104 23.6098L22.4942 27.0001C27.527 21.9673 27.527 13.8069 22.4942 8.77412ZM5.45393 16.2514C6.21011 12.5664 9.47241 9.79531 13.3812 9.79531C17.2878 9.79531 20.5478 12.5642 21.3063 16.2468C16.0998 15.0063 10.6604 15.0109 5.45393 16.2514Z" fill="#FFCC32"/>
</g>
<defs>
<clipPath id="clip0_802:12832">
<rect width="97" height="32" fill="white"/>
</clipPath>
</defs>
</svg>
