<svg width="110" height="34" viewBox="0 0 112 33" fill="none" xmlns="http://www.w3.org/2000/svg">
<g clip-path="url(#clip0_801:12280)">
<path d="M19.875 13.5517L16.646 27.5547C16.5912 27.7736 16.7633 27.9847 16.99 27.9847H23.4403C23.667 27.9847 23.839 27.7736 23.7843 27.5547L20.5552 13.5517C20.477 13.1843 19.9532 13.1843 19.875 13.5517Z" fill="#00E5E5"/>
<path d="M2.00958 18.8601L0.00803526 27.5543C-0.0388759 27.7732 0.125313 27.9843 0.35205 27.9843H4.35513C4.58187 27.9843 4.74606 27.7732 4.69915 27.5543L2.69761 18.8601C2.61942 18.5004 2.09558 18.5004 2.00958 18.8601Z" fill="#00E5E5"/>
<path d="M6.41112 8.24264L1.96238 27.5622C1.90765 27.7811 2.07966 27.9922 2.3064 27.9922H11.1961C11.4228 27.9922 11.5948 27.7811 11.5401 27.5622L7.09133 8.24264C7.01315 7.87517 6.49712 7.87517 6.41112 8.24264Z" fill="#006EFF"/>
<path d="M13.8784 0.275603L7.59226 27.5622C7.53753 27.7811 7.70954 27.9922 7.93628 27.9922H20.5006C20.7274 27.9922 20.8994 27.7811 20.8447 27.5622L14.5586 0.275603C14.4804 -0.0918676 13.9644 -0.0918676 13.8784 0.275603Z" fill="#006EFF"/>
<path d="M9.71875 10.8933L5.87986 27.5624C5.82513 27.7813 5.99714 27.9924 6.22388 27.9924H13.8938C14.1206 27.9924 14.2926 27.7813 14.2379 27.5624L10.399 10.8933C10.3208 10.5258 9.80476 10.5258 9.71875 10.8933Z" fill="#00E5E5"/>
<path d="M58.1982 27.455H56.394C56.2833 27.455 56.1982 27.3698 56.1982 27.2592V10.7663C56.1982 10.6557 56.2833 10.5706 56.394 10.5706H58.1982C58.3088 10.5706 58.3939 10.6557 58.3939 10.7663V27.2592C58.4024 27.3613 58.3088 27.455 58.1982 27.455Z" fill="#4B4B4B"/>
<path d="M82.2996 27.9998H80.4018C80.2912 27.9998 80.2061 27.9062 80.2061 27.8041V10.758C80.2061 10.6474 80.2997 10.5623 80.4018 10.5623H82.2996C82.4102 10.5623 82.4953 10.6559 82.4953 10.758V27.8041C82.5038 27.9062 82.4102 27.9998 82.2996 27.9998Z" fill="#4B4B4B"/>
<path d="M51.7987 27.881H49.9946C49.8839 27.881 49.7988 27.7874 49.7988 27.6852V12.7497C49.7988 12.6391 49.8924 12.554 49.9946 12.554H51.7987C51.9094 12.554 51.9945 12.6476 51.9945 12.7497V27.6767C52.003 27.7874 51.9094 27.881 51.7987 27.881Z" fill="#4B4B4B"/>
<path d="M64.6064 27.881H62.8022C62.6915 27.881 62.6064 27.7874 62.6064 27.6852V12.7497C62.6064 12.6391 62.7001 12.554 62.8022 12.554H64.6064C64.717 12.554 64.8021 12.6476 64.8021 12.7497V27.6767C64.8106 27.7874 64.717 27.881 64.6064 27.881Z" fill="#4B4B4B"/>
<path d="M49.8921 27.5062V25.6765H64.7V27.5062C64.7 27.7105 64.5383 27.8722 64.334 27.8722H50.258C50.0538 27.8807 49.8921 27.7105 49.8921 27.5062Z" fill="#4B4B4B"/>
<path d="M86.1538 12.4684V11.0386C86.1538 10.9876 86.1964 10.9365 86.2559 10.9365H94.8598C94.9109 10.9365 94.962 10.9791 94.962 11.0386V12.4684C94.962 12.5194 94.9194 12.5705 94.8598 12.5705H86.2559C86.1964 12.562 86.1538 12.5194 86.1538 12.4684Z" fill="#4B4B4B"/>
<path d="M96.9536 12.9024V11.5578C96.9536 11.4471 97.0472 11.3535 97.1579 11.3535H102.647C102.698 11.3535 102.749 11.3961 102.749 11.4556V13.013C102.749 13.0641 102.707 13.1151 102.647 13.1151H97.1579C97.0472 13.1066 96.9536 13.013 96.9536 12.9024Z" fill="#4B4B4B"/>
<path d="M43.0671 12.9452C43.0331 13.8133 42.9139 15.7962 42.5054 18.9195C42.4884 19.0386 42.582 19.1492 42.7097 19.1492H44.7862C44.8883 19.1492 44.9734 19.0726 44.9904 18.9705C45.3904 15.8217 45.5095 13.8388 45.5351 12.9623C45.5351 12.8516 45.45 12.7495 45.3308 12.7495H43.2628C43.1607 12.758 43.0671 12.8431 43.0671 12.9452Z" fill="#4B4B4B"/>
<path d="M33.0931 12.9538C33.1272 13.8218 33.2463 15.8302 33.6548 18.9705C33.6718 19.0897 33.5782 19.2003 33.4506 19.2003H31.357C31.2549 19.2003 31.1698 19.1237 31.1528 19.0216C30.7443 15.8473 30.6337 13.8473 30.5996 12.9623C30.5996 12.8431 30.6847 12.7495 30.8039 12.7495H32.8889C32.9995 12.758 33.0846 12.8431 33.0931 12.9538Z" fill="#4B4B4B"/>
<path d="M85.9584 14.0256C85.9073 14.0256 85.8647 14.0767 85.8647 14.1278V15.7787C85.8647 15.8383 85.9158 15.8894 85.9754 15.8809C87.4647 15.7447 88.5625 14.6724 88.7072 13.0555C88.7157 12.9959 88.6646 12.9448 88.6051 12.9448H86.937C86.886 12.9448 86.8434 12.9874 86.8349 13.0384C86.7328 13.9065 86.2477 14.0086 85.9584 14.0256Z" fill="#4B4B4B"/>
<path d="M97.8046 14.1621H96.0855C96.0259 14.1621 95.9748 14.2217 95.9834 14.2813C96.545 17.4215 99.2513 19.413 102.979 19.4044C103.038 19.4044 103.081 19.3534 103.081 19.3023V17.6173C103.081 17.5577 103.038 17.5152 102.979 17.5152C100.834 17.5152 98.4854 16.6556 97.8982 14.2387C97.8897 14.1962 97.8471 14.1621 97.8046 14.1621Z" fill="#4B4B4B"/>
<path d="M89.4481 12.7579H87.5333C87.4822 12.7579 87.4312 12.7153 87.4312 12.6557V10.6558C87.4312 10.6048 87.4737 10.5537 87.5333 10.5537H89.4481C89.4991 10.5537 89.5502 10.5963 89.5502 10.6558V12.6557C89.5417 12.7068 89.4991 12.7579 89.4481 12.7579Z" fill="#4B4B4B"/>
<path d="M93.5755 12.7579H91.6607C91.6097 12.7579 91.5586 12.7153 91.5586 12.6557V10.6558C91.5586 10.6048 91.6011 10.5537 91.6607 10.5537H93.5755C93.6266 10.5537 93.6776 10.5963 93.6776 10.6558V12.6557C93.6776 12.7068 93.6266 12.7579 93.5755 12.7579Z" fill="#4B4B4B"/>
<path d="M102 12.8085C102 12.7489 102 12.6979 102 12.6638H100.069C100.069 12.7149 100.069 12.783 100.069 12.8681C100.086 13.5234 100.128 15.0467 99.0899 16.1275C98.2984 16.9445 97.0049 17.3785 95.2432 17.4211C95.1837 17.4211 95.1411 17.4721 95.1411 17.5232L95.1581 19.2508C95.1581 19.3103 95.2092 19.3529 95.2688 19.3529C97.575 19.3103 99.3282 18.6721 100.486 17.4721C102.077 15.7956 102.017 13.6255 102 12.8085Z" fill="#4B4B4B"/>
<path d="M98.4688 10.5364H96.7498C96.6987 10.5364 96.6562 10.5789 96.6476 10.63C96.6051 11.464 96.0094 12.1278 95.2179 12.2299C95.1668 12.2384 95.1328 12.281 95.1328 12.3235V14.0511C95.1328 14.1107 95.1839 14.1532 95.2349 14.1532C97.0902 14.0341 98.5114 12.5363 98.5625 10.6385C98.571 10.5789 98.5199 10.5364 98.4688 10.5364Z" fill="#4B4B4B"/>
<path d="M68.2827 11.1495V12.9537C68.2827 13.0643 68.3763 13.1579 68.487 13.1579H74.691C74.742 13.1579 74.7931 13.2005 74.7931 13.26V15.2855C74.7931 15.3365 74.7505 15.3876 74.691 15.3876H68.487C68.3763 15.3876 68.2827 15.4812 68.2827 15.5918V21.6427C68.2827 21.7533 68.3763 21.8469 68.487 21.8469H74.691C74.742 21.8469 74.7931 21.8895 74.7931 21.949V25.3276C74.7931 25.4382 74.708 25.5233 74.5973 25.5233H70.0358C69.9422 25.5233 69.8656 25.5829 69.8401 25.6765L69.3976 27.6084C69.3805 27.6679 69.4316 27.7275 69.4912 27.7275H76.4015C76.7334 27.7275 76.9972 27.4637 76.9972 27.1318V19.847C76.9972 19.7364 76.9121 19.6512 76.8015 19.6512H70.5975C70.5465 19.6512 70.4954 19.6087 70.4954 19.5491V17.7024C70.4954 17.6513 70.5379 17.6003 70.5975 17.6003H76.8015C76.9121 17.6003 77.0058 17.5067 77.0058 17.396V11.1665C77.0058 11.0559 76.9121 10.9623 76.8015 10.9623H68.4955C68.3678 10.9537 68.2827 11.0388 68.2827 11.1495Z" fill="#4B4B4B"/>
<path d="M94.4174 13.4475H87.5411C87.49 13.4475 87.439 13.4901 87.439 13.5496V14.7581C87.439 14.8092 87.4815 14.8602 87.5411 14.8602H92.6473C92.6983 14.8602 92.7494 14.9028 92.7494 14.9623V17.6771C92.7494 17.7282 92.7068 17.7792 92.6473 17.7792H92.0515C92.009 17.7792 91.9664 17.8133 91.9579 17.8558L91.626 19.2941C91.609 19.3536 91.6601 19.4132 91.7196 19.4132H93.7961C94.2472 19.4132 94.6046 19.0473 94.6046 18.6047V13.6518C94.6131 13.5326 94.528 13.4475 94.4174 13.4475Z" fill="#4B4B4B"/>
<path d="M93.3377 20.5534V26.2638C93.3377 26.3745 93.2526 26.4596 93.1419 26.4596H91.7548C91.6612 26.4596 91.5846 26.5191 91.559 26.6128L91.2186 27.8723C91.2016 27.9404 91.2527 27.9999 91.3208 27.9999H94.9036C95.3461 27.9999 95.7036 27.6425 95.7036 27.2V20.5449H93.3377V20.5534Z" fill="#4B4B4B"/>
<path d="M86.6226 15.5324V18.3408C86.6226 18.4514 86.7077 18.5365 86.8183 18.5365H91.2777C91.3883 18.5365 91.4734 18.4514 91.4734 18.3408V15.5324C91.4734 15.4218 91.3883 15.3367 91.2777 15.3367H86.8183C86.7162 15.3367 86.6226 15.4303 86.6226 15.5324ZM89.8139 17.4132H88.2906C88.2395 17.4132 88.1884 17.3706 88.1884 17.3111V16.5621C88.1884 16.5111 88.231 16.46 88.2906 16.46H89.8139C89.865 16.46 89.916 16.5026 89.916 16.5621V17.3111C89.916 17.3706 89.8735 17.4132 89.8139 17.4132Z" fill="#4B4B4B"/>
<path d="M86.6143 21.1747V19.9237C86.6143 19.8726 86.6568 19.8215 86.7164 19.8215H102.324C102.375 19.8215 102.426 19.8641 102.426 19.9237V21.1747C102.426 21.2257 102.384 21.2768 102.324 21.2768H86.7164C86.6568 21.2683 86.6143 21.2257 86.6143 21.1747Z" fill="#4B4B4B"/>
<path d="M86.8608 23.3277V22.0767C86.8608 22.0257 86.9034 21.9746 86.963 21.9746H102.077C102.128 21.9746 102.179 22.0172 102.179 22.0767V23.3277C102.179 23.3788 102.137 23.4299 102.077 23.4299H86.963C86.9034 23.4299 86.8608 23.3873 86.8608 23.3277Z" fill="#4B4B4B"/>
<path d="M86.0352 25.4637V24.2127C86.0352 24.1617 86.0777 24.1106 86.1373 24.1106H102.894C102.945 24.1106 102.996 24.1531 102.996 24.2127V25.4637C102.996 25.5148 102.954 25.5659 102.894 25.5659H86.1373C86.0862 25.5659 86.0352 25.5233 86.0352 25.4637Z" fill="#4B4B4B"/>
<path d="M36.957 17.0814C37.0506 22.128 32.6593 25.5066 30.0551 25.6768C29.9445 25.6853 29.8594 25.7704 29.8594 25.8725V27.7108C29.8594 27.8214 29.953 27.915 30.0636 27.9065C32.0125 27.7873 34.2166 26.7406 35.8847 25.1236C37.391 23.6684 39.1781 21.0898 39.1781 17.0814V10.4094C39.1781 10.2987 39.093 10.2136 38.9824 10.2136H37.1442C37.0335 10.2136 36.9484 10.2987 36.9484 10.4094V17.0814H36.957Z" fill="#4B4B4B"/>
<path d="M39.187 17.0812C39.0934 22.1278 43.4847 25.5063 46.0888 25.6766C46.1995 25.6851 46.2846 25.7702 46.2846 25.8723V27.7105C46.2846 27.8211 46.191 27.9148 46.0803 27.9062C44.1315 27.7871 41.9273 26.7403 40.2593 25.1234C38.753 23.6681 36.9658 21.0895 36.9658 17.0812V10.4091C36.9658 10.2985 37.0509 10.2134 37.1616 10.2134H38.9998C39.1104 10.2134 39.1955 10.2985 39.1955 10.4091V17.0812H39.187Z" fill="#4B4B4B"/>
</g>
<defs>
<clipPath id="clip0_801:12280">
<rect width="112" height="32" fill="white" transform="translate(0 0.0571289)"/>
</clipPath>
</defs>
</svg>
