<svg width="110" height="34" viewBox="0 0 97 33" fill="none" xmlns="http://www.w3.org/2000/svg">
<path d="M6.08954 29.4625C3.12013 29.4625 0.700684 27.0469 0.700684 24.0736V8.04047C0.700684 5.07105 3.1163 2.65161 6.08954 2.65161H22.1227C25.0921 2.65161 27.5116 5.06723 27.5116 8.04047V24.0736C27.5116 27.043 25.0959 29.4625 22.1227 29.4625H6.08954Z" fill="white" stroke="#E5E6EB"/>
<path d="M28.1064 18.3439C24.9127 14.5269 19.8449 12.0596 14.1408 12.0596C8.39813 12.0596 3.29588 14.5613 0.106445 18.4256V24.078C0.106445 27.3835 2.78437 30.0614 6.08987 30.0614H22.123C25.4285 30.0614 28.1064 27.3835 28.1064 24.078V18.3439Z" fill="url(#paint0_radial_801:12404)"/>
<path d="M17.1758 2.05713H22.3769V8.32425L19.772 6.794L17.1758 8.32425V2.05713Z" fill="#EE5528"/>
<path d="M20.7907 23.9232C21.9685 23.9232 22.5101 24.3401 22.5101 24.8559C22.5101 25.3717 21.9685 25.7887 20.7907 25.7887C19.613 25.7887 18.2418 24.8559 18.2418 24.8559C18.2418 24.8559 19.613 23.9232 20.7907 23.9232ZM7.31943 23.7899C8.42413 23.7899 9.70936 24.7227 9.70936 24.7227C9.70936 24.7227 8.42413 25.6554 7.31943 25.6554C6.21474 25.6554 5.70752 25.2385 5.70752 24.7227C5.70752 24.2112 6.21474 23.7899 7.31943 23.7899ZM20.1116 18.9886C20.5285 19.4055 20.4941 20.1148 19.6817 20.9272C18.8693 21.7396 17.1714 21.9244 17.1714 21.9244C17.1714 21.9244 17.3606 20.2265 18.1687 19.4141C18.9854 18.606 19.6946 18.5716 20.1116 18.9886ZM7.9599 18.9757C8.35536 18.5716 9.01302 18.6146 9.75235 19.4313C10.4917 20.248 10.6378 21.9244 10.6378 21.9244C10.6378 21.9244 9.0646 21.7095 8.32527 20.8928C7.58594 20.0804 7.56874 19.3797 7.9599 18.9757ZM13.9734 16.4568C14.4892 16.4568 14.9062 16.964 14.9062 18.0687C14.9062 19.1734 13.9734 20.4586 13.9734 20.4586C13.9734 20.4586 13.0406 19.1734 13.0406 18.0687C13.0406 16.964 13.4576 16.4568 13.9734 16.4568Z" fill="white"/>
<path d="M57.4953 14.5351C57.3105 14.4534 57.1171 14.4319 56.9838 14.4276C56.9021 14.4233 56.8334 14.4878 56.8334 14.5695L56.8205 14.9521H55.1011C55.1226 14.5351 55.1398 14.3374 55.1527 13.9978C55.157 13.8173 55.0581 13.6496 54.8905 13.5723L54.2457 13.2757C54.1081 13.2112 53.9491 13.3143 53.9491 13.4648C53.9491 14.101 53.9448 14.2471 53.919 14.9478H51.701C51.6279 14.9478 51.5807 15.0251 51.6151 15.0896L51.7354 15.3303C51.7956 15.455 51.9245 15.5323 52.0621 15.5323H53.9061C53.803 18.1501 53.3602 20.583 51.5248 22.6892C51.4689 22.7537 51.4689 22.8526 51.5291 22.917C51.5893 22.9815 51.6881 22.9901 51.7612 22.9342C54.336 20.8753 54.8948 18.2575 55.0753 15.5323H56.7904C56.8677 18.3091 56.5883 20.1403 56.4164 21.0558C56.3261 21.5458 55.9866 21.8768 55.4922 21.8854C55.2515 21.8897 54.9635 21.8854 54.7486 21.8811C54.6369 21.8768 54.5853 22.0144 54.6626 22.0875L55.3461 22.7193C55.4235 22.7924 55.5266 22.8311 55.6298 22.8225C55.9565 22.8096 56.6743 22.7408 57.001 22.4098C57.6372 21.7737 57.8607 19.8995 57.938 15.6441C57.938 15.6097 57.938 15.5323 57.938 15.5323V14.8704C57.9423 14.8833 57.8177 14.677 57.4953 14.5351Z" fill="black"/>
<path d="M64.2138 14.0108C64.0505 13.9205 63.8098 13.8818 63.655 13.8646C63.569 13.856 63.496 13.9248 63.496 14.0108V14.3504H61.2135C61.1318 14.3504 61.0802 14.4363 61.1146 14.5094L61.2221 14.72C61.2866 14.8533 61.4198 14.9349 61.5703 14.9349H63.5003V21.8124H60.6977V14.3504C60.6977 14.3504 60.4785 14.0409 60.2034 13.8947C60.0314 13.8045 59.8079 13.783 59.6618 13.783C59.5801 13.783 59.5156 13.8474 59.5156 13.9291V22.8784C59.5156 22.9601 59.5801 23.0246 59.6618 23.0246H59.7133C60.2292 23.0246 60.6977 22.6635 60.6977 22.526V22.397H63.5003V22.8398C63.5003 22.9214 63.5647 22.9859 63.6464 22.9859H63.6808C64.0763 22.9859 64.6651 22.6549 64.678 22.5475L64.6565 14.3461C64.6522 14.3504 64.4803 14.1569 64.2138 14.0108Z" fill="black"/>
<path d="M64.4889 10.5764L63.6464 10.8687L61.308 10.9417V9.74247C61.308 9.74247 61.1705 9.54474 60.8137 9.34272C60.6203 9.23526 60.4225 9.17078 60.285 9.13209C60.1861 9.1063 60.0959 9.17938 60.0959 9.27824V10.9374H56.8892V9.73817C56.8892 9.73817 56.6958 9.49316 56.4035 9.32122C56.2359 9.22236 56.0253 9.16218 55.8791 9.12779C55.7845 9.1063 55.6943 9.17938 55.6943 9.27824V10.9417H51.701C51.628 10.9417 51.5807 11.0191 51.6108 11.0836L51.7354 11.3372C51.7956 11.4618 51.9245 11.5435 52.0621 11.5435H55.6943V12.9835C55.6943 13.0867 55.7974 13.1554 55.892 13.121C56.0424 13.0652 56.2445 12.9878 56.3863 12.9104C56.6399 12.7772 56.8935 12.5107 56.8935 12.5107V11.5435H60.1002V12.9061C60.1002 13.005 60.1947 13.0738 60.2893 13.048C60.4225 13.0093 60.6074 12.9448 60.7922 12.8459C61.1404 12.6611 61.3123 12.4333 61.3123 12.4333V11.5435L65.4646 11.5564C65.5764 11.5564 65.6322 11.4232 65.5549 11.3415L64.7124 10.6194C64.6522 10.5678 64.5662 10.5506 64.4889 10.5764Z" fill="black"/>
<path d="M39.2096 13.4392C40.1896 13.8088 40.9763 11.896 38.2038 10.9934C38.1694 10.9805 38.1264 10.9891 38.0963 11.0106C38.0404 11.0492 38.0275 11.1266 38.0705 11.1782C38.4445 11.6725 38.8098 12.399 38.9001 13.048C38.9216 13.2242 39.042 13.379 39.2096 13.4392Z" fill="black"/>
<path d="M49.2893 16.7104C47.2002 16.259 45.0639 15.5068 43.8045 14.1786H48.5758C48.6875 14.1786 48.7434 14.0453 48.666 13.9637L47.9181 13.306C47.8622 13.2587 47.7891 13.2415 47.7204 13.263L46.8478 13.5166L44.0194 13.5897C44.4922 13.2501 45.4422 12.3303 45.9236 11.8574C46.0784 11.707 46.0526 11.4534 45.8763 11.333L45.223 10.8946C45.1112 10.8172 44.9608 10.8645 44.9092 10.9892C44.5696 11.8402 44.1785 12.7171 43.8389 13.3275C43.7873 13.4178 43.8131 13.5338 43.8991 13.594H42.7041V10.6582C43.8561 10.5851 45.9365 10.3487 46.6629 10.267C46.779 10.2541 46.8392 10.1209 46.7747 10.022C46.6458 9.82857 46.4523 9.54918 46.3062 9.33855C46.1901 9.17091 45.9795 9.08924 45.7818 9.14083C43.5251 9.72541 39.6393 10.3444 36.437 10.555C36.3682 10.5593 36.308 10.6109 36.2994 10.6754C36.2865 10.7613 36.3553 10.8387 36.437 10.8387C38.0962 10.8774 39.837 10.8344 41.5048 10.7441V13.5897H35.4784C35.3968 13.5897 35.3409 13.6757 35.3796 13.753L35.4784 13.9551C35.5472 14.0926 35.6847 14.1786 35.8395 14.1786H39.3857C38.2337 15.7002 37.0688 16.6545 35.0486 17.6474C34.9841 17.6775 34.9454 17.7506 34.9669 17.8151C34.9927 17.8967 35.0744 17.9268 35.1517 17.9139C37.8082 17.4497 40.1508 15.3091 40.989 14.1829H41.5091V16.4267C41.5091 16.5083 41.5736 16.5728 41.6553 16.5728H41.7069C42.3129 16.5728 42.7084 16.2848 42.7084 16.2074V14.1786H43.2543C45.0897 16.7963 47.5699 17.7549 48.1502 17.8967C48.3221 17.9397 48.4984 17.9182 48.6187 17.7936L49.3796 16.9984C49.4698 16.9038 49.4225 16.7405 49.2893 16.7104Z" fill="black"/>
<path d="M46.6284 17.2088C46.6284 17.2088 46.4694 17.0283 46.1126 16.9037C45.9106 16.8349 45.7171 16.8091 45.5839 16.8005C45.5022 16.7962 45.4292 16.8607 45.4292 16.9466L45.4249 17.1831H39.5059C39.3942 17.1831 39.3254 17.2991 39.3727 17.398L39.4629 17.5828C39.5231 17.7075 39.6478 17.7848 39.7853 17.7848H41.5391V19.4397H38.9213V17.4625C38.8869 17.4324 38.7967 17.3636 38.6505 17.2862C38.6032 17.2604 38.1605 17.0842 37.894 17.0713C37.808 17.067 37.7393 17.1315 37.7393 17.2174V22.8871C37.7393 22.9687 37.8037 23.0332 37.8854 23.0332H37.9198C38.3883 23.0332 38.917 22.7022 38.917 22.655V22.5174H45.4292V22.8699C45.4292 22.9516 45.4936 23.016 45.5753 23.016H45.6269C46.0051 23.016 46.6112 22.6679 46.6284 22.5776V17.7891L46.6327 17.6774V17.2088H46.6284ZM41.5348 21.9285H38.917V20.0071H41.5348V21.9285ZM45.4292 21.9285H42.7211V20.0071H45.4292V21.9285ZM45.4292 19.4354H42.7211V17.7805H45.4292V19.4354Z" fill="black"/>
<path d="M38.9169 19.4355V20.0072H38.8137L38.4526 19.4355H38.9169Z" fill="black"/>
<path d="M88.964 18.5501C88.4568 19.1304 86.9609 20.8799 86.1958 21.7352C85.9766 21.9803 85.5811 21.9416 85.4135 21.6579L85.0008 20.9572C84.9492 20.8713 84.975 20.7595 85.0524 20.7036L85.5166 20.3683V14.1528H83.9864C83.8531 14.1528 83.7328 14.0754 83.6769 13.9594L83.5652 13.7359C83.5265 13.6542 83.5866 13.5553 83.6769 13.5553H85.5295L85.5381 13.2544C85.5424 13.1685 85.6155 13.104 85.7015 13.1126C85.8304 13.1298 86.0239 13.1599 86.1958 13.2115C86.4967 13.3017 86.6514 13.4436 86.6514 13.4436L86.66 19.8697C87.3134 19.4184 88.0527 18.9112 88.7921 18.3782C88.8436 18.3395 88.9167 18.3481 88.9554 18.3997C89.0027 18.4426 89.0027 18.5071 88.964 18.5501Z" fill="black"/>
<path d="M84.6142 9.11931C87.4984 10.1638 87.2319 12.0594 86.3679 12.0594C86.1186 12.0594 85.908 11.8832 85.8306 11.6468C85.5813 10.8602 84.9795 9.93602 84.4809 9.29985C84.4379 9.24397 84.4551 9.1623 84.5153 9.12791C84.5454 9.11072 84.5841 9.10642 84.6142 9.11931Z" fill="black"/>
<path d="M89.4066 9.11931C92.2909 10.1638 92.0244 12.0594 91.1604 12.0594C90.9111 12.0594 90.7005 11.8832 90.6231 11.6468C90.3738 10.8602 89.772 9.93602 89.2734 9.29985C89.2304 9.24397 89.2476 9.1623 89.3078 9.12791C89.3379 9.11072 89.3723 9.10642 89.4066 9.11931Z" fill="black"/>
<path d="M90.2621 17.5658C90.1246 19.5087 89.6345 21.1593 86.5998 22.7497C86.5354 22.7841 86.4967 22.8615 86.5182 22.9302C86.544 23.0205 86.6385 23.0592 86.7202 23.0291C90.5028 21.5762 91.2249 19.7795 91.4786 17.6002C91.4914 17.4841 91.4012 17.3853 91.2851 17.3853H90.4512C90.3524 17.3853 90.2707 17.4626 90.2621 17.5658Z" fill="black"/>
<path d="M96.1637 20.1749C96.1079 20.0976 95.9875 20.1362 95.9875 20.2308C95.9875 20.5188 95.9832 20.9186 95.966 21.0604C95.9187 21.4688 95.8543 21.5375 95.4975 21.5375H94.5389C94.208 21.5375 94.1048 21.4559 94.1048 21.0604V17.626C94.1048 17.4927 93.9973 17.3853 93.8641 17.3853H93.2021C93.0689 17.3853 92.9614 17.4927 92.9614 17.626V21.4688C92.9614 22.3671 93.2666 22.595 94.0747 22.6508C94.4057 22.6723 95.2396 22.6723 95.5921 22.6508C96.4474 22.595 96.7741 22.423 96.8988 21.559C96.9246 21.3312 96.9461 21.2152 96.9547 21.1249C96.9676 21.0088 96.9117 20.8971 96.8085 20.8369C96.7268 20.7853 96.6237 20.7122 96.4861 20.579C96.3959 20.493 96.2669 20.3211 96.1637 20.1749Z" fill="black"/>
<path d="M94.8056 16.8521V17.1186C94.8056 17.2003 94.8701 17.2648 94.9518 17.2648H94.9861C95.3644 17.2648 95.9404 17.0068 95.9533 16.8994V12.2614C95.9533 12.2614 95.82 12.0679 95.4676 11.9562C95.2698 11.896 95.0893 11.8659 94.9646 11.8487C94.8787 11.8358 94.8013 11.9046 94.8013 11.9949V12.2915H93.2066C93.774 11.7112 94.6981 10.5463 95.0979 10.0348C95.2011 9.90153 95.1624 9.7124 95.0162 9.63073L94.3199 9.24817C94.1737 9.1665 93.9932 9.23957 93.9373 9.39432C93.6192 10.3013 93.1593 11.4447 92.7252 12.2872H89.6389C89.6389 12.2872 89.4283 12.0636 89.1575 11.9476C88.9941 11.8788 88.7921 11.8444 88.6546 11.8315C88.5686 11.8229 88.4912 11.8874 88.4912 11.9777V17.1788C88.4912 17.2605 88.5557 17.3249 88.6374 17.3249H88.6717C89.1403 17.3249 89.6389 17.0541 89.6389 16.9295V16.8478H94.8056V16.8521ZM89.6389 12.8803H94.8056V16.2675H89.6389V12.9319V12.8803Z" fill="black"/>
<path d="M71.8257 13.5468C70.9402 16.5987 69.5002 19.1305 68.3311 20.2395C68.2666 20.3039 68.1634 20.3039 68.0903 20.2481C68.0216 20.1922 68.0044 20.0976 68.0474 20.0203C69.2939 17.7894 70.0074 15.6144 70.5447 12.9364C70.5705 12.8204 70.6909 12.7473 70.8027 12.7903L71.5764 13.0697C71.7784 13.1385 71.8859 13.3491 71.8257 13.5468Z" fill="black"/>
<path d="M81.4414 18.9628C80.6633 16.3064 79.3093 14.0454 78.1445 12.9794C78.0757 12.9192 77.9682 12.902 77.8865 12.945C77.8092 12.988 77.7834 13.0697 77.8264 13.1384C78.9784 15.1243 79.6059 17.007 80.0229 19.2465C80.0788 19.5474 80.4441 19.7537 80.8009 19.6893L80.917 19.6678C81.3081 19.599 81.5359 19.2895 81.4414 18.9628Z" fill="black"/>
<path d="M73.502 21.8729C74.1769 21.8729 74.2586 21.5161 74.2586 20.8714V9.42464C74.2586 9.34297 74.3273 9.28279 74.409 9.29569C74.5638 9.31718 74.8088 9.36446 75.0323 9.47192C75.273 9.58798 75.4105 9.72123 75.4836 9.8029C75.5223 9.84589 75.5395 9.90177 75.5395 9.95765V21.2711C75.5395 22.6466 74.9119 22.9733 73.7385 23.0378C73.7385 23.0378 73.5837 23.0335 73.4419 23.0249C73.3129 23.0163 73.1969 22.9432 73.1367 22.8272C73.0894 22.7326 73.012 22.6079 72.896 22.4661C72.7283 22.2641 72.5263 22.1179 72.4102 22.0448C72.363 22.0148 72.3329 21.9675 72.3286 21.9116C72.32 21.8084 72.436 21.8299 72.4747 21.8342C72.7068 21.86 73.1969 21.8729 73.502 21.8729Z" fill="black"/>
<defs>
<radialGradient id="paint0_radial_801:12404" cx="0" cy="0" r="1" gradientUnits="userSpaceOnUse" gradientTransform="translate(14.2173 25.1767) scale(14.2628)">
<stop stop-color="#CC0500"/>
<stop offset="1" stop-color="#FF751F"/>
</radialGradient>
</defs>
</svg>
