<svg width="110" height="34" viewBox="0 0 110 34" fill="none" xmlns="http://www.w3.org/2000/svg">
<g clip-path="url(#clip0)">
<path d="M31.9575 29C38.5615 29 43.915 23.6274 43.915 17C43.915 10.3726 38.5615 5 31.9575 5C25.3536 5 20 10.3726 20 17C20 23.6274 25.3536 29 31.9575 29Z" fill="#202022"/>
<path d="M43.9258 17C43.9258 10.3767 38.5682 5 31.9575 5C25.3469 5 20 10.3767 20 17C20 20.3171 21.3394 23.3198 23.4998 25.4878C23.5214 25.2276 23.543 24.9566 23.5754 24.6531C23.8778 21.4336 24.1587 17.7805 26.0166 14.8428C27.8421 11.9593 30.4777 10.7236 33.5454 11.6667C35.0684 12.1328 35.7921 13.2276 35.9757 13.542C36.1162 13.7805 36.343 14.4201 36.9803 14.5176C37.6176 14.6043 38.4817 14.7886 38.8274 15.0271C39.1839 15.2764 39.5511 15.71 39.5511 16.2304C39.5511 17.0976 39.2595 17.9756 38.3521 18.5718C37.866 18.897 37.1639 19.0813 36.2566 19.4499C36.2134 19.4607 36.181 19.4824 36.1378 19.5041C34.5499 20.5556 35.1224 22.9837 36.2026 24.4255C37.1639 25.7046 38.4169 26.1707 39.4107 26.3984C42.1651 24.187 43.9258 20.8049 43.9258 17Z" fill="#BCBCBD"/>
<path d="M33.8042 15.6884C33.815 15.6884 33.815 15.6884 33.8258 15.6884C33.9986 15.6884 34.1499 15.6233 34.2363 15.4932C34.3335 15.3632 34.3551 15.1897 34.3011 15.0271C34.2579 14.8754 34.1499 14.7453 34.0094 14.6369C33.869 14.5285 33.707 14.4743 33.5558 14.4634C33.3721 14.4526 33.2209 14.5285 33.1237 14.6585C32.9401 14.9079 33.0373 15.2873 33.3505 15.5149C33.491 15.6233 33.6422 15.6775 33.8042 15.6884Z" fill="#BCBCBD"/>
<path d="M36.2132 24.4253C35.1331 22.9836 34.5714 20.5554 36.1484 19.5039C36.1268 19.5147 36.0944 19.5256 36.0728 19.5364H36.062C35.8676 19.634 35.6731 19.7532 35.4679 19.8941C34.9926 20.2085 34.5174 20.6313 34.0853 21.2275C32.7891 22.9944 32.4434 25.1299 32.4326 28.989C35.0682 28.8914 37.4878 27.9267 39.4213 26.3765C38.4276 26.1597 37.1746 25.7044 36.2132 24.4253Z" fill="#202022"/>
<path d="M90.9569 9.86719H88.8613V26.2032H90.9569V9.86719Z" fill="#BCBCBD"/>
<path d="M84.5942 16.2195C83.6221 15.3089 82.3259 14.7561 80.8568 14.7561C77.6595 14.7561 75.2939 17.3577 75.2939 20.5664C75.2939 23.7751 77.6595 26.3767 80.8568 26.3767C82.3259 26.3767 83.6221 25.8239 84.5942 24.9133V26.1924H86.5602V14.7669H84.5942V16.2195ZM80.8568 24.5556C78.6641 24.5556 77.1194 22.7778 77.1194 20.5772C77.1194 18.3767 78.6641 16.5989 80.8568 16.5989C83.0496 16.5989 84.5942 18.3767 84.5942 20.5772C84.5834 22.7778 83.0388 24.5556 80.8568 24.5556Z" fill="#BCBCBD"/>
<path d="M55.4516 17.0433C53.2373 16.3387 52.1355 15.9051 52.1355 14.4417C52.1355 13.1301 53.5613 11.981 55.0843 11.981C56.5966 11.981 57.7524 12.9349 58.26 14.3008L60.2044 13.4769C59.513 11.4498 57.5795 9.86719 54.9871 9.86719C52.3515 9.86719 50.0399 11.9051 50.0399 14.42C50.0399 17.3577 52.4703 18.149 54.9979 18.962C57.3203 19.6883 58.7137 20.2303 58.7137 21.8563C58.7137 23.2764 57.0719 24.2954 55.2356 24.2954C53.4101 24.2954 51.8546 23.233 51.1525 21.4227L49.3486 22.4634C50.0399 24.7073 52.7944 26.355 55.2248 26.355C57.5687 26.355 60.7768 25.3252 60.7768 21.813C60.7876 18.7669 58.1952 17.9539 55.4516 17.0433Z" fill="#BCBCBD"/>
<path d="M67.971 14.4309C64.6765 14.4309 62.2461 17.1084 62.2461 20.4146C62.2461 23.7209 64.9141 26.3984 68.2086 26.3984C70.1529 26.3984 71.8812 25.4553 72.9722 24.0136L71.3087 23.0813C70.5634 23.9594 69.4508 24.5122 68.2086 24.5122C66.2643 24.5122 64.6441 23.1464 64.2336 21.3252H72.983H73.6311C73.6743 21.0325 73.7067 20.729 73.7067 20.4255C73.6959 17.1084 71.2655 14.4309 67.971 14.4309ZM67.971 16.3171C69.9477 16.3171 71.4167 17.7263 71.7408 19.6016H64.1904C64.5253 17.7263 65.9943 16.3171 67.971 16.3171Z" fill="#BCBCBD"/>
</g>
<defs>
<clipPath id="clip0">
<rect width="70.9565" height="24" fill="white" transform="translate(20 5)"/>
</clipPath>
</defs>
</svg>
