<svg width="110" height="34" viewBox="0 0 110 32" fill="none" xmlns="http://www.w3.org/2000/svg">
<path fill-rule="evenodd" clip-rule="evenodd" d="M2.0986 9.12694C0.720882 11.4561 0.0749371 14.1455 0.244576 16.8463L0.243149 16.7829C0.299604 17.5036 0.582967 18.189 1.05381 18.7398C1.54553 19.315 2.21399 19.7111 2.9547 19.8661C4.68253 20.1452 6.28006 20.9569 7.52422 22.1879C8.76838 23.4189 9.59706 25.0077 9.89454 26.7325C10.0443 27.4973 10.4502 28.1882 11.0453 28.6912C11.6405 29.1943 12.3893 29.4796 13.1683 29.5H13.7184C16.4245 29.4999 19.0681 28.6866 21.3063 27.1655C23.5444 25.6444 25.2738 23.4858 26.27 20.9697C27.2662 18.4537 27.4832 15.6963 26.893 13.0553C26.3027 10.4144 24.9324 8.0118 22.9598 6.15927C20.9872 4.30675 18.5034 3.0898 15.8306 2.66633C13.1578 2.24286 10.4195 2.63241 7.97086 3.78444C5.52222 4.93647 3.47632 6.79781 2.0986 9.12694ZM18.9813 17.5677C17.2884 19.3152 15.1364 20.5489 12.773 21.1267C12.2089 21.2612 11.6148 21.1752 11.112 20.8864C10.6092 20.5975 10.2358 20.1275 10.0679 19.5725C9.40404 17.2408 9.40404 14.7702 10.0679 12.4386C10.2312 11.8828 10.6029 11.4116 11.1054 11.1234C11.6079 10.8352 12.2023 10.7523 12.7645 10.892C15.1323 11.4725 17.2875 12.711 18.9813 14.4644C19.3764 14.8845 19.5964 15.4394 19.5964 16.0161C19.5964 16.5927 19.3764 17.1477 18.9813 17.5677Z" fill="url(#paint0_linear_802:12885)"/>
<path fill-rule="evenodd" clip-rule="evenodd" d="M35.4297 7.86689L50.8239 7.88039H50.8248C50.8524 7.87741 50.8803 7.88039 50.9066 7.88913C50.933 7.89786 50.9571 7.91214 50.9775 7.93101C50.9976 7.95006 51.0135 7.97313 51.0241 7.99871C51.0347 8.02429 51.0398 8.05182 51.0391 8.07951L50.9184 9.20423C50.9101 9.26259 50.8808 9.31595 50.8362 9.35442C50.7915 9.39289 50.7344 9.41387 50.6754 9.41348H45.5539L45.2915 11.7726H49.787C49.8368 11.7694 49.8868 11.7773 49.9333 11.7955C49.9798 11.8137 50.0217 11.8419 50.0562 11.8781C50.0906 11.9143 50.1167 11.9576 50.1326 12.005C50.1484 12.0524 50.1537 12.1027 50.1481 12.1523L48.9162 23.7918C48.8988 23.9114 48.8389 24.0207 48.7475 24.0997C48.656 24.1787 48.5392 24.2222 48.4184 24.2221H34.4257C34.3694 24.2247 34.3133 24.2151 34.2611 24.1941C34.2088 24.1731 34.1617 24.1411 34.1229 24.1003C34.0841 24.0595 34.0545 24.0108 34.0362 23.9576C34.0178 23.9044 34.0111 23.8479 34.0164 23.7918L35.2509 12.1396C35.2654 12.0369 35.3168 11.943 35.3956 11.8755C35.4743 11.8079 35.5749 11.7714 35.6786 11.7726H40.1758C40.2408 11.3845 40.5032 9.76026 40.553 9.41432H35.2778C35.2471 9.41542 35.2165 9.40995 35.1881 9.39828C35.1597 9.38661 35.1341 9.369 35.113 9.34664C35.0919 9.32428 35.0758 9.29767 35.0658 9.26861C35.0559 9.23954 35.0522 9.20867 35.0551 9.17807L35.1682 8.10314C35.1745 8.03824 35.2048 7.97804 35.2532 7.93434C35.3016 7.89064 35.3645 7.86658 35.4297 7.86689ZM43.9946 9.41854H42.0911C42.043 9.76195 41.7815 11.3895 41.7055 11.7777H43.7331L43.9946 9.41854ZM48.3323 13.3632C48.3063 13.353 48.2784 13.3487 48.2505 13.3504L45.1269 13.3344L44.6021 18.1986H46.6988C46.7212 18.1974 46.7436 18.201 46.7644 18.2093C46.7852 18.2175 46.804 18.2302 46.8195 18.2464C46.8349 18.2626 46.8467 18.2819 46.854 18.3031C46.8613 18.3243 46.8639 18.3468 46.8617 18.369L46.7334 19.5773C46.7268 19.6251 46.7029 19.6687 46.6662 19.7C46.6295 19.7313 46.5825 19.748 46.5343 19.7469H43.3028C43.253 19.7493 43.2034 19.741 43.1572 19.7225C43.111 19.704 43.0693 19.6758 43.035 19.6398C43.0006 19.6038 42.9744 19.5608 42.9582 19.5137C42.9419 19.4667 42.936 19.4167 42.9408 19.3672L43.5803 13.3394H41.3891L41.3631 13.4651L41.3631 13.4651L41.3631 13.4652C41.2501 14.0115 41.1113 14.6827 40.9782 15.2008C40.9206 15.4236 40.8575 15.6921 40.7931 15.9667C40.6961 16.3796 40.5959 16.8065 40.5057 17.1135C40.3555 17.624 40.1994 18.1049 40.0366 18.558C39.9134 18.9065 39.7911 19.2263 39.667 19.5089C39.635 19.5815 39.5825 19.6432 39.516 19.6865C39.4494 19.7298 39.3718 19.7528 39.2924 19.7528H38.0605C38.0342 19.7542 38.008 19.7487 37.9846 19.7368C37.9611 19.7248 37.9412 19.7069 37.9269 19.6848C37.9126 19.6627 37.9044 19.6372 37.9031 19.6109C37.9019 19.5847 37.9075 19.5585 37.9196 19.5351C38.3077 18.7214 38.6359 17.8805 38.9018 17.019C39.235 15.9711 39.6308 14.4304 39.8771 13.3504H36.9105C36.8514 13.3526 36.7948 13.3747 36.7499 13.4132C36.705 13.4516 36.6745 13.5042 36.6633 13.5622L35.7183 22.4941C35.716 22.5196 35.7192 22.5452 35.7275 22.5694C35.7359 22.5935 35.7493 22.6156 35.7668 22.6342C35.7844 22.6528 35.8057 22.6674 35.8293 22.6772C35.8529 22.6869 35.8784 22.6915 35.9039 22.6907H47.281C47.3361 22.6912 47.3895 22.6714 47.431 22.6352C47.4725 22.599 47.4993 22.5488 47.5063 22.4941L48.453 13.5622C48.456 13.5344 48.4529 13.5064 48.4439 13.4799C48.4349 13.4535 48.4203 13.4294 48.401 13.4092C48.3817 13.389 48.3583 13.3733 48.3323 13.3632ZM92.1921 14.4304H89.9174V14.4296C89.853 14.4324 89.7887 14.4211 89.7291 14.3966C89.6695 14.372 89.6159 14.3347 89.5722 14.2873C89.5285 14.2399 89.4957 14.1835 89.476 14.1221C89.4564 14.0607 89.4503 13.9957 89.4584 13.9318L89.4896 13.6702L90.0642 8.53007C90.0752 8.46301 90.1096 8.40202 90.1614 8.35798C90.2132 8.31394 90.2789 8.28971 90.3468 8.28961H91.3247C91.3564 8.28806 91.388 8.29323 91.4176 8.30479C91.4622 8.32257 91.4998 8.35445 91.5246 8.39558C91.5495 8.43671 91.5602 8.48483 91.5551 8.53261L91.1096 12.8104C91.1074 12.8272 91.1089 12.8442 91.1138 12.8603C91.1188 12.8764 91.1271 12.8913 91.1383 12.9039C91.1495 12.9166 91.1633 12.9267 91.1787 12.9335C91.1941 12.9404 91.2108 12.9439 91.2277 12.9437H92.5381L93.062 7.96392C93.0727 7.89656 93.1072 7.83526 93.1592 7.79114C93.2112 7.74703 93.2773 7.72301 93.3455 7.72345H94.3749C94.4068 7.72177 94.4387 7.72701 94.4684 7.73881C94.4981 7.7506 94.525 7.76868 94.547 7.79179C94.5688 7.815 94.5853 7.8426 94.5955 7.87272C94.6057 7.90285 94.6093 7.93481 94.6061 7.96645L94.4568 9.35864H96.3881C96.4068 9.35744 96.4255 9.36032 96.4429 9.36707C96.469 9.37753 96.4911 9.39618 96.5057 9.42022C96.5203 9.44426 96.5267 9.47239 96.5239 9.50039L96.3957 10.7053C96.39 10.7449 96.37 10.7811 96.3396 10.8072C96.3092 10.8333 96.2704 10.8474 96.2303 10.847H94.299L94.0762 12.9437H96.5847C96.6034 12.9425 96.6221 12.9454 96.6395 12.9522C96.6657 12.9625 96.6878 12.9811 96.7024 13.0052C96.7171 13.0293 96.7234 13.0575 96.7205 13.0855L96.5923 14.2988C96.5845 14.3362 96.5642 14.3698 96.5347 14.3942C96.5053 14.4186 96.4685 14.4322 96.4303 14.4329H93.7303L93.2249 19.2364C93.2138 19.324 93.1717 19.4046 93.1062 19.4638C93.0407 19.5229 92.9562 19.5566 92.868 19.5587H91.9458C91.9082 19.5594 91.871 19.5518 91.8367 19.5365C91.8025 19.5212 91.772 19.4985 91.7475 19.4701C91.7224 19.4422 91.7037 19.4092 91.6926 19.3734C91.6815 19.3376 91.6784 19.2997 91.6833 19.2626L92.1921 14.4304ZM90.1949 19.6112H89.0466C89.0153 19.6116 88.9842 19.6052 88.9555 19.5926C88.9263 19.5799 88.9003 19.561 88.8792 19.5373C88.8581 19.5135 88.8423 19.4855 88.8331 19.4551C88.8234 19.4252 88.8203 19.3935 88.8239 19.3623C88.8549 19.1736 88.8904 18.9811 88.9291 18.7703C89.0472 18.1286 89.1962 17.318 89.3487 15.9366C89.3552 15.887 89.3799 15.8416 89.4182 15.8093C89.4564 15.7769 89.5054 15.7601 89.5554 15.762H90.6565C90.703 15.7603 90.7488 15.7735 90.7873 15.7996C90.8258 15.8257 90.8551 15.8633 90.8708 15.9071C90.8811 15.936 90.8857 15.9667 90.8843 15.9974C90.8108 16.7477 90.5185 18.6619 90.4094 19.3759L90.3991 19.4433C90.3907 19.491 90.3655 19.5341 90.3281 19.5649C90.2906 19.5957 90.2434 19.6121 90.1949 19.6112ZM102.096 19.871C102.308 20.4861 102.571 21.0822 102.882 21.653C103.325 22.4563 103.816 23.2325 104.356 23.975C104.368 24.0041 104.373 24.0357 104.372 24.0673C104.37 24.0989 104.36 24.1296 104.345 24.157C104.329 24.1844 104.307 24.2077 104.281 24.2252C104.254 24.2427 104.224 24.2538 104.193 24.2577H102.998C102.896 24.2586 102.795 24.2354 102.704 24.1899C102.613 24.1445 102.534 24.0781 102.473 23.9961C102.102 23.4452 101.768 22.8697 101.473 22.2749C101.205 21.7627 100.878 21.0531 100.639 20.5283C100.262 21.2633 99.8093 21.9572 99.2889 22.5989C98.8754 23.0817 98.4327 23.5388 97.9634 23.9674C97.7794 24.1455 97.5347 24.2459 97.2791 24.2484H95.9004C95.8632 24.2483 95.8269 24.2367 95.7965 24.2152C95.7661 24.1938 95.7431 24.1635 95.7304 24.1285C95.7178 24.0935 95.7163 24.0555 95.726 24.0196C95.7357 23.9837 95.7562 23.9516 95.7848 23.9278C96.2539 23.5295 96.5948 23.2072 97.0091 22.809C97.5226 22.3086 97.9949 21.7677 98.4215 21.1915C98.803 20.7047 99.1301 20.1776 99.3969 19.6196C99.6232 19.0646 99.7755 18.4822 99.85 17.8874L100.269 13.9268C100.277 13.8625 100.307 13.8031 100.355 13.7598C100.404 13.717 100.467 13.6936 100.532 13.6939H101.58C101.61 13.6921 101.641 13.697 101.67 13.7082C101.698 13.7195 101.724 13.7368 101.745 13.7589C101.767 13.7808 101.783 13.8073 101.793 13.8363C101.803 13.8654 101.806 13.8963 101.802 13.9268L101.418 17.8899C101.345 18.4943 101.198 19.0874 100.98 19.6559H101.797C101.864 19.6548 101.929 19.6752 101.982 19.7139C102.036 19.7527 102.076 19.8078 102.096 19.871ZM105.155 7.88796H98.0784C98.0103 7.88775 97.9443 7.91198 97.8924 7.95625C97.8406 8.00052 97.8063 8.0619 97.7958 8.12927L97.6827 9.17805C97.6801 9.20941 97.6838 9.24098 97.6937 9.27086C97.7096 9.3159 97.7396 9.35459 97.7793 9.3812C97.819 9.4078 97.8662 9.42089 97.9139 9.41852H100.632L100.108 11.0385H98.1282C98.0214 11.0367 97.9176 11.074 97.8365 11.1435C97.7553 11.213 97.7024 11.3098 97.6878 11.4157L96.855 19.3132C96.8521 19.3449 96.856 19.377 96.8665 19.4071C96.877 19.4373 96.8939 19.4648 96.916 19.4878C96.9381 19.5109 96.9648 19.5289 96.9945 19.5407C97.0242 19.5525 97.056 19.5578 97.0879 19.5562H98.1181C98.1864 19.5567 98.2526 19.5326 98.3045 19.4883C98.3564 19.444 98.3906 19.3824 98.4008 19.3149L99.1137 12.5353C99.1159 12.5167 99.1249 12.4995 99.139 12.4872C99.153 12.4751 99.1711 12.4687 99.1897 12.4695H103.208C103.216 12.4691 103.225 12.4706 103.233 12.4738C103.241 12.477 103.249 12.4818 103.255 12.4881C103.261 12.4942 103.266 12.5013 103.269 12.5092C103.273 12.5176 103.273 12.526 103.273 12.5345L102.558 19.3149C102.555 19.3468 102.559 19.379 102.57 19.4094C102.586 19.4547 102.616 19.4937 102.656 19.5208C102.695 19.5478 102.743 19.5614 102.791 19.5595H103.821C103.892 19.5571 103.959 19.5293 104.011 19.4811C104.063 19.4329 104.096 19.3676 104.104 19.2971L104.937 11.4165C104.943 11.3678 104.937 11.3185 104.922 11.2722C104.906 11.2258 104.88 11.1835 104.846 11.1482C104.813 11.1128 104.772 11.0852 104.726 11.0671C104.681 11.0491 104.632 11.041 104.584 11.0436H101.658L102.16 9.42105H104.979C105.048 9.42199 105.114 9.39813 105.166 9.35391C105.218 9.30968 105.252 9.2481 105.262 9.18058L105.375 8.11914C105.377 8.08931 105.372 8.05949 105.362 8.0315C105.351 8.0035 105.335 7.97791 105.315 7.95629C105.294 7.93466 105.269 7.91745 105.242 7.9057C105.214 7.89396 105.185 7.88792 105.155 7.88796ZM96.2104 15.8006H95.1616C95.0972 15.8 95.0348 15.8231 94.9863 15.8656C94.9379 15.9081 94.9069 15.967 94.8992 16.031C94.8923 16.078 94.8846 16.1326 94.876 16.1939C94.7979 16.7521 94.6434 17.8565 94.2655 18.6525C93.4479 20.3822 92.2422 21.6841 89.0081 22.5101C88.9478 22.5245 88.8914 22.5429 88.8393 22.5598C88.7872 22.5768 88.7394 22.5924 88.6959 22.6013C88.627 22.6185 88.565 22.6563 88.5181 22.7096C88.4712 22.763 88.4417 22.8294 88.4335 22.8999L88.3104 24.0356C88.3036 24.084 88.3131 24.1333 88.3374 24.1757C88.3625 24.2181 88.4011 24.2508 88.447 24.2685C88.4932 24.283 88.5427 24.283 88.5888 24.2685C94.9127 22.5987 95.953 19.9443 96.4357 16.0369C96.4385 16.0058 96.4347 15.9745 96.4247 15.9449C96.41 15.9005 96.381 15.8622 96.3422 15.8361C96.3034 15.81 96.257 15.7975 96.2104 15.8006ZM76.3882 18.7673C76.2599 18.0079 75.9089 15.599 75.8406 14.9223C75.8339 14.8727 75.8091 14.8272 75.7709 14.7948C75.7328 14.7624 75.6839 14.7453 75.6339 14.7468H74.4518C74.5437 14.5662 75.9452 11.7802 76.1899 11.2402C76.3443 10.9052 76.5038 10.5382 76.6244 10.1922C76.642 10.1453 76.6477 10.0948 76.6408 10.0452C76.634 9.99552 76.6149 9.94838 76.5852 9.908C76.5556 9.86762 76.5163 9.83527 76.471 9.81389C76.4257 9.79251 76.3758 9.78277 76.3257 9.78555H74.6534L74.6982 9.35524L74.8416 7.96136C74.8444 7.93028 74.8405 7.89895 74.8302 7.8695C74.8199 7.84004 74.8034 7.81313 74.7818 7.79059C74.7602 7.76805 74.734 7.75039 74.7051 7.7388C74.6761 7.72722 74.645 7.72197 74.6138 7.72343H73.5945C73.5266 7.72274 73.4608 7.74675 73.4092 7.79099C73.3577 7.83522 73.324 7.89667 73.3144 7.96389L73.1229 9.79905H70.908C70.8402 9.79854 70.7744 9.82262 70.7229 9.86682C70.6714 9.91102 70.6377 9.97236 70.6279 10.0395L70.5469 11.1043C70.5434 11.136 70.5469 11.1681 70.557 11.1983C70.5672 11.2285 70.5838 11.2561 70.6058 11.2792C70.6277 11.3023 70.6544 11.3204 70.684 11.3322C70.7136 11.3439 70.7454 11.3491 70.7772 11.3473H74.4206C73.8957 12.6585 70.4887 18.1935 69.6087 19.4726C69.5881 19.4986 69.5754 19.53 69.5722 19.563C69.5689 19.596 69.5752 19.6293 69.5903 19.6588C69.6054 19.6883 69.6287 19.7129 69.6574 19.7295C69.6861 19.7462 69.719 19.7543 69.7521 19.7528H71.0633C71.1414 19.7514 71.2181 19.7313 71.2869 19.6944C71.3557 19.6574 71.4147 19.6045 71.459 19.5401C71.5527 19.3967 72.5668 17.7058 72.7221 17.4021L71.9796 24.0061C71.9746 24.0392 71.9771 24.073 71.9872 24.105C71.9972 24.137 72.0143 24.1662 72.0374 24.1906C72.0604 24.2149 72.0887 24.2336 72.12 24.2454C72.1514 24.2571 72.185 24.2616 72.2184 24.2584H73.3195C73.3881 24.2583 73.4544 24.2335 73.5063 24.1886C73.5582 24.1437 73.5922 24.0816 73.6021 24.0137L74.3885 15.5804C74.5151 16.6284 74.7454 18.3226 74.8272 18.8542C74.8356 18.9015 74.8607 18.9443 74.8981 18.9745C74.9355 19.0047 74.9825 19.0204 75.0306 19.0187H76.1781C76.2091 19.0178 76.2396 19.0104 76.2675 18.9969C76.2954 18.9834 76.3201 18.9642 76.3401 18.9404C76.36 18.9166 76.3747 18.8889 76.3831 18.8591C76.3916 18.8292 76.3936 18.7979 76.389 18.7673H76.3882ZM86.1512 7.90652H78.6191C78.5111 7.90599 78.4066 7.94445 78.3247 8.01483C78.2429 8.08521 78.1892 8.18277 78.1736 8.28958L77.0682 18.7723C77.065 18.8038 77.0687 18.8356 77.0789 18.8655C77.0891 18.8954 77.1057 18.9228 77.1275 18.9457C77.1493 18.9687 77.1758 18.9866 77.2052 18.9983C77.2346 19.01 77.2661 19.0153 77.2977 19.0136H78.3465C78.4148 19.0137 78.4808 18.989 78.5323 18.9442C78.5837 18.8994 78.6173 18.8374 78.6266 18.7698L79.5995 9.56027C79.604 9.53024 79.6192 9.50284 79.6423 9.48314C79.6654 9.46345 79.6948 9.45278 79.7252 9.45311H84.7413C84.7555 9.45245 84.7696 9.4549 84.7827 9.46029C84.7959 9.46569 84.8076 9.47389 84.8172 9.48433C84.8274 9.4953 84.8341 9.50711 84.8392 9.52061C84.8434 9.53411 84.8451 9.54846 84.8434 9.5628L83.8478 18.7698C83.8444 18.8017 83.848 18.834 83.8584 18.8644C83.8688 18.8948 83.8856 18.9226 83.9077 18.9459C83.9299 18.9692 83.9568 18.9873 83.9866 18.9992C84.0165 19.011 84.0486 19.0162 84.0806 19.0145H85.1109C85.1794 19.0154 85.2458 18.9913 85.2979 18.9467C85.3499 18.9021 85.3839 18.8401 85.3935 18.7723L86.5233 8.28958C86.5286 8.23891 86.5228 8.18769 86.5061 8.13953C86.4895 8.09138 86.4624 8.04748 86.4269 8.01093C86.3914 7.97438 86.3483 7.94609 86.3007 7.92804C86.253 7.91 86.202 7.90265 86.1512 7.90652ZM82.6211 22.7096H85.6224C85.6527 22.7106 85.6825 22.7175 85.7102 22.7301C85.7378 22.7426 85.7627 22.7605 85.7834 22.7827C85.8041 22.8049 85.8202 22.8309 85.8308 22.8594C85.8414 22.8878 85.8462 22.9181 85.8451 22.9484L85.7346 23.9963C85.7278 24.0667 85.6957 24.1321 85.6441 24.1804C85.5925 24.2287 85.5251 24.2566 85.4544 24.2587H81.4095C81.3346 24.2594 81.2604 24.2439 81.192 24.2134C81.1235 24.1829 81.0624 24.1381 81.0128 24.0819C80.9632 24.0257 80.9263 23.9596 80.9044 23.8879C80.8826 23.8162 80.8765 23.7407 80.8864 23.6664L81.3024 19.6856C80.9097 20.4668 80.4496 21.2121 79.927 21.9131C79.3494 22.6317 78.7224 23.3092 78.0505 23.9406C77.8084 24.1448 77.5013 24.2553 77.1857 24.2528H75.5682C75.5381 24.2513 75.5093 24.2402 75.4859 24.2212C75.4625 24.2022 75.4458 24.1762 75.4382 24.1471C75.4306 24.1179 75.4325 24.0871 75.4436 24.0591C75.4546 24.031 75.4744 24.0073 75.4999 23.9912C77.2456 22.6176 78.8732 21.0685 79.8663 19.127C80.3428 18.1298 80.6341 17.0542 80.7261 15.9528C80.7286 15.9453 81.2349 11.335 81.2349 11.335C81.2406 11.2697 81.2706 11.2088 81.3191 11.1646C81.3675 11.1204 81.4308 11.096 81.4964 11.0962H82.5764C82.6083 11.0956 82.6399 11.1019 82.6692 11.1146C82.6985 11.1272 82.7246 11.1461 82.746 11.1697C82.7674 11.1934 82.7834 11.2214 82.793 11.2518C82.8026 11.2822 82.8056 11.3143 82.8017 11.346L82.2938 15.9528C82.2161 16.6489 82.0904 17.3374 81.9158 18.0158H82.5815C82.6373 18.0148 82.6927 18.0258 82.744 18.048C82.7952 18.0702 82.8411 18.1031 82.8786 18.1445C82.9161 18.1859 82.9443 18.2348 82.9613 18.288C82.9783 18.3412 82.9837 18.3974 82.9772 18.4529L82.5452 22.6252C82.5436 22.636 82.5443 22.6469 82.5474 22.6573C82.5506 22.6677 82.556 22.6773 82.5632 22.6854C82.5705 22.6934 82.5794 22.6998 82.5895 22.704C82.5995 22.7082 82.6103 22.7101 82.6211 22.7096ZM55.6971 8.31354L68.3483 7.78873V7.78788C68.3763 7.78373 68.4049 7.78584 68.432 7.79408C68.4591 7.80232 68.4841 7.81647 68.5051 7.83552C68.5261 7.85457 68.5426 7.87804 68.5534 7.90423C68.5642 7.93043 68.5691 7.9587 68.5676 7.98701L68.458 9.10919C68.4497 9.16311 68.4235 9.21264 68.3835 9.24972C68.3435 9.2868 68.2921 9.30924 68.2377 9.31338L66.9122 9.38426C66.84 9.44678 66.8459 9.91905 66.8483 10.11C66.8487 10.1355 66.8489 10.156 66.8489 10.1698C66.8278 10.4533 66.8093 10.7368 66.7915 11.022C66.7561 11.5898 66.7308 12.1577 66.7156 12.7255C66.6789 13.8609 66.6789 14.9972 66.7156 16.1326C66.7721 18.6664 67.0719 21.189 67.6108 23.6656C67.6775 23.9507 67.567 24.2579 67.2396 24.2579H66.3849C66.2818 24.2634 66.18 24.2333 66.0966 24.1726C66.0131 24.1119 65.9531 24.0243 65.9267 23.9246C65.0855 19.3987 64.9674 14.8433 65.2998 10.2592C65.3107 10.0983 65.3224 9.94176 65.334 9.78716C65.3422 9.67746 65.3503 9.56875 65.358 9.46019L61.4498 9.6146L60.7292 9.64666C60.2053 14.0069 59.4275 18.3328 58.3996 22.6024C58.3965 22.614 58.396 22.6262 58.3981 22.6381C58.4003 22.6499 58.4052 22.6611 58.4123 22.6708C58.4196 22.6806 58.4292 22.6886 58.4402 22.694C58.4512 22.6994 58.4633 22.7022 58.4755 22.702H61.924C61.9395 22.702 61.9548 22.6987 61.9691 22.6925C61.9833 22.6862 61.9961 22.6771 62.0066 22.6657C62.0173 22.6545 62.0255 22.6412 62.0307 22.6267C62.0359 22.6122 62.0381 22.5967 62.037 22.5813L61.6911 17.5332C61.6884 17.4971 61.6932 17.4608 61.7052 17.4267C61.7172 17.3925 61.7361 17.3612 61.7607 17.3347C61.7853 17.3081 61.8151 17.287 61.8483 17.2725C61.8815 17.258 61.9173 17.2506 61.9535 17.2505H63.0023C63.0695 17.2505 63.1342 17.2763 63.1829 17.3226C63.2316 17.369 63.2606 17.4323 63.2638 17.4994L63.6958 23.847C63.6988 23.8998 63.691 23.9527 63.6728 24.0025C63.6547 24.0522 63.6266 24.0978 63.5903 24.1363C63.554 24.1748 63.5102 24.2055 63.4616 24.2266C63.413 24.2476 63.3607 24.2586 63.3077 24.2587H57.0471C56.9631 24.2581 56.8805 24.2377 56.8058 24.1994C56.7311 24.1611 56.6665 24.1058 56.617 24.0379C56.5676 23.9701 56.5347 23.8916 56.521 23.8088C56.5073 23.7259 56.5133 23.6411 56.5383 23.5609L56.6252 23.2994C56.6539 23.215 58.5439 15.2163 59.1649 9.71247L56.4624 9.82554L56.297 11.1173C56.2059 12.0007 56.0455 13.2014 55.87 14.2628C55.8501 14.3834 55.8302 14.5045 55.8103 14.6261C55.6546 15.5745 55.4941 16.5523 55.26 17.5619C54.9951 18.7026 54.693 19.6873 54.3235 20.8517C53.9945 21.8986 53.6141 22.9287 53.1835 23.9381C53.1278 24.0366 53.0466 24.1183 52.9485 24.1747C52.8504 24.2311 52.739 24.2601 52.6258 24.2587H51.9913C51.9214 24.2635 51.8515 24.2503 51.7881 24.2204C51.7248 24.1905 51.6701 24.1448 51.6294 24.0878C51.5887 24.0308 51.5633 23.9643 51.5556 23.8947C51.5479 23.825 51.5582 23.7546 51.5855 23.69C51.981 22.8127 52.3369 21.918 52.652 21.0086C53.0452 19.8712 53.3726 18.8908 53.6712 17.7399C53.9585 16.6237 54.2076 15.4981 54.418 14.3649C54.6145 13.2849 54.7709 12.1979 54.8871 11.1063L55.1259 8.83666C55.1468 8.69727 55.215 8.56928 55.319 8.47407C55.4229 8.37887 55.5564 8.3222 55.6971 8.31354Z" fill="white"/>
<defs>
<linearGradient id="paint0_linear_802:12885" x1="13.718" y1="2.5" x2="13.718" y2="29.5" gradientUnits="userSpaceOnUse">
<stop stop-color="#FA5050"/>
<stop offset="1" stop-color="#FB0414"/>
</linearGradient>
</defs>
</svg>
