<svg width="110" height="34" viewBox="0 0 110 33" fill="none" xmlns="http://www.w3.org/2000/svg">
<path fill-rule="evenodd" clip-rule="evenodd" d="M2.0986 9.18407C0.720882 11.5132 0.0749371 14.2026 0.244576 16.9034L0.243149 16.84C0.299604 17.5608 0.582967 18.2461 1.05381 18.7969C1.54553 19.3721 2.21399 19.7682 2.9547 19.9232C4.68253 20.2023 6.28006 21.0141 7.52422 22.2451C8.76838 23.4761 9.59706 25.0649 9.89454 26.7896C10.0443 27.5544 10.4502 28.2453 11.0453 28.7484C11.6405 29.2515 12.3893 29.5367 13.1683 29.5571H13.7184C16.4245 29.557 19.0681 28.7437 21.3063 27.2226C23.5444 25.7015 25.2738 23.5429 26.27 21.0269C27.2662 18.5108 27.4832 15.7534 26.893 13.1125C26.3027 10.4715 24.9324 8.06893 22.9598 6.2164C20.9872 4.36388 18.5034 3.14693 15.8306 2.72346C13.1578 2.29999 10.4195 2.68954 7.97086 3.84157C5.52222 4.9936 3.47632 6.85493 2.0986 9.18407ZM18.9813 17.6249C17.2884 19.3724 15.1364 20.6061 12.773 21.1838C12.2089 21.3183 11.6148 21.2324 11.112 20.9435C10.6092 20.6546 10.2358 20.1846 10.0679 19.6296C9.40404 17.298 9.40404 14.8273 10.0679 12.4957C10.2312 11.9399 10.6029 11.4687 11.1054 11.1805C11.6079 10.8923 12.2023 10.8094 12.7645 10.9491C15.1323 11.5296 17.2875 12.7681 18.9813 14.5216C19.3764 14.9416 19.5964 15.4965 19.5964 16.0732C19.5964 16.6499 19.3764 17.2048 18.9813 17.6249Z" fill="url(#paint0_linear_801:12630)"/>
<path fill-rule="evenodd" clip-rule="evenodd" d="M35.4297 7.92402L50.8239 7.93752H50.8248C50.8524 7.93454 50.8803 7.93752 50.9066 7.94626C50.933 7.95499 50.9571 7.96927 50.9775 7.98814C50.9976 8.00719 51.0135 8.03025 51.0241 8.05584C51.0347 8.08142 51.0398 8.10895 51.0391 8.13664L50.9184 9.26136C50.9101 9.31972 50.8808 9.37308 50.8362 9.41155C50.7915 9.45002 50.7344 9.471 50.6754 9.47061H45.5539L45.2915 11.8297H49.787C49.8368 11.8266 49.8868 11.8344 49.9333 11.8526C49.9798 11.8709 50.0217 11.8991 50.0562 11.9353C50.0906 11.9715 50.1167 12.0148 50.1326 12.0621C50.1484 12.1095 50.1537 12.1598 50.1481 12.2094L48.9162 23.8489C48.8988 23.9685 48.8389 24.0778 48.7475 24.1568C48.656 24.2358 48.5392 24.2793 48.4184 24.2793H34.4257C34.3694 24.2818 34.3133 24.2723 34.2611 24.2512C34.2088 24.2302 34.1617 24.1982 34.1229 24.1574C34.0841 24.1166 34.0545 24.068 34.0362 24.0148C34.0178 23.9615 34.0111 23.905 34.0164 23.8489L35.2509 12.1968C35.2654 12.0941 35.3168 12.0002 35.3956 11.9326C35.4743 11.8651 35.5749 11.8285 35.6786 11.8297H40.1758C40.2408 11.4416 40.5032 9.81739 40.553 9.47145H35.2778C35.2471 9.47255 35.2165 9.46708 35.1881 9.45541C35.1597 9.44374 35.1341 9.42613 35.113 9.40377C35.0919 9.38141 35.0758 9.3548 35.0658 9.32573C35.0559 9.29667 35.0522 9.2658 35.0551 9.2352L35.1682 8.16027C35.1745 8.09537 35.2048 8.03517 35.2532 7.99147C35.3016 7.94777 35.3645 7.92371 35.4297 7.92402ZM43.9946 9.47567H42.0911C42.043 9.81908 41.7815 11.4467 41.7055 11.8348H43.7331L43.9946 9.47567ZM48.3323 13.4203C48.3063 13.4101 48.2784 13.4058 48.2505 13.4075L45.1269 13.3915L44.6021 18.2557H46.6988C46.7212 18.2545 46.7436 18.2582 46.7644 18.2664C46.7852 18.2747 46.804 18.2873 46.8195 18.3035C46.8349 18.3197 46.8467 18.339 46.854 18.3602C46.8613 18.3814 46.8639 18.4039 46.8617 18.4262L46.7334 19.6344C46.7268 19.6822 46.7029 19.7259 46.6662 19.7571C46.6295 19.7884 46.5825 19.8051 46.5343 19.804H43.3028C43.253 19.8064 43.2034 19.7981 43.1572 19.7796C43.111 19.7611 43.0693 19.7329 43.035 19.6969C43.0006 19.6609 42.9744 19.6179 42.9582 19.5709C42.9419 19.5238 42.936 19.4739 42.9408 19.4243L43.5803 13.3966H41.3891L41.3631 13.5222L41.3631 13.5223L41.3631 13.5223C41.2501 14.0686 41.1113 14.7398 40.9782 15.2579C40.9206 15.4807 40.8575 15.7492 40.7931 16.0239C40.6961 16.4367 40.5959 16.8636 40.5057 17.1707C40.3555 17.6811 40.1994 18.1621 40.0366 18.6152C39.9134 18.9636 39.7911 19.2834 39.667 19.5661C39.635 19.6387 39.5825 19.7004 39.516 19.7437C39.4494 19.787 39.3718 19.81 39.2924 19.8099H38.0605C38.0342 19.8114 38.008 19.8058 37.9846 19.7939C37.9611 19.782 37.9412 19.7641 37.9269 19.742C37.9126 19.7199 37.9044 19.6944 37.9031 19.6681C37.9019 19.6418 37.9075 19.6156 37.9196 19.5922C38.3077 18.7785 38.6359 17.9376 38.9018 17.0762C39.235 16.0282 39.6308 14.4875 39.8771 13.4075H36.9105C36.8514 13.4097 36.7948 13.4318 36.7499 13.4703C36.705 13.5088 36.6745 13.5613 36.6633 13.6193L35.7183 22.5513C35.716 22.5767 35.7192 22.6024 35.7275 22.6265C35.7359 22.6507 35.7493 22.6728 35.7668 22.6913C35.7844 22.7099 35.8057 22.7246 35.8293 22.7343C35.8529 22.7441 35.8784 22.7487 35.9039 22.7479H47.281C47.3361 22.7483 47.3895 22.7285 47.431 22.6923C47.4725 22.6561 47.4993 22.6059 47.5063 22.5513L48.453 13.6193C48.456 13.5916 48.4529 13.5635 48.4439 13.5371C48.4349 13.5106 48.4203 13.4865 48.401 13.4663C48.3817 13.4462 48.3583 13.4304 48.3323 13.4203ZM92.1921 14.4875H89.9174V14.4867C89.853 14.4895 89.7887 14.4783 89.7291 14.4537C89.6695 14.4291 89.6159 14.3918 89.5722 14.3444C89.5285 14.297 89.4957 14.2407 89.476 14.1792C89.4564 14.1178 89.4503 14.0529 89.4584 13.9889L89.4896 13.7273L90.0642 8.5872C90.0752 8.52013 90.1096 8.45915 90.1614 8.41511C90.2132 8.37107 90.2789 8.34684 90.3468 8.34674H91.3247C91.3564 8.34519 91.388 8.35036 91.4176 8.36192C91.4622 8.37969 91.4998 8.41158 91.5246 8.45271C91.5495 8.49384 91.5602 8.54196 91.5551 8.58974L91.1096 12.8675C91.1074 12.8843 91.1089 12.9013 91.1138 12.9174C91.1188 12.9336 91.1271 12.9484 91.1383 12.9611C91.1495 12.9737 91.1633 12.9838 91.1787 12.9907C91.1941 12.9975 91.2108 13.001 91.2277 13.0009H92.5381L93.062 8.02105C93.0727 7.95369 93.1072 7.89239 93.1592 7.84827C93.2112 7.80416 93.2773 7.78014 93.3455 7.78058H94.3749C94.4068 7.7789 94.4387 7.78414 94.4684 7.79594C94.4981 7.80773 94.525 7.82581 94.547 7.84892C94.5688 7.87213 94.5853 7.89973 94.5955 7.92985C94.6057 7.95998 94.6093 7.99194 94.6061 8.02358L94.4568 9.41577H96.3881C96.4068 9.41457 96.4255 9.41745 96.4429 9.4242C96.469 9.43466 96.4911 9.45331 96.5057 9.47735C96.5203 9.50139 96.5267 9.52952 96.5239 9.55752L96.3957 10.7624C96.39 10.802 96.37 10.8383 96.3396 10.8643C96.3092 10.8904 96.2704 10.9046 96.2303 10.9041H94.299L94.0762 13.0009H96.5847C96.6034 12.9997 96.6221 13.0025 96.6395 13.0093C96.6657 13.0196 96.6878 13.0383 96.7024 13.0623C96.7171 13.0864 96.7234 13.1146 96.7205 13.1426L96.5923 14.3559C96.5845 14.3933 96.5642 14.427 96.5347 14.4513C96.5053 14.4757 96.4685 14.4894 96.4303 14.4901H93.7303L93.2249 19.2935C93.2138 19.3811 93.1717 19.4617 93.1062 19.5209C93.0407 19.58 92.9562 19.6137 92.868 19.6159H91.9458C91.9082 19.6165 91.871 19.609 91.8367 19.5937C91.8025 19.5783 91.772 19.5557 91.7475 19.5273C91.7224 19.4994 91.7037 19.4664 91.6926 19.4305C91.6815 19.3947 91.6784 19.3569 91.6833 19.3197L92.1921 14.4875ZM90.1949 19.6683H89.0466C89.0153 19.6687 88.9842 19.6624 88.9555 19.6497C88.9263 19.637 88.9003 19.6182 88.8792 19.5944C88.8581 19.5707 88.8423 19.5426 88.8331 19.5122C88.8234 19.4823 88.8203 19.4506 88.8239 19.4194C88.8549 19.2308 88.8904 19.0382 88.9291 18.8274C89.0472 18.1857 89.1962 17.3751 89.3487 15.9938C89.3552 15.9441 89.3799 15.8987 89.4182 15.8664C89.4564 15.8341 89.5054 15.8172 89.5554 15.8191H90.6565C90.703 15.8174 90.7488 15.8306 90.7873 15.8567C90.8258 15.8828 90.8551 15.9204 90.8708 15.9642C90.8811 15.9932 90.8857 16.0238 90.8843 16.0545C90.8108 16.8049 90.5185 18.7191 90.4094 19.433L90.3991 19.5004C90.3907 19.5481 90.3655 19.5913 90.3281 19.622C90.2906 19.6528 90.2434 19.6692 90.1949 19.6683ZM102.096 19.9282C102.308 20.5433 102.571 21.1394 102.882 21.7102C103.325 22.5134 103.816 23.2897 104.356 24.0322C104.368 24.0613 104.373 24.0928 104.372 24.1244C104.37 24.156 104.36 24.1867 104.345 24.2141C104.329 24.2415 104.307 24.2649 104.281 24.2824C104.254 24.2998 104.224 24.3109 104.193 24.3148H102.998C102.896 24.3158 102.795 24.2925 102.704 24.2471C102.613 24.2016 102.534 24.1352 102.473 24.0533C102.102 23.5023 101.768 22.9269 101.473 22.332C101.205 21.8199 100.878 21.1103 100.639 20.5854C100.262 21.3205 99.8093 22.0144 99.2889 22.656C98.8754 23.1388 98.4327 23.5959 97.9634 24.0246C97.7794 24.2026 97.5347 24.303 97.2791 24.3055H95.9004C95.8632 24.3054 95.8269 24.2938 95.7965 24.2724C95.7661 24.2509 95.7431 24.2207 95.7304 24.1857C95.7178 24.1507 95.7163 24.1126 95.726 24.0767C95.7357 24.0408 95.7562 24.0088 95.7848 23.9849C96.2539 23.5867 96.5948 23.2644 97.0091 22.8661C97.5226 22.3658 97.9949 21.8249 98.4215 21.2486C98.803 20.7618 99.1301 20.2347 99.3969 19.6767C99.6232 19.1217 99.7755 18.5393 99.85 17.9445L100.269 13.9839C100.277 13.9196 100.307 13.8602 100.355 13.8169C100.404 13.7741 100.467 13.7507 100.532 13.7511H101.58C101.61 13.7493 101.641 13.7542 101.67 13.7654C101.698 13.7766 101.724 13.7939 101.745 13.816C101.767 13.8379 101.783 13.8644 101.793 13.8935C101.803 13.9225 101.806 13.9535 101.802 13.9839L101.418 17.947C101.345 18.5514 101.198 19.1446 100.98 19.713H101.797C101.864 19.7119 101.929 19.7323 101.982 19.7711C102.036 19.8098 102.076 19.8649 102.096 19.9282ZM105.155 7.94509H98.0784C98.0103 7.94488 97.9443 7.96911 97.8924 8.01338C97.8406 8.05765 97.8063 8.11903 97.7958 8.1864L97.6827 9.23518C97.6801 9.26654 97.6838 9.29811 97.6937 9.32799C97.7096 9.37303 97.7396 9.41172 97.7793 9.43832C97.819 9.46493 97.8662 9.47802 97.9139 9.47565H100.632L100.108 11.0956H98.1282C98.0214 11.0938 97.9176 11.1312 97.8365 11.2007C97.7553 11.2702 97.7024 11.367 97.6878 11.4728L96.855 19.3703C96.8521 19.4021 96.856 19.4341 96.8665 19.4643C96.877 19.4944 96.8939 19.5219 96.916 19.5449C96.9381 19.568 96.9648 19.586 96.9945 19.5978C97.0242 19.6096 97.056 19.6149 97.0879 19.6133H98.1181C98.1864 19.6139 98.2526 19.5898 98.3045 19.5454C98.3564 19.5011 98.3906 19.4395 98.4008 19.372L99.1137 12.5925C99.1159 12.5738 99.1249 12.5567 99.139 12.5444C99.153 12.5322 99.1711 12.5259 99.1897 12.5266H103.208C103.216 12.5263 103.225 12.5277 103.233 12.5309C103.241 12.5341 103.249 12.539 103.255 12.5452C103.261 12.5513 103.266 12.5585 103.269 12.5663C103.273 12.5747 103.273 12.5832 103.273 12.5916L102.558 19.372C102.555 19.404 102.559 19.4361 102.57 19.4665C102.586 19.5118 102.616 19.5509 102.656 19.5779C102.695 19.6049 102.743 19.6185 102.791 19.6167H103.821C103.892 19.6142 103.959 19.5864 104.011 19.5382C104.063 19.49 104.096 19.4247 104.104 19.3543L104.937 11.4736C104.943 11.425 104.937 11.3757 104.922 11.3293C104.906 11.2829 104.88 11.2406 104.846 11.2053C104.813 11.17 104.772 11.1423 104.726 11.1242C104.681 11.1062 104.632 11.0982 104.584 11.1007H101.658L102.16 9.47818H104.979C105.048 9.47912 105.114 9.45526 105.166 9.41104C105.218 9.36681 105.252 9.30522 105.262 9.23771L105.375 8.17627C105.377 8.14644 105.372 8.11662 105.362 8.08863C105.351 8.06063 105.335 8.03504 105.315 8.01341C105.294 7.99179 105.269 7.97458 105.242 7.96283C105.214 7.95109 105.185 7.94505 105.155 7.94509ZM96.2104 15.8578H95.1616C95.0972 15.8571 95.0348 15.8802 94.9863 15.9227C94.9379 15.9653 94.9069 16.0241 94.8992 16.0881C94.8923 16.1351 94.8846 16.1898 94.876 16.251C94.7979 16.8093 94.6434 17.9136 94.2655 18.7096C93.4479 20.4393 92.2422 21.7412 89.0081 22.5673C88.9478 22.5816 88.8914 22.6 88.8393 22.617C88.7872 22.6339 88.7394 22.6495 88.6959 22.6584C88.627 22.6756 88.565 22.7134 88.5181 22.7668C88.4712 22.8201 88.4417 22.8865 88.4335 22.9571L88.3104 24.0928C88.3036 24.1412 88.3131 24.1904 88.3374 24.2328C88.3625 24.2752 88.4011 24.3079 88.447 24.3256C88.4932 24.3401 88.5427 24.3401 88.5888 24.3256C94.9127 22.6559 95.953 20.0014 96.4357 16.094C96.4385 16.0629 96.4347 16.0316 96.4247 16.0021C96.41 15.9576 96.381 15.9194 96.3422 15.8933C96.3034 15.8671 96.257 15.8547 96.2104 15.8578ZM76.3882 18.8244C76.2599 18.065 75.9089 15.6561 75.8406 14.9794C75.8339 14.9298 75.8091 14.8844 75.7709 14.852C75.7328 14.8196 75.6839 14.8024 75.6339 14.8039H74.4518C74.5437 14.6234 75.9452 11.8373 76.1899 11.2973C76.3443 10.9623 76.5038 10.5953 76.6244 10.2494C76.642 10.2025 76.6477 10.1519 76.6408 10.1023C76.634 10.0526 76.6149 10.0055 76.5852 9.96513C76.5556 9.92475 76.5163 9.8924 76.471 9.87102C76.4257 9.84964 76.3758 9.8399 76.3257 9.84268H74.6534L74.6982 9.41237L74.8416 8.01849C74.8444 7.98741 74.8405 7.95608 74.8302 7.92663C74.8199 7.89717 74.8034 7.87026 74.7818 7.84772C74.7602 7.82518 74.734 7.80752 74.7051 7.79593C74.6761 7.78435 74.645 7.7791 74.6138 7.78055H73.5945C73.5266 7.77987 73.4608 7.80388 73.4092 7.84811C73.3577 7.89235 73.324 7.9538 73.3144 8.02102L73.1229 9.85618H70.908C70.8402 9.85567 70.7744 9.87975 70.7229 9.92395C70.6714 9.96815 70.6377 10.0295 70.6279 10.0966L70.5469 11.1615C70.5434 11.1931 70.5469 11.2252 70.557 11.2554C70.5672 11.2856 70.5838 11.3132 70.6058 11.3363C70.6277 11.3595 70.6544 11.3775 70.684 11.3893C70.7136 11.4011 70.7454 11.4062 70.7772 11.4045H74.4206C73.8957 12.7156 70.4887 18.2506 69.6087 19.5298C69.5881 19.5558 69.5754 19.5872 69.5722 19.6202C69.5689 19.6532 69.5752 19.6864 69.5903 19.7159C69.6054 19.7455 69.6287 19.77 69.6574 19.7867C69.6861 19.8033 69.719 19.8114 69.7521 19.8099H71.0633C71.1414 19.8085 71.2181 19.7885 71.2869 19.7515C71.3557 19.7145 71.4147 19.6616 71.459 19.5973C71.5527 19.4538 72.5668 17.763 72.7221 17.4592L71.9796 24.0632C71.9746 24.0963 71.9771 24.1302 71.9872 24.1621C71.9972 24.1941 72.0143 24.2234 72.0374 24.2477C72.0604 24.272 72.0887 24.2908 72.12 24.3025C72.1514 24.3143 72.185 24.3187 72.2184 24.3155H73.3195C73.3881 24.3154 73.4544 24.2907 73.5063 24.2457C73.5582 24.2008 73.5922 24.1387 73.6021 24.0708L74.3885 15.6376C74.5151 16.6855 74.7454 18.3797 74.8272 18.9113C74.8356 18.9587 74.8607 19.0014 74.8981 19.0316C74.9355 19.0619 74.9825 19.0776 75.0306 19.0758H76.1781C76.2091 19.075 76.2396 19.0675 76.2675 19.0541C76.2954 19.0406 76.3201 19.0213 76.3401 18.9975C76.36 18.9738 76.3747 18.9461 76.3831 18.9162C76.3916 18.8864 76.3936 18.8551 76.389 18.8244H76.3882ZM86.1512 7.96365H78.6191C78.5111 7.96312 78.4066 8.00158 78.3247 8.07196C78.2429 8.14234 78.1892 8.2399 78.1736 8.34671L77.0682 18.8295C77.065 18.8609 77.0687 18.8927 77.0789 18.9226C77.0891 18.9526 77.1057 18.9799 77.1275 19.0029C77.1493 19.0258 77.1758 19.0437 77.2052 19.0554C77.2346 19.0672 77.2661 19.0724 77.2977 19.0708H78.3465C78.4148 19.0708 78.4808 19.0461 78.5323 19.0013C78.5837 18.9565 78.6173 18.8945 78.6266 18.8269L79.5995 9.6174C79.604 9.58737 79.6192 9.55997 79.6423 9.54027C79.6654 9.52058 79.6948 9.50991 79.7252 9.51024H84.7413C84.7555 9.50958 84.7696 9.51203 84.7827 9.51742C84.7959 9.52282 84.8076 9.53102 84.8172 9.54146C84.8274 9.55243 84.8341 9.56424 84.8392 9.57774C84.8434 9.59124 84.8451 9.60558 84.8434 9.61993L83.8478 18.8269C83.8444 18.8589 83.848 18.8912 83.8584 18.9216C83.8688 18.952 83.8856 18.9798 83.9077 19.003C83.9299 19.0263 83.9568 19.0445 83.9866 19.0563C84.0165 19.0682 84.0486 19.0734 84.0806 19.0716H85.1109C85.1794 19.0725 85.2458 19.0484 85.2979 19.0038C85.3499 18.9593 85.3839 18.8973 85.3935 18.8295L86.5233 8.34671C86.5286 8.29604 86.5228 8.24482 86.5061 8.19666C86.4895 8.14851 86.4624 8.10461 86.4269 8.06806C86.3914 8.03151 86.3483 8.00321 86.3007 7.98517C86.253 7.96713 86.202 7.95978 86.1512 7.96365ZM82.6211 22.7667H85.6224C85.6527 22.7677 85.6825 22.7747 85.7102 22.7872C85.7378 22.7998 85.7627 22.8176 85.7834 22.8398C85.8041 22.862 85.8202 22.8881 85.8308 22.9165C85.8414 22.9449 85.8462 22.9752 85.8451 23.0055L85.7346 24.0534C85.7278 24.1238 85.6957 24.1892 85.6441 24.2376C85.5925 24.2859 85.5251 24.3137 85.4544 24.3158H81.4095C81.3346 24.3165 81.2604 24.3011 81.192 24.2706C81.1235 24.24 81.0624 24.1952 81.0128 24.139C80.9632 24.0829 80.9263 24.0167 80.9044 23.945C80.8826 23.8733 80.8765 23.7978 80.8864 23.7235L81.3024 19.7427C80.9097 20.5239 80.4496 21.2692 79.927 21.9702C79.3494 22.6888 78.7224 23.3663 78.0505 23.9978C77.8084 24.2019 77.5013 24.3125 77.1857 24.3099H75.5682C75.5381 24.3084 75.5093 24.2974 75.4859 24.2783C75.4625 24.2593 75.4458 24.2334 75.4382 24.2042C75.4306 24.175 75.4325 24.1442 75.4436 24.1162C75.4546 24.0882 75.4744 24.0644 75.4999 24.0484C77.2456 22.6748 78.8732 21.1256 79.8663 19.1842C80.3428 18.1869 80.6341 17.1114 80.7261 16.01C80.7286 16.0024 81.2349 11.3921 81.2349 11.3921C81.2406 11.3268 81.2706 11.266 81.3191 11.2217C81.3675 11.1775 81.4308 11.1531 81.4964 11.1534H82.5764C82.6083 11.1528 82.6399 11.159 82.6692 11.1717C82.6985 11.1844 82.7246 11.2032 82.746 11.2269C82.7674 11.2505 82.7834 11.2785 82.793 11.3089C82.8026 11.3393 82.8056 11.3715 82.8017 11.4031L82.2938 16.01C82.2161 16.7061 82.0904 17.3946 81.9158 18.0729H82.5815C82.6373 18.072 82.6927 18.0829 82.744 18.1051C82.7952 18.1273 82.8411 18.1602 82.8786 18.2016C82.9161 18.243 82.9443 18.2919 82.9613 18.3451C82.9783 18.3983 82.9837 18.4545 82.9772 18.51L82.5452 22.6823C82.5436 22.6931 82.5443 22.704 82.5474 22.7144C82.5506 22.7248 82.556 22.7344 82.5632 22.7425C82.5705 22.7506 82.5794 22.7569 82.5895 22.7611C82.5995 22.7653 82.6103 22.7672 82.6211 22.7667ZM55.6971 8.37067L68.3483 7.84585V7.84501C68.3763 7.84085 68.4049 7.84297 68.432 7.85121C68.4591 7.85945 68.4841 7.8736 68.5051 7.89265C68.5261 7.9117 68.5426 7.93517 68.5534 7.96136C68.5642 7.98756 68.5691 8.01583 68.5676 8.04414L68.458 9.16632C68.4497 9.22023 68.4235 9.26977 68.3835 9.30685C68.3435 9.34393 68.2921 9.36637 68.2377 9.37051L66.9122 9.44138C66.84 9.50391 66.8459 9.97618 66.8483 10.1671C66.8487 10.1926 66.8489 10.2131 66.8489 10.2269C66.8278 10.5104 66.8093 10.7939 66.7915 11.0791C66.7561 11.6469 66.7308 12.2148 66.7156 12.7826C66.6789 13.918 66.6789 15.0543 66.7156 16.1897C66.7721 18.7236 67.0719 21.2462 67.6108 23.7227C67.6775 24.0079 67.567 24.315 67.2396 24.315H66.3849C66.2818 24.3206 66.18 24.2905 66.0966 24.2298C66.0131 24.1691 65.9531 24.0815 65.9267 23.9817C65.0855 19.4558 64.9674 14.9004 65.2998 10.3164C65.3107 10.1555 65.3224 9.99889 65.334 9.84429C65.3422 9.73459 65.3503 9.62588 65.358 9.51732L61.4498 9.67173L60.7292 9.70379C60.2053 14.064 59.4275 18.39 58.3996 22.6596C58.3965 22.6712 58.396 22.6833 58.3981 22.6952C58.4003 22.707 58.4052 22.7182 58.4123 22.7279C58.4196 22.7377 58.4292 22.7457 58.4402 22.7511C58.4512 22.7565 58.4633 22.7593 58.4755 22.7591H61.924C61.9395 22.7591 61.9548 22.7558 61.9691 22.7496C61.9833 22.7434 61.9961 22.7343 62.0066 22.7228C62.0173 22.7117 62.0255 22.6984 62.0307 22.6839C62.0359 22.6693 62.0381 22.6539 62.037 22.6385L61.6911 17.5903C61.6884 17.5542 61.6932 17.518 61.7052 17.4838C61.7172 17.4496 61.7361 17.4183 61.7607 17.3918C61.7853 17.3653 61.8151 17.3441 61.8483 17.3296C61.8815 17.3152 61.9173 17.3077 61.9535 17.3077H63.0023C63.0695 17.3076 63.1342 17.3334 63.1829 17.3797C63.2316 17.4261 63.2606 17.4894 63.2638 17.5566L63.6958 23.9041C63.6988 23.957 63.691 24.0099 63.6728 24.0596C63.6547 24.1094 63.6266 24.1549 63.5903 24.1934C63.554 24.2319 63.5102 24.2627 63.4616 24.2837C63.413 24.3048 63.3607 24.3157 63.3077 24.3158H57.0471C56.9631 24.3152 56.8805 24.2949 56.8058 24.2565C56.7311 24.2182 56.6665 24.1629 56.617 24.095C56.5676 24.0272 56.5347 23.9487 56.521 23.8659C56.5073 23.7831 56.5133 23.6982 56.5383 23.6181L56.6252 23.3565C56.6539 23.2721 58.5439 15.2734 59.1649 9.7696L56.4624 9.88267L56.297 11.1744C56.2059 12.0579 56.0455 13.2585 55.87 14.3199C55.8501 14.4406 55.8302 14.5617 55.8103 14.6833C55.6546 15.6316 55.4941 16.6094 55.26 17.619C54.9951 18.7598 54.693 19.7444 54.3235 20.9088C53.9945 21.9557 53.6141 22.9858 53.1835 23.9952C53.1278 24.0937 53.0466 24.1754 52.9485 24.2318C52.8504 24.2882 52.739 24.3172 52.6258 24.3158H51.9913C51.9214 24.3206 51.8515 24.3075 51.7881 24.2775C51.7248 24.2476 51.6701 24.202 51.6294 24.145C51.5887 24.0879 51.5633 24.0214 51.5556 23.9518C51.5479 23.8821 51.5582 23.8117 51.5855 23.7472C51.981 22.8698 52.3369 21.9751 52.652 21.0657C53.0452 19.9283 53.3726 18.9479 53.6712 17.797C53.9585 16.6809 54.2076 15.5552 54.418 14.422C54.6145 13.342 54.7709 12.2551 54.8871 11.1635L55.1259 8.89379C55.1468 8.75439 55.215 8.62641 55.319 8.5312C55.4229 8.436 55.5564 8.37933 55.6971 8.37067Z" fill="black"/>
<defs>
<linearGradient id="paint0_linear_801:12630" x1="13.718" y1="2.55713" x2="13.718" y2="29.5571" gradientUnits="userSpaceOnUse">
<stop stop-color="#FA5050"/>
<stop offset="1" stop-color="#FB0414"/>
</linearGradient>
</defs>
</svg>
