<svg width="110" height="34" viewBox="0 0 110 34" fill="none" xmlns="http://www.w3.org/2000/svg">
<g clip-path="url(#clip0)">
<path d="M62.4805 26.0798H61.1384C60.9351 26.0798 60.7724 25.9164 60.7724 25.7121V10.5137C60.7724 10.3094 60.9351 10.146 61.1384 10.146H62.4805C62.6838 10.146 62.8465 10.3094 62.8465 10.5137V25.7121C62.8058 25.9164 62.6431 26.0798 62.4805 26.0798Z" fill="#BCBCBD"/>
<path d="M56.2178 26.4884H54.8758C54.6724 26.4884 54.5098 26.3249 54.5098 26.1207V12.393C54.5098 12.1887 54.6724 12.0253 54.8758 12.0253H56.2178C56.4212 12.0253 56.5838 12.1887 56.5838 12.393V26.1207C56.5838 26.3249 56.4212 26.4884 56.2178 26.4884Z" fill="#BCBCBD"/>
<path d="M68.7028 26.4884H67.3607C67.1574 26.4884 66.9947 26.3249 66.9947 26.1207V12.393C66.9947 12.1887 67.1574 12.0253 67.3607 12.0253H68.7028C68.9061 12.0253 69.0688 12.1887 69.0688 12.393V26.1207C69.0688 26.3249 68.9061 26.4884 68.7028 26.4884Z" fill="#BCBCBD"/>
<path d="M54.8353 25.7939V24.4048H68.703V25.7939C68.703 26.1616 68.4183 26.4476 68.0523 26.4476H55.5266C55.1606 26.4885 54.8353 26.1616 54.8353 25.7939Z" fill="#BCBCBD"/>
<path d="M39.2997 12.3115C39.3403 13.1287 39.4623 15.008 39.8283 17.9905C39.8283 18.1131 39.747 18.1948 39.625 18.1948H37.6729C37.5916 18.1948 37.5103 18.1131 37.4696 18.0314C37.1036 15.0489 36.9816 13.1695 36.9409 12.3115C36.9409 12.189 37.0223 12.1072 37.1443 12.1072H39.0963C39.2183 12.1072 39.2997 12.189 39.2997 12.3115Z" fill="#BCBCBD"/>
<path d="M48.6533 12.3115C48.6126 13.1287 48.5313 15.008 48.1246 17.9497C48.1246 18.0722 48.2059 18.1539 48.3279 18.1539H50.28C50.3613 18.1539 50.4427 18.0722 50.4833 17.9905C50.8494 15.008 50.9714 13.1695 51.012 12.3115C51.012 12.189 50.9307 12.1072 50.8087 12.1072H48.8566C48.7346 12.1072 48.6533 12.189 48.6533 12.3115Z" fill="#BCBCBD"/>
<path d="M42.9189 16.3574C43.0002 21.0967 38.8928 24.2835 36.4527 24.4469C36.3714 24.4469 36.29 24.5286 36.29 24.6512V26.3672C36.29 26.4897 36.3714 26.5714 36.4934 26.5714C38.3234 26.4489 40.3975 25.4683 41.9429 23.9567C43.3663 22.5676 45.0336 20.157 45.0336 16.3983V10.2699C45.0336 10.1473 44.9523 10.0656 44.8303 10.0656H43.1223C43.0002 10.0656 42.9189 10.1473 42.9189 10.2699V16.3574Z" fill="#BCBCBD"/>
<path d="M45.0338 16.3563C44.9525 21.0956 49.0599 24.2823 51.5 24.4458C51.5813 24.4458 51.6627 24.5275 51.6627 24.6501V26.366C51.6627 26.4886 51.5813 26.5703 51.4593 26.5703C49.6293 26.4477 47.5552 25.4672 46.0098 23.9555C44.5864 22.5664 42.9191 20.1559 42.9191 16.3971V10.2687C42.9191 10.1462 43.0004 10.0645 43.1224 10.0645H44.8304C44.9525 10.0645 45.0338 10.1462 45.0338 10.2687V16.3563Z" fill="#BCBCBD"/>
<path d="M76.0631 15.253V13.9048C76.0631 13.7005 76.2257 13.537 76.4291 13.537H83.3833C83.5866 13.537 83.7493 13.7005 83.7493 13.9048V15.253C83.7493 15.4573 83.5866 15.6207 83.3833 15.6207H76.3884C76.2257 15.6207 76.0631 15.4573 76.0631 15.253Z" fill="#BCBCBD"/>
<path d="M76.0631 18.3988V17.0506C76.0631 16.8463 76.2257 16.6829 76.4291 16.6829H83.3833C83.5866 16.6829 83.7493 16.8463 83.7493 17.0506V18.3988C83.7493 18.6031 83.5866 18.7665 83.3833 18.7665H76.4291C76.2257 18.7665 76.0631 18.6031 76.0631 18.3988Z" fill="#BCBCBD"/>
<path d="M76.3882 16.6829H77.7302C77.9336 16.6829 78.0962 16.8463 78.0962 17.0506V23.5875C78.0962 23.7918 77.9336 23.9552 77.7302 23.9552H76.3882C76.1848 23.9552 76.0222 23.7918 76.0222 23.5875V17.0506C76.0628 16.8463 76.2255 16.6829 76.3882 16.6829Z" fill="#BCBCBD"/>
<path d="M82.0413 16.6829H83.3833C83.5866 16.6829 83.7493 16.8463 83.7493 17.0506L83.7494 23.5875C83.7494 23.7918 83.5867 23.9552 83.3834 23.9552H82.0413C81.838 23.9552 81.6753 23.7918 81.6753 23.5875V17.0506C81.6753 16.8463 81.838 16.6829 82.0413 16.6829Z" fill="#BCBCBD"/>
<path d="M76.0631 23.5876V22.2393C76.0631 22.035 76.2257 21.8716 76.4291 21.8716H83.3833C83.5866 21.8716 83.7493 22.035 83.7493 22.2393L83.7494 23.5875C83.7494 23.7918 83.5867 23.9552 83.3834 23.9552H76.3882C76.2255 23.9552 76.0631 23.7918 76.0631 23.5876Z" fill="#BCBCBD"/>
<path d="M74.3956 26.4884H73.0535C72.8502 26.4884 72.6875 26.325 72.6875 26.1207V10.7588C72.6875 10.5545 72.8502 10.3911 73.0535 10.3911H74.3956C74.5989 10.3911 74.7616 10.5545 74.7616 10.7588V26.1207C74.7209 26.325 74.5582 26.4884 74.3956 26.4884Z" fill="#BCBCBD"/>
<path d="M72.6875 12.1071V10.7588C72.6875 10.5545 72.8502 10.3911 73.0535 10.3911H86.7586C86.962 10.3911 87.1246 10.5545 87.1246 10.7588V12.1071C87.1246 12.3113 86.962 12.4748 86.7586 12.4748H73.0535C72.8502 12.4748 72.6875 12.3113 72.6875 12.1071Z" fill="#BCBCBD"/>
<path d="M87.1245 10.5954C87.1245 10.4728 87.0431 10.3911 86.9211 10.3911H85.2131C85.0911 10.3911 85.0097 10.4728 85.0097 10.5954V24.4047H84.3591C84.2371 24.4047 84.1557 24.4864 84.1151 24.609L83.6677 26.325C83.627 26.4067 83.7084 26.4884 83.7897 26.4884H86.3518C86.7585 26.4884 87.0838 26.1615 87.0838 25.753V10.5954H87.1245Z" fill="#BCBCBD"/>
<path d="M95.0552 13.251V11.9028C95.0552 11.6985 95.2179 11.5351 95.4212 11.5351H104.612C104.815 11.5351 104.978 11.6985 104.978 11.9028V13.251C104.978 13.4553 104.815 13.6187 104.612 13.6187H95.4212C95.2179 13.6187 95.0552 13.4553 95.0552 13.251Z" fill="#BCBCBD"/>
<path d="M94.8519 16.7238V15.3756C94.8519 15.1713 95.0145 15.0078 95.2179 15.0078H104.856C105.059 15.0078 105.222 15.1713 105.222 15.3756V16.7238C105.222 16.9281 105.059 17.0915 104.856 17.0915H95.2179C95.0145 17.0915 94.8519 16.9281 94.8519 16.7238Z" fill="#BCBCBD"/>
<path d="M92.1677 13.6187H93.8758V26.1206C93.8758 26.3249 93.7131 26.4883 93.5098 26.4883H92.1677C91.9644 26.4883 91.8017 26.3249 91.8017 26.1206V13.9864C91.8017 13.7821 91.9644 13.6187 92.1677 13.6187Z" fill="#BCBCBD"/>
<path d="M102.701 26.2023L98.5526 22.1576C98.4713 22.0759 98.3086 21.9942 98.1866 21.9942H96.1939C96.0312 21.9942 95.9499 22.1984 96.0719 22.2802L100.22 26.3249C100.301 26.4066 100.464 26.4883 100.586 26.4883H102.579C102.741 26.4883 102.823 26.3249 102.701 26.2023Z" fill="#BCBCBD"/>
<path d="M104.612 18.5215H98.4303C98.5523 17.8678 99.7724 11.4943 99.9757 10.2686C100.016 10.146 99.8944 10.0643 99.813 10.0643H98.105C98.0236 10.0643 97.9423 10.1052 97.9423 10.2277L96.0309 20.36C95.9903 20.4826 96.1123 20.6052 96.2343 20.6052H102.456L99.813 24.0371L101.318 25.5079L104.937 20.646C104.978 20.6052 104.978 20.5235 104.978 20.4826V18.8484C104.978 18.6849 104.815 18.5215 104.612 18.5215Z" fill="#BCBCBD"/>
<path d="M92.2491 10.2277C92.2084 11.1674 91.9644 14.395 90.0124 16.9689C89.9717 17.0098 89.9717 17.0506 89.9717 17.1324V19.8697C89.9717 19.9923 90.0937 20.0331 90.175 19.9514C93.9571 16.6829 94.3638 11.6168 94.4045 10.2685C94.4045 10.146 94.3232 10.0643 94.2012 10.0643H92.4931C92.3711 10.0234 92.2491 10.146 92.2491 10.2277Z" fill="#BCBCBD"/>
<path fill-rule="evenodd" clip-rule="evenodd" d="M14.6554 8.67359L21.6909 24.9343H6.7658C4.77307 24.9343 3.43103 22.8915 4.24439 21.053L9.61255 8.67359C10.5479 6.42651 13.72 6.42651 14.6554 8.67359ZM11.849 21.9532H10.995C10.873 21.9532 10.751 21.8307 10.751 21.7081V13.2918C10.751 13.1692 10.873 13.0466 10.995 13.0466H11.849C11.971 13.0466 12.093 13.1692 12.093 13.2918V21.7081C12.1337 21.8307 12.0117 21.9532 11.849 21.9532ZM14.1669 21.9532H15.0209C15.1429 21.9532 15.2649 21.8307 15.2649 21.7081V16.6011C15.2649 16.4785 15.1429 16.356 15.0209 16.356H14.1669C14.0449 16.356 13.9229 16.4785 13.9229 16.6011V21.7081C13.9229 21.8307 14.0449 21.9532 14.1669 21.9532Z" fill="#BCBCBD"/>
<path fill-rule="evenodd" clip-rule="evenodd" d="M23.3012 26.3247L16.2656 10.0232H31.1908C33.1835 10.0232 34.5255 12.066 33.7122 13.9045L28.3847 26.3247C27.4086 28.531 24.2772 28.531 23.3012 26.3247ZM26.1073 13.0466H26.9613C27.0833 13.0466 27.2053 13.1692 27.2053 13.2918V21.7081C27.2053 21.8307 27.0833 21.9532 26.9613 21.9532H26.1073C25.9853 21.9532 25.8633 21.8307 25.8633 21.7081V13.2918C25.8633 13.1692 25.9853 13.0466 26.1073 13.0466ZM23.8295 13.0466H22.9755C22.8128 13.0466 22.7314 13.1692 22.7314 13.2918V18.3988C22.7314 18.5213 22.8534 18.6439 22.9755 18.6439H23.8295C23.9515 18.6439 24.0735 18.5213 24.0735 18.3988V13.2918C24.0735 13.1692 23.9515 13.0466 23.8295 13.0466Z" fill="#BCBCBD"/>
</g>
<defs>
<clipPath id="clip0">
<rect width="101.182" height="21" fill="white" transform="translate(4 7)"/>
</clipPath>
</defs>
</svg>
