<svg width="110" height="34" viewBox="0 0 110 34" fill="none" xmlns="http://www.w3.org/2000/svg">
<path fill-rule="evenodd" clip-rule="evenodd" d="M78.9443 9.48096V10.6678H82.7492V12.4481H78.9443V14.2283H76.4665V12.4481H70.6366V14.2283H68.1587V12.4481H64.3537V11.2284C64.3537 10.9188 64.6047 10.6678 64.9143 10.6678H68.1587V10.0416C68.1587 9.73195 68.4097 9.48096 68.7193 9.48096H70.6366V10.6678H76.4665V10.0416C76.4665 9.73195 76.7174 9.48096 77.027 9.48096H78.9443ZM64.947 18.0213V16.8016C64.947 16.492 65.198 16.241 65.5077 16.241H82.1559V24.6009H75.035V23.3812C75.035 23.0716 75.2859 22.8207 75.5955 22.8207H79.6781V18.0213H72.4168V26.3812H69.9389V18.0213H64.947ZM101.738 10.6678H86.277C85.9673 10.6678 85.7164 10.9188 85.7164 11.2285V12.4481H101.738V10.6678ZM59.5021 12.4481H47.2489V14.2283H44.7711V11.2284C44.7711 10.9188 45.0221 10.6678 45.3318 10.6678H52.1366V10.0415C52.1366 9.73204 52.3876 9.48104 52.6972 9.48104H54.6144V10.6678H61.98V14.2283H59.5021V12.4481ZM55.4525 18.9452V18.2929H55.4524L57.8261 15.5899V14.2283H49.4856C49.176 14.2283 48.925 14.4793 48.925 14.7889V16.0085H54.5661L52.9747 17.8207V18.9452H44.7384C44.4287 18.9452 44.1777 19.1962 44.1777 19.5058V20.7254H52.9747V24.6008H49.4856C49.176 24.6008 48.925 24.8518 48.925 25.1615V26.3811H55.4525V20.7254H62.5734V18.9452H55.4525ZM102.925 16.241V18.0213H91.3865L89.3826 24.6008H98.0743L96.7392 19.8015H99.3969L100.732 24.6008V26.3811H86.7227V24.6008L88.7266 18.0213H84.5295V16.8016C84.5295 16.492 84.7805 16.241 85.0901 16.241H102.925Z" fill="white" fill-opacity="0.9"/>
<path fill-rule="evenodd" clip-rule="evenodd" d="M26.6831 15.5606C26.3738 15.2214 26.1856 14.7699 26.1856 14.2734C26.1856 11.8168 24.1881 9.81848 21.7327 9.81848C19.2772 9.81848 17.2798 11.8168 17.2798 14.2734C17.2798 14.8718 17.0063 15.4049 16.5772 15.7547C16.2359 16.0755 15.7762 16.2717 15.2697 16.2717C12.8142 16.2717 10.8168 18.2701 10.8168 20.7266C10.8168 23.1832 12.8142 25.1815 15.2697 25.1815H19.977C21.033 25.1815 21.8854 26.0343 21.8854 27.0907C21.8854 28.1472 21.033 29 19.9897 29H15.2697C10.7023 29 7 25.2833 7 20.7266C7 16.7315 9.85569 13.3821 13.6292 12.6172C14.3982 8.84147 17.7434 6 21.7327 6C25.7335 6 29.0705 8.85172 29.8368 12.6218C33.6054 13.3954 36.44 16.7394 36.44 20.7266C36.44 25.2833 32.725 29 28.1703 29C23.6029 29 19.9007 25.2833 19.9007 20.7266C19.9007 19.6702 20.7531 18.8174 21.8091 18.8174C22.865 18.8174 23.7174 19.6702 23.7174 20.7266C23.7174 23.1832 25.7149 25.1815 28.1703 25.1815C30.6258 25.1815 32.6232 23.1832 32.6232 20.7266C32.6232 18.2701 30.6258 16.2717 28.1703 16.2717C27.5683 16.2717 27.0325 15.9946 26.6831 15.5606Z" fill="url(#paint0_linear)"/>
<defs>
<linearGradient id="paint0_linear" x1="28.8402" y1="9.45" x2="8.1407" y2="28.9907" gradientUnits="userSpaceOnUse">
<stop stop-color="#5C81FF"/>
<stop offset="1" stop-color="#3370FF"/>
</linearGradient>
</defs>
</svg>
