<svg width="110" height="34" viewBox="0 0 122 32" fill="none" xmlns="http://www.w3.org/2000/svg">
<g clip-path="url(#clip0_802:12852)">
<path d="M4.60126 2H23.0324C25.6637 2 27.8173 4.1527 27.8173 6.78485V25.216C27.8173 27.8473 25.6646 30.0009 23.0324 30.0009H4.60126C1.96911 30 -0.183594 27.8473 -0.183594 25.216V6.78485C-0.183594 4.1527 1.96911 2 4.60126 2Z" fill="#FF6880"/>
<path d="M14.0538 9.27598L9.87547 10.3927C5.99868 11.4296 3.67419 15.4492 4.71109 19.326L6.31685 25.3458C6.46411 25.8963 7.02419 26.2276 7.57727 26.0891C8.96565 25.7411 11.1254 25.1951 11.263 25.1276L17.8236 23.3737C21.7004 22.3368 24.0249 18.3171 22.988 14.4404C21.9511 10.5636 17.9314 8.23995 14.0538 9.27598Z" fill="white"/>
<path d="M7.32742 26.6667C6.62534 26.6667 5.9776 26.1943 5.78915 25.4878L4.18339 19.4671C3.06673 15.2897 5.55688 10.9825 9.73431 9.86585L13.9126 8.74918C15.9286 8.21013 18.0401 8.49236 19.8588 9.54329C21.6776 10.5942 22.9757 12.2841 23.5147 14.3001C24.6314 18.4775 22.1413 22.7856 17.9638 23.9022L11.433 25.6482C11.2594 25.7105 10.6468 25.884 7.70958 26.6203C7.58249 26.6518 7.45364 26.6667 7.32742 26.6667ZM14.1949 9.80362L10.0165 10.9203C6.42024 11.8818 4.2763 15.5894 5.23783 19.1857L6.84359 25.2065C6.91284 25.4668 7.18192 25.6254 7.444 25.5606C10.3873 24.8226 10.9474 24.6613 11.0473 24.6262C11.071 24.6157 11.0964 24.6078 11.1209 24.6008L17.6816 22.8469C19.4162 22.3832 20.8694 21.2657 21.7749 19.6994C22.6803 18.1331 22.9231 16.3161 22.4603 14.5815C21.9966 12.8468 20.8791 11.3936 19.3128 10.4882C17.7473 9.58274 15.9286 9.33994 14.1949 9.80362ZM11.0421 24.6289C11.0333 24.6324 11.0263 24.6359 11.021 24.6394C11.028 24.6359 11.035 24.6324 11.0421 24.6289Z" fill="black"/>
<path d="M11.1985 14.882L11.1801 14.8872C9.16849 15.4245 7.08328 14.2193 6.54599 12.2078L6.52758 12.1376C5.99028 10.1261 7.19548 8.04084 9.20706 7.50354L9.22547 7.49828C11.2371 6.96098 13.3223 8.16618 13.8596 10.1778L13.878 10.2479C14.4161 12.2586 13.2101 14.3438 11.1985 14.882Z" fill="white"/>
<path d="M10.2109 15.5103C9.46585 15.5103 8.72958 15.314 8.06432 14.9292C7.06948 14.3542 6.35864 13.4295 6.06413 12.326L6.05011 12.2743C5.75472 11.1708 5.90899 10.0146 6.48485 9.01981C7.05984 8.02497 7.98455 7.31413 9.08807 7.01962C11.3722 6.40782 13.7309 7.77079 14.3418 10.0567L14.3559 10.1084C14.9668 12.3952 13.6047 14.7522 11.3188 15.3631C10.9524 15.4621 10.5808 15.5103 10.2109 15.5103ZM11.1899 14.8836H11.1926H11.1899ZM10.1951 7.86808C9.91374 7.86808 9.628 7.90402 9.34401 7.98027C8.49731 8.20641 7.78646 8.75247 7.3447 9.51766C6.90207 10.2829 6.78374 11.1708 7.00988 12.0175L7.0239 12.0692C7.25004 12.9168 7.7961 13.6267 8.56129 14.0694C9.32648 14.512 10.2144 14.6303 11.0611 14.4042C12.8176 13.9344 13.865 12.1235 13.3952 10.367L13.3812 10.3153C12.9885 8.84188 11.6519 7.86808 10.1951 7.86808Z" fill="black"/>
<path d="M19.1825 12.7476L18.8784 12.8291C16.9457 13.3454 14.942 12.1875 14.4257 10.2548L14.3302 9.89806C13.8139 7.96536 14.9718 5.96167 16.9045 5.4454L17.2086 5.36389C19.1413 4.84763 21.145 6.00549 21.6613 7.93819L21.7568 8.29493C22.274 10.2267 21.1152 12.2304 19.1825 12.7476Z" fill="white"/>
<path d="M18.0509 13.4137C16.1551 13.4137 14.4169 12.1463 13.9042 10.2303L13.8902 10.1785C13.2792 7.89174 14.6413 5.53481 16.9273 4.92389C18.0308 4.6285 19.186 4.78277 20.1808 5.35863C21.1757 5.93362 21.8865 6.85834 22.181 7.96186L22.1951 8.01357C22.4904 9.1171 22.3362 10.2732 21.7603 11.268C21.1853 12.2629 20.2606 12.9737 19.1571 13.2682C18.789 13.3664 18.4173 13.4137 18.0509 13.4137ZM18.0343 5.77234C17.7503 5.77234 17.4654 5.80916 17.185 5.88454C15.4284 6.35435 14.381 8.16521 14.8508 9.92173L14.8648 9.97344C15.3347 11.7308 17.1464 12.7774 18.9029 12.3085C19.7496 12.0823 20.4596 11.5363 20.9022 10.7711C21.3448 10.0059 21.4632 9.11797 21.237 8.27127L21.223 8.21955C20.9969 7.37197 20.4508 6.662 19.6856 6.21936C19.1729 5.9231 18.6066 5.77234 18.0343 5.77234Z" fill="black"/>
<path d="M18.9805 10.9238C18.8788 10.9238 18.7754 10.9019 18.6772 10.8554L16.6323 9.89213C16.4325 9.79835 16.2878 9.61779 16.2396 9.40217C16.1914 9.18655 16.2458 8.96128 16.386 8.79212L17.7332 7.16532C17.9839 6.86205 18.4344 6.8191 18.7377 7.07066C19.0409 7.32222 19.0839 7.77186 18.8323 8.07514L18.0715 8.99371L19.2846 9.5652C19.6414 9.73261 19.7939 10.1577 19.6265 10.5145C19.5046 10.773 19.2478 10.9238 18.9805 10.9238Z" fill="black"/>
<path d="M9.95735 13.3446C9.81711 13.3446 9.67424 13.3034 9.55065 13.2166C9.22722 12.9913 9.14746 12.5469 9.37272 12.2235L10.1388 11.1226L9.02124 10.7063C8.65223 10.5687 8.46466 10.1576 8.60227 9.78858C8.73988 9.41957 9.15096 9.23199 9.51997 9.36961L11.4991 10.1076C11.706 10.1848 11.8646 10.353 11.9304 10.5634C11.9961 10.7738 11.961 11.0025 11.8348 11.184L10.5429 13.0395C10.4044 13.2376 10.1826 13.3446 9.95735 13.3446Z" fill="black"/>
<path d="M15.7452 18.8211C14.6022 18.8211 13.5539 18.0577 13.2445 16.9025C13.1639 16.6027 13.3418 16.2942 13.6424 16.2135C13.9413 16.1329 14.2516 16.3108 14.3314 16.6115C14.54 17.3907 15.3437 17.8543 16.1238 17.6466C16.5016 17.5458 16.8172 17.303 17.0126 16.9647C17.2081 16.6264 17.2598 16.2319 17.159 15.8542C17.0784 15.5544 17.2563 15.2459 17.5569 15.1652C17.8558 15.0837 18.1652 15.2625 18.2459 15.5632C18.4247 16.2311 18.3335 16.9288 17.9873 17.5274C17.6419 18.1261 17.0836 18.5547 16.4157 18.7335C16.1913 18.7922 15.9661 18.8211 15.7452 18.8211Z" fill="black"/>
<path d="M77.3191 21.5294C76.8957 21.3497 76.4075 21.5487 76.2287 21.9712C76.035 22.4296 75.588 22.7258 75.0901 22.7258H74.3758V20.1103H74.5326C76.34 20.1103 77.8108 18.6396 77.8108 16.8322V12.7267C77.8108 10.9184 76.34 9.44852 74.5326 9.44852H74.3758V8.43703C74.3758 7.97774 74.0032 7.60522 73.5439 7.60522C73.0847 7.60522 72.7121 7.97774 72.7121 8.43703V9.44764H72.5552C70.747 9.44764 69.2771 10.9184 69.2771 12.7258V16.8313C69.2771 18.6396 70.7479 20.1095 72.5552 20.1095H72.7121V22.725H70.1107C69.6514 22.725 69.2789 23.0975 69.2789 23.5568C69.2789 24.0161 69.6514 24.3886 70.1107 24.3886H75.0901C76.2576 24.3886 77.3059 23.6935 77.7608 22.6189C77.9396 22.1964 77.7415 21.7082 77.3191 21.5294ZM74.3766 11.1112H74.5335C75.4241 11.1112 76.148 11.8352 76.148 12.7258V16.8313C76.148 17.7219 75.4241 18.4459 74.5335 18.4459H74.3766V11.1112ZM72.7121 18.4467H72.5552C71.6647 18.4467 70.9407 17.7227 70.9407 16.8322V12.7267C70.9407 11.8361 71.6647 11.1121 72.5552 11.1121H72.7121V18.4467Z" fill="white"/>
<path d="M85.2523 9.92264C85.7116 9.92264 86.0841 9.55013 86.0841 9.09084C86.0841 8.63155 85.7116 8.25903 85.2523 8.25903H77.9878C77.5285 8.25903 77.156 8.63155 77.156 9.09084C77.156 9.55013 77.5285 9.92264 77.9878 9.92264H80.2317V23.5628C80.2317 24.0221 80.6042 24.3946 81.0635 24.3946C81.5228 24.3946 81.8953 24.0221 81.8953 23.5628V16.5446L84.6966 19.0602C84.8552 19.2031 85.0542 19.2732 85.2523 19.2732C85.4802 19.2732 85.7072 19.1803 85.872 18.9971C86.1788 18.6553 86.1507 18.1294 85.8089 17.8217L81.8961 14.3078V9.92264H85.2523Z" fill="white"/>
<path d="M46.2206 10.5774C46.9735 10.5774 47.6204 11.0884 47.7922 11.8203C47.8973 12.2673 48.347 12.5443 48.7923 12.44C49.2393 12.3348 49.5171 11.8869 49.4111 11.4399C49.0614 9.95334 47.7492 8.91468 46.2197 8.91468H42.7259V8.43874C42.7259 7.97945 42.3534 7.60693 41.8941 7.60693C41.4348 7.60693 41.0623 7.97945 41.0623 8.43874V8.91468H37.3573C35.6227 8.91468 34.1852 10.2715 34.0844 12.0035L33.4174 23.512C33.3911 23.9704 33.7408 24.364 34.2001 24.3903C34.2168 24.3912 34.2326 24.392 34.2492 24.392C34.6866 24.392 35.053 24.0502 35.0793 23.6084L35.5482 15.5139H46.1715C46.5651 15.5139 46.9086 15.7059 47.1137 16.0416C47.3197 16.3773 47.3346 16.7699 47.1558 17.1214C46.8306 17.7595 46.0374 18.5615 45.1285 19.3784L42.9977 17.4913C42.7084 17.2354 42.4262 17.0417 42.1334 16.8979C41.9941 16.8295 41.8494 16.7699 41.7031 16.7182C41.285 16.5718 40.8467 16.4982 40.4014 16.4982C39.3111 16.4982 38.2961 16.933 37.544 17.7218C36.792 18.5107 36.4054 19.5458 36.4571 20.6371C36.5562 22.7451 38.3276 24.3956 40.4891 24.3956H40.539C41.4603 24.3885 42.3525 24.0292 43.052 23.3832C43.5209 22.9502 44.074 22.4804 44.6595 21.9834C44.8129 21.8528 44.9663 21.7231 45.1197 21.5916L48.0499 24.1861C48.2085 24.3263 48.4048 24.3947 48.6012 24.3947C48.8308 24.3947 49.0596 24.3 49.2244 24.1142C49.5285 23.7706 49.497 23.2447 49.1525 22.9397L46.3819 20.4863C47.3679 19.5888 48.2164 18.7018 48.638 17.8752C49.0789 17.0101 49.0394 15.9986 48.5319 15.1712C48.0244 14.3438 47.1418 13.8485 46.1706 13.8485H42.7259V10.5774H46.2206ZM41.0632 13.8485H35.6455L35.7472 12.0982C35.7963 11.2453 36.5045 10.5765 37.3591 10.5765H41.0641V13.8485H41.0632ZM43.5832 20.7142C42.9836 21.2226 42.4174 21.7029 41.9239 22.1596C41.5234 22.5295 41.0404 22.7267 40.5329 22.7311H40.4891C39.2383 22.7311 38.1751 21.7564 38.119 20.5573C38.0892 19.9245 38.3127 19.325 38.7475 18.8692C39.1831 18.4125 39.7703 18.161 40.4014 18.161C40.66 18.161 40.9133 18.2039 41.1552 18.2881C41.2403 18.3179 41.3235 18.352 41.4033 18.3915C41.5593 18.4677 41.7197 18.5799 41.895 18.7351L43.8619 20.4767C43.769 20.5565 43.6752 20.6353 43.5832 20.7142Z" fill="white"/>
<path d="M64.1488 10.5776C64.9018 10.5776 65.5486 11.0886 65.7204 11.8204C65.8256 12.2675 66.2717 12.5444 66.7205 12.4393C67.1675 12.3341 67.4445 11.8862 67.3393 11.4392C66.9896 9.95261 65.6775 8.91395 64.148 8.91395H60.6551V8.43801C60.6551 7.97872 60.2826 7.6062 59.8233 7.6062C59.364 7.6062 58.9915 7.97872 58.9915 8.43801V8.91395H55.2865C53.5519 8.91395 52.1144 10.2708 52.0136 12.0028L51.3466 23.5113C51.3203 23.9697 51.67 24.3633 52.1293 24.3895C52.146 24.3904 52.1618 24.3913 52.1784 24.3913C52.6158 24.3913 52.9822 24.0495 53.0085 23.6077L53.4774 15.5132H64.1006C64.4942 15.5132 64.8378 15.7051 65.0429 16.0408C65.2489 16.3765 65.2638 16.7692 65.085 17.1207C64.7598 17.7588 63.9665 18.5608 63.0585 19.3768L60.9268 17.4897C60.6376 17.2337 60.3553 17.04 60.0626 16.8972C59.9232 16.8288 59.7786 16.7692 59.6322 16.7175C59.2141 16.5711 58.7759 16.4975 58.3297 16.4975C57.2394 16.4975 56.2252 16.9322 55.4723 17.7211C54.7203 18.5099 54.3337 19.5451 54.3854 20.6363C54.4845 22.7443 56.2559 24.3957 58.4174 24.3957H58.4673C59.4017 24.3887 60.2703 24.0389 60.9803 23.3833C61.4492 22.9503 62.0023 22.4805 62.5887 21.9835C62.7421 21.8538 62.8954 21.7232 63.0488 21.5926L65.979 24.1871C66.1376 24.3273 66.334 24.3957 66.5303 24.3957C66.76 24.3957 66.9887 24.301 67.1535 24.1152C67.4577 23.7716 67.4261 23.2457 67.0816 22.9407L64.311 20.4873C65.2971 19.5898 66.1455 18.7028 66.5662 17.8762C67.0071 17.0111 66.9677 15.9996 66.4602 15.1722C65.9527 14.3448 65.0701 13.8496 64.0989 13.8496H60.6542V10.5776H64.1488ZM58.9906 13.8487H53.5729L53.6746 12.0983C53.7237 11.2455 54.4319 10.5767 55.2865 10.5767H58.9915V13.8487H58.9906ZM61.5123 20.7135C60.9128 21.2227 60.3466 21.7031 59.8522 22.1597C59.4517 22.5296 58.9687 22.7268 58.4612 22.7312H58.4174C57.1666 22.7312 56.1034 21.7565 56.0473 20.5575C56.0175 19.9246 56.241 19.3251 56.6758 18.8693C57.1114 18.4126 57.6986 18.1611 58.3288 18.1611C58.5874 18.1611 58.8416 18.204 59.0826 18.2882C59.1677 18.318 59.2509 18.3522 59.3307 18.3916C59.4867 18.4679 59.6471 18.5801 59.8224 18.7352L61.7893 20.4768C61.6973 20.5566 61.6044 20.6355 61.5123 20.7135Z" fill="white"/>
<path d="M87.8572 23.7215C87.7625 23.7215 87.6687 23.7048 87.5785 23.6724C87.156 23.5181 86.9377 23.0501 87.092 22.6276L91.7226 9.92175C91.9478 9.1215 92.6087 8.5842 93.3704 8.57544H93.3835C94.1522 8.57544 94.8026 9.08557 95.041 9.8753L99.7671 22.6241C99.9231 23.0457 99.7075 23.5155 99.2859 23.6715C99.1947 23.7057 99.0992 23.7223 99.0028 23.7223C98.6636 23.7223 98.3559 23.5085 98.2376 23.1903L96.6845 18.9997H90.1484L88.6224 23.1859C88.5058 23.5059 88.1982 23.7215 87.8572 23.7215ZM90.7426 17.3686H96.0805L93.3888 10.1076L90.7426 17.3686Z" fill="white"/>
<path d="M120.222 9.83843C118.977 8.66391 117.206 8.57275 116.693 8.57275C116.63 8.57275 116.583 8.57363 116.548 8.57538H112.43C111.98 8.57538 111.615 8.94089 111.615 9.39053V22.9071C111.615 23.3568 111.98 23.7223 112.43 23.7223C112.88 23.7223 113.245 23.3568 113.245 22.9071V17.7515L113.384 17.7524C113.384 17.7524 116.751 17.7699 116.947 17.7699C117.671 17.7699 119.044 17.6297 120.106 16.691C121.031 15.8732 121.5 14.6732 121.5 13.1236C121.5 11.744 121.07 10.6387 120.222 9.83843ZM119.039 15.4586C118.396 16.0669 117.28 16.1326 116.83 16.1326C116.734 16.1326 116.679 16.1291 116.677 16.1291L113.245 16.1221V10.2057L116.602 10.2039L116.611 10.2048C116.613 10.2048 116.646 10.2031 116.704 10.2031C117.062 10.2031 118.295 10.2627 119.104 11.0252C119.619 11.5117 119.87 12.198 119.87 13.1236C119.87 14.1789 119.589 14.966 119.039 15.4586Z" fill="white"/>
<path d="M109.382 9.83843C108.137 8.66391 106.366 8.57275 105.853 8.57275C105.79 8.57275 105.742 8.57363 105.707 8.57538H101.59C101.14 8.57538 100.774 8.94089 100.774 9.39053V22.9071C100.774 23.3568 101.14 23.7223 101.59 23.7223C102.039 23.7223 102.405 23.3568 102.405 22.9071V17.7515L102.544 17.7524C102.544 17.7524 105.911 17.7699 106.106 17.7699C106.83 17.7699 108.204 17.6297 109.266 16.691C110.191 15.8732 110.66 14.6732 110.66 13.1236C110.66 11.744 110.23 10.6387 109.382 9.83843ZM108.198 15.4586C107.556 16.0669 106.439 16.1326 105.99 16.1326C105.894 16.1326 105.839 16.1291 105.837 16.1291L102.405 16.1221V10.2057L105.762 10.2039L105.77 10.2048C105.773 10.2048 105.806 10.2031 105.863 10.2031C106.222 10.2031 107.455 10.2627 108.263 11.0252C108.779 11.5117 109.029 12.198 109.029 13.1236C109.03 14.1789 108.749 14.966 108.198 15.4586Z" fill="white"/>
</g>
<defs>
<clipPath id="clip0_802:12852">
<rect width="122" height="32" fill="white"/>
</clipPath>
</defs>
</svg>
