<svg width="110" height="34" viewBox="0 0 107 33" fill="none" xmlns="http://www.w3.org/2000/svg">
<path d="M74.0609 11.8161V9.43036L68.6846 8.65991V11.0456L74.0609 11.8161Z" fill="#191919"/>
<path d="M68.6841 12.6943V15.0801L74.0604 15.8505V13.4648L68.6841 12.6943Z" fill="#191919"/>
<path d="M82.4622 17.5017H67.2837V19.6378H82.4622V17.5017Z" fill="#191919"/>
<path d="M48.0139 17.5017H34.4243V19.6378H48.0139V17.5017Z" fill="#191919"/>
<path d="M65.1457 8.65991H51.5562V10.796H65.1457V8.65991Z" fill="#191919"/>
<path d="M65.1457 22.321H51.5562V24.4572H65.1457V22.321Z" fill="#191919"/>
<path d="M61.6031 15.366H51.5562V17.5021H61.6031V15.366Z" fill="#191919"/>
<path d="M99.7737 17.5017H84.5952V19.6378H99.7737V17.5017Z" fill="#191919"/>
<path d="M98.9298 8.65991H87.8867V10.796H98.9298V8.65991Z" fill="#191919"/>
<path d="M47.7067 20.0363L48.014 19.6859V17.5066H45.5394V18.7499C44.829 19.5395 42.9209 21.6348 40.1367 24.4574H43.5905C46.1803 21.7716 47.6875 20.0603 47.7067 20.0363Z" fill="#191919"/>
<path d="M78.2613 8.12695H75.8443C75.7819 12.944 75.7147 15.6538 74.8459 17.5523C73.965 19.4772 72.0881 21.0109 68.3511 24.0639C68.1951 24.1911 68.0343 24.3231 67.8711 24.4575H71.6777C77.8821 19.2924 78.1269 18.1115 78.2613 8.12695Z" fill="#191919"/>
<path d="M80.1144 20.7061H77.1982L79.5408 24.4575H82.4593L80.1144 20.7061Z" fill="#191919"/>
<path d="M97.4484 20.7061H94.5322L96.8748 24.4575H99.7909L97.4484 20.7061Z" fill="#191919"/>
<path d="M89.8666 20.7061H86.9504L84.6055 24.4575H87.5216L89.8666 20.7061Z" fill="#191919"/>
<path d="M93.4052 16.2878H90.9307V24.4579H93.4052V16.2878Z" fill="#191919"/>
<path d="M33.1177 13.4966V16.288C38.3164 13.6574 41.3549 10.9957 42.999 7.59229H40.1645C38.782 9.76921 36.5427 11.6365 33.1177 13.4966Z" fill="#191919"/>
<path d="M42.4761 8.02612L40.4312 9.4158C42.3225 12.2 46.1123 14.5905 49.4197 16.2826V13.484C46.0787 11.6575 43.6569 9.76142 42.4761 8.02612Z" fill="#191919"/>
<path d="M39.2388 13.3713V15.7547L43.7222 16.3859V14.0026L39.2388 13.3713Z" fill="#191919"/>
<path d="M96.7063 8.65991V10.16C95.2974 11.2977 92.4557 13.201 84.5952 14.5234V16.8012C94.143 15.2435 97.3999 12.5169 98.9312 11.1441V8.65991H96.7063Z" fill="#191919"/>
<path d="M87.375 10.002C87.2694 9.92522 87.171 9.85081 87.075 9.77881L85.0181 11.0173C85.0181 11.0173 85.9349 11.7325 86.0357 11.8069C87.7158 13.055 90.7856 15.3327 99.7741 16.8016V14.5215C91.6088 13.1438 88.8799 11.1205 87.375 10.002Z" fill="#191919"/>
<path d="M85.0181 11.0197L87.0966 12.3854L89.5999 8.66035L87.3126 7.59229L85.0181 11.0197Z" fill="#191919"/>
<path d="M54.0307 8.65991H51.5562V24.4576H54.0307V8.65991Z" fill="#191919"/>
<path d="M65.1459 8.65991H62.6714V24.4576H65.1459V8.65991Z" fill="#191919"/>
<path d="M23.0495 30.0571H5.01007C2.26431 30.0571 0.0297852 27.8226 0.0297852 25.0768V7.03741C0.0297852 4.29166 2.26431 2.05713 5.01007 2.05713H23.0495C25.7953 2.05713 28.0298 4.29166 28.0298 7.03741V25.0768C28.0298 27.8226 25.7953 30.0571 23.0495 30.0571ZM5.01007 2.26834C2.37952 2.26834 0.240997 4.40686 0.240997 7.03741V25.0768C0.240997 27.7074 2.38192 29.8459 5.01007 29.8459H23.0495C25.68 29.8459 27.8186 27.7074 27.8186 25.0768V7.03741C27.8186 4.40686 25.6777 2.26834 23.0495 2.26834H5.01007Z" fill="#DDDDDD"/>
<path d="M23.0495 30.0571H5.01007C2.26431 30.0571 0.0297852 27.8226 0.0297852 25.0768V7.03741C0.0297852 4.29166 2.26431 2.05713 5.01007 2.05713H23.0495C25.7953 2.05713 28.0298 4.29166 28.0298 7.03741V25.0768C28.0298 27.8226 25.7953 30.0571 23.0495 30.0571Z" fill="white"/>
<path d="M28.0298 23.6156L0.0297852 25.0773V8.49953L28.0298 7.03784V23.6156Z" fill="#FF373C"/>
<path d="M7.65972 13.1773V11.4852L3.8291 11.1372V12.8317L7.65972 13.1773Z" fill="white"/>
<path d="M3.8291 14.0034V15.6979L7.65972 16.0459V14.3514L3.8291 14.0034Z" fill="white"/>
<path d="M13.6437 18.4233L2.83105 18.9874V17.4705L13.6437 16.9041V18.4233Z" fill="white"/>
<path d="M25.2159 17.8191L14.4033 18.3831V16.8662L25.2159 16.2998V17.8191Z" fill="white"/>
<path d="M24.6172 11.5693L16.7495 11.9798V10.4629L24.6172 10.05V11.5693Z" fill="white"/>
<path d="M10.65 10.4004L8.92673 10.4916C8.88113 13.9166 8.83553 15.8439 8.21629 17.2264C7.58985 18.6257 6.25298 19.7849 3.58883 22.0963C3.47842 22.1923 3.36321 22.2907 3.24561 22.3939L5.95776 22.2523C10.3788 18.3496 10.554 17.5024 10.65 10.4004Z" fill="white"/>
<path d="M11.9716 19.2686L9.89551 19.3766L11.5636 21.9567L13.6421 21.8463L11.9716 19.2686Z" fill="white"/>
<path d="M23.5605 18.6641L21.4819 18.7721L23.1524 21.3498L25.2285 21.2418L23.5605 18.6641Z" fill="white"/>
<path d="M18.1582 18.9448L16.0797 19.0552L14.4116 21.8082L16.4877 21.6978L18.1582 18.9448Z" fill="white"/>
<path d="M20.6792 21.479L18.9175 21.5702V15.7667L20.6792 15.6731V21.479Z" fill="white"/>
<path d="M23.0318 10.1341V11.1997C22.0286 12.059 20.0028 13.5182 14.4033 14.7519V16.372C21.2053 14.9103 23.5262 12.851 24.6159 11.8189V10.05L23.0318 10.1341Z" fill="white"/>
<path d="M16.3852 11.4347C16.3108 11.3843 16.2388 11.3339 16.1716 11.2883L14.7075 12.246C14.7075 12.246 15.3604 12.7188 15.4324 12.7692C16.63 13.5925 18.8166 15.0973 25.2201 15.8078V14.1877C19.3998 13.5085 17.4581 12.1716 16.3852 11.4347Z" fill="white"/>
<path d="M14.7036 12.2435L16.1845 13.1364L17.9678 10.3978L16.3381 9.72339L14.7036 12.2435Z" fill="white"/>
</svg>
