<svg width="110" height="34" viewBox="0 0 96 32" fill="none" xmlns="http://www.w3.org/2000/svg">
<path d="M49.4596 19.3448H53.5985V17.3301H43.874V19.3448H47.4351V23.6175H43.6072V25.6362H53.864V23.6175H49.4596V19.3448ZM93.7151 17.8395H86.3061C86.5099 17.2285 86.6118 16.79 86.652 16.5988H84.5698C84.4894 16.8916 84.3553 17.3208 84.1515 17.8395H78.2857V19.8542H83.1969C81.8838 22.1755 80.0399 24.1551 77.8151 25.6322H80.9364C82.8223 24.031 84.3634 22.0655 85.4668 19.8542H92.9937V23.6135H87.5128V25.6282H93.7151C94.431 25.6282 95.0156 25.048 95.0156 24.3314V19.1362C95.0142 18.7928 94.8767 18.4637 94.6331 18.2208C94.3895 17.978 94.0595 17.8409 93.7151 17.8395ZM63.3055 7.10557H58.4319C58.0872 7.10628 57.7568 7.24313 57.5131 7.48617C57.2693 7.72921 57.1321 8.05865 57.1314 8.40236V17.7151C57.1314 21.8822 56.2639 24.5466 55.8201 25.6362H57.9787C58.4091 24.3835 58.9239 22.3742 59.0929 19.6108H62.5842V23.6175H60.5369V25.6322H63.3028C64.0174 25.6322 64.6034 25.052 64.6034 24.3354V8.39434C64.6032 8.2248 64.5695 8.05697 64.5042 7.90043C64.439 7.74389 64.3434 7.60171 64.223 7.48202C64.1026 7.36233 63.9597 7.26747 63.8025 7.20288C63.6453 7.13829 63.4769 7.10522 63.3069 7.10557H63.3055ZM62.5815 9.12027V12.3355H59.1492V9.12027H62.5815ZM59.1492 17.5962V14.3529H62.5815V17.5948H59.1492V17.5962ZM72.853 22.4571C75.021 18.8047 75.4111 16.3782 75.442 15.9798C75.4554 15.8019 75.4319 15.623 75.3729 15.4545C75.3138 15.286 75.2205 15.1315 75.0988 15.0006C74.9771 14.8697 74.8296 14.7653 74.6656 14.6938C74.5016 14.6224 74.3245 14.5855 74.1455 14.5855H67.978V9.11893H73.0313V11.3596H70.3364V13.3743H73.7553C74.4699 13.3743 75.0558 12.794 75.0558 12.0775V8.39835C75.0551 8.05463 74.9179 7.7252 74.6741 7.48216C74.4304 7.23912 74.1 7.10227 73.7553 7.10156H67.2527C66.908 7.10227 66.5776 7.23912 66.3339 7.48216C66.0901 7.7252 65.9529 8.05463 65.9522 8.39835V25.6309H67.9727V16.5988H73.3062C73.1506 17.409 72.6318 18.8221 71.6946 20.5627C71.1888 19.6106 70.7641 18.6178 70.4249 17.5948H68.3105C68.4392 18.0828 69.0479 20.1897 70.5 22.5774C69.8156 23.6351 69.0758 24.6561 68.2837 25.6362H70.7038C71.055 25.1763 71.3701 24.7338 71.6678 24.2953C72.0137 24.7472 72.3877 25.1937 72.8007 25.6362H75.745C74.6397 24.7134 73.6667 23.6437 72.853 22.4571ZM38.9883 7.10557H36.8927L36.4932 8.643H34.415V10.6564H35.9703L34.7529 15.3274C34.6188 15.8101 34.7221 16.3114 35.0237 16.7044C35.3254 17.0988 35.788 17.3301 36.284 17.3301H38.4561V20.044L34.415 20.7165V22.7311L38.4561 22.0587V25.6322H40.4766V21.7218L42.6432 21.3595V19.3435L40.4766 19.7071V17.3314H42.4032V15.3154H40.4766V12.9371H38.4561V15.3154H36.8525L38.0646 10.6564H42.6432V8.64166H38.5888L38.9883 7.10557ZM53.5985 16.6964V14.5106C52.3825 13.9821 51.2224 13.3341 50.1353 12.5761C51.405 11.3181 52.1465 10.2339 52.3824 9.86224C52.6747 9.40502 52.6921 8.82481 52.4307 8.35155C52.2972 8.11117 52.1016 7.91084 51.8641 7.77142C51.6267 7.63199 51.3561 7.55857 51.0806 7.55878H43.7775V9.57347H50.1099C48.4414 11.7187 46.2657 13.4182 43.7775 14.52V16.7031C45.5127 16.0364 47.1348 15.1075 48.5868 13.9491C50.0214 15.016 51.704 15.9357 53.6012 16.6978L53.5985 16.6964Z" fill="white"/>
<path d="M89.4968 13.5039C91.7493 12.3756 93.334 11.1978 94.2002 10.2847C94.3763 10.1014 94.4944 9.87041 94.5398 9.62059C94.5852 9.37078 94.5557 9.11317 94.4552 8.87992C94.3547 8.64666 94.1875 8.44808 93.9745 8.30895C93.7616 8.16982 93.5122 8.09629 93.2576 8.09755H84.1901C84.5146 7.6283 84.7318 7.27402 84.8337 7.10156H82.419C81.6816 8.13765 80.3851 9.73123 78.6126 11.0815V13.54C79.569 12.9337 80.4643 12.2366 81.2861 11.4585C81.5167 11.6711 82.4981 12.5079 84.2706 13.4732C82.2751 14.0872 80.2332 14.5401 78.1648 14.8275V16.8689C81.5301 16.4143 84.4261 15.6122 86.8234 14.6817C89.0664 15.5988 92.0013 16.4531 95.6696 16.8555V14.8275C93.5725 14.5952 91.5043 14.1518 89.4968 13.5039ZM82.8092 10.1162H91.3041C90.3455 10.8342 88.8881 11.7018 86.9172 12.5213C84.5897 11.4892 83.2355 10.4625 82.8092 10.1162Z" fill="white"/>
<path d="M12.2779 9.89033L17.6476 19.1523H21.4969L12.1411 3L0.350586 23.3635H4.47607L12.2792 9.89033H12.2779Z" fill="url(#paint0_linear_802:12878)"/>
<path d="M8.94737 24.4399L14.2192 15.349L12.2912 12.0242L3.03735 28H26.6158L24.555 24.4399H8.94737Z" fill="url(#paint1_linear_802:12878)"/>
<path d="M12.7099 20.0387L10.7859 23.3635H29.3043L17.5097 3L15.4477 6.56415L23.2508 20.0387H12.7085H12.7099Z" fill="url(#paint2_linear_802:12878)"/>
<defs>
<linearGradient id="paint0_linear_802:12878" x1="21.5325" y1="11.5075" x2="0.350586" y2="19.8413" gradientUnits="userSpaceOnUse">
<stop stop-color="#2153F6"/>
<stop offset="1" stop-color="#5AA2F8"/>
</linearGradient>
<linearGradient id="paint1_linear_802:12878" x1="12.6778" y1="15.1537" x2="12.1106" y2="29.8766" gradientUnits="userSpaceOnUse">
<stop stop-color="#2153F6"/>
<stop offset="1" stop-color="#5AA2F8"/>
</linearGradient>
<linearGradient id="paint2_linear_802:12878" x1="14.414" y1="23.4874" x2="24.4779" y2="13.9828" gradientUnits="userSpaceOnUse">
<stop stop-color="#2153F6"/>
<stop offset="1" stop-color="#5AA2F8"/>
</linearGradient>
</defs>
</svg>
