<svg width="110" height="34" viewBox="0 0 110 34" fill="none" xmlns="http://www.w3.org/2000/svg">
<path d="M55.9173 20.2825H59.7872V18.3987H50.6948V20.2825H54.0244V24.2775H50.4453V26.165H60.0354V24.2775H55.9173V20.2825V20.2825ZM97.2964 18.875H90.369C90.5595 18.3037 90.6548 17.8937 90.6924 17.715H88.7456C88.6703 17.9887 88.545 18.39 88.3544 18.875H82.8699V20.7587H87.4619C86.2341 22.9292 84.5101 24.7802 82.4299 26.1612H85.3483C87.1117 24.6641 88.5526 22.8263 89.5842 20.7587H96.622V24.2737H91.4972V26.1575H97.2964C97.9659 26.1575 98.5124 25.615 98.5124 24.945V20.0875C98.5111 19.7663 98.3826 19.4587 98.1548 19.2315C97.9271 19.0044 97.6185 18.8763 97.2964 18.875V18.875ZM68.8633 8.83871H64.3065C63.9842 8.83937 63.6753 8.96733 63.4474 9.19457C63.2195 9.42182 63.0911 9.72984 63.0905 10.0512V18.7587C63.0905 22.655 62.2794 25.1462 61.8644 26.165H63.8827C64.2852 24.9937 64.7665 23.115 64.9245 20.5312H68.1889V24.2775H66.2746V26.1612H68.8608C69.529 26.1612 70.0768 25.6187 70.0768 24.9487V10.0437C70.0767 9.8852 70.0452 9.72827 69.9841 9.5819C69.9231 9.43554 69.8338 9.3026 69.7212 9.19069C69.6086 9.07878 69.475 8.99009 69.328 8.92969C69.181 8.8693 69.0236 8.83838 68.8646 8.83871H68.8633ZM68.1864 10.7225V13.7287H64.9772V10.7225H68.1864ZM64.9772 18.6475V15.615H68.1864V18.6462H64.9772V18.6475ZM77.7903 23.1925C79.8174 19.7775 80.1822 17.5087 80.211 17.1362C80.2236 16.9698 80.2016 16.8026 80.1464 16.645C80.0912 16.4875 80.004 16.343 79.8902 16.2206C79.7764 16.0982 79.6385 16.0006 79.4851 15.9338C79.3317 15.867 79.1661 15.8325 78.9988 15.8325H73.2322V10.7212H77.957V12.8162H75.4373V14.7H78.634C79.3021 14.7 79.85 14.1575 79.85 13.4875V10.0475C79.8493 9.72609 79.721 9.41807 79.4931 9.19082C79.2652 8.96358 78.9563 8.83562 78.634 8.83496H72.554C72.2317 8.83562 71.9228 8.96358 71.6949 9.19082C71.467 9.41807 71.3386 9.72609 71.338 10.0475V26.16H73.2271V17.715H78.214C78.0686 18.4725 77.5834 19.7937 76.7072 21.4212C76.2342 20.531 75.8371 19.6027 75.52 18.6462H73.5431C73.6634 19.1025 74.2325 21.0725 75.5902 23.305C74.9503 24.2939 74.2586 25.2486 73.518 26.165H75.7807C76.1092 25.735 76.4038 25.3212 76.6821 24.9112C77.0055 25.3337 77.3553 25.7512 77.7414 26.165H80.4943C79.4609 25.3021 78.5511 24.3019 77.7903 23.1925V23.1925ZM46.1266 8.83871H44.1673L43.7937 10.2762H41.8506V12.1587H43.3048L42.1665 16.5262C42.0411 16.9775 42.1377 17.4462 42.4197 17.8137C42.7018 18.1825 43.1343 18.3987 43.5981 18.3987H45.629V20.9362L41.8506 21.565V23.4487L45.629 22.82V26.1612H47.5181V22.505L49.544 22.1662V20.2812L47.5181 20.6212V18.4H49.3196V16.515H47.5181V14.2912H45.629V16.515H44.1296L45.2629 12.1587H49.544V10.275H45.7531L46.1266 8.83871V8.83871ZM59.7872 17.8062V15.7625C58.6503 15.2683 57.5655 14.6624 56.5491 13.9537C57.7363 12.7775 58.4296 11.7637 58.6502 11.4162C58.9235 10.9887 58.9398 10.4462 58.6953 10.0037C58.5705 9.77895 58.3876 9.59164 58.1656 9.46128C57.9436 9.33091 57.6906 9.26226 57.4329 9.26246H50.6045V11.1462H56.5253C54.9653 13.152 52.9311 14.741 50.6045 15.7712V17.8125C52.227 17.1891 53.7436 16.3206 55.1012 15.2375C56.4426 16.235 58.0159 17.095 59.7897 17.8075L59.7872 17.8062Z" fill="#BCBCBD"/>
<path d="M93.3523 14.8212C95.4584 13.7662 96.9402 12.665 97.75 11.8112C97.9147 11.6398 98.0251 11.4239 98.0676 11.1903C98.11 10.9567 98.0825 10.7158 97.9885 10.4977C97.8945 10.2796 97.7382 10.094 97.539 9.96387C97.3399 9.83378 97.1068 9.76504 96.8687 9.76621H88.3906C88.6939 9.32746 88.897 8.99621 88.9923 8.83496H86.7345C86.0451 9.80371 84.8328 11.2937 83.1755 12.5562V14.855C84.0697 14.2881 84.9069 13.6363 85.6752 12.9087C85.8909 13.1075 86.8085 13.89 88.4658 14.7925C86.6 15.3666 84.6908 15.7901 82.7568 16.0587V17.9675C85.9034 17.5425 88.6112 16.7925 90.8526 15.9225C92.9499 16.78 95.6941 17.5787 99.124 17.955V16.0587C97.1631 15.8415 95.2294 15.4269 93.3523 14.8212V14.8212ZM87.0993 11.6537H95.0422C94.1459 12.325 92.7832 13.1362 90.9404 13.9025C88.7641 12.9375 87.498 11.9775 87.0993 11.6537V11.6537Z" fill="#BCBCBD"/>
<path d="M21.1521 11.4425L26.1728 20.1025H29.7719L21.0242 5L10 24.04H13.8574L21.1533 11.4425H21.1521Z" fill="#BCBCBD"/>
<path d="M18.0386 25.0462L22.9678 16.5463L21.1651 13.4375L12.5127 28.375H34.5586L32.6318 25.0462H18.0386Z" fill="#BCBCBD"/>
<path d="M21.5558 20.9312L19.7568 24.04H37.0717L26.0437 5L24.1156 8.3325L31.4116 20.9312H21.5545H21.5558Z" fill="#BCBCBD"/>
</svg>
