<svg width="110" height="34" viewBox="0 0 71 32" fill="none" xmlns="http://www.w3.org/2000/svg">
<path d="M11.1319 2.3921L2.54906 9.13944C1.3505 10.0825 0.645264 11.5575 0.645264 13.1225V29.156C0.645264 29.8769 1.45365 30.2699 1.98286 29.8052L12.234 20.8061L22.4851 29.8052C23.0144 30.2699 23.8227 29.8781 23.8227 29.156V13.1225C23.8227 11.5564 23.1175 10.0814 21.9189 9.13944L13.3361 2.3921C12.6836 1.87842 11.7844 1.87842 11.1319 2.3921Z" fill="#00E5E5"/>
<path d="M21.9201 9.13981L13.3373 2.39246C12.6847 1.87992 11.7855 1.87992 11.133 2.39246L2.5502 9.13981C1.91672 9.63868 1.42563 10.2879 1.09937 11.0191L19.9782 27.6039L22.4863 29.8055C23.0155 30.2702 23.8239 29.8784 23.8239 29.1563V13.1228C23.8239 11.5567 23.1198 10.0829 21.9201 9.13981Z" fill="#006EFF"/>
<path d="M54.7458 10.6974H56.8346C56.9546 10.6974 57.0521 10.5983 57.0521 10.4764V8.00368C57.0521 7.88181 56.9546 7.78271 56.8346 7.78271H54.7458C54.6259 7.78271 54.5283 7.88181 54.5283 8.00368V10.4764C54.5294 10.5983 54.6259 10.6974 54.7458 10.6974Z" fill="white"/>
<path d="M70.4283 24.7205H59.7062C59.6087 24.7205 59.5111 24.7217 59.4158 24.7228C58.5065 24.7342 57.7722 24.7422 56.8685 23.7159C57.0075 23.1317 57.077 22.487 57.077 21.7717V13.8478V12.6108V11.7703C57.077 11.6484 56.9795 11.5493 56.8595 11.5493H52.9061C52.7862 11.5493 52.6886 11.6484 52.6886 11.7703V13.8455C52.6886 13.9674 52.7862 14.0665 52.9061 14.0665H54.5532V21.7706C54.5532 23.5815 54.0116 24.5565 52.7223 24.9552C52.6326 24.9825 52.572 25.0691 52.572 25.1647V27.4837C52.572 27.552 52.6337 27.6033 52.6987 27.5919C53.4096 27.4587 54.043 27.232 54.5891 26.9131C54.9994 26.6739 55.3627 26.3812 55.6755 26.0418C56.9593 27.142 58.1948 27.2422 59.1344 27.2422C59.242 27.2422 59.3463 27.2411 59.4461 27.24C59.5369 27.2388 59.6233 27.2377 59.7051 27.2377H70.4272C70.5471 27.2377 70.6447 27.1386 70.6447 27.0167V24.9415C70.6447 24.8196 70.5471 24.7205 70.4283 24.7205Z" fill="white"/>
<path d="M57.8893 21.8082H63.8126V24.0565C63.8126 24.1784 63.9101 24.2775 64.0301 24.2775H66.0281C66.148 24.2775 66.2456 24.1784 66.2456 24.0565V21.8082H70.3077C70.4277 21.8082 70.5252 21.7091 70.5252 21.5872V19.6976C70.5252 19.5758 70.4277 19.4767 70.3077 19.4767H66.2456V17.5711H69.9579C70.0778 17.5711 70.1754 17.4721 70.1754 17.3502V15.4606C70.1754 15.3387 70.0778 15.2396 69.9579 15.2396H66.2456V12.6268C66.2456 12.5049 66.148 12.4059 66.0281 12.4059H64.0301C63.9101 12.4059 63.8126 12.5049 63.8126 12.6268V15.2419H61.1385C61.0645 15.2419 61.0129 15.1668 61.0376 15.0961L62.3258 11.5129H70.1507C70.2707 11.5129 70.3682 11.4138 70.3682 11.2919V9.40235C70.3682 9.28048 70.2707 9.18139 70.1507 9.18139H63.1634L63.6141 7.92851C63.6399 7.85789 63.5883 7.78271 63.5132 7.78271H61.3616C61.2708 7.78271 61.1901 7.83966 61.1587 7.92623L60.6979 9.18139H58.3658C58.2458 9.18139 58.1482 9.28048 58.1482 9.40235V11.2919C58.1482 11.4138 58.2458 11.5129 58.3658 11.5129H59.8424L58.4981 15.1747C58.4812 15.2191 58.4734 15.267 58.4734 15.3148V17.3525C58.4734 17.4743 58.5709 17.5734 58.6909 17.5734H63.8137V19.4789H57.8904C57.7704 19.4789 57.6729 19.578 57.6729 19.6999V21.5895C57.6717 21.7102 57.7693 21.8082 57.8893 21.8082Z" fill="white"/>
<path d="M48.774 9.58972C48.811 9.51683 48.7583 9.43027 48.6787 9.43027H46.2917C46.2154 9.43027 46.1448 9.47127 46.1056 9.53733C44.9687 11.4474 44.1939 12.2504 43.2218 13.1764C43.1725 13.2231 43.1243 13.2686 43.0761 13.3131V8.86305C43.0761 8.74118 42.9785 8.64209 42.8586 8.64209H32.03C31.91 8.64209 31.8125 8.74118 31.8125 8.86305V10.7526C31.8125 10.8745 31.91 10.9736 32.03 10.9736H40.5646C40.6846 10.9736 40.7821 11.0727 40.7821 11.1946V16.5888C40.7821 19.3394 40.9525 21.016 41.3685 22.376C41.6152 23.1812 41.9526 23.8783 42.4022 24.5059C42.8429 25.1232 43.3945 25.6779 44.0874 26.2007C44.833 26.7633 45.7232 27.1517 46.7346 27.3522C47.3557 27.4763 47.8894 27.5014 48.2224 27.5071C48.3435 27.5094 48.4422 27.4103 48.4422 27.2861V25.3954C48.4422 25.2747 48.3469 25.1779 48.228 25.1756C47.0889 25.1437 46.1571 24.8601 45.4553 24.3305C44.4653 23.5821 43.8979 22.7906 43.5582 21.6835C43.2342 20.6242 43.0907 19.2438 43.0772 16.9829C44.7859 18.7631 45.5024 20.1515 46.0843 21.2552C46.1224 21.327 46.1953 21.3714 46.2749 21.3714H48.6776C48.7527 21.3714 48.8054 21.2962 48.7785 21.2245C48.3267 20.0092 46.8074 17.492 44.5336 15.1662C45.8141 13.9987 47.4499 12.1855 48.774 9.58972Z" fill="white"/>
</svg>
