<svg width="110" height="34" viewBox="0 0 97 32" fill="none" xmlns="http://www.w3.org/2000/svg">
<path d="M57.4953 14.478C57.3105 14.3963 57.1171 14.3748 56.9838 14.3705C56.9021 14.3662 56.8334 14.4307 56.8334 14.5124L56.8205 14.8949H55.1011C55.1226 14.478 55.1398 14.2802 55.1527 13.9407C55.157 13.7601 55.0581 13.5925 54.8905 13.5151L54.2457 13.2185C54.1081 13.1541 53.9491 13.2572 53.9491 13.4077C53.9491 14.0438 53.9448 14.19 53.919 14.8906H51.701C51.6279 14.8906 51.5807 14.968 51.6151 15.0325L51.7354 15.2732C51.7956 15.3978 51.9245 15.4752 52.0621 15.4752H53.9061C53.803 18.093 53.3602 20.5259 51.5248 22.6321C51.4689 22.6966 51.4689 22.7954 51.5291 22.8599C51.5893 22.9244 51.6881 22.933 51.7612 22.8771C54.336 20.8182 54.8948 18.2004 55.0753 15.4752H56.7904C56.8677 18.252 56.5883 20.0831 56.4164 20.9987C56.3261 21.4887 55.9866 21.8197 55.4922 21.8283C55.2515 21.8326 54.9635 21.8283 54.7486 21.824C54.6369 21.8197 54.5853 21.9572 54.6626 22.0303L55.3461 22.6622C55.4235 22.7353 55.5266 22.774 55.6298 22.7654C55.9565 22.7525 56.6743 22.6837 57.001 22.3527C57.6372 21.7165 57.8607 19.8424 57.938 15.587C57.938 15.5526 57.938 15.4752 57.938 15.4752V14.8133C57.9423 14.8261 57.8177 14.6198 57.4953 14.478Z" fill="white"/>
<path d="M64.2138 13.9536C64.0505 13.8634 63.8098 13.8247 63.655 13.8075C63.569 13.7989 63.496 13.8677 63.496 13.9536V14.2932H61.2135C61.1318 14.2932 61.0802 14.3792 61.1146 14.4523L61.2221 14.6629C61.2866 14.7961 61.4198 14.8778 61.5703 14.8778H63.5003V21.7553H60.6977V14.2932C60.6977 14.2932 60.4785 13.9837 60.2034 13.8376C60.0314 13.7473 59.8079 13.7258 59.6618 13.7258C59.5801 13.7258 59.5156 13.7903 59.5156 13.872V22.8213C59.5156 22.903 59.5801 22.9675 59.6618 22.9675H59.7133C60.2292 22.9675 60.6977 22.6064 60.6977 22.4688V22.3399H63.5003V22.7826C63.5003 22.8643 63.5647 22.9288 63.6464 22.9288H63.6808C64.0763 22.9288 64.6651 22.5978 64.678 22.4903L64.6565 14.2889C64.6522 14.2932 64.4803 14.0998 64.2138 13.9536Z" fill="white"/>
<path d="M64.4889 10.5192L63.6464 10.8115L61.308 10.8846V9.68534C61.308 9.68534 61.1705 9.48761 60.8137 9.28559C60.6203 9.17813 60.4225 9.11365 60.285 9.07496C60.1861 9.04917 60.0959 9.12225 60.0959 9.22111V10.8803H56.8892V9.68104C56.8892 9.68104 56.6958 9.43603 56.4035 9.26409C56.2359 9.16523 56.0253 9.10505 55.8791 9.07067C55.7845 9.04917 55.6943 9.12225 55.6943 9.22111V10.8846H51.701C51.628 10.8846 51.5807 10.962 51.6108 11.0265L51.7354 11.2801C51.7956 11.4047 51.9245 11.4864 52.0621 11.4864H55.6943V12.9264C55.6943 13.0295 55.7974 13.0983 55.892 13.0639C56.0424 13.008 56.2445 12.9307 56.3863 12.8533C56.6399 12.72 56.8935 12.4535 56.8935 12.4535V11.4864H60.1002V12.849C60.1002 12.9479 60.1947 13.0166 60.2893 12.9908C60.4225 12.9522 60.6074 12.8877 60.7922 12.7888C61.1404 12.604 61.3123 12.3762 61.3123 12.3762V11.4864L65.4646 11.4993C65.5764 11.4993 65.6322 11.366 65.5549 11.2844L64.7124 10.5622C64.6522 10.5106 64.5662 10.4934 64.4889 10.5192Z" fill="white"/>
<path d="M39.2096 13.382C40.1896 13.7517 40.9763 11.8389 38.2038 10.9362C38.1694 10.9233 38.1264 10.9319 38.0963 10.9534C38.0404 10.9921 38.0275 11.0695 38.0705 11.1211C38.4445 11.6154 38.8098 12.3418 38.9001 12.9909C38.9216 13.1671 39.042 13.3219 39.2096 13.382Z" fill="white"/>
<path d="M49.2893 16.6532C47.2002 16.2019 45.0639 15.4497 43.8045 14.1215H48.5758C48.6875 14.1215 48.7434 13.9882 48.666 13.9065L47.9181 13.2489C47.8622 13.2016 47.7891 13.1844 47.7204 13.2059L46.8478 13.4595L44.0194 13.5326C44.4922 13.193 45.4422 12.2731 45.9236 11.8003C46.0784 11.6499 46.0526 11.3963 45.8763 11.2759L45.223 10.8375C45.1112 10.7601 44.9608 10.8074 44.9092 10.932C44.5696 11.7831 44.1785 12.66 43.8389 13.2704C43.7873 13.3606 43.8131 13.4767 43.8991 13.5369H42.7041V10.601C43.8561 10.528 45.9365 10.2916 46.6629 10.2099C46.779 10.197 46.8392 10.0637 46.7747 9.96488C46.6458 9.77145 46.4523 9.49205 46.3062 9.28142C46.1901 9.11379 45.9795 9.03212 45.7818 9.0837C43.5251 9.66828 39.6393 10.2873 36.437 10.4979C36.3682 10.5022 36.308 10.5538 36.2994 10.6182C36.2865 10.7042 36.3553 10.7816 36.437 10.7816C38.0962 10.8203 39.837 10.7773 41.5048 10.687V13.5326H35.4784C35.3968 13.5326 35.3409 13.6185 35.3796 13.6959L35.4784 13.8979C35.5472 14.0355 35.6847 14.1215 35.8395 14.1215H39.3857C38.2337 15.6431 37.0688 16.5974 35.0486 17.5903C34.9841 17.6204 34.9454 17.6935 34.9669 17.7579C34.9927 17.8396 35.0744 17.8697 35.1517 17.8568C37.8082 17.3926 40.1508 15.2519 40.989 14.1258H41.5091V16.3695C41.5091 16.4512 41.5736 16.5157 41.6553 16.5157H41.7069C42.3129 16.5157 42.7084 16.2277 42.7084 16.1503V14.1215H43.2543C45.0897 16.7392 47.5699 17.6978 48.1502 17.8396C48.3221 17.8826 48.4984 17.8611 48.6187 17.7364L49.3796 16.9412C49.4698 16.8467 49.4225 16.6833 49.2893 16.6532Z" fill="white"/>
<path d="M46.6284 17.1517C46.6284 17.1517 46.4694 16.9712 46.1126 16.8465C45.9106 16.7778 45.7171 16.752 45.5839 16.7434C45.5022 16.7391 45.4292 16.8035 45.4292 16.8895L45.4249 17.1259H39.5059C39.3942 17.1259 39.3254 17.242 39.3727 17.3408L39.4629 17.5257C39.5231 17.6503 39.6478 17.7277 39.7853 17.7277H41.5391V19.3826H38.9213V17.4053C38.8869 17.3752 38.7967 17.3065 38.6505 17.2291C38.6032 17.2033 38.1605 17.0271 37.894 17.0142C37.808 17.0099 37.7393 17.0743 37.7393 17.1603V22.83C37.7393 22.9116 37.8037 22.9761 37.8854 22.9761H37.9198C38.3883 22.9761 38.917 22.6451 38.917 22.5978V22.4603H45.4292V22.8128C45.4292 22.8944 45.4936 22.9589 45.5753 22.9589H45.6269C46.0051 22.9589 46.6112 22.6107 46.6284 22.5205V17.732L46.6327 17.6202V17.1517H46.6284ZM41.5348 21.8714H38.917V19.95H41.5348V21.8714ZM45.4292 21.8714H42.7211V19.95H45.4292V21.8714ZM45.4292 19.3783H42.7211V17.7234H45.4292V19.3783Z" fill="white"/>
<path d="M38.9169 19.3784V19.9501H38.8137L38.4526 19.3784H38.9169Z" fill="white"/>
<path d="M88.964 18.493C88.4568 19.0733 86.9609 20.8227 86.1958 21.6781C85.9766 21.9231 85.5811 21.8844 85.4135 21.6007L85.0008 20.9001C84.9492 20.8141 84.975 20.7024 85.0524 20.6465L85.5166 20.3112V14.0957H83.9864C83.8531 14.0957 83.7328 14.0183 83.6769 13.9022L83.5652 13.6787C83.5265 13.5971 83.5866 13.4982 83.6769 13.4982H85.5295L85.5381 13.1973C85.5424 13.1113 85.6155 13.0469 85.7015 13.0555C85.8304 13.0727 86.0239 13.1027 86.1958 13.1543C86.4967 13.2446 86.6514 13.3864 86.6514 13.3864L86.66 19.8126C87.3134 19.3613 88.0527 18.854 88.7921 18.321C88.8436 18.2824 88.9167 18.2909 88.9554 18.3425C89.0027 18.3855 89.0027 18.45 88.964 18.493Z" fill="white"/>
<path d="M84.6142 9.06219C87.4984 10.1067 87.2319 12.0023 86.3679 12.0023C86.1186 12.0023 85.908 11.8261 85.8306 11.5897C85.5813 10.8031 84.9795 9.87889 84.4809 9.24272C84.4379 9.18684 84.4551 9.10517 84.5153 9.07078C84.5454 9.05359 84.5841 9.04929 84.6142 9.06219Z" fill="white"/>
<path d="M89.4066 9.06219C92.2909 10.1067 92.0244 12.0023 91.1604 12.0023C90.9111 12.0023 90.7005 11.8261 90.6231 11.5897C90.3738 10.8031 89.772 9.87889 89.2734 9.24272C89.2304 9.18684 89.2476 9.10517 89.3078 9.07078C89.3379 9.05359 89.3723 9.04929 89.4066 9.06219Z" fill="white"/>
<path d="M90.2621 17.5087C90.1246 19.4516 89.6345 21.1022 86.5998 22.6926C86.5354 22.727 86.4967 22.8043 86.5182 22.8731C86.544 22.9634 86.6385 23.0021 86.7202 22.972C90.5028 21.5191 91.2249 19.7224 91.4786 17.543C91.4914 17.427 91.4012 17.3281 91.2851 17.3281H90.4512C90.3524 17.3281 90.2707 17.4055 90.2621 17.5087Z" fill="white"/>
<path d="M96.1637 20.1178C96.1079 20.0404 95.9875 20.0791 95.9875 20.1737C95.9875 20.4617 95.9832 20.8614 95.966 21.0033C95.9187 21.4116 95.8543 21.4804 95.4975 21.4804H94.5389C94.208 21.4804 94.1048 21.3987 94.1048 21.0033V17.5688C94.1048 17.4356 93.9973 17.3281 93.8641 17.3281H93.2021C93.0689 17.3281 92.9614 17.4356 92.9614 17.5688V21.4116C92.9614 22.31 93.2666 22.5378 94.0747 22.5937C94.4057 22.6152 95.2396 22.6152 95.5921 22.5937C96.4474 22.5378 96.7741 22.3659 96.8988 21.5019C96.9246 21.2741 96.9461 21.158 96.9547 21.0678C96.9676 20.9517 96.9117 20.8399 96.8085 20.7798C96.7268 20.7282 96.6237 20.6551 96.4861 20.5219C96.3959 20.4359 96.2669 20.264 96.1637 20.1178Z" fill="white"/>
<path d="M94.8056 16.795V17.0615C94.8056 17.1431 94.8701 17.2076 94.9518 17.2076H94.9861C95.3644 17.2076 95.9404 16.9497 95.9533 16.8423V12.2042C95.9533 12.2042 95.82 12.0108 95.4676 11.8991C95.2698 11.8389 95.0893 11.8088 94.9646 11.7916C94.8787 11.7787 94.8013 11.8475 94.8013 11.9377V12.2343H93.2066C93.774 11.654 94.6981 10.4892 95.0979 9.97765C95.2011 9.8444 95.1624 9.65527 95.0162 9.5736L94.3199 9.19104C94.1737 9.10937 93.9932 9.18244 93.9373 9.33719C93.6192 10.2442 93.1593 11.3875 92.7252 12.23H89.6389C89.6389 12.23 89.4283 12.0065 89.1575 11.8905C88.9941 11.8217 88.7921 11.7873 88.6546 11.7744C88.5686 11.7658 88.4912 11.8303 88.4912 11.9205V17.1217C88.4912 17.2033 88.5557 17.2678 88.6374 17.2678H88.6717C89.1403 17.2678 89.6389 16.997 89.6389 16.8723V16.7907H94.8056V16.795ZM89.6389 12.8232H94.8056V16.2104H89.6389V12.8748V12.8232Z" fill="white"/>
<path d="M71.8257 13.4897C70.9402 16.5416 69.5002 19.0733 68.3311 20.1823C68.2666 20.2468 68.1634 20.2468 68.0903 20.1909C68.0216 20.1351 68.0044 20.0405 68.0474 19.9631C69.2939 17.7322 70.0074 15.5572 70.5447 12.8793C70.5705 12.7632 70.6909 12.6902 70.8027 12.7332L71.5764 13.0126C71.7784 13.0813 71.8859 13.2919 71.8257 13.4897Z" fill="white"/>
<path d="M81.4414 18.9057C80.6633 16.2493 79.3093 13.9883 78.1445 12.9223C78.0757 12.8621 77.9682 12.8449 77.8865 12.8879C77.8092 12.9309 77.7834 13.0125 77.8264 13.0813C78.9784 15.0672 79.6059 16.9499 80.0229 19.1894C80.0788 19.4903 80.4441 19.6966 80.8009 19.6321L80.917 19.6106C81.3081 19.5419 81.5359 19.2324 81.4414 18.9057Z" fill="white"/>
<path d="M73.502 21.8158C74.1769 21.8158 74.2586 21.459 74.2586 20.8142V9.36751C74.2586 9.28584 74.3273 9.22567 74.409 9.23856C74.5638 9.26005 74.8088 9.30734 75.0323 9.4148C75.273 9.53085 75.4105 9.66411 75.4836 9.74578C75.5223 9.78876 75.5395 9.84464 75.5395 9.90052V21.214C75.5395 22.5895 74.9119 22.9162 73.7385 22.9807C73.7385 22.9807 73.5837 22.9764 73.4419 22.9678C73.3129 22.9592 73.1969 22.8861 73.1367 22.77C73.0894 22.6755 73.012 22.5508 72.896 22.409C72.7283 22.2069 72.5263 22.0608 72.4102 21.9877C72.363 21.9576 72.3329 21.9103 72.3286 21.8545C72.32 21.7513 72.436 21.7728 72.4747 21.7771C72.7068 21.8029 73.1969 21.8158 73.502 21.8158Z" fill="white"/>
<path d="M6.08954 29.4053C3.12013 29.4053 0.700684 26.9897 0.700684 24.0165V7.98334C0.700684 5.01392 3.1163 2.59448 6.08954 2.59448H22.1227C25.0921 2.59448 27.5116 5.0101 27.5116 7.98334V24.0165C27.5116 26.9859 25.0959 29.4053 22.1227 29.4053H6.08954Z" fill="white" stroke="#E5E6EB"/>
<path d="M28.1064 18.2868C24.9127 14.4697 19.8449 12.0024 14.1408 12.0024C8.39813 12.0024 3.29588 14.5041 0.106445 18.3684V24.0209C0.106445 27.3264 2.78437 30.0043 6.08987 30.0043H22.123C25.4285 30.0043 28.1064 27.3264 28.1064 24.0209V18.2868Z" fill="url(#paint0_radial_802:12782)"/>
<path d="M17.1758 2H22.3769V8.26712L19.772 6.73688L17.1758 8.26712V2Z" fill="#EE5528"/>
<path d="M20.7907 23.866C21.9685 23.866 22.5101 24.283 22.5101 24.7988C22.5101 25.3146 21.9685 25.7316 20.7907 25.7316C19.613 25.7316 18.2418 24.7988 18.2418 24.7988C18.2418 24.7988 19.613 23.866 20.7907 23.866ZM7.31943 23.7328C8.42413 23.7328 9.70936 24.6655 9.70936 24.6655C9.70936 24.6655 8.42413 25.5983 7.31943 25.5983C6.21474 25.5983 5.70752 25.1814 5.70752 24.6655C5.70752 24.154 6.21474 23.7328 7.31943 23.7328ZM20.1116 18.9314C20.5285 19.3484 20.4941 20.0576 19.6817 20.87C18.8693 21.6824 17.1714 21.8673 17.1714 21.8673C17.1714 21.8673 17.3606 20.1694 18.1687 19.357C18.9854 18.5489 19.6946 18.5145 20.1116 18.9314ZM7.9599 18.9185C8.35536 18.5145 9.01302 18.5575 9.75235 19.3742C10.4917 20.1909 10.6378 21.8673 10.6378 21.8673C10.6378 21.8673 9.0646 21.6523 8.32527 20.8356C7.58594 20.0232 7.56874 19.3226 7.9599 18.9185ZM13.9734 16.3997C14.4892 16.3997 14.9062 16.9069 14.9062 18.0116C14.9062 19.1163 13.9734 20.4015 13.9734 20.4015C13.9734 20.4015 13.0406 19.1163 13.0406 18.0116C13.0406 16.9069 13.4576 16.3997 13.9734 16.3997Z" fill="white"/>
<defs>
<radialGradient id="paint0_radial_802:12782" cx="0" cy="0" r="1" gradientUnits="userSpaceOnUse" gradientTransform="translate(14.2173 25.1196) scale(14.2628)">
<stop stop-color="#CC0500"/>
<stop offset="1" stop-color="#FF751F"/>
</radialGradient>
</defs>
</svg>
