<svg width="110" height="34" viewBox="0 0 110 34" fill="none" xmlns="http://www.w3.org/2000/svg">
<path d="M22.3993 11.7092C22.8557 12.7124 23.1138 13.8249 23.1138 14.9999C23.1138 19.4186 19.507 22.9999 15.0568 22.9999H11.0283V26.9999H19.0853C23.5355 26.9999 27.1423 23.4186 27.1423 18.9999C27.1423 15.7561 25.1973 12.9624 22.3993 11.7092Z" fill="#BCBCBD"/>
<path d="M19.0855 11C20.2688 11 21.3892 11.2563 22.3995 11.7094C21.1375 8.93125 18.3238 7 15.057 7H7V23H11.0285V11H19.0855Z" fill="#BCBCBD"/>
<path fill-rule="evenodd" clip-rule="evenodd" d="M84.8121 12.3616H84.8043V22.4154C84.8043 22.7924 84.4945 23.1001 84.1149 23.1001H78.3898V25.2462H76.6622V23.1001H70.2398L70.2398 22.2077V11.2539C70.2398 10.877 70.5497 10.5693 70.9293 10.5693H76.6622V8.89236C76.6622 8.82313 76.7165 8.76929 76.7862 8.76929H78.3898V10.5693H84.8043H84.8121V12.3616ZM76.6622 12.3616H71.9674V21.3154H76.6622V12.3616ZM78.3898 21.3154V12.3616H83.0767V21.3154H78.3898ZM67.2805 19.177H64.1506V17.4693H67.2805V15.9231H64.1506V14.8385H62.7329C62.6632 14.8385 62.6089 14.8924 62.6089 14.9616V15.9231H59.6109C59.5412 15.9231 59.4869 15.977 59.4869 16.0462V17.4693H62.6089V19.177H60.1842C59.8046 19.177 59.4947 19.4847 59.4947 19.8616V23.7001H59.4868V25.2462H66.5832C66.9628 25.2462 67.2727 24.9385 67.2727 24.5616V20.7154H67.2882V19.177H67.2805ZM65.7388 10.3154V12.6154H58.3481V10.3154H65.7388ZM67.2727 10.3154H67.2805V8.76929H57.5037C57.1241 8.76929 56.8142 9.07698 56.8142 9.4539V12.6154H56.8064V14.1616H56.8142V19.5693V19.5693C56.8142 22.0385 56.8142 23.1924 55.9 25.2385H57.7206C58.3584 23.402 58.3544 21.9968 58.3491 20.1102V20.1102C58.3486 19.9343 58.3481 19.7543 58.3481 19.5693V14.1616H66.5832C66.9628 14.1616 67.2727 13.8539 67.2727 13.477V10.3154ZM53.3203 18.8234L51.4609 19.3693V18.0231C51.4609 17.7154 51.6623 17.4539 51.9567 17.3616L53.3203 16.9615V12.0847H51.4609V10.5539C51.4609 10.4847 51.5152 10.4308 51.5849 10.4308H53.3203V9.4539C53.3203 9.07698 53.6301 8.76929 54.0097 8.76929H55.0014V10.4308H55.9155V12.0847H55.0014V16.4683L55.9155 16.2001V18.0616L55.0014 18.3299V19.577C55.0014 21.7462 54.9936 23.4154 54.002 25.2385H52.0342C53.3203 23.4462 53.3203 22.0385 53.3203 19.5693V18.8234ZM37.1753 16.3693V13.6308H36.1724L35.6491 16.3693H34.1074L34.6368 13.6308H33.8828V12.2077C33.8828 12.1385 33.937 12.0847 34.0068 12.0847H37.1753V8.90006C37.1753 8.83083 37.2295 8.77698 37.2992 8.77698H38.7169V12.0847H41.9553V13.6308H41.215L41.7383 16.3693H40.2044L39.6749 13.6308H38.7169V16.377H37.1753V16.3693ZM34.549 11.4616L34.2159 9.71544C34.1616 9.43083 34.3786 9.16929 34.673 9.16929H35.6568L36.0984 11.4539H34.549V11.4616ZM39.7395 11.4616L39.7411 11.4539H41.2735L41.7383 9.16929H40.5762C40.3593 9.16929 40.1734 9.32313 40.1269 9.53852L39.7411 11.4539H39.7395V11.4616ZM42.2961 14.8616L43.2955 9.33852C43.3574 9.00775 43.6441 8.76929 43.9772 8.76929H45.0386L44.7385 10.4308H49.8496V12.0847H48.9647C48.7803 13.667 48.2383 16.9148 46.7621 20.2902C47.5373 21.9822 48.5444 23.7008 49.8496 25.2462V25.2539H47.8044C47.0249 24.3019 46.3591 23.2901 45.7908 22.2622C45.2242 23.2873 44.5605 24.2964 43.7836 25.2462H41.7384C43.0428 23.7042 44.0493 21.9896 44.8242 20.3011C43.9678 18.346 43.4251 16.4331 43.0848 14.8616H42.2961ZM44.3999 12.3059C44.5892 13.5384 44.9914 15.5882 45.7957 17.8853C46.6498 15.4447 47.0491 13.2833 47.2218 12.0847H44.4399L44.3999 12.3059ZM38.5587 17.4924C38.6324 17.3266 38.7034 17.1597 38.7712 16.9924H37.1753C37.1043 17.1572 37.0277 17.3241 36.9459 17.4924H34.5723C34.1927 17.4924 33.8828 17.8001 33.8828 18.177V19.0308H36.086C35.4867 19.9873 34.7841 20.9269 34.0842 21.7385C34.0842 21.7385 35.2302 22.3813 36.6856 23.3841C35.9968 24.0032 35.2083 24.6294 34.3166 25.2385H36.726C37.1729 24.9319 37.5843 24.6198 37.9629 24.3054C38.356 24.6027 38.7538 24.9178 39.143 25.2462H41.5834C40.8186 24.5425 40.009 23.8565 39.1562 23.2039C41.9982 20.2795 42.3039 17.4924 42.3039 17.4924H38.5587ZM37.7804 19.0308C37.275 19.9202 36.7314 20.698 36.2534 21.2308C36.7983 21.5559 37.3295 21.8976 37.8465 22.253C39.0144 21.0155 39.7692 19.8711 40.1425 19.0308H37.7804ZM61.0363 23.7001H65.7387V20.7154H61.0363V23.7001ZM87.4617 24.477H89.1505C89.6696 20.1385 90.026 14.8693 90.2894 9.54621H89.259C88.8949 9.54621 88.585 9.83852 88.5695 10.2001C88.3139 15.1539 87.9575 20.1231 87.4617 24.477ZM103.297 25.2462H101.608C101.112 21.1077 100.663 15.4077 100.392 10.2693C100.368 9.87698 100.686 9.54621 101.081 9.54621H102.042C102.305 14.7154 102.785 20.7001 103.297 25.2462ZM98.664 22.2077H96.9751C96.4715 18.077 96.2701 14.4462 96.03 9.49236C96.0067 9.10006 96.3243 8.76929 96.7194 8.76929H97.6801C97.9435 13.9385 98.1527 17.6616 98.664 22.2077ZM92.0325 25.2462H93.7601V25.2427H100.029V23.5273H93.7601V8.76929H92.1564C92.0867 8.76929 92.0325 8.82313 92.0325 8.89236V25.2462Z" fill="#BCBCBD"/>
</svg>
