<svg width="110" height="34" viewBox="0 0 110 34" fill="none" xmlns="http://www.w3.org/2000/svg">
<g clip-path="url(#clip0)">
<path d="M42.0344 15.0096H40.9876V10.6919H39.0098V24.6766H40.9876V17.0791C40.9876 16.933 41.1054 16.813 41.2515 16.813H42.0344V26.794H44.0144V9.69092H42.0344V15.0096Z" fill="#BCBCBD"/>
<path d="M56.7674 10.5392C56.7849 10.2579 56.7958 9.97659 56.7958 9.69092H54.7765C54.7765 9.97659 54.7634 10.2579 54.7437 10.5392H48.8908C48.869 10.2601 48.8581 9.97659 48.8581 9.69092H46.8191C46.8191 9.97659 46.83 10.2579 46.8475 10.5392H46.8191H45.0244V11.9043H58.5839V10.5392H56.7936H56.7674V10.5392Z" fill="#BCBCBD"/>
<path d="M45.0264 14.1766H50.7965V15.0423H45.0264V16.3137H50.7965V17.1794H45.1659V20.9389C45.1659 21.8352 45.8921 22.5592 46.7862 22.5592H50.7965V23.4293H45.0264V24.6461H50.7965V25.5227H45.0264V26.7941H58.5859V25.5227H52.8158V24.6461H58.5859V23.4293H52.8158V22.5592H56.4771H58.4463V18.7997C58.4463 17.9034 57.7201 17.1794 56.8261 17.1794H52.8158V16.3137H58.5859V15.0423H52.8158V14.1766H58.5859V12.9053H45.0264V14.1766ZM46.5877 18.405H50.7965V19.2511H46.5877V19.0701V18.405ZM46.5877 21.0698V20.4766H50.7965V21.3358H46.8516C46.7055 21.3336 46.5877 21.2159 46.5877 21.0698ZM56.4771 21.3336H52.8158V20.4744H57.0245V21.3336H56.4771ZM57.0245 18.6688V19.2489H52.8158V18.405H56.7585C56.9067 18.405 57.0245 18.5227 57.0245 18.6688Z" fill="#BCBCBD"/>
<path d="M99.2231 15.171H98.5275C98.5798 14.6868 98.6103 14.1984 98.6103 13.7012H96.5692C96.5692 14.1984 96.5343 14.689 96.4733 15.171H92.8533H92.0247H87.4321C87.3711 14.689 87.3362 14.2005 87.3362 13.7012H85.2951C85.2951 14.1984 85.3256 14.6868 85.3779 15.171H84.3879C83.1275 15.171 82.1025 16.1959 82.1025 17.4563V19.4189H84.1219V17.4563C84.1219 17.308 84.2418 17.1903 84.3879 17.1903H92.0268H92.8555H99.2275C99.3758 17.1903 99.4935 17.3102 99.4935 17.4563V19.4189H101.513V17.4563C101.511 16.1959 100.486 15.171 99.2231 15.171Z" fill="#BCBCBD"/>
<path d="M97.9994 19.8768H94.3293H92.8378V18.6077H90.8185V19.8768H90.7966H85.8596C84.5991 19.8768 83.5742 20.9017 83.5742 22.1622V25.7581H85.5935V22.16C85.5935 22.0139 85.7135 21.894 85.8596 21.894H90.7966H90.8185V26.7918H92.8378V21.8961H94.3293H97.9994C98.1456 21.8961 98.2655 22.0161 98.2655 22.1622V25.7581H100.285V22.16C100.283 20.9017 99.2577 19.8768 97.9994 19.8768Z" fill="#BCBCBD"/>
<path d="M92.8376 10.4847V9.69092H90.8183V10.4847H82.1152V12.504H101.541V10.4847H92.8376Z" fill="#BCBCBD"/>
<path d="M67.1125 9.69092H64.8141L64.3823 10.4847H60.6904V12.504H63.2833L61.4188 15.932C61.0284 16.6517 60.987 17.5327 61.3904 18.2457C61.8048 18.9763 62.5571 19.4146 63.3945 19.4146H70.3247V21.785H60.6904V23.8043H70.3247V26.794H72.344V23.8043H80.116V21.785H72.344V19.4146H80.116V17.3953H72.344V14.8897H70.3247V17.3931H63.364C63.1633 17.3931 63.0347 17.1772 63.1306 17.0006L65.5839 12.5018H80.1182V10.4825H66.683L67.1125 9.69092Z" fill="#BCBCBD"/>
<path d="M29.9996 10.6023C25.1955 5.79826 17.4061 5.79826 12.6021 10.6023C7.79801 15.4064 7.79801 23.1958 12.6021 27.9998L15.8382 24.7637C15.1731 24.0986 14.6323 23.3092 14.2441 22.4369C16.4968 21.8481 18.8606 21.5297 21.3008 21.5297C23.7388 21.5297 26.1005 21.8525 28.3553 22.4412C27.9672 23.3113 27.4285 24.0986 26.7634 24.7637L29.9996 27.9998C34.8036 23.1958 34.8036 15.4064 29.9996 10.6023ZM13.7338 17.7397C14.4556 14.2222 17.5697 11.5771 21.3008 11.5771C25.0298 11.5771 28.1416 14.2201 28.8656 17.7353C23.8958 16.5512 18.7036 16.5556 13.7338 17.7397Z" fill="#BCBCBD"/>
</g>
<defs>
<clipPath id="clip0">
<rect width="92.5417" height="21" fill="white" transform="translate(9 7)"/>
</clipPath>
</defs>
</svg>
