<svg width="110" height="34" viewBox="0 0 97 33" fill="none" xmlns="http://www.w3.org/2000/svg">
<g clip-path="url(#clip0_801:12575)">
<path d="M35.1025 13.4484H34.0059V8.92506H31.9338V23.5757H34.0059V15.6164C34.0059 15.4634 34.1293 15.3377 34.2823 15.3377H35.1025V25.794H37.1768V7.87646H35.1025V13.4484Z" fill="#040000"/>
<path d="M50.5368 8.76515C50.5551 8.47044 50.5665 8.17574 50.5665 7.87646H48.451C48.451 8.17574 48.4373 8.47044 48.4168 8.76515H42.2851C42.2622 8.47273 42.2508 8.17574 42.2508 7.87646H40.1148C40.1148 8.17574 40.1262 8.47044 40.1445 8.76515H40.1148H38.2346V10.1953H52.4398V8.76515H50.5642H50.5368Z" fill="#040000"/>
<path d="M38.2371 12.5758H44.2819V13.4827H38.2371V14.8146H44.2819V15.7216H38.3833V19.6601C38.3833 20.599 39.144 21.3575 40.0807 21.3575H44.2819V22.269H38.2371V23.5438H44.2819V24.4622H38.2371V25.7941H52.4422V24.4622H46.3974V23.5438H52.4422V22.269H46.3974V21.3575H50.2331H52.296V17.419C52.296 16.48 51.5353 15.7216 50.5986 15.7216H46.3974V14.8146H52.4422V13.4827H46.3974V12.5758H52.4422V11.2439H38.2371V12.5758ZM39.8728 17.0055H44.2819V17.8919H39.8728V17.7023V17.0055ZM39.8728 19.7972V19.1758H44.2819V20.0759H40.1492C39.9961 20.0736 39.8728 19.9502 39.8728 19.7972ZM50.2331 20.0736H46.3974V19.1735H50.8065V20.0736H50.2331ZM50.8065 17.2819V17.8896H46.3974V17.0055H50.5278C50.6832 17.0055 50.8065 17.1288 50.8065 17.2819Z" fill="#040000"/>
<path d="M95.0142 13.6174H94.2854C94.3403 13.1102 94.3722 12.5985 94.3722 12.0776H92.2339C92.2339 12.5985 92.1974 13.1125 92.1334 13.6174H88.3411H87.473H82.6618C82.5978 13.1125 82.5612 12.6008 82.5612 12.0776H80.4229C80.4229 12.5985 80.4549 13.1102 80.5097 13.6174H79.4726C78.1521 13.6174 77.0784 14.6911 77.0784 16.0116V18.0677H79.1938V16.0116C79.1938 15.8562 79.3195 15.7329 79.4726 15.7329H87.4753H88.3434H95.0188C95.1741 15.7329 95.2975 15.8585 95.2975 16.0116V18.0677H97.4129V16.0116C97.4107 14.6911 96.3369 13.6174 95.0142 13.6174Z" fill="#040000"/>
<path d="M93.7327 18.5474H89.8879H88.3253V17.2178H86.2098V18.5474H86.187H81.0148C79.6943 18.5474 78.6206 19.6211 78.6206 20.9416V24.7087H80.7361V20.9393C80.7361 20.7862 80.8617 20.6606 81.0148 20.6606H86.187H86.2098V25.7916H88.3253V20.6628H89.8879H93.7327C93.8858 20.6628 94.0115 20.7885 94.0115 20.9416V24.7087H96.1269V20.9393C96.1246 19.6211 95.0509 18.5474 93.7327 18.5474Z" fill="#040000"/>
<path d="M88.325 8.70803V7.87646H86.2096V8.70803H77.092V10.8235H97.4426V8.70803H88.325Z" fill="#040000"/>
<path d="M61.3747 7.87646H58.9668L58.5144 8.70803H54.6467V10.8235H57.363L55.4098 14.4148C55.0008 15.1687 54.9574 16.0916 55.3801 16.8387C55.8141 17.604 56.6023 18.0632 57.4795 18.0632H64.7398V20.5465H54.6467V22.6619H64.7398V25.794H66.8552V22.6619H74.9973V20.5465H66.8552V18.0632H74.9973V15.9477H66.8552V13.3228H64.7398V15.9454H57.4476C57.2374 15.9454 57.1026 15.7192 57.2031 15.5342L59.7732 10.8212H74.9996V8.70575H60.9246L61.3747 7.87646Z" fill="#040000"/>
<path d="M22.4942 8.83125C17.4614 3.79844 9.30108 3.79844 4.26826 8.83125C-0.764551 13.8641 -0.764551 22.0244 4.26826 27.0572L7.6585 23.667C6.96172 22.9702 6.39516 22.1432 5.98851 21.2294C8.34843 20.6126 10.8249 20.279 13.3812 20.279C15.9353 20.279 18.4095 20.6171 20.7717 21.2339C20.365 22.1455 19.8008 22.9702 19.104 23.667L22.4942 27.0572C27.527 22.0244 27.527 13.8641 22.4942 8.83125ZM5.45393 16.3085C6.21011 12.6236 9.47241 9.85243 13.3812 9.85243C17.2878 9.85243 20.5478 12.6213 21.3063 16.3039C16.0998 15.0634 10.6604 15.068 5.45393 16.3085Z" fill="#FFCC32"/>
</g>
<defs>
<clipPath id="clip0_801:12575">
<rect width="97" height="32" fill="white" transform="translate(0 0.0571289)"/>
</clipPath>
</defs>
</svg>
