<svg width="110" height="34" viewBox="0 0 122 33" fill="none" xmlns="http://www.w3.org/2000/svg">
<g clip-path="url(#clip0_801:12597)">
<path d="M4.60126 2.05713H23.0324C25.6637 2.05713 27.8173 4.20983 27.8173 6.84198V25.2732C27.8173 27.9044 25.6646 30.058 23.0324 30.058H4.60126C1.96911 30.0571 -0.183594 27.9044 -0.183594 25.2732V6.84198C-0.183594 4.20983 1.96911 2.05713 4.60126 2.05713Z" fill="#FF6880"/>
<path d="M14.0538 9.33311L9.87547 10.4498C5.99868 11.4867 3.67419 15.5063 4.71109 19.3831L6.31685 25.403C6.46411 25.9534 7.02419 26.2847 7.57727 26.1462C8.96565 25.7983 11.1254 25.2522 11.263 25.1847L17.8236 23.4308C21.7004 22.3939 24.0249 18.3743 22.988 14.4975C21.9511 10.6207 17.9314 8.29708 14.0538 9.33311Z" fill="white"/>
<path d="M7.32742 26.7239C6.62534 26.7239 5.9776 26.2514 5.78915 25.545L4.18339 19.5242C3.06673 15.3468 5.55688 11.0396 9.73431 9.92298L13.9126 8.80631C15.9286 8.26725 18.0401 8.54949 19.8588 9.60042C21.6776 10.6514 22.9757 12.3413 23.5147 14.3572C24.6314 18.5347 22.1413 22.8427 17.9638 23.9594L11.433 25.7054C11.2594 25.7676 10.6468 25.9411 7.70958 26.6774C7.58249 26.709 7.45364 26.7239 7.32742 26.7239ZM14.1949 9.86074L10.0165 10.9774C6.42024 11.9389 4.2763 15.6466 5.23783 19.2429L6.84359 25.2636C6.91284 25.5239 7.18192 25.6826 7.444 25.6177C10.3873 24.8797 10.9474 24.7184 11.0473 24.6834C11.071 24.6728 11.0964 24.665 11.1209 24.6579L17.6816 22.904C19.4162 22.4404 20.8694 21.3228 21.7749 19.7565C22.6803 18.1902 22.9231 16.3732 22.4603 14.6386C21.9966 12.904 20.8791 11.4507 19.3128 10.5453C17.7473 9.63986 15.9286 9.39707 14.1949 9.86074ZM11.0421 24.686C11.0333 24.6895 11.0263 24.693 11.021 24.6965C11.028 24.693 11.035 24.6895 11.0421 24.686Z" fill="black"/>
<path d="M11.1985 14.9391L11.1801 14.9444C9.16849 15.4817 7.08328 14.2765 6.54599 12.2649L6.52758 12.1948C5.99028 10.1832 7.19548 8.09797 9.20706 7.56067L9.22547 7.55541C11.2371 7.01811 13.3223 8.22331 13.8596 10.2349L13.878 10.305C14.4161 12.3157 13.2101 14.4009 11.1985 14.9391Z" fill="white"/>
<path d="M10.2109 15.5675C9.46585 15.5675 8.72958 15.3711 8.06432 14.9863C7.06948 14.4113 6.35864 13.4866 6.06413 12.3831L6.05011 12.3314C5.75472 11.2279 5.90899 10.0718 6.48485 9.07694C7.05984 8.0821 7.98455 7.37126 9.08807 7.07675C11.3722 6.46495 13.7309 7.82791 14.3418 10.1138L14.3559 10.1656C14.9668 12.4524 13.6047 14.8093 11.3188 15.4202C10.9524 15.5193 10.5808 15.5675 10.2109 15.5675ZM11.1899 14.9408H11.1926H11.1899ZM10.1951 7.92521C9.91374 7.92521 9.628 7.96114 9.34401 8.0374C8.49731 8.26354 7.78646 8.8096 7.3447 9.57479C6.90207 10.34 6.78374 11.2279 7.00988 12.0746L7.0239 12.1263C7.25004 12.9739 7.7961 13.6838 8.56129 14.1265C9.32648 14.5691 10.2144 14.6874 11.0611 14.4613C12.8176 13.9915 13.865 12.1806 13.3952 10.4241L13.3812 10.3724C12.9885 8.89901 11.6519 7.92521 10.1951 7.92521Z" fill="black"/>
<path d="M19.1825 12.8047L18.8784 12.8862C16.9457 13.4025 14.942 12.2446 14.4257 10.3119L14.3302 9.95519C13.8139 8.02249 14.9718 6.0188 16.9045 5.50253L17.2086 5.42102C19.1413 4.90476 21.145 6.06262 21.6613 7.99532L21.7568 8.35206C22.274 10.2839 21.1152 12.2876 19.1825 12.8047Z" fill="white"/>
<path d="M18.0509 13.4709C16.1551 13.4709 14.4169 12.2034 13.9042 10.2874L13.8902 10.2357C13.2792 7.94887 14.6413 5.59194 16.9273 4.98101C18.0308 4.68563 19.186 4.8399 20.1808 5.41576C21.1757 5.99075 21.8865 6.91547 22.181 8.01899L22.1951 8.0707C22.4904 9.17422 22.3362 10.3303 21.7603 11.3252C21.1853 12.32 20.2606 13.0309 19.1571 13.3254C18.789 13.4235 18.4173 13.4709 18.0509 13.4709ZM18.0343 5.82947C17.7503 5.82947 17.4654 5.86629 17.185 5.94167C15.4284 6.41147 14.381 8.22234 14.8508 9.97886L14.8648 10.0306C15.3347 11.788 17.1464 12.8345 18.9029 12.3656C19.7496 12.1394 20.4596 11.5934 20.9022 10.8282C21.3448 10.063 21.4632 9.1751 21.237 8.3284L21.223 8.27668C20.9969 7.4291 20.4508 6.71913 19.6856 6.27649C19.1729 5.98023 18.6066 5.82947 18.0343 5.82947Z" fill="black"/>
<path d="M18.9805 10.9809C18.8788 10.9809 18.7754 10.959 18.6772 10.9125L16.6323 9.94926C16.4325 9.85548 16.2878 9.67492 16.2396 9.4593C16.1914 9.24367 16.2458 9.01841 16.386 8.84925L17.7332 7.22245C17.9839 6.91918 18.4344 6.87623 18.7377 7.12779C19.0409 7.37935 19.0839 7.82899 18.8323 8.13226L18.0715 9.05084L19.2846 9.62233C19.6414 9.78974 19.7939 10.2148 19.6265 10.5716C19.5046 10.8302 19.2478 10.9809 18.9805 10.9809Z" fill="black"/>
<path d="M9.95735 13.4017C9.81711 13.4017 9.67424 13.3605 9.55065 13.2737C9.22722 13.0485 9.14746 12.6041 9.37272 12.2806L10.1388 11.1797L9.02124 10.7634C8.65223 10.6258 8.46466 10.2147 8.60227 9.84571C8.73988 9.4767 9.15096 9.28912 9.51997 9.42674L11.4991 10.1648C11.706 10.2419 11.8646 10.4102 11.9304 10.6205C11.9961 10.8309 11.961 11.0597 11.8348 11.2411L10.5429 13.0967C10.4044 13.2948 10.1826 13.4017 9.95735 13.4017Z" fill="black"/>
<path d="M15.7452 18.8783C14.6022 18.8783 13.5539 18.1148 13.2445 16.9596C13.1639 16.6598 13.3418 16.3513 13.6424 16.2707C13.9413 16.19 14.2516 16.3679 14.3314 16.6686C14.54 17.4478 15.3437 17.9115 16.1238 17.7037C16.5016 17.6029 16.8172 17.3601 17.0126 17.0218C17.2081 16.6835 17.2598 16.2891 17.159 15.9113C17.0784 15.6115 17.2563 15.303 17.5569 15.2223C17.8558 15.1408 18.1652 15.3196 18.2459 15.6203C18.4247 16.2882 18.3335 16.9859 17.9873 17.5845C17.6419 18.1832 17.0836 18.6118 16.4157 18.7906C16.1913 18.8493 15.9661 18.8783 15.7452 18.8783Z" fill="black"/>
<path d="M77.3191 21.5865C76.8957 21.4069 76.4075 21.6058 76.2287 22.0283C76.035 22.4867 75.588 22.783 75.0901 22.783H74.3758V20.1675H74.5326C76.34 20.1675 77.8108 18.6967 77.8108 16.8893V12.7838C77.8108 10.9755 76.34 9.50565 74.5326 9.50565H74.3758V8.49416C74.3758 8.03487 74.0032 7.66235 73.5439 7.66235C73.0847 7.66235 72.7121 8.03487 72.7121 8.49416V9.50477H72.5552C70.747 9.50477 69.2771 10.9755 69.2771 12.7829V16.8885C69.2771 18.6967 70.7479 20.1666 72.5552 20.1666H72.7121V22.7821H70.1107C69.6514 22.7821 69.2789 23.1546 69.2789 23.6139C69.2789 24.0732 69.6514 24.4457 70.1107 24.4457H75.0901C76.2576 24.4457 77.3059 23.7506 77.7608 22.676C77.9396 22.2536 77.7415 21.7653 77.3191 21.5865ZM74.3766 11.1684H74.5335C75.4241 11.1684 76.148 11.8924 76.148 12.7829V16.8885C76.148 17.779 75.4241 18.503 74.5335 18.503H74.3766V11.1684ZM72.7121 18.5039H72.5552C71.6647 18.5039 70.9407 17.7799 70.9407 16.8893V12.7838C70.9407 11.8932 71.6647 11.1693 72.5552 11.1693H72.7121V18.5039Z" fill="black"/>
<path d="M85.2523 9.97977C85.7116 9.97977 86.0841 9.60726 86.0841 9.14797C86.0841 8.68868 85.7116 8.31616 85.2523 8.31616H77.9878C77.5285 8.31616 77.156 8.68868 77.156 9.14797C77.156 9.60726 77.5285 9.97977 77.9878 9.97977H80.2317V23.62C80.2317 24.0793 80.6042 24.4518 81.0635 24.4518C81.5228 24.4518 81.8953 24.0793 81.8953 23.62V16.6018L84.6966 19.1174C84.8552 19.2602 85.0542 19.3303 85.2523 19.3303C85.4802 19.3303 85.7072 19.2374 85.872 19.0542C86.1788 18.7124 86.1507 18.1865 85.8089 17.8788L81.8961 14.3649V9.97977H85.2523Z" fill="black"/>
<path d="M46.2206 10.6345C46.9735 10.6345 47.6204 11.1455 47.7922 11.8774C47.8973 12.3245 48.347 12.6014 48.7923 12.4971C49.2393 12.3919 49.5171 11.944 49.4111 11.497C49.0614 10.0105 47.7492 8.97181 46.2197 8.97181H42.7259V8.49587C42.7259 8.03658 42.3534 7.66406 41.8941 7.66406C41.4348 7.66406 41.0623 8.03658 41.0623 8.49587V8.97181H37.3573C35.6227 8.97181 34.1852 10.3286 34.0844 12.0606L33.4174 23.5692C33.3911 24.0276 33.7408 24.4211 34.2001 24.4474C34.2168 24.4483 34.2326 24.4492 34.2492 24.4492C34.6866 24.4492 35.053 24.1073 35.0793 23.6656L35.5482 15.571H46.1715C46.5651 15.571 46.9086 15.763 47.1137 16.0987C47.3197 16.4344 47.3346 16.8271 47.1558 17.1785C46.8306 17.8166 46.0374 18.6187 45.1285 19.4356L42.9977 17.5484C42.7084 17.2925 42.4262 17.0988 42.1334 16.955C41.9941 16.8867 41.8494 16.8271 41.7031 16.7754C41.285 16.629 40.8467 16.5554 40.4014 16.5554C39.3111 16.5554 38.2961 16.9901 37.544 17.779C36.792 18.5678 36.4054 19.603 36.4571 20.6942C36.5562 22.8022 38.3276 24.4527 40.4891 24.4527H40.539C41.4603 24.4457 42.3525 24.0863 43.052 23.4403C43.5209 23.0073 44.074 22.5375 44.6595 22.0405C44.8129 21.9099 44.9663 21.7802 45.1197 21.6487L48.0499 24.2432C48.2085 24.3834 48.4048 24.4518 48.6012 24.4518C48.8308 24.4518 49.0596 24.3571 49.2244 24.1713C49.5285 23.8277 49.497 23.3018 49.1525 22.9968L46.3819 20.5435C47.3679 19.6459 48.2164 18.7589 48.638 17.9323C49.0789 17.0672 49.0394 16.0557 48.5319 15.2283C48.0244 14.4009 47.1418 13.9057 46.1706 13.9057H42.7259V10.6345H46.2206ZM41.0632 13.9057H35.6455L35.7472 12.1553C35.7963 11.3024 36.5045 10.6337 37.3591 10.6337H41.0641V13.9057H41.0632ZM43.5832 20.7714C42.9836 21.2797 42.4174 21.7601 41.9239 22.2167C41.5234 22.5866 41.0404 22.7838 40.5329 22.7882H40.4891C39.2383 22.7882 38.1751 21.8135 38.119 20.6145C38.0892 19.9816 38.3127 19.3821 38.7475 18.9263C39.1831 18.4696 39.7703 18.2181 40.4014 18.2181C40.66 18.2181 40.9133 18.261 41.1552 18.3452C41.2403 18.375 41.3235 18.4092 41.4033 18.4486C41.5593 18.5249 41.7197 18.6371 41.895 18.7922L43.8619 20.5338C43.769 20.6136 43.6752 20.6925 43.5832 20.7714Z" fill="black"/>
<path d="M64.1488 10.6347C64.9018 10.6347 65.5486 11.1457 65.7204 11.8776C65.8256 12.3246 66.2717 12.6016 66.7205 12.4964C67.1675 12.3912 67.4445 11.9433 67.3393 11.4963C66.9896 10.0097 65.6775 8.97108 64.148 8.97108H60.6551V8.49513C60.6551 8.03585 60.2826 7.66333 59.8233 7.66333C59.364 7.66333 58.9915 8.03585 58.9915 8.49513V8.97108H55.2865C53.5519 8.97108 52.1144 10.3279 52.0136 12.0599L51.3466 23.5684C51.3203 24.0268 51.67 24.4204 52.1293 24.4467C52.146 24.4476 52.1618 24.4484 52.1784 24.4484C52.6158 24.4484 52.9822 24.1066 53.0085 23.6648L53.4774 15.5703H64.1006C64.4942 15.5703 64.8378 15.7622 65.0429 16.098C65.2489 16.4337 65.2638 16.8263 65.085 17.1778C64.7598 17.8159 63.9665 18.6179 63.0585 19.4339L60.9268 17.5468C60.6376 17.2909 60.3553 17.0972 60.0626 16.9543C59.9232 16.8859 59.7786 16.8263 59.6322 16.7746C59.2141 16.6282 58.7759 16.5546 58.3297 16.5546C57.2394 16.5546 56.2252 16.9894 55.4723 17.7782C54.7203 18.5671 54.3337 19.6022 54.3854 20.6935C54.4845 22.8015 56.2559 24.4528 58.4174 24.4528H58.4673C59.4017 24.4458 60.2703 24.0961 60.9803 23.4404C61.4492 23.0075 62.0023 22.5376 62.5887 22.0407C62.7421 21.9109 62.8954 21.7803 63.0488 21.6497L65.979 24.2442C66.1376 24.3844 66.334 24.4528 66.5303 24.4528C66.76 24.4528 66.9887 24.3581 67.1535 24.1723C67.4577 23.8287 67.4261 23.3028 67.0816 22.9978L64.311 20.5445C65.2971 19.6469 66.1455 18.7599 66.5662 17.9334C67.0071 17.0682 66.9677 16.0568 66.4602 15.2293C65.9527 14.4019 65.0701 13.9067 64.0989 13.9067H60.6542V10.6347H64.1488ZM58.9906 13.9058H53.5729L53.6746 12.1554C53.7237 11.3026 54.4319 10.6338 55.2865 10.6338H58.9915V13.9058H58.9906ZM61.5123 20.7706C60.9128 21.2799 60.3466 21.7602 59.8522 22.2168C59.4517 22.5867 58.9687 22.7839 58.4612 22.7883H58.4174C57.1666 22.7883 56.1034 21.8136 56.0473 20.6146C56.0175 19.9818 56.241 19.3822 56.6758 18.9264C57.1114 18.4698 57.6986 18.2182 58.3288 18.2182C58.5874 18.2182 58.8416 18.2612 59.0826 18.3453C59.1677 18.3751 59.2509 18.4093 59.3307 18.4487C59.4867 18.525 59.6471 18.6372 59.8224 18.7923L61.7893 20.5339C61.6973 20.6137 61.6044 20.6926 61.5123 20.7706Z" fill="black"/>
<path d="M87.8572 23.7786C87.7625 23.7786 87.6687 23.7619 87.5785 23.7295C87.156 23.5753 86.9377 23.1072 87.092 22.6847L91.7226 9.97888C91.9478 9.17863 92.6087 8.64133 93.3704 8.63257H93.3835C94.1522 8.63257 94.8026 9.1427 95.041 9.93243L99.7671 22.6812C99.9231 23.1028 99.7075 23.5726 99.2859 23.7286C99.1947 23.7628 99.0992 23.7795 99.0028 23.7795C98.6636 23.7795 98.3559 23.5656 98.2376 23.2474L96.6845 19.0569H90.1484L88.6224 23.2431C88.5058 23.563 88.1982 23.7786 87.8572 23.7786ZM90.7426 17.4257H96.0805L93.3888 10.1647L90.7426 17.4257Z" fill="black"/>
<path d="M120.222 9.89556C118.977 8.72104 117.206 8.62988 116.693 8.62988C116.63 8.62988 116.583 8.63076 116.548 8.63251H112.43C111.98 8.63251 111.615 8.99802 111.615 9.44766V22.9643C111.615 23.4139 111.98 23.7794 112.43 23.7794C112.88 23.7794 113.245 23.4139 113.245 22.9643V17.8087L113.384 17.8095C113.384 17.8095 116.751 17.8271 116.947 17.8271C117.671 17.8271 119.044 17.6868 120.106 16.7481C121.031 15.9303 121.5 14.7304 121.5 13.1807C121.5 11.8011 121.07 10.6958 120.222 9.89556ZM119.039 15.5157C118.396 16.124 117.28 16.1898 116.83 16.1898C116.734 16.1898 116.679 16.1862 116.677 16.1862L113.245 16.1792V10.2628L116.602 10.2611L116.611 10.2619C116.613 10.2619 116.646 10.2602 116.704 10.2602C117.062 10.2602 118.295 10.3198 119.104 11.0823C119.619 11.5688 119.87 12.2551 119.87 13.1807C119.87 14.236 119.589 15.0231 119.039 15.5157Z" fill="black"/>
<path d="M109.382 9.89556C108.137 8.72104 106.366 8.62988 105.853 8.62988C105.79 8.62988 105.742 8.63076 105.707 8.63251H101.59C101.14 8.63251 100.774 8.99802 100.774 9.44766V22.9643C100.774 23.4139 101.14 23.7794 101.59 23.7794C102.039 23.7794 102.405 23.4139 102.405 22.9643V17.8087L102.544 17.8095C102.544 17.8095 105.911 17.8271 106.106 17.8271C106.83 17.8271 108.204 17.6868 109.266 16.7481C110.191 15.9303 110.66 14.7304 110.66 13.1807C110.66 11.8011 110.23 10.6958 109.382 9.89556ZM108.198 15.5157C107.556 16.124 106.439 16.1898 105.99 16.1898C105.894 16.1898 105.839 16.1862 105.837 16.1862L102.405 16.1792V10.2628L105.762 10.2611L105.77 10.2619C105.773 10.2619 105.806 10.2602 105.863 10.2602C106.222 10.2602 107.455 10.3198 108.263 11.0823C108.779 11.5688 109.029 12.2551 109.029 13.1807C109.03 14.236 108.749 15.0231 108.198 15.5157Z" fill="black"/>
</g>
<defs>
<clipPath id="clip0_801:12597">
<rect width="122" height="32" fill="white" transform="translate(0 0.0571289)"/>
</clipPath>
</defs>
</svg>
