<svg width="110" height="34" viewBox="0 0 110 34" fill="none" xmlns="http://www.w3.org/2000/svg">
<g clip-path="url(#clip0)">
<path d="M12.9836 30.4053C10.0142 30.4053 7.59473 27.9897 7.59473 25.0165V8.98334C7.59473 6.01392 10.0103 3.59448 12.9836 3.59448H29.0167C31.9862 3.59448 34.4056 6.0101 34.4056 8.98334V25.0165C34.4056 27.9859 31.99 30.4053 29.0167 30.4053H12.9836Z" stroke="#BCBCBD"/>
<mask id="path-2-inside-1" fill="white">
<path d="M29.0166 3.19343C32.2103 3.19343 34.8066 5.78968 34.8066 8.98342V25.0166C34.8066 28.2103 32.2103 30.8066 29.0166 30.8066H12.9834C9.78968 30.8066 7.19343 28.2103 7.19343 25.0166V8.98342C7.19343 5.78968 9.78968 3.19343 12.9834 3.19343H29.0166V3.19343ZM29.0166 3H12.9834C9.67792 3 7 5.67792 7 8.98342V25.0166C7 28.3221 9.67792 31 12.9834 31H29.0166C32.3221 31 35 28.3221 35 25.0166V8.98342C35 5.67792 32.3221 3 29.0166 3Z"/>
</mask>
<path d="M29.0166 4.19343C31.658 4.19343 33.8066 6.34197 33.8066 8.98342H35.8066C35.8066 5.2374 32.7626 2.19343 29.0166 2.19343V4.19343ZM33.8066 8.98342V25.0166H35.8066V8.98342H33.8066ZM33.8066 25.0166C33.8066 27.658 31.658 29.8066 29.0166 29.8066V31.8066C32.7626 31.8066 35.8066 28.7626 35.8066 25.0166H33.8066ZM29.0166 29.8066H12.9834V31.8066H29.0166V29.8066ZM12.9834 29.8066C10.342 29.8066 8.19343 27.658 8.19343 25.0166H6.19343C6.19343 28.7626 9.2374 31.8066 12.9834 31.8066V29.8066ZM8.19343 25.0166V8.98342H6.19343V25.0166H8.19343ZM8.19343 8.98342C8.19343 6.34197 10.342 4.19343 12.9834 4.19343V2.19343C9.2374 2.19343 6.19343 5.2374 6.19343 8.98342H8.19343ZM12.9834 4.19343H29.0166V2.19343H12.9834V4.19343ZM29.0166 2H12.9834V4H29.0166V2ZM12.9834 2C9.12564 2 6 5.12564 6 8.98342H8C8 6.23021 10.2302 4 12.9834 4V2ZM6 8.98342V25.0166H8V8.98342H6ZM6 25.0166C6 28.8744 9.12564 32 12.9834 32V30C10.2302 30 8 27.7698 8 25.0166H6ZM12.9834 32H29.0166V30H12.9834V32ZM29.0166 32C32.8744 32 36 28.8744 36 25.0166H34C34 27.7698 31.7698 30 29.0166 30V32ZM36 25.0166V8.98342H34V25.0166H36ZM36 8.98342C36 5.12564 32.8744 2 29.0166 2V4C31.7698 4 34 6.23021 34 8.98342H36Z" fill="#BCBCBD" mask="url(#path-2-inside-1)"/>
<path d="M24.0693 3H29.2704V9.26712L26.6656 7.73688L24.0693 9.26712V3Z" fill="#BCBCBD"/>
<path fill-rule="evenodd" clip-rule="evenodd" d="M21.0344 13.0024C26.7384 13.0024 31.8063 15.4697 35 19.2868V25.0209C35 28.3264 32.3221 31.0043 29.0166 31.0043H12.9834C9.67792 31.0043 7 28.3264 7 25.0209V19.3684C10.1894 15.5041 15.2917 13.0024 21.0344 13.0024ZM29.4037 25.7989C29.4037 25.2831 28.862 24.8662 27.6843 24.8662C26.5065 24.8662 25.1353 25.7989 25.1353 25.7989C25.1353 25.7989 26.5065 26.7317 27.6843 26.7317C28.862 26.7317 29.4037 26.3147 29.4037 25.7989ZM16.6029 25.6657C16.6029 25.6657 15.3177 24.7329 14.213 24.7329C13.1083 24.7329 12.6011 25.1542 12.6011 25.6657C12.6011 26.1815 13.1083 26.5984 14.213 26.5984C15.3177 26.5984 16.6029 25.6657 16.6029 25.6657ZM26.5753 21.8702C27.3877 21.0577 27.4221 20.3485 27.0051 19.9316C26.5882 19.5146 25.8789 19.549 25.0622 20.3571C24.2541 21.1695 24.065 22.8674 24.065 22.8674C24.065 22.8674 25.7629 22.6826 26.5753 21.8702ZM16.6459 20.3743C15.9066 19.5576 15.2489 19.5146 14.8535 19.9187C14.4623 20.3227 14.4795 21.0234 15.2188 21.8358C15.9582 22.6525 17.5314 22.8674 17.5314 22.8674C17.5314 22.8674 17.3852 21.191 16.6459 20.3743ZM21.7997 19.0117C21.7997 17.907 21.3828 17.3998 20.867 17.3998C20.3512 17.3998 19.9342 17.907 19.9342 19.0117C19.9342 20.1164 20.867 21.4016 20.867 21.4016C20.867 21.4016 21.7997 20.1164 21.7997 19.0117Z" fill="#BCBCBD"/>
<path d="M64.3889 15.478C64.204 15.3963 64.0106 15.3748 63.8774 15.3705C63.7957 15.3662 63.7269 15.4307 63.7269 15.5124L63.714 15.8949H61.9946C62.0161 15.478 62.0333 15.2802 62.0462 14.9407C62.0505 14.7601 61.9517 14.5925 61.784 14.5151L61.1392 14.2185C61.0017 14.1541 60.8427 14.2572 60.8427 14.4077C60.8427 15.0438 60.8384 15.19 60.8126 15.8906H58.5946C58.5215 15.8906 58.4742 15.968 58.5086 16.0325L58.629 16.2732C58.6891 16.3978 58.8181 16.4752 58.9556 16.4752H60.7997C60.6965 19.093 60.2538 21.5259 58.4183 23.6321C58.3625 23.6966 58.3625 23.7954 58.4226 23.8599C58.4828 23.9244 58.5817 23.933 58.6548 23.8771C61.2295 21.8182 61.7883 19.2004 61.9688 16.4752H63.6839C63.7613 19.252 63.4819 21.0831 63.31 21.9987C63.2197 22.4887 62.8801 22.8197 62.3858 22.8283C62.1451 22.8326 61.8571 22.8283 61.6422 22.824C61.5304 22.8197 61.4788 22.9572 61.5562 23.0303L62.2396 23.6622C62.317 23.7353 62.4202 23.774 62.5233 23.7654C62.85 23.7525 63.5679 23.6837 63.8945 23.3527C64.5307 22.7165 64.7542 20.8424 64.8316 16.587C64.8316 16.5526 64.8316 16.4752 64.8316 16.4752V15.8133C64.8359 15.8261 64.7112 15.6198 64.3889 15.478Z" fill="#BCBCBD"/>
<path d="M71.1074 14.9536C70.944 14.8634 70.7033 14.8247 70.5486 14.8075C70.4626 14.7989 70.3895 14.8677 70.3895 14.9536V15.2932H68.1071C68.0254 15.2932 67.9738 15.3792 68.0082 15.4523L68.1156 15.6629C68.1801 15.7961 68.3134 15.8778 68.4638 15.8778H70.3938V22.7553H67.5912V15.2932C67.5912 15.2932 67.372 14.9837 67.0969 14.8376C66.925 14.7473 66.7015 14.7258 66.5553 14.7258C66.4737 14.7258 66.4092 14.7903 66.4092 14.872V23.8213C66.4092 23.903 66.4737 23.9675 66.5553 23.9675H66.6069C67.1227 23.9675 67.5912 23.6064 67.5912 23.4688V23.3399H70.3938V23.7826C70.3938 23.8643 70.4583 23.9288 70.54 23.9288H70.5744C70.9698 23.9288 71.5587 23.5978 71.5716 23.4903L71.5501 15.2889C71.5458 15.2932 71.3739 15.0998 71.1074 14.9536Z" fill="#BCBCBD"/>
<path d="M71.3824 11.5192L70.5399 11.8115L68.2016 11.8846V10.6853C68.2016 10.6853 68.064 10.4876 67.7073 10.2856C67.5138 10.1781 67.3161 10.1136 67.1786 10.075C67.0797 10.0492 66.9894 10.1222 66.9894 10.2211V11.8803H63.7828V10.681C63.7828 10.681 63.5894 10.436 63.2971 10.2641C63.1294 10.1652 62.9188 10.1051 62.7727 10.0707C62.6781 10.0492 62.5878 10.1222 62.5878 10.2211V11.8846H58.5946C58.5215 11.8846 58.4742 11.962 58.5043 12.0265L58.629 12.2801C58.6891 12.4047 58.8181 12.4864 58.9557 12.4864H62.5878V13.9264C62.5878 14.0295 62.691 14.0983 62.7856 14.0639C62.936 14.008 63.138 13.9307 63.2799 13.8533C63.5335 13.72 63.7871 13.4535 63.7871 13.4535V12.4864H66.9937V13.849C66.9937 13.9479 67.0883 14.0166 67.1828 13.9908C67.3161 13.9522 67.5009 13.8877 67.6858 13.7888C68.0339 13.604 68.2059 13.3762 68.2059 13.3762V12.4864L72.3582 12.4993C72.4699 12.4993 72.5258 12.366 72.4484 12.2844L71.6059 11.5622C71.5458 11.5106 71.4598 11.4934 71.3824 11.5192Z" fill="#BCBCBD"/>
<path d="M46.1031 14.382C47.0832 14.7517 47.8698 12.8389 45.0973 11.9362C45.0629 11.9233 45.0199 11.9319 44.9899 11.9534C44.934 11.9921 44.9211 12.0695 44.9641 12.1211C45.338 12.6154 45.7034 13.3418 45.7937 13.9909C45.8152 14.1671 45.9355 14.3219 46.1031 14.382Z" fill="#BCBCBD"/>
<path d="M56.1828 17.6532C54.0938 17.2019 51.9575 16.4497 50.698 15.1215H55.4693C55.5811 15.1215 55.6369 14.9882 55.5596 14.9065L54.8116 14.2489C54.7558 14.2016 54.6827 14.1844 54.6139 14.2059L53.7413 14.4595L50.913 14.5326C51.3858 14.193 52.3357 13.2731 52.8172 12.8003C52.9719 12.6499 52.9461 12.3963 52.7699 12.2759L52.1165 11.8375C52.0048 11.7601 51.8543 11.8074 51.8027 11.932C51.4632 12.7831 51.072 13.66 50.7324 14.2704C50.6808 14.3606 50.7066 14.4767 50.7926 14.5369H49.5976V11.601C50.7496 11.528 52.8301 11.2916 53.5565 11.2099C53.6726 11.197 53.7327 11.0637 53.6683 10.9649C53.5393 10.7714 53.3459 10.492 53.1997 10.2814C53.0837 10.1138 52.8731 10.0321 52.6753 10.0837C50.4186 10.6683 46.5329 11.2873 43.3305 11.4979C43.2618 11.5022 43.2016 11.5538 43.193 11.6182C43.1801 11.7042 43.2489 11.7816 43.3305 11.7816C44.9897 11.8203 46.7306 11.7773 48.3984 11.687V14.5326H42.372C42.2903 14.5326 42.2344 14.6185 42.2731 14.6959L42.372 14.8979C42.4408 15.0355 42.5783 15.1215 42.733 15.1215H46.2793C45.1273 16.6431 43.9624 17.5974 41.9421 18.5903C41.8777 18.6204 41.839 18.6935 41.8605 18.7579C41.8863 18.8396 41.9679 18.8697 42.0453 18.8568C44.7017 18.3926 47.0444 16.2519 47.8826 15.1258H48.4027V17.3695C48.4027 17.4512 48.4672 17.5157 48.5488 17.5157H48.6004C49.2065 17.5157 49.6019 17.2277 49.6019 17.1503V15.1215H50.1478C51.9833 17.7392 54.4635 18.6978 55.0438 18.8396C55.2157 18.8826 55.3919 18.8611 55.5123 18.7364L56.2731 17.9412C56.3634 17.8467 56.3161 17.6833 56.1828 17.6532Z" fill="#BCBCBD"/>
<path d="M53.522 18.1517C53.522 18.1517 53.3629 17.9712 53.0062 17.8465C52.8041 17.7778 52.6107 17.752 52.4775 17.7434C52.3958 17.7391 52.3227 17.8035 52.3227 17.8895L52.3184 18.1259H46.3995C46.2877 18.1259 46.2189 18.242 46.2662 18.3408L46.3565 18.5257C46.4167 18.6503 46.5413 18.7277 46.6789 18.7277H48.4326V20.3826H45.8149V18.4053C45.7805 18.3752 45.6902 18.3065 45.5441 18.2291C45.4968 18.2033 45.0541 18.0271 44.7876 18.0142C44.7016 18.0099 44.6328 18.0743 44.6328 18.1603V23.83C44.6328 23.9116 44.6973 23.9761 44.779 23.9761H44.8133C45.2819 23.9761 45.8106 23.6451 45.8106 23.5978V23.4603H52.3227V23.8128C52.3227 23.8944 52.3872 23.9589 52.4689 23.9589H52.5204C52.8987 23.9589 53.5048 23.6107 53.522 23.5205V18.732L53.5263 18.6202V18.1517H53.522ZM48.4283 22.8714H45.8106V20.95H48.4283V22.8714ZM52.3227 22.8714H49.6147V20.95H52.3227V22.8714ZM52.3227 20.3783H49.6147V18.7234H52.3227V20.3783Z" fill="#BCBCBD"/>
<path d="M45.8109 20.3784V20.9501H45.7077L45.3467 20.3784H45.8109Z" fill="#BCBCBD"/>
<path d="M95.858 19.493C95.3508 20.0733 93.855 21.8227 93.0898 22.6781C92.8706 22.9231 92.4752 22.8844 92.3075 22.6007L91.8949 21.9001C91.8433 21.8141 91.8691 21.7024 91.9465 21.6465L92.4107 21.3112V15.0957H90.8804C90.7472 15.0957 90.6268 15.0183 90.571 14.9022L90.4592 14.6787C90.4205 14.5971 90.4807 14.4982 90.571 14.4982H92.4236L92.4322 14.1973C92.4365 14.1113 92.5096 14.0469 92.5955 14.0555C92.7245 14.0727 92.9179 14.1027 93.0898 14.1543C93.3907 14.2446 93.5455 14.3864 93.5455 14.3864L93.5541 20.8126C94.2074 20.3613 94.9468 19.854 95.6861 19.321C95.7377 19.2824 95.8108 19.2909 95.8494 19.3425C95.8967 19.3855 95.8967 19.45 95.858 19.493Z" fill="#BCBCBD"/>
<path d="M91.5077 10.0622C94.392 11.1067 94.1255 13.0023 93.2615 13.0023C93.0122 13.0023 92.8015 12.8261 92.7242 12.5897C92.4749 11.8031 91.8731 10.8789 91.3745 10.2427C91.3315 10.1868 91.3487 10.1052 91.4089 10.0708C91.4389 10.0536 91.4776 10.0493 91.5077 10.0622Z" fill="#BCBCBD"/>
<path d="M96.3007 10.0622C99.1849 11.1067 98.9184 13.0023 98.0544 13.0023C97.8051 13.0023 97.5945 12.8261 97.5171 12.5897C97.2678 11.8031 96.666 10.8789 96.1674 10.2427C96.1244 10.1868 96.1416 10.1052 96.2018 10.0708C96.2319 10.0536 96.2663 10.0493 96.3007 10.0622Z" fill="#BCBCBD"/>
<path d="M97.1561 18.5087C97.0186 20.4516 96.5286 22.1022 93.4939 23.6926C93.4294 23.727 93.3907 23.8043 93.4122 23.8731C93.438 23.9634 93.5326 24.0021 93.6142 23.972C97.3969 22.5191 98.119 20.7224 98.3726 18.543C98.3855 18.427 98.2952 18.3281 98.1792 18.3281H97.3453C97.2464 18.3281 97.1647 18.4055 97.1561 18.5087Z" fill="#BCBCBD"/>
<path d="M103.058 21.1178C103.002 21.0404 102.882 21.0791 102.882 21.1737C102.882 21.4617 102.877 21.8614 102.86 22.0033C102.813 22.4116 102.748 22.4804 102.392 22.4804H101.433C101.102 22.4804 100.999 22.3987 100.999 22.0033V18.5688C100.999 18.4356 100.891 18.3281 100.758 18.3281H100.096C99.9629 18.3281 99.8555 18.4356 99.8555 18.5688V22.4116C99.8555 23.31 100.161 23.5378 100.969 23.5937C101.3 23.6152 102.134 23.6152 102.486 23.5937C103.341 23.5378 103.668 23.3659 103.793 22.5019C103.819 22.2741 103.84 22.158 103.849 22.0678C103.862 21.9517 103.806 21.8399 103.703 21.7798C103.621 21.7282 103.518 21.6551 103.38 21.5219C103.29 21.4359 103.161 21.264 103.058 21.1178Z" fill="#BCBCBD"/>
<path d="M101.699 17.795V18.0615C101.699 18.1431 101.764 18.2076 101.845 18.2076H101.88C102.258 18.2076 102.834 17.9497 102.847 17.8423V13.2042C102.847 13.2042 102.714 13.0108 102.361 12.8991C102.163 12.8389 101.983 12.8088 101.858 12.7916C101.772 12.7787 101.695 12.8475 101.695 12.9377V13.2343H100.1C100.668 12.654 101.592 11.4892 101.991 10.9777C102.095 10.8444 102.056 10.6553 101.91 10.5736L101.213 10.191C101.067 10.1094 100.887 10.1824 100.831 10.3372C100.513 11.2442 100.053 12.3875 99.6187 13.23H96.5324C96.5324 13.23 96.3218 13.0065 96.051 12.8905C95.8877 12.8217 95.6857 12.7873 95.5481 12.7744C95.4621 12.7658 95.3848 12.8303 95.3848 12.9205V18.1217C95.3848 18.2033 95.4492 18.2678 95.5309 18.2678H95.5653C96.0338 18.2678 96.5324 17.997 96.5324 17.8723V17.7907H101.699V17.795ZM96.5324 13.8232H101.699V17.2104H96.5324V13.8748V13.8232Z" fill="#BCBCBD"/>
<path d="M78.7197 14.4897C77.8342 17.5416 76.3943 20.0733 75.2251 21.1823C75.1606 21.2468 75.0575 21.2468 74.9844 21.1909C74.9156 21.1351 74.8984 21.0405 74.9414 20.9631C76.1879 18.7322 76.9015 16.5572 77.4388 13.8793C77.4646 13.7632 77.5849 13.6902 77.6967 13.7332L78.4704 14.0126C78.6724 14.0813 78.7799 14.2919 78.7197 14.4897Z" fill="#BCBCBD"/>
<path d="M88.3349 19.9057C87.5569 17.2493 86.2029 14.9883 85.038 13.9223C84.9692 13.8621 84.8618 13.8449 84.7801 13.8879C84.7027 13.9309 84.6769 14.0125 84.7199 14.0813C85.8719 16.0672 86.4995 17.9499 86.9164 20.1894C86.9723 20.4903 87.3377 20.6966 87.6944 20.6321L87.8105 20.6106C88.2017 20.5419 88.4295 20.2324 88.3349 19.9057Z" fill="#BCBCBD"/>
<path d="M80.3956 22.8158C81.0705 22.8158 81.1521 22.459 81.1521 21.8142V10.3675C81.1521 10.2858 81.2209 10.2257 81.3026 10.2386C81.4573 10.2601 81.7023 10.3073 81.9258 10.4148C82.1665 10.5309 82.3041 10.6641 82.3772 10.7458C82.4159 10.7888 82.4331 10.8446 82.4331 10.9005V22.214C82.4331 23.5895 81.8055 23.9162 80.632 23.9807C80.632 23.9807 80.4773 23.9764 80.3354 23.9678C80.2065 23.9592 80.0904 23.8861 80.0302 23.77C79.9829 23.6755 79.9056 23.5508 79.7895 23.409C79.6219 23.2069 79.4199 23.0608 79.3038 22.9877C79.2565 22.9576 79.2264 22.9103 79.2221 22.8545C79.2135 22.7513 79.3296 22.7728 79.3683 22.7771C79.6004 22.8029 80.0904 22.8158 80.3956 22.8158Z" fill="#BCBCBD"/>
</g>
<defs>
<clipPath id="clip0">
<rect width="96.8566" height="28" fill="white" transform="translate(7 3)"/>
</clipPath>
</defs>
</svg>
