<svg width="110" height="34" viewBox="0 0 96 33" fill="none" xmlns="http://www.w3.org/2000/svg">
<path d="M49.4596 19.4019H53.5985V17.3872H43.874V19.4019H47.4351V23.6746H43.6072V25.6933H53.864V23.6746H49.4596V19.4019ZM93.7151 17.8966H86.3061C86.5099 17.2856 86.6118 16.8471 86.652 16.656H84.5698C84.4894 16.9487 84.3553 17.3779 84.1515 17.8966H78.2857V19.9113H83.1969C81.8838 22.2326 80.0399 24.2123 77.8151 25.6893H80.9364C82.8223 24.0881 84.3634 22.1226 85.4668 19.9113H92.9937V23.6706H87.5128V25.6853H93.7151C94.431 25.6853 95.0156 25.1051 95.0156 24.3885V19.1934C95.0142 18.8499 94.8767 18.5209 94.6331 18.278C94.3895 18.0351 94.0595 17.898 93.7151 17.8966ZM63.3055 7.1627H58.4319C58.0872 7.16341 57.7568 7.30026 57.5131 7.5433C57.2693 7.78634 57.1321 8.11577 57.1314 8.45949V17.7723C57.1314 21.9394 56.2639 24.6038 55.8201 25.6933H57.9787C58.4091 24.4407 58.9239 22.4313 59.0929 19.668H62.5842V23.6746H60.5369V25.6893H63.3028C64.0174 25.6893 64.6034 25.1091 64.6034 24.3925V8.45146C64.6032 8.28193 64.5695 8.1141 64.5042 7.95756C64.439 7.80101 64.3434 7.65883 64.223 7.53914C64.1026 7.41945 63.9597 7.3246 63.8025 7.26001C63.6453 7.19542 63.4769 7.16235 63.3069 7.1627H63.3055ZM62.5815 9.1774V12.3926H59.1492V9.1774H62.5815ZM59.1492 17.6533V14.41H62.5815V17.6519H59.1492V17.6533ZM72.853 22.5142C75.021 18.8618 75.4111 16.4354 75.442 16.037C75.4554 15.859 75.4319 15.6802 75.3729 15.5117C75.3138 15.3431 75.2205 15.1886 75.0988 15.0577C74.9771 14.9268 74.8296 14.8224 74.6656 14.751C74.5016 14.6795 74.3245 14.6426 74.1455 14.6426H67.978V9.17606H73.0313V11.4167H70.3364V13.4314H73.7553C74.4699 13.4314 75.0558 12.8512 75.0558 12.1346V8.45547C75.0551 8.11176 74.9179 7.78233 74.6741 7.53929C74.4304 7.29625 74.1 7.1594 73.7553 7.15869H67.2527C66.908 7.1594 66.5776 7.29625 66.3339 7.53929C66.0901 7.78233 65.9529 8.11176 65.9522 8.45547V25.688H67.9727V16.656H73.3062C73.1506 17.4661 72.6318 18.8792 71.6946 20.6198C71.1888 19.6677 70.7641 18.6749 70.4249 17.6519H68.3105C68.4392 18.1399 69.0479 20.2468 70.5 22.6345C69.8156 23.6922 69.0758 24.7132 68.2837 25.6933H70.7038C71.055 25.2334 71.3701 24.7909 71.6678 24.3524C72.0137 24.8043 72.3877 25.2508 72.8007 25.6933H75.745C74.6397 24.7705 73.6667 23.7008 72.853 22.5142ZM38.9883 7.1627H36.8927L36.4932 8.70013H34.415V10.7135H35.9703L34.7529 15.3846C34.6188 15.8672 34.7221 16.3685 35.0237 16.7616C35.3254 17.156 35.788 17.3872 36.284 17.3872H38.4561V20.1011L34.415 20.7736V22.7883L38.4561 22.1158V25.6893H40.4766V21.7789L42.6432 21.4166V19.4006L40.4766 19.7642V17.3886H42.4032V15.3725H40.4766V12.9942H38.4561V15.3725H36.8525L38.0646 10.7135H42.6432V8.69879H38.5888L38.9883 7.1627ZM53.5985 16.7536V14.5677C52.3825 14.0393 51.2224 13.3912 50.1353 12.6333C51.405 11.3752 52.1465 10.291 52.3824 9.91937C52.6747 9.46215 52.6921 8.88194 52.4307 8.40868C52.2972 8.1683 52.1016 7.96797 51.8641 7.82855C51.6267 7.68912 51.3561 7.61569 51.0806 7.61591H43.7775V9.6306H50.1099C48.4414 11.7758 46.2657 13.4753 43.7775 14.5771V16.7602C45.5127 16.0935 47.1348 15.1647 48.5868 14.0062C50.0214 15.0731 51.704 15.9929 53.6012 16.7549L53.5985 16.7536Z" fill="black"/>
<path d="M89.4968 13.5611C91.7493 12.4327 93.334 11.2549 94.2002 10.3418C94.3763 10.1585 94.4944 9.92754 94.5398 9.67772C94.5852 9.42791 94.5557 9.1703 94.4552 8.93704C94.3547 8.70379 94.1875 8.50521 93.9745 8.36608C93.7616 8.22694 93.5122 8.15342 93.2576 8.15467H84.1901C84.5146 7.68543 84.7318 7.33115 84.8337 7.15869H82.419C81.6816 8.19478 80.3851 9.78835 78.6126 11.1386V13.5972C79.569 12.9908 80.4643 12.2938 81.2861 11.5156C81.5167 11.7282 82.4981 12.5651 84.2706 13.5303C82.2751 14.1444 80.2332 14.5973 78.1648 14.8846V16.926C81.5301 16.4715 84.4261 15.6693 86.8234 14.7389C89.0664 15.656 92.0013 16.5102 95.6696 16.9126V14.8846C93.5725 14.6523 91.5043 14.2089 89.4968 13.5611ZM82.8092 10.1734H91.3041C90.3455 10.8913 88.8881 11.7589 86.9172 12.5784C84.5897 11.5464 83.2355 10.5196 82.8092 10.1734Z" fill="black"/>
<path d="M12.2779 9.94746L17.6476 19.2094H21.4969L12.1411 3.05713L0.350586 23.4206H4.47607L12.2792 9.94746H12.2779Z" fill="url(#paint0_linear_801:12623)"/>
<path d="M8.94737 24.497L14.2192 15.4061L12.2912 12.0813L3.03735 28.0571H26.6158L24.555 24.497H8.94737Z" fill="url(#paint1_linear_801:12623)"/>
<path d="M12.7099 20.0958L10.7859 23.4206H29.3043L17.5097 3.05713L15.4477 6.62128L23.2508 20.0958H12.7085H12.7099Z" fill="url(#paint2_linear_801:12623)"/>
<defs>
<linearGradient id="paint0_linear_801:12623" x1="21.5325" y1="11.5646" x2="0.350586" y2="19.8985" gradientUnits="userSpaceOnUse">
<stop stop-color="#2153F6"/>
<stop offset="1" stop-color="#5AA2F8"/>
</linearGradient>
<linearGradient id="paint1_linear_801:12623" x1="12.6778" y1="15.2108" x2="12.1106" y2="29.9338" gradientUnits="userSpaceOnUse">
<stop stop-color="#2153F6"/>
<stop offset="1" stop-color="#5AA2F8"/>
</linearGradient>
<linearGradient id="paint2_linear_801:12623" x1="14.414" y1="23.5445" x2="24.4779" y2="14.0399" gradientUnits="userSpaceOnUse">
<stop stop-color="#2153F6"/>
<stop offset="1" stop-color="#5AA2F8"/>
</linearGradient>
</defs>
</svg>
