<svg width="110" height="34" viewBox="0 0 110 34" fill="none" xmlns="http://www.w3.org/2000/svg">
<g clip-path="url(#clip0)">
<path d="M67.7081 14.0646H65.4962V26.2874H67.7081V14.0646Z" fill="white" fill-opacity="0.9"/>
<path d="M67.8171 9.71313H65.3877V11.919H67.8171V9.71313Z" fill="white" fill-opacity="0.9"/>
<path d="M86.3097 16.1378C85.8142 14.6189 84.2308 13.5461 82.297 13.5461C79.9522 13.5461 78.115 15.1252 78.115 17.1382C78.115 19.5008 80.5807 20.429 82.0553 20.7785C84.3759 21.321 84.8593 22.0804 84.8593 22.6108C84.8593 23.5751 83.6869 24.3586 82.2486 24.3586C80.8345 24.3586 79.9643 23.7679 79.4566 22.7434L77.8975 23.6474C78.4414 25.1903 80.1577 26.2752 82.2486 26.2752C84.7868 26.2752 86.7811 24.6599 86.7811 22.6108C86.7811 20.8147 85.3307 19.5611 82.4783 18.8981C81.3542 18.6329 80.0247 18.1267 80.0247 17.1382C80.0247 16.198 81.0158 15.4627 82.2728 15.4627C83.5419 15.4627 84.3396 16.0293 84.7506 17.0056" fill="white" fill-opacity="0.9"/>
<path d="M76.4826 13.7872H69.001V15.764H76.4826V13.7872Z" fill="white" fill-opacity="0.9"/>
<path d="M75.0443 26.2871C73.7148 26.2871 71.2129 25.9496 71.2129 22.6227V11.0268L73.4247 10.3276V22.6107C73.4247 23.9728 74.2708 24.1656 75.0806 24.1536C75.564 24.1415 76.0596 23.8884 76.6156 23.6594L77.3287 25.6483C76.7727 25.9376 75.9025 26.2871 75.0443 26.2871Z" fill="white" fill-opacity="0.9"/>
<path d="M61.8102 17.6567C62.898 16.9335 63.4057 15.5834 63.4057 14.2816C63.4057 11.6418 61.1696 9.71313 58.3897 9.71313H51.4883V26.2874H59.1874C61.8586 26.2874 64.0946 24.4431 64.0946 21.9118C64.0946 20.3086 63.5628 18.6331 61.8102 17.6567ZM58.3897 11.919C59.9731 11.919 61.1938 12.8592 61.1938 14.2816C61.1938 15.6678 60.2873 16.8973 58.7161 16.8973H53.9298V11.919H58.3897ZM59.1874 24.0695H53.9177V18.8983H59.2841C60.8796 18.8983 61.8828 20.3207 61.8828 21.5502C61.8828 22.8641 60.8191 24.0695 59.1874 24.0695Z" fill="white" fill-opacity="0.9"/>
<path d="M36.162 10.9304H28.9463V16.873H36.162V24.0572H42.1086V16.873V10.9304H36.162Z" fill="#0050C1"/>
<path d="M28.9466 24.0575V16.8733H23V24.0575V30.0001H28.9466H36.1623V24.0575H28.9466Z" fill="#008AFF"/>
<path d="M23 5.00547V10.936H28.9466V5.00547H23Z" fill="#0050C1"/>
</g>
<defs>
<clipPath id="clip0">
<rect width="63.7931" height="25" fill="white" transform="translate(23 5)"/>
</clipPath>
</defs>
</svg>
