<svg width="110" height="34" viewBox="0 0 110 34" fill="none" xmlns="http://www.w3.org/2000/svg">
<g clip-path="url(#clip0)">
<path d="M87.5225 22.8778C87.1085 22.6988 86.6254 22.8948 86.4529 23.3039C86.2631 23.7471 85.8231 24.0369 85.3314 24.0369H84.6327V21.4971H84.788C86.565 21.4971 88.0142 20.0653 88.0142 18.3096V14.3125C88.0142 12.5568 86.565 11.125 84.788 11.125H84.6327V10.1449C84.6327 9.70168 84.2704 9.33521 83.8132 9.33521C83.3646 9.33521 82.9937 9.69316 82.9937 10.1449V11.125H82.8384C81.0614 11.125 79.6121 12.5568 79.6121 14.3125V18.3011C79.6121 20.0568 81.0614 21.4886 82.8384 21.4886H82.9937V24.0283H80.423C79.9745 24.0283 79.6035 24.3863 79.6035 24.838C79.6035 25.2812 79.9658 25.6477 80.423 25.6477H85.3228C86.4701 25.6477 87.5053 24.9744 87.9539 23.9261C88.135 23.5255 87.9366 23.0482 87.5225 22.8778ZM84.6241 12.7443H84.7794C85.6592 12.7443 86.3666 13.4517 86.3666 14.3125V18.3011C86.3666 19.1704 85.6506 19.8693 84.7794 19.8693H84.6241V12.7443ZM82.9851 19.8778H82.8298C81.9499 19.8778 81.2425 19.1704 81.2425 18.3096V14.3125C81.2425 13.4431 81.9585 12.7443 82.8298 12.7443H82.9851V19.8778Z" fill="#BCBCBD"/>
<path d="M95.3297 11.5936C95.7783 11.5936 96.1492 11.2357 96.1492 10.784C96.1492 10.3408 95.7869 9.97433 95.3297 9.97433H88.1784C87.7298 9.97433 87.3589 10.3323 87.3589 10.784C87.3589 11.2272 87.7212 11.5936 88.1784 11.5936H90.3867V24.855C90.3867 25.2981 90.7491 25.6646 91.2063 25.6646C91.6548 25.6646 92.0258 25.3067 92.0258 24.855V18.0283L94.7862 20.4743C94.9415 20.6107 95.1399 20.6788 95.3297 20.6788C95.554 20.6788 95.7783 20.5851 95.9422 20.4146C96.2441 20.0822 96.2182 19.5709 95.8818 19.2726L92.0344 15.855V11.5936H95.3297Z" fill="#BCBCBD"/>
<path d="M56.917 12.2239C57.6589 12.2239 58.2972 12.7183 58.4611 13.4342C58.5647 13.8688 59.0046 14.1415 59.4446 14.0393C59.8845 13.937 60.1605 13.5023 60.057 13.0677C59.712 11.6188 58.418 10.6131 56.917 10.6131H53.4751V10.1529C53.4751 9.70974 53.1128 9.34326 52.6556 9.34326C52.207 9.34326 51.8361 9.70121 51.8361 10.1529V10.6131H48.1871C46.4791 10.6131 45.0644 11.9342 44.9695 13.6131L44.3139 24.8034C44.288 25.2466 44.633 25.6301 45.0816 25.6557C45.0989 25.6557 45.1161 25.6557 45.1334 25.6557C45.5647 25.6557 45.927 25.3233 45.9529 24.8972L46.4187 17.0307H56.8739C57.2621 17.0307 57.5985 17.2182 57.8055 17.5421C58.0039 17.866 58.0212 18.2495 57.8487 18.5904C57.5295 19.2125 56.7445 19.9881 55.856 20.7807L53.7598 18.9483C53.4751 18.7012 53.199 18.5137 52.9058 18.3688C52.7677 18.3006 52.6297 18.241 52.4831 18.1983C52.069 18.0535 51.6377 17.9853 51.1977 17.9853C50.1281 17.9853 49.1274 18.4114 48.3855 19.1785C47.6437 19.9455 47.2641 20.9512 47.3159 22.0165C47.4107 24.062 49.1533 25.6728 51.284 25.6728H51.3357C52.2415 25.6642 53.1214 25.3148 53.8115 24.6841C54.2687 24.2665 54.8208 23.8063 55.3901 23.3205C55.5368 23.1927 55.6921 23.0648 55.8474 22.937L58.7286 25.4597C58.8838 25.5961 59.0822 25.6642 59.272 25.6642C59.4963 25.6642 59.7206 25.5705 59.8845 25.3915C60.1864 25.0591 60.1519 24.5478 59.8155 24.2495L57.0895 21.8631C58.0643 20.9938 58.8925 20.1245 59.3065 19.3233C59.7379 18.4796 59.7033 17.4995 59.203 16.6898C58.7027 15.8887 57.8314 15.4029 56.8825 15.4029H53.4923V12.2239H56.917ZM51.8361 15.4114H46.505L46.6085 13.7069C46.6602 12.8802 47.3504 12.2239 48.1957 12.2239H51.8447V15.4114H51.8361ZM54.3205 22.0847C53.7339 22.579 53.1732 23.0478 52.6901 23.4909C52.2933 23.8489 51.8188 24.0449 51.3185 24.0449H51.2754C50.0418 24.0449 48.998 23.0989 48.9462 21.9313C48.9204 21.3177 49.136 20.7296 49.5673 20.2864C49.9987 19.8432 50.5766 19.5961 51.1977 19.5961C51.4565 19.5961 51.6981 19.6387 51.9396 19.7154C52.0259 19.741 52.1035 19.775 52.1811 19.8177C52.3364 19.8944 52.4917 20.0052 52.6642 20.15L54.5965 21.8461C54.5016 21.9313 54.4067 22.008 54.3205 22.0847Z" fill="#BCBCBD"/>
<path d="M74.5578 12.2244C75.2997 12.2244 75.938 12.7187 76.1019 13.4346C76.2054 13.8693 76.6454 14.142 77.0853 14.0398C77.5253 13.9375 77.8013 13.5028 77.6978 13.0682C77.3528 11.6193 76.0588 10.6136 74.5578 10.6136H71.1159V10.1534C71.1159 9.71023 70.7536 9.34375 70.2964 9.34375C69.8478 9.34375 69.4769 9.7017 69.4769 10.1534V10.6136H65.8279C64.1199 10.6136 62.7051 11.9347 62.6103 13.6136L61.9633 24.8039C61.9374 25.2471 62.2825 25.6306 62.731 25.6562C62.7483 25.6562 62.7655 25.6562 62.7828 25.6562C63.2141 25.6562 63.5764 25.3238 63.6023 24.8977L64.0595 17.0312H74.5147C74.9029 17.0312 75.2393 17.2187 75.4463 17.5426C75.6447 17.8664 75.662 18.25 75.4895 18.5909C75.1703 19.213 74.3853 19.9886 73.4968 20.7812L71.4005 18.9488C71.1159 18.7017 70.8398 18.5142 70.5465 18.3693C70.4085 18.3011 70.2705 18.2414 70.1238 18.1988C69.7098 18.0539 69.2785 17.9858 68.8385 17.9858C67.7688 17.9858 66.7682 18.4119 66.0263 19.1789C65.2844 19.946 64.9049 20.9517 64.9566 22.017C65.0515 24.0624 66.7941 25.6732 68.9248 25.6732H68.9765C69.8996 25.6647 70.7536 25.3238 71.4523 24.6846C71.9095 24.267 72.4616 23.8068 73.0309 23.321C73.1776 23.1931 73.3329 23.0653 73.4795 22.9375L76.3607 25.4602C76.516 25.5965 76.7144 25.6647 76.9042 25.6647C77.1285 25.6647 77.3528 25.571 77.5167 25.392C77.8186 25.0596 77.7841 24.5482 77.4476 24.2499L74.7217 21.8636C75.6965 20.9943 76.5246 20.125 76.9387 19.3238C77.37 18.4801 77.3355 17.5 76.8352 16.6903C76.3348 15.8892 75.4636 15.4034 74.5147 15.4034H71.1245V12.2244H74.5578ZM69.4855 15.4119H64.1544L64.2579 13.7074C64.3097 12.8807 64.9998 12.2244 65.8452 12.2244H69.4941V15.4119H69.4855ZM71.9613 22.0852C71.3747 22.5795 70.814 23.0482 70.3309 23.4914C69.9341 23.8494 69.4596 24.0454 68.9593 24.0454H68.9161C67.6826 24.0454 66.6388 23.0994 66.587 21.9318C66.5611 21.3181 66.7768 20.7301 67.2081 20.2869C67.6394 19.8437 68.2174 19.5966 68.8385 19.5966C69.0973 19.5966 69.3388 19.6392 69.5804 19.7159C69.6666 19.7414 69.7443 19.7755 69.8219 19.8181C69.9772 19.8949 70.1325 20.0056 70.305 20.1505L72.2373 21.8465C72.1424 21.9318 72.0562 22.0085 71.9613 22.0852Z" fill="#BCBCBD"/>
<path d="M18.2618 30.9999C17.3819 30.9999 16.5796 30.4203 16.3381 29.5425L14.3368 22.1192C12.9393 16.963 16.0448 11.6533 21.2637 10.2727L26.4827 8.89198C29.0016 8.22721 31.6327 8.57664 33.91 9.87209C36.1788 11.1675 37.8005 13.2556 38.4734 15.7357C39.8708 20.8919 36.7567 26.2016 31.5464 27.5823L23.3858 29.7385C23.1702 29.8152 22.4024 30.0283 18.7362 30.9402C18.5723 30.9743 18.417 30.9999 18.2618 30.9999ZM26.8278 10.196L21.6174 11.5766C17.1317 12.7613 14.4489 17.338 15.648 21.7698L17.6493 29.193C17.7356 29.5169 18.072 29.7129 18.3998 29.6277C22.0746 28.7158 22.7734 28.5198 22.8941 28.4771C22.92 28.4686 22.9545 28.4516 22.989 28.4431L31.1755 26.2783C33.3407 25.7073 35.1522 24.3266 36.2823 22.4005C37.4123 20.4743 37.7143 18.2243 37.1363 16.0851C36.5583 13.9459 35.1608 12.1562 33.2027 11.0397C31.2617 9.92323 28.993 9.62494 26.8278 10.196ZM22.8941 28.4857C22.8855 28.4942 22.8769 28.4942 22.8682 28.4942C22.8769 28.4942 22.8855 28.4857 22.8941 28.4857Z" fill="#BCBCBD"/>
<path d="M23.0925 16.4602L23.0666 16.4687C20.5563 17.1335 17.9511 15.642 17.2783 13.1619L17.2524 13.0767C16.5882 10.5966 18.0978 8.02274 20.6081 7.35797L20.6339 7.34944C23.1442 6.68467 25.7494 8.17615 26.4222 10.6563L26.4481 10.7415C27.1037 13.2301 25.6027 15.7954 23.0925 16.4602Z" fill="#202022"/>
<path d="M33.0556 13.8266L32.6761 13.9289C30.2607 14.5681 27.759 13.1362 27.1207 10.7499L26.9999 10.3067C26.3529 7.92036 27.8022 5.44878 30.2175 4.8181L30.5971 4.71582C33.0125 4.07662 35.5141 5.50843 36.1525 7.89479L36.2733 8.33797C36.9202 10.7243 35.471 13.1959 33.0556 13.8266Z" fill="#202022"/>
<path d="M31.6496 14.6536C29.286 14.6536 27.1121 13.0939 26.4738 10.7246L26.4565 10.665C25.6974 7.84396 27.3968 4.93772 30.2521 4.18772C31.6323 3.82124 33.073 4.01726 34.3151 4.72465C35.5573 5.43203 36.4459 6.57407 36.8082 7.93771L36.8254 7.99736C37.1964 9.361 36.998 10.7843 36.282 12.0116C35.566 13.2388 34.41 14.1167 33.0298 14.4746C32.564 14.5939 32.0982 14.6536 31.6496 14.6536ZM31.6237 5.22749C31.27 5.22749 30.9164 5.2701 30.5627 5.36385C28.3716 5.94339 27.0604 8.17634 27.647 10.3411L27.6642 10.4008C28.2508 12.5655 30.5109 13.861 32.702 13.2814C33.7631 13.0002 34.643 12.3269 35.195 11.3809C35.7471 10.4349 35.8938 9.34395 35.6091 8.29566L35.5919 8.236C35.3072 7.18771 34.6257 6.31839 33.6682 5.77294C33.0471 5.41499 32.3397 5.22749 31.6237 5.22749Z" fill="#BCBCBD"/>
<path d="M32.8056 11.5769C32.6762 11.5769 32.5468 11.5514 32.4261 11.4917L29.8727 10.3071C29.6225 10.1877 29.4414 9.96614 29.381 9.70194C29.3206 9.43774 29.3896 9.15649 29.5621 8.95194L31.2443 6.94911C31.5548 6.57411 32.1155 6.52297 32.4951 6.82979C32.8747 7.13661 32.9264 7.69058 32.6159 8.06558L31.667 9.1991L33.1852 9.90648C33.6338 10.111 33.8236 10.6394 33.6079 11.0741C33.4612 11.3894 33.1421 11.5769 32.8056 11.5769Z" fill="#BCBCBD"/>
<path d="M21.8586 17.2361C20.9269 17.2361 20.0125 16.9974 19.1758 16.5201C17.9336 15.8128 17.0451 14.6707 16.6828 13.3071L16.6655 13.2474C16.2946 11.8838 16.493 10.4605 17.209 9.23324C17.925 8.00597 19.0809 7.12813 20.4525 6.77018C23.3078 6.01166 26.2494 7.69915 27.0085 10.5202L27.0258 10.5798C27.7849 13.4008 26.0855 16.3071 23.2302 17.0571C22.7816 17.1764 22.3158 17.2361 21.8586 17.2361ZM21.8413 7.80995C21.4877 7.80995 21.134 7.85256 20.7803 7.94631C19.7192 8.22756 18.8307 8.90085 18.2786 9.84687C17.7265 10.7929 17.5799 11.8838 17.8646 12.9321L17.8818 12.9918C18.1665 14.04 18.848 14.9094 19.8055 15.4548C20.763 16.0003 21.8672 16.1451 22.9283 15.8639C25.1194 15.2844 26.4306 13.0514 25.844 10.8866L25.8267 10.827C25.3264 9.01165 23.6529 7.80995 21.8413 7.80995Z" fill="#BCBCBD"/>
<path d="M21.5398 14.5683C21.3672 14.5683 21.1861 14.5172 21.0308 14.4064C20.6254 14.1251 20.5305 13.5797 20.8065 13.1791L21.764 11.824L20.3666 11.3127C19.9094 11.1422 19.6678 10.6394 19.8404 10.1791C20.0129 9.72743 20.5218 9.4888 20.9877 9.65925L23.4548 10.5712C23.7136 10.6649 23.912 10.8695 23.9896 11.1337C24.0759 11.3894 24.0241 11.6791 23.8689 11.9007L22.2557 14.1848C22.1005 14.432 21.8244 14.5683 21.5398 14.5683Z" fill="#BCBCBD"/>
<path d="M28.7684 21.3181C27.345 21.3181 26.0338 20.3721 25.6456 18.9488C25.5421 18.5823 25.7664 18.1988 26.146 18.0965C26.5169 17.9943 26.9051 18.2159 27.0086 18.5909C27.2674 19.5539 28.2767 20.1249 29.2428 19.8693C29.7173 19.7414 30.1055 19.4431 30.3556 19.0255C30.5972 18.6079 30.6662 18.1221 30.5368 17.6534C30.4333 17.2869 30.6576 16.9034 31.0371 16.8011C31.4081 16.6988 31.7962 16.9204 31.8998 17.2954C32.124 18.1221 32.0119 18.9829 31.5806 19.7159C31.1493 20.4573 30.4505 20.9857 29.6224 21.2073C29.3205 21.284 29.0444 21.3181 28.7684 21.3181Z" fill="#BCBCBD"/>
</g>
<defs>
<clipPath id="clip0">
<rect width="82.9997" height="27" fill="white" transform="translate(14 4)"/>
</clipPath>
</defs>
</svg>
