<svg width="110" height="34" viewBox="0 0 110 34" fill="none" xmlns="http://www.w3.org/2000/svg">
<g clip-path="url(#clip0)">
<path fill-rule="evenodd" clip-rule="evenodd" d="M9.67163 10.8906C8.44699 12.961 7.87282 15.3516 8.02361 17.7523L8.02234 17.6959C8.07252 18.3366 8.3244 18.9458 8.74293 19.4354C9.18001 19.9467 9.7742 20.2987 10.4326 20.4365C11.9685 20.6846 13.3885 21.4062 14.4944 22.5004C15.6003 23.5946 16.3369 25.0069 16.6014 26.54C16.7345 27.2198 17.0953 27.8339 17.6243 28.2811C18.1533 28.7283 18.8189 28.9819 19.5114 29H20.0004C22.4058 28.9999 24.7557 28.277 26.7451 26.9249C28.7346 25.5728 30.2718 23.654 31.1573 21.4175C32.0428 19.181 32.2357 16.73 31.7111 14.3825C31.1864 12.035 29.9683 9.89938 28.2149 8.25269C26.4615 6.606 24.2536 5.52427 21.8779 5.14785C19.5021 4.77143 17.068 5.1177 14.8914 6.14173C12.7149 7.16575 10.8963 8.82027 9.67163 10.8906ZM24.6784 18.3935C23.1736 19.9468 21.2607 21.0434 19.1599 21.557C18.6585 21.6765 18.1304 21.6001 17.6835 21.3433C17.2366 21.0866 16.9046 20.6688 16.7554 20.1755C16.1653 18.1029 16.1653 15.9068 16.7554 13.8342C16.9005 13.3402 17.231 12.9213 17.6776 12.6652C18.1243 12.409 18.6527 12.3353 19.1524 12.4595C21.2571 12.9755 23.1728 14.0763 24.6784 15.635C25.0296 16.0083 25.2252 16.5016 25.2252 17.0142C25.2252 17.5268 25.0296 18.0201 24.6784 18.3935Z" fill="#BCBCBD"/>
<path fill-rule="evenodd" clip-rule="evenodd" d="M101.277 9.78953H94.9867C94.9261 9.78934 94.8674 9.81088 94.8213 9.85023C94.7752 9.88958 94.7448 9.94414 94.7354 10.004L94.6349 10.9363C94.6326 10.9642 94.6359 10.9922 94.6447 11.0188C94.6588 11.0588 94.6855 11.0932 94.7208 11.1169C94.7561 11.1405 94.798 11.1521 94.8404 11.15H97.2562L96.7904 12.59H95.0309C94.936 12.5884 94.8437 12.6216 94.7716 12.6834C94.6995 12.7452 94.6524 12.8312 94.6394 12.9253L93.8992 19.9453C93.8966 19.9735 93.9001 20.002 93.9094 20.0288C93.9188 20.0556 93.9338 20.08 93.9534 20.1005C93.973 20.121 93.9968 20.137 94.0232 20.1475C94.0495 20.158 94.0779 20.1627 94.1062 20.1613H95.0219C95.0826 20.1618 95.1415 20.1403 95.1876 20.1009C95.2338 20.0615 95.2642 20.0068 95.2732 19.9468L95.9069 13.9205C95.9088 13.904 95.9169 13.8887 95.9294 13.8778C95.9419 13.867 95.958 13.8613 95.9744 13.862H99.5459C99.5537 13.8617 99.5615 13.863 99.5687 13.8658C99.5759 13.8687 99.5825 13.873 99.5879 13.8785C99.5933 13.8839 99.5976 13.8903 99.6007 13.8973C99.6037 13.9048 99.6044 13.9123 99.6044 13.9198L98.9684 19.9468C98.9662 19.9752 98.9698 20.0038 98.9789 20.0308C98.9932 20.0711 99.0199 20.1058 99.0553 20.1298C99.0906 20.1538 99.1327 20.1659 99.1754 20.1643H100.091C100.154 20.1621 100.214 20.1374 100.26 20.0945C100.306 20.0517 100.336 19.9936 100.342 19.931L101.083 12.926C101.088 12.8828 101.084 12.8389 101.07 12.7977C101.056 12.7565 101.033 12.7189 101.002 12.6875C100.973 12.6561 100.936 12.6315 100.896 12.6154C100.856 12.5994 100.812 12.5923 100.769 12.5945H98.1689L98.6144 11.1523H101.121C101.182 11.1531 101.241 11.1319 101.287 11.0926C101.333 11.0533 101.363 10.9985 101.372 10.9385L101.473 9.99503C101.474 9.96851 101.47 9.94201 101.461 9.91712C101.451 9.89223 101.437 9.86949 101.419 9.85026C101.401 9.83104 101.379 9.81574 101.354 9.8053C101.33 9.79486 101.303 9.78949 101.277 9.78953ZM93.3262 16.823H92.3939C92.3367 16.8224 92.2812 16.843 92.2381 16.8808C92.1951 16.9186 92.1675 16.9709 92.1607 17.0278C92.1545 17.0695 92.1477 17.1181 92.1401 17.1726C92.0707 17.6688 91.9333 18.6504 91.5974 19.358C90.8707 20.8955 89.7989 22.0528 86.9242 22.787C86.8705 22.7998 86.8204 22.8161 86.7741 22.8312C86.7278 22.8463 86.6853 22.8602 86.6467 22.868C86.5854 22.8833 86.5303 22.9169 86.4886 22.9644C86.4469 23.0118 86.4207 23.0708 86.4134 23.1335L86.3039 24.143C86.298 24.186 86.3064 24.2298 86.3279 24.2675C86.3503 24.3052 86.3846 24.3343 86.4254 24.35C86.4665 24.3629 86.5104 24.3629 86.5514 24.35C92.1727 22.8658 93.0974 20.5063 93.5264 17.033C93.5289 17.0054 93.5256 16.9775 93.5167 16.9513C93.5036 16.9118 93.4779 16.8778 93.4434 16.8546C93.4089 16.8314 93.3677 16.8203 93.3262 16.823ZM75.7064 19.46C75.5924 18.785 75.2804 16.6438 75.2197 16.0423C75.2138 15.9982 75.1917 15.9578 75.1578 15.929C75.1239 15.9002 75.0804 15.885 75.0359 15.8863H73.9852C74.0669 15.7258 75.3127 13.2493 75.5302 12.7693C75.6674 12.4715 75.8092 12.1453 75.9164 11.8378C75.9321 11.7961 75.9371 11.7512 75.931 11.707C75.925 11.6629 75.908 11.621 75.8816 11.5851C75.8552 11.5492 75.8203 11.5205 75.7801 11.5015C75.7398 11.4825 75.6954 11.4738 75.6509 11.4763H74.1644L74.2042 11.0938L74.3317 9.85478C74.3342 9.82715 74.3307 9.7993 74.3216 9.77312C74.3124 9.74693 74.2977 9.72302 74.2785 9.70298C74.2594 9.68294 74.2361 9.66724 74.2103 9.65694C74.1846 9.64665 74.1569 9.64199 74.1292 9.64328H73.2232C73.1628 9.64267 73.1043 9.66401 73.0585 9.70333C73.0127 9.74265 72.9827 9.79727 72.9742 9.85703L72.8039 11.4883H70.8352C70.7749 11.4878 70.7164 11.5092 70.6707 11.5485C70.6249 11.5878 70.5949 11.6423 70.5862 11.702L70.5142 12.6485C70.5111 12.6767 70.5142 12.7052 70.5232 12.732C70.5322 12.7589 70.547 12.7834 70.5665 12.804C70.586 12.8245 70.6097 12.8406 70.6361 12.8511C70.6624 12.8615 70.6907 12.8661 70.7189 12.8645H73.9574C73.4909 14.03 70.4624 18.95 69.6802 20.087C69.6619 20.1101 69.6506 20.138 69.6478 20.1674C69.6449 20.1967 69.6505 20.2263 69.6639 20.2525C69.6773 20.2788 69.698 20.3006 69.7235 20.3154C69.749 20.3302 69.7782 20.3374 69.8077 20.336H70.9732C71.0426 20.3348 71.1108 20.317 71.172 20.2841C71.2331 20.2512 71.2856 20.2042 71.3249 20.147C71.4082 20.0195 72.3097 18.5165 72.4477 18.2465L71.7877 24.1168C71.7832 24.1462 71.7855 24.1763 71.7944 24.2047C71.8033 24.2331 71.8186 24.2591 71.8391 24.2807C71.8595 24.3024 71.8847 24.319 71.9125 24.3295C71.9404 24.3399 71.9703 24.3439 71.9999 24.341H72.9787C73.0397 24.341 73.0986 24.3189 73.1448 24.279C73.1909 24.2391 73.2211 24.1839 73.2299 24.1235L73.9289 16.6273C74.0414 17.5588 74.2462 19.0648 74.3189 19.5373C74.3263 19.5794 74.3487 19.6174 74.3819 19.6442C74.4152 19.6711 74.457 19.6851 74.4997 19.6835H75.5197C75.5473 19.6828 75.5743 19.6762 75.5992 19.6642C75.624 19.6522 75.646 19.6351 75.6637 19.6139C75.6814 19.5928 75.6945 19.5682 75.702 19.5416C75.7094 19.5151 75.7112 19.4873 75.7072 19.46H75.7064ZM84.3847 9.80603H77.6894C77.5935 9.80555 77.5006 9.83974 77.4278 9.9023C77.3551 9.96486 77.3074 10.0516 77.2934 10.1465L76.3109 19.4645C76.3081 19.4925 76.3113 19.5208 76.3204 19.5474C76.3295 19.574 76.3443 19.5983 76.3636 19.6187C76.383 19.639 76.4066 19.655 76.4327 19.6654C76.4588 19.6758 76.4869 19.6805 76.5149 19.679H77.4472C77.5079 19.6791 77.5665 19.6571 77.6123 19.6173C77.6581 19.5774 77.6879 19.5224 77.6962 19.4623L78.5609 11.276C78.5649 11.2493 78.5784 11.225 78.599 11.2075C78.6195 11.19 78.6457 11.1805 78.6727 11.1808H83.1314C83.144 11.1802 83.1566 11.1824 83.1683 11.1872C83.1799 11.192 83.1904 11.1992 83.1989 11.2085C83.2079 11.2183 83.2139 11.2288 83.2184 11.2408C83.2222 11.2528 83.2237 11.2655 83.2222 11.2783L82.3372 19.4623C82.3342 19.4907 82.3374 19.5194 82.3466 19.5464C82.3558 19.5734 82.3708 19.5981 82.3905 19.6188C82.4102 19.6395 82.4341 19.6557 82.4606 19.6662C82.4872 19.6767 82.5157 19.6813 82.5442 19.6798H83.4599C83.5208 19.6806 83.5799 19.6592 83.6262 19.6195C83.6724 19.5799 83.7026 19.5248 83.7112 19.4645L84.7154 10.1465C84.7202 10.1015 84.715 10.056 84.7002 10.0132C84.6854 9.97035 84.6613 9.93132 84.6298 9.89884C84.5982 9.86635 84.5599 9.8412 84.5176 9.82516C84.4752 9.80912 84.4299 9.80259 84.3847 9.80603ZM39.2989 9.77089L52.9826 9.78289H52.9834C53.0079 9.78025 53.0327 9.7829 53.0561 9.79066C53.0795 9.79842 53.101 9.81112 53.1191 9.82789C53.137 9.84482 53.1511 9.86532 53.1605 9.88806C53.17 9.91081 53.1745 9.93528 53.1739 9.95989L53.0666 10.9596C53.0592 11.0115 53.0332 11.0589 52.9935 11.0931C52.9538 11.1273 52.903 11.146 52.8506 11.1456H48.2981L48.0649 13.2426H52.0609C52.1052 13.2398 52.1496 13.2468 52.1909 13.263C52.2323 13.2792 52.2696 13.3043 52.3002 13.3364C52.3308 13.3686 52.3539 13.4071 52.3681 13.4492C52.3822 13.4913 52.3869 13.536 52.3819 13.5801L51.2869 23.9264C51.2714 24.0327 51.2181 24.1298 51.1369 24.2001C51.0556 24.2703 50.9518 24.3089 50.8444 24.3089H38.4064C38.3564 24.3112 38.3065 24.3027 38.26 24.284C38.2136 24.2653 38.1717 24.2369 38.1373 24.2006C38.1028 24.1643 38.0765 24.1211 38.0601 24.0738C38.0438 24.0265 38.0378 23.9762 38.0426 23.9264L39.1399 13.5689C39.1528 13.4776 39.1985 13.3941 39.2685 13.3341C39.3385 13.2741 39.4279 13.2415 39.5201 13.2426H43.5176C43.5754 12.8976 43.8086 11.4539 43.8529 11.1464H39.1639C39.1366 11.1474 39.1094 11.1425 39.0841 11.1321C39.0588 11.1218 39.036 11.1061 39.0173 11.0862C38.9986 11.0663 38.9843 11.0427 38.9754 11.0169C38.9665 10.991 38.9633 10.9636 38.9659 10.9364L39.0664 9.98089C39.072 9.92321 39.0989 9.8697 39.1419 9.83085C39.1849 9.792 39.2409 9.77062 39.2989 9.77089ZM46.9121 11.1501H45.2201C45.1774 11.4554 44.9449 12.9021 44.8774 13.2471H46.6796L46.9121 11.1501ZM50.7678 14.6565C50.7447 14.6474 50.7199 14.6436 50.6951 14.6451L47.9186 14.6309L47.4521 18.9546H49.3159C49.3357 18.9536 49.3556 18.9568 49.3741 18.9641C49.3926 18.9715 49.4093 18.9827 49.4231 18.9971C49.4368 19.0115 49.4473 19.0287 49.4538 19.0475C49.4603 19.0663 49.4626 19.0863 49.4606 19.1061L49.3466 20.1801C49.3407 20.2226 49.3195 20.2614 49.2868 20.2892C49.2542 20.317 49.2125 20.3318 49.1696 20.3309H46.2971C46.2529 20.333 46.2088 20.3256 46.1677 20.3092C46.1267 20.2928 46.0896 20.2677 46.0591 20.2357C46.0286 20.2037 46.0053 20.1655 45.9908 20.1237C45.9764 20.0819 45.9711 20.0374 45.9754 19.9934L46.5439 14.6354H44.5961L44.573 14.7471C44.4725 15.2327 44.3491 15.8294 44.2309 16.2899C44.1796 16.488 44.1236 16.7266 44.0663 16.9708C43.9801 17.3378 43.891 17.7172 43.8109 17.9901C43.6774 18.4439 43.5386 18.8714 43.3939 19.2741C43.2844 19.5839 43.1756 19.8681 43.0654 20.1194C43.0369 20.1839 42.9902 20.2388 42.9311 20.2772C42.8719 20.3157 42.8029 20.3362 42.7324 20.3361H41.6374C41.614 20.3374 41.5907 20.3325 41.5699 20.3219C41.549 20.3113 41.5313 20.2954 41.5186 20.2757C41.5059 20.2561 41.4986 20.2334 41.4974 20.2101C41.4963 20.1867 41.5014 20.1634 41.5121 20.1426C41.857 19.4193 42.1488 18.6719 42.3851 17.9061C42.6814 16.9746 43.0331 15.6051 43.2521 14.6451H40.6151C40.5626 14.6471 40.5123 14.6667 40.4724 14.7009C40.4325 14.7351 40.4053 14.7818 40.3954 14.8334L39.5554 22.7729C39.5533 22.7955 39.5561 22.8183 39.5636 22.8398C39.571 22.8612 39.5829 22.8809 39.5985 22.8974C39.6141 22.9139 39.633 22.9269 39.654 22.9356C39.6751 22.9443 39.6977 22.9484 39.7204 22.9476H49.8334C49.8823 22.948 49.9298 22.9305 49.9667 22.8983C50.0036 22.8661 50.0274 22.8215 50.0336 22.7729L50.8751 14.8334C50.8778 14.8087 50.875 14.7838 50.8671 14.7603C50.8591 14.7368 50.846 14.7153 50.8289 14.6974C50.8118 14.6795 50.7909 14.6655 50.7678 14.6565ZM89.7544 15.6051H87.7324V15.6044C87.6751 15.6069 87.618 15.5969 87.565 15.5751C87.512 15.5532 87.4644 15.5201 87.4256 15.4779C87.3867 15.4358 87.3575 15.3857 87.34 15.3311C87.3226 15.2765 87.3172 15.2188 87.3244 15.1619L87.3521 14.9294L87.8629 10.3604C87.8726 10.3008 87.9033 10.2466 87.9493 10.2074C87.9953 10.1683 88.0537 10.1467 88.1141 10.1466H88.9834C89.0115 10.1453 89.0396 10.1499 89.0659 10.1601C89.1055 10.1759 89.139 10.2043 89.161 10.2408C89.1831 10.2774 89.1926 10.3202 89.1881 10.3626L88.7921 14.1651C88.7902 14.18 88.7915 14.1951 88.7959 14.2095C88.8003 14.2238 88.8077 14.237 88.8176 14.2483C88.8276 14.2595 88.8398 14.2685 88.8535 14.2746C88.8673 14.2807 88.8821 14.2838 88.8971 14.2836H90.0619L90.5276 9.85714C90.5371 9.79726 90.5678 9.74278 90.614 9.70356C90.6602 9.66435 90.719 9.643 90.7796 9.64339H91.6946C91.723 9.6419 91.7513 9.64656 91.7778 9.65704C91.8042 9.66753 91.828 9.68359 91.8476 9.70414C91.8669 9.72477 91.8816 9.7493 91.8907 9.77608C91.8997 9.80286 91.9029 9.83126 91.9001 9.85939L91.7674 11.0969H93.4841C93.5007 11.0958 93.5173 11.0984 93.5329 11.1044C93.5561 11.1137 93.5756 11.1303 93.5886 11.1516C93.6016 11.173 93.6073 11.198 93.6049 11.2229L93.4909 12.2939C93.4858 12.3291 93.4681 12.3613 93.441 12.3845C93.414 12.4077 93.3795 12.4203 93.3439 12.4199H91.6271L91.4291 14.2836H93.6589C93.6755 14.2826 93.6921 14.2851 93.7076 14.2911C93.7309 14.3003 93.7505 14.3169 93.7635 14.3383C93.7765 14.3597 93.7822 14.3847 93.7796 14.4096L93.6656 15.4881C93.6587 15.5214 93.6406 15.5513 93.6145 15.5729C93.5883 15.5946 93.5556 15.6068 93.5216 15.6074H91.1216L90.6724 19.8771C90.6625 19.955 90.6251 20.0267 90.5669 20.0792C90.5087 20.1318 90.4335 20.1617 90.3551 20.1636H89.5354C89.502 20.1643 89.4689 20.1575 89.4385 20.1439C89.408 20.1303 89.3809 20.1101 89.3591 20.0849C89.3368 20.0601 89.3202 20.0308 89.3103 19.9989C89.3005 19.967 89.2977 19.9334 89.3021 19.9004L89.7544 15.6051ZM87.9791 20.2101H86.9583C86.9305 20.2105 86.9028 20.2048 86.8773 20.1936C86.8514 20.1823 86.8283 20.1655 86.8095 20.1444C86.7907 20.1233 86.7768 20.0984 86.7686 20.0714C86.76 20.0448 86.7571 20.0166 86.7603 19.9889C86.788 19.8212 86.8195 19.65 86.8539 19.4627C86.9588 18.8923 87.0913 18.1718 87.2268 16.9439C87.2326 16.8997 87.2546 16.8593 87.2886 16.8306C87.3226 16.8019 87.3661 16.7869 87.4106 16.7886H88.3893C88.4307 16.7871 88.4714 16.7988 88.5056 16.822C88.5399 16.8452 88.5659 16.8787 88.5798 16.9176C88.589 16.9433 88.5931 16.9706 88.5918 16.9979C88.5265 17.6648 88.2667 19.3662 88.1697 20.0009L88.1606 20.0609C88.1531 20.1033 88.1307 20.1416 88.0974 20.169C88.0641 20.1964 88.0222 20.2109 87.9791 20.2101ZM98.5578 20.4411C98.7458 20.9878 98.9796 21.5177 99.2568 22.0251C99.6498 22.7391 100.087 23.4291 100.566 24.0891C100.577 24.115 100.582 24.143 100.581 24.1711C100.579 24.1992 100.571 24.2265 100.557 24.2508C100.543 24.2752 100.523 24.296 100.5 24.3115C100.476 24.327 100.449 24.3369 100.422 24.3404H99.3596C99.269 24.3412 99.1795 24.3205 99.0984 24.2801C99.0173 24.2397 98.947 24.1807 98.8931 24.1079C98.5631 23.6181 98.2661 23.1066 98.0036 22.5779C97.7658 22.1226 97.4748 21.4919 97.2626 21.0254C96.9273 21.6787 96.5252 22.2955 96.0626 22.8659C95.6951 23.295 95.3016 23.7013 94.8843 24.0824C94.7208 24.2406 94.5033 24.3299 94.2761 24.3321H93.0506C93.0175 24.332 92.9853 24.3217 92.9583 24.3026C92.9312 24.2836 92.9107 24.2567 92.8995 24.2255C92.8883 24.1944 92.8869 24.1606 92.8956 24.1287C92.9042 24.0968 92.9225 24.0683 92.9478 24.0471C93.3648 23.6931 93.6678 23.4066 94.0361 23.0526C94.4925 22.6079 94.9124 22.1271 95.2916 21.6149C95.6307 21.1821 95.9215 20.7136 96.1586 20.2176C96.3598 19.7242 96.4952 19.2065 96.5613 18.6779L96.9341 15.1574C96.9407 15.1002 96.9679 15.0474 97.0106 15.0089C97.0539 14.9708 97.1097 14.95 97.1673 14.9504H98.0988C98.1261 14.9488 98.1533 14.9531 98.1787 14.9631C98.2041 14.973 98.227 14.9884 98.2458 15.0081C98.265 15.0276 98.2795 15.0511 98.2883 15.0769C98.2971 15.1028 98.3001 15.1302 98.2968 15.1574L97.9548 18.6801C97.8901 19.2174 97.7593 19.7446 97.5656 20.2499H98.2923C98.3513 20.2489 98.409 20.267 98.4568 20.3014C98.5046 20.3359 98.5401 20.3849 98.5578 20.4411ZM81.2467 22.9641H83.9144C83.9414 22.9649 83.9679 22.9711 83.9925 22.9823C84.017 22.9934 84.0391 23.0093 84.0575 23.029C84.0759 23.0488 84.0903 23.0719 84.0997 23.0972C84.1091 23.1225 84.1134 23.1494 84.1124 23.1763L84.0142 24.1078C84.0082 24.1703 83.9796 24.2285 83.9337 24.2715C83.8879 24.3144 83.828 24.3392 83.7652 24.3411H80.1697C80.1031 24.3417 80.0371 24.3279 79.9763 24.3008C79.9155 24.2737 79.8611 24.2338 79.8171 24.1839C79.773 24.134 79.7401 24.0752 79.7207 24.0115C79.7013 23.9477 79.6959 23.8806 79.7047 23.8146L80.0744 20.2761C79.7254 20.9705 79.3164 21.633 78.8519 22.2561C78.3385 22.8948 77.7811 23.497 77.1839 24.0583C76.9687 24.2398 76.6957 24.3381 76.4152 24.3358H74.9774C74.9507 24.3345 74.925 24.3246 74.9043 24.3077C74.8835 24.2908 74.8686 24.2678 74.8618 24.2418C74.8551 24.2159 74.8567 24.1885 74.8666 24.1636C74.8765 24.1387 74.894 24.1176 74.9167 24.1033C76.4684 22.8823 77.9152 21.5053 78.7979 19.7796C79.2215 18.8931 79.4804 17.9371 79.5622 16.9581C79.5644 16.9513 80.0144 12.8533 80.0144 12.8533C80.0195 12.7952 80.0462 12.7412 80.0893 12.7019C80.1324 12.6625 80.1886 12.6409 80.2469 12.6411H81.2069C81.2353 12.6405 81.2634 12.6461 81.2894 12.6574C81.3154 12.6686 81.3387 12.6854 81.3577 12.7064C81.3766 12.7275 81.3909 12.7523 81.3994 12.7794C81.408 12.8064 81.4106 12.8349 81.4072 12.8631L80.9557 16.9581C80.8867 17.5768 80.7749 18.1888 80.6197 18.7918H81.2114C81.2611 18.7909 81.3103 18.8007 81.3559 18.8204C81.4014 18.8402 81.4422 18.8694 81.4755 18.9062C81.5088 18.943 81.5339 18.9865 81.549 19.0338C81.5641 19.0811 81.569 19.131 81.5632 19.1803L81.1792 22.8891C81.1777 22.8986 81.1784 22.9084 81.1812 22.9176C81.1839 22.9268 81.1887 22.9354 81.1952 22.9425C81.2016 22.9497 81.2096 22.9554 81.2185 22.9591C81.2274 22.9628 81.237 22.9645 81.2467 22.9641ZM57.3142 10.1676L68.5597 9.70107V9.70032C68.5846 9.69663 68.61 9.69851 68.6341 9.70583C68.6582 9.71316 68.6804 9.72574 68.6991 9.74267C68.7177 9.7596 68.7324 9.78046 68.742 9.80375C68.7516 9.82703 68.7559 9.85216 68.7547 9.87732L68.6572 10.8748C68.6499 10.9227 68.6265 10.9668 68.591 10.9997C68.5554 11.0327 68.5098 11.0526 68.4614 11.0563L67.2832 11.1193C67.219 11.1749 67.2243 11.5947 67.2264 11.7644C67.2267 11.7871 67.2269 11.8053 67.2269 11.8176C67.2082 12.0696 67.1917 12.3216 67.1759 12.5751C67.1444 13.0798 67.1219 13.5846 67.1084 14.0893C67.0758 15.0986 67.0758 16.1086 67.1084 17.1178C67.1586 19.3702 67.4251 21.6125 67.9042 23.8138C67.9634 24.0673 67.8652 24.3403 67.5742 24.3403H66.8144C66.7228 24.3453 66.6323 24.3185 66.5582 24.2646C66.484 24.2106 66.4307 24.1327 66.4072 24.0441C65.6594 20.0211 65.5544 15.9718 65.8499 11.8971C65.8596 11.7541 65.87 11.615 65.8803 11.4776C65.8876 11.38 65.8948 11.2834 65.9017 11.1868L62.4277 11.3241L61.7872 11.3526C61.3215 15.2283 60.6301 19.0736 59.7164 22.8688C59.7136 22.8791 59.7132 22.89 59.7151 22.9005C59.7171 22.911 59.7214 22.9209 59.7277 22.9296C59.7342 22.9383 59.7427 22.9454 59.7525 22.9502C59.7622 22.955 59.773 22.9575 59.7839 22.9573H62.8492C62.863 22.9573 62.8766 22.9544 62.8893 22.9489C62.9019 22.9433 62.9133 22.9352 62.9227 22.9251C62.9321 22.9151 62.9394 22.9033 62.944 22.8904C62.9487 22.8775 62.9506 22.8638 62.9497 22.8501L62.6422 18.3628C62.6398 18.3307 62.6441 18.2985 62.6547 18.2681C62.6654 18.2378 62.6821 18.2099 62.704 18.1864C62.7259 18.1628 62.7524 18.144 62.7819 18.1311C62.8114 18.1182 62.8432 18.1116 62.8754 18.1116H63.8077C63.8674 18.1115 63.9249 18.1344 63.9682 18.1756C64.0115 18.2168 64.0373 18.2731 64.0402 18.3328L64.4242 23.9751C64.4268 24.0221 64.4199 24.0691 64.4037 24.1133C64.3876 24.1575 64.3626 24.198 64.3304 24.2322C64.2981 24.2665 64.2592 24.2938 64.216 24.3125C64.1728 24.3312 64.1262 24.3409 64.0792 24.3411H58.5142C58.4395 24.3405 58.3661 24.3224 58.2997 24.2883C58.2333 24.2543 58.1759 24.2051 58.1319 24.1448C58.0879 24.0845 58.0587 24.0148 58.0465 23.9411C58.0344 23.8675 58.0397 23.792 58.0619 23.7208L58.1392 23.4883C58.1647 23.4133 59.8447 16.3033 60.3967 11.4111L57.9944 11.5116L57.8474 12.6598C57.7664 13.4451 57.6239 14.5123 57.4679 15.4558C57.4502 15.5631 57.4325 15.6707 57.4148 15.7788C57.2764 16.6218 57.1337 17.4909 56.9257 18.3883C56.6902 19.4023 56.4217 20.2776 56.0932 21.3126C55.8008 22.2432 55.4626 23.1588 55.0799 24.0561C55.0304 24.1436 54.9582 24.2162 54.871 24.2664C54.7838 24.3165 54.6847 24.3423 54.5842 24.3411H54.0202C53.958 24.3453 53.8959 24.3336 53.8395 24.307C53.7832 24.2804 53.7347 24.2399 53.6985 24.1892C53.6623 24.1385 53.6397 24.0794 53.6329 24.0175C53.626 23.9556 53.6352 23.8929 53.6594 23.8356C54.011 23.0557 54.3273 22.2604 54.6074 21.4521C54.9569 20.4411 55.2479 19.5696 55.5134 18.5466C55.7688 17.5544 55.9902 16.5538 56.1772 15.5466C56.3518 14.5865 56.4909 13.6204 56.5942 12.6501L56.8064 10.6326C56.8251 10.5087 56.8856 10.3949 56.9781 10.3103C57.0705 10.2256 57.1891 10.1753 57.3142 10.1676Z" fill="#BCBCBD"/>
</g>
<defs>
<clipPath id="clip0">
<rect width="93.75" height="24" fill="white" transform="translate(8 5)"/>
</clipPath>
</defs>
</svg>
