<svg width="110" height="34" viewBox="0 0 110 34" fill="none" xmlns="http://www.w3.org/2000/svg">
<g clip-path="url(#clip0)">
<path fill-rule="evenodd" clip-rule="evenodd" d="M85.3262 16.8342V19.271H72.0169L71.5689 20.8374H84.6044V22.2592L83.3063 27.8849H70.1806V25.2389H80.7436L81.1496 23.4819H68.0176V22.1597L68.8443 19.2702H65.8538V16.8334H85.3262V16.8342ZM56.2156 17.7668V19.271H64.3877V21.9162H56.2156V27.8849H53.0422V21.9162H44.9152V19.271H53.0422V17.7668H56.2156V17.7668ZM38.0809 7.66111C38.0023 13.2961 37.8942 16.6662 37.0472 19.271H43.4717V21.9162H35.7732C34.5443 23.7697 32.6318 25.4784 29.6366 27.8849H24.7529L25.3681 27.3988C28.3781 25.0242 30.447 23.3924 31.8501 21.9162H24V19.271H33.7292C34.8158 16.9237 34.8998 13.5738 34.9807 7.66111H38.0817H38.0809ZM40.4609 23.2392L43.4686 27.8849H39.7274L36.7198 23.2392H40.4609ZM61.3792 23.2392L64.3869 27.8849H60.645L57.6373 23.2392H61.3792ZM51.6632 23.2392L48.6563 27.8849H44.9144L47.9213 23.2392H51.6632V23.2392ZM48.402 7L51.335 8.32222H63.3058V11.4007C62.4191 12.1683 61.0798 13.2774 58.7503 14.4418C60.6128 14.9002 62.4936 15.2811 64.3877 15.5836V18.4069C60.2172 17.7481 57.04 16.9587 54.5814 16.1459C52.0926 16.9812 48.9387 17.7714 44.9152 18.4046V15.5828C46.7715 15.287 48.6153 14.9172 50.4421 14.4744C48.7154 13.6189 47.6032 12.8224 46.7632 12.2204C46.6349 12.1287 45.4581 11.2436 45.4581 11.2436L48.402 7ZM25.7998 13.3194L32.6979 14.273V17.2262L25.8006 16.2711V13.3194H25.7998ZM84.1728 8.32222V15.2678H67.0072V8.32222H84.1728V8.32222ZM59.3539 10.9667H49.9272C51.0083 11.6464 52.4877 12.4336 54.6717 13.2191C56.8603 12.4336 58.321 11.6457 59.3539 10.9674V10.9667ZM80.9994 10.9667H70.1806V12.6233H80.9994V10.9682V10.9667ZM25.8006 8.32222L32.6987 9.27578V12.229L25.8006 11.2754V8.32222V8.32222Z" fill="#BCBCBD"/>
</g>
<defs>
<clipPath id="clip0">
<rect width="61.4444" height="21" fill="white" transform="translate(24 7)"/>
</clipPath>
</defs>
</svg>
