<svg width="110" height="34" viewBox="0 0 110 34" fill="none" xmlns="http://www.w3.org/2000/svg">
<path fill-rule="evenodd" clip-rule="evenodd" d="M21 25.8191V8.18091C21 5.31943 23.3236 3 26.1897 3H43.9159C46.7822 3 49.1056 5.31943 49.1056 8.18091V25.8191C49.1056 28.6803 46.7822 31 43.9159 31H26.1897C23.3236 31 21 28.6803 21 25.8191Z" fill="#BCBCBD"/>
<path fill-rule="evenodd" clip-rule="evenodd" d="M24.0003 10.7878V10.8148V10.8148C24.0166 13.0487 24.1275 16.248 24.8372 18.7949C25.2048 20.1143 25.6995 21.1324 26.3071 21.8214C26.9725 22.5753 27.7684 22.942 28.7402 22.942H31.8493C31.9763 22.942 32.1015 22.9827 32.1982 23.0639C32.3668 23.2054 32.4248 23.4285 32.356 23.6266L31.2748 26.7369L31.2226 26.8814C31.2016 26.9393 31.2453 27 31.3075 27H31.4026H31.4877H33.1948C33.2607 27 34.8108 26.9891 35.508 26.0336C35.5167 26.0219 35.5254 26.0102 35.5349 25.9991L37.9962 23.1257C38.0958 23.0092 38.2426 22.942 38.3976 22.942H43.6838C44.3869 22.942 45.4692 22.5654 46.1841 21.7386C46.6951 21.1474 47 20.2627 47 19.3715C47 18.3898 46.7718 17.5074 46.3214 16.7491C45.8508 15.9563 45.2676 15.5271 44.9624 15.3418C44.8452 15.2709 44.7608 15.1575 44.7284 15.0257C44.4707 13.9778 44.0839 13.2719 43.5115 12.804C42.9009 12.3049 42.0384 12.0623 40.8749 12.0623H38.7341C38.6047 12.0623 38.4798 12.0151 38.3833 11.9299L35.9276 9.75779C35.9234 9.75389 35.9191 9.75 35.9149 9.74611C35.6585 9.50398 35.1251 9 34.7617 9H32.7582H32.4701H31.9795C31.9165 9 31.8727 9.06228 31.8951 9.12042L32.0158 9.43183L32.7482 11.3546C32.7935 11.474 32.798 11.6061 32.7521 11.7254C32.6731 11.9325 32.4752 12.0623 32.2599 12.0623L28.4369 12.0625C28.228 12.0625 28.0388 11.9403 27.9552 11.7514C27.6458 11.0499 27.1164 10.6308 26.7833 10.6308H24.4248H24.2633H24.0901C24.0401 10.6308 23.9997 10.6705 24 10.7198L24.0003 10.8148" fill="#202022"/>
<path fill-rule="evenodd" clip-rule="evenodd" d="M67.2606 26.7224C66.7951 26.7224 66.3514 26.5239 66.0436 26.1777C64.7423 24.7148 64.01 23.5347 63.5952 22.2312C63.0523 20.5241 63.0523 18.6097 63.0523 15.4375V10.7533H54.5793C54.1645 10.7533 53.8271 10.4165 53.8271 10.0027V9.25176H63.2927C63.9894 9.25176 64.5561 9.81758 64.5561 10.513V15.4375C64.5561 21.4198 64.5557 22.5504 68.2807 26.3666C67.9916 26.5971 67.6353 26.7224 67.2606 26.7224Z" fill="#BCBCBD"/>
<path fill-rule="evenodd" clip-rule="evenodd" d="M70.4289 21.5388C69.9567 21.5388 69.5084 21.3341 69.1997 20.9771C68.1907 19.8104 66.4156 17.5395 65.0745 15.5835C66.5152 13.5862 67.9916 11.1718 68.6418 10.0192C68.9474 9.47743 69.5246 9.14087 70.1481 9.14087C70.3621 9.14087 70.5696 9.17952 70.7675 9.2561C70.4169 9.93402 68.9765 12.65 66.9675 15.5026L66.8994 15.5994L66.9675 15.6961C68.8972 18.439 70.9106 20.6566 71.4168 21.2032C71.1345 21.4205 70.7892 21.5388 70.4289 21.5388Z" fill="#BCBCBD"/>
<path fill-rule="evenodd" clip-rule="evenodd" d="M80.794 26.7222C80.418 26.7222 80.0635 26.5924 79.7805 26.354C81.0374 25.1256 81.7307 24.1135 82.0865 22.9934L82.1794 22.7018L81.8833 22.78C81.1103 22.9838 80.273 23.1843 79.3921 23.3766V10.4591C79.3921 9.81046 79.8793 9.2713 80.5254 9.20456C80.6555 9.19112 80.7738 9.17791 80.8669 9.16591C81.6087 9.07037 82.7368 8.89561 83.9735 8.6001C84.0278 8.98347 83.9436 9.36828 83.7294 9.69908C83.4846 10.0774 83.1056 10.3309 82.6617 10.4125C82.1043 10.515 81.545 10.6015 81.0444 10.6622L80.8962 10.6802V21.4832L81.1062 21.4299C81.5099 21.327 81.91 21.2201 82.3025 21.1087L82.4177 21.0761L82.4246 20.9568C82.4631 20.2954 82.4631 19.5697 82.4631 18.7298V11.716H83.215C83.6298 11.716 83.9672 12.0528 83.9672 12.4667V18.7298C83.9672 21.8568 83.9672 23.7441 82.0173 26.1418C81.7169 26.5105 81.2711 26.7222 80.794 26.7222Z" fill="#BCBCBD"/>
<path fill-rule="evenodd" clip-rule="evenodd" d="M74.5289 13.7919H76.6332V10.7528H74.5289V13.7919ZM74.5289 18.0334H76.6332V15.2936H74.5289V18.0334ZM74.5289 22.7647L74.7247 22.7323C75.2648 22.6435 75.8618 22.5407 76.4952 22.4243L76.6332 22.3988V19.535H74.5289V22.7647ZM76.6324 26.7227V23.9286L76.434 23.9647C75.0285 24.2177 73.8281 24.4004 73.0685 24.5089C73.0322 24.5139 72.9961 24.5165 72.9608 24.5165C72.5828 24.5165 72.2625 24.2338 72.2156 23.859L72.1232 23.123C72.2788 23.1024 72.5376 23.0673 72.88 23.0176L73.0243 22.997V10.7534H72.8557C72.4411 10.7534 72.1035 10.4166 72.1035 10.0027V9.25204H76.8729C77.5695 9.25204 78.1363 9.81762 78.1363 10.5133V26.7227H76.6324Z" fill="#BCBCBD"/>
<path fill-rule="evenodd" clip-rule="evenodd" d="M86.7303 21.9651H88.294V10.7528H86.7303V21.9651ZM85.2275 26.7227V10.5133C85.2275 9.81762 85.7943 9.25204 86.4909 9.25204H88.5356C89.2322 9.25204 89.799 9.81762 89.799 10.5133V22.206C89.799 22.9014 89.2322 23.4673 88.5356 23.4673H86.7314V26.7227H85.2275Z" fill="#BCBCBD"/>
<path fill-rule="evenodd" clip-rule="evenodd" d="M32.3536 17.0339C32.3536 17.5514 31.9333 17.9708 31.4151 17.9708C30.8967 17.9708 30.4766 17.5514 30.4766 17.0339C30.4766 16.5165 30.8967 16.0969 31.4151 16.0969C31.9333 16.0969 32.3536 16.5165 32.3536 17.0339Z" fill="#BCBCBD"/>
<path fill-rule="evenodd" clip-rule="evenodd" d="M36.0025 17.0339C36.0025 17.5514 35.5824 17.9708 35.064 17.9708C34.5458 17.9708 34.1254 17.5514 34.1254 17.0339C34.1254 16.5165 34.5458 16.0969 35.064 16.0969C35.5824 16.0969 36.0025 16.5165 36.0025 17.0339Z" fill="#BCBCBD"/>
<path fill-rule="evenodd" clip-rule="evenodd" d="M39.6503 17.0339C39.6503 17.5514 39.23 17.9708 38.7118 17.9708C38.1934 17.9708 37.7733 17.5514 37.7733 17.0339C37.7733 16.5165 38.1934 16.0969 38.7118 16.0969C39.23 16.0969 39.6503 16.5165 39.6503 17.0339Z" fill="#BCBCBD"/>
</svg>
