<svg width="110" height="34" viewBox="0 0 110 34" fill="none" xmlns="http://www.w3.org/2000/svg">
<g clip-path="url(#clip0)">
<path d="M25.9066 13.5376L22.6744 27.5352C22.6073 27.7681 22.8077 27.9685 23.008 27.9685H29.4724C29.7053 27.9685 29.8721 27.7692 29.806 27.5352L26.5728 13.5376C26.5067 13.1704 25.9737 13.1704 25.9066 13.5376ZM8.04526 18.87L6.01323 27.5667C5.94609 27.8006 6.14646 28 6.34578 28H10.3448C10.5777 28 10.7445 27.8006 10.6784 27.5677L8.67889 18.87C8.64532 18.5028 8.1124 18.5028 8.04526 18.87V18.87Z" fill="#BCBCBD"/>
<path opacity="0.6" d="M12.4448 8.23973L7.98002 27.5677C7.91288 27.8006 8.11325 27.9999 8.31258 27.9999H17.2107C17.4436 27.9999 17.6094 27.8006 17.5433 27.5677L13.0785 8.23973C13.0449 7.87256 12.512 7.87256 12.4448 8.23973V8.23973Z" fill="#BCBCBD"/>
<path opacity="0.6" d="M19.9095 0.275379L13.6109 27.5678C13.5437 27.8007 13.7441 28 13.9445 28H26.507C26.7399 28 26.9067 27.8007 26.8406 27.5678L20.5756 0.275379C20.5085 -0.091793 19.9755 -0.091793 19.9095 0.275379Z" fill="#BCBCBD"/>
<path d="M15.7419 10.8731L11.9097 27.5333C11.8426 27.7661 12.0429 27.9665 12.2433 27.9665H19.9078C20.1407 27.9665 20.3064 27.7672 20.2403 27.5333L16.4081 10.871C16.342 10.5384 15.808 10.5384 15.7419 10.871V10.8731Z" fill="#BCBCBD"/>
<path d="M84.0542 11.9385C84.1549 11.9385 84.2546 12.0046 84.2546 12.1378V27.8003C84.2546 27.9335 84.1549 27.9996 84.0553 27.9996H82.3222C82.2226 27.9996 82.1229 27.9335 82.1229 27.8003V12.1378C82.1229 12.0381 82.189 11.9385 82.3222 11.9385H84.0553H84.0542ZM102.45 20.502C102.516 20.502 102.549 20.5355 102.549 20.6027V21.7357C102.549 21.8018 102.516 21.8353 102.45 21.8353H96.451V22.4679H102.249C102.316 22.4679 102.349 22.5015 102.349 22.5686V23.7016C102.349 23.7677 102.316 23.8013 102.249 23.8013H96.451V24.4339H102.982C103.049 24.4339 103.082 24.4674 103.082 24.5346V25.6676C103.082 25.7337 103.049 25.7672 102.982 25.7672H96.451V27.2674C96.451 27.6346 96.1709 27.944 95.8163 27.9933L95.7177 27.9996H92.4195C92.3523 27.9996 92.3188 27.9335 92.3188 27.8664L92.6188 26.7009C92.6188 26.6337 92.6859 26.5677 92.7856 26.5677H94.0518C94.1515 26.5677 94.2186 26.5005 94.2186 26.3998V25.7672H87.5875C87.5539 25.7672 87.4868 25.7337 87.4868 25.6676V24.5346C87.4868 24.4674 87.5203 24.4349 87.5875 24.4349L94.2176 24.4339V23.8013H88.3533C88.2872 23.8013 88.2536 23.7677 88.2536 23.7016V22.5686C88.2536 22.5015 88.2872 22.469 88.3533 22.469L94.2176 22.4679V21.8353H88.1204C88.0533 21.8353 88.0207 21.7682 88.0207 21.7357V20.6027C88.0207 20.5355 88.0533 20.502 88.1204 20.502H102.45V20.502ZM44.3336 11.672C44.4332 11.672 44.5004 11.7381 44.5004 11.8388V17.937C44.5004 18.2381 44.4899 18.5308 44.4689 18.814C44.8571 22.9746 48.5141 25.7116 50.7654 25.8679C50.865 25.8679 50.9311 25.9676 50.9311 26.0337V27.7332C50.9311 27.8339 50.8315 27.9325 50.7318 27.901C48.9327 27.8003 46.8996 26.8341 45.3669 25.334C44.5748 24.5642 43.9158 23.6684 43.4167 22.683C42.9181 23.6684 42.2594 24.5642 41.4675 25.334C39.9359 26.8341 37.9018 27.7993 36.1026 27.9C36.003 27.9335 35.9033 27.8339 35.9033 27.7332V26.0337C35.9033 25.9676 35.9694 25.8679 36.0691 25.8679C38.3204 25.7106 41.9774 22.9746 42.3676 18.814C42.3456 18.5308 42.3341 18.2371 42.3341 17.937V11.8378C42.3341 11.7371 42.4012 11.6699 42.5009 11.6699L44.3336 11.672ZM61.9285 12.0046C62.0281 12.0046 62.0953 12.0717 62.0953 12.1724V25.8669H65.96V14.0041C65.96 13.9044 66.0271 13.8048 66.1593 13.8048H67.8273C67.926 13.8048 68.0267 13.8709 68.0267 14.0041V27.7332C67.9931 27.8003 67.926 27.901 67.8273 27.901H54.3626C54.263 27.901 54.1633 27.8339 54.1633 27.7006V14.0041C54.1633 13.9044 54.2294 13.8048 54.3626 13.8048H56.0285C56.1292 13.8048 56.2289 13.8709 56.2289 14.0041V25.8669H60.0947V12.1714C60.0947 12.0717 60.1608 12.0046 60.2615 12.0046H61.9274H61.9285ZM78.9894 12.3046C79.1226 12.3046 79.1887 12.4053 79.1887 12.5039V18.2035C79.1887 18.3367 79.0901 18.4028 78.9894 18.4028H73.3916C73.3244 18.4028 73.2919 18.4364 73.2919 18.5035V20.203C73.2919 20.2691 73.3244 20.3027 73.3916 20.3027H79.0901C79.1897 20.3027 79.2558 20.3687 79.2558 20.4695V27.2338C79.2567 27.304 79.2435 27.3737 79.217 27.4387C79.1905 27.5038 79.1513 27.5629 79.1016 27.6125C79.052 27.6622 78.9929 27.7014 78.9278 27.7279C78.8628 27.7544 78.7931 27.7676 78.7229 27.7667H72.3582C72.2922 27.7667 72.2586 27.7332 72.2586 27.6671L72.6583 25.9005C72.6583 25.8344 72.7254 25.7672 72.8251 25.7672H77.0234C77.1241 25.7672 77.1913 25.7011 77.1913 25.6004V22.5015C77.1913 22.4354 77.1567 22.4018 77.0906 22.4018H71.3921C71.2588 22.4018 71.1927 22.3022 71.1927 22.2025V16.6372C71.1927 16.504 71.2924 16.4379 71.3921 16.4379H77.0906C77.1567 16.4379 77.1902 16.4033 77.1902 16.3372V14.4709C77.1902 14.4038 77.1567 14.3713 77.0906 14.3713H71.3921C71.2588 14.3713 71.1927 14.2705 71.1927 14.1719V12.5039C71.1927 12.4053 71.2588 12.3382 71.3585 12.3046H78.9894ZM89.8199 14.2034C89.886 14.2034 89.9195 14.238 89.9195 14.3041C89.9091 14.4195 89.8944 14.5307 89.8744 14.6388L95.1848 14.6377C95.2845 14.6377 95.3841 14.7038 95.3516 14.8045V19.4026C95.3499 19.5965 95.2722 19.7821 95.135 19.9193C94.9978 20.0564 94.8123 20.1342 94.6183 20.1359H92.7195C92.6524 20.1359 92.6188 20.1023 92.6188 20.0362L92.9188 18.7039C92.9524 18.6693 92.986 18.6367 93.0185 18.6367H93.5525C93.6185 18.6367 93.6521 18.6032 93.6521 18.536V16.0372C93.6521 15.97 93.6185 15.9375 93.5525 15.9375H89.2912C89.159 16.1012 89.0079 16.2459 88.8401 16.3718L92.3188 16.3708C92.4195 16.3708 92.4866 16.4369 92.4866 16.5365V19.1025C92.4866 19.2032 92.4195 19.2704 92.3188 19.2704H88.2201C88.1204 19.2704 88.0533 19.2032 88.0533 19.1025V16.7736C87.8539 16.8387 87.642 16.8817 87.4207 16.9037C87.3535 16.9037 87.321 16.8701 87.321 16.804V15.2703C87.321 15.2042 87.3871 15.1706 87.4207 15.1706C87.6871 15.1371 88.1204 15.0374 88.2201 14.2705C88.2201 14.238 88.2872 14.2045 88.3197 14.2045L89.8199 14.2034ZM98.9174 11.9374C98.9834 11.9374 99.017 12.0046 99.017 12.0717C99.0086 12.2889 98.9814 12.5018 98.9373 12.7043H102.75C102.816 12.7043 102.849 12.7379 102.849 12.805V14.238C102.849 14.3041 102.816 14.3377 102.75 14.3377H102.16C102.177 15.1769 102.099 16.7285 101.05 18.0598C101.701 18.2748 102.403 18.3692 103.082 18.3692C103.149 18.3692 103.183 18.4028 103.183 18.4699V20.0016C103.183 20.0687 103.149 20.1023 103.082 20.1023C101.729 20.1023 100.519 19.8222 99.5216 19.305C98.5691 19.8085 97.3794 20.0813 95.9842 20.1023C95.9181 20.1023 95.8845 20.0687 95.8845 20.0026L95.8509 18.4028C95.8509 18.3367 95.8845 18.3031 95.9517 18.3031C96.6891 18.2885 97.3322 18.1982 97.8819 18.0335C97.2353 17.2883 96.8092 16.3775 96.6514 15.4035C96.6514 15.371 96.6839 15.3039 96.751 15.3039H98.3173C98.3509 15.3039 98.3834 15.3039 98.417 15.371C98.5974 16.1127 98.9625 16.696 99.445 17.1429L99.4838 17.103C100.342 16.2145 100.386 15.0101 100.384 14.3324L98.0718 14.3387C97.5118 14.9159 96.7547 15.2605 95.9517 15.3039C95.8845 15.3039 95.8509 15.2703 95.8509 15.2042V13.6044C95.8509 13.5383 95.8845 13.5047 95.9181 13.5047C96.2716 13.4499 96.595 13.2734 96.8323 13.0057C97.0696 12.7379 97.206 12.3957 97.2179 12.0381C97.2179 11.9721 97.284 11.9385 97.3175 11.9385L98.9174 11.9374ZM38.6351 13.9716C38.7683 14.0041 38.8344 14.0712 38.8344 14.1709C38.869 14.9703 38.9687 16.804 39.3694 19.7026C39.3694 19.8023 39.3023 19.9019 39.1691 19.9019H37.2346C37.1349 19.9019 37.0678 19.8358 37.0353 19.7362C36.6681 16.8366 36.5684 14.9703 36.5349 14.1709C36.5349 14.0712 36.602 13.9716 36.7342 13.9716H38.634H38.6351ZM50.0982 13.9716C50.2314 13.9716 50.2975 14.0712 50.2975 14.1709C50.266 14.9703 50.1653 16.804 49.7982 19.7026C49.7656 19.8023 49.6985 19.8694 49.5988 19.8694H47.7C47.5657 19.8694 47.4997 19.7697 47.4997 19.6701C47.8668 16.804 47.9654 14.9703 47.999 14.1709C48.0134 14.1239 48.039 14.0811 48.0738 14.0464C48.1086 14.0116 48.1513 13.9859 48.1983 13.9716H50.0982ZM90.9864 17.3705H89.587C89.5199 17.3705 89.4863 17.403 89.4863 17.4702V18.1699C89.4863 18.236 89.5199 18.2696 89.587 18.2696H90.9864C91.019 18.2696 91.0525 18.236 91.0861 18.1699V17.4702C91.0861 17.403 91.0525 17.3705 90.9864 17.3705ZM90.6193 11.9721C90.6864 11.9721 90.72 12.0046 90.72 12.0717L90.7189 12.3046H92.5527V12.0717C92.5527 12.0046 92.5852 11.9721 92.6524 11.9721H94.4179C94.4851 11.9721 94.5186 12.0046 94.5186 12.0717V12.3046H95.6181C95.6841 12.3046 95.7177 12.3382 95.7177 12.4053V13.7376C95.7177 13.8048 95.6841 13.8373 95.6181 13.8373H94.5186V13.9044C94.5186 13.938 94.4851 14.0041 94.4179 14.0041H92.6524C92.5852 14.0041 92.5527 13.9716 92.5527 13.9044V13.8373H90.7189V13.9044C90.7189 13.938 90.6864 14.0041 90.6193 14.0041H88.8537C88.7866 14.0041 88.753 13.9716 88.753 13.9044V13.8373H87.7207C87.6536 13.8048 87.62 13.7712 87.62 13.7376V12.4053C87.62 12.3382 87.6536 12.3046 87.7207 12.3046H88.753V12.0717C88.753 12.0046 88.7866 11.9721 88.8537 11.9721H90.6193Z" fill="#BCBCBD"/>
</g>
<defs>
<clipPath id="clip0">
<rect width="97.1828" height="34" fill="white" transform="translate(6)"/>
</clipPath>
</defs>
</svg>
