<svg width="110" height="34" viewBox="0 0 110 34" fill="none" xmlns="http://www.w3.org/2000/svg">
<g clip-path="url(#clip0)">
<path d="M31.7126 9.00024H21V12H31.7126C35.3691 12 38.3436 14.9153 38.3436 18.5008V28.9999H41.4044V18.4989C41.4063 13.2615 37.0584 9.00024 31.7126 9.00024Z" fill="#E7383E"/>
<path d="M31.7126 12.9988H21V16.0004H27.5812C27.3437 17.1399 26.3132 17.9996 25.0816 17.9996H21V20.9994H25.0816C28.0045 20.9994 30.4102 18.7993 30.6688 16.0004H31.6916C31.4292 19.3512 28.5657 22 25.0816 22H21V24.9997H25.0816C29.3433 24.9997 32.971 22.289 34.2639 18.5328V20.8943C32.3888 23.9504 28.9775 26.0003 25.0816 26.0003H21V29H25.0816C28.6059 29 31.8256 27.6954 34.2639 25.5516V29H37.3247V18.499C37.3247 15.4673 34.8079 12.9988 31.7126 12.9988Z" fill="#E7383E"/>
<path d="M31.7126 5H21V7.99976H31.7126C37.6196 7.99976 42.4253 12.7097 42.4253 18.4989V28.9981H45.486V18.4989C45.488 11.0558 39.309 5 31.7126 5Z" fill="#E7383E"/>
<path d="M63.0347 19.6911C62.7052 18.9102 62.4658 18.1049 62.3164 17.2827H69.3439V14.7804H62.1479V10.7988H59.3629V14.7804H52.1669V17.2827H59.2154C58.2961 21.4313 55.423 24.8853 51.4678 26.6048L52.8564 28.9851C56.3481 27.397 59.1139 24.6788 60.7324 21.3355C62.3202 24.6957 65.0573 27.3783 68.5069 28.9307L68.6524 28.9964L70.0392 26.6161L69.6676 26.449C66.6547 25.0956 64.2988 22.6946 63.0347 19.6911Z" fill="white" fill-opacity="0.9"/>
<path d="M86.5188 14.7804H81.1807V10.7988H78.3957V14.7804H72.1287V17.2827H78.323C78.3038 17.4422 78.2827 17.6018 78.2578 17.7595C77.6602 21.5158 75.2067 24.7201 71.692 26.3289L71.1748 26.5654L72.5615 28.9438L72.8718 28.8012C77.2293 26.8057 80.2728 22.8354 81.0121 18.1781C81.06 17.8815 81.0945 17.5812 81.1213 17.2827H86.4058L86.107 23.7628H86.1089C86.1013 23.9918 86.0917 24.2321 86.0744 24.4648C86.0476 24.8253 85.994 25.1688 85.881 25.4222C85.8791 25.4278 85.8772 25.4335 85.8733 25.4391C85.5803 25.9872 85.0325 26.267 84.3391 26.267H80.9547L81.4124 28.7693H84.772C86.9536 28.7693 88.7406 27.0967 88.8383 24.9604L89.3057 14.7785H86.5188V14.7804Z" fill="white" fill-opacity="0.9"/>
</g>
<defs>
<clipPath id="clip0">
<rect width="68.3077" height="24" fill="white" transform="translate(21 5)"/>
</clipPath>
</defs>
</svg>
