<svg width="110" height="34" viewBox="0 0 110 34" fill="none" xmlns="http://www.w3.org/2000/svg">
<g clip-path="url(#clip0)">
<path d="M80.0971 9.58008H77.9313C77.8748 13.8024 77.8168 16.1957 77.058 17.8721H70.2607V19.7614H75.745C74.7658 20.8146 73.3218 21.9796 71.2217 23.674L71.2182 23.6767C71.0788 23.789 70.935 23.9052 70.7881 24.0238H74.1997C76.2915 22.3049 77.6269 21.0851 78.4856 19.7614H83.8605V17.8721H79.3755C79.9668 16.0116 80.042 13.6043 80.0971 9.58008Z" fill="#BCBCBD"/>
<path d="M76.3365 12.8427V10.7339L71.5195 10.0525V12.1613L76.3365 12.8427Z" fill="#BCBCBD"/>
<path d="M71.5195 13.6211V15.7299L76.3365 16.4113V14.3025L71.5195 13.6211Z" fill="#BCBCBD"/>
<path d="M79.1465 20.7061H81.7598L83.8602 24.0238H81.2467L79.1465 20.7061Z" fill="#BCBCBD"/>
<path fill-rule="evenodd" clip-rule="evenodd" d="M40.8174 19.7615H52.9933V17.8721H40.8174V19.7615Z" fill="#BCBCBD"/>
<path fill-rule="evenodd" clip-rule="evenodd" d="M52.7196 20.1142L52.9949 19.8047V17.8761H50.7788V18.9757C50.1424 19.675 48.4321 21.5274 45.9379 24.0238H49.0328C51.3513 21.6486 52.7014 20.1348 52.7196 20.1142Z" fill="#BCBCBD"/>
<path fill-rule="evenodd" clip-rule="evenodd" d="M39.6475 14.3294V16.7987C44.3062 14.4716 47.0285 12.1187 48.5006 9.10742H45.9608C44.7227 11.0333 42.718 12.6842 39.6475 14.3294Z" fill="#BCBCBD"/>
<path fill-rule="evenodd" clip-rule="evenodd" d="M48.0343 9.4904L46.2012 10.7197C47.8958 13.1824 51.2908 15.2968 54.2553 16.7932V14.319C51.2622 12.7033 49.0908 11.0256 48.0343 9.4904Z" fill="#BCBCBD"/>
<path fill-rule="evenodd" clip-rule="evenodd" d="M45.1321 14.2191V16.3279L49.1491 16.8851V14.7763L45.1321 14.2191Z" fill="#BCBCBD"/>
<path fill-rule="evenodd" clip-rule="evenodd" d="M86.1603 12.1435L86.1533 12.1389L86.1537 12.1384C86.1534 12.1382 86.1533 12.1381 86.1533 12.1381L86.1543 12.1375L88.2092 9.10815L90.2576 10.0525H96.6248H98.6173H98.6177V12.2505C97.9981 12.7988 97.0635 13.5912 95.4368 14.4223C96.5641 14.7104 97.8654 14.9864 99.3737 15.238V17.2539C96.4614 16.7837 94.2426 16.2201 92.5254 15.6399C90.7866 16.2366 88.5843 16.8007 85.7734 17.2531V15.2375C87.2479 14.9926 88.5253 14.7251 89.6351 14.4461C88.4286 13.835 87.652 13.2661 87.0647 12.8356C86.9803 12.774 86.2404 12.205 86.1603 12.1435ZM95.8575 11.9418H89.2749C90.0299 12.427 91.0627 12.9891 92.5883 13.5498C94.1162 12.9885 95.1357 12.4264 95.8575 11.9418ZM99.3732 19.7614H93.6665V24.0239H91.4502V19.7614H85.7734V17.8721H91.4502V16.7974H93.6665V17.8721H99.3732V19.7614ZM97.2872 20.7061H94.6738L96.774 24.0238H99.3876L97.2872 20.7061ZM87.8824 20.7061H90.4958L88.3953 24.0238H85.7822L87.8824 20.7061Z" fill="#BCBCBD"/>
<path fill-rule="evenodd" clip-rule="evenodd" d="M68.3468 10.0525H56.1709V24.0238L68.3462 24.0239L68.3468 10.0525ZM66.1299 11.9418H58.387V15.9824H65.1735V17.8717H58.387V22.1345H66.1299V11.9418Z" fill="#BCBCBD"/>
<path d="M30.6256 28.4399H14.4624C12.2917 28.4399 10.5368 26.6976 10.5368 24.5709V8.61676C10.5368 6.49097 12.2916 4.74844 14.4624 4.74844H30.6256C32.7959 4.74844 34.5511 6.491 34.5511 8.61676V24.5709C34.5511 26.6975 32.7959 28.4399 30.6256 28.4399Z" stroke="#BCBCBD" stroke-width="1.07355"/>
<path fill-rule="evenodd" clip-rule="evenodd" d="M35.0889 23.2787L10.001 24.573V9.91099L35.0889 8.6167V23.2787ZM19.518 11.5916L17.9748 11.6712C17.9347 14.6733 17.8931 16.3757 17.3526 17.5946L12.5107 17.8444V19.1867L16.4172 18.9852C15.7192 19.7699 14.6899 20.6512 13.1924 21.9331C13.0931 22.0181 12.9905 22.1059 12.8857 22.1957L15.3165 22.0703C16.8067 20.7722 17.758 19.8564 18.3697 18.8845L22.1998 18.687V17.3445L19.0038 17.5094C19.4251 16.1658 19.4787 14.4527 19.518 11.5916ZM16.8381 14.0479V12.5496L13.4062 12.2427V13.7408L16.8381 14.0479ZM13.4062 14.7778V16.2761L16.8381 16.5831V15.085L13.4062 14.7778ZM18.8398 19.5312L20.7018 19.4351L22.1979 21.7152L20.3362 21.8111L18.8398 19.5312ZM23.1506 13.222L23.1504 13.2219L24.6151 10.9929L26.0749 11.5888L26.0746 11.5893L30.6118 11.3552L32.0314 11.282H32.0316V12.8435C31.5901 13.2559 30.924 13.8535 29.7646 14.504C30.5676 14.6672 31.4946 14.8153 32.5691 14.9387V16.3711C30.4942 16.1441 28.9135 15.8251 27.6901 15.476C26.4515 15.9637 24.8829 16.4453 22.8809 16.8699V15.4379C23.9308 15.2098 24.8404 14.9729 25.6308 14.734C24.7712 14.3442 24.2179 13.9685 23.7994 13.6843C23.7362 13.6412 23.1504 13.2221 23.1504 13.2221L23.1506 13.222ZM30.0652 12.7257C29.5508 13.0966 28.8241 13.5336 27.7349 13.9887C26.6476 13.6463 25.9116 13.2848 25.3736 12.9677L30.0652 12.7257ZM22.8809 18.6518L26.9238 18.4432V21.4714L28.5027 21.3899V18.3617L32.5697 18.1518V16.8096L28.5027 17.0193V16.2556L26.9238 16.3371V17.1008L22.8809 17.3093V18.6518ZM31.0844 18.8994L29.2227 18.9956L30.719 21.2755L32.5807 21.1795L31.0844 18.8994ZM24.3831 19.2451L26.2448 19.1489L24.7484 21.5834L22.8867 21.6796L24.3831 19.2451Z" fill="#BCBCBD"/>
</g>
<defs>
<clipPath id="clip0">
<rect width="89.4622" height="25.0494" fill="white" transform="translate(10 4)"/>
</clipPath>
</defs>
</svg>
