<?xml version="1.0" standalone="no"?><!DOCTYPE svg PUBLIC "-//W3C//DTD SVG 1.1//EN" "http://www.w3.org/Graphics/SVG/1.1/DTD/svg11.dtd"><svg t="1573024585369" viewBox="0 0 1024 1024" version="1.1" xmlns="http://www.w3.org/2000/svg" p-id="13628" width="32" height="32" xmlns:xlink="http://www.w3.org/1999/xlink"><defs><style type="text/css"></style></defs><path d="M996.509842 28.744246L752.954669 291.95784a7.76425 7.76425 0 0 0-1.927296 6.828135 47.631749 47.631749 0 0 1-80.94644 42.73091L475.974674 535.568079l19.16283 256.385459 217.949667 217.894601L996.509842 28.744246z" fill="#007FFF" p-id="13629"></path><path d="M993.591365 35.352119L752.679341 295.702302a7.819316 7.819316 0 0 0-1.927296 6.8832 47.081093 47.081093 0 0 1-80.120456 42.180254L479.884332 535.513014a3.854592 3.854592 0 0 0-1.101312 2.973542l18.832437 251.815014L983.404228 57.433427l10.187137-22.026243z" fill="#0069FF" p-id="13630"></path><path d="M986.653099 18.887503l-263.213594 243.500107a7.76425 7.76425 0 0 1-6.883201 1.982362 47.631749 47.631749 0 0 0-42.675844 80.94644L479.7742 539.422672 223.443807 520.14971 5.49414 302.255109 986.653099 18.887503z" fill="#00EED4" p-id="13631"></path><path d="M980.045226 21.80598l-260.460314 240.912024a7.76425 7.76425 0 0 1-6.773069 1.927296 47.081093 47.081093 0 0 0-42.180254 80.120456L479.829266 535.513014a3.854592 3.854592 0 0 1-3.028608 1.101312l-251.815014-18.832437 732.923209-485.788772 22.026242-10.187137z" fill="#00D3B4" p-id="13632"></path></svg>