<?xml version="1.0" standalone="no"?><!DOCTYPE svg PUBLIC "-//W3C//DTD SVG 1.1//EN" "http://www.w3.org/Graphics/SVG/1.1/DTD/svg11.dtd"><svg t="1573024611311" viewBox="0 0 1024 1024" version="1.1" xmlns="http://www.w3.org/2000/svg" p-id="14099" width="32" height="32" xmlns:xlink="http://www.w3.org/1999/xlink"><defs><style type="text/css"></style></defs><path d="M928 310.4v148.8c-8 0-17.6 1.6-27.2 1.6-72 0-139.2-27.2-190.4-70.4v316.8c0 64-20.8 124.8-57.6 172.8-51.2 68.8-134.4 115.2-228.8 115.2-102.4 0-192-54.4-241.6-134.4 51.2 48 120 78.4 195.2 78.4 92.8 0 176-44.8 227.2-115.2 35.2-48 57.6-107.2 57.6-172.8V332.8c51.2 44.8 116.8 70.4 190.4 70.4 9.6 0 17.6 0 27.2-1.6v-96c14.4 3.2 27.2 4.8 41.6 4.8h6.4z" fill="#FF004F" p-id="14100"></path><path d="M464 420.8v164.8c-11.2-3.2-24-4.8-35.2-4.8-70.4 0-128 59.2-128 131.2 0 16 3.2 30.4 8 44.8-32-24-54.4-62.4-54.4-105.6 0-72 57.6-131.2 128-131.2 12.8 0 24 1.6 35.2 4.8v-105.6h9.6c12.8 0 25.6 0 36.8 1.6zM734.4 192c-28.8-25.6-49.6-60.8-60.8-97.6h38.4v22.4c3.2 25.6 11.2 51.2 22.4 75.2z" fill="#FF004F" p-id="14101"></path><path d="M881.6 307.2v96c-8 1.6-17.6 1.6-27.2 1.6-72 0-139.2-27.2-190.4-70.4v316.8c0 64-20.8 124.8-57.6 172.8-52.8 70.4-134.4 115.2-227.2 115.2-75.2 0-144-30.4-195.2-78.4-27.2-44.8-43.2-96-43.2-152 0-155.2 123.2-281.6 276.8-286.4V528c-11.2-3.2-24-4.8-35.2-4.8-70.4 0-128 59.2-128 131.2 0 43.2 20.8 83.2 54.4 105.6 17.6 49.6 65.6 86.4 120 86.4 70.4 0 128-59.2 128-131.2V94.4h116.8c11.2 38.4 32 72 60.8 97.6 28.8 57.6 83.2 100.8 147.2 115.2z" p-id="14102"></path><path d="M417.6 364.8v54.4c-153.6 4.8-276.8 131.2-276.8 286.4 0 56 16 107.2 43.2 152C129.6 804.8 96 731.2 96 648c0-158.4 128-286.4 284.8-286.4 12.8 0 25.6 1.6 36.8 3.2z" fill="#00F7EF" p-id="14103"></path><path d="M673.6 94.4h-116.8v617.6c0 72-57.6 131.2-128 131.2-56 0-102.4-35.2-120-86.4 20.8 14.4 46.4 24 73.6 24 70.4 0 128-57.6 128-129.6V32h155.2v3.2c0 6.4 0 12.8 1.6 19.2 0 12.8 3.2 27.2 6.4 40zM881.6 248v57.6c-64-12.8-118.4-56-148.8-113.6 40 36.8 91.2 57.6 148.8 56z" fill="#00F7EF" p-id="14104"></path></svg>