<?xml version="1.0" standalone="no"?><!DOCTYPE svg PUBLIC "-//W3C//DTD SVG 1.1//EN" "http://www.w3.org/Graphics/SVG/1.1/DTD/svg11.dtd"><svg t="1573024682399" viewBox="0 0 1024 1024" version="1.1" xmlns="http://www.w3.org/2000/svg" p-id="20570" width="32" height="32" xmlns:xlink="http://www.w3.org/1999/xlink"><defs><style type="text/css"></style></defs><path d="M381.96825387 38.6844448C179.11873067 93.29777813 30.88253973 271.44126933 10.07746027 484.69333333-0.32507947 590.01904747 28.28190507 630.32888853 140.1092064 668.03809493c104.02539733 33.80825387 176.8431744 101.4247616 209.35111147 189.84634987 40.30984107 115.72825387 44.2107936 122.22984107 91.02222186 144.33523733 40.30984107 19.5047616 58.51428587 19.5047616 131.33206294 7.80190507 211.95174613-36.40888853 362.78857173-171.64190507 416.10158826-374.49142827C1059.4336512 368.96507947 882.59047573 90.6971424 605.6228576 32.1828576c-88.4215872-18.2044448-135.23301547-16.90412693-223.65460373 6.5015872z m176.8431744 322.4787296c158.63873067 74.11809493 201.5492064 158.63873067 119.6292064 237.95809493-102.72507947 97.52380907-240.55873067 136.53333333-291.2711104 80.6196832-20.80507947-23.40571413-24.706032-48.11174613-24.706032-161.23936533s3.90095253-137.8336512 24.706032-161.23936533c32.507936-36.40888853 88.4215872-35.10857173 171.641904 3.90095253z" fill="#FE163E" p-id="20571"></path></svg>