<svg width="48" height="48" viewBox="0 0 48 48" fill="none" xmlns="http://www.w3.org/2000/svg" stroke="currentColor" stroke-width="4">
<path d="M22 21.0002H17V25.0941H22V21.0002Z" fill="currentColor" stroke="none" stroke-width="none" stroke-linecap="butt"></path>
<path d="M26 25.0941V21.0002H31V25.0941H26Z" fill="currentColor" stroke="none" stroke-width="none" stroke-linecap="butt"></path>
<path fill-rule="evenodd" clip-rule="evenodd" d="M24 4C12.9543 4 4 12.9543 4 24C4 35.0457 12.9543 44 24 44C35.0457 44 44 35.0457 44 24C44 12.9543 35.0457 4 24 4ZM26 17.0002V12H22V17.0002H15.5C14.1193 17.0002 13 18.1195 13 19.5002V26.5941C13 27.9748 14.1193 29.0941 15.5 29.0941H22V36H26V29.0941H32.5C33.8807 29.0941 35 27.9748 35 26.5941V19.5002C35 18.1195 33.8807 17.0002 32.5 17.0002H26Z" fill="currentColor" stroke="none" stroke-width="none" stroke-linecap="butt"></path>
</svg>