<svg width="48" height="48" viewBox="0 0 48 48" fill="none" xmlns="http://www.w3.org/2000/svg" stroke="currentColor" stroke-width="4">
<path fill-rule="evenodd" clip-rule="evenodd" d="M23.2 4C12.5961 4 4 12.5961 4 23.2V24.8C4 35.4039 12.5961 44 23.2 44H24.8C35.4039 44 44 35.4039 44 24.8V23.2C44 12.5961 35.4039 4 24.8 4H23.2ZM14.1143 14C12.9466 14 12 14.9466 12 16.1143V31.8857C12 33.0534 12.9466 34 14.1143 34H25V30H16V26H23.7778V22H16V18H25V14H14.1143ZM32.3992 22C29.4165 22 26.9984 24.418 26.9984 27.4008V34H30.9984V27.4008C30.9984 26.6272 31.6256 26 32.3992 26C33.1728 26 33.8 26.6272 33.8 27.4008V34H37.8V27.4008C37.8 24.418 35.382 22 32.3992 22Z" fill="currentColor" stroke="none" stroke-width="none" stroke-linecap="butt"></path>
</svg>