<svg width="48" height="48" viewBox="0 0 48 48" fill="none" xmlns="http://www.w3.org/2000/svg" stroke="currentColor" stroke-width="4">
<path fill-rule="evenodd" clip-rule="evenodd" d="M24 44C35.0457 44 44 35.0457 44 24C44 12.9543 35.0457 4 24 4C12.9543 4 4 12.9543 4 24C4 35.0457 12.9543 44 24 44ZM31.3221 17.1266C32.7718 17.1266 33.9471 18.3018 33.9471 19.7516C33.9471 21.2013 32.7718 22.3766 31.3221 22.3766C29.8724 22.3766 28.6971 21.2013 28.6971 19.7516C28.6971 18.3018 29.8724 17.1266 31.3221 17.1266ZM16.6759 17.1266C18.1257 17.1266 19.3009 18.3018 19.3009 19.7516C19.3009 21.2013 18.1257 22.3766 16.6759 22.3766C15.2262 22.3766 14.0509 21.2013 14.0509 19.7516C14.0509 18.3018 15.2262 17.1266 16.6759 17.1266ZM31.6798 32.8802C30.887 33.5754 29.6809 33.4963 28.9857 32.7036C27.7231 31.2639 25.9114 30.4248 23.9596 30.4248C22.0418 30.4248 20.2588 31.2346 18.9982 32.6309C18.2916 33.4135 17.0844 33.4752 16.3018 32.7686C15.5192 32.062 15.4576 30.8549 16.1641 30.0723C18.1413 27.8822 20.95 26.6066 23.9596 26.6066C27.0227 26.6066 29.8763 27.9282 31.8564 30.1862C32.5516 30.9789 32.4725 32.1851 31.6798 32.8802Z" fill="currentColor" stroke="none" stroke-width="none" stroke-linecap="butt"></path>
</svg>