<svg width="48" height="48" viewBox="0 0 48 48" fill="none" xmlns="http://www.w3.org/2000/svg" stroke="currentColor" stroke-width="4">
<path fill-rule="evenodd" clip-rule="evenodd" d="M24 44C35.0457 44 44 35.0457 44 24C44 12.9543 35.0457 4 24 4C12.9543 4 4 12.9543 4 24C4 35.0457 12.9543 44 24 44ZM31.3212 17.1266C32.7709 17.1266 33.9462 18.3018 33.9462 19.7516C33.9462 21.2013 32.7709 22.3766 31.3212 22.3766C29.8714 22.3766 28.6962 21.2013 28.6962 19.7516C28.6962 18.3018 29.8714 17.1266 31.3212 17.1266ZM16.675 17.1266C18.1247 17.1266 19.3 18.3018 19.3 19.7516C19.3 21.2013 18.1247 22.3766 16.675 22.3766C15.2253 22.3766 14.05 21.2013 14.05 19.7516C14.05 18.3018 15.2253 17.1266 16.675 17.1266ZM16.3196 27.0804C17.1123 26.3853 18.3185 26.4644 19.0137 27.2571C20.2763 28.6968 22.088 29.5359 24.0398 29.5359C25.9576 29.5359 27.7405 28.7261 29.0012 27.3298C29.7078 26.5472 30.915 26.4855 31.6976 27.1921C32.4802 27.8986 32.5418 29.1058 31.8353 29.8884C29.858 32.0784 27.0494 33.3541 24.0398 33.3541C20.9767 33.3541 18.1231 32.0325 16.143 29.7745C15.4478 28.9818 15.5269 27.7756 16.3196 27.0804Z" fill="currentColor" stroke="none" stroke-width="none" stroke-linecap="butt"></path>
</svg>