<svg width="48" height="48" viewBox="0 0 48 48" fill="none" xmlns="http://www.w3.org/2000/svg" stroke="currentColor" stroke-width="4">
<path fill-rule="evenodd" clip-rule="evenodd" d="M24 44C35.0457 44 44 35.0457 44 24C44 12.9543 35.0457 4 24 4C12.9543 4 4 12.9543 4 24C4 35.0457 12.9543 44 24 44ZM31.3212 17.1266C32.7709 17.1266 33.9462 18.3018 33.9462 19.7516C33.9462 21.2013 32.7709 22.3766 31.3212 22.3766C29.8714 22.3766 28.6962 21.2013 28.6962 19.7516C28.6962 18.3018 29.8714 17.1266 31.3212 17.1266ZM16.675 17.1266C18.1247 17.1266 19.3 18.3018 19.3 19.7516C19.3 21.2013 18.1247 22.3766 16.675 22.3766C15.2253 22.3766 14.05 21.2013 14.05 19.7516C14.05 18.3018 15.2253 17.1266 16.675 17.1266ZM15.9992 30C15.9992 28.8954 16.8946 28 17.9992 28H29.9992C31.1038 28 31.9992 28.8954 31.9992 30C31.9992 31.1046 31.1038 32 29.9992 32H17.9992C16.8946 32 15.9992 31.1046 15.9992 30Z" fill="currentColor" stroke="none" stroke-width="none" stroke-linecap="butt"></path>
</svg>