<svg width="48" height="48" viewBox="0 0 48 48" fill="none" xmlns="http://www.w3.org/2000/svg" stroke="currentColor" stroke-width="4">
<circle cx="24" cy="24" r="9" fill="currentColor" stroke="none" stroke-width="none" stroke-linecap="butt"></circle>
<path d="M21 5.5C21 5.22386 21.2239 5 21.5 5H26.5C26.7761 5 27 5.22386 27 5.5V10.5C27 10.7761 26.7761 11 26.5 11H21.5C21.2239 11 21 10.7761 21 10.5V5.5Z" fill="currentColor" stroke="none" stroke-width="none" stroke-linecap="butt"></path>
<path d="M21 37.5C21 37.2239 21.2239 37 21.5 37H26.5C26.7761 37 27 37.2239 27 37.5V42.5C27 42.7761 26.7761 43 26.5 43H21.5C21.2239 43 21 42.7761 21 42.5V37.5Z" fill="currentColor" stroke="none" stroke-width="none" stroke-linecap="butt"></path>
<path d="M42.5 21C42.7761 21 43 21.2239 43 21.5V26.5C43 26.7761 42.7761 27 42.5 27H37.5C37.2239 27 37 26.7761 37 26.5V21.5C37 21.2239 37.2239 21 37.5 21H42.5Z" fill="currentColor" stroke="none" stroke-width="none" stroke-linecap="butt"></path>
<path d="M10.5 21C10.7761 21 11 21.2239 11 21.5V26.5C11 26.7761 10.7761 27 10.5 27H5.5C5.22386 27 5 26.7761 5 26.5L5 21.5C5 21.2239 5.22386 21 5.5 21H10.5Z" fill="currentColor" stroke="none" stroke-width="none" stroke-linecap="butt"></path>
<path d="M39.2028 34.9602C39.3981 35.1554 39.3981 35.472 39.2028 35.6673L35.6673 39.2028C35.472 39.3981 35.1554 39.3981 34.9602 39.2028L31.4246 35.6673C31.2294 35.472 31.2294 35.1554 31.4246 34.9602L34.9602 31.4246C35.1554 31.2294 35.472 31.2294 35.6673 31.4246L39.2028 34.9602Z" fill="currentColor" stroke="none" stroke-width="none" stroke-linecap="butt"></path>
<path d="M16.5754 12.3327C16.7706 12.528 16.7706 12.8446 16.5754 13.0398L13.0398 16.5754C12.8446 16.7706 12.528 16.7706 12.3327 16.5754L8.79721 13.0398C8.60194 12.8446 8.60194 12.528 8.79721 12.3327L12.3327 8.79721C12.528 8.60194 12.8446 8.60194 13.0398 8.79721L16.5754 12.3327Z" fill="currentColor" stroke="none" stroke-width="none" stroke-linecap="butt"></path>
<path d="M13.0401 39.2028C12.8449 39.3981 12.5283 39.3981 12.333 39.2028L8.7975 35.6673C8.60223 35.472 8.60223 35.1554 8.7975 34.9602L12.333 31.4246C12.5283 31.2294 12.8449 31.2294 13.0401 31.4246L16.5757 34.9602C16.7709 35.1554 16.7709 35.472 16.5757 35.6673L13.0401 39.2028Z" fill="currentColor" stroke="none" stroke-width="none" stroke-linecap="butt"></path>
<path d="M35.6676 16.5754C35.4723 16.7707 35.1557 16.7707 34.9604 16.5754L31.4249 13.0399C31.2296 12.8446 31.2296 12.528 31.4249 12.3327L34.9604 8.79722C35.1557 8.60195 35.4723 8.60195 35.6676 8.79722L39.2031 12.3327C39.3983 12.528 39.3983 12.8446 39.2031 13.0399L35.6676 16.5754Z" fill="currentColor" stroke="none" stroke-width="none" stroke-linecap="butt"></path>
</svg>