<svg width="48" height="48" viewBox="0 0 48 48" fill="none" xmlns="http://www.w3.org/2000/svg" stroke="currentColor" stroke-width="4">
<path d="M11 31V20C11 12.8203 16.8203 7 24 7C31.1797 7 37 12.8203 37 20V28C37 33.7841 33.2225 38.6859 28 40.373M28 40.373C26.7399 40.7801 25.3956 41 24 41H21C20.4477 41 20 40.5523 20 40V38C20 37.4477 20.4477 37 21 37H27C27.5523 37 28 37.4477 28 38V40.373ZM28 40.373V41M37 21H40C40.5523 21 41 21.4477 41 22V28C41 28.5523 40.5523 29 40 29H37V21ZM11 21H8C7.44772 21 7 21.4477 7 22V28C7 28.5523 7.44772 29 8 29H11V21Z" stroke-linecap="butt"></path>
</svg>