<svg width="48" height="48" viewBox="0 0 48 48" fill="none" xmlns="http://www.w3.org/2000/svg" stroke="currentColor" stroke-width="4">
<path d="M6.64156 24.684L20.6545 39.6311C20.7785 39.7634 21.0004 39.6756 21.0004 39.4943V30.5451C22.6101 30.1882 24.2832 30.0001 26.0004 30.0001C32.2076 30.0001 37.8405 32.459 41.9782 36.4559C41.9845 36.462 41.995 36.4577 41.9952 36.449C41.9986 36.2997 42.0004 36.1501 42.0004 36.0001C42.0004 25.5067 33.4938 17.0001 23.0004 17.0001C22.3249 17.0001 21.6576 17.0353 21.0004 17.1041V8.50582C21.0004 8.32452 20.7785 8.23676 20.6545 8.36903L6.64156 23.3161C6.28094 23.7008 6.28094 24.2994 6.64156 24.684Z" stroke-linecap="butt"></path>
</svg>