<svg width="48" height="48" viewBox="0 0 48 48" fill="none" xmlns="http://www.w3.org/2000/svg" stroke="currentColor" stroke-width="4">
<path d="M18.7967 6.73236C18.917 6.29954 19.311 6 19.7602 6H28.2401C28.6893 6 29.0834 6.29954 29.2036 6.73236L30.489 11.3599C30.6349 11.8852 31.1747 12.1968 31.7025 12.0605L36.3531 10.8599C36.788 10.7476 37.2445 10.9391 37.4691 11.3281L41.709 18.6719C41.9336 19.0609 41.8712 19.552 41.5565 19.8725L38.1917 23.2994C37.8098 23.6884 37.8098 24.3116 38.1917 24.7006L41.5565 28.1275C41.8712 28.4481 41.9336 28.9391 41.709 29.3281L37.4691 36.6719C37.2445 37.0609 36.788 37.2524 36.3531 37.1401L31.7025 35.9395C31.1747 35.8032 30.6349 36.1148 30.489 36.6401L29.2036 41.2676C29.0834 41.7005 28.6893 42 28.2401 42H19.7602C19.311 42 18.917 41.7005 18.7967 41.2676L17.5114 36.6403C17.3654 36.115 16.8257 35.8034 16.2979 35.9397L11.6481 37.1401C11.2131 37.2524 10.7567 37.0609 10.5321 36.6719L6.29215 29.3281C6.06755 28.9391 6.12991 28.4481 6.44463 28.1275L9.80941 24.7006C10.1914 24.3116 10.1914 23.6884 9.80941 23.2994L6.44464 19.8725C6.12992 19.552 6.06755 19.0609 6.29216 18.6719L10.5321 11.3281C10.7567 10.9391 11.2131 10.7476 11.6481 10.8599L16.2979 12.0603C16.8257 12.1966 17.3654 11.885 17.5114 11.3597L18.7967 6.73236Z" stroke-linecap="butt"></path>
<path d="M30.0002 24C30.0002 27.3137 27.3139 30 24.0002 30C20.6864 30 18.0002 27.3137 18.0002 24C18.0002 20.6863 20.6864 18 24.0002 18C27.3139 18 30.0002 20.6863 30.0002 24Z" stroke-linecap="butt"></path>
</svg>