<svg width="48" height="48" viewBox="0 0 48 48" fill="none" xmlns="http://www.w3.org/2000/svg" stroke="currentColor" stroke-width="4">
<path d="M22.5516 6.90849C22.735 6.53687 23.265 6.53687 23.4484 6.90849L28.4676 17.0786C28.5405 17.2262 28.6812 17.3285 28.8441 17.3521L40.0675 18.983C40.4776 19.0426 40.6414 19.5466 40.3446 19.8358L32.2233 27.7522C32.1054 27.867 32.0517 28.0325 32.0795 28.1947L33.9967 39.3728C34.0667 39.7812 33.638 40.0927 33.2712 39.8999L23.2327 34.6223C23.087 34.5457 22.913 34.5457 22.7673 34.6223L12.7288 39.8999C12.362 40.0927 11.9333 39.7812 12.0033 39.3728L13.9205 28.1947C13.9483 28.0325 13.8946 27.867 13.7767 27.7522L5.6554 19.8358C5.35864 19.5466 5.5224 19.0426 5.93251 18.983L17.1559 17.3521C17.3188 17.3285 17.4595 17.2262 17.5324 17.0786L22.5516 6.90849Z" stroke-linecap="butt"></path>
</svg>