<svg width="158" height="32" viewBox="0 0 158 32" fill="none" xmlns="http://www.w3.org/2000/svg">
<path d="M33.3296 23H40.4296C43.2696 23 44.9096 21.32 44.9096 19.24C44.9096 17.84 44.2496 16.46 42.7496 15.76C43.7496 15.1 44.4096 13.94 44.4096 12.74C44.4096 10.68 42.7496 9.00004 40.0296 9.00004H33.3296V23ZM36.1296 14.76V11.64H39.9296C40.9096 11.64 41.5496 12.38 41.5496 13.26C41.5496 14.02 40.9096 14.76 39.9296 14.76H36.1296ZM36.1296 20.36V17.2H40.2296C41.3096 17.2 41.9496 17.92 41.9496 18.84C41.9496 19.66 41.3096 20.36 40.2296 20.36H36.1296Z" fill="#4B4B4B"/>
<path d="M47.5183 27.8H50.2783L56.6983 12.4H54.0383L51.0783 19.68L47.7583 12.4H45.0983L49.6983 22.5L47.5183 27.8Z" fill="#4B4B4B"/>
<path d="M64.3807 23.12V20.78C62.9007 20.86 61.8207 20.84 61.8207 19.76V14.9H64.3807V12.4H61.8207V9.60004L59.2407 10.38V12.4H57.3007V14.9H59.2407V19.76C59.2407 22.46 60.7607 23.52 64.3807 23.12Z" fill="#4B4B4B"/>
<path d="M70.6219 23.28C72.8419 23.28 74.5619 22.54 75.4819 20.98L73.4219 19.62C72.7819 20.4 71.8019 20.78 70.6219 20.78C69.6619 20.78 68.2219 20.18 67.8019 18.78L75.8619 18.74C76.2819 14.76 74.5219 12.12 70.6619 12.12C67.5619 12.12 65.1819 14.52 65.1819 17.64C65.1819 20.84 67.5219 23.28 70.6219 23.28ZM67.8819 16.56C68.1419 15.36 69.5219 14.62 70.6619 14.62C71.8419 14.62 73.0619 15.28 73.4019 16.56H67.8819Z" fill="#4B4B4B"/>
<path d="M85.4951 8.72004V13.72C84.7351 12.78 83.6151 12.08 82.0351 12.08C79.0351 12.08 76.7351 14.58 76.7351 17.66C76.7351 20.7 79.0351 23.08 82.0351 23.18C83.6151 23.24 84.7351 22.56 85.4951 21.64V23H88.1951V8.72004H85.4951ZM82.5351 20.68C80.7351 20.68 79.4351 19.14 79.4351 17.66C79.4351 16.14 80.7351 14.58 82.5351 14.58C84.3351 14.58 85.5551 16.14 85.5551 17.66C85.5551 19.16 84.3751 20.66 82.5351 20.68Z" fill="#4B4B4B"/>
<path d="M100.494 11.6V9.00004H90.2944V23H100.494V20.4H93.0944V17.14H100.054V14.54H93.0944V11.6H100.494Z" fill="#4B4B4B"/>
<path d="M108.581 10.96V8.46004C104.721 8.00004 103.521 9.36004 103.401 12.4H101.501V14.9H103.381V23H106.081V14.9H108.581V12.4H106.081C106.181 10.2 108.081 10.8 108.581 10.96Z" fill="#4B4B4B"/>
<path d="M116.463 10.96V8.46004C112.603 8.00004 111.403 9.36004 111.283 12.4H109.383V14.9H111.263V23H113.963V14.9H116.463V12.4H113.963C114.063 10.2 115.963 10.8 116.463 10.96Z" fill="#4B4B4B"/>
<path d="M122.704 23.28C124.924 23.28 126.644 22.54 127.564 20.98L125.504 19.62C124.864 20.4 123.884 20.78 122.704 20.78C121.744 20.78 120.304 20.18 119.884 18.78L127.944 18.74C128.364 14.76 126.604 12.12 122.744 12.12C119.644 12.12 117.264 14.52 117.264 17.64C117.264 20.84 119.604 23.28 122.704 23.28ZM119.964 16.56C120.224 15.36 121.604 14.62 122.744 14.62C123.924 14.62 125.144 15.28 125.484 16.56H119.964Z" fill="#4B4B4B"/>
<path d="M134.157 23.3C136.177 23.3 137.797 22.42 138.717 20.86L136.657 19.62C136.017 20.4 135.337 20.8 134.157 20.8C132.957 20.8 131.517 19.68 131.517 17.64C131.517 15.7 132.957 14.62 134.157 14.62C135.337 14.62 136.137 15 136.677 15.78L138.697 14.52C137.797 12.96 136.177 12.12 134.157 12.12C131.057 12.12 128.817 14.54 128.817 17.64C128.817 20.84 131.057 23.3 134.157 23.3Z" fill="#4B4B4B"/>
<path d="M146.591 23.12V20.78C145.111 20.86 144.031 20.84 144.031 19.76V14.9H146.591V12.4H144.031V9.60004L141.451 10.38V12.4H139.511V14.9H141.451V19.76C141.451 22.46 142.971 23.52 146.591 23.12Z" fill="#4B4B4B"/>
<path d="M152.112 23.28C154.292 23.28 156.492 22.04 156.492 19.92C156.492 18.04 154.732 17.02 152.852 16.64C150.572 16.18 150.252 16.12 150.252 15.44C150.252 14.68 151.412 14.46 152.172 14.46C153.032 14.46 154.112 14.74 154.672 15.46L156.372 14.02C155.352 12.62 153.612 12.16 152.132 12.16C149.832 12.16 147.852 13.32 147.852 15.58C147.852 17.52 149.152 18.38 151.032 18.7C153.512 19.12 154.052 19.26 154.012 20.02C153.972 20.68 153.012 21 151.892 20.92C150.512 20.82 149.932 20.38 149.312 19.8L147.592 21.26C148.752 22.66 150.612 23.28 152.112 23.28Z" fill="#4B4B4B"/>
<rect x="17.1309" y="18.437" width="7.06727" height="12.7399" transform="rotate(-30 17.1309 18.437)" fill="url(#paint0_linear_804:13425)"/>
<rect x="10.248" y="6.53369" width="7.06727" height="24.7354" rx="3.53364" transform="rotate(-30 10.248 6.53369)" fill="url(#paint1_linear_804:13425)"/>
<rect width="7.06727" height="24.7354" rx="3.53364" transform="matrix(-0.866025 -0.5 -0.5 0.866025 19.8906 6.53369)" fill="url(#paint2_linear_804:13425)"/>
<rect width="3.8589" height="19.6462" rx="1.92945" transform="matrix(-0.866025 -0.5 -0.5 0.866025 13.2754 7.87402)" fill="url(#paint3_linear_804:13425)"/>
<defs>
<linearGradient id="paint0_linear_804:13425" x1="20.6645" y1="18.437" x2="20.6645" y2="31.1769" gradientUnits="userSpaceOnUse">
<stop stop-color="#388CFF"/>
<stop offset="1" stop-color="#388CFF" stop-opacity="0"/>
</linearGradient>
<linearGradient id="paint1_linear_804:13425" x1="13.7817" y1="6.53369" x2="13.7817" y2="31.2691" gradientUnits="userSpaceOnUse">
<stop stop-color="#80FFF3"/>
<stop offset="0.478231" stop-color="#8FF8F6"/>
<stop offset="1" stop-color="#3588FF"/>
</linearGradient>
<linearGradient id="paint2_linear_804:13425" x1="3.35053" y1="-4.18601" x2="3.53364" y2="24.7354" gradientUnits="userSpaceOnUse">
<stop stop-color="#80FFF3"/>
<stop offset="1" stop-color="#3588FF"/>
</linearGradient>
<linearGradient id="paint3_linear_804:13425" x1="1.70022" y1="-0.192511" x2="2.18509" y2="19.64" gradientUnits="userSpaceOnUse">
<stop stop-color="#80FFF3"/>
<stop offset="0.760417" stop-color="#80FFF3"/>
<stop offset="1" stop-color="#80FFF3" stop-opacity="0"/>
</linearGradient>
</defs>
</svg>
