<svg width="109" height="32" viewBox="0 0 109 32" fill="none" xmlns="http://www.w3.org/2000/svg">
<g clip-path="url(#clip0_591:13456)">
<g clip-path="url(#clip1_591:13456)">
<path d="M12.9476 4L3.70894 5.26136C2.68621 5.39773 1.86803 6.18182 1.66349 7.20455L0.129395 16L7.59531 14.9773C9.64076 14.7045 11.2771 13.1364 11.6521 11.0909L12.9476 4Z" fill="#00AAFF"/>
<path d="M12.948 4L22.1866 5.26136C23.2094 5.39773 24.0275 6.18182 24.2321 7.20455L25.7321 16L18.2662 14.9773C16.2207 14.7045 14.5844 13.1364 14.2094 11.0909L12.948 4Z" fill="#00AAFF"/>
<path d="M12.9476 28L3.70894 26.7386C2.68621 26.6023 1.86803 25.8182 1.66349 24.7954L0.129395 16L7.59531 17.0227C9.64076 17.2955 11.2771 18.8636 11.6521 20.9091L12.9476 28Z" fill="#00AAFF"/>
<path d="M12.948 28L22.1866 26.7727C23.2094 26.6364 24.0275 25.8523 24.2321 24.8295L25.7321 16L18.2662 17.0227C16.2207 17.2955 14.5844 18.8636 14.2094 20.9091L12.948 28Z" fill="#00AAFF"/>
<path d="M55.7309 8.56812H44.2764V11.4658H48.5377V23.4318H51.4696V11.4658H55.7309V8.56812Z" fill="#1A2233"/>
<path d="M39.2656 14.7386C38.8224 14.6363 37.4247 14.4659 37.4247 14.4659C35.9929 14.0909 35.5497 13.4772 35.5497 12.7954C35.5497 12.284 35.7542 11.8068 36.1292 11.4318C36.5042 11.0568 37.2542 10.8181 38.0383 10.8181C38.7542 10.8181 39.8452 10.9545 41.0724 11.909L42.9815 10.0681C41.7202 8.94314 40.0156 8.29541 38.0042 8.29541C37.152 8.29541 36.402 8.39768 35.7542 8.63632C33.027 9.59086 32.6179 11.8068 32.6179 12.8977C32.6179 14.1931 33.6065 16.6136 36.7088 17.125C37.152 17.1931 38.1065 17.2954 38.5497 17.3977C40.152 17.7386 40.4247 18.625 40.4247 19.1704C40.4247 19.784 40.1861 20.2613 39.7429 20.5681C39.2656 20.909 38.5838 21.0454 37.6974 21.0454C36.9815 21.0454 35.2088 20.8068 33.9815 19.784L32.0383 21.6931C33.8792 23.3295 36.5042 23.7045 37.6633 23.7045C38.4815 23.7045 39.2315 23.6022 39.9133 23.3977C42.5383 22.5795 43.3565 20.7386 43.3565 19.1022C43.3906 17.8068 42.5383 15.4204 39.2656 14.7386Z" fill="#1A2233"/>
<path d="M105.47 8.56812L102.061 13.9204L98.652 8.56812H95.1406L100.595 17.159V23.4318H103.493V17.159L108.982 8.56812H105.47Z" fill="#1A2233"/>
<path d="M60.1293 8.56812L54.4702 23.4318H57.5725L58.7316 20.3636H64.6293L65.7884 23.4318H68.8907L63.2316 8.56812H60.1293ZM63.5384 17.4658H59.8566L61.6975 12.659L63.5384 17.4658Z" fill="#1A2233"/>
<path d="M81.4695 13.2045C81.4695 10.6477 79.3899 8.56812 76.8331 8.56812H70.2195V23.4318H73.1172V17.8749H76.2877L78.9809 23.4658H82.0831L79.1172 17.2954C80.5149 16.4772 81.4695 14.9431 81.4695 13.2045ZM73.1172 11.4658H76.8331C77.7877 11.4658 78.5718 12.2499 78.5718 13.2045C78.5718 14.159 77.7877 14.9431 76.8331 14.9431H73.1172V11.4658Z" fill="#1A2233"/>
<path d="M92.7544 17.2613C94.1521 16.4772 95.1067 14.9431 95.1067 13.2045C95.1067 10.6477 93.0271 8.56812 90.4703 8.56812H83.8567V23.4318H86.7544V17.8749H89.7544L92.5839 23.4658H95.6862L92.7544 17.2613ZM90.4703 14.9431H86.7544V11.4658H90.4703C91.4249 11.4658 92.2089 12.2499 92.2089 13.2045C92.2089 14.159 91.4249 14.9431 90.4703 14.9431Z" fill="#1A2233"/>
</g>
</g>
<defs>
<clipPath id="clip0_591:13456">
<rect width="109" height="32" fill="white"/>
</clipPath>
<clipPath id="clip1_591:13456">
<rect width="110" height="24" fill="white" transform="translate(0.129395 4)"/>
</clipPath>
</defs>
</svg>
