<svg width="119" height="32" viewBox="0 0 119 32" fill="none" xmlns="http://www.w3.org/2000/svg">
<g clip-path="url(#clip0_591:13518)">
<path d="M68.368 25.8089H66.7938C66.5607 25.8089 66.3752 25.6267 66.3752 25.3978V8.03198C66.3752 7.80306 66.5607 7.62085 66.7938 7.62085H68.368C68.6011 7.62085 68.7866 7.80306 68.7866 8.03198V25.3978C68.7913 25.6267 68.6011 25.8089 68.368 25.8089Z" fill="#4B4B4B"/>
<path d="M61.0724 26.2713H59.5029C59.2698 26.2713 59.0796 26.0844 59.0796 25.8555V10.1763C59.0796 9.94738 59.2698 9.7605 59.5029 9.7605H61.0724C61.3054 9.7605 61.4957 9.94738 61.4957 10.1763V25.8555C61.4957 26.0844 61.3054 26.2713 61.0724 26.2713Z" fill="#4B4B4B"/>
<path d="M75.6735 26.2713H74.104C73.8709 26.2713 73.6807 26.0844 73.6807 25.8555V10.1763C73.6807 9.94738 73.8709 9.7605 74.104 9.7605H75.6735C75.9065 9.7605 76.0968 9.94738 76.0968 10.1763V25.8555C76.0968 26.0844 75.9065 26.2713 75.6735 26.2713Z" fill="#4B4B4B"/>
<path d="M59.4648 25.5007V23.8982H75.702V25.5007C75.702 25.9258 75.35 26.2716 74.9172 26.2716H60.2448C59.812 26.2716 59.4648 25.9258 59.4648 25.5007Z" fill="#4B4B4B"/>
<path d="M41.2919 10.0734C41.33 11.0125 41.4584 13.1663 41.9102 16.5582C41.9292 16.689 41.8246 16.8105 41.6867 16.8105H39.3895C39.2753 16.8105 39.1802 16.7264 39.1659 16.6142C38.7189 13.199 38.5952 11.0405 38.5619 10.0921C38.5572 9.96599 38.6571 9.8632 38.7855 9.8632H41.0684C41.192 9.85853 41.2871 9.95197 41.2919 10.0734Z" fill="#4B4B4B"/>
<path d="M52.2261 10.0688C52.1881 10.9985 52.0597 13.1383 51.6126 16.5021C51.5936 16.6329 51.6982 16.7497 51.8314 16.7497H54.1095C54.2237 16.7497 54.3188 16.6656 54.3331 16.5582C54.7754 13.1663 54.899 11.0265 54.9323 10.0875C54.9371 9.96599 54.8372 9.8632 54.7088 9.8632H52.4449C52.3308 9.85853 52.2309 9.95197 52.2261 10.0688Z" fill="#4B4B4B"/>
<path d="M45.5248 14.7045C45.6247 20.138 40.8163 23.7822 37.9627 23.9597C37.8438 23.969 37.7534 24.0578 37.7534 24.1746V26.1555C37.7534 26.277 37.8581 26.3751 37.9817 26.3704C40.1124 26.2443 42.538 25.1137 44.3643 23.3757C46.0099 21.8106 47.9742 19.0354 47.9742 14.7138V7.74323C47.9742 7.62643 47.8791 7.52832 47.7554 7.52832H45.7388C45.6199 7.52832 45.52 7.62176 45.52 7.74323V14.7045H45.5248Z" fill="#4B4B4B"/>
<path d="M47.9743 14.7035C47.8744 20.137 52.6827 23.7812 55.5364 23.9587C55.6553 23.9681 55.7456 24.0568 55.7456 24.1736V26.1546C55.7456 26.276 55.641 26.3741 55.5174 26.3695C53.3866 26.2433 50.9611 25.1127 49.1347 23.3747C47.4891 21.8096 45.5249 19.0344 45.5249 14.7129V7.74226C45.5249 7.62546 45.62 7.52734 45.7437 7.52734H47.7602C47.8791 7.52734 47.979 7.62078 47.979 7.74226V14.7035H47.9743Z" fill="#4B4B4B"/>
<path d="M84.2581 13.4466V11.9048C84.2581 11.6759 84.4483 11.489 84.6813 11.489H92.8237C93.0568 11.489 93.247 11.6759 93.247 11.9048V13.4466C93.247 13.6755 93.0568 13.8624 92.8237 13.8624H84.6813C84.4483 13.8624 84.2581 13.6755 84.2581 13.4466Z" fill="#4B4B4B"/>
<path d="M84.2581 17.0394V15.4976C84.2581 15.2687 84.4483 15.0818 84.6813 15.0818H92.8237C93.0568 15.0818 93.247 15.2687 93.247 15.4976V17.0394C93.247 17.2683 93.0568 17.4552 92.8237 17.4552H84.6813C84.4483 17.4552 84.2581 17.2683 84.2581 17.0394Z" fill="#4B4B4B"/>
<path d="M84.6813 15.0818H86.2509C86.4839 15.0818 86.6741 15.2687 86.6741 15.4976V22.9541C86.6741 23.183 86.4839 23.3699 86.2509 23.3699H84.6813C84.4483 23.3699 84.2581 23.183 84.2581 22.9541V15.4976C84.2581 15.2687 84.4483 15.0818 84.6813 15.0818Z" fill="#4B4B4B"/>
<path d="M91.2495 15.0818H92.819C93.052 15.0818 93.2422 15.2687 93.2422 15.4976V22.9541C93.2422 23.183 93.052 23.3699 92.819 23.3699H91.2495C91.0164 23.3699 90.8262 23.183 90.8262 22.9541V15.4976C90.8309 15.2687 91.0164 15.0818 91.2495 15.0818Z" fill="#4B4B4B"/>
<path d="M84.2581 22.9541V21.4124C84.2581 21.1835 84.4483 20.9966 84.6813 20.9966H92.8237C93.0568 20.9966 93.247 21.1835 93.247 21.4124V22.9541C93.247 23.1831 93.0568 23.3699 92.8237 23.3699H84.6813C84.4483 23.3699 84.2581 23.1831 84.2581 22.9541Z" fill="#4B4B4B"/>
<path d="M82.308 26.2712H80.7385C80.5054 26.2712 80.3152 26.0843 80.3152 25.8554V8.30741C80.3152 8.07848 80.5054 7.8916 80.7385 7.8916H82.308C82.541 7.8916 82.7313 8.07848 82.7313 8.30741V25.8554C82.7265 26.0843 82.541 26.2712 82.308 26.2712Z" fill="#4B4B4B"/>
<path d="M80.3105 9.85405V8.31229C80.3105 8.08336 80.5008 7.89648 80.7338 7.89648H96.7665C96.9995 7.89648 97.1898 8.08336 97.1898 8.31229V9.85405C97.1898 10.083 96.9995 10.2699 96.7665 10.2699H80.7338C80.5008 10.2652 80.3105 10.083 80.3105 9.85405Z" fill="#4B4B4B"/>
<path d="M97.1897 8.1114C97.1897 7.9946 97.0898 7.89648 96.9709 7.89648H94.9924C94.8735 7.89648 94.7736 7.9946 94.7736 8.1114V23.898H94.0079C93.87 23.898 93.7511 23.9868 93.7178 24.1176L93.1709 26.0799C93.1423 26.178 93.2184 26.2714 93.3183 26.2714H94.9877H96.3098C96.7902 26.2714 97.185 25.8883 97.185 25.4118V8.1114H97.1897Z" fill="#4B4B4B"/>
<path d="M106.502 11.1341V9.59232C106.502 9.36339 106.692 9.17651 106.925 9.17651H117.669C117.902 9.17651 118.093 9.36339 118.093 9.59232V11.1341C118.093 11.363 117.902 11.5499 117.669 11.5499H106.925C106.692 11.5499 106.502 11.363 106.502 11.1341Z" fill="#4B4B4B"/>
<path d="M106.25 15.1194V13.5777C106.25 13.3487 106.44 13.1619 106.674 13.1619H117.926C118.159 13.1619 118.35 13.3487 118.35 13.5777V15.1194C118.35 15.3484 118.159 15.5352 117.926 15.5352H106.674C106.436 15.5306 106.25 15.3484 106.25 15.1194Z" fill="#4B4B4B"/>
<path d="M103.106 11.5872H105.099V25.8928C105.099 26.1217 104.909 26.3086 104.676 26.3086H103.106C102.873 26.3086 102.683 26.1217 102.683 25.8928V12.003C102.683 11.774 102.873 11.5872 103.106 11.5872Z" fill="#4B4B4B"/>
<path d="M115.448 25.963L110.612 21.3518C110.497 21.2443 110.35 21.1836 110.193 21.1836H107.853C107.668 21.1836 107.577 21.4032 107.71 21.5293L112.547 26.1406C112.661 26.248 112.809 26.3088 112.966 26.3088H115.306C115.491 26.3088 115.582 26.0892 115.448 25.963Z" fill="#4B4B4B"/>
<path d="M117.674 17.1702H110.464C110.602 16.4461 112.024 9.11573 112.295 7.70946C112.319 7.58332 112.224 7.47119 112.091 7.47119H110.098C109.998 7.47119 109.912 7.54127 109.898 7.63471L107.653 19.2306C107.625 19.3894 107.744 19.5343 107.91 19.5343L115.172 19.5389L112.076 23.4774L113.812 25.1733L118.04 19.623C118.078 19.567 118.097 19.5016 118.097 19.4362V17.5767C118.093 17.3524 117.907 17.1702 117.674 17.1702Z" fill="#4B4B4B"/>
<path d="M103.216 7.7095C103.173 8.79807 102.859 12.4749 100.605 15.4136C100.567 15.4603 100.548 15.5164 100.548 15.5771V18.6933C100.548 18.8195 100.7 18.8896 100.795 18.8055C105.218 15.0679 105.684 9.27928 105.727 7.71884C105.732 7.57868 105.618 7.46655 105.475 7.46655H103.463C103.33 7.4759 103.22 7.57868 103.216 7.7095Z" fill="#4B4B4B"/>
<path d="M12.4774 5.91236L20.7149 24.5256H3.23642C0.905952 24.5256 -0.663545 22.1802 0.268641 20.0778L6.54187 5.91236C7.66906 3.36613 11.3502 3.36613 12.4774 5.91236Z" fill="#006EFF"/>
<path d="M9.20292 21.0949H8.18513C8.01867 21.0949 7.8855 20.9641 7.8855 20.8006V11.195C7.8855 11.0315 8.01867 10.9006 8.18513 10.9006H9.20292C9.36939 10.9006 9.50255 11.0315 9.50255 11.195V20.8006C9.50255 20.9641 9.36939 21.0949 9.20292 21.0949Z" fill="white"/>
<path d="M12.8794 21.0949H11.8616C11.6952 21.0949 11.562 20.9641 11.562 20.8006V14.9606C11.562 14.7971 11.6952 14.6663 11.8616 14.6663H12.8794C13.0459 14.6663 13.1791 14.7971 13.1791 14.9606V20.8006C13.1791 20.9641 13.0459 21.0949 12.8794 21.0949Z" fill="white"/>
<path d="M21.4167 26.0844L13.1792 7.47583H30.6577C32.9882 7.47583 34.5576 9.82117 33.6255 11.9236L27.357 26.0844C26.225 28.6353 22.5486 28.6353 21.4167 26.0844Z" fill="#00DCE5"/>
<path d="M24.6934 10.9006H25.7112C25.8777 10.9006 26.0109 11.0314 26.0109 11.195V20.8006C26.0109 20.9641 25.8777 21.0949 25.7112 21.0949H24.6934C24.527 21.0949 24.3938 20.9641 24.3938 20.8006V11.195C24.3986 11.0314 24.5317 10.9006 24.6934 10.9006Z" fill="white"/>
<path d="M21.0169 10.9006H22.0347C22.2012 10.9006 22.3343 11.0314 22.3343 11.195V17.035C22.3343 17.1985 22.2012 17.3293 22.0347 17.3293H21.0169C20.8505 17.3293 20.7173 17.1985 20.7173 17.035V11.195C20.7173 11.0314 20.8505 10.9006 21.0169 10.9006Z" fill="white"/>
</g>
<defs>
<clipPath id="clip0_591:13518">
<rect width="118.345" height="24" fill="white" transform="translate(0 4)"/>
</clipPath>
</defs>
</svg>
