<svg width="107" height="32" viewBox="0 0 107 32" fill="none" xmlns="http://www.w3.org/2000/svg">
<path d="M21.236 14.4795L17.7858 29.4415C17.7274 29.6754 17.9111 29.901 18.1534 29.901H25.0454C25.2877 29.901 25.4715 29.6754 25.413 29.4415L21.9628 14.4795C21.8793 14.0869 21.3196 14.0869 21.236 14.4795Z" fill="#00E5E5"/>
<path d="M2.14721 20.1517L0.00858556 29.4414C-0.0415383 29.6753 0.133896 29.9008 0.376161 29.9008H4.6534C4.89566 29.9008 5.0711 29.6753 5.02097 29.4414L2.88235 20.1517C2.79882 19.7675 2.2391 19.7675 2.14721 20.1517Z" fill="#00E5E5"/>
<path d="M6.85029 8.80717L2.09687 29.4499C2.03839 29.6838 2.22218 29.9093 2.46445 29.9093H11.9629C12.2052 29.9093 12.389 29.6838 12.3305 29.4499L7.57708 8.80717C7.49354 8.41454 6.94218 8.41454 6.85029 8.80717Z" fill="#006EFF"/>
<path d="M14.8281 0.294478L8.11152 29.4499C8.05304 29.6838 8.23683 29.9093 8.47909 29.9093H21.9039C22.1462 29.9093 22.33 29.6838 22.2715 29.4499L15.5549 0.294478C15.4714 -0.0981593 14.92 -0.0981593 14.8281 0.294478Z" fill="#006EFF"/>
<path d="M10.3842 11.6392L6.28242 29.4499C6.22394 29.6838 6.40773 29.9094 6.64999 29.9094H14.8452C15.0875 29.9094 15.2713 29.6838 15.2128 29.4499L11.111 11.6392C11.0275 11.2466 10.4761 11.2466 10.3842 11.6392Z" fill="#00E5E5"/>
<path d="M59.3634 29.3423H57.485C57.3699 29.3423 57.2812 29.2537 57.2812 29.1385V11.9675C57.2812 11.8523 57.3699 11.7637 57.485 11.7637H59.3634C59.4786 11.7637 59.5672 11.8523 59.5672 11.9675V29.1385C59.576 29.2449 59.4786 29.3423 59.3634 29.3423Z" fill="#4B4B4B"/>
<path d="M84.4555 29.9092H82.4797C82.3645 29.9092 82.2759 29.8117 82.2759 29.7054V11.9584C82.2759 11.8432 82.3733 11.7546 82.4797 11.7546H84.4555C84.5707 11.7546 84.6593 11.8521 84.6593 11.9584V29.7054C84.6681 29.8117 84.5707 29.9092 84.4555 29.9092Z" fill="#4B4B4B"/>
<path d="M52.6998 29.7854H50.8215C50.7063 29.7854 50.6177 29.6879 50.6177 29.5816V14.0319C50.6177 13.9167 50.7151 13.8281 50.8215 13.8281H52.6998C52.815 13.8281 52.9036 13.9256 52.9036 14.0319V29.5727C52.9125 29.6879 52.815 29.7854 52.6998 29.7854Z" fill="#4B4B4B"/>
<path d="M66.0348 29.7854H64.1564C64.0412 29.7854 63.9526 29.6879 63.9526 29.5816V14.0319C63.9526 13.9167 64.0501 13.8281 64.1564 13.8281H66.0348C66.15 13.8281 66.2386 13.9256 66.2386 14.0319V29.5727C66.2474 29.6879 66.15 29.7854 66.0348 29.7854Z" fill="#4B4B4B"/>
<path d="M50.7158 29.3954V27.4905H66.1326V29.3954C66.1326 29.6081 65.9642 29.7764 65.7516 29.7764H51.0968C50.8842 29.7853 50.7158 29.6081 50.7158 29.3954Z" fill="#4B4B4B"/>
<path d="M88.4697 13.7394V12.2509C88.4697 12.1977 88.514 12.1445 88.576 12.1445H97.5337C97.5869 12.1445 97.64 12.1888 97.64 12.2509V13.7394C97.64 13.7925 97.5957 13.8457 97.5337 13.8457H88.576C88.514 13.8368 88.4697 13.7925 88.4697 13.7394Z" fill="#4B4B4B"/>
<path d="M99.7129 14.1912V12.7913C99.7129 12.6761 99.8103 12.5786 99.9255 12.5786H105.64C105.694 12.5786 105.747 12.6229 105.747 12.6849V14.3064C105.747 14.3595 105.702 14.4127 105.64 14.4127H99.9255C99.8103 14.4038 99.7129 14.3064 99.7129 14.1912Z" fill="#4B4B4B"/>
<path d="M43.6103 14.2355C43.5748 15.1393 43.4508 17.2037 43.0255 20.4554C43.0078 20.5794 43.1053 20.6946 43.2382 20.6946H45.4001C45.5064 20.6946 45.595 20.6149 45.6127 20.5085C46.0291 17.2303 46.1532 15.1658 46.1798 14.2532C46.1798 14.1381 46.0912 14.0317 45.9671 14.0317H43.8141C43.7078 14.0406 43.6103 14.1292 43.6103 14.2355Z" fill="#4B4B4B"/>
<path d="M33.2259 14.2444C33.2614 15.1481 33.3854 17.2391 33.8107 20.5085C33.8284 20.6326 33.731 20.7478 33.598 20.7478H31.4184C31.3121 20.7478 31.2235 20.668 31.2058 20.5617C30.7805 17.2569 30.6653 15.1747 30.6299 14.2532C30.6299 14.1292 30.7185 14.0317 30.8425 14.0317H33.0133C33.1285 14.0406 33.2171 14.1292 33.2259 14.2444Z" fill="#4B4B4B"/>
<path d="M88.2654 15.3608C88.2123 15.3608 88.168 15.414 88.168 15.4672V17.186C88.168 17.2481 88.2211 17.3012 88.2831 17.2924C89.8337 17.1506 90.9766 16.0342 91.1273 14.3508C91.1361 14.2888 91.083 14.2356 91.021 14.2356H89.2843C89.2312 14.2356 89.1869 14.2799 89.178 14.3331C89.0717 15.2368 88.5667 15.3431 88.2654 15.3608Z" fill="#4B4B4B"/>
<path d="M100.598 15.5024H98.8085C98.7464 15.5024 98.6933 15.5645 98.7021 15.6265C99.2869 18.8959 102.104 20.9692 105.985 20.9603C106.047 20.9603 106.092 20.9072 106.092 20.854V19.0997C106.092 19.0377 106.047 18.9934 105.985 18.9934C103.752 18.9934 101.307 18.0985 100.696 15.5822C100.687 15.5379 100.643 15.5024 100.598 15.5024Z" fill="#4B4B4B"/>
<path d="M91.8982 14.0406H89.9047C89.8515 14.0406 89.7983 13.9963 89.7983 13.9343V11.8522C89.7983 11.799 89.8426 11.7458 89.9047 11.7458H91.8982C91.9514 11.7458 92.0045 11.7902 92.0045 11.8522V13.9343C91.9957 13.9875 91.9514 14.0406 91.8982 14.0406Z" fill="#4B4B4B"/>
<path d="M96.1951 14.0406H94.2015C94.1484 14.0406 94.0952 13.9963 94.0952 13.9343V11.8522C94.0952 11.799 94.1395 11.7458 94.2015 11.7458H96.1951C96.2482 11.7458 96.3014 11.7902 96.3014 11.8522V13.9343C96.3014 13.9875 96.2482 14.0406 96.1951 14.0406Z" fill="#4B4B4B"/>
<path d="M104.967 14.0937C104.967 14.0317 104.967 13.9786 104.967 13.9431H102.955C102.955 13.9963 102.955 14.0672 102.955 14.1558C102.973 14.838 103.017 16.424 101.936 17.5492C101.112 18.3998 99.7656 18.8517 97.9315 18.896C97.8695 18.896 97.8252 18.9491 97.8252 19.0023L97.8429 20.8009C97.8429 20.8629 97.8961 20.9072 97.9581 20.9072C100.359 20.8629 102.184 20.1984 103.389 18.9491C105.046 17.2037 104.984 14.9443 104.967 14.0937Z" fill="#4B4B4B"/>
<path d="M101.29 11.728H99.4998C99.4467 11.728 99.4024 11.7723 99.3935 11.8255C99.3492 12.6938 98.729 13.3849 97.905 13.4912C97.8518 13.5001 97.8164 13.5444 97.8164 13.5887V15.3873C97.8164 15.4493 97.8696 15.4936 97.9227 15.4936C99.8542 15.3696 101.334 13.8102 101.387 11.8343C101.396 11.7723 101.343 11.728 101.29 11.728Z" fill="#4B4B4B"/>
<path d="M69.8623 12.3662V14.2446C69.8623 14.3597 69.9598 14.4572 70.0749 14.4572H76.534C76.5872 14.4572 76.6404 14.5015 76.6404 14.5635V16.6722C76.6404 16.7254 76.5961 16.7786 76.534 16.7786H70.0749C69.9598 16.7786 69.8623 16.876 69.8623 16.9912V23.2908C69.8623 23.406 69.9598 23.5035 70.0749 23.5035H76.534C76.5872 23.5035 76.6404 23.5478 76.6404 23.6098V27.1273C76.6404 27.2425 76.5518 27.3311 76.4366 27.3311H71.6875C71.59 27.3311 71.5103 27.3931 71.4837 27.4906L71.023 29.5018C71.0053 29.5638 71.0584 29.6259 71.1205 29.6259H78.3149C78.6605 29.6259 78.9352 29.3512 78.9352 29.0057V21.4213C78.9352 21.3061 78.8466 21.2175 78.7314 21.2175H72.2723C72.2191 21.2175 72.166 21.1732 72.166 21.1112V19.1885C72.166 19.1354 72.2103 19.0822 72.2723 19.0822H78.7314C78.8466 19.0822 78.944 18.9848 78.944 18.8696V12.3839C78.944 12.2687 78.8466 12.1713 78.7314 12.1713H70.0838C69.9509 12.1624 69.8623 12.251 69.8623 12.3662Z" fill="#4B4B4B"/>
<path d="M97.0725 14.7583H89.9135C89.8603 14.7583 89.8071 14.8026 89.8071 14.8646V16.1228C89.8071 16.1759 89.8514 16.2291 89.9135 16.2291H95.2296C95.2827 16.2291 95.3359 16.2734 95.3359 16.3354V19.1618C95.3359 19.215 95.2916 19.2681 95.2296 19.2681H94.6094C94.5651 19.2681 94.5208 19.3036 94.5119 19.3479L94.1663 20.8453C94.1486 20.9073 94.2018 20.9693 94.2638 20.9693H96.4257C96.8953 20.9693 97.2674 20.5883 97.2674 20.1276V14.9709C97.2763 14.8469 97.1877 14.7583 97.0725 14.7583Z" fill="#4B4B4B"/>
<path d="M95.9469 22.1566V28.1018C95.9469 28.2169 95.8583 28.3055 95.7431 28.3055H94.2989C94.2015 28.3055 94.1217 28.3676 94.0952 28.465L93.7407 29.7763C93.723 29.8472 93.7762 29.9092 93.8471 29.9092H97.5772C98.0379 29.9092 98.4101 29.5371 98.4101 29.0764V22.1477H95.9469V22.1566Z" fill="#4B4B4B"/>
<path d="M88.9565 16.9291V19.853C88.9565 19.9682 89.0451 20.0568 89.1603 20.0568H93.8031C93.9183 20.0568 94.0069 19.9682 94.0069 19.853V16.9291C94.0069 16.8139 93.9183 16.7253 93.8031 16.7253H89.1603C89.054 16.7253 88.9565 16.8228 88.9565 16.9291ZM92.2791 18.8872H90.6931C90.64 18.8872 90.5868 18.8429 90.5868 18.7809V18.0012C90.5868 17.948 90.6311 17.8949 90.6931 17.8949H92.2791C92.3323 17.8949 92.3854 17.9392 92.3854 18.0012V18.7809C92.3854 18.8429 92.3411 18.8872 92.2791 18.8872Z" fill="#4B4B4B"/>
<path d="M88.9478 22.8035V21.5011C88.9478 21.4479 88.9921 21.3948 89.0541 21.3948H105.304C105.357 21.3948 105.41 21.4391 105.41 21.5011V22.8035C105.41 22.8567 105.366 22.9099 105.304 22.9099H89.0541C88.9921 22.901 88.9478 22.8567 88.9478 22.8035Z" fill="#4B4B4B"/>
<path d="M89.2046 25.045V23.7426C89.2046 23.6894 89.2489 23.6362 89.3109 23.6362H105.047C105.1 23.6362 105.153 23.6805 105.153 23.7426V25.045C105.153 25.0982 105.109 25.1513 105.047 25.1513H89.3109C89.2489 25.1513 89.2046 25.107 89.2046 25.045Z" fill="#4B4B4B"/>
<path d="M88.3452 27.2689V25.9664C88.3452 25.9133 88.3895 25.8601 88.4515 25.8601H105.897C105.95 25.8601 106.004 25.9044 106.004 25.9664V27.2689C106.004 27.322 105.959 27.3752 105.897 27.3752H88.4515C88.3984 27.3752 88.3452 27.3309 88.3452 27.2689Z" fill="#4B4B4B"/>
<path d="M37.2483 18.5415C37.3458 23.7956 32.7739 27.3131 30.0627 27.4903C29.9475 27.4992 29.8589 27.5878 29.8589 27.6941V29.6079C29.8589 29.7231 29.9563 29.8206 30.0715 29.8117C32.1005 29.6877 34.3953 28.5979 36.1319 26.9144C37.7002 25.3993 39.5608 22.7147 39.5608 18.5415V11.5951C39.5608 11.48 39.4722 11.3914 39.357 11.3914H37.4432C37.328 11.3914 37.2394 11.48 37.2394 11.5951V18.5415H37.2483Z" fill="#4B4B4B"/>
<path d="M39.5693 18.5415C39.4719 23.7956 44.0438 27.3131 46.755 27.4903C46.8702 27.4992 46.9588 27.5878 46.9588 27.6941V29.6079C46.9588 29.7231 46.8613 29.8206 46.7461 29.8117C44.7171 29.6877 42.4223 28.5979 40.6857 26.9144C39.1175 25.3993 37.2568 22.7147 37.2568 18.5415V11.5951C37.2568 11.48 37.3454 11.3914 37.4606 11.3914H39.3744C39.4896 11.3914 39.5782 11.48 39.5782 11.5951V18.5415H39.5693Z" fill="#4B4B4B"/>
</svg>
