<svg width="80" height="80" viewBox="0 0 80 80" fill="none" xmlns="http://www.w3.org/2000/svg">
<path d="M50.029 30.6452L50.0201 30.5237L49.8152 30.5416L49.833 30.663L50.029 30.6452ZM51.3649 33.8748V33.9391L51.5038 33.9212C51.5038 33.8569 51.5217 33.7908 51.5502 33.7265L51.5413 33.6051C51.4771 33.614 51.4201 33.698 51.3649 33.8748ZM46.1619 37.9208C46.153 37.8082 45.7914 37.3616 45.0949 36.581C45.086 36.4417 45.3176 36.2184 45.8181 35.9398L47.2288 34.7019C47.5441 34.3017 47.7294 33.6497 47.7864 32.7387L47.7686 32.5333C47.7133 31.9099 47.2591 31.4079 46.4041 31.0167C45.8947 30.672 44.9845 30.4862 43.6681 30.4487C42.5727 30.5416 41.1548 30.9328 39.4003 31.6205C38.8735 31.9994 38.3251 32.3471 37.7579 32.6619L37.7668 32.7744C37.826 32.7578 37.8824 32.7325 37.9343 32.6994C37.9984 32.6905 38.0465 32.7173 38.0465 32.7923L38.1587 32.7369L38.205 32.728V32.7834C38.2139 32.8298 37.8345 33.1371 37.0632 33.6765L37.1185 33.7783L37.0722 33.7873L36.9421 33.7408C36.951 33.7783 36.8958 33.8051 36.7836 33.8051L36.7925 33.8605L36.9136 34.0088C36.8532 34.0057 36.7937 33.9931 36.7373 33.9713C36.5363 33.999 36.3519 34.0979 36.2172 34.2499L36.2813 33.9427C36.5413 32.8262 36.7177 31.8402 36.8103 30.9846L36.8014 30.9292C36.6058 30.8011 36.4335 30.6404 36.292 30.454V30.2218L36.2831 30.1754L36.2278 30.1932C35.6703 31.031 34.5944 32.4636 33.0091 34.4821C31.7943 35.9237 31.1727 36.7239 31.1352 36.8918C30.6347 37.4027 30.4032 37.71 30.4299 37.8225C30.2909 37.8975 30.2446 37.9815 30.2624 38.0833C30.225 38.0833 30.1983 38.0744 30.1876 38.0369C30.0843 38.205 29.948 38.3503 29.7869 38.4639C29.6258 38.5775 29.4434 38.6571 29.2507 38.6978L28.8054 38.7996C28.7502 38.8085 28.7217 38.855 28.7217 38.93L28.7395 38.9765L28.898 38.9389L28.9069 38.9854L28.5364 39.1336L27.8773 39.2819L27.5336 39.3105C27.4872 39.3569 27.8114 39.3016 27.6814 39.3284L27.2539 39.4302C26.9849 39.4945 26.846 39.4677 26.8175 39.3659L26.7712 39.3748C26.7802 39.4118 26.7802 39.4504 26.7712 39.4873L26.7534 39.3855L26.4007 39.4605C26.3829 39.3016 25.9091 38.7157 25.0006 37.7118C24.9828 37.5171 25.307 37.2366 25.9554 36.8651L27.8114 35.227C28.2193 34.6965 28.4705 33.8409 28.5435 32.669L28.5257 32.3904C28.4509 31.5615 27.8488 30.8917 26.7267 30.3808C26.0587 29.9253 24.8617 29.6824 23.1268 29.6466C21.6893 29.7681 19.8154 30.279 17.5051 31.1721C16.812 31.6709 16.09 32.1278 15.3427 32.5404L15.3516 32.6887C15.4264 32.6709 15.4984 32.6426 15.5653 32.6047C15.658 32.5958 15.7132 32.6333 15.7239 32.7262L15.8628 32.6423L15.9376 32.6333V32.7083C15.9465 32.7727 15.4371 33.1639 14.4253 33.8891L14.5091 34.0106L14.4342 34.0195L14.2757 33.9641C14.2846 34.0106 14.2116 34.0391 14.062 34.0481L14.0709 34.1231L14.2383 34.3089C14.1585 34.3127 14.079 34.2967 14.0067 34.2624C13.6826 34.2999 13.3566 34.5322 13.0413 34.9787L13.125 35.1091C13.394 34.8573 13.5614 34.7269 13.6077 34.7179L13.6167 34.9323C13.5406 34.9461 13.468 34.9746 13.4029 35.0162L13.5792 35.277C13.9034 34.9234 14.2757 34.6072 14.6836 34.3464C14.8778 34.4018 14.99 34.4678 14.99 34.5322L15.1378 34.5232C16.2333 33.714 17.3092 33.1281 18.3762 32.7655L18.3851 32.9138C18.1909 33.2121 18.0609 33.3603 17.9861 33.3693C17.9905 33.465 18.0262 33.5566 18.0876 33.6301C18.1054 33.8158 17.6138 35.0448 16.6305 37.3152C14.404 42.5991 12.5301 46.4985 11 49.019C11.0164 49.0932 11.0479 49.1631 11.0926 49.2244C11.4631 49.1405 11.7054 49.0476 11.8069 48.9547L11.8817 48.9458L11.8995 49.094L12.0385 49.0762L12.1774 49.0011C12.1774 49.0386 12.2326 49.0654 12.3253 49.0565L12.3342 49.1958C12.352 49.3352 12.27 49.5495 12.1026 49.8371C11.9441 50.014 11.7873 50.3766 11.611 50.9357L11.6199 51L11.7588 50.9911C12.3627 50.3033 12.8258 49.6424 13.1411 48.9904C14.9134 48.4599 16.2672 47.949 17.2041 47.4453C18.141 47.3703 18.8642 47.1202 19.3558 46.7004L19.3469 46.6254L18.9853 46.7379L18.9105 46.7468L18.9016 46.6629C19.5874 46.5611 20.0701 46.411 20.3302 46.1984C21.6839 45.157 22.6957 44.4211 23.3922 43.9834C24.8029 42.942 25.7202 41.9274 26.1477 40.9324L26.3793 40.8771C26.5735 40.8771 26.6857 40.8681 26.7142 40.8592C26.7053 40.8217 26.7231 40.8038 26.7694 40.7949C27.0847 40.7574 26.9279 40.8128 27.131 40.7663L27.66 40.6449C27.6315 40.6538 27.6137 40.6734 27.6226 40.7002L27.7063 40.6538C27.6885 40.6538 27.6778 40.6449 27.66 40.6449L27.7527 40.627L27.7063 40.6449C27.771 40.6553 27.8371 40.6522 27.9005 40.6359L27.9379 40.7949L25.5172 44.6551L24.9882 45.3249L24.7192 46.2092L24.7744 46.1913L25.0345 46.0895L24.9507 46.4253L24.9793 46.5271L25.0434 46.62C25.0149 46.6289 24.9971 46.6486 25.006 46.6843L25.0238 46.7397L25.1253 46.7218C25.2927 46.5736 25.3569 46.4521 25.3302 46.3306C25.4513 46.3592 25.5617 46.3681 25.6828 46.3592L25.6918 46.4146C25.5902 46.4432 25.5332 46.5271 25.5243 46.6754L25.5332 46.7218L25.5884 46.7129C26.4702 45.7554 28.6219 42.4615 30.3568 40.2286C30.3016 39.9875 31.2012 39.6517 33.0572 39.223L33.1124 39.2051C33.1872 39.5034 33.0376 40.209 32.6849 41.3254C32.4534 42.0042 32.3412 42.3776 32.3607 42.4419C32.0633 43.3439 31.9243 43.828 31.9439 43.9031L31.2849 46.0716C30.8503 47.2039 30.5241 48.375 30.3105 49.5692C30.3657 49.5692 30.4317 49.5692 30.4869 49.587L30.5795 49.5031C30.5884 49.5495 30.6169 49.5585 30.6543 49.5495L30.6169 49.3905L30.9037 49.3816C30.9874 49.3638 31.0622 49.2601 31.1174 49.0654C31.1085 48.7671 31.1637 48.6099 31.2938 48.5814C31.4701 47.8829 31.5806 47.5399 31.618 47.5203C31.7854 46.8326 31.9047 46.4414 31.9885 46.3396C32.2396 45.4464 32.416 44.982 32.5353 44.9534L32.5531 45.0659L32.3768 45.5304C32.0615 46.9451 31.7373 48.0615 31.4113 48.8797L31.504 49.2798L31.5681 49.2709C32.3483 47.5775 33.4794 44.2192 34.9542 39.2051C34.9729 38.9971 35.0396 38.7963 35.1491 38.6187C35.2585 38.441 35.4077 38.2914 35.5848 38.1816L35.5011 38.0887L35.4922 38.0422C35.6596 38.0047 35.779 37.9404 35.8449 37.8475C35.836 37.81 35.6863 37.7546 35.3996 37.6796L36.1423 34.5161C36.2206 34.4276 36.3149 34.3549 36.4202 34.3017L36.4291 34.4607C36.3739 34.4696 36.3169 34.4982 36.2617 34.525L36.4006 34.7304C36.6607 34.4607 36.9297 34.2196 37.236 34.0141C37.3839 34.0606 37.4587 34.1159 37.4676 34.1624L37.5798 34.1535C38.3244 33.5853 39.154 33.1392 40.0379 32.8316L40.0468 32.9334C39.9079 33.1656 39.8064 33.2782 39.7494 33.2782C39.7494 33.3532 39.7779 33.4175 39.8135 33.4836C39.8224 33.6229 39.4608 34.5536 38.718 36.2845C37.0205 40.2858 35.6008 43.2528 34.4412 45.1695C34.4524 45.228 34.4781 45.2827 34.5161 45.3285C34.8028 45.2642 34.9792 45.1892 35.054 45.1231L35.1003 45.1142L35.1092 45.2267L35.2303 45.2178L35.3426 45.1624C35.3426 45.191 35.38 45.1999 35.4548 45.1999L35.4637 45.3124C35.4726 45.4143 35.4085 45.5822 35.2784 45.7965C35.1573 45.9269 35.0273 46.2056 34.8973 46.6254V46.6807L35.0095 46.6718C35.4263 46.2163 35.779 45.7036 36.0586 45.1463C37.4124 44.7462 38.433 44.3639 39.1473 43.9834C39.8705 43.9191 40.4084 43.7316 40.7896 43.4154L40.7807 43.36L40.5028 43.444H40.4476L40.4387 43.3975C40.9678 43.3136 41.3293 43.2028 41.5342 43.0438C42.5548 42.2525 43.3243 41.6863 43.8534 41.3594C45.4868 40.1679 46.2474 39.0247 46.1548 37.9261L46.1619 37.9208ZM45.8733 37.9958L45.9107 38.4245C45.8644 38.5263 45.8092 38.5835 45.7629 38.5924L45.6987 37.8582C45.8199 37.9047 45.8751 37.9511 45.8751 37.9976L45.8733 37.9958ZM13.8945 34.5536H13.8304L13.8126 34.4232L14.1101 34.3946V34.4696C14.033 34.4794 13.9595 34.5083 13.8963 34.5536H13.8945ZM12.4749 48.8261C12.3332 48.7587 12.1773 48.7268 12.0207 48.7332L12.0118 48.5278C12.0028 48.4527 12.0492 48.3974 12.1418 48.3688C12.2433 48.3599 12.2896 48.4331 12.3003 48.5635C12.5515 48.2652 12.6815 48.108 12.7082 48.108L12.8667 48.1723C12.8115 48.5903 12.6815 48.8136 12.4767 48.8243L12.4749 48.8261ZM27.6814 32.8691C27.6173 32.878 27.4677 32.6548 27.2646 32.2082L27.2557 32.0778C27.3857 32.0689 27.5247 32.2921 27.6725 32.7387L27.6814 32.8691ZM27.4855 31.2972L27.4213 31.4365L25.3622 30.5719C26.7356 30.6184 27.4498 30.8506 27.4872 31.2972H27.4855ZM18.7556 38.805L18.4688 38.8228L18.4599 38.6924L18.7467 38.6746L18.7556 38.805ZM18.524 34.2928L18.5881 34.2839L18.6059 34.4982C18.5418 34.4982 18.4581 34.6 18.3459 34.7965L18.337 34.6572C18.467 34.4982 18.5311 34.3785 18.5222 34.2946L18.524 34.2928ZM17.9113 35.745L17.9397 36.0148L17.8649 36.0237L17.8364 35.745H17.9113ZM17.5871 36.2559L17.7349 36.247C17.7171 36.4703 17.6512 36.6007 17.5407 36.6007L17.4659 36.6096C17.5586 36.4614 17.596 36.3399 17.5871 36.2559V36.2559ZM17.3555 36.9812L17.4303 36.9722L17.4392 37.0365L17.3003 37.2598L17.1613 37.2688V37.2044C17.3003 37.1866 17.3662 37.1116 17.3466 36.9812H17.3555ZM17.1132 37.6242L17.0669 37.9779H17.0028L16.9654 37.6332L17.1132 37.6242ZM14.7388 44.3782C14.6462 44.8534 14.5447 45.0945 14.4414 45.1034V45.0391C14.4129 44.8069 14.5162 44.5836 14.7388 44.3782V44.3782ZM14.3113 45.3267V45.391C14.3202 45.4839 14.2739 45.5393 14.1813 45.5393V45.475C14.1724 45.4 14.2187 45.3446 14.3113 45.3267ZM14.1813 47.2899L14.404 47.2613L14.4129 47.3363C14.333 47.3513 14.2571 47.3829 14.1902 47.4292L14.0513 47.4381C14.0424 47.3631 14.0887 47.3077 14.1813 47.2899V47.2899ZM20.4353 45.3553C19.2009 45.9609 18.4688 46.3789 18.255 46.5932C16.9191 47.0576 16.26 47.347 16.2689 47.4578C15.0808 47.9329 14.3024 48.2759 13.9302 48.4903C13.795 48.4879 13.6619 48.4562 13.5401 48.3974C13.5222 48.1562 13.6327 47.9597 13.8643 47.8025C14.0666 47.7818 14.2709 47.8138 14.4574 47.8954C14.8279 47.7275 15.2091 47.5971 15.6081 47.5132L15.5903 47.3738L15.1539 47.4113C15.2091 47.3363 15.6277 47.1327 16.4257 46.8165L16.6483 46.7879V46.8629C16.2778 46.8915 16.073 47.0023 16.0178 47.2077C16.0267 47.2917 16.0819 47.3292 16.1763 47.3202C16.4631 47.1434 16.5931 47.0416 16.5931 47.013C17.1311 46.9112 18.6059 46.1288 21.0373 44.6783L21.0552 44.8087C21.0552 44.873 20.8503 45.0499 20.4335 45.3571L20.4353 45.3553ZM16.7053 46.5825C17.0502 46.5558 17.3734 46.4033 17.6138 46.1538C17.7153 46.1449 17.7723 46.1824 17.7812 46.2753C17.6049 46.2931 17.2718 46.4342 16.7891 46.7129L16.7142 46.7218L16.7053 46.5825ZM22.7171 41.9506L20.8521 43.4297C19.4698 44.3407 18.7271 44.798 18.6255 44.8069C16.4168 46.0162 15.0452 46.6486 14.5055 46.695L14.4307 46.704C14.4948 46.4628 15.4798 44.4425 17.3715 40.6574C18.2158 40.5823 19.534 40.1929 21.3241 39.4855L21.7605 39.448C22.669 39.3641 23.3565 39.5409 23.8018 39.9696L23.8303 40.2483C23.4866 41.2165 23.1161 41.7827 22.7171 41.9506V41.9506ZM19.0708 39.8946L19.3772 39.866V39.9411L19.0797 39.9589L19.0708 39.8946ZM23.2924 39.1765L23.5062 39.1587C23.711 39.2515 23.8125 39.3355 23.8214 39.4195L23.8303 39.4838C23.6362 39.5016 23.4492 39.3998 23.2924 39.1765ZM23.8856 35.7718C23.6914 36.0041 23.1535 36.4042 22.2896 36.9633C22.0028 36.9919 20.9358 37.4099 19.0797 38.2191C18.9856 38.1803 18.8837 38.1644 18.7823 38.1726L18.7734 38.0422C18.7449 37.7725 18.866 37.4367 19.1261 37.0276C19.2739 36.2649 19.4324 35.8272 19.5999 35.7254L21.1496 32.2457C21.1317 32.0313 21.4559 31.8634 22.1328 31.7527L22.3555 31.7241L22.3733 31.9295C23.0323 31.8277 23.4492 31.7705 23.6077 31.7527C24.8332 31.6509 25.4727 31.9009 25.519 32.4976L25.6579 32.4886L25.6294 32.1349L25.7879 32.126C26.1406 32.3207 26.3348 32.5637 26.3633 32.8423C26.3811 33.037 26.2707 33.28 26.048 33.5676C25.9554 33.5765 25.9002 33.5122 25.8895 33.3728L25.7416 33.3907L25.7042 33.8087C25.0826 34.7394 24.6372 35.2234 24.3505 35.2502C24.0993 35.595 23.9426 35.7718 23.8873 35.7718H23.8856ZM24.8332 38.2101C24.7439 38.1426 24.638 38.1006 24.5268 38.0887L24.509 37.8832L24.6479 37.8743L24.9543 38.0512C24.9721 38.153 24.9258 38.1994 24.8332 38.2101V38.2101ZM25.8075 39.373C25.9465 39.4284 26.0213 39.4945 26.0391 39.5499L25.975 39.5588L25.9839 39.5677C25.9661 39.5677 25.9465 39.5677 25.9376 39.5766L25.836 39.6517L25.8075 39.373ZM25.9002 39.9589L25.8912 39.9035L26.0676 39.866L26.0765 39.9214L25.9002 39.9589ZM26.3259 40.443C26.5111 40.4144 26.5948 40.3966 26.9386 40.3215L26.9475 40.3769L26.3081 40.5252C26.317 40.4966 26.3259 40.4698 26.3259 40.4412V40.443ZM26.9564 40.7038C26.6786 40.7324 26.7427 40.6949 26.3063 40.7967L26.2974 40.7413L26.8353 40.5645L27.0954 40.5091L27.1132 40.6109C27.001 40.6395 27.0847 40.6395 26.9547 40.7038H26.9564ZM27.5229 40.5734C27.4588 40.5913 27.4107 40.5555 27.3839 40.4894L27.5514 40.4519C27.6155 40.4341 27.6636 40.4609 27.6814 40.5359L27.5229 40.5734ZM29.0726 38.8979L29.0547 38.8514L29.3237 38.7871L29.3522 38.8889L29.0726 38.8979ZM30.7238 49.0583C30.7327 49.0029 30.7416 48.9458 30.7327 48.8904L30.7879 48.8815C30.8627 48.8636 30.909 48.8904 30.9268 48.9565L30.9358 49.0119L30.7238 49.0583ZM31.8745 39.3355L31.7623 39.3176C31.6055 39.3827 31.4442 39.4358 31.2795 39.4766L31.1673 39.5052C31.1032 39.5231 31.0551 39.4963 31.0284 39.4302L31.7979 39.2533L32.0579 39.1319L32.1417 39.2247C32.0448 39.2419 31.953 39.2803 31.8727 39.3373L31.8745 39.3355ZM32.4676 39.1497L32.4587 39.0943C32.5145 39.0753 32.5651 39.0435 32.6066 39.0015L33.1534 38.8711L33.1623 38.9264C32.9271 38.9785 32.6974 39.0533 32.4765 39.1497H32.4676ZM32.5603 38.0333C32.5024 38.0547 32.4488 38.0862 32.4017 38.1262C32.3928 38.0887 32.318 38.0887 32.1791 38.1262C32.1506 38.0136 32.5602 37.8654 33.3939 37.6707L33.515 37.6528L33.5435 37.7546C32.9503 37.9225 32.6244 38.0244 32.5603 38.0333ZM34.0351 36.4328C33.9799 37.1026 33.7377 37.4849 33.3208 37.5867L33.3119 37.5313L32.9414 37.6707L32.774 37.7082C32.6985 37.7314 32.6179 37.7314 32.5424 37.7082L32.5139 37.5599C32.505 37.5045 33.0341 36.7597 34.1278 35.3271L34.2489 35.3556C34.3041 35.5414 34.2311 35.904 34.0351 36.4346V36.4328ZM36.6518 34.191H36.6055L36.5877 34.0892L36.8103 34.0606L36.8192 34.1159C36.7589 34.1292 36.7019 34.1547 36.6518 34.191V34.191ZM35.5759 45.0391C35.47 44.9832 35.3519 44.9543 35.2321 44.9552L35.2232 44.7962C35.2232 44.7408 35.2517 44.7033 35.3248 44.6837C35.3996 44.6747 35.437 44.7212 35.4459 44.8319C35.5385 44.7015 35.64 44.5908 35.7522 44.4872L35.8645 44.5336C35.8271 44.8498 35.7255 45.0177 35.5777 45.0356L35.5759 45.0391ZM47.1255 32.9245C47.0703 32.9245 46.9581 32.7566 46.7907 32.4136L46.7817 32.3118C46.894 32.3029 47.0044 32.4708 47.1059 32.8048L47.1255 32.9245ZM46.9688 31.7062L46.9225 31.8188L45.355 31.1668C46.4041 31.1954 46.9421 31.3811 46.9688 31.7062ZM40.3443 37.4188L40.1217 37.4367L40.1127 37.3348L40.3354 37.317L40.3443 37.4188ZM40.1591 33.9855H40.2232L40.2321 34.1445C40.1769 34.1445 40.111 34.2285 40.0272 34.3767L40.0183 34.2642C40.111 34.1427 40.1573 34.0499 40.1573 33.9855H40.1591ZM39.7048 35.093L39.7227 35.2985H39.6585L39.6407 35.093H39.7048ZM39.4537 35.4842L39.5641 35.4753C39.5463 35.6522 39.5 35.745 39.4252 35.754L39.3611 35.7629C39.4149 35.6793 39.4468 35.5835 39.4537 35.4842V35.4842ZM39.2773 36.0237H39.3237L39.3326 36.0791L39.231 36.247L39.1188 36.2559V36.2006C39.231 36.1916 39.2862 36.1362 39.2773 36.0237ZM39.0921 36.5167L39.0547 36.7865L39.0084 36.7954L38.9799 36.5257L39.0921 36.5167ZM37.2913 41.6523C37.2164 42.0149 37.1434 42.1918 37.0686 42.2007L37.0597 42.1543C37.0508 41.9774 37.1238 41.8095 37.2913 41.6523ZM36.9582 42.3686L36.9671 42.4151C36.976 42.499 36.9386 42.5365 36.8655 42.5365L36.8566 42.4812C36.8566 42.4347 36.8851 42.3972 36.9582 42.3686V42.3686ZM36.8655 43.8566L37.033 43.8477L37.0419 43.9031C36.9825 43.9135 36.9256 43.9353 36.8744 43.9674L36.7622 43.9763C36.7622 43.9209 36.7907 43.8834 36.8638 43.8548L36.8655 43.8566ZM41.6054 42.3972C40.6774 42.8527 40.1306 43.1689 39.9542 43.3279C38.9425 43.6905 38.4419 43.9048 38.4419 43.9977C37.5513 44.3514 36.9582 44.6122 36.6785 44.7801C36.5743 44.7752 36.4725 44.7465 36.381 44.6962C36.3632 44.5193 36.4558 44.3711 36.6322 44.2585C36.7836 44.2432 36.9365 44.2652 37.0775 44.3228C37.2538 44.2389 37.5406 44.146 37.9592 44.0442L37.9503 43.9316L37.5976 43.9602C37.6439 43.9048 37.9681 43.7459 38.572 43.5047L38.7394 43.4958L38.7483 43.5422C38.4615 43.5601 38.2941 43.644 38.2656 43.803C38.2656 43.8673 38.3119 43.9048 38.3867 43.8959C38.5916 43.7566 38.6931 43.6726 38.6931 43.644C39.101 43.5797 40.2232 42.9831 42.0703 41.8756L42.0792 41.9774C42.0882 42.0239 41.9314 42.1543 41.6161 42.3954L41.6054 42.3972ZM38.7768 43.3261C39.0401 43.301 39.2879 43.1899 39.4822 43.0099C39.557 43.001 39.5926 43.0278 39.6033 43.1028C39.4733 43.1117 39.2221 43.2153 38.8516 43.419L38.7875 43.4279L38.7768 43.3261ZM43.3493 39.7999L41.9385 40.9342C40.8894 41.6327 40.3247 41.9756 40.2321 41.9864C38.5613 42.9081 37.5228 43.3904 37.106 43.419L37.0508 43.4279C37.106 43.2332 37.8488 41.7059 39.2952 38.8318C39.9257 38.7764 40.9179 38.4781 42.2912 37.9386L42.635 37.9011C43.3208 37.8457 43.832 37.9851 44.1758 38.3102L44.1936 38.5156C43.9335 39.2408 43.6557 39.6695 43.3493 39.7999V39.7999ZM40.5848 38.2476L40.8074 38.2298L40.8163 38.2762L40.5937 38.3048L40.5848 38.2476ZM43.7857 37.6975L43.9531 37.6885C44.1117 37.7636 44.1936 37.8279 44.1936 37.8832L44.2025 37.9297C44.0547 37.9475 43.9157 37.8654 43.7857 37.6975V37.6975ZM44.231 35.1216C44.0832 35.2985 43.6842 35.6057 43.0251 36.0237C42.8024 36.0523 41.9955 36.3595 40.5937 36.9722C40.523 36.9444 40.4465 36.9346 40.371 36.9437L40.3621 36.8311C40.3443 36.6364 40.4262 36.3756 40.6222 36.0684C40.7344 35.4825 40.8538 35.1574 40.9838 35.0823L42.1612 32.4404C42.1523 32.2814 42.4017 32.1528 42.904 32.0581L43.0714 32.0403L43.0892 32.2082C43.5808 32.1242 43.8961 32.0778 44.0262 32.0599C44.9542 31.9849 45.4369 32.1725 45.4743 32.628L45.5865 32.619L45.5687 32.3672L45.6809 32.3582C45.9499 32.5065 46.0888 32.6833 46.1084 32.8977C46.1173 33.046 46.0443 33.2335 45.8858 33.4461C45.811 33.4639 45.7736 33.4086 45.7647 33.2978L45.6524 33.3068L45.615 33.6229C45.1519 34.3392 44.8081 34.7108 44.5944 34.7215C44.4002 34.9823 44.2791 35.1127 44.2239 35.1216H44.231ZM44.7226 36.8793L44.7137 36.7204L44.8152 36.7114L45.0557 36.8508C45.0646 36.9258 45.0272 36.9633 44.9542 36.9722C44.8527 36.9079 44.7778 36.8793 44.7226 36.8793V36.8793ZM25.0647 47.1684L24.9525 47.197L24.8599 47.2809C24.8777 47.3452 24.9151 47.3738 24.9899 47.356C25.0648 47.3381 25.0915 47.2917 25.0737 47.2256L25.0647 47.1684ZM24.6373 46.3324L24.6551 46.3878C24.7192 46.3789 24.7566 46.3324 24.7388 46.2663L24.7299 46.2109C24.6658 46.2288 24.6283 46.2663 24.6373 46.3324ZM27.6155 39.2426L27.7455 39.214L27.717 39.1015L27.587 39.1301L27.6155 39.2426ZM65.9409 42.4704C64.6602 42.758 64.5034 42.7027 64.2237 42.7312L64.2327 42.8331L64.3538 42.8241H64.4179L64.4001 42.8063L64.5479 42.7509C65.8091 42.6116 65.9587 42.6669 65.948 42.5187L65.9409 42.4704ZM59.0296 43.3922L59.0385 43.494H59.0563L59.0474 43.3922H59.0296ZM58.2316 40.5913L58.1194 40.5537C58.0547 40.6962 58.008 40.8462 57.9805 41.0003L57.9894 41.0468C58.082 41.0378 58.1568 40.8878 58.2405 40.5913H58.2316ZM66.2009 42.4436L66.2098 42.5562L66.3951 42.5937L66.3862 42.4812L66.2009 42.4436ZM57.4603 43.5226L57.1825 43.4851L57.1272 43.5976L57.1362 43.653L58.8426 43.5047L58.8337 43.4029L57.4603 43.5226ZM56.6908 39.7642L56.6819 39.7088L56.6267 39.7178L56.5145 39.7821L56.5786 39.8839C56.6623 39.875 56.6997 39.8374 56.6908 39.7624V39.7642ZM67.0167 41.6702L67.1005 41.6613C67.1468 41.6523 67.1646 41.6148 67.1557 41.5487L67.1094 41.4469C66.879 41.4459 66.6522 41.5037 66.4503 41.6148L66.4414 41.5594L66.0976 41.5969C66.0887 41.4844 66.0602 41.438 66.005 41.438L65.8287 41.4558C65.6149 41.4737 65.5134 41.4648 65.4118 41.5487C65.4029 41.5023 65.394 41.4844 65.3744 41.4844L65.1696 41.5023L65.0485 41.5773C65.0485 41.5398 65.0307 41.5219 65.0111 41.5219L64.9363 41.5773V41.5309L64.6495 41.5023L64.5853 41.5112L64.5942 41.613L64.7421 41.6505L64.8721 41.6416C64.9184 41.6791 64.9648 41.6791 65.0307 41.6791L65.1518 41.6237V41.6702C64.4927 41.8381 64.4927 41.8006 64.0385 41.8756C63.9922 41.847 63.9548 41.8292 63.9263 41.8292L63.9174 41.8381C63.8622 41.8381 63.8337 41.8006 63.8248 41.7452L64.0652 41.7166C64.083 41.7166 64.0937 41.7345 64.2237 41.7631C64.4179 41.6702 64.4286 41.6327 64.5301 41.6237L64.5212 41.5112C63.8711 41.6416 64.1311 41.5576 63.3153 41.6327H63.2779L63.269 41.5309C64.3182 41.4005 63.9655 41.4755 64.3271 41.3719C64.3271 41.4094 64.3449 41.4272 64.3645 41.4272C64.4022 41.3888 64.4506 41.3626 64.5034 41.3522H64.5782C64.9487 41.3147 65.0698 41.3897 65.793 41.1843L65.8019 41.2308L65.9142 41.1754L66.0264 41.1664C66.0175 41.0646 66.1849 41.045 66.2401 41.036L66.2312 40.9235C64.9505 41.1843 64.6174 41.1093 64.2647 41.2111L64.2558 41.1647C63.9209 41.22 63.912 41.2022 63.8283 41.2022C63.7856 41.2126 63.7467 41.2349 63.7161 41.2665C63.7161 41.229 63.7072 41.22 63.6787 41.22H63.6609L62.5761 41.3969C62.5761 41.3683 62.5583 41.3504 62.5298 41.3504C61.9723 41.4719 62.1219 41.4987 61.3702 41.5648C61.3211 41.5754 61.2742 41.5941 61.2313 41.6202C61.2313 41.5916 61.2134 41.5737 61.176 41.5737L60.7129 41.6202L60.4065 41.6952C60.4065 41.6666 60.3887 41.6487 60.3513 41.6487C60.205 41.6994 60.0518 41.7277 59.8971 41.7327H59.8882C59.8134 41.7416 59.9256 41.7148 59.8704 41.6863L59.7778 41.7416C59.6388 41.7595 59.7136 41.7327 59.2487 41.7416C58.4329 41.8435 58.5255 41.8542 58.4329 41.8631L58.1265 41.8345C58.1354 41.8631 58.1176 41.8899 58.0802 41.8899C57.7364 41.8435 57.5601 41.7881 57.5601 41.722C57.6064 41.3969 57.6812 41.22 57.7917 41.22L57.8558 41.2111L57.8006 41.3236L57.8647 41.3147C57.9769 41.2593 58.0232 41.2022 58.0232 41.1468L58.0054 41.0343L57.9039 41.0432L57.895 40.9414C57.8853 40.8687 57.8951 40.7947 57.9235 40.727L58.1746 40.3269L58.1835 40.4287L58.3047 40.4198L58.2958 40.318L58.2316 40.2251C58.3153 40.1411 58.3795 40.1036 58.4454 40.0947L58.4365 40.0393L58.2779 40.0572L58.2601 39.8893C58.5843 39.2283 58.7339 38.8371 58.7232 38.7264L58.8444 38.7728C58.9085 38.7639 58.9459 38.7264 58.9459 38.6513H58.8337L58.8248 38.6049C58.8248 38.5299 58.8337 38.4566 58.8711 38.3816C59.0474 38.2048 59.1223 38.019 59.1116 37.8332C59.1401 37.8243 59.1579 37.8422 59.1579 37.8797C59.3057 37.7957 59.4179 37.5724 59.5106 37.2009C59.7706 36.7257 60.1411 35.7772 60.6238 34.3535C61.5519 31.8509 61.5145 31.5812 61.6445 30.9864L61.543 30.9953C61.5466 31.0696 61.5306 31.1435 61.4967 31.2096C61.44 31.1886 61.3806 31.176 61.3203 31.1721L61.3114 31.1257C61.3025 30.9113 61.3862 30.6505 61.5893 30.3433H61.6356L61.7371 30.7059L61.8387 30.697C61.8387 30.6684 61.8672 30.5291 61.9224 30.2593C61.9224 30.204 61.8761 30.1664 61.7923 30.1664L61.6908 30.2308C61.6805 30.0325 61.6835 29.8338 61.6997 29.6359L61.6445 29.6449C61.5519 29.552 61.5056 29.4769 61.5056 29.4126L60.8928 29.468C60.8836 29.4025 60.8618 29.3394 60.8287 29.2822C60.8287 29.2269 60.9587 29.1697 61.2366 29.1233L61.3577 29.1697L61.4788 29.0947C61.4788 29.1322 61.4967 29.15 61.543 29.15L61.6552 29.075C61.6641 29.1215 61.6837 29.1304 61.73 29.1304H61.7852L61.7674 29C61.5478 29.0099 61.3279 29.0099 61.1083 29L60.9961 29.075L60.9872 29.0107C58.1568 29.2429 56.543 29.3733 56.1636 29.4108C56.1084 29.4198 55.9124 29.4108 55.5598 29.4019C55.5687 29.4484 55.5223 29.4769 55.4386 29.4859L55.3175 29.4305L54.9007 29.5323C54.7366 29.5424 54.572 29.5364 54.4091 29.5145C54.343 29.5681 54.2623 29.6005 54.1775 29.6073C54.1312 29.6073 54.7813 29.5698 55.3923 29.5234C55.3051 29.5844 55.2012 29.6169 55.0948 29.6163C55.0128 29.632 54.9278 29.6188 54.8544 29.5788C54.5612 29.6649 54.264 29.7364 53.9638 29.7931L53.8337 29.7377L51.8583 30.045C51.7746 30.0075 51.6909 29.9985 51.5982 30.0075C51.4191 30.0303 51.2422 30.0679 51.0692 30.12L50.1145 30.5201L50.1786 30.6416C50.2491 30.6297 50.3157 30.6009 50.3728 30.5576L50.7165 30.5952L50.6702 30.9113C50.3638 31.0507 50.1786 31.2561 50.1323 31.5169C49.6585 31.7312 49.4269 31.8795 49.4269 31.9635L49.4358 32.0188H49.4999L49.63 31.9438L49.7778 32.1207L49.7956 32.3725C49.8045 32.4475 49.0154 34.1124 47.439 37.3688C46.0657 40.5037 45.3514 42.2168 45.2873 42.5222C44.8135 42.6526 44.5445 42.8474 44.4608 43.0992C44.4697 43.1832 44.6086 43.2385 44.8776 43.2582L44.8954 43.3797L44.7654 43.5851L44.7939 43.8262C44.8028 43.9566 45.1466 44.0495 45.8145 44.1246C45.8145 44.0781 45.8323 44.0495 45.8787 44.0495C45.8876 44.1978 45.8502 44.4961 45.7575 44.9427L45.8217 44.9337C46.0995 44.5515 46.2385 44.2925 46.2207 44.1513L46.2759 44.1424C46.3507 44.1335 46.4148 44.2174 46.4985 44.3836C46.4148 44.4121 46.1173 45.0909 45.6168 46.4021L45.6916 46.5235L45.7557 46.5146C46.3774 44.9427 46.7675 44.0674 46.9332 43.9102C47.7401 43.8352 49.1508 43.6869 51.1547 43.4726L51.2847 43.3975C51.2937 43.435 51.3133 43.4618 51.3596 43.4529L51.4896 43.444L51.6196 43.3689C51.6196 43.4065 51.6481 43.4333 51.6944 43.4243L53.2067 43.2939C53.6146 43.2564 53.7999 43.1349 53.7821 42.9313C53.7821 42.8759 54.0136 42.8098 54.4963 42.7455C54.5605 42.7455 54.6353 42.7545 54.7012 42.783C54.7012 42.7455 54.9417 42.708 55.4155 42.6616C55.4333 42.4097 55.517 42.2704 55.6559 42.2614L55.647 42.14C55.4885 42.1578 55.3318 42.1864 55.1839 42.2418C54.9791 42.2418 54.776 42.2132 54.5801 42.1668C54.5204 42.2033 54.4546 42.2287 54.3859 42.2418L53.3278 42.2793L53.1978 42.3436C53.1978 42.3061 53.1693 42.2972 53.123 42.2972H53.0678L52.9288 42.3722C52.9288 42.3347 52.8166 42.2972 52.594 42.2704L52.455 42.3543L52.195 42.3722V42.3079C53.5487 42.1596 54.2274 41.9721 54.2078 41.7488C54.3004 41.7398 54.3378 41.7863 54.3467 41.8703L54.7457 41.7684L54.7368 41.647L51.4807 41.7399C51.4896 41.7774 51.4629 41.8042 51.4166 41.8149L51.0176 41.7774C50.9277 41.7812 50.8406 41.8103 50.7664 41.8613L50.6186 41.8149C50.3085 41.8323 50.0008 41.879 49.6994 41.9542C49.3901 41.9378 49.0799 41.9438 48.7714 41.9721L48.0393 42.0364L47.7044 41.9989C47.6866 41.7756 48.1034 40.7145 48.9656 38.8085C49.2167 38.1673 49.4394 37.7671 49.662 37.6082C49.7368 37.6171 49.801 37.626 49.8669 37.6635L50.3959 37.4867L50.656 37.5242C51.1924 37.4633 51.719 37.3348 52.2235 37.1419C52.3357 37.1238 52.4507 37.1336 52.5583 37.1705L52.9573 37.0776L54.1347 36.9758C54.6353 36.9383 55.1839 36.8275 55.7771 36.64L55.7682 36.5185C55.5455 36.5364 55.4333 36.5006 55.4244 36.406C55.4066 36.247 55.248 36.1827 54.9417 36.2006L54.9238 36.0791L55.2587 35.9862L56.1119 35.9112L56.0941 35.7897C55.9178 35.7897 55.7414 35.7897 55.5651 35.7808L55.5562 35.6504L55.8911 35.6129C55.9748 35.6039 56.0122 35.5664 56.0033 35.4825C55.5669 35.4914 55.3353 35.4735 55.3353 35.4182C52.2466 35.5664 50.6969 35.595 50.688 35.5021C50.6164 35.5101 50.5488 35.5393 50.4939 35.5861L50.4102 35.4557C51.226 33.7158 51.7087 32.8316 51.8476 32.8137C51.8435 32.9293 51.8085 33.0416 51.7461 33.1388V33.1942L51.885 33.1853C52.2092 32.4029 52.4782 32.0045 52.7115 31.9849C53.6859 31.9009 52.5726 31.8366 54.6513 31.5097C54.7092 31.5394 54.772 31.5582 54.8366 31.5651C55.9676 31.347 57.1067 31.173 58.2512 31.0435L58.2423 30.9221L57.4621 30.9971L57.4532 30.8756C57.538 30.8687 57.6187 30.8364 57.6848 30.7827V30.847C57.7531 30.8368 57.8172 30.8078 57.87 30.7631C57.9737 30.7488 58.0792 30.7618 58.1764 30.8006C58.3902 30.7452 58.6039 30.6988 58.8266 30.6702L59.3093 30.6237C59.4304 30.5487 59.4856 30.4844 59.4767 30.4183V30.3629C59.3336 30.3721 59.1899 30.3625 59.0492 30.3344C59.0403 30.2701 59.0777 30.2218 59.1614 30.204L60.061 30.12L60.4778 30.0075C60.4778 30.0539 60.5063 30.0718 60.533 30.0718C60.5967 30.0555 60.6566 30.027 60.7093 29.9878L60.7842 29.9968C60.7094 30.1559 60.6475 30.3207 60.5989 30.4898L60.4778 30.4987C60.4743 30.4231 60.4523 30.3494 60.4137 30.2843H60.3584C59.2541 33.355 58.7624 34.7787 57.7507 37.1312C57.5654 37.7368 57.4069 38.0708 57.2769 38.1458C57.2769 38.2101 57.3232 38.2476 57.398 38.2387C57.4169 38.5455 57.3424 38.8507 57.1842 39.114C56.7211 40.4716 56.4041 41.2075 56.2473 41.3469L56.3488 41.9881C56.3577 42.0525 56.3203 42.09 56.2473 42.1007L56.1351 42.1096C56.1173 41.9328 56.0514 41.8488 55.9409 41.8577H55.8857C55.7379 42.09 55.6257 42.3418 55.5615 42.6491L55.6737 42.6401C55.8127 42.5383 55.8875 42.4258 55.8679 42.2954L56.0906 42.2775L56.2206 42.324C56.1191 42.4829 56.0728 42.6116 56.0817 42.7062L56.1369 42.8081L55.9979 43.1439V43.1993C56.1458 43.1993 56.2954 43.2368 56.4148 43.3207C56.5344 43.3017 56.6486 43.2573 56.7496 43.1903C56.8708 43.1725 57.3428 43.1725 58.1604 43.1725L58.5683 43.0331C59.0688 43.0242 59.1525 43.0421 59.58 43.0045L59.7564 42.9867L59.849 42.9224L59.8579 42.9778C60.3121 42.9402 60.3406 42.9688 60.6933 43.0063L60.7022 43.0617L60.4511 43.0903L60.46 43.1921C60.5312 43.1894 60.5995 43.163 60.6541 43.1171C60.7182 43.1082 60.7557 43.1457 60.7557 43.2189C60.6413 43.2293 60.5287 43.2545 60.4208 43.2939L60.3086 43.2564C60.1322 43.3029 60.1696 43.3207 60.0485 43.3314L59.8811 43.2939C59.8811 43.3225 59.8633 43.3404 59.8348 43.3404C59.8437 43.4154 59.8811 43.4422 59.947 43.4422L60.1233 43.4243L61.0424 43.3404L61.3951 43.2653C61.404 43.2939 61.4129 43.3118 61.4414 43.3118L61.6089 43.2475L61.9331 43.2189C62.1735 43.201 62.1646 43.1814 62.7026 43.0974C62.6937 43.0599 62.7115 43.051 62.7311 43.0421L62.74 43.0974C63.6021 42.9492 63.6591 42.9385 63.798 42.892L63.8158 42.9099C64.0296 42.8634 63.9085 42.8724 63.9637 42.8348C63.9726 42.8724 63.9815 42.8902 64.0011 42.8902L64.1596 42.8724L64.1418 42.7598L63.8354 42.7509H63.7606V42.7598C63.5469 42.8063 63.538 42.7777 63.4079 42.7884L62.6384 42.8348L62.6295 42.7795L63.0659 42.7152L63.2245 42.7062L63.3082 42.6419L63.3171 42.6973C63.9209 42.6509 64.1329 42.7991 66.9544 42.2043C67.1023 42.1864 67.0933 42.056 67.186 41.7952C67.135 41.7997 67.0838 41.7898 67.0381 41.7666C66.8066 41.8506 66.6854 41.8131 66.2401 41.8881C66.2027 41.8881 66.1653 41.8506 66.1564 41.7863V41.7399L66.5839 41.7488C66.6676 41.7398 66.8155 41.7309 67.0577 41.6005C67.0577 41.638 66.9651 41.6559 67.0203 41.6559L67.0167 41.6702ZM46.2171 42.006L46.0229 42.0239C46.014 41.9399 46.1156 41.6327 46.3382 41.1129L46.4683 41.1039C46.4772 41.2254 46.3934 41.5219 46.2171 42.006ZM46.4576 41.0378V40.9825C46.4487 40.9182 46.495 40.8699 46.5876 40.8431V40.8985C46.5965 40.9825 46.5502 41.0289 46.4576 41.0378ZM49.1027 43.0849V43.1403L48.7678 43.1689V43.1135L49.1027 43.0849ZM48.7037 43.0474C48.7037 43.1117 48.6111 43.1957 48.3884 43.2707L47.9805 43.2421L47.8505 43.2511L47.8416 43.1296L48.7037 43.0474ZM51.3649 30.7291L51.1708 30.747V30.672C51.1618 30.6077 51.1993 30.5594 51.2919 30.5416L51.356 30.5326L51.4949 30.588C51.4949 30.672 51.4575 30.7184 51.3649 30.7273V30.7291ZM54.3895 30.1343H54.4536L54.4625 30.2558L54.2772 30.2647C54.2772 30.2004 54.3147 30.1522 54.3895 30.1343ZM53.6289 30.404L53.3314 30.3665L53.3225 30.3111C53.7215 30.2736 53.8515 30.2361 54.092 30.1718C54.092 30.2183 54.1383 30.2272 54.2131 30.2272L54.222 30.3487L54.1009 30.3576C54.0188 30.3688 53.9352 30.3558 53.8604 30.3201C53.7916 30.3673 53.7119 30.3962 53.6289 30.404V30.404ZM54.0101 31.5026L54.0012 31.4472L54.4928 31.4008V31.4562L54.0101 31.5026ZM54.5302 31.0739L54.5213 31.0096L54.7618 30.981V31.056L54.5302 31.0739ZM54.5854 30.245H54.5213L54.5765 30.1146L55.1144 30.0682V30.1325C54.9381 30.1504 54.7617 30.1879 54.5854 30.245V30.245ZM54.8544 31.4097L54.8455 31.2882L55.0859 31.2704C55.1607 31.2614 55.2071 31.299 55.2071 31.3829L54.8544 31.4097ZM56.2829 29.4555L55.9855 29.5395L55.9303 29.5484C55.7478 29.5594 55.5647 29.5534 55.3834 29.5305C55.7735 29.5127 56.1529 29.4752 56.2829 29.4555V29.4555ZM55.9677 30.8131V30.8685L55.5508 30.906L55.5419 30.8506L55.9677 30.8131ZM56.6445 31.1382C56.6445 31.0918 56.5608 31.0542 56.3934 31.0364L55.9766 31.1578L55.6613 31.1668C55.5865 31.1203 55.5491 31.0828 55.5402 31.0542L55.9107 31.0828L56.755 30.9435L57.1825 30.9614V31.0257C57.0061 31.0435 56.8209 31.081 56.6445 31.1382V31.1382ZM60.9498 30.0218L61.0424 30.0307C61.1885 29.884 61.3615 29.7669 61.5519 29.6859C61.3933 30.3558 61.1618 30.8488 60.8376 31.1739L60.5971 31.0346C60.7361 30.6988 60.8572 30.3647 60.9498 30.02V30.0218ZM60.2248 31.2793L60.2801 31.2704C60.2053 31.4186 60.1322 31.5026 60.0663 31.5115L60.0574 31.3436C60.0948 31.3436 60.15 31.3258 60.2248 31.2793ZM59.7528 32.3957C59.8739 31.9402 59.9755 31.6794 60.077 31.6133L60.0859 31.6687C60.0307 32.0867 59.9381 32.31 59.808 32.3297L59.8365 32.5994C59.735 32.7387 59.6887 32.8513 59.6887 32.9352L59.6335 32.9441L59.5961 32.5726C59.6602 32.5637 59.7172 32.5083 59.7546 32.3957H59.7528ZM59.5765 33.0084C59.5567 33.1604 59.5128 33.3081 59.4464 33.4461H59.3912L59.3823 33.2871C59.4571 33.1013 59.5302 33.0084 59.5765 33.0084V33.0084ZM56.1618 42.9259V42.8795L56.274 42.8706L56.2829 43.0296C56.2188 43.0385 56.1814 43.001 56.1618 42.9277V42.9259ZM61.0335 43.0563C61.0335 43.0188 61.0157 43.001 60.9783 43.001L60.7004 43.0296V42.9742H60.7183L61.3773 42.9188V42.9742C61.1921 42.9831 61.0709 43.0117 61.0335 43.0581V43.0563ZM60.7076 42.917C60.7361 42.9259 60.7165 42.9456 60.7076 42.9545C60.6987 42.9456 60.6791 42.9367 60.7076 42.917ZM60.745 42.1543L60.3834 42.1829L60.3745 42.1275L60.7093 42.0989L60.9961 42.0346C60.9961 42.0632 61.0139 42.0721 61.0513 42.0721C61.3951 42.0167 61.3577 41.9971 61.5252 41.9792C61.5804 41.9792 61.6178 42.0167 61.6178 42.081L60.745 42.1543ZM62.0168 42.0435C61.8119 42.0257 61.803 42.006 61.6552 42.0257V41.9703L61.9794 41.9417V41.9971C61.9509 41.9971 62.072 42.006 62.0168 42.0435V42.0435ZM62.0346 41.9864V41.9399L62.2109 41.9221L62.2198 41.9685L62.0346 41.9864ZM62.4336 41.9506L62.4247 41.9042C62.472 41.8919 62.5162 41.87 62.5547 41.8399C62.6473 41.831 62.6937 41.8863 62.7026 41.9613L62.4336 41.9506ZM62.9341 41.8845V41.8292L63.1479 41.8202V41.8667L62.9341 41.8845ZM63.2316 41.8667C63.2316 41.8024 63.2601 41.7649 63.3153 41.7541L63.3794 41.847C63.3794 41.8184 63.3883 41.8006 63.4168 41.7917L63.4721 41.8935L63.2316 41.8667ZM60.0485 43.2439L60.0396 43.1421H60.0022L60.0111 43.2439H60.0485ZM67.471 41.3165C67.4995 41.2986 67.5173 41.2701 67.4336 41.2611C67.3962 41.3076 67.4799 41.3165 67.3962 41.3165V41.354L67.4514 41.3254L67.3962 41.3629L67.3124 41.4844L67.4888 41.4201H67.5066L67.4977 41.3183L67.471 41.3165ZM67.7773 41.5594H67.7399L67.7488 41.672L68 41.6434C68 41.5791 67.8326 41.5594 67.7773 41.5594V41.5594ZM67.3873 41.3737L67.3962 41.3647L67.3873 41.3737Z" fill="#F5DE5E"/>
</svg>
