<svg width="80" height="80" viewBox="0 0 80 80" fill="none" xmlns="http://www.w3.org/2000/svg">
<path d="M47.7215 47.5062C49.1727 47.3825 50.2927 46.1062 50.2215 44.5825C50.1427 43.0587 48.8927 41.8362 47.3765 41.8362H47.2715C46.5164 41.8633 45.8029 42.1891 45.2879 42.742C44.7729 43.295 44.4986 44.0298 44.5252 44.785C44.5765 45.5862 44.9015 46.23 45.3515 46.705C43.6002 50.1037 40.9827 52.5987 37.0052 54.7C34.3365 56.0937 31.5165 56.6212 28.7702 56.2437C26.4715 55.925 24.6752 54.8975 23.5752 53.2487C21.9265 50.7487 21.7765 48.06 23.1515 45.3587C24.1527 43.4125 25.6515 41.985 26.6465 41.2887C26.3474 40.4512 26.1146 39.5915 25.9502 38.7175C18.5552 44.0112 19.3102 51.2575 21.5565 54.6762C23.2302 57.1762 26.6465 58.7712 30.3902 58.7712C31.394 58.7712 32.4415 58.7 33.464 58.445C39.9627 57.195 44.8777 53.3012 47.6952 47.56L47.7215 47.5062ZM56.634 41.2637C52.7677 36.7187 47.0702 34.2187 40.5802 34.2187H39.7265C39.3102 33.3 38.3327 32.7225 37.2327 32.7225H37.1615C35.5865 32.7225 34.3615 34.0762 34.4127 35.6462C34.4665 37.1425 35.734 38.3925 37.2577 38.3925H37.3827C37.9234 38.3705 38.4463 38.1938 38.8895 37.8834C39.3327 37.5729 39.6774 37.1418 39.8827 36.6412H40.8065C44.6552 36.6412 48.2952 37.7675 51.6215 39.9625C54.1602 41.6337 55.9902 43.8362 57.0115 46.4587C57.9102 48.6 57.8577 50.7037 56.9327 52.455C55.514 55.195 53.1115 56.6462 49.9477 56.6462C47.949 56.6462 46.0027 56.0212 44.999 55.5725C44.4002 56.0675 43.3977 56.8937 42.674 57.3962C44.8752 58.3912 47.0952 58.965 49.244 58.965C54.114 58.965 57.734 56.2237 59.1077 53.575C60.604 50.58 60.4815 45.5337 56.659 41.2112L56.634 41.2637ZM30.814 48.405C30.8482 49.1404 31.1627 49.8349 31.693 50.3456C32.2233 50.8564 32.929 51.1447 33.6652 51.1512H33.764C34.1393 51.1423 34.5091 51.0584 34.8515 50.9046C35.194 50.7507 35.5022 50.5299 35.758 50.2551C36.0139 49.9804 36.2123 49.6573 36.3414 49.3048C36.4706 48.9523 36.528 48.5775 36.5102 48.2025C36.5102 46.7037 35.2152 45.4537 33.6915 45.4537H33.5865C33.4902 45.4537 33.3402 45.4537 33.2102 45.5075C31.1402 42.0112 30.2665 38.2612 30.5915 34.2175C30.7877 31.1712 31.7902 28.5275 33.5865 26.3275C35.0852 24.4587 37.9027 23.5275 39.8302 23.4825C45.2215 23.3775 47.474 30.1025 47.644 32.7725L50.144 33.5212C49.564 25.3312 44.474 21.035 39.604 21.035C35.034 21.035 30.814 24.355 29.1152 29.225C26.7965 35.7237 28.3202 41.96 31.1652 46.96C30.919 47.2787 30.769 47.8587 30.814 48.405Z" fill="#764ABC"/>
</svg>
