<svg width="80" height="80" viewBox="0 0 80 80" fill="none" xmlns="http://www.w3.org/2000/svg">
<path d="M55.0096 50.2394L40.5696 58.3707V52.0357L49.5671 47.1069L55.0096 50.2394ZM55.9996 49.3482V32.3369L50.7134 35.3769V46.3082L55.9996 49.3482ZM24.8596 50.2394L39.2996 58.3707V52.0357L30.3021 47.1069L24.8596 50.2394ZM23.8696 49.3482V32.3369L29.1559 35.3769V46.3082L23.8696 49.3482ZM24.4884 31.2357L39.2996 22.8957V29.0219L29.7421 34.2569L24.4884 31.2357ZM55.3809 31.2357L40.5696 22.8957V29.0219L50.1271 34.2569L55.3809 31.2357ZM39.2996 50.5982L30.4259 45.7344V36.1057L39.2996 41.2094V50.5982ZM40.5696 50.5982L49.4434 45.7344V36.1057L40.5696 41.2094V50.5982ZM31.0246 34.9932L39.9371 30.1169L48.8496 34.9932L39.9371 40.1169L31.0246 34.9932Z" fill="#8ED5FA"/>
<path d="M39.3161 50.56L30.4424 45.6962V36.0675L39.3161 41.1712V50.56ZM40.5861 50.56L49.4599 45.6962V36.0675L40.5861 41.1712V50.56ZM31.0411 34.955L39.9536 30.0787L48.8661 34.955L39.9536 40.0787L31.0411 34.955Z" fill="#1C78C0"/>
</svg>
