<svg width="80" height="80" viewBox="0 0 80 80" fill="none" xmlns="http://www.w3.org/2000/svg">
<path d="M54.9268 32.9515C54.4489 32.7875 53.9668 32.6356 53.4812 32.4959C53.5628 32.1625 53.6379 31.8332 53.7046 31.5097C54.7989 26.1973 54.0835 21.9175 51.6398 20.5083C49.2968 19.1575 45.4651 20.566 41.5953 23.9339C41.2139 24.2665 40.8409 24.6086 40.4768 24.9599C40.2331 24.7263 39.985 24.4972 39.7328 24.2727C35.677 20.6717 31.6118 19.1539 29.1707 20.5671C26.8298 21.9222 26.1367 25.9455 27.1219 30.9803C27.22 31.4789 27.3306 31.975 27.4539 32.468C26.8784 32.6315 26.3232 32.8055 25.7918 32.9908C21.0367 34.6487 18 37.2468 18 39.9417C18 42.725 21.26 45.5168 26.2126 47.2096C26.6142 47.3462 27.019 47.4729 27.4268 47.5894C27.2944 48.1204 27.1768 48.655 27.0742 49.1925C26.1349 54.1399 26.8684 58.0682 29.203 59.4146C31.6142 60.8052 35.6612 59.3761 39.6018 55.9313C39.9213 55.6513 40.2338 55.3633 40.5389 55.0676C40.9333 55.4481 41.3381 55.8175 41.753 56.1753C45.5702 59.4599 49.34 60.7862 51.6723 59.436C54.0812 58.0415 54.8642 53.8215 53.8477 48.6873C53.7676 48.2851 53.6778 47.8848 53.5784 47.4869C53.8626 47.4027 54.1416 47.3161 54.4135 47.2259C59.5623 45.5201 62.9123 42.7622 62.9123 39.9417C62.9123 37.2369 59.7775 34.6213 54.9268 32.9515V32.9515ZM53.8102 45.4048C53.5646 45.486 53.3126 45.5645 53.0558 45.6408C52.4874 43.8413 51.7204 41.928 50.7816 39.951C51.6774 38.0211 52.4149 36.1322 52.9674 34.3445C53.4268 34.4775 53.8726 34.6176 54.3025 34.7655C58.4586 36.1964 60.9937 38.3117 60.9937 39.9417C60.9937 41.6778 58.2558 43.9317 53.8102 45.4048V45.4048ZM51.9656 49.0599C52.4151 51.3301 52.4791 53.3827 52.1814 54.9875C51.914 56.4294 51.3761 57.3906 50.7109 57.7757C49.2956 58.595 46.2688 57.5301 43.0044 54.721C42.6185 54.3882 42.2419 54.0448 41.8751 53.6911C43.1407 52.3071 44.4054 50.6982 45.6398 48.9111C47.8111 48.7185 49.8623 48.4034 51.7225 47.9734C51.814 48.3431 51.8954 48.7055 51.9656 49.0599V49.0599ZM33.3116 57.6341C31.9288 58.1224 30.8274 58.1364 30.1616 57.7525C28.7449 56.9355 28.156 53.7813 28.9593 49.5504C29.0548 49.0505 29.1641 48.5533 29.2872 48.0594C31.1268 48.4664 33.1632 48.759 35.3395 48.9355C36.5823 50.6841 37.8835 52.2913 39.1949 53.6987C38.9162 53.9684 38.6309 54.2311 38.3393 54.4868C36.5967 56.0099 34.8505 57.0906 33.3116 57.6341V57.6341ZM26.8333 45.3941C24.6433 44.6455 22.8347 43.6727 21.5951 42.6111C20.4811 41.6573 19.9188 40.7101 19.9188 39.9417C19.9188 38.3062 22.3568 36.2203 26.4233 34.8025C26.9168 34.6306 27.4333 34.4683 27.9693 34.316C28.5314 36.1441 29.2686 38.0555 30.1582 39.9883C29.257 41.9497 28.5093 43.8917 27.9418 45.7413C27.5695 45.6347 27.1999 45.5189 26.8333 45.3941V45.3941ZM29.0049 30.6117C28.1609 26.2982 28.7214 23.0443 30.1321 22.2276C31.6346 21.3578 34.957 22.598 38.4589 25.7075C38.6873 25.9107 38.912 26.118 39.1328 26.3294C37.8279 27.7306 36.5386 29.3259 35.3068 31.0641C33.1946 31.2599 31.1726 31.5743 29.3137 31.9955C29.1992 31.537 29.0962 31.0756 29.0049 30.6118V30.6117ZM48.3781 35.3955C47.939 34.6371 47.4836 33.8882 47.0123 33.1494C48.4453 33.3306 49.8182 33.5711 51.1075 33.8652C50.7205 35.1059 50.2381 36.4029 49.6702 37.7327C49.2551 36.9451 48.8243 36.1659 48.3781 35.3955V35.3955ZM40.4777 27.7006C41.3626 28.6594 42.2489 29.7297 43.1207 30.8911C41.3523 30.8076 39.5809 30.8073 37.8125 30.8901C38.6851 29.7394 39.5789 28.6704 40.4777 27.7006ZM32.5267 35.4087C32.086 36.1729 31.6633 36.9472 31.2588 37.7311C30.7002 36.406 30.2221 35.1031 29.8318 33.8448C31.1132 33.5582 32.4796 33.3238 33.9035 33.1459C33.4269 33.8892 32.9678 34.6436 32.5267 35.4085V35.4087ZM33.9444 46.8739C32.4733 46.7097 31.0863 46.4875 29.8053 46.2085C30.2018 44.9278 30.6904 43.5971 31.2611 42.2436C31.6672 43.0281 32.0917 43.8029 32.5342 44.5675C32.9893 45.3534 33.4605 46.1232 33.9444 46.8739ZM40.5307 52.3178C39.6212 51.3368 38.7142 50.2513 37.8284 49.0839C38.6884 49.1176 39.5651 49.1348 40.4561 49.1348C41.3716 49.1348 42.2765 49.1143 43.1672 49.0746C42.2926 50.2631 41.4096 51.3501 40.5307 52.3178ZM49.6882 42.1745C50.2886 43.5429 50.7946 44.8666 51.1963 46.1253C49.8942 46.4225 48.4882 46.6618 47.0068 46.8396C47.4815 46.087 47.9412 45.3251 48.3856 44.5543C48.8374 43.7708 49.2717 42.9773 49.6882 42.1745V42.1745ZM46.7237 43.5957C46.0434 44.7775 45.3248 45.9369 44.5691 47.072C43.2003 47.169 41.8284 47.2171 40.4561 47.2164C39.0584 47.2164 37.6989 47.1729 36.3898 47.088C35.6144 45.9555 34.8821 44.7941 34.1946 43.6062H34.1947C33.5104 42.4247 32.8712 41.2175 32.2784 39.9875C32.8696 38.7571 33.5069 37.5494 34.1889 36.3669L34.1888 36.3671C34.8705 35.1843 35.597 34.0279 36.3665 32.9003C37.7021 32.7992 39.0718 32.7466 40.456 32.7466H40.4561C41.8467 32.7466 43.2181 32.7997 44.5533 32.9015C45.3151 34.0274 46.0369 35.1799 46.7174 36.3568C47.4017 37.5366 48.0474 38.7384 48.6535 39.9603C48.0536 41.1946 47.4099 42.4072 46.7237 43.5957V43.5957ZM50.6816 22.1704C52.1854 23.0378 52.7703 26.5355 51.8254 31.1224C51.7651 31.415 51.6974 31.7131 51.6237 32.0153C49.7602 31.5852 47.7368 31.2653 45.6184 31.0666C44.3844 29.3092 43.1056 27.7115 41.8219 26.3283C42.1584 26.004 42.5028 25.6881 42.8549 25.381C46.1707 22.4955 49.2696 21.3562 50.6816 22.1704V22.1704ZM40.4561 35.9311C42.6711 35.9311 44.4667 37.7268 44.4667 39.9417C44.4667 42.1566 42.6711 43.9522 40.4561 43.9522C38.2412 43.9522 36.4456 42.1566 36.4456 39.9417C36.4456 37.7268 38.2412 35.9311 40.4561 35.9311V35.9311Z" fill="#37D1FB"/>
</svg>
