<svg width="80" height="80" viewBox="0 0 80 80" fill="none" xmlns="http://www.w3.org/2000/svg">
<path d="M23 23V58H58V23H23ZM42.0475 50.2962C42.0475 53.7025 40.0475 55.2575 37.1337 55.2575C34.5012 55.2575 32.9775 53.8987 32.1962 52.25L34.8762 50.6325C35.3925 51.5463 35.8612 52.32 36.9937 52.32C38.0712 52.32 38.7587 51.8975 38.7587 50.25V39.07H42.0475V50.2962ZM49.8275 55.2575C46.7725 55.2575 44.7962 53.805 43.835 51.8975L46.515 50.3513C47.2187 51.5 48.14 52.3513 49.7575 52.3513C51.1162 52.3513 51.9925 51.6712 51.9925 50.7262C51.9925 49.6012 51.1012 49.2025 49.5937 48.5387L48.7737 48.1875C46.3987 47.18 44.8287 45.9062 44.8287 43.2262C44.8287 40.7575 46.7112 38.8825 49.6412 38.8825C51.735 38.8825 53.235 39.6088 54.3137 41.515L51.7512 43.1562C51.1887 42.1488 50.5787 41.75 49.6337 41.75C48.6737 41.75 48.0637 42.36 48.0637 43.1562C48.0637 44.1412 48.6737 44.5388 50.0875 45.1563L50.9075 45.5075C53.705 46.7025 55.275 47.93 55.275 50.6787C55.275 53.6325 52.9462 55.2563 49.8287 55.2563L49.8275 55.2575Z" fill="#FFDC25"/>
</svg>
