<svg width="80" height="80" viewBox="0 0 80 80" fill="none" xmlns="http://www.w3.org/2000/svg">
<path d="M22.6388 30.9286H35.1395V31.9223H23.7847V39.4002H34.4625V40.3937H23.7847V48.6038H35.2698V49.5973H22.6388V30.9286ZM36.2595 30.9286H37.5877L43.4734 39.1387L49.4893 30.9285L57.672 20.5L44.2286 40.0016L51.1561 49.5973H49.7758L43.4734 40.8644L37.1449 49.5973H35.7907L42.7702 40.0015L36.2594 30.9286H36.2595ZM51.6509 31.9223V30.9285H65.8966V31.9221H59.3336V49.5972H58.1877V31.9223H51.6509V31.9223ZM7 30.9285H8.43236L28.1838 60.4849L20.0216 49.5972L8.19793 32.3405L8.14589 49.5975H7V30.9285ZM65.7811 48.3038C65.5469 48.3038 65.3714 48.1225 65.3714 47.888C65.3714 47.6537 65.5469 47.4722 65.7811 47.4722C66.018 47.4722 66.1908 47.6535 66.1908 47.888C66.1908 48.1224 66.018 48.3038 65.7811 48.3038ZM66.9071 47.2099H67.5203C67.5285 47.5419 67.771 47.7652 68.1278 47.7652C68.5263 47.7652 68.7521 47.5252 68.7521 47.0759V44.2293H69.3764V47.0786C69.3764 47.888 68.9082 48.3541 68.1333 48.3541C67.4058 48.3541 66.9071 47.9019 66.9071 47.2098V47.2099ZM70.193 47.1737H70.8118C70.8647 47.5559 71.2382 47.7986 71.7762 47.7986C72.2778 47.7986 72.6457 47.5391 72.6457 47.1819C72.6457 46.875 72.4115 46.6908 71.8792 46.5652L71.3608 46.4397C70.6333 46.2693 70.3018 45.9177 70.3018 45.3261C70.3018 44.609 70.887 44.1317 71.7649 44.1317C72.5815 44.1317 73.178 44.6089 73.2142 45.2871H72.6066C72.5481 44.9159 72.2247 44.6842 71.7565 44.6842C71.2633 44.6842 70.9345 44.9215 70.9345 45.2842C70.9345 45.5716 71.1462 45.7364 71.6702 45.8591L72.1133 45.968C72.9383 46.1606 73.2783 46.4955 73.2783 47.101C73.2783 47.8713 72.6819 48.3541 71.7288 48.3541C70.8369 48.3541 70.2375 47.8935 70.193 47.1735V47.1737Z" fill="white"/>
</svg>
