<svg width="80" height="80" viewBox="0 0 80 80" fill="none" xmlns="http://www.w3.org/2000/svg">
<path d="M39.9844 22.9805C30.3242 22.9766 22.5 30.7969 22.5 40.4492C22.5 48.082 27.3945 54.5703 34.2109 56.9531C35.1289 57.1836 34.9883 56.5312 34.9883 56.0859V53.0586C29.6875 53.6797 29.4727 50.1719 29.1172 49.5859C28.3984 48.3594 26.6992 48.0469 27.207 47.4609C28.4141 46.8398 29.6445 47.6172 31.0703 49.7227C32.1016 51.25 34.1133 50.9922 35.1328 50.7383C35.3555 49.8203 35.832 49 36.4883 48.3633C30.9961 47.3789 28.707 44.0273 28.707 40.043C28.707 38.1094 29.3438 36.332 30.5938 34.8984C29.7969 32.5352 30.668 30.5117 30.7852 30.2109C33.0547 30.0078 35.4141 31.8359 35.5977 31.9805C36.8867 31.6328 38.3594 31.4492 40.0078 31.4492C41.6641 31.4492 43.1406 31.6406 44.4414 31.9922C44.8828 31.6563 47.0703 30.0859 49.1797 30.2773C49.293 30.5781 50.1445 32.5547 49.3945 34.8867C50.6602 36.3242 51.3047 38.1172 51.3047 40.0547C51.3047 44.0469 49 47.4023 43.4922 48.3711C43.9639 48.835 44.3385 49.3883 44.5941 49.9987C44.8496 50.609 44.981 51.2641 44.9805 51.9258V56.3203C45.0117 56.6719 44.9805 57.0195 45.5664 57.0195C52.4844 54.6875 57.4648 48.1523 57.4648 40.4531C57.4648 30.7969 49.6367 22.9805 39.9844 22.9805Z" fill="#4E5969"/>
</svg>
