<svg width="80" height="80" viewBox="0 0 80 80" fill="none" xmlns="http://www.w3.org/2000/svg">
<path d="M55.14 49.3438L40.7 57.475V51.14L49.6975 46.2113L55.14 49.3438ZM56.13 48.4525V31.4412L50.8438 34.4812V45.4125L56.13 48.4525ZM24.99 49.3438L39.43 57.475V51.14L30.4325 46.2113L24.99 49.3438ZM24 48.4525V31.4412L29.2863 34.4812V45.4125L24 48.4525ZM24.6188 30.34L39.43 22V28.1263L29.8725 33.3612L24.6188 30.34ZM55.5113 30.34L40.7 22V28.1263L50.2575 33.3612L55.5113 30.34ZM39.43 49.7025L30.5562 44.8387V35.21L39.43 40.3137V49.7025ZM40.7 49.7025L49.5738 44.8387V35.21L40.7 40.3137V49.7025ZM31.155 34.0975L40.0675 29.2212L48.98 34.0975L40.0675 39.2212L31.155 34.0975Z" fill="#4E5969"/>
</svg>
