<svg width="80" height="80" viewBox="0 0 80 80" fill="none" xmlns="http://www.w3.org/2000/svg">
<path d="M54.9268 32.9515C54.4489 32.7876 53.9669 32.6356 53.4812 32.4959C53.5628 32.1626 53.6379 31.8333 53.7046 31.5098C54.799 26.1973 54.0835 21.9175 51.6398 20.5084C49.2968 19.1575 45.4651 20.5661 41.5953 23.934C41.2139 24.2665 40.8409 24.6086 40.4768 24.96C40.2331 24.7263 39.985 24.4972 39.7328 24.2728C35.677 20.6717 31.6118 19.154 29.1707 20.5672C26.8298 21.9223 26.1367 25.9456 27.1219 30.9803C27.22 31.479 27.3306 31.975 27.4539 32.468C26.8784 32.6315 26.3232 32.8056 25.7918 32.9908C21.0367 34.6487 18 37.2468 18 39.9417C18 42.7251 21.26 45.5168 26.2126 47.2096C26.6142 47.3463 27.019 47.4729 27.4268 47.5894C27.2944 48.1204 27.1768 48.655 27.0742 49.1926C26.1349 54.14 26.8684 58.0682 29.203 59.4147C31.6142 60.8052 35.6612 59.3761 39.6018 55.9314C39.9213 55.6513 40.2338 55.3633 40.5389 55.0677C40.9333 55.4481 41.3381 55.8175 41.753 56.1754C45.5702 59.46 49.34 60.7863 51.6723 59.4361C54.0812 58.0415 54.8642 53.8216 53.8477 48.6873C53.7676 48.2851 53.6778 47.8849 53.5784 47.487C53.8626 47.4028 54.1416 47.3161 54.4135 47.2259C59.5623 45.5201 62.9123 42.7622 62.9123 39.9417C62.9123 37.237 59.7775 34.6214 54.9268 32.9515ZM53.8102 45.4049C53.5646 45.4861 53.3126 45.5645 53.0558 45.6408C52.4874 43.8414 51.7204 41.928 50.7816 39.951C51.6774 38.0212 52.4149 36.1322 52.9674 34.3445C53.4268 34.4775 53.8726 34.6177 54.3025 34.7656C58.4586 36.1965 60.9937 38.3117 60.9937 39.9417C60.9937 41.6779 58.2558 43.9317 53.8102 45.4049ZM51.9656 49.06C52.4151 51.3301 52.4791 53.3828 52.1814 54.9875C51.914 56.4294 51.3761 57.3907 50.7109 57.7758C49.2956 58.5951 46.2688 57.5301 43.0044 54.721C42.6185 54.3883 42.2419 54.0449 41.8751 53.6912C43.1407 52.3072 44.4054 50.6982 45.6398 48.9112C47.8111 48.7186 49.8623 48.4035 51.7225 47.9735C51.814 48.3431 51.8954 48.7056 51.9656 49.06ZM33.3116 57.6342C31.9288 58.1224 30.8274 58.1365 30.1616 57.7526C28.7449 56.9356 28.156 53.7814 28.9593 49.5505C29.0548 49.0505 29.1641 48.5533 29.2872 48.0594C31.1268 48.4665 33.1632 48.7591 35.3395 48.9356C36.5823 50.6842 37.8835 52.2914 39.1949 53.6987C38.9162 53.9684 38.6309 54.2312 38.3393 54.4868C36.5967 56.01 34.8505 57.0907 33.3116 57.6342ZM26.8333 45.3942C24.6433 44.6456 22.8347 43.6728 21.5951 42.6112C20.4811 41.6573 19.9188 40.7101 19.9188 39.9417C19.9188 38.3063 22.3568 36.2203 26.4233 34.8026C26.9168 34.6307 27.4333 34.4684 27.9693 34.3161C28.5314 36.1442 29.2686 38.0556 30.1582 39.9884C29.257 41.9498 28.5093 43.8917 27.9418 45.7414C27.5695 45.6347 27.1999 45.519 26.8333 45.3942ZM29.0049 30.6117C28.1609 26.2982 28.7214 23.0444 30.1321 22.2277C31.6346 21.3579 34.957 22.598 38.4589 25.7075C38.6873 25.9107 38.912 26.1181 39.1328 26.3294C37.8279 27.7307 36.5386 29.3259 35.3068 31.0642C33.1946 31.26 31.1726 31.5744 29.3137 31.9956C29.1992 31.537 29.0962 31.0756 29.0049 30.6119V30.6117ZM48.3781 35.3956C47.939 34.6371 47.4836 33.8883 47.0123 33.1494C48.4453 33.3307 49.8182 33.5712 51.1075 33.8652C50.7205 35.1059 50.2381 36.403 49.6702 37.7328C49.2551 36.9452 48.8243 36.166 48.3781 35.3956ZM40.4777 27.7007C41.3626 28.6594 42.2489 29.7298 43.1207 30.8912C41.3523 30.8077 39.5809 30.8073 37.8125 30.8901C38.6851 29.7394 39.5789 28.6705 40.4777 27.7007ZM32.5267 35.4087C32.086 36.1729 31.6633 36.9473 31.2588 37.7312C30.7002 36.4061 30.2221 35.1031 29.8318 33.8449C31.1132 33.5582 32.4796 33.3238 33.9035 33.1459C33.4269 33.8893 32.9678 34.6437 32.5267 35.4086V35.4087ZM33.9444 46.874C32.4733 46.7098 31.0863 46.4875 29.8053 46.2086C30.2018 44.9279 30.6904 43.5972 31.2611 42.2437C31.6672 43.0281 32.0917 43.803 32.5342 44.5675C32.9893 45.3535 33.4605 46.1233 33.9444 46.874ZM40.5307 52.3179C39.6212 51.3368 38.7142 50.2514 37.8284 49.084C38.6884 49.1177 39.5651 49.1349 40.4561 49.1349C41.3716 49.1349 42.2765 49.1144 43.1672 49.0747C42.2926 50.2631 41.4097 51.3501 40.5307 52.3179ZM49.6882 42.1745C50.2886 43.543 50.7946 44.8666 51.1963 46.1254C49.8942 46.4226 48.4882 46.6619 47.0068 46.8396C47.4815 46.0871 47.9412 45.3252 48.3856 44.5544C48.8374 43.7708 49.2717 42.9774 49.6882 42.1745ZM46.7237 43.5958C46.0434 44.7776 45.3248 45.937 44.5691 47.0721C43.2003 47.169 41.8284 47.2172 40.4561 47.2165C39.0584 47.2165 37.6989 47.173 36.3898 47.088C35.6144 45.9556 34.8821 44.7941 34.1946 43.6063H34.1947C33.5104 42.4247 32.8712 41.2176 32.2784 39.9875C32.8696 38.7571 33.5069 37.5494 34.1889 36.367L34.1888 36.3672C34.8705 35.1844 35.597 34.0279 36.3665 32.9003C37.7021 32.7993 39.0718 32.7466 40.456 32.7466H40.4561C41.8467 32.7466 43.2181 32.7998 44.5533 32.9015C45.3151 34.0275 46.0369 35.18 46.7174 36.3568C47.4017 37.5367 48.0474 38.7385 48.6535 39.9603C48.0536 41.1947 47.4099 42.4072 46.7237 43.5958ZM50.6816 22.1705C52.1854 23.0379 52.7704 26.5356 51.8254 31.1224C51.7651 31.4151 51.6974 31.7131 51.6237 32.0154C49.7602 31.5852 47.7368 31.2654 45.6184 31.0666C44.3844 29.3093 43.1056 27.7115 41.8219 26.3284C42.1584 26.0041 42.5028 25.6882 42.8549 25.381C46.1707 22.4956 49.2696 21.3563 50.6816 22.1705ZM40.4561 35.9312C42.6711 35.9312 44.4667 37.7268 44.4667 39.9417C44.4667 42.1566 42.6711 43.9523 40.4561 43.9523C38.2412 43.9523 36.4456 42.1566 36.4456 39.9417C36.4456 37.7268 38.2412 35.9312 40.4561 35.9312Z" fill="#4E5969"/>
</svg>
