<svg width="80" height="80" viewBox="0 0 80 80" fill="none" xmlns="http://www.w3.org/2000/svg">
<path d="M47.7215 47.5063C49.1727 47.3825 50.2927 46.1063 50.2215 44.5825C50.1427 43.0588 48.8927 41.8363 47.3765 41.8363H47.2715C46.5164 41.8633 45.8029 42.1891 45.2879 42.7421C44.7729 43.295 44.4986 44.0299 44.5252 44.785C44.5765 45.5863 44.9015 46.23 45.3515 46.705C43.6002 50.1038 40.9827 52.5988 37.0052 54.7C34.3365 56.0938 31.5165 56.6213 28.7702 56.2438C26.4715 55.925 24.6752 54.8975 23.5752 53.2488C21.9265 50.7488 21.7765 48.06 23.1515 45.3588C24.1527 43.4125 25.6515 41.985 26.6465 41.2888C26.3474 40.4513 26.1146 39.5915 25.9502 38.7175C18.5552 44.0113 19.3102 51.2575 21.5565 54.6763C23.2302 57.1763 26.6465 58.7713 30.3902 58.7713C31.394 58.7713 32.4415 58.7 33.464 58.445C39.9627 57.195 44.8777 53.3013 47.6952 47.56L47.7215 47.5063ZM56.634 41.2638C52.7677 36.7188 47.0702 34.2188 40.5802 34.2188H39.7265C39.3102 33.3 38.3327 32.7225 37.2327 32.7225H37.1615C35.5865 32.7225 34.3615 34.0763 34.4127 35.6463C34.4665 37.1425 35.734 38.3925 37.2577 38.3925H37.3827C37.9234 38.3706 38.4463 38.1939 38.8895 37.8834C39.3327 37.573 39.6774 37.1419 39.8827 36.6413H40.8065C44.6552 36.6413 48.2952 37.7675 51.6215 39.9625C54.1602 41.6338 55.9902 43.8363 57.0115 46.4588C57.9102 48.6 57.8577 50.7038 56.9327 52.455C55.514 55.195 53.1115 56.6463 49.9477 56.6463C47.949 56.6463 46.0027 56.0213 44.999 55.5725C44.4002 56.0675 43.3977 56.8938 42.674 57.3963C44.8752 58.3913 47.0952 58.965 49.244 58.965C54.114 58.965 57.734 56.2238 59.1077 53.575C60.604 50.58 60.4815 45.5338 56.659 41.2113L56.634 41.2638ZM30.814 48.405C30.8482 49.1405 31.1627 49.8349 31.693 50.3457C32.2233 50.8565 32.929 51.1447 33.6652 51.1513H33.764C34.1393 51.1424 34.5091 51.0585 34.8515 50.9046C35.194 50.7507 35.5022 50.5299 35.758 50.2552C36.0139 49.9805 36.2123 49.6573 36.3414 49.3048C36.4706 48.9523 36.528 48.5775 36.5102 48.2025C36.5102 46.7038 35.2152 45.4538 33.6915 45.4538H33.5865C33.4902 45.4538 33.3402 45.4538 33.2102 45.5075C31.1402 42.0113 30.2665 38.2613 30.5915 34.2175C30.7877 31.1713 31.7902 28.5275 33.5865 26.3275C35.0852 24.4588 37.9027 23.5275 39.8302 23.4825C45.2215 23.3775 47.474 30.1025 47.644 32.7725L50.144 33.5213C49.564 25.3313 44.474 21.035 39.604 21.035C35.034 21.035 30.814 24.355 29.1152 29.225C26.7965 35.7238 28.3202 41.96 31.1652 46.96C30.919 47.2788 30.769 47.8588 30.814 48.405Z" fill="#4E5969"/>
</svg>
