<svg width="186" height="24" viewBox="0 0 186 24" fill="none" xmlns="http://www.w3.org/2000/svg">
<path fill-rule="evenodd" clip-rule="evenodd" d="M159.053 8.62687C151.751 10.8679 143.997 13.2473 131.456 14.4569C120.509 15.5127 110.766 13.5154 102.449 11.5278C101.461 11.2917 100.497 11.0567 99.5546 10.8271C96.5029 10.0832 93.6852 9.39639 91.0471 8.91419C87.6009 8.28425 84.617 8.03647 82.0248 8.4417C79.6766 8.80878 77.714 9.27312 76.0854 9.80617C76.976 10.2121 77.7859 10.7081 78.4819 11.3109C80.5292 13.0839 80.7836 15.5044 80.2232 17.5335C79.6807 19.4982 78.337 21.3108 76.7933 22.2729C75.1903 23.2721 72.7625 23.5766 70.6566 22.9971C68.4428 22.3878 66.3735 20.7236 66.0104 17.6774C65.7327 15.3473 66.3204 13.1048 68.0058 11.1785C66.9807 11.1316 65.9072 11.1289 64.7993 11.1672C59.5679 11.3477 53.7468 12.4326 49.0009 13.8796L48.9861 13.8841L48.9712 13.8883C39.6641 16.5177 32.4455 17.3702 25.0221 16.3171C17.9807 15.3182 10.8629 12.6182 1.70919 8.2994C0.95997 7.94591 0.642372 7.04892 0.999899 6.30161C1.35743 5.55431 2.25489 5.23979 3.00416 5.5932C12.0776 9.87289 18.859 12.4128 25.4435 13.3469C32.3106 14.3211 39.0817 13.5636 48.1409 11.0054C53.1001 9.49495 59.1745 8.35953 64.6958 8.16897C67.0735 8.08691 69.3815 8.17881 71.4721 8.50488C73.9333 7.17028 77.2596 6.15019 81.5614 5.4777C84.6484 4.99512 88.0225 5.31162 91.5866 5.96308C94.3191 6.46255 97.255 7.17832 100.327 7.92725C101.255 8.15349 102.195 8.38275 103.146 8.60999C111.406 10.5837 120.743 12.4763 131.167 11.4708C143.407 10.2903 150.927 7.98236 158.184 5.75562L158.578 5.63449C165.689 3.45329 172.631 1.36881 183.413 0.599397C184.24 0.540433 184.952 1.17289 185 1.99993C185.048 2.82696 184.413 3.53535 183.587 3.5946C173.172 4.34138 166.493 6.34455 159.458 8.50258L159.053 8.62687ZM72.0367 11.6554C71.7052 11.871 71.4052 12.091 71.1345 12.3143C69.3069 13.8221 68.7734 15.5099 68.9894 17.3224C69.1788 18.912 70.1561 19.7478 71.4526 20.1046C72.857 20.4911 74.4029 20.2278 75.2065 19.7269C76.0694 19.1891 76.9757 18.0231 77.3315 16.7349C77.6695 15.5109 77.4706 14.4038 76.5179 13.5786C75.5335 12.7261 74.0256 12.0708 72.0367 11.6554Z" fill="url(#paint0_linear_715:16784)"/>
<defs>
<linearGradient id="paint0_linear_715:16784" x1="-31.8234" y1="-6.6184" x2="175.078" y2="53.6739" gradientUnits="userSpaceOnUse">
<stop stop-color="#33C2FF"/>
<stop offset="0.52247" stop-color="#257CFF"/>
<stop offset="1" stop-color="#165DFF"/>
</linearGradient>
</defs>
</svg>
