<svg width="24" height="24" viewBox="0 0 24 24" fill="none" xmlns="http://www.w3.org/2000/svg">
<path d="M9.84902 23.3685C7.25763 23.3359 4.78362 22.3002 2.96283 20.4857C1.14205 18.6712 0.121094 16.224 0.121094 13.6741C0.121094 11.1243 1.14205 8.6771 2.96283 6.86259C4.78362 5.04809 7.25763 4.01237 9.84902 3.97976C12.3682 3.97409 14.7925 4.92478 16.6171 6.63384L16.8104 6.83044C17.4217 7.40133 17.8789 8.11299 18.1407 8.9012C18.4025 9.68941 18.4608 10.5294 18.3101 11.3452C18.1595 12.1611 17.8048 12.9273 17.2779 13.5745C16.7511 14.2218 16.0687 14.7298 15.2924 15.0527C15.5358 14.1252 15.5302 13.1513 15.2762 12.2266C15.0223 11.3018 14.5287 10.4577 13.8437 9.77692C13.1587 9.09615 12.3058 8.60201 11.3685 8.34285C10.4312 8.08369 9.44151 8.06839 8.49637 8.29845C7.55123 8.52851 6.68299 8.99605 5.9766 9.65531C5.27022 10.3146 4.74989 11.143 4.46653 12.0595C4.18317 12.9759 4.1465 13.9491 4.3601 14.8837C4.57369 15.8183 5.03024 16.6824 5.68507 17.3913L5.86877 17.5863C7.33976 19.0733 9.23562 20.085 11.3047 20.4871C13.3738 20.8893 15.5182 20.6627 17.4534 19.8377C16.5302 20.9429 15.3693 21.8329 14.0543 22.4435C12.7393 23.0541 11.3031 23.37 9.84902 23.3685Z" fill="#006EFF"/>
<path d="M13.3168 20.1471C10.7481 20.1583 8.27836 19.1734 6.44244 17.4058L6.2539 17.2123C5.66575 16.6337 5.23108 15.9218 4.9881 15.1391C4.74512 14.3564 4.70127 13.527 4.86041 12.7238C5.01955 11.9206 5.3768 11.1681 5.90076 10.5326C6.42472 9.89699 7.09935 9.3978 7.86534 9.07887C7.62081 10.0124 7.62839 10.9925 7.88734 11.9222C8.14628 12.852 8.64761 13.699 9.34165 14.3794C10.0357 15.0599 10.8984 15.5501 11.8442 15.8016C12.7901 16.053 13.7863 16.057 14.7342 15.8131C15.6821 15.5692 16.5488 15.0859 17.2485 14.411C17.9481 13.7361 18.4564 12.8931 18.723 11.9655C18.9896 11.0379 19.0053 10.0578 18.7684 9.1224C18.5316 8.18698 18.0505 7.32867 17.3728 6.63248L17.1988 6.44539C15.7257 4.99373 13.8428 4.01165 11.7949 3.62682C9.74703 3.24199 7.62883 3.47222 5.71568 4.28757C6.77131 3.02689 8.13365 2.04915 9.67616 1.44519C11.2187 0.841221 12.8913 0.630618 14.5387 0.83294C16.1861 1.03526 17.7547 1.64395 19.099 2.60245C20.4433 3.56096 21.5196 4.83819 22.2278 6.3155C22.9361 7.79281 23.2534 9.42228 23.1502 11.0525C23.047 12.6828 22.5268 14.261 21.6378 15.6404C20.7487 17.0199 19.5198 18.1559 18.065 18.943C16.6103 19.73 14.977 20.1426 13.3168 20.1423V20.1471Z" fill="#00E5E5"/>
</svg>
