<svg width="34" height="28" viewBox="0 0 34 28" fill="none" xmlns="http://www.w3.org/2000/svg">
<path d="M28.2833 4.83633C21.9276 -1.54603 11.6224 -1.54603 5.26674 4.83633C-1.08891 11.2187 -1.08891 21.5672 5.26674 27.9496L9.54808 23.6502C8.66815 22.7666 7.95267 21.7179 7.43914 20.559C10.4193 19.7768 13.5467 19.3538 16.775 19.3538C20.0004 19.3538 23.1249 19.7826 26.108 20.5648C25.5944 21.7208 24.8818 22.7666 24.0019 23.6502L28.2833 27.9496C34.6389 21.5672 34.6389 11.2187 28.2833 4.83633ZM6.76405 14.3186C7.71899 9.64555 11.8388 6.13134 16.775 6.13134C21.7083 6.13134 25.8252 9.64265 26.7831 14.3128C20.2081 12.7397 13.339 12.7455 6.76405 14.3186Z" fill="#FFCC32"/>
</svg>
