<svg width="28" height="28" viewBox="0 0 28 28" fill="none" xmlns="http://www.w3.org/2000/svg">
<path d="M6.442 26.6113C3.65803 26.6113 1.38965 24.3465 1.38965 21.559V6.442C1.38965 3.65803 3.65445 1.38965 6.442 1.38965H21.559C24.3429 1.38965 26.6113 3.65445 26.6113 6.442V21.559C26.6113 24.3429 24.3465 26.6113 21.559 26.6113H6.442Z" fill="white" stroke="#E5E6EB"/>
<path d="M27.2003 16.1559C24.1891 12.557 19.4108 10.2307 14.0327 10.2307C8.61816 10.2307 3.80748 12.5894 0.800293 16.2329V21.5624C0.800293 24.679 3.32519 27.2039 6.4418 27.2039H21.5588C24.6754 27.2039 27.2003 24.679 27.2003 21.5624V16.1559Z" fill="url(#paint0_radial_715:16805)"/>
<path d="M16.8931 0.800049H21.797V6.70904L19.341 5.26624L16.8931 6.70904V0.800049Z" fill="#EE5528"/>
<path d="M20.3024 21.4167C21.4128 21.4167 21.9235 21.8098 21.9235 22.2961C21.9235 22.7825 21.4128 23.1756 20.3024 23.1756C19.1919 23.1756 17.899 22.2961 17.899 22.2961C17.899 22.2961 19.1919 21.4167 20.3024 21.4167ZM7.60086 21.291C8.64243 21.291 9.85422 22.1705 9.85422 22.1705C9.85422 22.1705 8.64243 23.05 7.60086 23.05C6.55929 23.05 6.08105 22.6568 6.08105 22.1705C6.08105 21.6882 6.55929 21.291 7.60086 21.291ZM19.662 16.7641C20.0551 17.1572 20.0227 17.8259 19.2567 18.5919C18.4908 19.3579 16.8899 19.5321 16.8899 19.5321C16.8899 19.5321 17.0682 17.9313 17.8301 17.1653C18.6002 16.4034 19.2689 16.3709 19.662 16.7641ZM8.20473 16.7519C8.57759 16.3709 9.19766 16.4115 9.89475 17.1815C10.5918 17.9515 10.7296 19.5321 10.7296 19.5321C10.7296 19.5321 9.2463 19.3295 8.54922 18.5595C7.85213 17.7935 7.83592 17.1329 8.20473 16.7519ZM13.8746 14.377C14.3609 14.377 14.7541 14.8552 14.7541 15.8968C14.7541 16.9383 13.8746 18.1501 13.8746 18.1501C13.8746 18.1501 12.9951 16.9383 12.9951 15.8968C12.9951 14.8552 13.3883 14.377 13.8746 14.377Z" fill="white"/>
<defs>
<radialGradient id="paint0_radial_715:16805" cx="0" cy="0" r="1" gradientUnits="userSpaceOnUse" gradientTransform="translate(14.1048 22.5983) scale(13.4478)">
<stop stop-color="#CC0500"/>
<stop offset="1" stop-color="#FF751F"/>
</radialGradient>
</defs>
</svg>
