<svg width="40" height="40" viewBox="0 0 40 40" fill="none" xmlns="http://www.w3.org/2000/svg">
<path d="M9.00632 38.5708C4.8315 38.5708 1.43018 35.1749 1.43018 30.9946V9.00632C1.43018 4.8315 4.82608 1.43018 9.00632 1.43018H30.9947C35.1695 1.43018 38.5708 4.82608 38.5708 9.00632V30.9946C38.5708 35.1695 35.1749 38.5708 30.9947 38.5708H9.00632Z" fill="white" stroke="#E5E6EB"/>
<path d="M39.2003 23.1361C34.8203 17.9013 27.8701 14.5176 20.0475 14.5176C12.1717 14.5176 5.17438 17.9485 0.800293 23.2481V31C0.800293 35.5332 4.47288 39.2058 9.00613 39.2058H30.9945C35.5277 39.2058 39.2003 35.5332 39.2003 31V23.1361Z" fill="url(#paint0_radial_715:16796)"/>
<path d="M24.209 0.800049H31.3419V9.39495L27.7696 7.29633L24.209 9.39495V0.800049Z" fill="#EE5528"/>
<path d="M29.1675 30.7877C30.7827 30.7877 31.5255 31.3595 31.5255 32.0669C31.5255 32.7743 30.7827 33.3461 29.1675 33.3461C27.5522 33.3461 25.6717 32.0669 25.6717 32.0669C25.6717 32.0669 27.5522 30.7877 29.1675 30.7877ZM10.6926 30.605C12.2076 30.605 13.9702 31.8842 13.9702 31.8842C13.9702 31.8842 12.2076 33.1634 10.6926 33.1634C9.17754 33.1634 8.48193 32.5916 8.48193 31.8842C8.48193 31.1827 9.17754 30.605 10.6926 30.605ZM28.2361 24.0202C28.8079 24.5921 28.7607 25.5647 27.6466 26.6789C26.5324 27.793 24.2039 28.0465 24.2039 28.0465C24.2039 28.0465 24.4633 25.718 25.5715 24.6039C26.6916 23.4956 27.6642 23.4484 28.2361 24.0202ZM11.5709 24.0026C12.1133 23.4484 13.0152 23.5074 14.0291 24.6274C15.0431 25.7475 15.2435 28.0465 15.2435 28.0465C15.2435 28.0465 13.0859 27.7518 12.072 26.6317C11.058 25.5176 11.0345 24.5567 11.5709 24.0026ZM19.818 20.5481C20.5254 20.5481 21.0972 21.2437 21.0972 22.7587C21.0972 24.2737 19.818 26.0363 19.818 26.0363C19.818 26.0363 18.5388 24.2737 18.5388 22.7587C18.5388 21.2437 19.1106 20.5481 19.818 20.5481Z" fill="white"/>
<defs>
<radialGradient id="paint0_radial_715:16796" cx="0" cy="0" r="1" gradientUnits="userSpaceOnUse" gradientTransform="translate(20.1523 32.5068) scale(19.5604)">
<stop stop-color="#CC0500"/>
<stop offset="1" stop-color="#FF751F"/>
</radialGradient>
</defs>
</svg>
