<svg width="32" height="32" viewBox="0 0 32 32" fill="none" xmlns="http://www.w3.org/2000/svg">
<path fill-rule="evenodd" clip-rule="evenodd" d="M6.53233 10.3997C5.40974 12.2975 4.88342 14.4889 5.02164 16.6896L5.02048 16.6379C5.06648 17.2252 5.29737 17.7836 5.68102 18.2324C6.08167 18.7011 6.62635 19.0238 7.22989 19.1501C8.63775 19.3776 9.93944 20.039 10.9532 21.042C11.967 22.045 12.6422 23.3396 12.8846 24.745C13.0066 25.3681 13.3373 25.9311 13.8223 26.341C14.3072 26.7509 14.9173 26.9834 15.5521 27H16.0003C18.2053 26.9999 20.3593 26.3372 22.183 25.0978C24.0067 23.8584 25.4158 22.0995 26.2275 20.0494C27.0392 17.9993 27.2161 15.7525 26.7351 13.6006C26.2542 11.4488 25.1376 9.49109 23.5303 7.98163C21.923 6.47216 19.8992 5.48058 17.7214 5.13553C15.5435 4.79048 13.3123 5.10789 11.3171 6.04658C9.32194 6.98527 7.65491 8.50191 6.53233 10.3997ZM20.288 17.2777C18.9087 18.7016 17.1551 19.7068 15.2294 20.1776C14.7698 20.2872 14.2857 20.2171 13.876 19.9818C13.4664 19.7464 13.162 19.3634 13.0253 18.9112C12.4843 17.0114 12.4843 14.9982 13.0253 13.0984C13.1583 12.6455 13.4612 12.2616 13.8707 12.0268C14.2801 11.7919 14.7644 11.7244 15.2225 11.8382C17.1518 12.3112 18.9079 13.3204 20.288 14.7491C20.61 15.0913 20.7892 15.5435 20.7892 16.0134C20.7892 16.4833 20.61 16.9355 20.288 17.2777Z" fill="url(#paint0_linear_969:12553)"/>
<defs>
<linearGradient id="paint0_linear_969:12553" x1="16" y1="5" x2="16" y2="27" gradientUnits="userSpaceOnUse">
<stop stop-color="#FA5050"/>
<stop offset="1" stop-color="#FB0414"/>
</linearGradient>
</defs>
</svg>
