<svg width="32" height="32" viewBox="0 0 32 32" fill="none" xmlns="http://www.w3.org/2000/svg">
<path d="M8.47052 28.0138C5.77928 28.0138 3.58643 25.8244 3.58643 23.1297V8.47077C3.58643 5.77952 5.77582 3.58667 8.47052 3.58667H23.1294C25.8207 3.58667 28.0135 5.77607 28.0135 8.47077V23.1297C28.0135 25.8209 25.8241 28.0138 23.1294 28.0138H8.47052Z" stroke="#E5E6EB"/>
<path d="M28.6 17.8907C25.68 14.4008 21.0465 12.145 15.8314 12.145C10.581 12.145 5.91606 14.4323 3 17.9653V23.1333C3 26.1555 5.44839 28.6038 8.47056 28.6038H23.1294C26.1516 28.6038 28.6 26.1555 28.6 23.1333V17.8907Z" fill="url(#paint0_radial_969:12539)"/>
<path d="M18.606 3H23.3613V8.72994L20.9797 7.33086L18.606 8.72994V3Z" fill="#EE5528"/>
<path d="M21.9115 22.9917C22.9883 22.9917 23.4835 23.3729 23.4835 23.8445C23.4835 24.3161 22.9883 24.6973 21.9115 24.6973C20.8346 24.6973 19.581 23.8445 19.581 23.8445C19.581 23.8445 20.8346 22.9917 21.9115 22.9917ZM9.59484 22.8699C10.6049 22.8699 11.7799 23.7227 11.7799 23.7227C11.7799 23.7227 10.6049 24.5755 9.59484 24.5755C8.58483 24.5755 8.12109 24.1943 8.12109 23.7227C8.12109 23.255 8.58483 22.8699 9.59484 22.8699ZM21.2905 18.4801C21.6717 18.8613 21.6403 19.5097 20.8975 20.2525C20.1547 20.9953 18.6024 21.1642 18.6024 21.1642C18.6024 21.1642 18.7753 19.6119 19.5142 18.8691C20.2609 18.1303 20.9093 18.0988 21.2905 18.4801ZM10.1804 18.4683C10.542 18.0988 11.1433 18.1381 11.8192 18.8848C12.4952 19.6315 12.6288 21.1642 12.6288 21.1642C12.6288 21.1642 11.1904 20.9677 10.5145 20.221C9.8385 19.4783 9.82278 18.8377 10.1804 18.4683ZM15.6785 16.1653C16.1501 16.1653 16.5313 16.629 16.5313 17.639C16.5313 18.649 15.6785 19.8241 15.6785 19.8241C15.6785 19.8241 14.8257 18.649 14.8257 17.639C14.8257 16.629 15.2069 16.1653 15.6785 16.1653Z" fill="white"/>
<defs>
<radialGradient id="paint0_radial_969:12539" cx="0" cy="0" r="1" gradientUnits="userSpaceOnUse" gradientTransform="translate(15.9014 24.1378) scale(13.0403)">
<stop stop-color="#CC0500"/>
<stop offset="1" stop-color="#FF751F"/>
</radialGradient>
</defs>
</svg>
