<svg width="40" height="40" viewBox="0 0 40 40" fill="none" xmlns="http://www.w3.org/2000/svg">
<path d="M20.351 8.69955L13.1991 10.612C6.56293 12.3861 2.58547 19.2671 4.35954 25.9021L7.10698 36.2059C7.35771 37.1485 8.31808 37.715 9.26425 37.4773C11.6403 36.8824 15.3375 35.9481 15.5728 35.831L26.8015 32.8292C33.4377 31.0552 37.4152 24.1742 35.6411 17.5391C33.8682 10.9041 26.9872 6.92548 20.351 8.69955Z" fill="#FF6880"/>
<path d="M8.83812 38.4633C7.63648 38.4633 6.5271 37.6543 6.2054 36.4456L3.45678 26.1418C1.54551 18.9911 5.80801 11.6193 12.9575 9.70799L20.1094 7.79555C23.5605 6.87303 27.1749 7.35558 30.2866 9.15567C33.3995 10.9546 35.6218 13.8463 36.5431 17.2963C38.4544 24.447 34.1931 31.8188 27.0424 33.7301L15.8646 36.7188C15.5677 36.8252 14.5199 37.1221 9.49097 38.3817C9.27335 38.4373 9.05455 38.4633 8.83812 38.4633ZM20.5919 9.60037L13.4412 11.5128C7.28522 13.158 3.61644 19.5044 5.2616 25.6592L8.01022 35.9642C8.12967 36.4101 8.58856 36.6821 9.038 36.5709C14.0763 35.3078 15.0332 35.0322 15.2058 34.9719C15.2472 34.9542 15.2898 34.94 15.3324 34.9281L26.5611 31.9264C29.5297 31.1328 32.0181 29.2192 33.5674 26.5392C35.1168 23.8591 35.5331 20.7474 34.7395 17.78C33.9459 14.8114 32.0335 12.323 29.3523 10.7736C26.6711 9.22308 23.5593 8.80795 20.5919 9.60037ZM15.1964 34.9755C15.181 34.9826 15.1692 34.9885 15.1597 34.9932C15.1715 34.9861 15.1834 34.9814 15.1964 34.9755Z" fill="black"/>
<path d="M15.4662 18.2934L15.4342 18.3017C11.9926 19.2218 8.42313 17.158 7.50298 13.7163L7.47105 13.5957C6.5509 10.154 8.61473 6.58453 12.0564 5.66438L12.0884 5.6561C15.53 4.73595 19.0995 6.79979 20.0196 10.2415L20.0516 10.3621C20.9717 13.8038 18.9079 17.3732 15.4662 18.2934Z" fill="white"/>
<path d="M13.7725 19.3685C12.4975 19.3685 11.2368 19.0326 10.099 18.375C8.3959 17.391 7.18007 15.8085 6.67505 13.9198L6.6514 13.831C6.14638 11.9423 6.41013 9.96476 7.39533 8.26166C8.37934 6.55855 9.96181 5.34272 11.8506 4.83771C15.7606 3.79101 19.7972 6.12331 20.8428 10.0369L20.8664 10.1256C21.9131 14.0392 19.5808 18.0734 15.6672 19.119C15.0427 19.2857 14.4064 19.3685 13.7725 19.3685ZM15.4496 18.297H15.4531H15.4496ZM13.7465 6.28889C13.2651 6.28889 12.7767 6.35039 12.2906 6.48049C10.8406 6.86842 9.62474 7.80276 8.8678 9.11321C8.11087 10.4225 7.90744 11.9423 8.29419 13.3923L8.31784 13.481C8.70577 14.931 9.64011 16.1468 10.9494 16.9037C12.2586 17.6607 13.7784 17.8641 15.2284 17.4762C18.2349 16.6719 20.0279 13.572 19.2236 10.5656L19.2 10.4769C18.527 7.95533 16.2396 6.28889 13.7465 6.28889Z" fill="black"/>
<path d="M29.1287 14.641L28.6071 14.7805C25.2991 15.6652 21.8704 13.6818 20.9857 10.3749L20.8225 9.76464C19.9379 6.45659 21.9213 3.02791 25.2281 2.14324L25.7497 2.00368C29.0578 1.11901 32.4864 3.10242 33.3711 6.40928L33.5343 7.01956C34.419 10.3264 32.4368 13.7563 29.1287 14.641Z" fill="white"/>
<path d="M27.1922 15.7813C23.948 15.7813 20.9723 13.6122 20.0948 10.3326L20.0711 10.2439C19.0244 6.33027 21.3567 2.29604 25.2703 1.25052C27.1579 0.745503 29.1366 1.00925 30.8397 1.99445C32.5428 2.97846 33.7586 4.56093 34.2636 6.44972L34.2873 6.53843C34.7923 8.42722 34.5286 10.4047 33.5434 12.1078C32.5594 13.8109 30.9769 15.0268 29.0881 15.5318C28.4553 15.6997 27.8179 15.7813 27.1922 15.7813ZM27.1626 2.70171C26.6777 2.70171 26.1893 2.76558 25.7091 2.89331C22.7026 3.69755 20.9108 6.79744 21.7139 9.8039L21.7375 9.8926C22.5418 12.9002 25.6417 14.692 28.6481 13.889C30.097 13.5011 31.3128 12.5667 32.0697 11.2574C32.8267 9.94819 33.0301 8.4284 32.6433 6.9784L32.6197 6.88969C32.2317 5.43969 31.2974 4.22386 29.9881 3.46692C29.1129 2.95954 28.1431 2.70171 27.1626 2.70171Z" fill="black"/>
<path d="M28.7824 11.5184C28.6086 11.5184 28.4312 11.4806 28.2632 11.4013L24.7624 9.75262C24.4206 9.59177 24.1734 9.2819 24.0906 8.91408C24.0078 8.54626 24.1012 8.16069 24.3413 7.86974L26.6464 5.08446C27.0758 4.56525 27.8457 4.4931 28.3649 4.92243C28.8841 5.35293 28.9575 6.1217 28.527 6.64091L27.2248 8.21391L29.3016 9.19202C29.9119 9.47942 30.1733 10.2068 29.8859 10.8171C29.6789 11.2594 29.2401 11.5184 28.7824 11.5184Z" fill="black"/>
<path d="M13.3393 15.6615C13.0992 15.6615 12.8555 15.5905 12.6426 15.4427C12.0891 15.0571 11.9531 14.2967 12.3387 13.7431L13.6503 11.8591L11.7379 11.1459C11.1063 10.9106 10.7846 10.2068 11.02 9.57527C11.2553 8.9437 11.959 8.62201 12.5906 8.85737L15.9779 10.1205C16.3315 10.2518 16.6047 10.5404 16.7171 10.8999C16.8294 11.2595 16.7691 11.6521 16.5539 11.962L14.3422 15.1376C14.1045 15.4782 13.7248 15.6615 13.3393 15.6615Z" fill="black"/>
<path d="M23.2452 25.0352C21.289 25.0352 19.4936 23.7283 18.965 21.7508C18.8266 21.2375 19.1317 20.7088 19.645 20.5716C20.1571 20.4333 20.687 20.7384 20.8242 21.2529C21.1814 22.587 22.5569 23.3806 23.8922 23.0246C24.5379 22.8519 25.0784 22.4368 25.4131 21.8573C25.7478 21.2777 25.8365 20.6024 25.6639 19.9566C25.5255 19.4433 25.8306 18.9147 26.3439 18.7775C26.856 18.6391 27.3859 18.9442 27.5231 19.4587C27.8294 20.6024 27.6721 21.7958 27.0807 22.8212C26.4894 23.8466 25.5338 24.5787 24.3901 24.8862C24.0092 24.9867 23.6237 25.0352 23.2452 25.0352Z" fill="black"/>
</svg>
