<svg width="32" height="32" viewBox="0 0 32 32" fill="none" xmlns="http://www.w3.org/2000/svg">
<g clip-path="url(#clip0_969:12546)">
<path fill-rule="evenodd" clip-rule="evenodd" d="M6 4H15.6288C18.9096 4.00422 22.0547 5.30958 24.3743 7.62971C26.6939 9.94985 27.9984 13.0953 28.0018 16.376V25.9999H25.2512V16.376C25.2487 13.8238 24.2338 11.3769 22.4292 9.57205C20.6247 7.76722 18.1778 6.75194 15.6256 6.74899H6V4ZM15.6288 7.66655H6V10.4171H15.6256C17.2055 10.4188 18.7203 11.0472 19.8375 12.1644C20.9547 13.2815 21.5831 14.7963 21.5848 16.3762V26H24.3354V16.3762C24.3329 14.0676 23.4148 11.8542 21.7827 10.2215C20.1505 8.58873 17.9374 7.66992 15.6288 7.66655ZM15.6288 11.3328H6V14.0834H11.9129C11.8066 14.6002 11.5255 15.0646 11.1169 15.3985C10.7083 15.7324 10.1973 15.9153 9.66963 15.9166H6V18.6608H9.66963C10.9271 18.6594 12.1388 18.1887 13.0675 17.3409C13.9962 16.4931 14.575 15.3292 14.6906 14.077H15.6096C15.4944 15.5741 14.8188 16.9727 13.7178 17.9936C12.6167 19.0144 11.1712 19.5826 9.66963 19.5846H6V22.3304H9.66963C11.4921 22.328 13.268 21.755 14.748 20.6916C16.228 19.6282 17.3378 18.128 17.9215 16.4016V18.5651C17.0681 19.9925 15.8593 21.1743 14.4132 21.9956C12.967 22.8168 11.3327 23.2493 9.66963 23.251H6V26H9.66963C12.7163 26.0021 15.6558 24.8762 17.9215 22.8393V26H20.6785V16.3761C20.6772 15.0378 20.1446 13.7548 19.1977 12.8091C18.2508 11.8634 16.9671 11.3324 15.6288 11.3328Z" fill="#F5333F"/>
</g>
<defs>
<clipPath id="clip0_969:12546">
<rect width="32" height="32" fill="white"/>
</clipPath>
</defs>
</svg>
