<svg width="40" height="40" viewBox="0 0 40 40" fill="none" xmlns="http://www.w3.org/2000/svg">
<path d="M18.6679 3.31379L8.29981 11.4647C6.85193 12.6039 6 14.3857 6 16.2762V35.6449C6 36.5158 6.97654 36.9905 7.61583 36.4291L19.9993 25.5581L32.3828 36.4291C33.0221 36.9905 33.9987 36.5172 33.9987 35.6449V16.2762C33.9987 14.3843 33.1467 12.6025 31.6989 11.4647L21.3307 3.31379C20.5425 2.69326 19.4562 2.69326 18.6679 3.31379Z" fill="#00E5E5"/>
<path d="M31.7 11.4651L21.3319 3.31422C20.5436 2.69506 19.4574 2.69506 18.6691 3.31422L8.30097 11.4651C7.53572 12.0677 6.94248 12.852 6.54834 13.7353L29.3541 33.7699L32.384 36.4295C33.0233 36.9909 33.9998 36.5176 33.9998 35.6453V16.2766C33.9998 14.3848 33.1492 12.6043 31.7 11.4651Z" fill="#006EFF"/>
</svg>
