<svg width="40" height="40" viewBox="0 0 40 40" fill="none" xmlns="http://www.w3.org/2000/svg">
<path d="M31.0172 18.225L26.7576 36.4689C26.6854 36.7541 26.9123 37.0291 27.2114 37.0291H35.7203C36.0194 37.0291 36.2463 36.7541 36.1741 36.4689L31.9145 18.225C31.8114 17.7463 31.1203 17.7463 31.0172 18.225Z" fill="#00E5E5"/>
<path d="M7.45072 25.1415L4.8104 36.4687C4.74852 36.754 4.96511 37.029 5.26421 37.029H10.5448C10.8439 37.029 11.0605 36.754 10.9986 36.4687L8.35832 25.1415C8.25519 24.6729 7.56417 24.6729 7.45072 25.1415Z" fill="#00E5E5"/>
<path d="M13.2575 11.3085L7.38899 36.4791C7.31679 36.7643 7.54369 37.0394 7.84279 37.0394H19.5695C19.8686 37.0394 20.0955 36.7643 20.0233 36.4791L14.1548 11.3085C14.0517 10.8298 13.3709 10.8298 13.2575 11.3085Z" fill="#006EFF"/>
<path d="M23.107 0.92865L14.8148 36.4791C14.7426 36.7644 14.9695 37.0394 15.2686 37.0394H31.8427C32.1418 37.0394 32.3687 36.7644 32.2965 36.4791L24.0043 0.92865C23.9012 0.44989 23.2204 0.44989 23.107 0.92865Z" fill="#006EFF"/>
<path d="M17.62 14.7619L12.556 36.4793C12.4838 36.7645 12.7107 37.0395 13.0098 37.0395H23.1275C23.4266 37.0395 23.6535 36.7645 23.5813 36.4793L18.5173 14.7619C18.4142 14.2831 17.7335 14.2831 17.62 14.7619Z" fill="#00E5E5"/>
</svg>
