<svg width="32" height="32" viewBox="0 0 32 32" fill="none" xmlns="http://www.w3.org/2000/svg">
<path d="M24.4854 9.43138C19.7992 4.85621 12.2008 4.85621 7.51465 9.43138C2.82845 14.0065 2.82845 21.4248 7.51465 26L10.6714 22.918C10.0226 22.2846 9.49506 21.5328 9.11642 20.7021C11.3138 20.1414 13.6197 19.8382 16 19.8382C18.3782 19.8382 20.6819 20.1455 22.8815 20.7063C22.5028 21.5349 21.9774 22.2846 21.3286 22.918L24.4854 26C29.1715 21.4248 29.1715 14.0065 24.4854 9.43138ZM8.61866 16.2287C9.32276 12.8788 12.3604 10.3597 16 10.3597C19.6375 10.3597 22.673 12.8768 23.3792 16.2246C18.5314 15.0969 13.4665 15.101 8.61866 16.2287Z" fill="#FFCC32"/>
</svg>
