<svg width="32" height="32" viewBox="0 0 32 32" fill="none" xmlns="http://www.w3.org/2000/svg">
<path fill-rule="evenodd" clip-rule="evenodd" d="M2.22884 7.85415C0.595987 10.6146 -0.169577 13.8021 0.0314764 17.003L0.0297856 16.9278C0.0966946 17.7821 0.432533 18.5943 0.990568 19.2471C1.57334 19.9289 2.3656 20.3983 3.24347 20.582C5.29127 20.9128 7.18463 21.8749 8.65919 23.3338C10.1338 24.7928 11.1159 26.6758 11.4685 28.72C11.646 29.6264 12.127 30.4452 12.8324 31.0415C13.5377 31.6377 14.4252 31.9758 15.3485 32H16.0005C19.2077 31.9999 22.3409 31.0359 24.9935 29.2332C27.6461 27.4304 29.6957 24.872 30.8764 21.89C32.057 18.908 32.3143 15.64 31.6147 12.51C30.9151 9.38002 29.2911 6.5325 26.9532 4.33691C24.6153 2.14133 21.6715 0.699023 18.5038 0.197132C15.3361 -0.304758 12.0906 0.156931 9.18854 1.5223C6.28646 2.88767 3.86169 5.09369 2.22884 7.85415ZM22.237 17.8585C20.2307 19.9296 17.6801 21.3918 14.879 22.0765C14.2105 22.2359 13.5064 22.134 12.9105 21.7917C12.3146 21.4493 11.872 20.8923 11.673 20.2345C10.8862 17.4711 10.8862 14.5429 11.673 11.7795C11.8666 11.1208 12.3071 10.5623 12.9027 10.2208C13.4982 9.87921 14.2027 9.78094 14.869 9.94651C17.6753 10.6345 20.2296 12.1024 22.237 14.1805C22.7053 14.6783 22.966 15.336 22.966 16.0195C22.966 16.703 22.7053 17.3607 22.237 17.8585Z" fill="url(#paint0_linear_715:16931)"/>
<defs>
<linearGradient id="paint0_linear_715:16931" x1="16" y1="0" x2="16" y2="32" gradientUnits="userSpaceOnUse">
<stop stop-color="#FA5050"/>
<stop offset="1" stop-color="#FB0414"/>
</linearGradient>
</defs>
</svg>
