<svg width="34" height="39" viewBox="0 0 34 39" fill="none" xmlns="http://www.w3.org/2000/svg">
<path d="M27.5976 19.1841L23.1138 38.3881C23.0378 38.6884 23.2767 38.9779 23.5915 38.9779H32.5482C32.863 38.9779 33.1018 38.6884 33.0258 38.3881L28.5421 19.1841C28.4335 18.6802 27.7061 18.6802 27.5976 19.1841Z" fill="#00E5E5"/>
<path d="M2.79044 26.4649L0.0111575 38.3883C-0.0539818 38.6886 0.174006 38.9781 0.488846 38.9781H6.0474C6.36224 38.9781 6.59023 38.6886 6.52509 38.3883L3.74581 26.4649C3.63725 25.9717 2.90986 25.9717 2.79044 26.4649Z" fill="#00E5E5"/>
<path d="M8.90301 11.9038L2.72564 38.3992C2.64964 38.6994 2.88848 38.9889 3.20332 38.9889H15.5472C15.8621 38.9889 16.1009 38.6994 16.0249 38.3992L9.84753 11.9038C9.73897 11.3999 9.02244 11.3999 8.90301 11.9038Z" fill="#006EFF"/>
<path d="M19.2707 0.977578L10.542 38.3992C10.466 38.6994 10.7049 38.9889 11.0197 38.9889H28.4662C28.781 38.9889 29.0199 38.6994 28.9439 38.3992L20.2152 0.977578C20.1067 0.47362 19.3901 0.47362 19.2707 0.977578Z" fill="#006EFF"/>
<path d="M13.4952 15.5389L8.1646 38.3993C8.0886 38.6995 8.32745 38.989 8.64229 38.989H19.2926C19.6074 38.989 19.8462 38.6995 19.7702 38.3993L14.4397 15.5389C14.3311 15.0349 13.6146 15.0349 13.4952 15.5389Z" fill="#00E5E5"/>
</svg>
