<svg width="48" height="48" viewBox="0 0 48 48" fill="none" xmlns="http://www.w3.org/2000/svg" stroke="currentColor" stroke-width="4">
<path d="M5.93108 13.0012C4.85842 13.0375 4 13.9185 4 15V33C4 34.1046 4.89543 35 6 35H13.3696L22.8531 41.6385C23.464 42.0661 24.2622 42.1184 24.9236 41.774C25.5851 41.4296 26 40.7458 26 40V33.0701L5.93108 13.0012Z" fill="currentColor" stroke="none" stroke-width="none" stroke-linecap="butt"></path>
<path d="M35.2708 28.1987L31.9586 24.8865C32.1781 22.7317 31.5251 20.5047 29.9996 18.7787C29.8167 18.5718 29.8151 18.2559 30.0104 18.0607L32.1317 15.9393C32.327 15.7441 32.6448 15.7438 32.8319 15.9469C35.9572 19.3396 36.7702 24.0964 35.2708 28.1987Z" fill="currentColor" stroke="none" stroke-width="none" stroke-linecap="butt"></path>
<path d="M41.1308 34.0588L38.194 31.1219C41.264 25.2326 40.4202 17.8335 35.6627 12.774C35.4735 12.5728 35.4721 12.2559 35.6674 12.0607L37.7887 9.93935C37.984 9.74408 38.3021 9.74472 38.4925 9.94473C44.8144 16.5857 45.6939 26.5056 41.1308 34.0588Z" fill="currentColor" stroke="none" stroke-width="none" stroke-linecap="butt"></path>
<path d="M26 18.928L17.3122 10.2402L22.8531 6.36154C23.464 5.93388 24.2622 5.88165 24.9236 6.22605C25.5851 6.57044 26 7.25425 26 8.00001V18.928Z" fill="currentColor" stroke="none" stroke-width="none" stroke-linecap="butt"></path>
<path fill-rule="evenodd" clip-rule="evenodd" d="M7.01202 4.18359L42.2841 39.4557L39.4557 42.2841L4.18359 7.01202L7.01202 4.18359Z" fill="currentColor" stroke="none" stroke-width="none" stroke-linecap="butt"></path>
</svg>