<svg width="48" height="48" viewBox="0 0 48 48" fill="none" xmlns="http://www.w3.org/2000/svg" stroke="currentColor" stroke-width="4">
<path fill-rule="evenodd" clip-rule="evenodd" d="M24 44C35.0457 44 44 35.0457 44 24C44 12.9543 35.0457 4 24 4C12.9543 4 4 12.9543 4 24C4 35.0457 12.9543 44 24 44ZM18 17C17.4477 17 17 17.4477 17 18V30C17 30.5523 17.4477 31 18 31H21C21.5523 31 22 30.5523 22 30V18C22 17.4477 21.5523 17 21 17H18ZM27 17C26.4477 17 26 17.4477 26 18V30C26 30.5523 26.4477 31 27 31H30C30.5523 31 31 30.5523 31 30V18C31 17.4477 30.5523 17 30 17H27Z" fill="currentColor" stroke="none" stroke-width="none" stroke-linecap="butt"></path>
</svg>