<svg width="48" height="48" viewBox="0 0 48 48" fill="none" xmlns="http://www.w3.org/2000/svg" stroke="currentColor" stroke-width="4">
<path d="M14 15L24 8V40L14 33H6V15H14Z" fill="currentColor" stroke="none" stroke-width="none" stroke-linecap="butt"></path>
<path d="M24.9236 6.22605C25.5851 6.57044 26 7.25425 26 8.00001V40C26 40.7458 25.5851 41.4296 24.9236 41.774C24.2622 42.1184 23.464 42.0661 22.8531 41.6385L13.3696 35H6C4.89543 35 4 34.1046 4 33V15C4 13.8954 4.89543 13 6 13H13.3696L22.8531 6.36154C23.464 5.93388 24.2622 5.88165 24.9236 6.22605Z" fill="currentColor" stroke="none" stroke-width="none" stroke-linecap="butt"></path>
<path d="M35.3138 35.0416C41.5622 28.7932 41.5622 18.6626 35.3138 12.4142L38.1422 9.58579C45.9527 17.3963 45.9527 30.0596 38.1422 37.8701L35.3138 35.0416Z" fill="currentColor" stroke="none" stroke-width="none" stroke-linecap="butt"></path>
<path d="M29.6568 29.7279C32.781 26.6037 32.781 21.5384 29.6568 18.4142L32.4853 15.5858C37.1716 20.2721 37.1716 27.8701 32.4853 32.5564L29.6568 29.7279Z" fill="currentColor" stroke="none" stroke-width="none" stroke-linecap="butt"></path>
</svg>