<svg width="48" height="48" viewBox="0 0 48 48" fill="none" xmlns="http://www.w3.org/2000/svg" stroke="currentColor" stroke-width="4">
<path fill-rule="evenodd" clip-rule="evenodd" d="M24 44C35.0457 44 44 35.0457 44 24C44 12.9543 35.0457 4 24 4C12.9543 4 4 12.9543 4 24C4 35.0457 12.9543 44 24 44ZM28.9547 16.2287L24.005 21.1785L19.0552 16.2287C18.6647 15.8382 18.0315 15.8382 17.641 16.2287L16.2268 17.6429C15.8363 18.0335 15.8363 18.6666 16.2268 19.0571L21.1765 24.0069L16.2268 28.9566C15.8363 29.3472 15.8363 29.9803 16.2268 30.3708L17.641 31.7851C18.0315 32.1756 18.6647 32.1756 19.0552 31.7851L24.005 26.8353L28.9547 31.7851C29.3452 32.1756 29.9784 32.1756 30.3689 31.7851L31.7831 30.3708C32.1737 29.9803 32.1737 29.3472 31.7831 28.9566L26.8334 24.0069L31.7831 19.0571C32.1737 18.6666 32.1737 18.0335 31.7831 17.6429L30.3689 16.2287C29.9784 15.8382 29.3452 15.8382 28.9547 16.2287Z" fill="currentColor" stroke="none" stroke-width="none" stroke-linecap="butt"></path>
</svg>