<svg width="48" height="48" viewBox="0 0 48 48" fill="none" xmlns="http://www.w3.org/2000/svg" stroke="currentColor" stroke-width="4">
<path fill-rule="evenodd" clip-rule="evenodd" d="M15.5535 4C15.2717 4 15.0031 4.11885 14.8135 4.32733L4.26006 15.9362C4.09272 16.1202 4 16.3601 4 16.6088V31.3912C4 31.6399 4.09272 31.8798 4.26006 32.0638L14.8135 43.6727C15.0031 43.8811 15.2717 44 15.5535 44H32.4465C32.7283 44 32.9969 43.8811 33.1865 43.6727L43.7399 32.0638C43.9073 31.8798 44 31.6399 44 31.3912V16.6088C44 16.3601 43.9073 16.1202 43.7399 15.9362L33.1865 4.32733C32.9969 4.11885 32.7283 4 32.4465 4H15.5535ZM22 33C22 33.5523 22.4477 34 23 34H25C25.5523 34 26 33.5523 26 33V31C26 30.4477 25.5523 30 25 30H23C22.4477 30 22 30.4477 22 31V33ZM26 15C26 14.4477 25.5523 14 25 14H23C22.4477 14 22 14.4477 22 15L22 27C22 27.5523 22.4477 28 23 28H25C25.5523 28 26 27.5523 26 27L26 15Z" fill="currentColor" stroke="none" stroke-width="none" stroke-linecap="butt"></path>
</svg>