<svg width="48" height="48" viewBox="0 0 48 48" fill="none" xmlns="http://www.w3.org/2000/svg" stroke="currentColor" stroke-width="4">
<path fill-rule="evenodd" clip-rule="evenodd" d="M24 44C35.0457 44 44 35.0457 44 24C44 12.9543 35.0457 4 24 4C12.9543 4 4 12.9543 4 24C4 35.0457 12.9543 44 24 44ZM22 33C22 33.5523 22.4477 34 23 34H25C25.5523 34 26 33.5523 26 33V31C26 30.4477 25.5523 30 25 30H23C22.4477 30 22 30.4477 22 31V33ZM26 15C26 14.4477 25.5523 14 25 14H23C22.4477 14 22 14.4477 22 15L22 27C22 27.5523 22.4477 28 23 28H25C25.5523 28 26 27.5523 26 27L26 15Z" fill="currentColor" stroke="none" stroke-width="none" stroke-linecap="butt"></path>
</svg>