<svg width="48" height="48" viewBox="0 0 48 48" fill="none" xmlns="http://www.w3.org/2000/svg" stroke="currentColor" stroke-width="4">
<path fill-rule="evenodd" clip-rule="evenodd" d="M24 44C35.0457 44 44 35.0457 44 24C44 12.9543 35.0457 4 24 4C12.9543 4 4 12.9543 4 24C4 35.0457 12.9543 44 24 44ZM26 14C26 13.4477 25.5523 13 25 13H23C22.4477 13 22 13.4477 22 14V16C22 16.5523 22.4477 17 23 17H25C25.5523 17 26 16.5523 26 16V14ZM26 31H27C27.5523 31 28 31.4477 28 32V34C28 34.5523 27.5523 35 27 35H21C20.4477 35 20 34.5523 20 34V32C20 31.4477 20.4477 31 21 31H22V23C21.4477 23 21 22.5523 21 22V20C21 19.4477 21.4477 19 22 19H25C25.5523 19 26 19.4477 26 20V31Z" fill="currentColor" stroke="none" stroke-width="none" stroke-linecap="butt"></path>
</svg>