<svg width="48" height="48" viewBox="0 0 48 48" fill="none" xmlns="http://www.w3.org/2000/svg" stroke="currentColor" stroke-width="4">
<path fill-rule="evenodd" clip-rule="evenodd" d="M24 44C35.0457 44 44 35.0457 44 24C44 12.9543 35.0457 4 24 4C12.9543 4 4 12.9543 4 24C4 35.0457 12.9543 44 24 44ZM25.9999 16V22H31.9997C32.552 22 32.9998 22.4478 32.9997 23.0002L32.9994 25.0002C32.9993 25.5524 32.5516 26 31.9994 26H25.9999V32C25.9999 32.5523 25.5522 33 24.9999 33H22.9999C22.4476 33 21.9999 32.5523 21.9999 32V26H16.0002C15.4478 26 15.0001 25.5522 15.0002 24.9998L15.0005 22.9998C15.0005 22.4476 15.4482 22 16.0005 22H21.9999V16C21.9999 15.4477 22.4476 15 22.9999 15H24.9999C25.5522 15 25.9999 15.4477 25.9999 16Z" fill="currentColor" stroke="none" stroke-width="none" stroke-linecap="butt"></path>
</svg>