<svg width="48" height="48" viewBox="0 0 48 48" fill="none" xmlns="http://www.w3.org/2000/svg" stroke="currentColor" stroke-width="4">
<path fill-rule="evenodd" clip-rule="evenodd" d="M24 44C35.0457 44 44 35.0457 44 24C44 12.9543 35.0457 4 24 4C12.9543 4 4 12.9543 4 24C4 35.0457 12.9543 44 24 44ZM20.1384 19.9786C20.3931 19.9786 20.5996 19.7721 20.5996 19.5174C20.602 18.9687 20.7983 18.36 21.2361 17.9024C21.6405 17.4798 22.4286 17 23.9881 17C25.4525 17 26.4709 17.6992 26.9902 18.493C27.5448 19.3406 27.4355 20.0519 27.1723 20.4073C26.844 20.8505 26.4364 21.2598 25.9438 21.7032C25.794 21.8381 25.6093 21.9989 25.4112 22.1712C25.057 22.4794 24.6602 22.8247 24.3438 23.1258C23.2203 24.1948 22 25.6868 22 28L22 28.0129C22.0036 28.5651 22.4542 29.01 23.0064 29.0064L25.0138 28.9935C25.562 28.99 26.0035 28.5427 26 27.9945C26.0015 27.3105 26.2819 26.8031 27.1011 26.0236C27.3765 25.7616 27.624 25.5474 27.9072 25.3024C28.1167 25.1212 28.3458 24.923 28.6201 24.6761C29.1904 24.1626 29.8251 23.5461 30.3866 22.7881C31.9028 20.7412 31.5482 18.1536 30.3375 16.303C29.0915 14.3985 26.8244 13 23.9881 13C21.5336 13 19.6307 13.7943 18.3459 15.1371C17.0953 16.4442 16.6042 18.0911 16.5996 19.5073C16.5996 19.7676 16.8106 19.9786 17.0709 19.9786H20.1384ZM22.0064 34.0078C22.0064 34.5601 22.4541 35.0078 23.0064 35.0078H25.0064C25.5587 35.0078 26.0064 34.5601 26.0064 34.0078V32C26.0064 31.4477 25.5587 31 25.0064 31H23.0064C22.4541 31 22.0064 31.4477 22.0064 32V34.0078Z" fill="currentColor" stroke="none" stroke-width="none" stroke-linecap="butt"></path>
</svg>