<svg width="386" height="38" viewBox="0 0 386 38" fill="none" xmlns="http://www.w3.org/2000/svg">
<rect x="1.5" y="1.75" width="58.8958" height="34.9375" rx="17.4688" stroke="#3491FA"/>
<circle cx="42.9274" cy="19.2187" r="11.4792" stroke="#3491FA"/>
<mask id="path-7-inside-1" fill="white">
<rect x="41.4297" y="14.7266" width="2.99479" height="8.98438" rx="0.748698"/>
</mask>
<rect x="41.4297" y="14.7266" width="2.99479" height="8.98438" rx="0.748698" stroke="#3491FA" stroke-width="2.99479" mask="url(#path-7-inside-1)"/>
<path d="M30.9482 7.23956V6.58956H30.2982V7.23956H30.9482ZM54.9066 7.23956H55.5566V6.58956H54.9066V7.23956ZM54.9066 31.1979V31.8479H55.5566V31.1979H54.9066ZM30.9482 31.1979H30.2982V31.8479H30.9482V31.1979ZM30.2982 7.23956V13.2291H31.5982V7.23956H30.2982ZM30.2982 25.2083V31.1979H31.5982V25.2083H30.2982ZM30.9482 31.8479H36.9378V30.5479H30.9482V31.8479ZM48.917 31.8479H54.9066V30.5479H48.917V31.8479ZM55.5566 31.1979V25.2083H54.2566V31.1979H55.5566ZM55.5566 13.2291V7.23956H54.2566V13.2291H55.5566ZM54.9066 6.58956H48.917V7.88956H54.9066V6.58956ZM36.9378 6.58956H30.9482V7.88956H36.9378V6.58956Z" fill="#3491FA"/>
<path d="M1 1.25V0.782522H0.532522V1.25H1ZM60.8958 1.25H61.3633V0.782522H60.8958V1.25ZM60.8958 37.1875V37.655H61.3633V37.1875H60.8958ZM1 37.1875H0.532522V37.655H1V37.1875ZM0.532522 1.25V6.96733H1.46748V1.25H0.532522ZM0.532522 13.5014V24.9361H1.46748V13.5014H0.532522ZM0.532522 31.4702V37.1875H1.46748V31.4702H0.532522ZM1 37.655H5.76444V36.72H1V37.655ZM11.2095 37.655H20.7384V36.72H11.2095V37.655ZM26.1835 37.655H35.7124V36.72H26.1835V37.655ZM41.1574 37.655H50.6863V36.72H41.1574V37.655ZM56.1314 37.655H60.8958V36.72H56.1314V37.655ZM61.3633 37.1875V31.4702H60.4284V37.1875H61.3633ZM61.3633 24.9361V13.5014H60.4284V24.9361H61.3633ZM61.3633 6.96733V1.25H60.4284V6.96733H61.3633ZM60.8958 0.782522H56.1314V1.71748H60.8958V0.782522ZM50.6863 0.782522H41.1574V1.71748H50.6863V0.782522ZM35.7124 0.782522H26.1835V1.71748H35.7124V0.782522ZM20.7384 0.782522H11.2095V1.71748H20.7384V0.782522ZM5.76444 0.782522H1V1.71748H5.76444V0.782522Z" fill="#3491FA"/>
<rect x="101.396" y="1.75" width="58.8958" height="34.9375" rx="17.4688" stroke="#3491FA"/>
<g filter="url(#filter0_d)">
<circle cx="118.864" cy="19.2187" r="11.4792" stroke="#3491FA"/>
</g>
<circle cx="118.864" cy="19.2188" r="3.99219" stroke="#3491FA"/>
<path d="M106.885 7.23956V6.58956H106.235V7.23956H106.885ZM130.843 7.23956H131.493V6.58956H130.843V7.23956ZM130.843 31.1979V31.8479H131.493V31.1979H130.843ZM106.885 31.1979H106.235V31.8479H106.885V31.1979ZM106.235 7.23956V13.2291H107.535V7.23956H106.235ZM106.235 25.2083V31.1979H107.535V25.2083H106.235ZM106.885 31.8479H112.874V30.5479H106.885V31.8479ZM124.854 31.8479H130.843V30.5479H124.854V31.8479ZM131.493 31.1979V25.2083H130.193V31.1979H131.493ZM131.493 13.2291V7.23956H130.193V13.2291H131.493ZM130.843 6.58956H124.854V7.88956H130.843V6.58956ZM112.874 6.58956H106.885V7.88956H112.874V6.58956Z" fill="#3491FA"/>
<path d="M100.896 1.25V0.782522H100.428V1.25H100.896ZM160.791 1.25H161.259V0.782522H160.791V1.25ZM160.791 37.1875V37.655H161.259V37.1875H160.791ZM100.896 37.1875H100.428V37.655H100.896V37.1875ZM100.428 1.25V6.96733H101.363V1.25H100.428ZM100.428 13.5014V24.9361H101.363V13.5014H100.428ZM100.428 31.4702V37.1875H101.363V31.4702H100.428ZM100.896 37.655H105.66V36.72H100.896V37.655ZM111.105 37.655H120.634V36.72H111.105V37.655ZM126.079 37.655H135.608V36.72H126.079V37.655ZM141.053 37.655H150.582V36.72H141.053V37.655ZM156.027 37.655H160.791V36.72H156.027V37.655ZM161.259 37.1875V31.4702H160.324V37.1875H161.259ZM161.259 24.9361V13.5014H160.324V24.9361H161.259ZM161.259 6.96733V1.25H160.324V6.96733H161.259ZM160.791 0.782522H156.027V1.71748H160.791V0.782522ZM150.582 0.782522H141.053V1.71748H150.582V0.782522ZM135.608 0.782522H126.079V1.71748H135.608V0.782522ZM120.634 0.782522H111.105V1.71748H120.634V0.782522ZM105.66 0.782522H100.896V1.71748H105.66V0.782522Z" fill="#3491FA"/>
<rect x="212.771" y="13.9779" width="53.9063" height="7.48698" rx="3.74349" stroke="#3491FA" stroke-width="1.4974"/>
<circle cx="250.954" cy="17.7213" r="15.474" stroke="#3491FA"/>
<path d="M212.022 1.25V0.782522H211.555V1.25H212.022ZM267.426 1.25H267.894V0.782522H267.426V1.25ZM267.426 34.1927V34.6602H267.894V34.1927H267.426ZM212.022 34.1927H211.555V34.6602H212.022V34.1927ZM211.555 1.25V6.49089H212.49V1.25H211.555ZM211.555 12.4805V22.9622H212.49V12.4805H211.555ZM211.555 28.9518V34.1927H212.49V28.9518H211.555ZM212.022 34.6602H216.43V33.7252H212.022V34.6602ZM221.466 34.6602H230.28V33.7252H221.466V34.6602ZM235.317 34.6602H244.131V33.7252H235.317V34.6602ZM249.168 34.6602H257.982V33.7252H249.168V34.6602ZM263.019 34.6602H267.426V33.7252H263.019V34.6602ZM267.894 34.1927V28.9518H266.959V34.1927H267.894ZM267.894 22.9622V12.4805H266.959V22.9622H267.894ZM267.894 6.49088V1.25H266.959V6.49088H267.894ZM267.426 0.782522H263.019V1.71748H267.426V0.782522ZM257.982 0.782522H249.168V1.71748H257.982V0.782522ZM244.131 0.782522H235.317V1.71748H244.131V0.782522ZM230.28 0.782522H221.466V1.71748H230.28V0.782522ZM216.43 0.782522H212.022V1.71748H216.43V0.782522Z" fill="#3491FA"/>
<rect x="330.635" y="13.9779" width="53.9063" height="7.48698" rx="3.74349" stroke="#3491FA" stroke-width="1.4974"/>
<circle cx="346.358" cy="17.7213" r="15.474" stroke="#3491FA"/>
<path d="M329.887 1.25V0.782522H329.419V1.25H329.887ZM385.29 1.25H385.758V0.782522H385.29V1.25ZM385.29 34.1927V34.6602H385.758V34.1927H385.29ZM329.887 34.1927H329.419V34.6602H329.887V34.1927ZM329.419 1.25V6.49089H330.354V1.25H329.419ZM329.419 12.4805V22.9622H330.354V12.4805H329.419ZM329.419 28.9518V34.1927H330.354V28.9518H329.419ZM329.887 34.6602H334.294V33.7252H329.887V34.6602ZM339.331 34.6602H348.145V33.7252H339.331V34.6602ZM353.181 34.6602H361.996V33.7252H353.181V34.6602ZM367.032 34.6602H375.847V33.7252H367.032V34.6602ZM380.883 34.6602H385.29V33.7252H380.883V34.6602ZM385.758 34.1927V28.9518H384.823V34.1927H385.758ZM385.758 22.9622V12.4805H384.823V22.9622H385.758ZM385.758 6.49088V1.25H384.823V6.49088H385.758ZM385.29 0.782522H380.883V1.71748H385.29V0.782522ZM375.847 0.782522H367.032V1.71748H375.847V0.782522ZM361.996 0.782522H353.181V1.71748H361.996V0.782522ZM348.145 0.782522H339.331V1.71748H348.145V0.782522ZM334.294 0.782522H329.887V1.71748H334.294V0.782522Z" fill="#3491FA"/>
<defs>
<filter id="filter0_d" x="102.393" y="4.24477" width="32.9427" height="32.9427" filterUnits="userSpaceOnUse" color-interpolation-filters="sRGB">
<feFlood flood-opacity="0" result="BackgroundImageFix"/>
<feColorMatrix in="SourceAlpha" type="matrix" values="0 0 0 0 0 0 0 0 0 0 0 0 0 0 0 0 0 0 127 0"/>
<feOffset dy="1.4974"/>
<feGaussianBlur stdDeviation="2.24609"/>
<feColorMatrix type="matrix" values="0 0 0 0 0 0 0 0 0 0 0 0 0 0 0 0 0 0 0.1 0"/>
<feBlend mode="normal" in2="BackgroundImageFix" result="effect1_dropShadow"/>
<feBlend mode="normal" in="SourceGraphic" in2="effect1_dropShadow" result="shape"/>
</filter>
</defs>
</svg>
