<svg width="116" height="105" viewBox="0 0 116 105" fill="none" xmlns="http://www.w3.org/2000/svg">
<circle cx="52.521" cy="52.3125" r="50.4678" stroke="#3491FA" stroke-width="1.06435"/>
<path d="M78.0225 26.8126H27.0225V77.8126H78.0225V26.8126Z" stroke="#3491FA" stroke-width="1.38365" stroke-dasharray="8 8"/>
<path d="M58.8975 54.4376C64.7655 54.4376 71.6475 58.9911 71.6475 67.1876V73.5626C71.6475 74.7362 70.6961 75.6876 69.5225 75.6876H35.5225C34.3489 75.6876 33.3975 74.7362 33.3975 73.5626V67.1876C33.3975 58.998 40.2794 54.4376 46.1475 54.4376H58.8975ZM52.5225 30.0001C58.3905 30.0001 63.1475 34.757 63.1475 40.6251C63.1475 46.4931 58.3905 51.2501 52.5225 51.2501C46.6544 51.2501 41.8975 46.4931 41.8975 40.6251C41.8975 34.757 46.6544 30.0001 52.5225 30.0001Z" stroke="#3491FA" stroke-width="1.06435"/>
<rect x="1.521" y="1.3125" width="102" height="102" stroke="#3491FA" stroke-width="1.38365" stroke-dasharray="8 8"/>
<rect x="72.5322" y="1.53217" width="41.9357" height="30.9357" rx="15.4053" stroke="#3491FA" stroke-width="1.06435"/>
<rect x="71.8926" y="1.28467" width="42.5406" height="31.9304" stroke="#3491FA" stroke-width="1.38365" stroke-dasharray="8 8"/>
<rect x="1.521" y="1.3125" width="113.156" height="102" stroke="#3491FA" stroke-width="1.38365" stroke-dasharray="8 8"/>
</svg>
