<svg width="397" height="38" viewBox="0 0 397 38" fill="none" xmlns="http://www.w3.org/2000/svg">
<rect x="1.5" y="1.8125" width="58.8958" height="34.9375" rx="17.4688" stroke="#3491FA"/>
<g filter="url(#filter0_d)">
<circle cx="42.9274" cy="19.2812" r="11.2305" stroke="#3491FA" stroke-width="1.4974"/>
</g>
<path d="M30.9482 7.30206V6.65206H30.2982V7.30206H30.9482ZM54.9066 7.30206H55.5566V6.65206H54.9066V7.30206ZM54.9066 31.2604V31.9104H55.5566V31.2604H54.9066ZM30.9482 31.2604H30.2982V31.9104H30.9482V31.2604ZM30.2982 7.30206V13.2916H31.5982V7.30206H30.2982ZM30.2982 25.2708V31.2604H31.5982V25.2708H30.2982ZM30.9482 31.9104H36.9378V30.6104H30.9482V31.9104ZM48.917 31.9104H54.9066V30.6104H48.917V31.9104ZM55.5566 31.2604V25.2708H54.2566V31.2604H55.5566ZM55.5566 13.2916V7.30206H54.2566V13.2916H55.5566ZM54.9066 6.65206H48.917V7.95206H54.9066V6.65206ZM36.9378 6.65206H30.9482V7.95206H36.9378V6.65206Z" fill="#3491FA"/>
<path d="M1 1.3125V0.845022H0.532522V1.3125H1ZM60.8958 1.3125H61.3633V0.845022H60.8958V1.3125ZM60.8958 37.25V37.7175H61.3633V37.25H60.8958ZM1 37.25H0.532522V37.7175H1V37.25ZM0.532522 1.3125V7.02983H1.46748V1.3125H0.532522ZM0.532522 13.5639V24.9986H1.46748V13.5639H0.532522ZM0.532522 31.5327V37.25H1.46748V31.5327H0.532522ZM1 37.7175H5.76444V36.7825H1V37.7175ZM11.2095 37.7175H20.7384V36.7825H11.2095V37.7175ZM26.1835 37.7175H35.7124V36.7825H26.1835V37.7175ZM41.1574 37.7175H50.6863V36.7825H41.1574V37.7175ZM56.1314 37.7175H60.8958V36.7825H56.1314V37.7175ZM61.3633 37.25V31.5327H60.4284V37.25H61.3633ZM61.3633 24.9986V13.5639H60.4284V24.9986H61.3633ZM61.3633 7.02983V1.3125H60.4284V7.02983H61.3633ZM60.8958 0.845022H56.1314V1.77998H60.8958V0.845022ZM50.6863 0.845022H41.1574V1.77998H50.6863V0.845022ZM35.7124 0.845022H26.1835V1.77998H35.7124V0.845022ZM20.7384 0.845022H11.2095V1.77998H20.7384V0.845022ZM5.76444 0.845022H1V1.77998H5.76444V0.845022Z" fill="#3491FA"/>
<rect x="101.396" y="1.8125" width="58.8958" height="34.9375" rx="17.4688" stroke="#3491FA"/>
<g filter="url(#filter1_d)">
<circle cx="118.916" cy="19.3021" r="11.2305" stroke="#3491FA" stroke-width="1.4974"/>
</g>
<path d="M106.896 7.30212V6.86804H106.461V7.30212H106.896ZM130.854 7.30212H131.288V6.86804H130.854V7.30212ZM130.854 31.2605V31.6945H131.288V31.2605H130.854ZM106.896 31.2605H106.461V31.6945H106.896V31.2605ZM106.461 7.30212V10.2969H107.33V7.30212H106.461ZM106.461 16.2865V22.2761H107.33V16.2865H106.461ZM106.461 28.2657V31.2605H107.33V28.2657H106.461ZM106.896 31.6945H109.89V30.8264H106.896V31.6945ZM115.88 31.6945H121.869V30.8264H115.88V31.6945ZM127.859 31.6945H130.854V30.8264H127.859V31.6945ZM131.288 31.2605V28.2657H130.42V31.2605H131.288ZM131.288 22.2761V16.2865H130.42V22.2761H131.288ZM131.288 10.2969V7.30212H130.42V10.2969H131.288ZM130.854 6.86804H127.859V7.73621H130.854V6.86804ZM121.869 6.86804H115.88V7.73621H121.869V6.86804ZM109.89 6.86804H106.896V7.73621H109.89V6.86804Z" fill="#3491FA"/>
<rect x="100.896" y="1.3125" width="59.8958" height="35.9375" stroke="#3491FA" stroke-width="1.4" stroke-dasharray="14 8"/>
<path d="M221.089 25.4742C219.915 25.4742 218.891 25.2107 218.017 24.6836C217.154 24.1445 216.483 23.3898 216.004 22.4195C215.537 21.4492 215.303 20.2992 215.303 18.9695C215.303 17.6398 215.537 16.4898 216.004 15.5195C216.471 14.5492 217.136 13.8005 217.999 13.2734C218.873 12.7464 219.903 12.4828 221.089 12.4828C222.287 12.4828 223.317 12.7464 224.18 13.2734C225.054 13.8005 225.725 14.5492 226.192 15.5195C226.671 16.4779 226.911 17.6219 226.911 18.9516C226.911 20.2812 226.671 21.4372 226.192 22.4195C225.713 23.3898 225.036 24.1445 224.162 24.6836C223.299 25.2107 222.275 25.4742 221.089 25.4742ZM221.089 24.1625C222.443 24.1625 223.491 23.7073 224.234 22.7969C224.976 21.8865 225.348 20.6107 225.348 18.9695C225.348 17.3284 224.976 16.0586 224.234 15.1602C223.491 14.2497 222.443 13.7945 221.089 13.7945C219.759 13.7945 218.723 14.2497 217.981 15.1602C217.238 16.0586 216.867 17.3284 216.867 18.9695C216.867 20.5987 217.238 21.8745 217.981 22.7969C218.723 23.7073 219.759 24.1625 221.089 24.1625ZM229.545 25.3125V12.6445H230.695L238.332 22.8328V12.6445H239.698V25.3125H238.584L230.929 15.0883V25.3125H229.545Z" fill="#3491FA"/>
<path d="M218.761 2.3125H260.688V0.3125H218.761V2.3125ZM260.688 36.25H218.761V38.25H260.688V36.25ZM218.761 36.25C209.389 36.25 201.792 28.6528 201.792 19.2812H199.792C199.792 29.7574 208.285 38.25 218.761 38.25V36.25ZM277.657 19.2812C277.657 28.6528 270.059 36.25 260.688 36.25V38.25C271.164 38.25 279.657 29.7574 279.657 19.2812H277.657ZM260.688 2.3125C270.059 2.3125 277.657 9.90967 277.657 19.2812H279.657C279.657 8.8051 271.164 0.3125 260.688 0.3125V2.3125ZM218.761 0.3125C208.285 0.3125 199.792 8.8051 199.792 19.2812H201.792C201.792 9.90967 209.389 2.3125 218.761 2.3125V0.3125Z" fill="#3491FA"/>
<g filter="url(#filter2_d)">
<circle cx="260.688" cy="19.2812" r="11.4792" stroke="#3491FA"/>
</g>
<path d="M248.708 7.30206V6.65206H248.058V7.30206H248.708ZM272.667 7.30206H273.317V6.65206H272.667V7.30206ZM272.667 31.2604V31.9104H273.317V31.2604H272.667ZM248.708 31.2604H248.058V31.9104H248.708V31.2604ZM248.058 7.30206V13.2916H249.358V7.30206H248.058ZM248.058 25.2708V31.2604H249.358V25.2708H248.058ZM248.708 31.9104H254.698V30.6104H248.708V31.9104ZM266.677 31.9104H272.667V30.6104H266.677V31.9104ZM273.317 31.2604V25.2708H272.017V31.2604H273.317ZM273.317 13.2916V7.30206H272.017V13.2916H273.317ZM272.667 6.65206H266.677V7.95206H272.667V6.65206ZM254.698 6.65206H248.708V7.95206H254.698V6.65206Z" fill="#3491FA"/>
<path d="M200.792 1.3125V0.845022H200.325V1.3125H200.792ZM278.657 1.3125H279.124V0.845022H278.657V1.3125ZM278.657 37.25V37.7175H279.124V37.25H278.657ZM200.792 37.25H200.325V37.7175H200.792V37.25ZM200.325 1.3125V7.02983H201.259V1.3125H200.325ZM200.325 13.5639V24.9986H201.259V13.5639H200.325ZM200.325 31.5327V37.25H201.259V31.5327H200.325ZM200.792 37.7175H205.747V36.7825H200.792V37.7175ZM211.41 37.7175H221.32V36.7825H211.41V37.7175ZM226.983 37.7175H236.893V36.7825H226.983V37.7175ZM242.556 37.7175H252.466V36.7825H242.556V37.7175ZM258.129 37.7175H268.039V36.7825H258.129V37.7175ZM273.702 37.7175H278.657V36.7825H273.702V37.7175ZM279.124 37.25V31.5327H278.189V37.25H279.124ZM279.124 24.9986V13.5639H278.189V24.9986H279.124ZM279.124 7.02983V1.3125H278.189V7.02983H279.124ZM278.657 0.845022H273.702V1.77998H278.657V0.845022ZM268.039 0.845022H258.129V1.77998H268.039V0.845022ZM252.466 0.845022H242.556V1.77998H252.466V0.845022ZM236.893 0.845022H226.983V1.77998H236.893V0.845022ZM221.32 0.845022H211.41V1.77998H221.32V0.845022ZM205.747 0.845022H200.792V1.77998H205.747V0.845022Z" fill="#3491FA"/>
<circle cx="336.625" cy="19.2812" r="11.4792" stroke="#3491FA"/>
<path d="M324.646 7.30206V6.65206H323.996V7.30206H324.646ZM348.604 7.30206H349.254V6.65206H348.604V7.30206ZM348.604 31.2604V31.9104H349.254V31.2604H348.604ZM324.646 31.2604H323.996V31.9104H324.646V31.2604ZM323.996 7.30206V13.2916H325.296V7.30206H323.996ZM323.996 25.2708V31.2604H325.296V25.2708H323.996ZM324.646 31.9104H330.636V30.6104H324.646V31.9104ZM342.615 31.9104H348.604V30.6104H342.615V31.9104ZM349.254 31.2604V25.2708H347.954V31.2604H349.254ZM349.254 13.2916V7.30206H347.954V13.2916H349.254ZM348.604 6.65206H342.615V7.95206H348.604V6.65206ZM330.636 6.65206H324.646V7.95206H330.636V6.65206Z" fill="#3491FA"/>
<path d="M358.481 25.443C357.307 25.443 356.283 25.1794 355.408 24.6523C354.546 24.1133 353.875 23.3586 353.396 22.3883C352.929 21.418 352.695 20.268 352.695 18.9383C352.695 17.6086 352.929 16.4586 353.396 15.4883C353.863 14.518 354.528 13.7693 355.391 13.2422C356.265 12.7151 357.295 12.4516 358.481 12.4516C359.679 12.4516 360.709 12.7151 361.572 13.2422C362.446 13.7693 363.117 14.518 363.584 15.4883C364.063 16.4466 364.303 17.5906 364.303 18.9203C364.303 20.25 364.063 21.406 363.584 22.3883C363.105 23.3586 362.428 24.1133 361.554 24.6523C360.691 25.1794 359.667 25.443 358.481 25.443ZM358.481 24.1312C359.835 24.1312 360.883 23.676 361.626 22.7656C362.368 21.8552 362.74 20.5794 362.74 18.9383C362.74 17.2971 362.368 16.0273 361.626 15.1289C360.883 14.2185 359.835 13.7633 358.481 13.7633C357.151 13.7633 356.115 14.2185 355.373 15.1289C354.63 16.0273 354.258 17.2971 354.258 18.9383C354.258 20.5674 354.63 21.8432 355.373 22.7656C356.115 23.676 357.151 24.1312 358.481 24.1312ZM366.937 25.2812V12.6133H374.772V13.8531H368.411V18.2734H374.412V19.5133H368.411V25.2812H366.937ZM376.781 25.2812V12.6133H384.616V13.8531H378.255V18.2734H384.256V19.5133H378.255V25.2812H376.781Z" fill="#3491FA"/>
<path d="M336.625 2.3125H378.552V0.3125H336.625V2.3125ZM378.552 36.25H336.625V38.25H378.552V36.25ZM336.625 36.25C327.253 36.25 319.656 28.6528 319.656 19.2812H317.656C317.656 29.7574 326.149 38.25 336.625 38.25V36.25ZM395.521 19.2812C395.521 28.6528 387.924 36.25 378.552 36.25V38.25C389.028 38.25 397.521 29.7574 397.521 19.2812H395.521ZM378.552 2.3125C387.924 2.3125 395.521 9.90967 395.521 19.2812H397.521C397.521 8.8051 389.028 0.3125 378.552 0.3125V2.3125ZM336.625 0.3125C326.149 0.3125 317.656 8.8051 317.656 19.2812H319.656C319.656 9.90967 327.253 2.3125 336.625 2.3125V0.3125Z" fill="#3491FA"/>
<path d="M318.656 1.3125V0.845022H318.189V1.3125H318.656ZM396.521 1.3125H396.988V0.845022H396.521V1.3125ZM396.521 37.25V37.7175H396.988V37.25H396.521ZM318.656 37.25H318.189V37.7175H318.656V37.25ZM318.189 1.3125V7.02983H319.124V1.3125H318.189ZM318.189 13.5639V24.9986H319.124V13.5639H318.189ZM318.189 31.5327V37.25H319.124V31.5327H318.189ZM318.656 37.7175H323.611V36.7825H318.656V37.7175ZM329.274 37.7175H339.184V36.7825H329.274V37.7175ZM344.847 37.7175H354.757V36.7825H344.847V37.7175ZM360.42 37.7175H370.33V36.7825H360.42V37.7175ZM375.993 37.7175H385.903V36.7825H375.993V37.7175ZM391.566 37.7175H396.521V36.7825H391.566V37.7175ZM396.988 37.25V31.5327H396.053V37.25H396.988ZM396.988 24.9986V13.5639H396.053V24.9986H396.988ZM396.988 7.02983V1.3125H396.053V7.02983H396.988ZM396.521 0.845022H391.566V1.77998H396.521V0.845022ZM385.903 0.845022H375.993V1.77998H385.903V0.845022ZM370.33 0.845022H360.42V1.77998H370.33V0.845022ZM354.757 0.845022H344.847V1.77998H354.757V0.845022ZM339.184 0.845022H329.274V1.77998H339.184V0.845022ZM323.611 0.845022H318.656V1.77998H323.611V0.845022Z" fill="#3491FA"/>
<defs>
<filter id="filter0_d" x="26.4561" y="4.30727" width="32.9427" height="32.9427" filterUnits="userSpaceOnUse" color-interpolation-filters="sRGB">
<feFlood flood-opacity="0" result="BackgroundImageFix"/>
<feColorMatrix in="SourceAlpha" type="matrix" values="0 0 0 0 0 0 0 0 0 0 0 0 0 0 0 0 0 0 127 0"/>
<feOffset dy="1.4974"/>
<feGaussianBlur stdDeviation="2.24609"/>
<feColorMatrix type="matrix" values="0 0 0 0 0 0 0 0 0 0 0 0 0 0 0 0 0 0 0.08 0"/>
<feBlend mode="normal" in2="BackgroundImageFix" result="effect1_dropShadow"/>
<feBlend mode="normal" in="SourceGraphic" in2="effect1_dropShadow" result="shape"/>
</filter>
<filter id="filter1_d" x="102.444" y="4.32815" width="32.9427" height="32.9427" filterUnits="userSpaceOnUse" color-interpolation-filters="sRGB">
<feFlood flood-opacity="0" result="BackgroundImageFix"/>
<feColorMatrix in="SourceAlpha" type="matrix" values="0 0 0 0 0 0 0 0 0 0 0 0 0 0 0 0 0 0 127 0"/>
<feOffset dy="1.4974"/>
<feGaussianBlur stdDeviation="2.24609"/>
<feColorMatrix type="matrix" values="0 0 0 0 0 0 0 0 0 0 0 0 0 0 0 0 0 0 0.08 0"/>
<feBlend mode="normal" in2="BackgroundImageFix" result="effect1_dropShadow"/>
<feBlend mode="normal" in="SourceGraphic" in2="effect1_dropShadow" result="shape"/>
</filter>
<filter id="filter2_d" x="244.216" y="4.30727" width="32.9427" height="32.9427" filterUnits="userSpaceOnUse" color-interpolation-filters="sRGB">
<feFlood flood-opacity="0" result="BackgroundImageFix"/>
<feColorMatrix in="SourceAlpha" type="matrix" values="0 0 0 0 0 0 0 0 0 0 0 0 0 0 0 0 0 0 127 0"/>
<feOffset dy="1.4974"/>
<feGaussianBlur stdDeviation="2.24609"/>
<feColorMatrix type="matrix" values="0 0 0 0 0 0 0 0 0 0 0 0 0 0 0 0 0 0 0.08 0"/>
<feBlend mode="normal" in2="BackgroundImageFix" result="effect1_dropShadow"/>
<feBlend mode="normal" in="SourceGraphic" in2="effect1_dropShadow" result="shape"/>
</filter>
</defs>
</svg>
