<svg width="48" height="48" viewBox="0 0 48 48" fill="none" xmlns="http://www.w3.org/2000/svg" stroke="currentColor" stroke-width="4">
<path d="M22.6828 5.41468C23.2513 4.37227 24.7481 4.37227 25.3166 5.41468L30.8238 15.513C31.0396 15.9086 31.4217 16.1862 31.8646 16.2691L43.1705 18.3864C44.3376 18.6049 44.8001 20.0284 43.9844 20.8912L36.0822 29.2495C35.7726 29.5769 35.6267 30.0262 35.6847 30.473L37.1648 41.8798C37.3176 43.0573 36.1067 43.9371 35.034 43.4279L24.6429 38.4953C24.2358 38.3021 23.7635 38.3021 23.3564 38.4953L12.9653 43.4279C11.8927 43.9371 10.6817 43.0573 10.8345 41.8798L12.3147 30.473C12.3726 30.0262 12.2267 29.5769 11.9171 29.2495L4.01491 20.8912C3.1992 20.0284 3.66173 18.6049 4.8288 18.3864L16.1347 16.2691C16.5776 16.1862 16.9597 15.9086 17.1755 15.513L22.6828 5.41468Z" fill="currentColor" stroke="none" stroke-width="none" stroke-linecap="butt"></path>
</svg>