<svg width="40" height="40" viewBox="0 0 40 40" fill="none" xmlns="http://www.w3.org/2000/svg">
<g clip-path="url(#clip0_570:71305)">
<path fill-rule="evenodd" clip-rule="evenodd" d="M12 25.0464C12 15.1053 20.0589 7.0464 30 7.0464C32.6523 7.0464 35.1707 7.62006 37.4377 8.65008C33.826 3.45044 27.8106 0.0462752 21 0.0462752C9.9543 0.0462752 1 9.00058 1 20.0463C1 30.7601 9.42437 39.5064 20.0103 40.0222C15.1806 36.7941 12 31.2917 12 25.0464Z" fill="#16D2AC"/>
<path fill-rule="evenodd" clip-rule="evenodd" d="M12 14.9999C12 24.941 20.0589 32.9999 30 32.9999C32.6523 32.9999 35.1707 32.4262 37.4377 31.3962C33.826 36.5958 27.8106 40 21 40C9.95431 40 1 31.0457 1 20C1 9.28613 9.42437 0.539889 20.0103 0.0240479C15.1806 3.25215 12 8.75458 12 14.9999Z" fill="#165DFF"/>
</g>
<defs>
<clipPath id="clip0_570:71305">
<rect width="40" height="40" fill="white"/>
</clipPath>
</defs>
</svg>
