<svg viewBox="0 0 114 22" fill="none" xmlns="http://www.w3.org/2000/svg">
<path fill-rule="evenodd" clip-rule="evenodd" d="M86.5841 0.479004C87.6579 0.479004 88.4919 1.32438 88.4919 2.39824C88.4919 3.47209 87.6579 4.29462 86.5841 4.29462C85.5102 4.29462 84.6877 3.47209 84.6877 2.39824C84.6877 1.32438 85.5102 0.479004 86.5841 0.479004ZM54.6874 5.72262C56.1725 5.72262 57.2235 6.30524 57.9432 7.17347V0.63894H60.9135V17.0895H58.0003V15.8671C57.2806 16.7582 56.2068 17.3751 54.6874 17.3751C51.6372 17.3751 49.3295 14.8732 49.3295 11.5489C49.3295 8.22448 51.6372 5.72262 54.6874 5.72262ZM11.5908 6.01965V17.0895H8.67765V15.8671C7.95794 16.7582 6.88408 17.3751 5.36469 17.3751C2.31448 17.3751 0.00683594 14.8732 0.00683594 11.5489C0.00683594 8.22448 2.31448 5.72262 5.36469 5.72262C6.88408 5.72262 7.94652 6.33952 8.67765 7.24201V6.01965H11.5908ZM5.91304 8.49865C4.16517 8.49865 3.05704 9.85811 3.05704 11.5489C3.05704 13.2396 4.16517 14.5991 5.91304 14.5991C7.61522 14.5991 8.76904 13.2967 8.76904 11.5489C8.76904 9.80099 7.61522 8.49865 5.91304 8.49865ZM21.2291 5.96252C20.8179 5.81401 20.3152 5.72262 19.6754 5.72262C18.316 5.72262 17.2536 6.19101 16.5567 7.23059V6.01965H13.6664V17.0895H16.6481V11.0576C16.6481 9.41257 17.5963 8.5672 18.9786 8.5672C19.5841 8.5672 20.2923 8.70429 20.7836 8.92134L21.2291 5.96252ZM27.0404 5.72262C28.8911 5.72262 30.4562 6.47661 31.4729 7.81321L29.3252 9.60678C28.6512 8.88707 27.9315 8.49865 26.9604 8.49865C25.4182 8.49865 24.1844 9.7096 24.1844 11.5489C24.1844 13.3996 25.4068 14.5991 26.949 14.5991C27.9086 14.5991 28.7312 14.165 29.3595 13.4795L31.4844 15.2959C30.4448 16.6325 28.8911 17.3751 27.0404 17.3751C23.5104 17.3751 21.1456 14.9075 21.1456 11.5489C21.1456 8.20163 23.5104 5.72262 27.0404 5.72262ZM43.636 11.5489C43.636 8.21305 41.0884 5.72262 37.6384 5.72262C34.1997 5.72262 31.6636 8.21305 31.6636 11.5489C31.6636 14.8847 34.1997 17.3751 37.6384 17.3751C41.0884 17.3751 43.636 14.8847 43.636 11.5489ZM37.6384 8.49865C35.959 8.49865 34.7024 9.75529 34.7024 11.5489C34.7024 13.3424 35.959 14.5991 37.6384 14.5991C39.3177 14.5991 40.5858 13.3424 40.5858 11.5489C40.5858 9.75529 39.3177 8.49865 37.6384 8.49865ZM48.6933 15.1474C48.6933 13.9593 47.6651 12.9426 46.4885 12.9426C45.3004 12.9426 44.2608 13.9593 44.2608 15.1474C44.2608 16.3469 45.3004 17.3751 46.4885 17.3751C47.6651 17.3751 48.6933 16.3469 48.6933 15.1474ZM52.3797 11.5489C52.3797 9.85811 53.4879 8.49865 55.2357 8.49865C56.9379 8.49865 58.0917 9.80099 58.0917 11.5489C58.0917 13.2967 56.9379 14.5991 55.2357 14.5991C53.4879 14.5991 52.3797 13.2396 52.3797 11.5489ZM67.9014 5.72262C71.0887 5.72262 73.2707 8.08739 73.2821 11.5374C73.2821 11.8802 73.2593 12.2914 73.225 12.5427H65.3767C65.6966 14.1421 66.8161 14.839 68.2213 14.839C69.1809 14.839 70.2205 14.4506 71.0202 13.7765L72.7681 15.6958C71.5114 16.8496 69.912 17.3751 68.0499 17.3751C64.657 17.3751 62.3037 15.0675 62.3037 11.5831C62.3037 8.09881 64.5885 5.72262 67.9014 5.72262ZM65.3881 10.5093C65.6509 9.1384 66.4734 8.29302 67.8786 8.29302C69.1581 8.29302 70.0149 9.0927 70.289 10.5093H65.3881ZM83.5259 6.78505L82.5206 9.10413C81.641 8.67001 80.2358 8.21305 78.9906 8.20163C77.8596 8.20163 77.2884 8.60147 77.2884 9.20694C77.2884 9.84669 78.0881 10.0066 79.0934 10.1551L80.0759 10.3036C82.4749 10.6692 83.8115 11.7431 83.8115 13.6166C83.8115 15.9014 81.938 17.3751 78.7279 17.3751C77.2199 17.3751 75.2435 17.0895 73.8041 16.0728L74.9808 13.8108C75.929 14.4391 77.0828 14.8961 78.7507 14.8961C80.133 14.8961 80.7956 14.5077 80.7956 13.8565C80.7956 13.3196 80.2358 13.0226 78.9563 12.8398L78.0538 12.7141C75.4949 12.36 74.2268 11.2404 74.2268 9.35545C74.2268 7.08208 75.9861 5.73404 78.8992 5.73404C80.6699 5.73404 82.0522 6.06534 83.5259 6.78505ZM88.092 17.0895V6.01964H85.1104V17.0895H88.092ZM98.0045 7.25344C97.2506 6.31667 96.1196 5.72262 94.5773 5.72262C91.8813 5.72262 89.4822 7.97315 89.4822 11.3775C89.4822 14.7704 91.8813 17.021 94.5773 17.021C96.1082 17.021 97.2277 16.4498 97.9817 15.5244V16.3012C97.9817 18.2091 96.6794 19.2372 94.8287 19.2372C93.5035 19.2372 92.2811 18.8374 91.173 18.1062L90.1106 20.5396C91.3558 21.4192 93.2065 21.8762 94.9543 21.8762C98.61 21.8762 100.929 19.7284 100.929 16.1756V6.01965H98.0045V7.25344ZM95.3313 8.46438C93.6292 8.46438 92.5439 9.76672 92.5439 11.3775C92.5439 12.9769 93.6292 14.2792 95.3313 14.2792C96.9878 14.2792 98.1074 13.0226 98.1074 11.3775C98.1074 9.72102 96.9878 8.46438 95.3313 8.46438ZM113.469 10.0409C113.469 7.47049 111.676 5.72262 109.162 5.72262C107.906 5.72262 106.695 6.14531 105.906 7.32198V6.01965H103.005V17.0895H105.986V11.0234C105.986 9.35545 107.049 8.5215 108.328 8.5215C109.688 8.5215 110.487 9.40115 110.487 11.0005V17.0895H113.469V10.0409Z" fill="#1A2234"/>
</svg>