<svg viewBox="0 0 40 40" fill="none" xmlns="http://www.w3.org/2000/svg">
<g clip-path="url(#clip0)">
<g filter="url(#filter0_di)">
<path fill-rule="evenodd" clip-rule="evenodd" d="M28.7909 11L23.2131 16.1597C23.1769 16.194 23.1263 16.2104 23.0765 16.2022C23.0482 16.2121 23.0171 16.2143 22.9867 16.2085C22.8932 16.1894 22.7975 16.1837 22.7028 16.1913C22.4994 16.2232 22.3042 16.3176 22.1475 16.4743C21.7575 16.8643 21.7537 17.49 22.1323 17.8859C22.529 18.2462 23.1407 18.2363 23.5244 17.8526C23.6901 17.6868 23.786 17.4782 23.8122 17.2622C23.8161 17.1786 23.8096 17.0946 23.7928 17.0122C23.7874 16.9838 23.789 16.9549 23.7973 16.9282C23.7872 16.8769 23.8036 16.8243 23.839 16.7869L29.0007 11.2091L22.9926 31.998L18.3748 27.3803L17.9745 22.0241L12.6177 21.6238L8 17.0061L28.7909 11Z" fill="white"/>
</g>
</g>
<defs>
<filter id="filter0_di" x="6" y="10" width="25.0007" height="25.998" filterUnits="userSpaceOnUse" color-interpolation-filters="sRGB">
<feFlood flood-opacity="0" result="BackgroundImageFix"/>
<feColorMatrix in="SourceAlpha" type="matrix" values="0 0 0 0 0 0 0 0 0 0 0 0 0 0 0 0 0 0 127 0"/>
<feOffset dy="2"/>
<feGaussianBlur stdDeviation="1"/>
<feColorMatrix type="matrix" values="0 0 0 0 0 0 0 0 0 0 0 0 0 0 0 0 0 0 0.1 0"/>
<feBlend mode="normal" in2="BackgroundImageFix" result="effect1_dropShadow"/>
<feBlend mode="normal" in="SourceGraphic" in2="effect1_dropShadow" result="shape"/>
<feColorMatrix in="SourceAlpha" type="matrix" values="0 0 0 0 0 0 0 0 0 0 0 0 0 0 0 0 0 0 127 0" result="hardAlpha"/>
<feOffset dy="-1"/>
<feGaussianBlur stdDeviation="0.5"/>
<feComposite in2="hardAlpha" operator="arithmetic" k2="-1" k3="1"/>
<feColorMatrix type="matrix" values="0 0 0 0 0 0 0 0 0 0 0 0 0 0 0 0 0 0 0.12 0"/>
<feBlend mode="normal" in2="shape" result="effect2_innerShadow"/>
</filter>
<clipPath id="clip0">
<rect width="21" height="21" fill="white" transform="translate(8 11)"/>
</clipPath>
</defs>
</svg>
