<svg viewBox="0 0 40 40" fill="none" xmlns="http://www.w3.org/2000/svg">
<g filter="url(#filter0_di)">
<path fill-rule="evenodd" clip-rule="evenodd" d="M12.3793 15.327C12.757 14.9397 13.3849 14.9373 13.7656 15.3217L20.6525 22.2733C21.0167 22.6409 21.019 23.2271 20.6578 23.5975L17.0106 27.3372C14.86 29.5422 11.2851 29.556 9.11708 27.3676L8.56382 26.8092C6.49041 24.7163 6.47715 21.3787 8.53386 19.2699L12.3793 15.327ZM13.7756 17.8224C13.3948 17.438 12.7669 17.4404 12.3892 17.8277L9.80647 20.4759C8.41042 21.9073 8.41942 24.1728 9.8268 25.5934L10.3801 26.1518C11.8517 27.6373 14.2782 27.6279 15.738 26.1312L18.1997 23.607C18.561 23.2366 18.5586 22.6504 18.1945 22.2828L13.7756 17.8224Z" fill="white"/>
<path fill-rule="evenodd" clip-rule="evenodd" d="M26.6957 15.6489C27.0762 15.2649 27.7033 15.2669 28.0812 15.6533L31.35 18.9959C33.5602 21.2559 33.5485 24.8382 31.3235 27.0841C29.0015 29.4279 25.1735 29.4157 22.8669 27.0571L19.8045 23.9257C19.4424 23.5554 19.4443 22.9685 19.8089 22.6006L26.6957 15.6489ZM28.073 18.1523C27.6951 17.7659 27.068 17.7639 26.6876 18.1479L22.2685 22.6084C21.904 22.9764 21.9021 23.5633 22.2642 23.9335L24.1378 25.8494C25.7533 27.5013 28.4343 27.5098 30.0605 25.8683C31.6188 24.2954 31.6271 21.7865 30.0791 20.2036L28.073 18.1523Z" fill="white"/>
<path fill-rule="evenodd" clip-rule="evenodd" d="M16.1427 11.6324C18.2989 9.45588 21.85 9.45588 24.0062 11.6324L27.6519 15.3124C28.0182 15.682 28.0182 16.2722 27.6519 16.6419L20.765 23.5936C20.3863 23.9758 19.7626 23.9758 19.3839 23.5936L12.497 16.6419C12.1308 16.2722 12.1308 15.682 12.497 15.3124L16.1427 11.6324ZM22.7432 12.8482C21.2797 11.3708 18.8693 11.3708 17.4057 12.8482L14.9644 15.3124C14.5982 15.682 14.5982 16.2722 14.9644 16.6419L19.3839 21.1029C19.7626 21.4852 20.3863 21.4852 20.765 21.1029L25.1845 16.6419C25.5507 16.2722 25.5507 15.682 25.1845 15.3124L22.7432 12.8482Z" fill="white"/>
</g>
<defs>
<filter id="filter0_di" x="5" y="9" width="30" height="24" filterUnits="userSpaceOnUse" color-interpolation-filters="sRGB">
<feFlood flood-opacity="0" result="BackgroundImageFix"/>
<feColorMatrix in="SourceAlpha" type="matrix" values="0 0 0 0 0 0 0 0 0 0 0 0 0 0 0 0 0 0 127 0"/>
<feOffset dy="2"/>
<feGaussianBlur stdDeviation="1"/>
<feColorMatrix type="matrix" values="0 0 0 0 0 0 0 0 0 0 0 0 0 0 0 0 0 0 0.1 0"/>
<feBlend mode="normal" in2="BackgroundImageFix" result="effect1_dropShadow"/>
<feBlend mode="normal" in="SourceGraphic" in2="effect1_dropShadow" result="shape"/>
<feColorMatrix in="SourceAlpha" type="matrix" values="0 0 0 0 0 0 0 0 0 0 0 0 0 0 0 0 0 0 127 0" result="hardAlpha"/>
<feOffset dy="-1"/>
<feGaussianBlur stdDeviation="0.5"/>
<feComposite in2="hardAlpha" operator="arithmetic" k2="-1" k3="1"/>
<feColorMatrix type="matrix" values="0 0 0 0 0 0 0 0 0 0 0 0 0 0 0 0 0 0 0.12 0"/>
<feBlend mode="normal" in2="shape" result="effect2_innerShadow"/>
</filter>
</defs>
</svg>
