<svg viewBox="0 0 56 56" fill="none" xmlns="http://www.w3.org/2000/svg">
<g filter="url(#filter0_di)">
<path fill-rule="evenodd" clip-rule="evenodd" d="M25.22 9.70339C25.22 11.4726 23.7857 12.9068 22.0166 12.9068C21.4866 12.9068 20.9868 12.7781 20.5465 12.5503L12.1827 20.6257C12.3273 20.9907 12.4068 21.3886 12.4068 21.8051C12.4068 23.5743 10.9726 25.0085 9.20339 25.0085C7.43421 25.0085 6 23.5743 6 21.8051C6 20.0359 7.43421 18.6017 9.20339 18.6017C9.8256 18.6017 10.4064 18.7791 10.8979 19.0861L19.1445 11.1238C18.9324 10.6958 18.8132 10.2135 18.8132 9.70339C18.8132 7.93421 20.2474 6.5 22.0166 6.5C23.7857 6.5 25.22 7.93421 25.22 9.70339ZM34.4748 12.5509C34.4748 14.32 33.0406 15.7542 31.2714 15.7542C30.7514 15.7542 30.2604 15.6304 29.8262 15.4105L16.3344 28.9023C16.5543 29.3365 16.6782 29.8275 16.6782 30.3475C16.6782 32.1167 15.244 33.5509 13.4748 33.5509C11.7056 33.5509 10.2714 32.1167 10.2714 30.3475C10.2714 28.5783 11.7056 27.1441 13.4748 27.1441C13.9949 27.1441 14.486 27.268 14.9203 27.488L28.4119 13.9964C28.1919 13.5621 28.068 13.071 28.068 12.5509C28.068 10.7817 29.5022 9.34746 31.2714 9.34746C33.0406 9.34746 34.4748 10.7817 34.4748 12.5509ZM39.8131 19.3136C41.5823 19.3136 43.0165 17.8794 43.0165 16.1102C43.0165 14.341 41.5823 12.9068 39.8131 12.9068C38.0439 12.9068 36.6097 14.341 36.6097 16.1102C36.6097 16.6303 36.7337 17.1215 36.9537 17.5558L19.1912 35.3182C18.7571 35.0984 18.2661 34.9746 17.7462 34.9746C15.977 34.9746 14.5428 36.4088 14.5428 38.178C14.5428 39.9471 15.977 41.3813 17.7462 41.3813C19.5154 41.3813 20.9496 39.9471 20.9496 38.178C20.9496 37.6578 20.8256 37.1666 20.6056 36.7323L38.368 18.9699C38.8022 19.1897 39.2932 19.3136 39.8131 19.3136ZM47.2879 23.9407C47.2879 25.7099 45.8537 27.1441 44.0845 27.1441C43.5646 27.1441 43.0736 27.0202 42.6394 26.8003L29.1476 40.2921C29.3675 40.7263 29.4914 41.2173 29.4914 41.7373C29.4914 43.5065 28.0572 44.9407 26.288 44.9407C24.5188 44.9407 23.0846 43.5065 23.0846 41.7373C23.0846 39.9681 24.5188 38.5339 26.288 38.5339C26.8081 38.5339 27.2992 38.6579 27.7335 38.8778L41.2251 25.3862C41.0051 24.9519 40.8811 24.4608 40.8811 23.9407C40.8811 22.1715 42.3154 20.7373 44.0845 20.7373C45.8537 20.7373 47.2879 22.1715 47.2879 23.9407ZM47.644 35.6864C49.4131 35.6864 50.8473 34.2522 50.8473 32.483C50.8473 30.7138 49.4131 29.2796 47.644 29.2796C45.8748 29.2796 44.4406 30.7138 44.4406 32.483C44.4406 33.0227 44.574 33.5313 44.8098 33.9775L36.9374 42.4122C36.5157 42.2078 36.0423 42.0932 35.5422 42.0932C33.7731 42.0932 32.3389 43.5274 32.3389 45.2966C32.3389 47.0658 33.7731 48.5 35.5422 48.5C37.3114 48.5 38.7456 47.0658 38.7456 45.2966C38.7456 44.7567 38.6121 44.248 38.3762 43.8018L46.2484 35.3673C46.6702 35.5718 47.1437 35.6864 47.644 35.6864Z" fill="url(#paint0_linear)"/>
</g>
<defs>
<filter id="filter0_di" x="4" y="5.5" width="48.8473" height="47" filterUnits="userSpaceOnUse" color-interpolation-filters="sRGB">
<feFlood flood-opacity="0" result="BackgroundImageFix"/>
<feColorMatrix in="SourceAlpha" type="matrix" values="0 0 0 0 0 0 0 0 0 0 0 0 0 0 0 0 0 0 127 0"/>
<feOffset dy="2"/>
<feGaussianBlur stdDeviation="1"/>
<feColorMatrix type="matrix" values="0 0 0 0 0 0 0 0 0 0 0 0 0 0 0 0 0 0 0.1 0"/>
<feBlend mode="normal" in2="BackgroundImageFix" result="effect1_dropShadow"/>
<feBlend mode="normal" in="SourceGraphic" in2="effect1_dropShadow" result="shape"/>
<feColorMatrix in="SourceAlpha" type="matrix" values="0 0 0 0 0 0 0 0 0 0 0 0 0 0 0 0 0 0 127 0" result="hardAlpha"/>
<feOffset dy="-1"/>
<feGaussianBlur stdDeviation="0.5"/>
<feComposite in2="hardAlpha" operator="arithmetic" k2="-1" k3="1"/>
<feColorMatrix type="matrix" values="0 0 0 0 0 0 0 0 0 0 0 0 0 0 0 0 0 0 0.12 0"/>
<feBlend mode="normal" in2="shape" result="effect2_innerShadow"/>
</filter>
<linearGradient id="paint0_linear" x1="28.4237" y1="6.5" x2="28.4237" y2="48.5" gradientUnits="userSpaceOnUse">
<stop stop-color="#4080FF"/>
<stop offset="1" stop-color="#165DFF"/>
</linearGradient>
</defs>
</svg>
