<svg width="34" height="34" viewBox="0 0 34 34" fill="none" xmlns="http://www.w3.org/2000/svg">
<path fill-rule="evenodd" clip-rule="evenodd" d="M10 17C10 18.6569 8.65685 20 7 20C5.34315 20 4 18.6569 4 17C4 15.3431 5.34315 14 7 14C8.65685 14 10 15.3431 10 17ZM20 17C20 18.6569 18.6569 20 17 20C15.3431 20 14 18.6569 14 17C14 15.3431 15.3431 14 17 14C18.6569 14 20 15.3431 20 17ZM27 20C28.6569 20 30 18.6569 30 17C30 15.3431 28.6569 14 27 14C25.3431 14 24 15.3431 24 17C24 18.6569 25.3431 20 27 20Z" fill="#A9AEB8"/>
</svg>
