<svg viewBox="0 0 56 56" fill="none" xmlns="http://www.w3.org/2000/svg">
<g clip-path="url(#clip0)">
<g filter="url(#filter0_di)">
<path fill-rule="evenodd" clip-rule="evenodd" d="M25.9725 15.5H46C46.5523 15.5 47 15.9477 47 16.5C47 17.0523 46.5523 17.5 46 17.5H25.7439C25.1262 19.2478 23.4593 20.5 21.5 20.5C19.5407 20.5 17.8738 19.2478 17.2561 17.5H-9.53674e-07C-0.552286 17.5 -1 17.0523 -1 16.5C-1 15.9477 -0.552285 15.5 0 15.5H17.0275C17.2762 13.25 19.1837 11.5 21.5 11.5C23.8163 11.5 25.7238 13.25 25.9725 15.5ZM38.9725 27.5H46C46.5523 27.5 47 27.9477 47 28.5C47 29.0523 46.5523 29.5 46 29.5H38.7439C38.1262 31.2478 36.4593 32.5 34.5 32.5C32.5407 32.5 30.8738 31.2478 30.2561 29.5H-9.53674e-07C-0.552286 29.5 -1 29.0523 -1 28.5C-1 27.9477 -0.552285 27.5 0 27.5H30.0275C30.2762 25.25 32.1837 23.5 34.5 23.5C36.8163 23.5 38.7238 25.25 38.9725 27.5ZM46 39.5H25.9725C25.7238 37.25 23.8163 35.5 21.5 35.5C19.1837 35.5 17.2762 37.25 17.0275 39.5H0C-0.552285 39.5 -1 39.9477 -1 40.5C-1 41.0523 -0.552286 41.5 -9.53674e-07 41.5H17.2561C17.8738 43.2478 19.5407 44.5 21.5 44.5C23.4593 44.5 25.1262 43.2478 25.7439 41.5H46C46.5523 41.5 47 41.0523 47 40.5C47 39.9477 46.5523 39.5 46 39.5Z" fill="white"/>
</g>
</g>
<defs>
<filter id="filter0_di" x="-3" y="10.5" width="52" height="38" filterUnits="userSpaceOnUse" color-interpolation-filters="sRGB">
<feFlood flood-opacity="0" result="BackgroundImageFix"/>
<feColorMatrix in="SourceAlpha" type="matrix" values="0 0 0 0 0 0 0 0 0 0 0 0 0 0 0 0 0 0 127 0"/>
<feOffset dy="2"/>
<feGaussianBlur stdDeviation="1"/>
<feColorMatrix type="matrix" values="0 0 0 0 0 0 0 0 0 0 0 0 0 0 0 0 0 0 0.1 0"/>
<feBlend mode="normal" in2="BackgroundImageFix" result="effect1_dropShadow"/>
<feBlend mode="normal" in="SourceGraphic" in2="effect1_dropShadow" result="shape"/>
<feColorMatrix in="SourceAlpha" type="matrix" values="0 0 0 0 0 0 0 0 0 0 0 0 0 0 0 0 0 0 127 0" result="hardAlpha"/>
<feOffset dy="-1"/>
<feGaussianBlur stdDeviation="0.5"/>
<feComposite in2="hardAlpha" operator="arithmetic" k2="-1" k3="1"/>
<feColorMatrix type="matrix" values="0 0 0 0 0 0 0 0 0 0 0 0 0 0 0 0 0 0 0.12 0"/>
<feBlend mode="normal" in2="shape" result="effect2_innerShadow"/>
</filter>
<clipPath id="clip0">
<rect width="56" height="56" rx="12" fill="white"/>
</clipPath>
</defs>
</svg>
