<svg width="624" height="194" viewBox="0 0 624 194" fill="none" xmlns="http://www.w3.org/2000/svg">
<rect x="29.5" y="40.5" width="58.8958" height="34.9375" rx="17.4688" stroke="#3491FA"/>
<g filter="url(#filter0_d)">
<circle cx="70.9269" cy="57.9688" r="11.2305" stroke="#3491FA" stroke-width="1.4974"/>
</g>
<path d="M58.9478 45.9896V45.3396H58.2978V45.9896H58.9478ZM82.9061 45.9896H83.5561V45.3396H82.9061V45.9896ZM82.9061 69.9479V70.5979H83.5561V69.9479H82.9061ZM58.9478 69.9479H58.2978V70.5979H58.9478V69.9479ZM58.2978 45.9896V51.9792H59.5978V45.9896H58.2978ZM58.2978 63.9583V69.9479H59.5978V63.9583H58.2978ZM58.9478 70.5979H64.9373V69.2979H58.9478V70.5979ZM76.9165 70.5979H82.9061V69.2979H76.9165V70.5979ZM83.5561 69.9479V63.9583H82.2561V69.9479H83.5561ZM83.5561 51.9792V45.9896H82.2561V51.9792H83.5561ZM82.9061 45.3396H76.9165V46.6396H82.9061V45.3396ZM64.9373 45.3396H58.9478V46.6396H64.9373V45.3396Z" fill="#3491FA"/>
<path d="M29 40V39.3H28.3V40H29ZM88.8958 40H89.5958V39.3H88.8958V40ZM88.8958 75.9375V76.6375H89.5958V75.9375H88.8958ZM29 75.9375H28.3V76.6375H29V75.9375ZM28.3 40V45.7173H29.7V40H28.3ZM28.3 52.2514V63.6861H29.7V52.2514H28.3ZM28.3 70.2202V75.9375H29.7V70.2202H28.3ZM29 76.6375H35.3526V75.2375H29V76.6375ZM42.6127 76.6375H55.3179V75.2375H42.6127V76.6375ZM62.578 76.6375H75.2831V75.2375H62.578V76.6375ZM82.5432 76.6375H88.8958V75.2375H82.5432V76.6375ZM89.5958 75.9375V70.2202H88.1958V75.9375H89.5958ZM89.5958 63.6861V52.2514H88.1958V63.6861H89.5958ZM89.5958 45.7173V40H88.1958V45.7173H89.5958ZM88.8958 39.3H82.5432V40.7H88.8958V39.3ZM75.2831 39.3H62.578V40.7H75.2831V39.3ZM55.3179 39.3H42.6127V40.7H55.3179V39.3ZM35.3526 39.3H29V40.7H35.3526V39.3Z" fill="#3491FA"/>
<rect x="29.5" y="109.438" width="58.8958" height="34.9375" rx="17.4688" stroke="#3491FA"/>
<circle cx="70.9269" cy="126.906" r="11.4792" stroke="#3491FA"/>
<mask id="path-13-inside-1" fill="white">
<rect x="69.4297" y="122.414" width="2.99479" height="8.98438" rx="0.748698"/>
</mask>
<rect x="69.4297" y="122.414" width="2.99479" height="8.98438" rx="0.748698" stroke="#3491FA" stroke-width="2.99479" mask="url(#path-13-inside-1)"/>
<path d="M58.9478 114.927V114.277H58.2978V114.927H58.9478ZM82.9061 114.927H83.5561V114.277H82.9061V114.927ZM82.9061 138.885V139.535H83.5561V138.885H82.9061ZM58.9478 138.885H58.2978V139.535H58.9478V138.885ZM58.2978 114.927V120.917H59.5978V114.927H58.2978ZM58.2978 132.896V138.885H59.5978V132.896H58.2978ZM58.9478 139.535H64.9373V138.235H58.9478V139.535ZM76.9165 139.535H82.9061V138.235H76.9165V139.535ZM83.5561 138.885V132.896H82.2561V138.885H83.5561ZM83.5561 120.917V114.927H82.2561V120.917H83.5561ZM82.9061 114.277H76.9165V115.577H82.9061V114.277ZM64.9373 114.277H58.9478V115.577H64.9373V114.277Z" fill="#3491FA"/>
<path d="M29 108.938V108.238H28.3V108.938H29ZM88.8958 108.938H89.5958V108.238H88.8958V108.938ZM88.8958 144.875V145.575H89.5958V144.875H88.8958ZM29 144.875H28.3V145.575H29V144.875ZM28.3 108.938V114.655H29.7V108.938H28.3ZM28.3 121.189V132.624H29.7V121.189H28.3ZM28.3 139.158V144.875H29.7V139.158H28.3ZM29 145.575H35.3526V144.175H29V145.575ZM42.6127 145.575H55.3179V144.175H42.6127V145.575ZM62.578 145.575H75.2831V144.175H62.578V145.575ZM82.5432 145.575H88.8958V144.175H82.5432V145.575ZM89.5958 144.875V139.158H88.1958V144.875H89.5958ZM89.5958 132.624V121.189H88.1958V132.624H89.5958ZM89.5958 114.655V108.938H88.1958V114.655H89.5958ZM88.8958 108.238H82.5432V109.637H88.8958V108.238ZM75.2831 108.238H62.578V109.637H75.2831V108.238ZM55.3179 108.238H42.6127V109.637H55.3179V108.238ZM35.3526 108.238H29V109.637H35.3526V108.238Z" fill="#3491FA"/>
<rect x="129.396" y="40.5" width="58.8958" height="34.9375" rx="17.4688" stroke="#3491FA"/>
<g filter="url(#filter1_d)">
<circle cx="146.917" cy="57.9896" r="11.2305" stroke="#3491FA" stroke-width="1.4974"/>
</g>
<path d="M134.896 45.9896V45.3396H134.246V45.9896H134.896ZM158.854 45.9896H159.504V45.3396H158.854V45.9896ZM158.854 69.948V70.598H159.504V69.948H158.854ZM134.896 69.948H134.246V70.598H134.896V69.948ZM134.246 45.9896V51.9792H135.546V45.9896H134.246ZM134.246 63.9584V69.948H135.546V63.9584H134.246ZM134.896 70.598H140.886V69.298H134.896V70.598ZM152.865 70.598H158.854V69.298H152.865V70.598ZM159.504 69.948V63.9584H158.204V69.948H159.504ZM159.504 51.9792V45.9896H158.204V51.9792H159.504ZM158.854 45.3396H152.865V46.6396H158.854V45.3396ZM140.886 45.3396H134.896V46.6396H140.886V45.3396Z" fill="#3491FA"/>
<rect x="128.896" y="40" width="59.8958" height="35.9375" stroke="#3491FA" stroke-width="1.4" stroke-dasharray="14 8"/>
<rect x="129.396" y="109.438" width="58.8958" height="34.9375" rx="17.4688" stroke="#3491FA"/>
<g filter="url(#filter2_d)">
<circle cx="146.865" cy="126.906" r="11.4792" stroke="#3491FA"/>
</g>
<circle cx="146.865" cy="126.906" r="3.99219" stroke="#3491FA"/>
<path d="M134.886 114.927V114.277H134.236V114.927H134.886ZM158.844 114.927H159.494V114.277H158.844V114.927ZM158.844 138.885V139.535H159.494V138.885H158.844ZM134.886 138.885H134.236V139.535H134.886V138.885ZM134.236 114.927V120.917H135.536V114.927H134.236ZM134.236 132.896V138.885H135.536V132.896H134.236ZM134.886 139.535H140.875V138.235H134.886V139.535ZM152.854 139.535H158.844V138.235H152.854V139.535ZM159.494 138.885V132.896H158.194V138.885H159.494ZM159.494 120.917V114.927H158.194V120.917H159.494ZM158.844 114.277H152.854V115.577H158.844V114.277ZM140.875 114.277H134.886V115.577H140.875V114.277Z" fill="#3491FA"/>
<path d="M128.896 108.938V108.238H128.196V108.938H128.896ZM188.792 108.938H189.492V108.238H188.792V108.938ZM188.792 144.875V145.575H189.492V144.875H188.792ZM128.896 144.875H128.196V145.575H128.896V144.875ZM128.196 108.938V114.655H129.596V108.938H128.196ZM128.196 121.189V132.624H129.596V121.189H128.196ZM128.196 139.158V144.875H129.596V139.158H128.196ZM128.896 145.575H135.249V144.175H128.896V145.575ZM142.509 145.575H155.214V144.175H142.509V145.575ZM162.474 145.575H175.179V144.175H162.474V145.575ZM182.439 145.575H188.792V144.175H182.439V145.575ZM189.492 144.875V139.158H188.092V144.875H189.492ZM189.492 132.624V121.189H188.092V132.624H189.492ZM189.492 114.655V108.938H188.092V114.655H189.492ZM188.792 108.238H182.439V109.637H188.792V108.238ZM175.179 108.238H162.474V109.637H175.179V108.238ZM155.214 108.238H142.509V109.637H155.214V108.238ZM135.249 108.238H128.896V109.637H135.249V108.238Z" fill="#3491FA"/>
<path d="M249.089 64.1617C247.915 64.1617 246.891 63.8982 246.016 63.3711C245.154 62.832 244.483 62.0773 244.004 61.107C243.536 60.1367 243.303 58.9867 243.303 57.657C243.303 56.3273 243.536 55.1773 244.004 54.207C244.471 53.2367 245.136 52.488 245.998 51.9609C246.873 51.4339 247.903 51.1703 249.089 51.1703C250.287 51.1703 251.317 51.4339 252.179 51.9609C253.054 52.488 253.725 53.2367 254.192 54.207C254.671 55.1654 254.911 56.3094 254.911 57.6391C254.911 58.9687 254.671 60.1247 254.192 61.107C253.713 62.0773 253.036 62.832 252.161 63.3711C251.299 63.8982 250.275 64.1617 249.089 64.1617ZM249.089 62.85C250.442 62.85 251.491 62.3948 252.233 61.4844C252.976 60.574 253.347 59.2982 253.347 57.657C253.347 56.0159 252.976 54.7461 252.233 53.8477C251.491 52.9372 250.442 52.482 249.089 52.482C247.759 52.482 246.723 52.9372 245.98 53.8477C245.237 54.7461 244.866 56.0159 244.866 57.657C244.866 59.2862 245.237 60.562 245.98 61.4844C246.723 62.3948 247.759 62.85 249.089 62.85ZM257.545 64V51.332H258.695L266.332 61.5203V51.332H267.697V64H266.583L258.928 53.7758V64H257.545Z" fill="#3491FA"/>
<path d="M246.76 41H288.687V39H246.76V41ZM288.687 74.9375H246.76V76.9375H288.687V74.9375ZM246.76 74.9375C237.389 74.9375 229.792 67.3403 229.792 57.9688H227.792C227.792 68.4449 236.284 76.9375 246.76 76.9375V74.9375ZM305.656 57.9688C305.656 67.3403 298.059 74.9375 288.687 74.9375V76.9375C299.163 76.9375 307.656 68.4449 307.656 57.9688H305.656ZM288.687 41C298.059 41 305.656 48.5972 305.656 57.9688H307.656C307.656 47.4926 299.163 39 288.687 39V41ZM246.76 39C236.284 39 227.792 47.4926 227.792 57.9688H229.792C229.792 48.5972 237.389 41 246.76 41V39Z" fill="#3491FA"/>
<g filter="url(#filter3_d)">
<circle cx="288.687" cy="57.9688" r="11.4792" stroke="#3491FA"/>
</g>
<path d="M276.708 45.9896V45.3396H276.058V45.9896H276.708ZM300.666 45.9896H301.316V45.3396H300.666V45.9896ZM300.666 69.9479V70.5979H301.316V69.9479H300.666ZM276.708 69.9479H276.058V70.5979H276.708V69.9479ZM276.058 45.9896V51.9792H277.358V45.9896H276.058ZM276.058 63.9583V69.9479H277.358V63.9583H276.058ZM276.708 70.5979H282.698V69.2979H276.708V70.5979ZM294.677 70.5979H300.666V69.2979H294.677V70.5979ZM301.316 69.9479V63.9583H300.016V69.9479H301.316ZM301.316 51.9792V45.9896H300.016V51.9792H301.316ZM300.666 45.3396H294.677V46.6396H300.666V45.3396ZM282.698 45.3396H276.708V46.6396H282.698V45.3396Z" fill="#3491FA"/>
<path d="M228.792 40V39.3H228.092V40H228.792ZM306.656 40H307.356V39.3H306.656V40ZM306.656 75.9375V76.6375H307.356V75.9375H306.656ZM228.792 75.9375H228.092V76.6375H228.792V75.9375ZM228.092 40V45.7173H229.492V40H228.092ZM228.092 52.2514V63.6861H229.492V52.2514H228.092ZM228.092 70.2202V75.9375H229.492V70.2202H228.092ZM228.792 76.6375H234.985V75.2375H228.792V76.6375ZM242.064 76.6375H254.451V75.2375H242.064V76.6375ZM261.53 76.6375H273.918V75.2375H261.53V76.6375ZM280.996 76.6375H293.384V75.2375H280.996V76.6375ZM300.462 76.6375H306.656V75.2375H300.462V76.6375ZM307.356 75.9375V70.2202H305.956V75.9375H307.356ZM307.356 63.6861V52.2514H305.956V63.6861H307.356ZM307.356 45.7173V40H305.956V45.7173H307.356ZM306.656 39.3H300.462V40.7H306.656V39.3ZM293.384 39.3H280.996V40.7H293.384V39.3ZM273.918 39.3H261.53V40.7H273.918V39.3ZM254.451 39.3H242.064V40.7H254.451V39.3ZM234.985 39.3H228.792V40.7H234.985V39.3Z" fill="#3491FA"/>
<rect x="240.771" y="121.665" width="53.9063" height="7.48698" rx="3.74349" stroke="#3491FA" stroke-width="1.4974"/>
<circle cx="278.954" cy="125.409" r="15.474" stroke="#3491FA"/>
<path d="M240.022 108.938V108.238H239.322V108.938H240.022ZM295.426 108.938H296.126V108.238H295.426V108.938ZM295.426 141.88V142.58H296.126V141.88H295.426ZM240.022 141.88H239.322V142.58H240.022V141.88ZM239.322 108.938V119.419H240.722V108.938H239.322ZM239.322 131.398V141.88H240.722V131.398H239.322ZM240.022 142.58H245.898V141.18H240.022V142.58ZM252.614 142.58H264.366V141.18H252.614V142.58ZM271.082 142.58H282.834V141.18H271.082V142.58ZM289.549 142.58H295.426V141.18H289.549V142.58ZM296.126 141.88V131.398H294.726V141.88H296.126ZM296.126 119.419V108.938H294.726V119.419H296.126ZM295.426 108.238H289.549V109.637H295.426V108.238ZM282.834 108.238H271.082V109.637H282.834V108.238ZM264.366 108.238H252.614V109.637H264.366V108.238ZM245.898 108.238H240.022V109.637H245.898V108.238Z" fill="#3491FA"/>
<circle cx="364.625" cy="57.9688" r="11.4792" stroke="#3491FA"/>
<path d="M352.646 45.9896V45.3396H351.996V45.9896H352.646ZM376.604 45.9896H377.254V45.3396H376.604V45.9896ZM376.604 69.9479V70.5979H377.254V69.9479H376.604ZM352.646 69.9479H351.996V70.5979H352.646V69.9479ZM351.996 45.9896V51.9792H353.296V45.9896H351.996ZM351.996 63.9583V69.9479H353.296V63.9583H351.996ZM352.646 70.5979H358.636V69.2979H352.646V70.5979ZM370.615 70.5979H376.604V69.2979H370.615V70.5979ZM377.254 69.9479V63.9583H375.954V69.9479H377.254ZM377.254 51.9792V45.9896H375.954V51.9792H377.254ZM376.604 45.3396H370.615V46.6396H376.604V45.3396ZM358.636 45.3396H352.646V46.6396H358.636V45.3396Z" fill="#3491FA"/>
<path d="M386.481 64.1305C385.307 64.1305 384.283 63.8669 383.408 63.3398C382.546 62.8008 381.875 62.0461 381.396 61.0758C380.929 60.1055 380.695 58.9555 380.695 57.6258C380.695 56.2961 380.929 55.1461 381.396 54.1758C381.863 53.2055 382.528 52.4568 383.391 51.9297C384.265 51.4026 385.295 51.1391 386.481 51.1391C387.679 51.1391 388.709 51.4026 389.572 51.9297C390.446 52.4568 391.117 53.2055 391.584 54.1758C392.063 55.1341 392.303 56.2781 392.303 57.6078C392.303 58.9375 392.063 60.0935 391.584 61.0758C391.105 62.0461 390.428 62.8008 389.554 63.3398C388.691 63.8669 387.667 64.1305 386.481 64.1305ZM386.481 62.8187C387.835 62.8187 388.883 62.3635 389.626 61.4531C390.368 60.5427 390.74 59.2669 390.74 57.6258C390.74 55.9846 390.368 54.7148 389.626 53.8164C388.883 52.906 387.835 52.4508 386.481 52.4508C385.151 52.4508 384.115 52.906 383.373 53.8164C382.63 54.7148 382.258 55.9846 382.258 57.6258C382.258 59.2549 382.63 60.5307 383.373 61.4531C384.115 62.3635 385.151 62.8187 386.481 62.8187ZM394.937 63.9688V51.3008H402.772V52.5406H396.411V56.9609H402.412V58.2008H396.411V63.9688H394.937ZM404.781 63.9688V51.3008H412.616V52.5406H406.255V56.9609H412.256V58.2008H406.255V63.9688H404.781Z" fill="#3491FA"/>
<path d="M364.625 41H406.552V39H364.625V41ZM406.552 74.9375H364.625V76.9375H406.552V74.9375ZM364.625 74.9375C355.253 74.9375 347.656 67.3403 347.656 57.9688H345.656C345.656 68.4449 354.149 76.9375 364.625 76.9375V74.9375ZM423.521 57.9688C423.521 67.3403 415.924 74.9375 406.552 74.9375V76.9375C417.028 76.9375 425.521 68.4449 425.521 57.9688H423.521ZM406.552 41C415.924 41 423.521 48.5972 423.521 57.9688H425.521C425.521 47.4926 417.028 39 406.552 39V41ZM364.625 39C354.149 39 345.656 47.4926 345.656 57.9688H347.656C347.656 48.5972 355.253 41 364.625 41V39Z" fill="#3491FA"/>
<path d="M346.656 40V39.3H345.956V40H346.656ZM424.521 40H425.221V39.3H424.521V40ZM424.521 75.9375V76.6375H425.221V75.9375H424.521ZM346.656 75.9375H345.956V76.6375H346.656V75.9375ZM345.956 40V45.7173H347.356V40H345.956ZM345.956 52.2514V63.6861H347.356V52.2514H345.956ZM345.956 70.2202V75.9375H347.356V70.2202H345.956ZM346.656 76.6375H352.85V75.2375H346.656V76.6375ZM359.929 76.6375H372.316V75.2375H359.929V76.6375ZM379.395 76.6375H391.782V75.2375H379.395V76.6375ZM398.861 76.6375H411.248V75.2375H398.861V76.6375ZM418.327 76.6375H424.521V75.2375H418.327V76.6375ZM425.221 75.9375V70.2202H423.821V75.9375H425.221ZM425.221 63.6861V52.2514H423.821V63.6861H425.221ZM425.221 45.7173V40H423.821V45.7173H425.221ZM424.521 39.3H418.327V40.7H424.521V39.3ZM411.248 39.3H398.861V40.7H411.248V39.3ZM391.782 39.3H379.395V40.7H391.782V39.3ZM372.316 39.3H359.929V40.7H372.316V39.3ZM352.85 39.3H346.656V40.7H352.85V39.3Z" fill="#3491FA"/>
<rect x="358.635" y="121.665" width="53.9063" height="7.48698" rx="3.74349" stroke="#3491FA" stroke-width="1.4974"/>
<circle cx="374.358" cy="125.409" r="15.474" stroke="#3491FA"/>
<path d="M357.887 108.938V108.238H357.187V108.938H357.887ZM413.29 108.938H413.99V108.238H413.29V108.938ZM413.29 141.88V142.58H413.99V141.88H413.29ZM357.887 141.88H357.187V142.58H357.887V141.88ZM357.187 108.938V119.419H358.587V108.938H357.187ZM357.187 131.398V141.88H358.587V131.398H357.187ZM357.887 142.58H363.763V141.18H357.887V142.58ZM370.478 142.58H382.231V141.18H370.478V142.58ZM388.946 142.58H400.699V141.18H388.946V142.58ZM407.414 142.58H413.29V141.18H407.414V142.58ZM413.99 141.88V131.398H412.59V141.88H413.99ZM413.99 119.419V108.938H412.59V119.419H413.99ZM413.29 108.238H407.414V109.637H413.29V108.238ZM400.699 108.238H388.946V109.637H400.699V108.238ZM382.231 108.238H370.478V109.637H382.231V108.238ZM363.763 108.238H357.887V109.637H363.763V108.238Z" fill="#3491FA"/>
<circle cx="515.521" cy="91" r="50.4678" stroke="#3491FA" stroke-width="1.06435"/>
<path d="M541.022 65.5H490.022V116.5H541.022V65.5Z" stroke="#3491FA" stroke-width="1.38365" stroke-dasharray="8 8"/>
<path d="M521.897 93.125C527.765 93.125 534.647 97.6786 534.647 105.875V112.25C534.647 113.424 533.696 114.375 532.522 114.375H498.522C497.349 114.375 496.397 113.424 496.397 112.25V105.875C496.397 97.6855 503.279 93.125 509.147 93.125H521.897ZM515.522 68.6875C521.39 68.6875 526.147 73.4445 526.147 79.3125C526.147 85.1806 521.39 89.9375 515.522 89.9375C509.654 89.9375 504.897 85.1806 504.897 79.3125C504.897 73.4445 509.654 68.6875 515.522 68.6875Z" stroke="#3491FA" stroke-width="1.06435"/>
<rect x="464.521" y="40" width="102" height="102" stroke="#3491FA" stroke-width="1.38365" stroke-dasharray="8 8"/>
<g clip-path="url(#clip0)">
<rect x="535.425" y="40.5044" width="41.4763" height="30.8661" rx="15.4053" fill="white"/>
<path d="M547.067 61.9722V60.6335H550.146V50.3825L547.717 51.9125L547.048 50.7459L550.586 48.4891H551.714V60.6335H554.602V61.9722H547.067ZM562.359 62.1444C560.766 62.1444 559.535 61.5706 558.668 60.4231C557.814 59.2629 557.387 57.6436 557.387 55.5654C557.387 53.2321 557.865 51.4407 558.821 50.1912C559.778 48.9417 561.116 48.317 562.838 48.317C563.526 48.317 564.215 48.4636 564.903 48.7569C565.604 49.0501 566.178 49.4454 566.624 49.9426L566.051 51.1666C565.579 50.6821 565.062 50.3187 564.501 50.0765C563.953 49.8342 563.386 49.7131 562.799 49.7131C561.55 49.7131 560.587 50.1785 559.911 51.1092C559.248 52.04 558.917 53.4234 558.917 55.2594V56.1965C559.159 55.355 559.605 54.6984 560.256 54.2266C560.919 53.7549 561.696 53.519 562.589 53.519C563.379 53.519 564.081 53.7039 564.693 54.0736C565.305 54.4306 565.783 54.9279 566.127 55.5654C566.471 56.2029 566.643 56.936 566.643 57.7647C566.643 58.619 566.459 59.3776 566.089 60.0406C565.732 60.6909 565.228 61.2072 564.578 61.5897C563.94 61.9595 563.201 62.1444 562.359 62.1444ZM562.264 60.8056C563.118 60.8056 563.807 60.5315 564.329 59.9832C564.865 59.435 565.133 58.7146 565.133 57.8221C565.133 56.9424 564.865 56.2284 564.329 55.6801C563.807 55.1191 563.118 54.8386 562.264 54.8386C561.41 54.8386 560.715 55.1191 560.179 55.6801C559.656 56.2284 559.395 56.9424 559.395 57.8221C559.395 58.7146 559.656 59.435 560.179 59.9832C560.715 60.5315 561.41 60.8056 562.264 60.8056Z" fill="#3491FA"/>
</g>
<rect x="535.425" y="40.5044" width="41.4763" height="30.8661" rx="15.4053" stroke="#3491FA" stroke-width="1.06435"/>
<rect x="534.893" y="39.9722" width="42.5406" height="31.9304" stroke="#3491FA" stroke-width="1.38365" stroke-dasharray="8 8"/>
<rect x="464.521" y="40" width="113.156" height="102" stroke="#3491FA" stroke-width="1.38365" stroke-dasharray="8 8"/>
<rect x="4.375" y="15.375" width="615.25" height="174.25" stroke="#18A0FB" stroke-width="1.25"/>
<rect x="0.624512" y="11.625" width="8.75" height="8.75" fill="white" stroke="#18A0FB" stroke-width="1.25" stroke-linecap="square"/>
<rect x="0.624512" y="184.375" width="8.75" height="8.75" fill="white" stroke="#18A0FB" stroke-width="1.25" stroke-linecap="square"/>
<rect x="614.375" y="11.625" width="8.75" height="8.75" fill="white" stroke="#18A0FB" stroke-width="1.25" stroke-linecap="square"/>
<rect x="614.375" y="184.375" width="8.75" height="8.75" fill="white" stroke="#18A0FB" stroke-width="1.25" stroke-linecap="square"/>
<path d="M6.62109 11L7.62695 8.16797H11.6699L12.6758 11H13.9453L10.2734 1H9.02344L5.35156 11H6.62109ZM8.00781 7.09375L9.60938 2.58203H9.6875L11.2891 7.09375H8.00781Z" fill="#18A0FB"/>
<path d="M15.4154 11H16.5678V6.25391C16.5678 5.23828 17.3686 4.49609 18.4623 4.49609C18.7699 4.49609 19.0873 4.55469 19.1654 4.57422V3.40234C19.0336 3.39258 18.7309 3.38281 18.56 3.38281C17.6615 3.38281 16.8803 3.89062 16.6068 4.63281H16.5287V3.5H15.4154V11Z" fill="#18A0FB"/>
<path d="M23.4187 11.1562C25.0789 11.1562 26.1727 10.1406 26.368 8.8125H25.2156C25.0008 9.63281 24.3172 10.1211 23.4187 10.1211C22.0516 10.1211 21.1727 8.98828 21.1727 7.25C21.1727 5.55078 22.0711 4.4375 23.4187 4.4375C24.4344 4.4375 25.0398 5.0625 25.2156 5.74609H26.368C26.1727 4.33984 24.9812 3.40234 23.3992 3.40234C21.368 3.40234 20.0203 5.00391 20.0203 7.28906C20.0203 9.53516 21.3094 11.1562 23.4187 11.1562Z" fill="#18A0FB"/>
<path d="M31.1682 11.1562C33.1994 11.1562 34.5666 9.61328 34.5666 7.28906C34.5666 4.94531 33.1994 3.40234 31.1682 3.40234C29.1369 3.40234 27.7697 4.94531 27.7697 7.28906C27.7697 9.61328 29.1369 11.1562 31.1682 11.1562ZM31.1682 10.1211C29.6252 10.1211 28.9221 8.79297 28.9221 7.28906C28.9221 5.78516 29.6252 4.4375 31.1682 4.4375C32.7111 4.4375 33.4143 5.78516 33.4143 7.28906C33.4143 8.79297 32.7111 10.1211 31.1682 10.1211Z" fill="#18A0FB"/>
<path d="M39.6366 11C42.6834 11 44.4022 9.10547 44.4022 5.98047C44.4022 2.875 42.6834 1 39.7733 1H36.5506V11H39.6366ZM37.7616 9.92578V2.07422H39.6952C42.0389 2.07422 43.2303 3.55859 43.2303 5.98047C43.2303 8.42187 42.0389 9.92578 39.5584 9.92578H37.7616Z" fill="#18A0FB"/>
<path d="M49.4905 11.1562C51.0139 11.1562 52.1272 10.3945 52.4788 9.26172L51.3655 8.94922C51.0725 9.73047 50.3938 10.1211 49.4905 10.1211C48.1379 10.1211 47.2053 9.24707 47.1516 7.64062H52.5959V7.15234C52.5959 4.35937 50.9358 3.40234 49.3733 3.40234C47.342 3.40234 45.9944 5.00391 45.9944 7.30859C45.9944 9.61328 47.3225 11.1562 49.4905 11.1562ZM47.1516 6.64453C47.2297 5.47754 48.0549 4.4375 49.3733 4.4375C50.6233 4.4375 51.4241 5.375 51.4241 6.64453H47.1516Z" fill="#18A0FB"/>
<path d="M59.7301 5.17969C59.3688 4.11523 58.5582 3.40234 57.0739 3.40234C55.4918 3.40234 54.32 4.30078 54.32 5.57031C54.32 6.60547 54.9352 7.29883 56.3122 7.62109L57.5622 7.91406C58.319 8.08984 58.6754 8.45117 58.6754 8.96875C58.6754 9.61328 57.9918 10.1406 56.9176 10.1406C55.9752 10.1406 55.3844 9.73535 55.1793 8.92969L54.0856 9.20312C54.3541 10.4775 55.4039 11.1562 56.9372 11.1562C58.6803 11.1562 59.8668 10.2041 59.8668 8.91016C59.8668 7.86523 59.2125 7.20605 57.8747 6.87891L56.7614 6.60547C55.8727 6.38574 55.4723 6.08789 55.4723 5.51172C55.4723 4.86719 56.1559 4.39844 57.0739 4.39844C58.0797 4.39844 58.4948 4.95508 58.695 5.47266L59.7301 5.17969Z" fill="#18A0FB"/>
<path d="M61.6702 11H62.8226V3.5H61.6702V11ZM62.2561 2.25C62.7054 2.25 63.0765 1.89844 63.0765 1.46875C63.0765 1.03906 62.7054 0.6875 62.2561 0.6875C61.8069 0.6875 61.4358 1.03906 61.4358 1.46875C61.4358 1.89844 61.8069 2.25 62.2561 2.25Z" fill="#18A0FB"/>
<path d="M68.0292 13.9687C69.8261 13.9687 71.2714 13.1484 71.2714 11.2148V3.5H70.1581V4.69141H70.041C69.7871 4.30078 69.3183 3.40234 67.8535 3.40234C65.9589 3.40234 64.6503 4.90625 64.6503 7.21094C64.6503 9.55469 66.0175 10.8828 67.8339 10.8828C69.2988 10.8828 69.7675 10.0234 70.0214 9.61328H70.1191V11.1367C70.1191 12.3867 69.2402 12.9531 68.0292 12.9531C66.6669 12.9531 66.1884 12.2354 65.8808 11.8203L64.9628 12.4648C65.4316 13.251 66.3544 13.9687 68.0292 13.9687ZM67.9902 9.84766C66.5449 9.84766 65.8027 8.75391 65.8027 7.19141C65.8027 5.66797 66.5253 4.4375 67.9902 4.4375C69.3964 4.4375 70.1386 5.57031 70.1386 7.19141C70.1386 8.85156 69.3769 9.84766 67.9902 9.84766Z" fill="#18A0FB"/>
<path d="M74.6019 6.48828C74.6019 5.17969 75.4124 4.4375 76.516 4.4375C77.5853 4.4375 78.2347 5.13574 78.2347 6.3125V11H79.3871V6.23437C79.3871 4.32031 78.3665 3.40234 76.848 3.40234C75.7152 3.40234 75.0121 3.91016 74.6605 4.67187H74.5628V3.5H73.4496V11H74.6019V6.48828Z" fill="#18A0FB"/>
<defs>
<filter id="filter0_d" x="54.4556" y="42.9948" width="32.9427" height="32.9427" filterUnits="userSpaceOnUse" color-interpolation-filters="sRGB">
<feFlood flood-opacity="0" result="BackgroundImageFix"/>
<feColorMatrix in="SourceAlpha" type="matrix" values="0 0 0 0 0 0 0 0 0 0 0 0 0 0 0 0 0 0 127 0"/>
<feOffset dy="1.4974"/>
<feGaussianBlur stdDeviation="2.24609"/>
<feColorMatrix type="matrix" values="0 0 0 0 0 0 0 0 0 0 0 0 0 0 0 0 0 0 0.08 0"/>
<feBlend mode="normal" in2="BackgroundImageFix" result="effect1_dropShadow"/>
<feBlend mode="normal" in="SourceGraphic" in2="effect1_dropShadow" result="shape"/>
</filter>
<filter id="filter1_d" x="130.445" y="43.0157" width="32.9427" height="32.9427" filterUnits="userSpaceOnUse" color-interpolation-filters="sRGB">
<feFlood flood-opacity="0" result="BackgroundImageFix"/>
<feColorMatrix in="SourceAlpha" type="matrix" values="0 0 0 0 0 0 0 0 0 0 0 0 0 0 0 0 0 0 127 0"/>
<feOffset dy="1.4974"/>
<feGaussianBlur stdDeviation="2.24609"/>
<feColorMatrix type="matrix" values="0 0 0 0 0 0 0 0 0 0 0 0 0 0 0 0 0 0 0.08 0"/>
<feBlend mode="normal" in2="BackgroundImageFix" result="effect1_dropShadow"/>
<feBlend mode="normal" in="SourceGraphic" in2="effect1_dropShadow" result="shape"/>
</filter>
<filter id="filter2_d" x="130.394" y="111.932" width="32.9427" height="32.9427" filterUnits="userSpaceOnUse" color-interpolation-filters="sRGB">
<feFlood flood-opacity="0" result="BackgroundImageFix"/>
<feColorMatrix in="SourceAlpha" type="matrix" values="0 0 0 0 0 0 0 0 0 0 0 0 0 0 0 0 0 0 127 0"/>
<feOffset dy="1.4974"/>
<feGaussianBlur stdDeviation="2.24609"/>
<feColorMatrix type="matrix" values="0 0 0 0 0 0 0 0 0 0 0 0 0 0 0 0 0 0 0.1 0"/>
<feBlend mode="normal" in2="BackgroundImageFix" result="effect1_dropShadow"/>
<feBlend mode="normal" in="SourceGraphic" in2="effect1_dropShadow" result="shape"/>
</filter>
<filter id="filter3_d" x="272.216" y="42.9948" width="32.9427" height="32.9427" filterUnits="userSpaceOnUse" color-interpolation-filters="sRGB">
<feFlood flood-opacity="0" result="BackgroundImageFix"/>
<feColorMatrix in="SourceAlpha" type="matrix" values="0 0 0 0 0 0 0 0 0 0 0 0 0 0 0 0 0 0 127 0"/>
<feOffset dy="1.4974"/>
<feGaussianBlur stdDeviation="2.24609"/>
<feColorMatrix type="matrix" values="0 0 0 0 0 0 0 0 0 0 0 0 0 0 0 0 0 0 0.08 0"/>
<feBlend mode="normal" in2="BackgroundImageFix" result="effect1_dropShadow"/>
<feBlend mode="normal" in="SourceGraphic" in2="effect1_dropShadow" result="shape"/>
</filter>
<clipPath id="clip0">
</clipPath>
</defs>
</svg>
