<svg width="20" height="20" viewBox="0 0 20 20" fill="none" xmlns="http://www.w3.org/2000/svg">
<mask id="path-1-outside-1" maskUnits="userSpaceOnUse" x="-0.625" y="0.436523" width="21" height="19" fill="black">
<rect fill="white" x="-0.625" y="0.436523" width="21" height="19"/>
<path d="M16.2023 6.98773C15.9975 6.91744 15.7909 6.85233 15.5827 6.79245C15.6177 6.64958 15.6499 6.50844 15.6784 6.36978C16.1475 4.09279 15.8409 2.2584 14.7935 1.65443C13.7892 1.07542 12.1469 1.67917 10.4882 3.12269C10.3248 3.26521 10.1649 3.41184 10.0089 3.56243C9.9044 3.46229 9.79808 3.3641 9.68997 3.26789C7.9516 1.72443 6.20918 1.07392 5.16291 1.67962C4.15958 2.26043 3.86248 3.98488 4.28478 6.14284C4.32679 6.35656 4.37423 6.56918 4.42705 6.78049C4.18041 6.85057 3.94242 6.92517 3.71465 7.00457C1.67656 7.71517 0.375 8.82874 0.375 9.98381C0.375 11.1768 1.77228 12.3734 3.89504 13.0989C4.06714 13.1575 4.24067 13.2118 4.41547 13.2617C4.3587 13.4893 4.3083 13.7185 4.26433 13.9489C3.86173 16.0694 4.17612 17.7531 5.17675 18.3302C6.21023 18.9262 7.94484 18.3137 9.6338 16.8372C9.77075 16.7172 9.90469 16.5937 10.0355 16.467C10.2045 16.6301 10.378 16.7884 10.5558 16.9418C12.1919 18.3496 13.8077 18.9181 14.8074 18.3394C15.8399 17.7416 16.1755 15.9329 15.7398 13.7323C15.7055 13.5599 15.667 13.3884 15.6244 13.2178C15.7462 13.1817 15.8658 13.1446 15.9823 13.1059C18.1891 12.3748 19.625 11.1927 19.625 9.98381C19.625 8.82453 18.2814 7.70344 16.2023 6.98773ZM15.7237 12.3254C15.6184 12.3602 15.5105 12.3938 15.4004 12.4265C15.1567 11.6553 14.828 10.8352 14.4256 9.9878C14.8096 9.16065 15.1257 8.35102 15.3625 7.58478C15.5594 7.64178 15.7505 7.70186 15.9347 7.76525C17.7161 8.37854 18.8027 9.28517 18.8027 9.98381C18.8027 10.7279 17.6292 11.694 15.7237 12.3254ZM14.9331 13.892C15.1258 14.865 15.1532 15.7448 15.0256 16.4326C14.911 17.0507 14.6805 17.4627 14.3953 17.6277C13.7887 17.9789 12.4914 17.5224 11.0922 16.3184C10.9268 16.1758 10.7654 16.0286 10.6082 15.877C11.1506 15.2838 11.6927 14.5942 12.2218 13.8283C13.1524 13.7457 14.0316 13.6106 14.8289 13.4263C14.8681 13.5848 14.903 13.7401 14.9331 13.892ZM6.93775 17.567C6.34506 17.7763 5.87298 17.7823 5.58761 17.6178C4.98041 17.2676 4.72798 15.9157 5.0723 14.1023C5.11323 13.888 5.16009 13.6749 5.21284 13.4632C6.00134 13.6376 6.87413 13.7631 7.80693 13.8387C8.33961 14.5882 8.89733 15.277 9.45942 15.8803C9.33997 15.9958 9.21769 16.1085 9.09269 16.218C8.34578 16.8709 7.59736 17.3341 6.93775 17.567ZM4.16108 12.3208C3.22242 12 2.44723 11.583 1.9159 11.128C1.43841 10.7191 1.19741 10.3132 1.19741 9.98381C1.19741 9.28284 2.2424 8.38877 3.98535 7.78112C4.19688 7.70743 4.41825 7.63787 4.64797 7.5726C4.8889 8.35614 5.20487 9.17539 5.58618 10.0038C5.19991 10.8445 4.87942 11.6768 4.63617 12.4696C4.47661 12.4239 4.3182 12.3743 4.16108 12.3208ZM5.09185 5.98485C4.73009 4.13602 4.97034 2.74137 5.57498 2.39134C6.21895 2.01852 7.643 2.55008 9.14397 3.88284C9.24185 3.96995 9.33814 4.05882 9.4328 4.14941C8.8735 4.74999 8.32089 5.43374 7.79294 6.17878C6.88759 6.2627 6.02096 6.39745 5.22419 6.57799C5.1751 6.38145 5.13098 6.18369 5.09185 5.98493V5.98485ZM13.3954 8.03528C13.2072 7.7102 13.0121 7.38922 12.81 7.07255C13.4242 7.15023 14.0127 7.25332 14.5653 7.37935C14.3994 7.91113 14.1927 8.46705 13.9493 9.03703C13.7713 8.69946 13.5867 8.36547 13.3954 8.03528ZM10.0092 4.73713C10.3885 5.14808 10.7684 5.60684 11.1421 6.10464C10.3841 6.06884 9.62486 6.06869 8.86688 6.10419C9.2409 5.61098 9.62402 5.15281 10.0092 4.73713ZM6.60132 8.04092C6.41246 8.36846 6.23126 8.70036 6.05788 9.03635C5.81846 8.4684 5.61356 7.90993 5.44625 7.37063C5.99547 7.24776 6.58117 7.14729 7.19145 7.07105C6.98718 7.38965 6.79041 7.713 6.60132 8.04084V8.04092ZM7.20897 12.9551C6.57846 12.8847 5.98397 12.7894 5.43489 12.6699C5.60483 12.1209 5.81425 11.5506 6.05886 10.9705C6.23293 11.3067 6.41488 11.6388 6.60455 11.9665C6.79961 12.3034 7.00159 12.6333 7.20897 12.9551ZM10.032 15.2884C9.64214 14.8679 9.25338 14.4027 8.87372 13.9023C9.24233 13.9168 9.61808 13.9241 10 13.9241C10.3924 13.9241 10.7802 13.9153 11.162 13.8983C10.7871 14.4077 10.4087 14.8736 10.032 15.2884ZM13.957 10.9408C14.2143 11.5273 14.4312 12.0947 14.6034 12.6342C14.0453 12.7616 13.4427 12.8642 12.8077 12.9403C13.0112 12.6178 13.2082 12.2912 13.3987 11.9609C13.5923 11.625 13.7785 11.2849 13.957 10.9408ZM12.6864 11.55C12.3948 12.0565 12.0868 12.5535 11.7629 13.04C11.1762 13.0815 10.5882 13.1022 10 13.1019C9.40092 13.1019 8.81823 13.0832 8.25712 13.0468C7.92478 12.5614 7.61091 12.0636 7.3162 11.5545H7.31628C7.02296 11.0481 6.74897 10.5307 6.49492 10.0034C6.74832 9.47609 7.02148 8.95845 7.3138 8.45163L7.31372 8.45171C7.60593 7.94476 7.91729 7.44909 8.24712 6.96577C8.81958 6.92246 9.40663 6.8999 9.99992 6.8999H10C10.596 6.8999 11.1838 6.92269 11.7561 6.9663C12.0826 7.44889 12.392 7.94286 12.6836 8.44727C12.9769 8.95297 13.2537 9.46809 13.5135 9.99178C13.2564 10.5208 12.9805 11.0406 12.6864 11.55ZM14.3828 2.36683C15.0273 2.73859 15.278 4.23776 14.873 6.20374C14.8472 6.32917 14.8181 6.45693 14.7866 6.58649C13.9878 6.40211 13.1206 6.26503 12.2126 6.17983C11.6837 5.4266 11.1356 4.7418 10.5854 4.14896C10.7296 4.00996 10.8772 3.87457 11.0281 3.7429C12.4493 2.50616 13.7776 2.01785 14.3828 2.36683ZM10 8.26485C10.9493 8.26485 11.719 9.03447 11.719 9.98381C11.719 10.9332 10.9493 11.7028 10 11.7028C9.05066 11.7028 8.28103 10.9332 8.28103 9.98381C8.28103 9.03447 9.05066 8.26485 10 8.26485Z"/>
</mask>
<path d="M16.2023 6.98773C15.9975 6.91744 15.7909 6.85233 15.5827 6.79245C15.6177 6.64958 15.6499 6.50844 15.6784 6.36978C16.1475 4.09279 15.8409 2.2584 14.7935 1.65443C13.7892 1.07542 12.1469 1.67917 10.4882 3.12269C10.3248 3.26521 10.1649 3.41184 10.0089 3.56243C9.9044 3.46229 9.79808 3.3641 9.68997 3.26789C7.9516 1.72443 6.20918 1.07392 5.16291 1.67962C4.15958 2.26043 3.86248 3.98488 4.28478 6.14284C4.32679 6.35656 4.37423 6.56918 4.42705 6.78049C4.18041 6.85057 3.94242 6.92517 3.71465 7.00457C1.67656 7.71517 0.375 8.82874 0.375 9.98381C0.375 11.1768 1.77228 12.3734 3.89504 13.0989C4.06714 13.1575 4.24067 13.2118 4.41547 13.2617C4.3587 13.4893 4.3083 13.7185 4.26433 13.9489C3.86173 16.0694 4.17612 17.7531 5.17675 18.3302C6.21023 18.9262 7.94484 18.3137 9.6338 16.8372C9.77075 16.7172 9.90469 16.5937 10.0355 16.467C10.2045 16.6301 10.378 16.7884 10.5558 16.9418C12.1919 18.3496 13.8077 18.9181 14.8074 18.3394C15.8399 17.7416 16.1755 15.9329 15.7398 13.7323C15.7055 13.5599 15.667 13.3884 15.6244 13.2178C15.7462 13.1817 15.8658 13.1446 15.9823 13.1059C18.1891 12.3748 19.625 11.1927 19.625 9.98381C19.625 8.82453 18.2814 7.70344 16.2023 6.98773ZM15.7237 12.3254C15.6184 12.3602 15.5105 12.3938 15.4004 12.4265C15.1567 11.6553 14.828 10.8352 14.4256 9.9878C14.8096 9.16065 15.1257 8.35102 15.3625 7.58478C15.5594 7.64178 15.7505 7.70186 15.9347 7.76525C17.7161 8.37854 18.8027 9.28517 18.8027 9.98381C18.8027 10.7279 17.6292 11.694 15.7237 12.3254ZM14.9331 13.892C15.1258 14.865 15.1532 15.7448 15.0256 16.4326C14.911 17.0507 14.6805 17.4627 14.3953 17.6277C13.7887 17.9789 12.4914 17.5224 11.0922 16.3184C10.9268 16.1758 10.7654 16.0286 10.6082 15.877C11.1506 15.2838 11.6927 14.5942 12.2218 13.8283C13.1524 13.7457 14.0316 13.6106 14.8289 13.4263C14.8681 13.5848 14.903 13.7401 14.9331 13.892ZM6.93775 17.567C6.34506 17.7763 5.87298 17.7823 5.58761 17.6178C4.98041 17.2676 4.72798 15.9157 5.0723 14.1023C5.11323 13.888 5.16009 13.6749 5.21284 13.4632C6.00134 13.6376 6.87413 13.7631 7.80693 13.8387C8.33961 14.5882 8.89733 15.277 9.45942 15.8803C9.33997 15.9958 9.21769 16.1085 9.09269 16.218C8.34578 16.8709 7.59736 17.3341 6.93775 17.567ZM4.16108 12.3208C3.22242 12 2.44723 11.583 1.9159 11.128C1.43841 10.7191 1.19741 10.3132 1.19741 9.98381C1.19741 9.28284 2.2424 8.38877 3.98535 7.78112C4.19688 7.70743 4.41825 7.63787 4.64797 7.5726C4.8889 8.35614 5.20487 9.17539 5.58618 10.0038C5.19991 10.8445 4.87942 11.6768 4.63617 12.4696C4.47661 12.4239 4.3182 12.3743 4.16108 12.3208ZM5.09185 5.98485C4.73009 4.13602 4.97034 2.74137 5.57498 2.39134C6.21895 2.01852 7.643 2.55008 9.14397 3.88284C9.24185 3.96995 9.33814 4.05882 9.4328 4.14941C8.8735 4.74999 8.32089 5.43374 7.79294 6.17878C6.88759 6.2627 6.02096 6.39745 5.22419 6.57799C5.1751 6.38145 5.13098 6.18369 5.09185 5.98493V5.98485ZM13.3954 8.03528C13.2072 7.7102 13.0121 7.38922 12.81 7.07255C13.4242 7.15023 14.0127 7.25332 14.5653 7.37935C14.3994 7.91113 14.1927 8.46705 13.9493 9.03703C13.7713 8.69946 13.5867 8.36547 13.3954 8.03528ZM10.0092 4.73713C10.3885 5.14808 10.7684 5.60684 11.1421 6.10464C10.3841 6.06884 9.62486 6.06869 8.86688 6.10419C9.2409 5.61098 9.62402 5.15281 10.0092 4.73713ZM6.60132 8.04092C6.41246 8.36846 6.23126 8.70036 6.05788 9.03635C5.81846 8.4684 5.61356 7.90993 5.44625 7.37063C5.99547 7.24776 6.58117 7.14729 7.19145 7.07105C6.98718 7.38965 6.79041 7.713 6.60132 8.04084V8.04092ZM7.20897 12.9551C6.57846 12.8847 5.98397 12.7894 5.43489 12.6699C5.60483 12.1209 5.81425 11.5506 6.05886 10.9705C6.23293 11.3067 6.41488 11.6388 6.60455 11.9665C6.79961 12.3034 7.00159 12.6333 7.20897 12.9551ZM10.032 15.2884C9.64214 14.8679 9.25338 14.4027 8.87372 13.9023C9.24233 13.9168 9.61808 13.9241 10 13.9241C10.3924 13.9241 10.7802 13.9153 11.162 13.8983C10.7871 14.4077 10.4087 14.8736 10.032 15.2884ZM13.957 10.9408C14.2143 11.5273 14.4312 12.0947 14.6034 12.6342C14.0453 12.7616 13.4427 12.8642 12.8077 12.9403C13.0112 12.6178 13.2082 12.2912 13.3987 11.9609C13.5923 11.625 13.7785 11.2849 13.957 10.9408ZM12.6864 11.55C12.3948 12.0565 12.0868 12.5535 11.7629 13.04C11.1762 13.0815 10.5882 13.1022 10 13.1019C9.40092 13.1019 8.81823 13.0832 8.25712 13.0468C7.92478 12.5614 7.61091 12.0636 7.3162 11.5545H7.31628C7.02296 11.0481 6.74897 10.5307 6.49492 10.0034C6.74832 9.47609 7.02148 8.95845 7.3138 8.45163L7.31372 8.45171C7.60593 7.94476 7.91729 7.44909 8.24712 6.96577C8.81958 6.92246 9.40663 6.8999 9.99992 6.8999H10C10.596 6.8999 11.1838 6.92269 11.7561 6.9663C12.0826 7.44889 12.392 7.94286 12.6836 8.44727C12.9769 8.95297 13.2537 9.46809 13.5135 9.99178C13.2564 10.5208 12.9805 11.0406 12.6864 11.55ZM14.3828 2.36683C15.0273 2.73859 15.278 4.23776 14.873 6.20374C14.8472 6.32917 14.8181 6.45693 14.7866 6.58649C13.9878 6.40211 13.1206 6.26503 12.2126 6.17983C11.6837 5.4266 11.1356 4.7418 10.5854 4.14896C10.7296 4.00996 10.8772 3.87457 11.0281 3.7429C12.4493 2.50616 13.7776 2.01785 14.3828 2.36683ZM10 8.26485C10.9493 8.26485 11.719 9.03447 11.719 9.98381C11.719 10.9332 10.9493 11.7028 10 11.7028C9.05066 11.7028 8.28103 10.9332 8.28103 9.98381C8.28103 9.03447 9.05066 8.26485 10 8.26485Z" fill="#37D1FB"/>
<path d="M16.2023 6.98773C15.9975 6.91744 15.7909 6.85233 15.5827 6.79245C15.6177 6.64958 15.6499 6.50844 15.6784 6.36978C16.1475 4.09279 15.8409 2.2584 14.7935 1.65443C13.7892 1.07542 12.1469 1.67917 10.4882 3.12269C10.3248 3.26521 10.1649 3.41184 10.0089 3.56243C9.9044 3.46229 9.79808 3.3641 9.68997 3.26789C7.9516 1.72443 6.20918 1.07392 5.16291 1.67962C4.15958 2.26043 3.86248 3.98488 4.28478 6.14284C4.32679 6.35656 4.37423 6.56918 4.42705 6.78049C4.18041 6.85057 3.94242 6.92517 3.71465 7.00457C1.67656 7.71517 0.375 8.82874 0.375 9.98381C0.375 11.1768 1.77228 12.3734 3.89504 13.0989C4.06714 13.1575 4.24067 13.2118 4.41547 13.2617C4.3587 13.4893 4.3083 13.7185 4.26433 13.9489C3.86173 16.0694 4.17612 17.7531 5.17675 18.3302C6.21023 18.9262 7.94484 18.3137 9.6338 16.8372C9.77075 16.7172 9.90469 16.5937 10.0355 16.467C10.2045 16.6301 10.378 16.7884 10.5558 16.9418C12.1919 18.3496 13.8077 18.9181 14.8074 18.3394C15.8399 17.7416 16.1755 15.9329 15.7398 13.7323C15.7055 13.5599 15.667 13.3884 15.6244 13.2178C15.7462 13.1817 15.8658 13.1446 15.9823 13.1059C18.1891 12.3748 19.625 11.1927 19.625 9.98381C19.625 8.82453 18.2814 7.70344 16.2023 6.98773ZM15.7237 12.3254C15.6184 12.3602 15.5105 12.3938 15.4004 12.4265C15.1567 11.6553 14.828 10.8352 14.4256 9.9878C14.8096 9.16065 15.1257 8.35102 15.3625 7.58478C15.5594 7.64178 15.7505 7.70186 15.9347 7.76525C17.7161 8.37854 18.8027 9.28517 18.8027 9.98381C18.8027 10.7279 17.6292 11.694 15.7237 12.3254ZM14.9331 13.892C15.1258 14.865 15.1532 15.7448 15.0256 16.4326C14.911 17.0507 14.6805 17.4627 14.3953 17.6277C13.7887 17.9789 12.4914 17.5224 11.0922 16.3184C10.9268 16.1758 10.7654 16.0286 10.6082 15.877C11.1506 15.2838 11.6927 14.5942 12.2218 13.8283C13.1524 13.7457 14.0316 13.6106 14.8289 13.4263C14.8681 13.5848 14.903 13.7401 14.9331 13.892ZM6.93775 17.567C6.34506 17.7763 5.87298 17.7823 5.58761 17.6178C4.98041 17.2676 4.72798 15.9157 5.0723 14.1023C5.11323 13.888 5.16009 13.6749 5.21284 13.4632C6.00134 13.6376 6.87413 13.7631 7.80693 13.8387C8.33961 14.5882 8.89733 15.277 9.45942 15.8803C9.33997 15.9958 9.21769 16.1085 9.09269 16.218C8.34578 16.8709 7.59736 17.3341 6.93775 17.567ZM4.16108 12.3208C3.22242 12 2.44723 11.583 1.9159 11.128C1.43841 10.7191 1.19741 10.3132 1.19741 9.98381C1.19741 9.28284 2.2424 8.38877 3.98535 7.78112C4.19688 7.70743 4.41825 7.63787 4.64797 7.5726C4.8889 8.35614 5.20487 9.17539 5.58618 10.0038C5.19991 10.8445 4.87942 11.6768 4.63617 12.4696C4.47661 12.4239 4.3182 12.3743 4.16108 12.3208ZM5.09185 5.98485C4.73009 4.13602 4.97034 2.74137 5.57498 2.39134C6.21895 2.01852 7.643 2.55008 9.14397 3.88284C9.24185 3.96995 9.33814 4.05882 9.4328 4.14941C8.8735 4.74999 8.32089 5.43374 7.79294 6.17878C6.88759 6.2627 6.02096 6.39745 5.22419 6.57799C5.1751 6.38145 5.13098 6.18369 5.09185 5.98493V5.98485ZM13.3954 8.03528C13.2072 7.7102 13.0121 7.38922 12.81 7.07255C13.4242 7.15023 14.0127 7.25332 14.5653 7.37935C14.3994 7.91113 14.1927 8.46705 13.9493 9.03703C13.7713 8.69946 13.5867 8.36547 13.3954 8.03528ZM10.0092 4.73713C10.3885 5.14808 10.7684 5.60684 11.1421 6.10464C10.3841 6.06884 9.62486 6.06869 8.86688 6.10419C9.2409 5.61098 9.62402 5.15281 10.0092 4.73713ZM6.60132 8.04092C6.41246 8.36846 6.23126 8.70036 6.05788 9.03635C5.81846 8.4684 5.61356 7.90993 5.44625 7.37063C5.99547 7.24776 6.58117 7.14729 7.19145 7.07105C6.98718 7.38965 6.79041 7.713 6.60132 8.04084V8.04092ZM7.20897 12.9551C6.57846 12.8847 5.98397 12.7894 5.43489 12.6699C5.60483 12.1209 5.81425 11.5506 6.05886 10.9705C6.23293 11.3067 6.41488 11.6388 6.60455 11.9665C6.79961 12.3034 7.00159 12.6333 7.20897 12.9551ZM10.032 15.2884C9.64214 14.8679 9.25338 14.4027 8.87372 13.9023C9.24233 13.9168 9.61808 13.9241 10 13.9241C10.3924 13.9241 10.7802 13.9153 11.162 13.8983C10.7871 14.4077 10.4087 14.8736 10.032 15.2884ZM13.957 10.9408C14.2143 11.5273 14.4312 12.0947 14.6034 12.6342C14.0453 12.7616 13.4427 12.8642 12.8077 12.9403C13.0112 12.6178 13.2082 12.2912 13.3987 11.9609C13.5923 11.625 13.7785 11.2849 13.957 10.9408ZM12.6864 11.55C12.3948 12.0565 12.0868 12.5535 11.7629 13.04C11.1762 13.0815 10.5882 13.1022 10 13.1019C9.40092 13.1019 8.81823 13.0832 8.25712 13.0468C7.92478 12.5614 7.61091 12.0636 7.3162 11.5545H7.31628C7.02296 11.0481 6.74897 10.5307 6.49492 10.0034C6.74832 9.47609 7.02148 8.95845 7.3138 8.45163L7.31372 8.45171C7.60593 7.94476 7.91729 7.44909 8.24712 6.96577C8.81958 6.92246 9.40663 6.8999 9.99992 6.8999H10C10.596 6.8999 11.1838 6.92269 11.7561 6.9663C12.0826 7.44889 12.392 7.94286 12.6836 8.44727C12.9769 8.95297 13.2537 9.46809 13.5135 9.99178C13.2564 10.5208 12.9805 11.0406 12.6864 11.55ZM14.3828 2.36683C15.0273 2.73859 15.278 4.23776 14.873 6.20374C14.8472 6.32917 14.8181 6.45693 14.7866 6.58649C13.9878 6.40211 13.1206 6.26503 12.2126 6.17983C11.6837 5.4266 11.1356 4.7418 10.5854 4.14896C10.7296 4.00996 10.8772 3.87457 11.0281 3.7429C12.4493 2.50616 13.7776 2.01785 14.3828 2.36683ZM10 8.26485C10.9493 8.26485 11.719 9.03447 11.719 9.98381C11.719 10.9332 10.9493 11.7028 10 11.7028C9.05066 11.7028 8.28103 10.9332 8.28103 9.98381C8.28103 9.03447 9.05066 8.26485 10 8.26485Z" stroke="#37D1FB" stroke-width="0.2" mask="url(#path-1-outside-1)"/>
</svg>
