<svg viewBox="0 0 18 26" fill="none" xmlns="http://www.w3.org/2000/svg">
<path opacity="0.8" d="M13.1288 17.3334C15.522 17.3334 17.4621 15.3933 17.4621 13.0001C17.4621 10.6068 15.522 8.66675 13.1288 8.66675C10.7355 8.66675 8.79541 10.6068 8.79541 13.0001C8.79541 15.3933 10.7355 17.3334 13.1288 17.3334Z" fill="white"/>
<path opacity="0.6" fill-rule="evenodd" clip-rule="evenodd" d="M4.46274 26C5.61201 26 6.71421 25.5435 7.52687 24.7308C8.33953 23.9182 8.79608 22.816 8.79608 21.6667V17.3334H4.46274C3.31346 17.3334 2.21126 17.7899 1.3986 18.6026C0.585942 19.4152 0.129395 20.5174 0.129395 21.6667C0.129395 22.816 0.585942 23.9182 1.3986 24.7308C2.21126 25.5435 3.31346 26 4.46274 26Z" fill="white"/>
<path opacity="0.9" fill-rule="evenodd" clip-rule="evenodd" d="M4.46274 17.3333H8.79608V8.66663H4.46274C3.31346 8.66663 2.21126 9.12317 1.3986 9.93583C0.585942 10.7485 0.129395 11.8507 0.129395 13C0.129395 14.1492 0.585942 15.2514 1.3986 16.0641C2.21126 16.8767 3.31346 17.3333 4.46274 17.3333Z" fill="white"/>
<path fill-rule="evenodd" clip-rule="evenodd" d="M4.46274 8.66668H8.79608V0H4.46274C3.31346 0 2.21126 0.456547 1.3986 1.26921C0.585942 2.08187 0.129395 3.18407 0.129395 4.33334C0.129395 5.48262 0.585942 6.58482 1.3986 7.39748C2.21126 8.21014 3.31346 8.66668 4.46274 8.66668Z" fill="white"/>
<path opacity="0.6" fill-rule="evenodd" clip-rule="evenodd" d="M13.1288 8.66668H8.79541V0H13.1288C14.278 0 15.3802 0.456547 16.1929 1.26921C17.0055 2.08187 17.4621 3.18407 17.4621 4.33334C17.4621 5.48262 17.0055 6.58482 16.1929 7.39748C15.3802 8.21014 14.278 8.66668 13.1288 8.66668Z" fill="white"/>
</svg>
