<svg viewBox="0 0 20 20" fill="none" xmlns="http://www.w3.org/2000/svg">
<path d="M16.5879 16.8018C17.1218 16.8018 17.5545 16.369 17.5545 15.8352C17.5545 15.3013 17.1218 14.8685 16.5879 14.8685C16.0541 14.8685 15.6213 15.3013 15.6213 15.8352C15.6213 16.369 16.0541 16.8018 16.5879 16.8018Z" fill="#37D1FB"/>
<path fill-rule="evenodd" clip-rule="evenodd" d="M13.8549 8.18164L19.1421 8.18182C19.5537 8.18182 19.8884 8.51648 19.8884 8.92809V18.1495C19.8884 18.5611 19.5537 18.8957 19.1421 18.8957L13.8549 18.8955C13.4433 18.8955 13.1086 18.5609 13.1086 18.1493V8.92791C13.1086 8.51629 13.4433 8.18164 13.8549 8.18164ZM13.9482 18.056L19.0488 18.0562V9.02137L13.9482 9.02119V18.056Z" fill="#37D1FB"/>
<path fill-rule="evenodd" clip-rule="evenodd" d="M16.2023 6.98773C15.9975 6.91744 15.7909 6.85233 15.5827 6.79245C15.6177 6.64958 15.6499 6.50843 15.6784 6.36977C16.1475 4.09278 15.8409 2.2584 14.7935 1.65443C13.7892 1.07542 12.1469 1.67917 10.4882 3.12269C10.3248 3.26521 10.1649 3.41184 10.0089 3.56243C9.9044 3.46229 9.79808 3.3641 9.68997 3.26789C7.9516 1.72443 6.20918 1.07392 5.16291 1.67962C4.15958 2.26043 3.86248 3.98488 4.28478 6.14283C4.32679 6.35656 4.37423 6.56918 4.42705 6.78049C4.18041 6.85057 3.94242 6.92517 3.71465 7.00457C1.67656 7.71517 0.375 8.82874 0.375 9.98381C0.375 11.1768 1.77228 12.3734 3.89504 13.0989C4.06714 13.1575 4.24067 13.2118 4.41547 13.2617C4.3587 13.4893 4.3083 13.7185 4.26433 13.9489C3.86173 16.0694 4.17612 17.7531 5.17675 18.3302C6.21023 18.9262 7.94484 18.3136 9.6338 16.8372C9.77075 16.7172 9.90469 16.5937 10.0355 16.467C10.2045 16.6301 10.378 16.7884 10.5558 16.9418C10.994 17.3188 11.4307 17.6356 11.8545 17.8863V16.9095C11.6064 16.7383 11.351 16.5411 11.0922 16.3184C10.9268 16.1758 10.7654 16.0286 10.6082 15.877C11.0258 15.4204 11.4431 14.9066 11.8545 14.3448V12.9014C11.8241 12.9477 11.7936 12.9939 11.7629 13.04C11.1762 13.0815 10.5882 13.1022 10 13.1019C9.40092 13.1019 8.81823 13.0832 8.25712 13.0468C7.92478 12.5614 7.61091 12.0636 7.3162 11.5545C7.02288 11.0481 6.74897 10.5307 6.49492 10.0034C6.74833 9.47608 7.02148 8.95845 7.3138 8.45163C7.60601 7.94468 7.91729 7.44909 8.24712 6.96577C8.81958 6.92246 9.40663 6.8999 9.99992 6.8999C10.5959 6.8999 11.1838 6.92269 11.7561 6.9663C11.8786 7.14733 11.9987 7.32996 12.1163 7.51413C12.2894 7.29739 12.536 7.14194 12.8184 7.0856C12.8156 7.08125 12.8128 7.0769 12.81 7.07255C12.8257 7.07453 12.8414 7.07653 12.857 7.07854C12.9212 7.0679 12.9872 7.06237 13.0545 7.06237H16.4125C16.3433 7.03703 16.2733 7.01214 16.2023 6.98773ZM6.93775 17.567C6.34506 17.7763 5.87298 17.7823 5.58761 17.6178C4.98041 17.2676 4.72798 15.9157 5.0723 14.1023C5.11323 13.888 5.1601 13.6749 5.21284 13.4632C6.00134 13.6376 6.87413 13.7631 7.80693 13.8387C8.33961 14.5882 8.89734 15.277 9.45942 15.8803C9.33997 15.9958 9.21769 16.1085 9.09269 16.218C8.34578 16.8709 7.59736 17.3341 6.93775 17.567ZM4.16108 12.3208C3.22242 11.9999 2.44723 11.583 1.9159 11.128C1.43841 10.7191 1.19741 10.3132 1.19741 9.98381C1.19741 9.28284 2.2424 8.38877 3.98535 7.78111C4.19688 7.70742 4.41825 7.63787 4.64797 7.5726C4.8889 8.35613 5.20487 9.17539 5.58619 10.0038C5.19991 10.8445 4.87942 11.6768 4.63617 12.4696C4.47661 12.4239 4.3182 12.3743 4.16108 12.3208ZM5.09185 5.98485C4.73009 4.13602 4.97034 2.74137 5.57498 2.39134C6.21895 2.01852 7.643 2.55008 9.14398 3.88284C9.24185 3.96994 9.33814 4.05881 9.4328 4.14941C8.8735 4.74999 8.32089 5.43374 7.79294 6.17878C6.88759 6.2627 6.02096 6.39745 5.2242 6.57799C5.17511 6.38144 5.13098 6.18362 5.09185 5.98485ZM10.0092 4.73713C10.3885 5.14808 10.7684 5.60684 11.1421 6.10464C10.3841 6.06884 9.62486 6.06869 8.86688 6.10418C9.2409 5.61098 9.62402 5.15281 10.0092 4.73713ZM6.60132 8.04091C6.41246 8.36845 6.23126 8.70036 6.05789 9.03635C5.81846 8.4684 5.61356 7.90992 5.44625 7.37062C5.99547 7.24775 6.58117 7.14729 7.19146 7.07105C6.98718 7.38965 6.79042 7.71308 6.60132 8.04091ZM7.20898 12.9551C6.57846 12.8847 5.98397 12.7894 5.43489 12.6699C5.60483 12.1209 5.81425 11.5506 6.05886 10.9704C6.23293 11.3067 6.41488 11.6388 6.60456 11.9665C6.79961 12.3034 7.00159 12.6333 7.20898 12.9551ZM10.032 15.2884C9.64215 14.8679 9.25339 14.4027 8.87372 13.9023C9.24233 13.9168 9.61808 13.9241 10 13.9241C10.3924 13.9241 10.7802 13.9153 11.162 13.8983C10.7871 14.4077 10.4087 14.8736 10.032 15.2884ZM14.3828 2.36683C15.0273 2.73859 15.278 4.23776 14.873 6.20374C14.8472 6.32917 14.8181 6.45692 14.7866 6.58649C13.9878 6.40211 13.1206 6.26503 12.2126 6.17983C11.6837 5.4266 11.1356 4.7418 10.5854 4.14896C10.7296 4.00996 10.8772 3.87456 11.0281 3.7429C12.4493 2.50616 13.7776 2.01785 14.3828 2.36683Z" fill="#37D1FB"/>
<path d="M10 8.26485C10.9493 8.26485 11.719 9.03447 11.719 9.98381C11.719 10.9332 10.9493 11.7028 10 11.7028C9.05066 11.7028 8.28103 10.9332 8.28103 9.98381C8.28103 9.03447 9.05066 8.26485 10 8.26485Z" fill="#37D1FB"/>
<path fill-rule="evenodd" clip-rule="evenodd" d="M10.4881 3.12259C12.1468 1.67906 13.7891 1.07532 14.7934 1.65433C15.8408 2.25829 16.1474 4.09268 15.6784 6.36967C15.6498 6.50833 15.6176 6.64947 15.5826 6.79235C15.7655 6.84496 15.9472 6.90161 16.1276 6.96227C16.1525 6.97064 16.1774 6.9791 16.2022 6.98763C16.2732 7.01204 16.3432 7.03693 16.4124 7.06227H13.0544C13.0111 7.06227 12.9684 7.06456 12.9263 7.06902C12.903 7.0715 12.8798 7.07464 12.8569 7.07844L12.8099 7.07245L12.8183 7.0855C12.8149 7.08618 12.8114 7.08687 12.808 7.08758C12.7968 7.08993 12.7856 7.09244 12.7744 7.0951C12.7547 7.09982 12.7351 7.10503 12.7157 7.11072C12.5105 7.17097 12.3282 7.28458 12.1847 7.4355C12.1607 7.46066 12.1379 7.48687 12.1162 7.51403C12.0973 7.4845 12.0784 7.45501 12.0594 7.42556C11.96 7.27133 11.8589 7.1182 11.756 6.9662C11.1837 6.92258 10.5958 6.8998 9.99983 6.8998C9.40654 6.8998 8.81949 6.92236 8.24702 6.96567C7.91719 7.44899 7.60591 7.94458 7.3137 8.45153C7.02138 8.95835 6.74823 9.47598 6.49482 10.0033C6.74888 10.5306 7.02278 11.048 7.31611 11.5544C7.61082 12.0635 7.92468 12.5613 8.25703 13.0467C8.81813 13.0831 9.40082 13.1018 9.9999 13.1018C10.5853 13.1021 11.1705 13.0816 11.7544 13.0405C11.7572 13.0403 11.76 13.0401 11.7628 13.0399C11.7935 12.9938 11.824 12.9476 11.8544 12.9013V14.3447C11.443 14.9065 11.0257 15.4203 10.6081 15.8769C10.7653 16.0285 10.9267 16.1757 11.0921 16.3183C11.3509 16.541 11.6063 16.7382 11.8544 16.9094V17.8862C11.8211 17.8666 11.7878 17.8465 11.7544 17.826C11.3621 17.5854 10.9595 17.2891 10.5557 16.9417C10.3779 16.7883 10.2044 16.63 10.0354 16.4669C9.9046 16.5936 9.77066 16.7171 9.6337 16.8371C7.94474 18.3135 6.21013 18.9261 5.17665 18.3301C4.17603 17.753 3.86163 16.0693 4.26423 13.9488C4.3082 13.7184 4.3586 13.4892 4.41537 13.2616C4.24057 13.2117 4.06704 13.1574 3.89495 13.0988C1.77218 12.3733 0.374902 11.1767 0.374902 9.98371C0.374902 8.82863 1.67646 7.71507 3.71455 7.00447C3.94232 6.92507 4.18031 6.85047 4.42695 6.78039C4.37414 6.56908 4.3267 6.35646 4.28468 6.14273C3.86239 3.98478 4.15948 2.26032 5.16281 1.67952C6.20908 1.07382 7.95151 1.72433 9.68987 3.26779C9.79798 3.36399 9.9043 3.46219 10.0088 3.56233C10.1648 3.41174 10.3247 3.26511 10.4881 3.12259ZM10.0085 3.4241C10.1438 3.29551 10.2818 3.16986 10.4224 3.04721C11.258 2.32004 12.0942 1.80003 12.8533 1.53558C13.611 1.2716 14.3061 1.25793 14.8433 1.56769C15.4029 1.89035 15.7513 2.53346 15.9029 3.36672C16.0548 4.20173 16.0125 5.2431 15.7763 6.38986C15.7537 6.49963 15.7288 6.61083 15.7022 6.72306C15.8809 6.77589 16.0584 6.83257 16.2347 6.89304C16.3062 6.91766 16.377 6.9428 16.4468 6.96837L16.4124 7.16227H13.0544C12.9926 7.16227 12.9321 7.16735 12.8732 7.1771L12.8587 7.1795L12.8378 7.18356C12.5792 7.23516 12.3531 7.37757 12.1943 7.57644L12.1071 7.68564L12.0319 7.56786C11.9234 7.398 11.8129 7.22946 11.7002 7.06229C11.1457 7.02123 10.5766 6.9998 9.99983 6.9998C9.42562 6.9998 8.85731 7.02102 8.30254 7.06181C7.98417 7.53044 7.68327 8.0106 7.40034 8.50147C7.11729 8.99221 6.85228 9.49317 6.60585 10.0033C6.8529 10.5132 7.11863 11.0139 7.40264 11.5043C7.68796 11.9972 7.99132 12.4794 8.31208 12.95C8.85598 12.9842 9.42017 13.0018 9.9999 13.0018C10.5693 13.0021 11.1386 12.9826 11.7067 12.9435C11.7282 12.9112 11.7495 12.8789 11.7708 12.8464L11.9544 12.567V14.3774L11.9351 14.4038C11.5434 14.9386 11.146 15.4307 10.7476 15.872C10.8813 15.9987 11.0179 16.1223 11.1574 16.2426C11.4137 16.4631 11.6662 16.658 11.9112 16.8271L11.9544 16.8569V18.0616L11.8035 17.9723C11.3739 17.7182 10.9325 17.3978 10.4905 17.0175C10.3356 16.8838 10.1838 16.7464 10.0355 16.6055C9.92566 16.71 9.81367 16.8123 9.69961 16.9123C8.84835 17.6565 7.98122 18.1869 7.19157 18.4554C6.40366 18.7234 5.67842 18.7349 5.12669 18.4167C4.59213 18.1084 4.25268 17.5115 4.09622 16.738C3.93954 15.9634 3.96311 14.9987 4.16598 13.9301C4.20429 13.7294 4.24745 13.5295 4.2954 13.3309C4.15025 13.2881 4.00599 13.2423 3.86272 13.1935C2.79281 12.8278 1.90009 12.3416 1.27296 11.7917C0.64722 11.2431 0.274902 10.6206 0.274902 9.98371C0.274902 9.36663 0.62237 8.7744 1.2143 8.25241C1.80705 7.7297 2.6546 7.26813 3.68163 6.91005C3.88271 6.83994 4.09149 6.77363 4.30687 6.71088C4.26281 6.52882 4.22269 6.34583 4.18656 6.16202C3.97383 5.07495 3.9409 4.09077 4.09089 3.30104C4.24062 2.51271 4.57594 1.9037 5.11271 1.59297C5.67167 1.26939 6.40283 1.28873 7.20044 1.57354C7.99972 1.85896 8.88078 2.41569 9.75627 3.19301C9.84143 3.2688 9.92558 3.34589 10.0085 3.4241ZM6.93765 17.5669C5.88123 15.0485 6.04688 15.4453 5.21274 13.4631L5.19114 13.5607C5.22286 13.5677 5.18076 13.4562 5.21274 13.4631C5.2203 13.4316 5.30195 13.5186 5.30978 13.4873L5.21274 13.4631M7.80683 13.8386C8.33951 14.5881 8.89724 15.2769 9.45932 15.8802ZM1.98085 11.0519C2.49979 11.4963 3.26263 11.9079 4.19333 12.2261C4.31798 12.2685 4.44346 12.3085 4.56968 12.346C4.80645 11.5902 5.11184 10.8007 5.47607 10.0037C5.11674 9.21888 4.81576 8.44209 4.58144 7.69571C4.3869 7.75256 4.19883 7.8125 4.01817 7.87544C3.15431 8.17661 2.46836 8.54717 2.00052 8.92515C1.52761 9.30724 1.29731 9.68024 1.29731 9.98371C1.29731 10.2683 1.51005 10.6488 1.98085 11.0519ZM3.98525 7.78101C2.2423 8.38867 1.19731 9.28274 1.19731 9.98371C1.19731 10.3131 1.43831 10.719 1.9158 11.1279C2.44713 11.5829 3.22232 11.9998 4.16099 12.3207C4.3181 12.3742 4.47651 12.4238 4.63607 12.4695C4.87933 11.6767 5.19981 10.8444 5.58609 10.0037C5.20477 9.17528 4.8888 8.35603 4.64788 7.5725C4.41815 7.63777 4.19678 7.70732 3.98525 7.78101ZM6.5146 7.99085C6.66882 7.72347 6.82813 7.459 6.99244 7.19768C6.49994 7.26439 6.02505 7.34708 5.57426 7.44472C5.71439 7.88571 5.87954 8.33934 6.06808 8.80029C6.21179 8.52769 6.36066 8.25782 6.5146 7.99085ZM6.1178 8.92072C6.09769 8.95918 6.07769 8.99768 6.05779 9.03625C6.04086 8.99609 6.0241 8.95597 6.00752 8.91591C5.80343 8.42287 5.62564 7.93753 5.47619 7.46628C5.46605 7.43429 5.45603 7.40238 5.44615 7.37052C5.47869 7.36324 5.51136 7.35604 5.54415 7.34892C6.02568 7.24435 6.53428 7.15681 7.06213 7.0875C7.10508 7.08186 7.14816 7.07634 7.19136 7.07094C7.16796 7.10744 7.14466 7.144 7.12146 7.18062C6.94211 7.4637 6.76866 7.75053 6.60122 8.04081C6.43404 8.33076 6.27286 8.62413 6.1178 8.92072ZM6.60446 11.9664C6.43649 11.6762 6.27459 11.3826 6.11885 11.0857C6.09872 11.0473 6.07869 11.0088 6.05877 10.9703C6.04185 11.0105 6.02511 11.0505 6.00854 11.0905C5.7993 11.5956 5.61711 12.0927 5.46479 12.5739C5.45466 12.606 5.44466 12.6379 5.43479 12.6698C5.46736 12.6769 5.50009 12.6839 5.53297 12.6908C6.01677 12.7926 6.53471 12.8759 7.08058 12.9403C7.12317 12.9453 7.16594 12.9502 7.20888 12.955C7.18562 12.9189 7.16244 12.8827 7.13932 12.8464C6.95628 12.5591 6.77764 12.2655 6.60446 11.9664ZM7.01122 12.8312C6.8427 12.5648 6.67799 12.2929 6.51792 12.0165C6.36319 11.7492 6.21357 11.4789 6.06917 11.2059C5.87555 11.6788 5.70607 12.144 5.56305 12.5949C6.01687 12.6901 6.50131 12.769 7.01122 12.8312ZM5.62499 2.47778C5.36453 2.62856 5.15934 3.02342 5.06988 3.6403C4.9815 4.24976 5.01053 5.04886 5.18987 5.96544C5.22239 6.13066 5.2584 6.29522 5.29787 6.45893C6.05918 6.29107 6.88126 6.16452 7.73786 6.08339C8.23887 5.37942 8.76199 4.73007 9.2922 4.15388C9.22152 4.08746 9.14994 4.022 9.07748 3.95752C8.33308 3.29654 7.61137 2.8376 7.00045 2.59008C6.38237 2.33965 5.9046 2.3159 5.62499 2.47778ZM9.14388 3.88274C7.64291 2.54998 6.21929 2.01917 5.57532 2.39199C4.97067 2.74202 4.72999 4.13592 5.09175 5.98475C5.13088 6.18352 5.17501 6.38134 5.2241 6.57789C6.02087 6.39735 6.88749 6.2626 7.79285 6.17868C8.32079 5.43364 8.8734 4.74989 9.4327 4.14931C9.33805 4.05871 9.24176 3.96984 9.14388 3.88274ZM10.0092 4.73703C9.98649 4.76149 9.96383 4.78609 9.94118 4.81084C9.60599 5.17712 9.2727 5.57528 8.94593 6.00041C8.91951 6.03479 8.89312 6.06935 8.86678 6.10408C8.91014 6.10205 8.95349 6.10014 8.99686 6.09834C9.66841 6.07051 10.3408 6.07065 11.0124 6.09876C11.0556 6.10057 11.0988 6.1025 11.142 6.10454C11.1159 6.06979 11.0898 6.03523 11.0636 6.00087C10.7376 5.57226 10.4072 5.1737 10.077 4.81099C10.0543 4.78617 10.0317 4.76152 10.0092 4.73703ZM10.009 4.88488C9.6953 5.22803 9.38314 5.59946 9.07636 5.99511C9.69526 5.97159 10.3148 5.97173 10.9337 5.99552C10.6276 5.59661 10.3181 5.22481 10.009 4.88488ZM10.0319 15.2883C10.0543 15.2636 10.0767 15.2388 10.0991 15.2137C10.428 14.8466 10.7579 14.4408 11.0853 14.0016C11.1109 13.9674 11.1364 13.9329 11.1619 13.8982C11.1192 13.9001 11.0764 13.9019 11.0336 13.9036C10.6933 13.9171 10.3484 13.924 9.9999 13.924C9.66256 13.924 9.33003 13.9183 9.00298 13.907C8.95976 13.9055 8.91665 13.9039 8.87363 13.9022C8.89982 13.9367 8.92605 13.9711 8.95232 14.0053C9.28477 14.4377 9.62372 14.8429 9.96384 15.2144C9.98651 15.2392 10.0092 15.2638 10.0319 15.2883ZM10.0311 15.1398C10.3394 14.7951 10.6489 14.416 10.9567 14.0066C10.6413 14.0181 10.3221 14.024 9.9999 14.024C9.68975 14.024 9.38363 14.0192 9.08205 14.0096C9.39455 14.4128 9.71239 14.7912 10.0311 15.1398ZM14.9223 3.70111C14.8306 3.04056 14.6126 2.61478 14.3327 2.45335C14.072 2.30303 13.6275 2.32246 13.0484 2.55303C12.4762 2.78082 11.7984 3.20504 11.0938 3.81816C10.9687 3.9273 10.8459 4.03903 10.7254 4.15326C11.2474 4.72287 11.7663 5.37329 12.2678 6.08453C13.1267 6.16689 13.9493 6.29559 14.7123 6.46693C14.7348 6.37118 14.7558 6.27662 14.775 6.18347C14.9759 5.20844 15.013 4.35399 14.9223 3.70111ZM14.8729 6.20364C14.8471 6.32907 14.818 6.45682 14.7865 6.58639C13.9877 6.40201 13.1205 6.26493 12.2125 6.17973C11.6836 5.4265 11.1355 4.74169 10.5853 4.14885C10.7295 4.00986 10.8771 3.87446 11.028 3.7428C12.4492 2.50606 13.7775 2.01774 14.3827 2.36673C15.0272 2.73849 15.2779 4.23766 14.8729 6.20364ZM9.9999 8.16475C11.0045 8.16475 11.8189 8.97914 11.8189 9.98371C11.8189 10.9883 11.0045 11.8027 9.9999 11.8027C8.99533 11.8027 8.18094 10.9883 8.18094 9.98371C8.18094 8.97914 8.99533 8.16475 9.9999 8.16475ZM9.45932 15.8802C9.33987 15.9957 9.21759 16.1084 9.0926 16.2179ZM9.0926 16.2179C8.34568 16.8708 7.59726 17.334 6.93765 17.5669ZM11.7189 9.98371C11.7189 9.03437 10.9492 8.26475 9.9999 8.26475C9.05056 8.26475 8.28094 9.03437 8.28094 9.98371C8.28094 10.9331 9.05056 11.7027 9.9999 11.7027C10.9492 11.7027 11.7189 10.9331 11.7189 9.98371Z" fill="#37D1FB"/>
</svg>
