<svg width="28" height="28" viewBox="0 0 28 28" fill="none" xmlns="http://www.w3.org/2000/svg">
<path fill-rule="evenodd" clip-rule="evenodd" d="M17.0937 18.4126C16.7743 18.5239 16.4872 18.7032 16.4181 18.9797L16.4055 19.0301L16.3767 19.0733C16.2605 19.2476 16.2838 19.5412 16.5647 19.8221C17.1734 20.4308 17.5613 21.1891 17.4417 22.1943V26.5726C17.4417 26.8427 17.5304 27.0444 17.6638 27.1778C17.7973 27.3113 17.999 27.4 18.269 27.4C18.539 27.4 18.7407 27.3113 18.8742 27.1778C19.0076 27.0444 19.0963 26.8427 19.0963 26.5726V22.2888C19.0963 21.6413 18.9878 20.8845 18.7735 20.2418L18.6711 19.9345L18.9854 19.8559C20.3173 19.5229 21.8891 18.9485 23.1286 17.6954C24.3602 16.4505 25.2966 14.502 25.2966 11.3539C25.2966 9.7302 24.7556 8.21954 23.7861 7.03457L23.6929 6.92061L23.726 6.77714C24.0501 5.37259 23.9433 3.96802 23.4001 2.55576L23.3952 2.54303C23.3135 2.29799 23.1619 2.14363 22.9195 2.0599C22.5449 1.96898 21.0529 1.74068 18.2077 3.60101L18.0996 3.67167L17.974 3.64176C15.6534 3.08922 13.1071 3.08851 10.6697 3.64246L10.5486 3.67L10.4434 3.60379C7.48151 1.7389 6.09735 1.96952 5.72735 2.05987C5.4849 2.14359 5.33296 2.29786 5.25127 2.54293L5.24601 2.5587L5.23905 2.57378C4.59307 3.97341 4.48553 5.36503 4.91692 6.87492L4.96004 7.02583L4.86066 7.1473C3.89114 8.33227 3.35022 9.84294 3.35022 11.4666C3.35022 14.3942 4.17698 16.3172 5.35585 17.5898C6.5395 18.8676 8.10886 19.523 9.65152 19.8536L9.9993 19.9281L9.8672 20.2584C9.6603 20.7756 9.55046 21.524 9.55046 22.1761V22.5371L9.3066 22.5835C8.08048 22.8171 7.21579 22.7087 6.53023 22.342C5.86016 21.9836 5.40335 21.3979 4.95658 20.784C4.27693 19.9912 3.65352 19.2771 2.62583 18.9688L2.61302 18.9649L2.60061 18.96C2.4261 18.8902 2.21564 18.9183 2.02298 19.0361C1.82866 19.1548 1.6908 19.3425 1.65342 19.5294L1.64802 19.5564L1.63779 19.582C1.56799 19.7565 1.59614 19.9669 1.71388 20.1596C1.83263 20.3539 2.02034 20.4918 2.20721 20.5292L2.21421 20.5306L2.22113 20.5323C2.52237 20.6076 2.76603 20.7913 2.98053 21.0058C3.16842 21.1936 3.35492 21.4275 3.5476 21.6692C3.57217 21.7 3.59684 21.7309 3.62163 21.7619C3.6449 21.7904 3.66832 21.8191 3.69192 21.8479C4.18889 22.4565 4.76316 23.1598 5.58891 23.668C6.44133 24.1925 7.57951 24.5178 9.20114 24.2476L9.55046 24.1893V26.4599C9.55046 26.7299 9.63916 26.9316 9.77261 27.0651C9.90605 27.1985 10.1078 27.2872 10.3778 27.2872C10.6478 27.2872 10.8495 27.1985 10.983 27.0651C11.1164 26.9316 11.2051 26.7299 11.2051 26.4599V22.0634C11.2051 21.21 11.4522 20.452 12.0821 19.8221C12.2148 19.6893 12.3227 19.3561 12.2286 18.9797C12.1396 18.6237 11.8949 18.4178 11.6178 18.4178H11.6024L11.587 18.4162C9.93809 18.2456 8.28327 17.8721 7.04198 16.8252C5.7857 15.7657 5.00486 14.063 5.00486 11.3539C5.00486 10.0401 5.48293 8.72917 6.43341 7.65988L6.45908 7.631L6.49123 7.60957C6.57279 7.5552 6.62324 7.47232 6.64248 7.33765C6.66236 7.19848 6.6449 7.02155 6.59597 6.8205C6.23907 5.85764 6.24319 4.8981 6.47933 3.95355L6.5487 3.67604L6.8292 3.73214C7.43903 3.8541 8.49193 4.21122 9.87426 5.24648C10.1156 5.40471 10.351 5.41 10.6211 5.31995L10.6335 5.31582C13.0547 4.62404 15.7047 4.62432 18.1259 5.3161L18.1385 5.31968C18.4388 5.41979 18.6296 5.38337 18.7333 5.27969L18.7524 5.26056L18.7746 5.24516C20.2597 4.21701 21.1998 3.85569 21.8176 3.73214L22.0981 3.67604L22.1674 3.95355C22.4045 4.90169 22.4077 5.86494 22.0467 6.83148C21.9573 7.10377 21.9724 7.41823 22.2013 7.64705L22.2075 7.65329L22.2134 7.65988C23.1638 8.72917 23.6419 10.0401 23.6419 11.3539C23.6419 14.063 22.8611 15.7657 21.6048 16.8252C20.372 17.8649 18.7313 18.2405 17.0937 18.4126Z" fill="url(#paint0_radial_963:12470)"/>
<defs>
<radialGradient id="paint0_radial_963:12470" cx="0" cy="0" r="1" gradientUnits="userSpaceOnUse" gradientTransform="translate(39.6123 -46.1069) rotate(108.49) scale(81.1112 54.9647)">
<stop stop-color="#0037D1"/>
<stop offset="0.515965" stop-color="#0037D1"/>
<stop offset="1" stop-color="#BEDAFF"/>
</radialGradient>
</defs>
</svg>
