<svg viewBox="0 0 24 24" fill="none" xmlns="http://www.w3.org/2000/svg">
<path fill-rule="evenodd" clip-rule="evenodd" d="M12 21C16.9706 21 21 16.9706 21 12C21 7.02944 16.9706 3 12 3C7.02944 3 3 7.02944 3 12C3 16.9706 7.02944 21 12 21ZM12 16.2632C14.3545 16.2632 16.2632 14.3545 16.2632 12C16.2632 9.64552 14.3545 7.73684 12 7.73684C9.64552 7.73684 7.73684 9.64552 7.73684 12C7.73684 14.3545 9.64552 16.2632 12 16.2632Z" fill="#165DFF"/>
<path fill-rule="evenodd" clip-rule="evenodd" d="M16.2633 7.73684H21.0001V12.0903C21.0001 12.0903 21.0001 12.0903 20.9871 12.4737C20.2498 12.4737 18.1887 12.4737 16.2377 12.4737C16.2611 12.237 16.2633 12.0642 16.2633 12.0642V7.73684Z" fill="#165DFF"/>
<path fill-rule="evenodd" clip-rule="evenodd" d="M11.5263 3.01268C11.7332 3.00242 11.9276 3 11.9276 3H16.2632L16.2633 7.73684L11.9121 7.73684C11.9121 7.73684 11.7112 7.74131 11.5263 7.76245C11.5263 5.86414 11.5263 4.02419 11.5263 3.01268Z" fill="#165DFF"/>
<rect x="15" y="3" width="6" height="6" fill="#16D2AC"/>
</svg>
