<svg viewBox="0 0 12 18" fill="none" xmlns="http://www.w3.org/2000/svg">
<path d="M8.99976 11.9997C10.6566 11.9997 11.9998 10.6565 11.9998 8.99969C11.9998 7.34284 10.6566 5.99969 8.99976 5.99969C7.3429 5.99969 5.99976 7.34284 5.99976 8.99969C5.99976 10.6565 7.3429 11.9997 8.99976 11.9997Z" fill="#19BCFE"/>
<path fill-rule="evenodd" clip-rule="evenodd" d="M3 18.0001C3.79565 18.0001 4.55872 17.684 5.12133 17.1214C5.68394 16.5588 6.00001 15.7957 6.00001 15.0001V12.0001H3C2.20435 12.0001 1.44129 12.3161 0.878681 12.8787C0.316071 13.4413 0 14.2044 0 15.0001C0 15.7957 0.316071 16.5588 0.878681 17.1214C1.44129 17.684 2.20435 18.0001 3 18.0001Z" fill="#09CF83"/>
<path fill-rule="evenodd" clip-rule="evenodd" d="M3 11.9997H6.00001V5.99969H3C2.20435 5.99969 1.44129 6.31576 0.878681 6.87837C0.316071 7.44098 0 8.20404 0 8.99969C0 9.79534 0.316071 10.5584 0.878681 11.121C1.44129 11.6836 2.20435 11.9997 3 11.9997Z" fill="#A259FF"/>
<path fill-rule="evenodd" clip-rule="evenodd" d="M3 5.99989H6.00001V-0.00012207H3C2.20435 -0.00012207 1.44129 0.315949 0.878681 0.878559C0.316071 1.44117 0 2.20423 0 2.99988C0 3.79553 0.316071 4.5586 0.878681 5.12121C1.44129 5.68382 2.20435 5.99989 3 5.99989Z" fill="#F24E1E"/>
<path fill-rule="evenodd" clip-rule="evenodd" d="M8.99976 5.99989H5.99976V-0.00012207H8.99976C9.79541 -0.00012207 10.5585 0.315949 11.1211 0.878559C11.6837 1.44117 11.9998 2.20423 11.9998 2.99988C11.9998 3.79553 11.6837 4.5586 11.1211 5.12121C10.5585 5.68382 9.79541 5.99989 8.99976 5.99989Z" fill="#FF7262"/>
</svg>
