<svg width="28" height="28" viewBox="0 0 28 28" fill="none" xmlns="http://www.w3.org/2000/svg">
<path d="M6.55822 8C4.69458 8 3.27233 8.60486 2.29147 9.84729C1.42504 10.9262 1 12.3485 1 14.0813C1 15.8469 1.40869 17.2528 2.24243 18.2991C3.19059 19.5088 4.64554 20.13 6.59092 20.13C7.84969 20.13 8.92864 19.7704 9.82776 19.0511C10.7923 18.2827 11.3971 17.2201 11.6587 15.8469H9.79507C9.5662 16.7297 9.17386 17.3999 8.61803 17.8413C8.09491 18.2337 7.4083 18.4462 6.57457 18.4462C5.29945 18.4462 4.35128 18.0375 3.74642 17.2528C3.19059 16.5172 2.91268 15.4546 2.91268 14.0813C2.91268 12.7408 3.19059 11.6946 3.76276 10.9426C4.38398 10.0925 5.29945 9.68381 6.52553 9.68381C7.34291 9.68381 8.01317 9.84729 8.5363 10.2069C9.07577 10.5666 9.43542 11.1224 9.63159 11.8908H11.4952C11.3154 10.7137 10.8086 9.76555 9.95854 9.07895C9.07577 8.35965 7.93143 8 6.55822 8Z" fill="white"/>
<path d="M13.4639 8.22887V19.9011H21.6704V18.2664H15.3602V8.22887H13.4639Z" fill="white"/>
<path d="M23.1384 8.22887V19.9011H25.0511V8.22887H23.1384Z" fill="white"/>
</svg>
