<svg width="28" height="28" viewBox="0 0 28 28" fill="none" xmlns="http://www.w3.org/2000/svg">
<path opacity="0.6" d="M22.6631 4.53184C23.1194 3.88 22.6631 3 21.8809 3H20.1861C19.7624 3 19.3713 3.19555 19.1432 3.52148L16.438 7.23702L18.6543 10.1703L22.6631 4.53184Z" fill="#165DFF"/>
<path d="M23.5108 23.4682C23.9671 24.12 23.5108 25 22.696 25H21.0012C20.5775 25 20.1864 24.8045 19.9256 24.446L16.5034 19.6223L18.7197 16.689L23.5108 23.4682Z" fill="#165DFF"/>
<path d="M6.33504 3C5.55282 3 5.06393 3.91259 5.55282 4.56444L11.9409 13.4296L4.50986 23.4355C4.02097 24.0873 4.47727 24.9999 5.29208 24.9999H7.18244C7.60614 24.9999 7.99725 24.8043 8.2254 24.4784L16.4387 13.4296L9.33354 3.55407C9.0728 3.22815 8.68169 3 8.29058 3H6.33504Z" fill="#165DFF"/>
</svg>
