<svg width="28" height="28" viewBox="0 0 28 28" fill="none" xmlns="http://www.w3.org/2000/svg">
<path d="M17.9995 18.0003C20.2087 18.0003 21.9996 16.2094 21.9996 14.0003C21.9996 11.7911 20.2087 10.0002 17.9995 10.0002C15.7904 10.0002 13.9995 11.7911 13.9995 14.0003C13.9995 16.2094 15.7904 18.0003 17.9995 18.0003Z" fill="#165DFF"/>
<path fill-rule="evenodd" clip-rule="evenodd" d="M10 26C11.0609 26 12.0783 25.5786 12.8285 24.8284C13.5786 24.0783 14 23.0609 14 22V18H10C8.93915 18 7.92173 18.4214 7.17158 19.1716C6.42143 19.9217 6 20.9391 6 22C6 23.0609 6.42143 24.0783 7.17158 24.8284C7.92173 25.5786 8.93915 26 10 26Z" fill="#165DFF"/>
<path opacity="0.6" fill-rule="evenodd" clip-rule="evenodd" d="M10 18.0003H14V10.0002H10C8.93915 10.0002 7.92173 10.4217 7.17158 11.1718C6.42143 11.922 6 12.9394 6 14.0003C6 15.0611 6.42143 16.0785 7.17158 16.8287C7.92173 17.5788 8.93915 18.0003 10 18.0003Z" fill="#165DFF"/>
<path fill-rule="evenodd" clip-rule="evenodd" d="M10 10H14V2H10C8.93915 2 7.92173 2.42143 7.17158 3.17158C6.42143 3.92173 6 4.93915 6 6.00002C6 7.06089 6.42143 8.07832 7.17158 8.82846C7.92173 9.57861 8.93915 10 10 10Z" fill="#165DFF"/>
<path opacity="0.6" fill-rule="evenodd" clip-rule="evenodd" d="M17.9995 10H13.9995V2H17.9995C19.0604 2 20.0778 2.42143 20.828 3.17158C21.5781 3.92173 21.9996 4.93915 21.9996 6.00002C21.9996 7.06089 21.5781 8.07832 20.828 8.82846C20.0778 9.57861 19.0604 10 17.9995 10Z" fill="#165DFF"/>
</svg>
