<svg xmlns="http://www.w3.org/2000/svg" width="20" height="19" viewBox="0 0 20 19" fill="none">
<path fill-rule="evenodd" clip-rule="evenodd" d="M15.5828 5.79237C15.7909 5.85231 15.9975 5.91737 16.2024 5.98768C18.2815 6.70337 19.6251 7.82449 19.6251 8.98374C19.6251 9.62074 19.2264 10.2503 18.5264 10.8103H16.9837C18.1329 10.2348 18.8028 9.54593 18.8028 8.98374C18.8028 8.28512 17.7161 7.37849 15.9347 6.76518C15.7506 6.70181 15.5595 6.64174 15.3626 6.58474C15.1257 7.35099 14.8096 8.16062 14.4257 8.98774C14.7226 9.61299 14.9794 10.2234 15.1915 10.8103H14.3142C14.2058 10.5261 14.0865 10.2359 13.9571 9.94074C13.7979 10.2476 13.6326 10.5512 13.4614 10.8515C12.9619 10.9874 12.5946 11.4442 12.5946 11.9868V12.7921C12.4713 12.8051 12.3471 12.8171 12.2219 12.8282C11.6928 13.5941 11.1507 14.2837 10.6082 14.877C10.7654 15.0286 10.9269 15.1757 11.0923 15.3184C11.6178 15.7706 12.129 16.1174 12.5946 16.3555V17.2622C11.9497 16.9911 11.2546 16.543 10.5559 15.9417C10.3781 15.7884 10.2046 15.63 10.0356 15.4669C9.90475 15.5937 9.77081 15.7171 9.63387 15.8371C7.94487 17.3136 6.21029 17.9261 5.17681 17.3301C4.17618 16.753 3.86179 15.0693 4.26439 12.9488C4.30836 12.7184 4.35876 12.4892 4.41553 12.2617C4.24073 12.2117 4.0672 12.1574 3.89511 12.0989C1.77234 11.3733 0.375061 10.1767 0.375061 8.98374C0.375061 7.82868 1.67662 6.71512 3.71471 6.00449C3.94247 5.92512 4.18047 5.85049 4.42711 5.78043C4.37429 5.56912 4.32686 5.35649 4.28484 5.14279C3.86254 2.98483 4.15964 1.26038 5.16297 0.679569C6.20924 0.0738692 7.95169 0.724388 9.69 2.26784C9.79812 2.36405 9.90444 2.46224 10.0089 2.56238C10.165 2.41179 10.3248 2.26516 10.4883 2.12264C12.1469 0.679119 13.7893 0.0753756 14.7936 0.654382C15.8409 1.25835 16.1476 3.09274 15.6785 5.36974C15.6499 5.50837 15.6178 5.64956 15.5828 5.79237ZM5.58767 16.6177C5.87304 16.7822 6.34513 16.7762 6.93781 16.567C7.59744 16.3341 8.34581 15.8708 9.09275 15.218C9.21775 15.1084 9.34 14.9958 9.4595 14.8802C8.89737 14.277 8.33969 13.5881 7.807 12.8387C6.87419 12.763 6.0014 12.6376 5.2129 12.4631C5.16016 12.6748 5.11329 12.8879 5.07236 13.1022C4.72804 14.9156 4.98047 16.2676 5.58767 16.6177ZM1.91596 10.1279C2.44729 10.5829 3.22248 10.9999 4.16114 11.3207C4.31826 11.3742 4.47667 11.4239 4.63623 11.4696C4.87949 10.6768 5.19997 9.84443 5.58624 9.00374C5.20493 8.17537 4.88896 7.35606 4.64804 6.57256C4.41831 6.63781 4.19694 6.70737 3.98541 6.78106C2.24246 7.38874 1.19747 8.28281 1.19747 8.98374C1.19747 9.31312 1.43847 9.71912 1.91596 10.1279ZM5.57504 1.39129C4.97039 1.74133 4.73015 3.13598 5.09191 4.9848V4.98488C5.13104 5.18364 5.17517 5.38137 5.22426 5.57793C6.02102 5.39737 6.88762 5.26262 7.793 5.17873C8.32094 4.43369 8.87356 3.74994 9.43287 3.14936C9.33819 3.05877 9.24194 2.96989 9.14406 2.88279C7.64306 1.55003 6.21901 1.01848 5.57504 1.39129ZM12.8101 6.07249C13.0121 6.38918 13.2073 6.71018 13.3955 7.03524C13.5868 7.36543 13.7714 7.69943 13.9493 8.03699C14.1927 7.46699 14.3995 6.91106 14.5654 6.37931C14.0128 6.25324 13.4243 6.15018 12.8101 6.07249ZM11.1421 5.10459C10.7685 4.60679 10.3886 4.14803 10.0093 3.73709C9.62406 4.15276 9.24094 4.61093 8.86694 5.10414C9.62494 5.06864 10.3842 5.06879 11.1421 5.10459ZM6.05794 8.03631C6.23132 7.70031 6.4125 7.36843 6.60137 7.04087V7.04081C6.7905 6.71293 6.98725 6.38962 7.1915 6.07099C6.58125 6.14724 5.99554 6.24768 5.44631 6.37056C5.61362 6.90987 5.81852 7.46837 6.05794 8.03631ZM5.43496 11.6698C5.98403 11.7894 6.5785 11.8846 7.20906 11.9551C7.00163 11.6332 6.79969 11.3033 6.60462 10.9664C6.41494 10.6387 6.23299 10.3066 6.05892 9.97043C5.81431 10.5506 5.60489 11.1209 5.43496 11.6698ZM8.87381 12.9022C9.25344 13.4026 9.64219 13.8679 10.032 14.2884C10.4088 13.8736 10.7872 13.4077 11.1621 12.8983C10.7803 12.9153 10.3924 12.9241 10.0001 12.9241C9.61812 12.9241 9.24238 12.9167 8.87381 12.9022ZM11.7629 12.0399C12.0868 11.5534 12.3948 11.0565 12.6864 10.5499C12.9806 10.0405 13.2564 9.52081 13.5136 8.99174C13.2538 8.46806 12.977 7.95293 12.6837 7.44724C12.3921 6.94281 12.0827 6.44887 11.7562 5.96624C11.1839 5.92262 10.5961 5.89987 10.0001 5.89987H10C9.40669 5.89987 8.81963 5.92243 8.24719 5.96574C7.91738 6.44906 7.606 6.94468 7.31381 7.45168L7.31387 7.45156C7.02156 7.95843 6.74838 8.47606 6.495 9.00337C6.74906 9.53062 7.023 10.048 7.31631 10.5544H7.31625C7.611 11.0636 7.92481 11.5614 8.25719 12.0467C8.81831 12.0832 9.401 12.1018 10.0001 12.1018C10.5882 12.1021 11.1762 12.0815 11.7629 12.0399ZM14.8731 5.20369C15.2781 3.23771 15.0274 1.73854 14.3828 1.36678C13.7776 1.0178 12.4494 1.50611 11.0282 2.74285C10.8773 2.87452 10.7296 3.00991 10.5854 3.14891C11.1357 3.74175 11.6838 4.42655 12.2127 5.17978C13.1207 5.26499 13.9879 5.40206 14.7866 5.58643C14.8182 5.45687 14.8472 5.32912 14.8731 5.20369ZM11.719 8.98374C11.719 8.03443 10.9494 7.26481 10.0001 7.26481C9.05075 7.26481 8.28112 8.03443 8.28112 8.98374C8.28112 9.93312 9.05075 10.7027 10.0001 10.7027C10.9494 10.7027 11.719 9.93312 11.719 8.98374Z" fill="#61DAFB"/>
<path fill-rule="evenodd" clip-rule="evenodd" d="M13.8127 11.4844H17.4377C17.7134 11.4844 17.9377 11.7086 17.9377 11.9844V17.9844C17.9377 18.2602 17.7134 18.4844 17.4377 18.4844H13.8127C13.5369 18.4844 13.3127 18.2602 13.3127 17.9844V11.9844C13.3127 11.7086 13.5369 11.4844 13.8127 11.4844ZM13.8752 17.9219H17.3752V12.0469H13.8752V17.9219ZM15.5885 17.2352C15.8322 17.2352 16.0297 17.0377 16.0297 16.7941C16.0297 16.5504 15.8322 16.3529 15.5885 16.3529C15.3449 16.3529 15.1473 16.5504 15.1473 16.7941C15.1473 17.0377 15.3449 17.2352 15.5885 17.2352Z" fill="#61DAFB"/>
</svg>
