<svg width="28" height="28" viewBox="0 0 28 28" fill="none" xmlns="http://www.w3.org/2000/svg">
<path d="M14 25.763L2 11.8053L7.18644 4.73753L14 4.00024L20.8136 4.73753L26 11.8053L14 25.763Z" fill="#FFAE00"/>
<path d="M14 25.7628L2 11.8052H26L14 25.7628Z" fill="#1D6BFF"/>
<path d="M14 25.7628L6.85596 11.8052H21.1441L14 25.7628Z" fill="#729EFF"/>
<path d="M13.9995 4L6.85547 11.8051H21.1436L13.9995 4Z" fill="#A5C4FF"/>
<path d="M7.18644 4.7373L4.51695 8.29663L2 11.8051H6.90678L7.18644 4.7373ZM20.8136 4.7373L23.4831 8.29663L26 11.8051H21.0932L20.8136 4.7373Z" fill="#A5C4FF"/>
<path d="M7.18647 4.73729L6.85596 11.8051L14 4L7.18647 4.73729ZM20.8136 4.73729L21.1441 11.8051L14 4L20.8136 4.73729Z" fill="#729EFF"/>
</svg>
