<svg width="28" height="28" viewBox="0 0 28 28" fill="none" xmlns="http://www.w3.org/2000/svg">
<path d="M26.5071 15.6847L23.1165 4.13957V4.13646C22.8798 3.42345 22.3163 3 21.6126 3C20.884 3 20.2893 3.42033 20.0651 4.09598L17.8421 10.7279H10.1577L7.93465 4.09598C7.71047 3.42033 7.11578 3 6.3872 3C5.66796 3 5.06393 3.46081 4.88023 4.13957L1.49266 15.6847C1.35566 16.1424 1.53002 16.6624 1.91299 16.9519L13.3865 25.5579C13.4675 25.67 13.5796 25.754 13.7103 25.8007L13.9781 26L14.2428 25.8007C14.3953 25.7478 14.523 25.6544 14.6133 25.5236L26.0837 16.9488C26.4698 16.6624 26.6441 16.1424 26.5071 15.6847ZM21.4569 4.5132C21.4881 4.45715 21.5472 4.45404 21.5659 4.45404C21.6001 4.45404 21.6437 4.46338 21.6718 4.54745L23.5212 10.7684H19.3646L21.4569 4.5132ZM6.28134 4.54433C6.30936 4.46338 6.35295 4.45404 6.3872 4.45404C6.47127 4.45404 6.47749 4.45715 6.49306 4.50697L8.5885 10.7715H4.48169L6.28134 4.54433ZM2.99651 15.8871L3.87454 12.8576L10.1764 21.2705L2.99651 15.8871ZM5.29745 12.2629H9.09913L11.9263 21.1148L5.29745 12.2629ZM14.0217 22.6529L10.6839 12.2629H17.3563L14.0217 22.6529ZM18.938 12.2629H22.6588L16.1109 21.0058L18.938 12.2629ZM17.6708 21.4137L24.1253 12.7984L25.0438 15.8871L17.6708 21.4137Z" fill="white"/>
</svg>
