<svg width="34" height="34" viewBox="0 0 34 34" fill="none" xmlns="http://www.w3.org/2000/svg">
<path fill-rule="evenodd" clip-rule="evenodd" d="M17 29.75C24.0416 29.75 29.75 24.0416 29.75 17C29.75 9.95837 24.0416 4.25 17 4.25C9.95837 4.25 4.25 9.95837 4.25 17C4.25 24.0416 9.95837 29.75 17 29.75ZM17 23.0395C20.3355 23.0395 23.0395 20.3355 23.0395 17C23.0395 13.6645 20.3355 10.9605 17 10.9605C13.6645 10.9605 10.9605 13.6645 10.9605 17C10.9605 20.3355 13.6645 23.0395 17 23.0395Z" fill="#A9AEB8"/>
<path fill-rule="evenodd" clip-rule="evenodd" d="M23.0397 10.9605H29.7502V17.128C29.7502 17.128 29.7502 17.128 29.7317 17.6711C28.6873 17.6711 25.7673 17.6711 23.0034 17.6711C23.0366 17.3358 23.0397 17.091 23.0397 17.091V10.9605Z" fill="#A9AEB8"/>
<path fill-rule="evenodd" clip-rule="evenodd" d="M16.3289 4.26796C16.6221 4.25342 16.8974 4.25 16.8974 4.25H23.0395L23.0397 10.9605L16.8754 10.9605C16.8754 10.9605 16.5908 10.9669 16.3289 10.9968C16.3289 8.30753 16.3289 5.70094 16.3289 4.26796Z" fill="#A9AEB8"/>
<rect x="21.25" y="4.25" width="8.5" height="8.5" fill="#C9CDD4"/>
</svg>
