<svg width="28" height="29" viewBox="0 0 28 29" fill="none" xmlns="http://www.w3.org/2000/svg">
<path fill-rule="evenodd" clip-rule="evenodd" d="M13.3526 4.32373L5.39791 8.91637L13.3526 13.5352V4.32373ZM13.3526 16.0965L5.94341 20.3986L13.3526 24.6763V16.0965ZM14.6158 24.6773V15.7293L22.3429 20.216L14.6158 24.6773ZM14.6158 13.9024V4.32269L22.8884 9.0989L14.6158 13.9024ZM24.3774 8.5V9.62624L24.4072 9.67765L24.3774 9.69498V19.9367L24.4066 19.9537L24.3774 20.0041V20.5L23.9442 20.7501L23.7724 21.0461L23.6025 20.9474L13.9851 26.5L3.59277 20.5V8.5L13.9851 2.5L24.3774 8.5ZM15.5581 14.8158L23.1142 10.4284V19.2033L15.5581 14.8158ZM4.85593 10.0623L13.0425 14.8158L4.85593 19.5694V10.0623Z" fill="white"/>
<circle cx="14.0006" cy="14.5001" r="3.45175" fill="#FBFDFF"/>
</svg>
