<svg width="147" height="24" viewBox="0 0 147 24" fill="none" xmlns="http://www.w3.org/2000/svg">
<path fill-rule="evenodd" clip-rule="evenodd" d="M3.84699 19.6526C1.86413 17.6221 1.86413 14.3803 3.84699 12.3498L12.1645 3.83273C14.215 1.73303 17.592 1.73303 19.6425 3.83273L20.1488 4.35124C22.1317 6.38168 22.1317 9.62352 20.1488 11.654L11.8313 20.1711C9.78084 22.2708 6.40383 22.2708 4.35334 20.1711L3.84699 19.6526Z" fill="#12D2AC"/>
<path fill-rule="evenodd" clip-rule="evenodd" d="M11.9115 4.09853C14.1041 1.85328 17.7152 1.85328 19.9078 4.09853L27.719 12.0971C29.8393 14.2683 29.8393 17.7349 27.719 19.9061C25.5264 22.1513 21.9153 22.1513 19.7226 19.9061L11.9115 11.9075C9.79118 9.73627 9.79118 6.26972 11.9115 4.09853Z" fill="#307AF2"/>
<path fill-rule="evenodd" clip-rule="evenodd" d="M12.1619 3.82873C14.2124 1.72903 17.5894 1.72903 19.6399 3.82873L23.712 7.9986L15.9009 15.9972L8.08974 7.9986L12.1619 3.82873Z" fill="#0057FE"/>
<ellipse cx="82.4076" cy="16.2252" rx="1.85" ry="1.85" fill="white" fill-opacity="0.9"/>
<path fill-rule="evenodd" clip-rule="evenodd" d="M90.292 6.85594C91.722 6.85594 92.734 7.41694 93.427 8.25294V1.96094H96.287V17.8009H93.482V16.6239C92.789 17.4819 91.755 18.0759 90.292 18.0759C87.355 18.0759 85.133 15.6669 85.133 12.4659C85.133 9.26494 87.355 6.85594 90.292 6.85594ZM49.218 17.801V7.14197H46.413V8.31897C45.709 7.44997 44.686 6.85597 43.223 6.85597C40.286 6.85597 38.064 9.26497 38.064 12.466C38.064 15.667 40.286 18.076 43.223 18.076C44.686 18.076 45.72 17.482 46.413 16.624V17.801H49.218ZM41.0009 12.466C41.0009 10.838 42.0679 9.52898 43.7509 9.52898C45.3899 9.52898 46.5009 10.783 46.5009 12.466C46.5009 14.149 45.3899 15.403 43.7509 15.403C42.0679 15.403 41.0009 14.094 41.0009 12.466ZM56.9179 6.85597C57.5339 6.85597 58.0179 6.94397 58.4139 7.08697L57.9849 9.93597C57.5119 9.72697 56.8299 9.59497 56.2469 9.59497C54.9159 9.59497 54.0029 10.409 54.0029 11.993V17.801H51.1319V7.14197H53.9149V8.30797C54.5859 7.30697 55.6089 6.85597 56.9179 6.85597ZM68.1929 8.86897C67.2139 7.58197 65.7069 6.85597 63.9249 6.85597C60.5259 6.85597 58.2489 9.24297 58.2489 12.466C58.2489 15.7 60.5259 18.076 63.9249 18.076C65.7069 18.076 67.2029 17.361 68.2039 16.074L66.1579 14.325C65.5529 14.985 64.7609 15.403 63.8369 15.403C62.3519 15.403 61.1749 14.248 61.1749 12.466C61.1749 10.695 62.3629 9.52897 63.8479 9.52897C64.7829 9.52897 65.4759 9.90297 66.1249 10.596L68.1929 8.86897ZM74.0449 6.85597C77.3669 6.85597 79.8199 9.25397 79.8199 12.466C79.8199 15.678 77.3669 18.076 74.0449 18.076C70.7339 18.076 68.2919 15.678 68.2919 12.466C68.2919 9.25397 70.7339 6.85597 74.0449 6.85597ZM71.2179 12.466C71.2179 10.739 72.4279 9.52898 74.0449 9.52898C75.6619 9.52898 76.8829 10.739 76.8829 12.466C76.8829 14.193 75.6619 15.403 74.0449 15.403C72.4279 15.403 71.2179 14.193 71.2179 12.466ZM88.07 12.466C88.07 10.838 89.137 9.52898 90.82 9.52898C92.459 9.52898 93.57 10.783 93.57 12.466C93.57 14.149 92.459 15.403 90.82 15.403C89.137 15.403 88.07 14.094 88.07 12.466ZM102.931 6.85597C106 6.85597 108.101 9.13297 108.112 12.455C108.112 12.785 108.09 13.181 108.057 13.423H100.5C100.808 14.963 101.886 15.634 103.239 15.634C104.163 15.634 105.164 15.26 105.934 14.611L107.617 16.459C106.407 17.57 104.867 18.076 103.074 18.076C99.8069 18.076 97.5409 15.854 97.5409 12.499C97.5409 9.14397 99.7409 6.85597 102.931 6.85597ZM100.511 11.465C100.764 10.145 101.556 9.33095 102.909 9.33095C104.141 9.33095 104.966 10.101 105.23 11.465H100.511ZM117.891 7.87902L116.923 10.112C116.076 9.69402 114.723 9.25402 113.524 9.24302C112.435 9.24302 111.885 9.62802 111.885 10.211C111.885 10.827 112.655 10.981 113.623 11.124L114.569 11.267C116.879 11.619 118.166 12.653 118.166 14.457C118.166 16.657 116.362 18.076 113.271 18.076C111.819 18.076 109.916 17.801 108.53 16.822L109.663 14.644C110.576 15.249 111.687 15.689 113.293 15.689C114.624 15.689 115.262 15.315 115.262 14.688C115.262 14.171 114.723 13.885 113.491 13.709L112.622 13.588C110.158 13.247 108.937 12.169 108.937 10.354C108.937 8.16502 110.631 6.86702 113.436 6.86702C115.141 6.86702 116.472 7.18602 117.891 7.87902ZM122.203 17.801V7.14203H119.332V17.801H122.203ZM120.751 1.96094C121.785 1.96094 122.588 2.77494 122.588 3.80894C122.588 4.84294 121.785 5.63494 120.751 5.63494C119.717 5.63494 118.925 4.84294 118.925 3.80894C118.925 2.77494 119.717 1.96094 120.751 1.96094ZM131.663 8.32997C130.937 7.42797 129.848 6.85597 128.363 6.85597C125.767 6.85597 123.457 9.02297 123.457 12.301C123.457 15.568 125.767 17.735 128.363 17.735C129.837 17.735 130.915 17.185 131.641 16.294V17.042C131.641 18.879 130.387 19.869 128.605 19.869C127.329 19.869 126.152 19.484 125.085 18.78L124.062 21.123C125.261 21.97 127.043 22.41 128.726 22.41C132.246 22.41 134.479 20.342 134.479 16.921V7.14197H131.663V8.32997ZM129.089 9.49599C127.45 9.49599 126.405 10.75 126.405 12.301C126.405 13.841 127.45 15.095 129.089 15.095C130.684 15.095 131.762 13.885 131.762 12.301C131.762 10.706 130.684 9.49599 129.089 9.49599ZM146.469 11.014C146.469 8.53897 144.742 6.85597 142.322 6.85597C141.112 6.85597 139.946 7.26297 139.187 8.39597V7.14197H136.393V17.801H139.264V11.96C139.264 10.354 140.287 9.55097 141.519 9.55097C142.828 9.55097 143.598 10.398 143.598 11.938V17.801H146.469V11.014Z" fill="white" fill-opacity="0.9"/>
</svg>
