<svg viewBox="0 0 34 26" fill="none" xmlns="http://www.w3.org/2000/svg">
<path opacity="0.8" fill-rule="evenodd" clip-rule="evenodd" d="M4.72197 21.153C2.53547 18.914 2.53547 15.3393 4.72197 13.1003L12.777 4.85197C15.0381 2.53662 18.7619 2.53662 21.023 4.85197C23.2095 7.09095 23.2095 10.6657 21.023 12.9047L12.968 21.153C10.7069 23.4684 6.98306 23.4684 4.72197 21.153Z" fill="white"/>
<path opacity="0.4" fill-rule="evenodd" clip-rule="evenodd" d="M12.784 4.85183C15.045 2.53648 18.7689 2.53648 21.03 4.85183L29.085 13.1002C31.2715 15.3391 31.2715 18.9139 29.085 21.1529C26.8239 23.4682 23.1 23.4682 20.839 21.1529L12.784 12.9046C10.5974 10.6656 10.5974 7.09081 12.784 4.85183Z" fill="white"/>
<path fill-rule="evenodd" clip-rule="evenodd" d="M12.9616 4.65436C15.1196 2.44463 18.6735 2.44463 20.8315 4.65436L24.9516 8.87331L16.8966 17.1216L8.84156 8.87331L12.9616 4.65436Z" fill="white"/>
</svg>
