<svg xmlns="http://www.w3.org/2000/svg" width="20" height="18" viewBox="0 0 20 18" fill="none">
<mask id="path-1-outside-1_570_71165" maskUnits="userSpaceOnUse" x="-1" y="-0.563477" width="21" height="19" fill="black">
<rect fill="white" x="-1" y="-0.563477" width="21" height="19"/>
<path d="M15.8273 5.98773C15.6225 5.91744 15.4159 5.85233 15.2077 5.79245C15.2427 5.64958 15.2749 5.50844 15.3034 5.36978C15.7725 3.09279 15.4659 1.2584 14.4185 0.654426C13.4142 0.0754223 11.7719 0.679166 10.1132 2.12269C9.94977 2.26521 9.78993 2.41184 9.63387 2.56243C9.5294 2.46229 9.42308 2.3641 9.31497 2.26789C7.5766 0.724433 5.83418 0.0739184 4.78791 0.679617C3.78458 1.26043 3.48748 2.98488 3.90978 5.14284C3.95179 5.35656 3.99923 5.56918 4.05205 5.78049C3.80541 5.85057 3.56742 5.92517 3.33965 6.00457C1.30156 6.71517 0 7.82874 0 8.98381C0 10.1768 1.39728 11.3734 3.52004 12.0989C3.69214 12.1575 3.86567 12.2118 4.04047 12.2617C3.9837 12.4893 3.9333 12.7185 3.88933 12.9489C3.48673 15.0694 3.80112 16.7531 4.80175 17.3302C5.83523 17.9262 7.56984 17.3137 9.2588 15.8372C9.39575 15.7172 9.52969 15.5937 9.66049 15.467C9.8295 15.6301 10.003 15.7884 10.1808 15.9418C11.8169 17.3496 13.4327 17.9181 14.4324 17.3394C15.4649 16.7416 15.8005 14.9329 15.3648 12.7323C15.3305 12.5599 15.292 12.3884 15.2494 12.2178C15.3712 12.1817 15.4908 12.1446 15.6073 12.1059C17.8141 11.3748 19.25 10.1927 19.25 8.98381C19.25 7.82453 17.9064 6.70344 15.8273 5.98773ZM15.3487 11.3254C15.2434 11.3602 15.1355 11.3938 15.0254 11.4265C14.7817 10.6553 14.453 9.83518 14.0506 8.9878C14.4346 8.16065 14.7507 7.35102 14.9875 6.58478C15.1844 6.64178 15.3755 6.70186 15.5597 6.76525C17.3411 7.37854 18.4277 8.28517 18.4277 8.98381C18.4277 9.72795 17.2542 10.694 15.3487 11.3254ZM14.5581 12.892C14.7508 13.865 14.7782 14.7448 14.6506 15.4326C14.536 16.0507 14.3055 16.4627 14.0203 16.6277C13.4137 16.9789 12.1164 16.5224 10.7172 15.3184C10.5518 15.1758 10.3904 15.0286 10.2332 14.877C10.7756 14.2838 11.3177 13.5942 11.8468 12.8283C12.7774 12.7457 13.6566 12.6106 14.4539 12.4263C14.4931 12.5848 14.528 12.7401 14.5581 12.892ZM6.56275 16.567C5.97006 16.7763 5.49798 16.7823 5.21261 16.6178C4.60541 16.2676 4.35298 14.9157 4.6973 13.1023C4.73823 12.888 4.78509 12.6749 4.83784 12.4632C5.62634 12.6376 6.49913 12.7631 7.43193 12.8387C7.96461 13.5882 8.52233 14.277 9.08442 14.8803C8.96497 14.9958 8.84269 15.1085 8.71769 15.218C7.97078 15.8709 7.22236 16.3341 6.56275 16.567ZM3.78608 11.3208C2.84742 11 2.07223 10.583 1.5409 10.128C1.06341 9.71915 0.822411 9.31317 0.822411 8.98381C0.822411 8.28284 1.8674 7.38877 3.61035 6.78112C3.82188 6.70743 4.04325 6.63787 4.27297 6.5726C4.5139 7.35614 4.82987 8.17539 5.21118 9.00382C4.82491 9.8445 4.50442 10.6768 4.26117 11.4696C4.10161 11.4239 3.9432 11.3743 3.78608 11.3208ZM4.71685 4.98485C4.35509 3.13602 4.59534 1.74137 5.19998 1.39134C5.84395 1.01852 7.268 1.55008 8.76897 2.88284C8.86685 2.96995 8.96314 3.05882 9.0578 3.14941C8.4985 3.74999 7.94589 4.43374 7.41794 5.17878C6.51259 5.2627 5.64596 5.39745 4.84919 5.57799C4.8001 5.38145 4.75598 5.18369 4.71685 4.98493V4.98485ZM13.0204 7.03528C12.8322 6.7102 12.6371 6.38922 12.435 6.07255C13.0492 6.15023 13.6377 6.25332 14.1903 6.37935C14.0244 6.91113 13.8177 7.46705 13.5743 8.03703C13.3963 7.69946 13.2117 7.36547 13.0204 7.03528ZM9.63425 3.73713C10.0135 4.14808 10.3934 4.60684 10.7671 5.10464C10.0091 5.06884 9.24986 5.06869 8.49188 5.10419C8.8659 4.61098 9.24902 4.15281 9.63425 3.73713ZM6.22632 7.04092C6.03746 7.36846 5.85626 7.70036 5.68288 8.03635C5.44346 7.4684 5.23856 6.90993 5.07125 6.37063C5.62047 6.24776 6.20617 6.14729 6.81645 6.07105C6.61218 6.38965 6.41541 6.713 6.22632 7.04084V7.04092ZM6.83397 11.9551C6.20346 11.8847 5.60897 11.7894 5.05989 11.6699C5.22983 11.1209 5.43925 10.5506 5.68386 9.97045C5.85793 10.3067 6.03988 10.6388 6.22955 10.9665C6.42461 11.3034 6.62659 11.6333 6.83397 11.9551ZM9.65696 14.2884C9.26714 13.8679 8.87838 13.4027 8.49872 12.9023C8.86733 12.9168 9.24308 12.9241 9.625 12.9241C10.0174 12.9241 10.4052 12.9153 10.787 12.8983C10.4121 13.4077 10.0337 13.8736 9.65696 14.2884ZM13.582 9.94082C13.8393 10.5273 14.0562 11.0947 14.2284 11.6342C13.6703 11.7616 13.0677 11.8642 12.4327 11.9403C12.6362 11.6178 12.8332 11.2912 13.0237 10.9609C13.2173 10.625 13.4035 10.2849 13.582 9.94082ZM12.3114 10.55C12.0198 11.0565 11.7118 11.5535 11.3879 12.04C10.8012 12.0815 10.2132 12.1022 9.625 12.1019C9.02592 12.1019 8.44323 12.0832 7.88212 12.0468C7.54978 11.5614 7.23591 11.0636 6.9412 10.5545H6.94128C6.64796 10.0481 6.37397 9.53067 6.11992 9.00344C6.37332 8.47609 6.64648 7.95845 6.9388 7.45163L6.93872 7.45171C7.23093 6.94476 7.54229 6.44909 7.87212 5.96577C8.44458 5.92246 9.03163 5.8999 9.62492 5.8999H9.625C10.221 5.8999 10.8088 5.92269 11.3811 5.9663C11.7076 6.44889 12.017 6.94286 12.3086 7.44727C12.6019 7.95297 12.8787 8.46809 13.1385 8.99178C12.8814 9.52084 12.6055 10.0406 12.3114 10.55ZM14.0078 1.36683C14.6523 1.73859 14.903 3.23776 14.498 5.20374C14.4722 5.32917 14.4431 5.45693 14.4116 5.58649C13.6128 5.40211 12.7456 5.26503 11.8376 5.17983C11.3087 4.4266 10.7606 3.7418 10.2104 3.14896C10.3546 3.00996 10.5022 2.87457 10.6531 2.7429C12.0743 1.50616 13.4026 1.01785 14.0078 1.36683ZM9.625 7.26485C10.5743 7.26485 11.344 8.03447 11.344 8.98381C11.344 9.93316 10.5743 10.7028 9.625 10.7028C8.67566 10.7028 7.90603 9.93316 7.90603 8.98381C7.90603 8.03447 8.67566 7.26485 9.625 7.26485Z"/>
</mask>
<path d="M15.8273 5.98773C15.6225 5.91744 15.4159 5.85233 15.2077 5.79245C15.2427 5.64958 15.2749 5.50844 15.3034 5.36978C15.7725 3.09279 15.4659 1.2584 14.4185 0.654426C13.4142 0.0754223 11.7719 0.679166 10.1132 2.12269C9.94977 2.26521 9.78993 2.41184 9.63387 2.56243C9.5294 2.46229 9.42308 2.3641 9.31497 2.26789C7.5766 0.724433 5.83418 0.0739184 4.78791 0.679617C3.78458 1.26043 3.48748 2.98488 3.90978 5.14284C3.95179 5.35656 3.99923 5.56918 4.05205 5.78049C3.80541 5.85057 3.56742 5.92517 3.33965 6.00457C1.30156 6.71517 0 7.82874 0 8.98381C0 10.1768 1.39728 11.3734 3.52004 12.0989C3.69214 12.1575 3.86567 12.2118 4.04047 12.2617C3.9837 12.4893 3.9333 12.7185 3.88933 12.9489C3.48673 15.0694 3.80112 16.7531 4.80175 17.3302C5.83523 17.9262 7.56984 17.3137 9.2588 15.8372C9.39575 15.7172 9.52969 15.5937 9.66049 15.467C9.8295 15.6301 10.003 15.7884 10.1808 15.9418C11.8169 17.3496 13.4327 17.9181 14.4324 17.3394C15.4649 16.7416 15.8005 14.9329 15.3648 12.7323C15.3305 12.5599 15.292 12.3884 15.2494 12.2178C15.3712 12.1817 15.4908 12.1446 15.6073 12.1059C17.8141 11.3748 19.25 10.1927 19.25 8.98381C19.25 7.82453 17.9064 6.70344 15.8273 5.98773ZM15.3487 11.3254C15.2434 11.3602 15.1355 11.3938 15.0254 11.4265C14.7817 10.6553 14.453 9.83518 14.0506 8.9878C14.4346 8.16065 14.7507 7.35102 14.9875 6.58478C15.1844 6.64178 15.3755 6.70186 15.5597 6.76525C17.3411 7.37854 18.4277 8.28517 18.4277 8.98381C18.4277 9.72795 17.2542 10.694 15.3487 11.3254ZM14.5581 12.892C14.7508 13.865 14.7782 14.7448 14.6506 15.4326C14.536 16.0507 14.3055 16.4627 14.0203 16.6277C13.4137 16.9789 12.1164 16.5224 10.7172 15.3184C10.5518 15.1758 10.3904 15.0286 10.2332 14.877C10.7756 14.2838 11.3177 13.5942 11.8468 12.8283C12.7774 12.7457 13.6566 12.6106 14.4539 12.4263C14.4931 12.5848 14.528 12.7401 14.5581 12.892ZM6.56275 16.567C5.97006 16.7763 5.49798 16.7823 5.21261 16.6178C4.60541 16.2676 4.35298 14.9157 4.6973 13.1023C4.73823 12.888 4.78509 12.6749 4.83784 12.4632C5.62634 12.6376 6.49913 12.7631 7.43193 12.8387C7.96461 13.5882 8.52233 14.277 9.08442 14.8803C8.96497 14.9958 8.84269 15.1085 8.71769 15.218C7.97078 15.8709 7.22236 16.3341 6.56275 16.567ZM3.78608 11.3208C2.84742 11 2.07223 10.583 1.5409 10.128C1.06341 9.71915 0.822411 9.31317 0.822411 8.98381C0.822411 8.28284 1.8674 7.38877 3.61035 6.78112C3.82188 6.70743 4.04325 6.63787 4.27297 6.5726C4.5139 7.35614 4.82987 8.17539 5.21118 9.00382C4.82491 9.8445 4.50442 10.6768 4.26117 11.4696C4.10161 11.4239 3.9432 11.3743 3.78608 11.3208ZM4.71685 4.98485C4.35509 3.13602 4.59534 1.74137 5.19998 1.39134C5.84395 1.01852 7.268 1.55008 8.76897 2.88284C8.86685 2.96995 8.96314 3.05882 9.0578 3.14941C8.4985 3.74999 7.94589 4.43374 7.41794 5.17878C6.51259 5.2627 5.64596 5.39745 4.84919 5.57799C4.8001 5.38145 4.75598 5.18369 4.71685 4.98493V4.98485ZM13.0204 7.03528C12.8322 6.7102 12.6371 6.38922 12.435 6.07255C13.0492 6.15023 13.6377 6.25332 14.1903 6.37935C14.0244 6.91113 13.8177 7.46705 13.5743 8.03703C13.3963 7.69946 13.2117 7.36547 13.0204 7.03528ZM9.63425 3.73713C10.0135 4.14808 10.3934 4.60684 10.7671 5.10464C10.0091 5.06884 9.24986 5.06869 8.49188 5.10419C8.8659 4.61098 9.24902 4.15281 9.63425 3.73713ZM6.22632 7.04092C6.03746 7.36846 5.85626 7.70036 5.68288 8.03635C5.44346 7.4684 5.23856 6.90993 5.07125 6.37063C5.62047 6.24776 6.20617 6.14729 6.81645 6.07105C6.61218 6.38965 6.41541 6.713 6.22632 7.04084V7.04092ZM6.83397 11.9551C6.20346 11.8847 5.60897 11.7894 5.05989 11.6699C5.22983 11.1209 5.43925 10.5506 5.68386 9.97045C5.85793 10.3067 6.03988 10.6388 6.22955 10.9665C6.42461 11.3034 6.62659 11.6333 6.83397 11.9551ZM9.65696 14.2884C9.26714 13.8679 8.87838 13.4027 8.49872 12.9023C8.86733 12.9168 9.24308 12.9241 9.625 12.9241C10.0174 12.9241 10.4052 12.9153 10.787 12.8983C10.4121 13.4077 10.0337 13.8736 9.65696 14.2884ZM13.582 9.94082C13.8393 10.5273 14.0562 11.0947 14.2284 11.6342C13.6703 11.7616 13.0677 11.8642 12.4327 11.9403C12.6362 11.6178 12.8332 11.2912 13.0237 10.9609C13.2173 10.625 13.4035 10.2849 13.582 9.94082ZM12.3114 10.55C12.0198 11.0565 11.7118 11.5535 11.3879 12.04C10.8012 12.0815 10.2132 12.1022 9.625 12.1019C9.02592 12.1019 8.44323 12.0832 7.88212 12.0468C7.54978 11.5614 7.23591 11.0636 6.9412 10.5545H6.94128C6.64796 10.0481 6.37397 9.53067 6.11992 9.00344C6.37332 8.47609 6.64648 7.95845 6.9388 7.45163L6.93872 7.45171C7.23093 6.94476 7.54229 6.44909 7.87212 5.96577C8.44458 5.92246 9.03163 5.8999 9.62492 5.8999H9.625C10.221 5.8999 10.8088 5.92269 11.3811 5.9663C11.7076 6.44889 12.017 6.94286 12.3086 7.44727C12.6019 7.95297 12.8787 8.46809 13.1385 8.99178C12.8814 9.52084 12.6055 10.0406 12.3114 10.55ZM14.0078 1.36683C14.6523 1.73859 14.903 3.23776 14.498 5.20374C14.4722 5.32917 14.4431 5.45693 14.4116 5.58649C13.6128 5.40211 12.7456 5.26503 11.8376 5.17983C11.3087 4.4266 10.7606 3.7418 10.2104 3.14896C10.3546 3.00996 10.5022 2.87457 10.6531 2.7429C12.0743 1.50616 13.4026 1.01785 14.0078 1.36683ZM9.625 7.26485C10.5743 7.26485 11.344 8.03447 11.344 8.98381C11.344 9.93316 10.5743 10.7028 9.625 10.7028C8.67566 10.7028 7.90603 9.93316 7.90603 8.98381C7.90603 8.03447 8.67566 7.26485 9.625 7.26485Z" fill="#3DD2FB"/>
<path d="M15.8273 5.98773C15.6225 5.91744 15.4159 5.85233 15.2077 5.79245C15.2427 5.64958 15.2749 5.50844 15.3034 5.36978C15.7725 3.09279 15.4659 1.2584 14.4185 0.654426C13.4142 0.0754223 11.7719 0.679166 10.1132 2.12269C9.94977 2.26521 9.78993 2.41184 9.63387 2.56243C9.5294 2.46229 9.42308 2.3641 9.31497 2.26789C7.5766 0.724433 5.83418 0.0739184 4.78791 0.679617C3.78458 1.26043 3.48748 2.98488 3.90978 5.14284C3.95179 5.35656 3.99923 5.56918 4.05205 5.78049C3.80541 5.85057 3.56742 5.92517 3.33965 6.00457C1.30156 6.71517 0 7.82874 0 8.98381C0 10.1768 1.39728 11.3734 3.52004 12.0989C3.69214 12.1575 3.86567 12.2118 4.04047 12.2617C3.9837 12.4893 3.9333 12.7185 3.88933 12.9489C3.48673 15.0694 3.80112 16.7531 4.80175 17.3302C5.83523 17.9262 7.56984 17.3137 9.2588 15.8372C9.39575 15.7172 9.52969 15.5937 9.66049 15.467C9.8295 15.6301 10.003 15.7884 10.1808 15.9418C11.8169 17.3496 13.4327 17.9181 14.4324 17.3394C15.4649 16.7416 15.8005 14.9329 15.3648 12.7323C15.3305 12.5599 15.292 12.3884 15.2494 12.2178C15.3712 12.1817 15.4908 12.1446 15.6073 12.1059C17.8141 11.3748 19.25 10.1927 19.25 8.98381C19.25 7.82453 17.9064 6.70344 15.8273 5.98773ZM15.3487 11.3254C15.2434 11.3602 15.1355 11.3938 15.0254 11.4265C14.7817 10.6553 14.453 9.83518 14.0506 8.9878C14.4346 8.16065 14.7507 7.35102 14.9875 6.58478C15.1844 6.64178 15.3755 6.70186 15.5597 6.76525C17.3411 7.37854 18.4277 8.28517 18.4277 8.98381C18.4277 9.72795 17.2542 10.694 15.3487 11.3254ZM14.5581 12.892C14.7508 13.865 14.7782 14.7448 14.6506 15.4326C14.536 16.0507 14.3055 16.4627 14.0203 16.6277C13.4137 16.9789 12.1164 16.5224 10.7172 15.3184C10.5518 15.1758 10.3904 15.0286 10.2332 14.877C10.7756 14.2838 11.3177 13.5942 11.8468 12.8283C12.7774 12.7457 13.6566 12.6106 14.4539 12.4263C14.4931 12.5848 14.528 12.7401 14.5581 12.892ZM6.56275 16.567C5.97006 16.7763 5.49798 16.7823 5.21261 16.6178C4.60541 16.2676 4.35298 14.9157 4.6973 13.1023C4.73823 12.888 4.78509 12.6749 4.83784 12.4632C5.62634 12.6376 6.49913 12.7631 7.43193 12.8387C7.96461 13.5882 8.52233 14.277 9.08442 14.8803C8.96497 14.9958 8.84269 15.1085 8.71769 15.218C7.97078 15.8709 7.22236 16.3341 6.56275 16.567ZM3.78608 11.3208C2.84742 11 2.07223 10.583 1.5409 10.128C1.06341 9.71915 0.822411 9.31317 0.822411 8.98381C0.822411 8.28284 1.8674 7.38877 3.61035 6.78112C3.82188 6.70743 4.04325 6.63787 4.27297 6.5726C4.5139 7.35614 4.82987 8.17539 5.21118 9.00382C4.82491 9.8445 4.50442 10.6768 4.26117 11.4696C4.10161 11.4239 3.9432 11.3743 3.78608 11.3208ZM4.71685 4.98485C4.35509 3.13602 4.59534 1.74137 5.19998 1.39134C5.84395 1.01852 7.268 1.55008 8.76897 2.88284C8.86685 2.96995 8.96314 3.05882 9.0578 3.14941C8.4985 3.74999 7.94589 4.43374 7.41794 5.17878C6.51259 5.2627 5.64596 5.39745 4.84919 5.57799C4.8001 5.38145 4.75598 5.18369 4.71685 4.98493V4.98485ZM13.0204 7.03528C12.8322 6.7102 12.6371 6.38922 12.435 6.07255C13.0492 6.15023 13.6377 6.25332 14.1903 6.37935C14.0244 6.91113 13.8177 7.46705 13.5743 8.03703C13.3963 7.69946 13.2117 7.36547 13.0204 7.03528ZM9.63425 3.73713C10.0135 4.14808 10.3934 4.60684 10.7671 5.10464C10.0091 5.06884 9.24986 5.06869 8.49188 5.10419C8.8659 4.61098 9.24902 4.15281 9.63425 3.73713ZM6.22632 7.04092C6.03746 7.36846 5.85626 7.70036 5.68288 8.03635C5.44346 7.4684 5.23856 6.90993 5.07125 6.37063C5.62047 6.24776 6.20617 6.14729 6.81645 6.07105C6.61218 6.38965 6.41541 6.713 6.22632 7.04084V7.04092ZM6.83397 11.9551C6.20346 11.8847 5.60897 11.7894 5.05989 11.6699C5.22983 11.1209 5.43925 10.5506 5.68386 9.97045C5.85793 10.3067 6.03988 10.6388 6.22955 10.9665C6.42461 11.3034 6.62659 11.6333 6.83397 11.9551ZM9.65696 14.2884C9.26714 13.8679 8.87838 13.4027 8.49872 12.9023C8.86733 12.9168 9.24308 12.9241 9.625 12.9241C10.0174 12.9241 10.4052 12.9153 10.787 12.8983C10.4121 13.4077 10.0337 13.8736 9.65696 14.2884ZM13.582 9.94082C13.8393 10.5273 14.0562 11.0947 14.2284 11.6342C13.6703 11.7616 13.0677 11.8642 12.4327 11.9403C12.6362 11.6178 12.8332 11.2912 13.0237 10.9609C13.2173 10.625 13.4035 10.2849 13.582 9.94082ZM12.3114 10.55C12.0198 11.0565 11.7118 11.5535 11.3879 12.04C10.8012 12.0815 10.2132 12.1022 9.625 12.1019C9.02592 12.1019 8.44323 12.0832 7.88212 12.0468C7.54978 11.5614 7.23591 11.0636 6.9412 10.5545H6.94128C6.64796 10.0481 6.37397 9.53067 6.11992 9.00344C6.37332 8.47609 6.64648 7.95845 6.9388 7.45163L6.93872 7.45171C7.23093 6.94476 7.54229 6.44909 7.87212 5.96577C8.44458 5.92246 9.03163 5.8999 9.62492 5.8999H9.625C10.221 5.8999 10.8088 5.92269 11.3811 5.9663C11.7076 6.44889 12.017 6.94286 12.3086 7.44727C12.6019 7.95297 12.8787 8.46809 13.1385 8.99178C12.8814 9.52084 12.6055 10.0406 12.3114 10.55ZM14.0078 1.36683C14.6523 1.73859 14.903 3.23776 14.498 5.20374C14.4722 5.32917 14.4431 5.45693 14.4116 5.58649C13.6128 5.40211 12.7456 5.26503 11.8376 5.17983C11.3087 4.4266 10.7606 3.7418 10.2104 3.14896C10.3546 3.00996 10.5022 2.87457 10.6531 2.7429C12.0743 1.50616 13.4026 1.01785 14.0078 1.36683ZM9.625 7.26485C10.5743 7.26485 11.344 8.03447 11.344 8.98381C11.344 9.93316 10.5743 10.7028 9.625 10.7028C8.67566 10.7028 7.90603 9.93316 7.90603 8.98381C7.90603 8.03447 8.67566 7.26485 9.625 7.26485Z" stroke="#3DD2FB" stroke-width="0.2" mask="url(#path-1-outside-1_570_71165)"/>
</svg>
