<svg viewBox="0 0 24 24" fill="none" xmlns="http://www.w3.org/2000/svg">
<path fill-rule="evenodd" clip-rule="evenodd" d="M12 21C16.932 21 20.9374 17.0328 20.9993 12.1155L21.0001 12.0903V7.73684H21V9H15.0289C15.7919 9.77031 16.2632 10.8301 16.2632 12C16.2632 12.0529 16.2622 12.1056 16.2603 12.158C16.2576 12.2202 16.2525 12.3097 16.2432 12.4153C16.0344 14.5749 14.2144 16.2632 12 16.2632C9.64552 16.2632 7.73684 14.3545 7.73684 12C7.73684 9.64552 9.64552 7.73684 12 7.73684C13.1699 7.73684 14.2297 8.20806 15 8.97105V3H12H11.9276L11.8825 3.00075C6.9661 3.06365 3 7.06866 3 12C3 16.9706 7.02944 21 12 21Z" fill="#165DFF"/>
<rect x="15" y="3" width="6" height="6" fill="#6A98FF"/>
</svg>
