<svg viewBox="0 0 30 24" fill="none" xmlns="http://www.w3.org/2000/svg">
<path fill-rule="evenodd" clip-rule="evenodd" d="M3.87772 11.9796L11.25 4.4304C13.2164 2.41675 16.4429 2.3785 18.4566 4.34494C18.4854 4.37309 18.5139 4.40158 18.542 4.4304L18.6223 4.51255C20.6051 6.543 20.6051 9.78484 18.6223 11.8153L11.25 19.3645C9.28355 21.3781 6.05705 21.4164 4.04341 19.4499C4.01459 19.4218 3.9861 19.3933 3.95795 19.3645L3.87772 19.2823C1.89486 17.2519 1.89486 14.0101 3.87772 11.9796Z" fill="#12D2AC"/>
<path fill-rule="evenodd" clip-rule="evenodd" d="M18.5481 4.43022L25.8401 11.8973C27.8676 13.9734 27.8676 17.2882 25.8401 19.3643C23.8737 21.378 20.6472 21.4162 18.6335 19.4498C18.6047 19.4216 18.5762 19.3931 18.5481 19.3643L11.256 11.8973C9.22855 9.82113 9.22855 6.50636 11.256 4.43022C13.2225 2.41658 16.449 2.37832 18.4626 4.34477C18.4914 4.37291 18.5199 4.4014 18.5481 4.43022Z" fill="#307AF2"/>
<path fill-rule="evenodd" clip-rule="evenodd" d="M18.6324 4.52175L22.1855 8.16006L14.8934 15.6271L7.6014 8.16006L11.1544 4.52175C13.171 2.45676 16.4798 2.41752 18.5448 4.43412C18.5744 4.46298 18.6036 4.49219 18.6324 4.52175Z" fill="#0057FE"/>
</svg>
