<svg xmlns="http://www.w3.org/2000/svg" xmlns:xlink="http://www.w3.org/1999/xlink" width="28" height="28" viewBox="0 0 28 28" fill="none"><defs><rect id="path_0" x="0" y="0" width="28" height="28" /></defs><g opacity="1" transform="translate(0 0)  rotate(0 14 14)"><mask id="bg-mask" fill="white"><use xlink:href="#path_0"></use></mask><g mask="url(#bg-mask)" ><g opacity="1" transform="translate(2.4999999999999964 1.2142449884606776)  rotate(0 11.499999999999998 12.785755011539322)"><g opacity="1" transform="translate(0 0)  rotate(0 11.499999999999998 12.785755011539322)"><g opacity="1" transform="translate(0 0)  rotate(0 11.499999999999998 12.785755011539322)"><path id="排除重叠" fill-rule="evenodd" style="fill:#165DFF" transform="translate(0 0)  rotate(0 11.499999999999998 12.785755011539322)" opacity="1" d="M16.72 25.57L6.28 25.57C5.68 25.57 5.14 25.24 4.86 24.73L0.18 15.94C-0.06 15.47 -0.06 14.91 0.18 14.44L7.57 0.56C7.85 0.05 8.49 -0.15 9.01 0.13C9.2 0.22 9.35 0.37 9.44 0.56L11.49 4.42L13.56 0.56C13.83 0.05 14.47 -0.15 14.99 0.13C15.17 0.22 15.33 0.37 15.43 0.56L22.82 14.44C23.06 14.91 23.06 15.47 22.82 15.94L18.14 24.73C17.86 25.24 17.32 25.57 16.72 25.57ZM6.43481 15.1885C6.43481 17.9785 8.70481 20.2585 11.4948 20.2585C14.2948 20.2585 16.5648 17.9785 16.5648 15.1885C16.5648 14.2785 16.3248 13.4285 15.9048 12.6985L14.4948 10.0585L12.9848 12.8985L13.6048 14.0585C13.7948 14.4085 13.8848 14.7985 13.8848 15.1785L13.9048 15.1785L13.9048 15.2285C13.8748 16.5385 12.8148 17.5885 11.4948 17.5885C10.1748 17.5885 9.10481 16.5185 9.10481 15.1885L9.10481 15.1785C9.10481 15.0285 9.11481 14.8785 9.15481 14.7085L9.15481 14.6785C9.21481 14.4285 9.29481 14.2085 9.41481 14.0085L9.41481 13.9985L11.4948 10.0785L11.4948 10.0985L13.0148 7.25849L14.0148 5.34849C14.0748 5.25849 14.1448 5.18849 14.2448 5.12849C14.4948 4.99849 14.8248 5.08849 14.9548 5.34849L19.9948 14.8085C20.1248 15.0385 20.1248 15.3185 19.9948 15.5585L16.3048 22.4785C16.1648 22.7385 15.8948 22.9085 15.6048 22.9085L7.39481 22.9085C7.10481 22.9085 6.83481 22.7385 6.69481 22.4785L3.00481 15.5585C2.87481 15.3185 2.87481 15.0385 3.00481 14.8085L8.04481 5.34849C8.08481 5.25849 8.15481 5.18849 8.25481 5.12849C8.52481 4.99849 8.83481 5.08849 8.97481 5.34849L9.98481 7.25849L7.03481 12.7985C6.89481 13.0685 6.77481 13.3385 6.69481 13.6185L6.68481 13.6585L6.63481 13.7885C6.50481 14.2285 6.43481 14.6985 6.43481 15.1885Z " /></g></g></g></g></g></svg>