<svg width="147" height="22" viewBox="0 0 147 22" fill="none" xmlns="http://www.w3.org/2000/svg">
<path fill-rule="evenodd" clip-rule="evenodd" d="M3.84699 18.6526C1.86413 16.6221 1.86413 13.3803 3.84699 11.3498L12.1645 2.83273C14.215 0.733026 17.592 0.733026 19.6425 2.83273L20.1488 3.35124C22.1317 5.38168 22.1317 8.62352 20.1488 10.654L11.8313 19.1711C9.78084 21.2708 6.40383 21.2708 4.35334 19.1711L3.84699 18.6526Z" fill="#12D2AC"/>
<path fill-rule="evenodd" clip-rule="evenodd" d="M11.9115 3.09853C14.1041 0.853277 17.7152 0.853277 19.9078 3.09853L27.719 11.0971C29.8393 13.2683 29.8393 16.7349 27.719 18.9061C25.5264 21.1513 21.9153 21.1513 19.7226 18.9061L11.9115 10.9075C9.79118 8.73627 9.79118 5.26972 11.9115 3.09853Z" fill="#307AF2"/>
<path fill-rule="evenodd" clip-rule="evenodd" d="M12.1619 2.82873C14.2124 0.72903 17.5894 0.72903 19.6399 2.82873L23.712 6.9986L15.9009 14.9972L8.08974 6.9986L12.1619 2.82873Z" fill="#0057FE"/>
<ellipse cx="82.4079" cy="15.2252" rx="1.85" ry="1.85" fill="#1A2234"/>
<path fill-rule="evenodd" clip-rule="evenodd" d="M90.2923 5.85594C91.7223 5.85594 92.7343 6.41694 93.4273 7.25294V0.960938H96.2873V16.8009H93.4823V15.6239C92.7893 16.4819 91.7553 17.0759 90.2923 17.0759C87.3552 17.0759 85.1332 14.6669 85.1332 11.4659C85.1332 8.26494 87.3552 5.85594 90.2923 5.85594ZM49.2182 16.801V6.14197H46.4132V7.31897C45.7092 6.44997 44.6862 5.85597 43.2232 5.85597C40.2862 5.85597 38.0642 8.26497 38.0642 11.466C38.0642 14.667 40.2862 17.076 43.2232 17.076C44.6862 17.076 45.7202 16.482 46.4132 15.624V16.801H49.2182ZM41.0012 11.466C41.0012 9.83798 42.0682 8.52898 43.7512 8.52898C45.3902 8.52898 46.5012 9.78298 46.5012 11.466C46.5012 13.149 45.3902 14.403 43.7512 14.403C42.0682 14.403 41.0012 13.094 41.0012 11.466ZM56.9182 5.85597C57.5342 5.85597 58.0182 5.94397 58.4142 6.08697L57.9852 8.93597C57.5122 8.72697 56.8302 8.59497 56.2472 8.59497C54.9162 8.59497 54.0032 9.40898 54.0032 10.993V16.801H51.1322V6.14197H53.9152V7.30797C54.5862 6.30697 55.6092 5.85597 56.9182 5.85597ZM68.1931 7.86897C67.2141 6.58197 65.7071 5.85597 63.9251 5.85597C60.5261 5.85597 58.2491 8.24297 58.2491 11.466C58.2491 14.7 60.5261 17.076 63.9251 17.076C65.7071 17.076 67.2031 16.361 68.2041 15.074L66.1581 13.325C65.5531 13.985 64.7611 14.403 63.8371 14.403C62.3521 14.403 61.1751 13.248 61.1751 11.466C61.1751 9.69497 62.3631 8.52897 63.8481 8.52897C64.7831 8.52897 65.4761 8.90297 66.1251 9.59597L68.1931 7.86897ZM74.0452 5.85597C77.3672 5.85597 79.8202 8.25397 79.8202 11.466C79.8202 14.678 77.3672 17.076 74.0452 17.076C70.7342 17.076 68.2922 14.678 68.2922 11.466C68.2922 8.25397 70.7342 5.85597 74.0452 5.85597ZM71.2181 11.466C71.2181 9.73898 72.4281 8.52898 74.0451 8.52898C75.6621 8.52898 76.8831 9.73898 76.8831 11.466C76.8831 13.193 75.6621 14.403 74.0451 14.403C72.4281 14.403 71.2181 13.193 71.2181 11.466ZM88.0702 11.466C88.0702 9.83798 89.1372 8.52898 90.8203 8.52898C92.4593 8.52898 93.5703 9.78298 93.5703 11.466C93.5703 13.149 92.4593 14.403 90.8203 14.403C89.1372 14.403 88.0702 13.094 88.0702 11.466ZM102.931 5.85597C106 5.85597 108.101 8.13297 108.112 11.455C108.112 11.785 108.09 12.181 108.057 12.423H100.5C100.808 13.963 101.886 14.634 103.239 14.634C104.163 14.634 105.164 14.26 105.934 13.611L107.617 15.459C106.407 16.57 104.867 17.076 103.074 17.076C99.8072 17.076 97.5412 14.854 97.5412 11.499C97.5412 8.14397 99.7412 5.85597 102.931 5.85597ZM100.511 10.465C100.764 9.14495 101.556 8.33095 102.909 8.33095C104.141 8.33095 104.966 9.10096 105.23 10.465H100.511ZM117.891 6.87902L116.923 9.11202C116.076 8.69402 114.723 8.25402 113.524 8.24302C112.435 8.24302 111.885 8.62802 111.885 9.21102C111.885 9.82702 112.655 9.98102 113.623 10.124L114.569 10.267C116.879 10.619 118.166 11.653 118.166 13.457C118.166 15.657 116.362 17.076 113.271 17.076C111.819 17.076 109.916 16.801 108.53 15.822L109.663 13.644C110.576 14.249 111.687 14.689 113.293 14.689C114.624 14.689 115.262 14.315 115.262 13.688C115.262 13.171 114.723 12.885 113.491 12.709L112.622 12.588C110.158 12.247 108.937 11.169 108.937 9.35402C108.937 7.16502 110.631 5.86702 113.436 5.86702C115.141 5.86702 116.472 6.18602 117.891 6.87902ZM122.203 16.801V6.14203H119.332V16.801H122.203ZM120.751 0.960938C121.785 0.960938 122.588 1.77494 122.588 2.80894C122.588 3.84294 121.785 4.63494 120.751 4.63494C119.717 4.63494 118.925 3.84294 118.925 2.80894C118.925 1.77494 119.717 0.960938 120.751 0.960938ZM131.663 7.32997C130.937 6.42797 129.848 5.85597 128.363 5.85597C125.767 5.85597 123.457 8.02297 123.457 11.301C123.457 14.568 125.767 16.735 128.363 16.735C129.837 16.735 130.915 16.185 131.641 15.294V16.042C131.641 17.879 130.387 18.869 128.605 18.869C127.329 18.869 126.152 18.484 125.085 17.78L124.062 20.123C125.261 20.97 127.043 21.41 128.726 21.41C132.246 21.41 134.479 19.342 134.479 15.921V6.14197H131.663V7.32997ZM129.089 8.49599C127.45 8.49599 126.405 9.74999 126.405 11.301C126.405 12.841 127.45 14.095 129.089 14.095C130.684 14.095 131.762 12.885 131.762 11.301C131.762 9.70599 130.684 8.49599 129.089 8.49599ZM146.469 10.014C146.469 7.53897 144.742 5.85597 142.322 5.85597C141.112 5.85597 139.946 6.26297 139.187 7.39597V6.14197H136.393V16.801H139.264V10.96C139.264 9.35398 140.287 8.55097 141.519 8.55097C142.828 8.55097 143.598 9.39797 143.598 10.938V16.801H146.469V10.014Z" fill="#1A2234"/>
</svg>
