<svg width="48" height="48" viewBox="0 0 48 48" fill="none" xmlns="http://www.w3.org/2000/svg" stroke="currentColor" stroke-width="4">
<path d="M24 42C17.9249 42 13 37.0751 13 31V18H35V31C35 37.0751 30.0751 42 24 42ZM24 42V23M35 27H43M5 27H13M7 14C7 16.2091 8.79086 18 11 18H37C39.2091 18 41 16.2091 41 14M41 42V41.5C41 37.9101 38.0899 35 34.5 35M7 42V41.5C7 37.9101 9.91015 35 13.5 35M17 14C17 10.134 20.134 7 24 7C27.866 7 31 10.134 31 14" stroke-linejoin="round" stroke-linecap="butt"></path>
</svg>