<svg width="48" height="48" viewBox="0 0 48 48" fill="none" xmlns="http://www.w3.org/2000/svg" stroke="currentColor" stroke-width="4">
<path d="M17 42H31M37 18C37 20.8235 36.0999 23.4367 34.5709 25.5684C33.0314 27.7149 31.3846 29.8887 30.8009 32.4649L30.1765 35.221C30.0733 35.6766 29.6684 36 29.2012 36H18.7988C18.3316 36 17.9267 35.6766 17.8235 35.221L17.1991 32.4649C16.6154 29.8887 14.9686 27.7149 13.4291 25.5684C11.9001 23.4367 11 20.8235 11 18C11 10.8203 16.8203 5 24 5C31.1797 5 37 10.8203 37 18Z" stroke-linecap="butt"></path>
</svg>