<svg width="48" height="48" viewBox="0 0 48 48" fill="none" xmlns="http://www.w3.org/2000/svg" stroke="currentColor" stroke-width="4">
<path d="M33 12L31.1382 8.27639C31.0535 8.107 30.8804 8 30.691 8H17.309C17.1196 8 16.9465 8.107 16.8618 8.27639L15 12M31 26C31 29.866 27.866 33 24 33C20.134 33 17 29.866 17 26C17 22.134 20.134 19 24 19C27.866 19 31 22.134 31 26ZM7 40H41C41.5523 40 42 39.5523 42 39V13C42 12.4477 41.5523 12 41 12H7C6.44772 12 6 12.4477 6 13V39C6 39.5523 6.44772 40 7 40Z" stroke-linecap="butt"></path>
</svg>