<svg width="48" height="48" viewBox="0 0 48 48" fill="none" xmlns="http://www.w3.org/2000/svg" stroke="currentColor" stroke-width="4">
<path d="M29 19V13C29 9.68629 31.6863 7 35 7C38.3137 7 41 9.68629 41 13C41 16.3137 38.3137 19 35 19H29ZM29 19V29M29 19H19M29 29V35C29 38.3137 31.6863 41 35 41C38.3137 41 41 38.3137 41 35C41 31.6863 38.3137 29 35 29H29ZM29 29H19M19 19V29M19 19V13C19 9.68629 16.3137 7 13 7C9.68629 7 7 9.68629 7 13C7 16.3137 9.68629 19 13 19H19ZM19 29V35C19 38.3137 16.3137 41 13 41C9.68629 41 7 38.3137 7 35C7 31.6863 9.68629 29 13 29H19Z" stroke-linecap="butt"></path>
</svg>