<svg width="48" height="48" viewBox="0 0 48 48" fill="none" xmlns="http://www.w3.org/2000/svg" stroke="currentColor" stroke-width="4">
<path d="M41.8078 24C41.9263 28.6294 40.3219 33.3331 36.5971 37M41.8078 24H33.4995M41.8078 24C41.6957 19.6197 40.0411 15.306 37.1808 12M23.9997 6C29.5312 6 34.0694 8.40381 37.1808 12M23.9997 6C18.276 6 13.6159 8.57378 10.4995 12.3792M23.9997 6V13.5M37.1808 12L30.9995 17.5M10.4995 12.3792L16.9995 17.5M10.4995 12.3792C6.99096 16.6634 5.43911 22.5088 6.52911 28M11.4023 37C8.75253 34.3914 7.17582 31.258 6.52911 28M6.52911 28L15.4995 24.5" stroke-linecap="butt"></path>
<path d="M24 32C21.2386 32 19 34.2386 19 37C19 39.7614 21.2386 42 24 42C26.7614 42 29 39.7614 29 37C29 34.2386 26.7614 32 24 32ZM24 32V19" stroke-linejoin="round" stroke-linecap="butt"></path>
</svg>