<svg width="48" height="48" viewBox="0 0 48 48" fill="none" xmlns="http://www.w3.org/2000/svg" stroke="currentColor" stroke-width="4">
<path d="M24 5V11M31 12L35 8M17 12L13 8M41.5 30L28 30C28 30 27 33 24 33C21 33 20 30 20 30H6.5M40 41H8C6.89543 41 6 40.1046 6 39L6 30.5407C6 30.1866 6.09402 29.8388 6.27244 29.533L12.4212 18.9923C12.7796 18.3778 13.4374 18 14.1487 18H33.8513C34.5626 18 35.2204 18.3778 35.5788 18.9923L41.7276 29.533C41.906 29.8388 42 30.1866 42 30.5407V39C42 40.1046 41.1046 41 40 41Z" stroke-linecap="butt"></path>
</svg>