<svg width="48" height="48" viewBox="0 0 48 48" fill="none" xmlns="http://www.w3.org/2000/svg" stroke="currentColor" stroke-width="4">
<path d="M11 42H37C38.1046 42 39 41.1046 39 40V24V13.8284C39 13.298 38.7893 12.7893 38.4142 12.4142L32.5858 6.58579C32.2107 6.21071 31.702 6 31.1716 6H25H11C9.89543 6 9 6.89543 9 8V40C9 41.1046 9.89543 42 11 42Z" stroke-linecap="butt"></path>
<path d="M22.3052 21.0276C23.1787 22.9669 25.8106 27.2928 27.2081 29.0829C28.9551 31.3204 30.702 31.768 31.5755 31.3204C32.4489 30.8729 32.7868 26.7724 24.151 28.6354C16.6277 30.2583 16.7265 32.2155 17.1633 33.1105C17.8911 34.3039 19.6848 35.7384 22.8408 26.8453C25.6994 18.7901 24.4889 17 23.2775 17C21.8685 17 20.7389 17.8055 22.3052 21.0276Z" stroke-linecap="butt"></path>
</svg>