<svg width="48" height="48" viewBox="0 0 48 48" fill="none" xmlns="http://www.w3.org/2000/svg" stroke="currentColor" stroke-width="4">
<path d="M37 42H11C9.89543 42 9 41.1046 9 40V8C9 6.89543 9.89543 6 11 6H32L39 13V40C39 41.1046 38.1046 42 37 42Z" stroke-linecap="butt"></path>
<path d="M25 30C25 31.6569 23.6569 33 22 33C20.3431 33 19 31.6569 19 30C19 28.3431 20.3431 27 22 27C23.6569 27 25 28.3431 25 30Z" fill="currentColor" stroke="none" stroke-width="none" stroke-linecap="butt"></path>
<path d="M25 30C25 31.6569 23.6569 33 22 33C20.3431 33 19 31.6569 19 30C19 28.3431 20.3431 27 22 27C23.6569 27 25 28.3431 25 30ZM25 30L24.049 17.6365C24.0241 17.3128 24.3095 17.0516 24.6297 17.1049L30 18" stroke-linecap="butt"></path>
</svg>