<svg width="48" height="48" viewBox="0 0 48 48" fill="none" xmlns="http://www.w3.org/2000/svg" stroke="currentColor" stroke-width="4">
<path d="M13.4497 14.0434H8C7.44772 14.0434 7 14.4911 7 15.0434V23.0434C7 23.5957 7.44772 24.0434 8 24.0434H40C40.5523 24.0434 41 23.5957 41 23.0434V15.0434C41 14.4911 40.5523 14.0434 40 14.0434H35.1067M13.4497 14.0434C12.414 11.2096 12.8345 8.44349 14.6317 7.40584C16.7841 6.1632 20.0959 7.86997 22.0288 11.218C22.5677 12.1514 22.9426 13.1138 23.1563 14.0434M13.4497 14.0434H23.1563M23.1563 14.0434H25.4001M25.4001 14.0434C25.6138 13.1138 25.9887 12.1514 26.5275 11.218C28.4605 7.86997 31.7723 6.1632 33.9247 7.40584C35.7219 8.44349 36.1424 11.2096 35.1067 14.0434M25.4001 14.0434H35.1067M10 26.0434C10 24.9388 10.8954 24.0434 12 24.0434H36C37.1046 24.0434 38 24.9388 38 26.0434V39.0434C38 40.148 37.1046 41.0434 36 41.0434H12C10.8954 41.0434 10 40.148 10 39.0434V26.0434Z" stroke-linecap="butt"></path>
</svg>