<svg width="48" height="48" viewBox="0 0 48 48" fill="none" xmlns="http://www.w3.org/2000/svg" stroke="currentColor" stroke-width="4">
<path d="M17 14L31 14M37.125 42H10.875C9.83947 42 9 41.1046 9 40V8C9 6.89543 9.83947 6 10.875 6H37.125C38.1605 6 39 6.89543 39 8V40C39 41.1046 38.1605 42 37.125 42ZM22 33C22 31.8954 22.8954 31 24 31C25.1046 31 26 31.8954 26 33C26 34.1046 25.1046 35 24 35C22.8954 35 22 34.1046 22 33Z" stroke-linecap="butt"></path>
<circle cx="24" cy="33" r="2" fill="currentColor" stroke="none" stroke-width="none" stroke-linecap="butt"></circle>
</svg>