<svg width="48" height="48" viewBox="0 0 48 48" fill="none" xmlns="http://www.w3.org/2000/svg" stroke="currentColor" stroke-width="4">
<path d="M6 7H10V11H6V7Z" fill="currentColor" stroke="none" stroke-width="none" stroke-linecap="butt"></path>
<path d="M6 23H10V27H6V23Z" fill="currentColor" stroke="none" stroke-width="none" stroke-linecap="butt"></path>
<path d="M6 38H10V42H6V38Z" fill="currentColor" stroke="none" stroke-width="none" stroke-linecap="butt"></path>
<path d="M14 15H18V19H14V15Z" fill="currentColor" stroke="none" stroke-width="none" stroke-linecap="butt"></path>
<path d="M14 31H18V35H14V31Z" fill="currentColor" stroke="none" stroke-width="none" stroke-linecap="butt"></path>
<path d="M22 7H26V11H22V7Z" fill="currentColor" stroke="none" stroke-width="none" stroke-linecap="butt"></path>
<path d="M22 23H26V27H22V23Z" fill="currentColor" stroke="none" stroke-width="none" stroke-linecap="butt"></path>
<path d="M22 38H26V42H22V38Z" fill="currentColor" stroke="none" stroke-width="none" stroke-linecap="butt"></path>
<path d="M30 15H34V19H30V15Z" fill="currentColor" stroke="none" stroke-width="none" stroke-linecap="butt"></path>
<path d="M30 31H34V35H30V31Z" fill="currentColor" stroke="none" stroke-width="none" stroke-linecap="butt"></path>
<path d="M38 7H42V11H38V7Z" fill="currentColor" stroke="none" stroke-width="none" stroke-linecap="butt"></path>
<path d="M38 23H42V27H38V23Z" fill="currentColor" stroke="none" stroke-width="none" stroke-linecap="butt"></path>
<path d="M38 38H42V42H38V38Z" fill="currentColor" stroke="none" stroke-width="none" stroke-linecap="butt"></path>
<path d="M6 7H10V11H6V7Z" stroke-linecap="butt"></path>
<path d="M6 23H10V27H6V23Z" stroke-linecap="butt"></path>
<path d="M6 38H10V42H6V38Z" stroke-linecap="butt"></path>
<path d="M14 15H18V19H14V15Z" stroke-linecap="butt"></path>
<path d="M14 31H18V35H14V31Z" stroke-linecap="butt"></path>
<path d="M22 7H26V11H22V7Z" stroke-linecap="butt"></path>
<path d="M22 23H26V27H22V23Z" stroke-linecap="butt"></path>
<path d="M22 38H26V42H22V38Z" stroke-linecap="butt"></path>
<path d="M30 15H34V19H30V15Z" stroke-linecap="butt"></path>
<path d="M30 31H34V35H30V31Z" stroke-linecap="butt"></path>
<path d="M38 7H42V11H38V7Z" stroke-linecap="butt"></path>
<path d="M38 23H42V27H38V23Z" stroke-linecap="butt"></path>
<path d="M38 38H42V42H38V38Z" stroke-linecap="butt"></path>
</svg>