<svg width="48" height="48" viewBox="0 0 48 48" fill="none" xmlns="http://www.w3.org/2000/svg" stroke="currentColor" stroke-width="4">
<path d="M6.70696 34.2841C6.31643 33.8936 6.31643 33.2604 6.70696 32.8699L12.3638 27.2131C12.7543 26.8225 13.3875 26.8225 13.778 27.2131L18.7278 32.1628C18.7278 32.1628 22.2633 30.7486 26.5059 26.5059C30.7486 22.2633 32.1628 18.7278 32.1628 18.7278L27.2131 13.778C26.8225 13.3875 26.8225 12.7543 27.2131 12.3638L32.8699 6.70696C33.2604 6.31643 33.8936 6.31643 34.2841 6.70696L40.2945 12.7174C40.2945 12.7174 43.4765 20.142 31.8092 31.8092C20.142 43.4765 12.7174 40.2945 12.7174 40.2945L6.70696 34.2841Z" stroke-linecap="butt"></path>
</svg>