<svg width="48" height="48" viewBox="0 0 48 48" fill="none" xmlns="http://www.w3.org/2000/svg" stroke="currentColor" stroke-width="4">
<path d="M14 15V8C14 7.44772 14.4477 7 15 7H33C33.5523 7 34 7.44772 34 8V15M14 15H7C6.44772 15 6 15.4477 6 16V33C6 33.5523 6.44772 34 7 34H13M14 15H34M34 15H41C41.5523 15 42 15.4477 42 16V33C42 33.5523 41.5523 34 41 34H35M13 34V40C13 40.5523 13.4477 41 14 41H34C34.5523 41 35 40.5523 35 40V34M13 34V29C13 28.4477 13.4477 28 14 28H34C34.5523 28 35 28.4477 35 29V34" stroke-linecap="butt"></path>
</svg>