<svg width="48" height="48" viewBox="0 0 48 48" fill="none" xmlns="http://www.w3.org/2000/svg" stroke="currentColor" stroke-width="4">
<path d="M15 21.5L6.70353 19M15 21.5L19.6833 26.6517C19.8839 26.8723 19.9755 27.1709 19.9333 27.466L18 40.9758L28.9181 24.859C29.2359 24.3898 29.1008 23.7505 28.6202 23.4501L21.5 19L15 21.5ZM15 21.5L21.0619 14.5055C21.327 14.1996 21.3816 13.764 21.2 13.4021L18 7.02423M42 24C42 33.9411 33.9411 42 24 42C14.0589 42 6 33.9411 6 24C6 14.0589 14.0589 6 24 6C33.9411 6 42 14.0589 42 24Z" stroke-linecap="butt"></path>
</svg>