<svg width="48" height="48" viewBox="0 0 48 48" fill="none" xmlns="http://www.w3.org/2000/svg" stroke="currentColor" stroke-width="4">
<path d="M19.9213 28.1628L7.19336 40.8907M19.9213 28.1628L28.8049 37.0464C28.9754 37.2169 29.2519 37.2169 29.4224 37.0464L34.5424 31.9264C36.8155 29.6533 37.4757 26.2253 36.2094 23.2706C36.1945 23.2358 36.2023 23.1955 36.229 23.1687L41.1345 18.2633C41.9155 17.4822 41.9155 16.2159 41.1345 15.4348L32.6492 6.94956C31.8682 6.16851 30.6018 6.16851 29.8208 6.94956L24.9315 11.8389C24.895 11.8754 24.8399 11.886 24.7925 11.8656C21.8504 10.6048 18.4372 11.2621 16.1738 13.5254L11.147 18.5523C10.9161 18.7832 10.9161 19.1575 11.147 19.3884L19.9213 28.1628Z" stroke-linecap="butt"></path>
</svg>