<svg width="48" height="48" viewBox="0 0 48 48" fill="none" xmlns="http://www.w3.org/2000/svg" stroke="currentColor" stroke-width="4">
<path d="M43.0919 27.5356L31.7782 38.8493M20.4645 4.9082L9.15077 16.2219M18.3432 31.0712C17.9526 31.4617 17.3195 31.4617 16.9289 31.0712C16.5384 30.6806 16.5384 30.0475 16.9289 29.6569C17.3195 29.2664 17.9526 29.2664 18.3432 29.6569C18.7337 30.0475 18.7337 30.6806 18.3432 31.0712ZM6.32234 28.9498L19.0503 41.6778C19.4408 42.0683 20.074 42.0683 20.4645 41.6778L41.6777 20.4646C42.0682 20.074 42.0682 19.4409 41.6777 19.0503L28.9498 6.32242C28.5592 5.93189 27.9261 5.93189 27.5355 6.32242L6.32234 27.5356C5.93182 27.9261 5.93182 28.5593 6.32234 28.9498Z" stroke-linecap="butt"></path>
<circle cx="17.6367" cy="30.3639" r="1" transform="rotate(45 17.6367 30.3639)" fill="currentColor" stroke="none" stroke-width="none" stroke-linecap="butt"></circle>
</svg>