<svg width="48" height="48" viewBox="0 0 48 48" fill="none" xmlns="http://www.w3.org/2000/svg" stroke="currentColor" stroke-width="4">
<path d="M7 33C7 32.4477 7.44772 32 8 32H40C40.5523 32 41 32.4477 41 33V40C41 40.5523 40.5523 41 40 41H8C7.44772 41 7 40.5523 7 40V33Z" stroke-linecap="butt"></path>
<path d="M29.0815 21.1792C30.8636 19.7119 32 17.4887 32 15C32 10.5817 28.4183 7 24 7C19.5817 7 16 10.5817 16 15C16 17.4887 17.1364 19.7119 18.9185 21.1792L14 32H34L29.0815 21.1792Z" stroke-linecap="butt"></path>
</svg>