<svg width="48" height="48" viewBox="0 0 48 48" fill="none" xmlns="http://www.w3.org/2000/svg" stroke="currentColor" stroke-width="4">
<path d="M24.8348 6.03517C25.0712 5.79875 25.4101 5.69612 25.738 5.7617L38.7016 8.35442C39.0975 8.43359 39.4069 8.74302 39.4861 9.13888L42.0788 22.1025C42.1444 22.4304 42.0418 22.7693 41.8053 23.0057L21.6777 43.1334C21.2871 43.5239 20.654 43.5239 20.2635 43.1334L4.70711 27.577C4.31658 27.1865 4.31658 26.5534 4.70711 26.1628L24.8348 6.03517Z" stroke-linecap="butt"></path>
<path d="M31.577 17.3464C31.0247 17.3464 30.577 16.8987 30.577 16.3464C30.577 15.7941 31.0247 15.3464 31.577 15.3464C32.1293 15.3464 32.577 15.7941 32.577 16.3464C32.577 16.8987 32.1293 17.3464 31.577 17.3464Z" stroke-linecap="butt"></path>
<path d="M31.582 17.3486C31.0297 17.3486 30.582 16.9009 30.582 16.3486C30.582 15.7963 31.0297 15.3486 31.582 15.3486C32.1343 15.3486 32.582 15.7963 32.582 16.3486C32.582 16.9009 32.1343 17.3486 31.582 17.3486Z" fill="currentColor" stroke="none" stroke-width="none" stroke-linecap="butt"></path>
</svg>