<svg width="48" height="48" viewBox="0 0 48 48" fill="none" xmlns="http://www.w3.org/2000/svg" stroke="currentColor" stroke-width="4">
<path d="M37.5812 28.1229L22.732 42.9721C22.3415 43.3626 21.7083 43.3626 21.3178 42.9721L8.58984 30.2442M34.5723 7.56484L23.8871 6.9363C23.602 6.91952 23.3232 7.02549 23.1213 7.22747L9.29667 21.0521C8.90615 21.4426 8.90615 22.0758 9.29667 22.4663L20.6104 33.78C21.0009 34.1705 21.6341 34.1705 22.0246 33.78L35.8492 19.9554C36.0512 19.7534 36.1571 19.4747 36.1404 19.1896L35.5118 8.50439C35.4821 7.99833 35.0783 7.59461 34.5723 7.56484ZM27.6981 15.2929C27.3076 14.9024 27.3076 14.2692 27.6981 13.8787C28.0886 13.4882 28.7218 13.4882 29.1123 13.8787C29.5029 14.2692 29.5029 14.9024 29.1123 15.2929C28.7218 15.6834 28.0886 15.6834 27.6981 15.2929Z" stroke-linecap="butt"></path>
<path d="M27.697 15.2921C27.3065 14.9015 27.3065 14.2684 27.697 13.8779C28.0876 13.4873 28.7207 13.4873 29.1113 13.8779C29.5018 14.2684 29.5018 14.9015 29.1113 15.2921C28.7207 15.6826 28.0876 15.6826 27.697 15.2921Z" fill="currentColor" stroke="none" stroke-width="none" stroke-linecap="butt"></path>
</svg>