<svg width="48" height="48" viewBox="0 0 48 48" fill="none" xmlns="http://www.w3.org/2000/svg" stroke="currentColor" stroke-width="4">
<path d="M19.9939 11.0354C23.6532 7.37612 29.0877 6.57416 33.5251 8.6295C33.5877 8.6585 33.602 8.74096 33.5532 8.78976L27.065 15.278C26.6745 15.6685 26.6745 16.3017 27.065 16.6922L31.3076 20.9349C31.6982 21.3254 32.3313 21.3254 32.7218 20.9349L39.2101 14.4466C39.2589 14.3978 39.3414 14.4121 39.3704 14.4748C41.4257 18.9121 40.6237 24.3467 36.9645 28.0059C33.2699 31.7005 27.7657 32.4823 23.3052 30.3515L12.9229 40.7339C12.5323 41.1244 11.8992 41.1244 11.5086 40.7339L7.26601 36.4912C6.87548 36.1007 6.87548 35.4675 7.26601 35.077L17.6483 24.6947C15.5175 20.2342 16.2994 14.7299 19.9939 11.0354Z" stroke-linecap="butt"></path>
</svg>