<svg width="48" height="48" viewBox="0 0 48 48" fill="none" xmlns="http://www.w3.org/2000/svg" stroke="currentColor" stroke-width="4">
<path d="M31.5868 31.4846C29.7529 29.3512 27.0344 28 24.0004 28C20.9664 28 18.248 29.3512 16.4141 31.4846" stroke-linecap="butt"></path>
<path d="M37.2553 25.8224C33.9654 22.2432 29.2445 20 23.9997 20C18.7549 20 14.0341 22.2432 10.7441 25.8224" stroke-linecap="butt"></path>
<path d="M43.618 19.4486C38.6964 14.2459 31.7274 11 24.0004 11C16.2734 11 9.30446 14.2459 4.38281 19.4486" stroke-linecap="butt"></path>
<path d="M27.5355 35.4645C27.0712 35.0002 26.52 34.6319 25.9134 34.3806C25.3068 34.1293 24.6566 34 24 34C23.3434 34 22.6932 34.1293 22.0866 34.3806C21.48 34.6319 20.9288 35.0002 20.4645 35.4645L24 39L27.5355 35.4645Z" fill="currentColor" stroke="none" stroke-width="none" stroke-linecap="butt"></path>
</svg>