<svg width="48" height="48" viewBox="0 0 48 48" fill="none" xmlns="http://www.w3.org/2000/svg" stroke="currentColor" stroke-width="4">
<path d="M43.125 2.4751C43.725 2.4751 44.325 2.7001 44.8125 3.1876C45.3375 3.6751 45.5625 4.2001 45.5625 4.8001V43.1626C45.5625 43.7626 45.3 44.3626 44.8125 44.7751C44.2875 45.2626 43.725 45.4876 43.125 45.4876H32.1375V28.9126H37.7625L38.5875 22.3501H32.1375V18.0751C32.1375 15.9376 33.225 14.8501 35.4375 14.8501H38.8125V9.2626C37.6125 9.0376 35.9625 8.9251 33.7875 8.9251C31.275 8.9251 29.2875 9.6751 27.75 11.1751C26.2125 12.6751 25.4625 14.8501 25.4625 17.5501V22.3501H19.8375V28.9126H25.4625V45.4876H4.7625C4.1625 45.4876 3.5625 45.2626 3.15 44.7751C2.6625 44.2876 2.4375 43.7626 2.4375 43.1626V4.8001C2.4375 4.2001 2.6625 3.6001 3.15 3.1876C3.6375 2.7001 4.1625 2.4751 4.7625 2.4751H43.125Z" fill="currentColor" stroke="none" stroke-width="none" stroke-linecap="butt"></path>
</svg>