<svg width="48" height="48" viewBox="0 0 48 48" fill="none" xmlns="http://www.w3.org/2000/svg" stroke="currentColor" stroke-width="4">
<path d="M32.5713 33.5257C30.487 35.4461 27.6438 36.5759 24.2487 36.5759C22.5972 36.5763 20.9618 36.2512 19.436 35.6192C17.9102 34.9872 16.5239 34.0606 15.3563 32.8926C14.1888 31.7245 13.2629 30.3378 12.6316 28.8117C12.0003 27.2856 11.6759 25.6501 11.6771 23.9986C11.6763 20.6631 13.0002 17.4638 15.3577 15.1042C17.7151 12.7446 20.9132 11.4178 24.2487 11.4155C27.3713 11.3814 30.3862 12.5557 32.6633 14.6928L29.0611 18.3007C27.769 17.0655 26.0417 16.3898 24.2544 16.4205C20.9771 16.4205 18.2087 18.6341 17.2169 21.6067C16.9579 22.3777 16.8249 23.1853 16.823 23.9986C16.823 24.8323 16.9668 25.6372 17.2169 26.3904C18.2087 29.363 20.98 31.5766 24.2487 31.5766C25.9448 31.5766 27.3822 31.1281 28.5034 30.3749C29.1579 29.9448 29.7181 29.3861 30.1501 28.7327C30.582 28.0794 30.8766 27.3451 31.016 26.5744H24.2487V21.7102H36.0929C36.2424 22.5353 36.32 23.392 36.32 24.2803C36.32 28.1153 34.9488 31.3351 32.5713 33.5257ZM23.9986 1C17.8986 1.00038 12.0486 3.42395 7.73553 7.73756C3.42246 12.0512 0.999619 17.9015 1 24.0014C1.00038 30.1014 3.42395 35.9514 7.73756 40.2645C12.0512 44.5775 17.9015 47.0004 24.0014 47C30.1014 46.9996 35.9514 44.576 40.2645 40.2624C44.5775 35.9488 47.0004 30.0985 47 23.9986C46.9996 17.8986 44.576 12.0486 40.2624 7.73553C35.9488 3.42246 30.0985 0.999619 23.9986 1Z" fill="currentColor" stroke="none" stroke-width="none" stroke-linecap="butt"></path>
</svg>