<svg width="48" height="48" viewBox="0 0 48 48" fill="none" xmlns="http://www.w3.org/2000/svg" stroke="currentColor" stroke-width="4">
<path d="M24.0073 1C11.2814 1 1 11.2814 1 24.0073C1 37.2366 12.2161 47.8775 25.7329 46.9428C37.0209 46.1519 46.2238 36.949 46.9428 25.5891C47.8775 12.1442 37.2366 1 24.0073 1ZM35.3672 30.2625C35.3672 30.2625 34.5763 32.4913 33.0665 34.5044C33.0665 34.5044 35.7267 35.4391 35.511 37.7399C35.511 37.7399 35.5829 40.4001 29.8311 40.1844C29.8311 40.1844 25.8048 39.8968 24.5825 38.1712H24.0073H23.5041C22.2818 39.8968 18.2555 40.1844 18.2555 40.1844C12.5037 40.4001 12.5756 37.7399 12.5756 37.7399C12.3599 35.3672 15.0201 34.5044 15.0201 34.5044C13.5102 32.4913 12.7194 30.2625 12.7194 30.2625C9.12447 36.1581 9.48396 29.4716 9.48396 29.4716C10.131 25.5172 13.007 22.9289 13.007 22.9289C12.5756 19.334 14.0854 18.6869 14.0854 18.6869C14.3011 7.61461 23.7917 7.75841 24.0073 7.75841C24.223 7.75841 33.7136 7.54271 34.0012 18.6869C34.0012 18.6869 35.511 19.334 35.0796 22.9289C35.0796 22.9289 37.9555 25.5172 38.6026 29.4716C38.6026 29.4716 38.9621 36.1581 35.3672 30.2625Z" fill="currentColor" stroke="none" stroke-width="none" stroke-linecap="butt"></path>
</svg>