<svg width="48" height="48" viewBox="0 0 48 48" fill="none" xmlns="http://www.w3.org/2000/svg" stroke="currentColor" stroke-width="4">
<path d="M24 1C11.2965 1 1 11.2966 1 23.9999C1 36.7034 11.2965 47 24 47C36.7034 47 46.9999 36.7034 46.9999 23.9999C46.9999 11.2966 36.7034 1 24 1ZM35.6981 19.5924C35.5682 29.4096 29.2898 36.1341 19.9186 36.5569C16.0537 36.7333 13.254 35.485 10.8172 33.937C13.6734 34.3931 17.2155 33.2512 19.1097 31.63C16.31 31.357 14.6522 29.9322 13.8765 27.6386C14.6855 27.7784 15.5377 27.7417 16.3067 27.5787C13.78 26.7331 11.9756 25.1718 11.8825 21.8994C12.5915 22.2223 13.3306 22.5252 14.3126 22.5852C12.4217 21.5099 11.0236 17.5783 12.6248 14.9784C15.4312 18.0544 18.8068 20.5645 24.3495 20.904C22.958 14.9551 30.8411 11.7293 34.1401 15.7274C35.5349 15.4578 36.6701 14.9285 37.762 14.3526C37.3126 15.7341 36.447 16.6995 35.3918 17.4718C36.5503 17.3154 37.5756 17.0324 38.4511 16.5996C37.9085 17.7281 36.72 18.7402 35.6981 19.5924Z" fill="currentColor" stroke="none" stroke-width="none" stroke-linecap="butt"></path>
</svg>