<svg width="48" height="48" viewBox="0 0 48 48" fill="none" xmlns="http://www.w3.org/2000/svg" stroke="currentColor" stroke-width="4">
<path d="M24 47C19.451 47 15.0042 45.6511 11.2219 43.1238C7.43957 40.5965 4.4916 37.0044 2.75078 32.8017C1.00997 28.599 0.55449 23.9745 1.44195 19.5129C2.32941 15.0514 4.51995 10.9532 7.73656 7.73656C10.9532 4.51995 15.0514 2.32941 19.5129 1.44195C23.9745 0.55449 28.599 1.00997 32.8017 2.75078C37.0044 4.4916 40.5965 7.43957 43.1238 11.2219C45.6511 15.0042 47 19.451 47 24C47.0016 27.0209 46.4079 30.0124 45.2526 32.8037C44.0973 35.5949 42.4032 38.1311 40.2671 40.2671C38.1311 42.4032 35.5949 44.0973 32.8037 45.2526C30.0124 46.4079 27.0209 47.0016 24 47ZM25.2755 20.0064C24.7318 20.0691 23.0173 21.1773 23.9791 18.8982C25 15 20.2346 15.2928 17.8736 16.1591C13.3467 18.6566 9.75716 22.5618 7.6491 27.2827C5.64183 33.7018 12.6673 37.6118 17.8946 38.4064C23.1218 39.2009 30.9627 37.9045 34.5173 33.5555C37.1518 30.3773 37.6536 26.0491 32.6773 24.7946C31.0255 24.3973 31.9873 23.7073 32.4055 22.5364C32.5428 21.8187 32.3915 21.0758 31.9843 20.469C31.5772 19.8622 30.9471 19.4405 30.2309 19.2955C30.1207 19.2725 30.0088 19.2586 29.8964 19.2536C28.3224 19.2105 26.7544 19.4659 25.2755 20.0064ZM32.28 16.1173C31.9424 16.0625 31.5969 16.0828 31.268 16.1768C30.9391 16.2707 30.635 16.436 30.3773 16.6609C30 17 29.9591 17.9991 31.3391 18.3127C31.7969 18.3343 32.2518 18.3973 32.6982 18.5009C33.1189 18.6391 33.4755 18.9248 33.7022 19.3052C33.9289 19.6856 34.0104 20.1351 33.9318 20.5709C33.7227 22.4946 34.81 22.8082 35.5836 22.2855C35.7853 22.1268 35.947 21.9231 36.056 21.6908C36.1649 21.4584 36.2179 21.2038 36.2109 20.9473C36.4002 19.8745 36.1566 18.7704 35.5335 17.8768C34.9104 16.9833 33.9585 16.3731 32.8864 16.18C32.8444 16.1716 32.2758 16.1173 32.28 16.1173ZM39.7027 16.2009C39.0536 14.9119 38.0836 13.8117 36.8861 13.0061C35.6887 12.2004 34.3041 11.7165 32.8655 11.6009C31.7364 11.4755 29.3527 11.2036 29.0809 12.7509C29.0109 13.0502 29.0616 13.3651 29.222 13.6273C29.3825 13.8895 29.6398 14.078 29.9382 14.1518C29.98 14.1518 30.0218 14.1727 30.0636 14.1727C30.5872 14.1936 31.1116 14.1726 31.6318 14.11C32.483 14.1045 33.327 14.2667 34.1155 14.5874C34.904 14.908 35.6217 15.3809 36.2274 15.9789C36.8332 16.5769 37.3153 17.2884 37.6461 18.0727C37.9769 18.857 38.15 19.6988 38.1555 20.55C38.1561 20.8508 38.1352 21.1513 38.0927 21.4491C38.03 21.8046 37.9882 22.16 37.9464 22.5155C37.8848 22.8421 37.9531 23.1799 38.1366 23.4571C38.32 23.7343 38.6043 23.929 38.9291 24C39.1921 24.0487 39.4638 24.0121 39.7046 23.8955C39.9453 23.7789 40.1425 23.5884 40.2673 23.3518C40.9772 20.9793 40.7682 18.4264 39.6818 16.2009H39.7027ZM21.6164 36.4409C16.1591 37.1309 11.3709 34.7682 10.9318 31.1718C10.4927 27.5755 14.5073 24.1046 19.9646 23.4146C25.4218 22.7246 30.21 25.0873 30.67 28.6836C31.13 32.28 27.0527 35.7718 21.5955 36.4409H21.6164ZM20.1318 26.1746C18.7734 26.1278 17.4511 26.6167 16.4498 27.5358C15.4485 28.455 14.8485 29.7308 14.7791 31.0882C14.8138 31.7009 14.969 32.3007 15.236 32.8532C15.503 33.4057 15.8764 33.9001 16.3348 34.3081C16.7932 34.716 17.3277 35.0294 17.9075 35.2304C18.4873 35.4313 19.1011 35.5158 19.7136 35.4791C19.8539 35.4755 19.9937 35.4616 20.1318 35.4373C21.4756 35.3623 22.7453 34.7975 23.7008 33.8497C24.6564 32.9019 25.2314 31.6368 25.3173 30.2936C25.2803 29.7074 25.1282 29.1342 24.8696 28.6067C24.611 28.0792 24.2511 27.6079 23.8103 27.2196C23.3696 26.8312 22.8566 26.5335 22.3008 26.3435C21.745 26.1534 21.1572 26.0747 20.5709 26.1118L20.1318 26.1746ZM21.1355 30.4191C20.9608 30.4495 20.7812 30.4093 20.6362 30.3073C20.4911 30.2054 20.3924 30.0501 20.3618 29.8755V29.7918C20.3747 29.5966 20.4622 29.4138 20.6063 29.2815C20.7504 29.1491 20.9399 29.0773 21.1355 29.0809C21.2193 29.0682 21.3047 29.0722 21.387 29.0927C21.4692 29.1131 21.5466 29.1497 21.6146 29.2003C21.6827 29.2508 21.74 29.3143 21.7834 29.3871C21.8268 29.46 21.8553 29.5407 21.8673 29.6246C21.8752 29.6328 21.8812 29.6427 21.8848 29.6536C21.8884 29.6644 21.8896 29.6759 21.8882 29.6873C21.8706 29.879 21.7851 30.0581 21.6471 30.1923C21.509 30.3265 21.3276 30.4069 21.1355 30.4191ZM18.3546 33.2C18.1389 33.2297 17.9195 33.2164 17.709 33.1609C17.4985 33.1054 17.301 33.0087 17.128 32.8766C16.9551 32.7444 16.8099 32.5793 16.7011 32.3908C16.5922 32.2023 16.5217 31.9941 16.4936 31.7782C16.4766 31.7387 16.4694 31.6956 16.4727 31.6527C16.5008 31.1761 16.7125 30.729 17.0635 30.4053C17.4145 30.0817 17.8773 29.9067 18.3546 29.9173C18.5594 29.8805 18.7695 29.8851 18.9725 29.9306C19.1756 29.9762 19.3674 30.0619 19.5369 30.1827C19.7064 30.3034 19.85 30.4568 19.9593 30.6339C20.0687 30.8109 20.1415 31.008 20.1736 31.2136C20.1909 31.2676 20.1979 31.3243 20.1946 31.3809C20.1613 31.856 19.9562 32.3026 19.6176 32.6374C19.2789 32.9722 18.8299 33.1722 18.3546 33.2Z" fill="currentColor" stroke="none" stroke-width="none" stroke-linecap="butt"></path>
</svg>