<svg width="48" height="48" viewBox="0 0 48 48" fill="none" stroke="currentColor" stroke-width="4" xmlns="http://www.w3.org/2000/svg">
<path d="M29.0366 15.236C29.0366 15.236 19.8629 24.5025 17.5574 26.8297C15.2518 29.1569 15.9105 31.8166 17.228 33.1464C18.5454 34.4762 21.2224 35.0992 23.4861 32.8142C25.7498 30.5291 34.3548 21.8429 37.3196 18.8507C40.9428 15.194 39.4117 10.3589 37.3196 8.2122C35.2274 6.06548 30.4036 4.55497 26.78 8.21208C23.1565 11.8692 14.9225 20.1807 11.2996 23.8377C7.67658 27.4948 7.34719 34.4764 11.6288 38.7983C15.9105 43.1201 22.7443 42.903 26.4502 39.1307C30.1561 35.3585 35.1901 30.3087 37.6743 27.8012" />
</svg>
