<svg width="48" height="48" viewBox="0 0 48 48" fill="none" xmlns="http://www.w3.org/2000/svg" stroke="currentColor" stroke-width="4">
<path d="M9.44231 25.25L19.7932 36.0149C20.1813 36.4185 20.8252 36.4248 21.2211 36.0289L32 25.25H9.44231Z" fill="currentColor" stroke="none" stroke-width="none" stroke-linecap="butt"></path>
<path d="M19 5.25L22.75 9M22.75 9L34.7929 21.0429C35.1834 21.4334 35.1834 22.0666 34.7929 22.4571L32 25.25M22.75 9L8.69338 23.0566C8.30826 23.4417 8.30215 24.0642 8.67965 24.4568L9.44231 25.25M9.44231 25.25L19.7932 36.0149C20.1813 36.4185 20.8252 36.4248 21.2211 36.0289L32 25.25M9.44231 25.25H32M6 42H42" stroke-linecap="butt"></path>
<path fill-rule="evenodd" clip-rule="evenodd" d="M40.0134 29.8123L37.2012 27L34.3889 29.8123C33.6555 30.5374 33.2012 31.5439 33.2012 32.6567C33.2012 34.8658 34.9921 36.6567 37.2012 36.6567C39.4103 36.6567 41.2012 34.8658 41.2012 32.6567C41.2012 31.5439 40.7468 30.5374 40.0134 29.8123Z" fill="currentColor" stroke="none" stroke-width="none" stroke-linecap="butt"></path>
</svg>