<svg width="48" height="48" viewBox="0 0 48 48" fill="none" xmlns="http://www.w3.org/2000/svg" stroke="currentColor" stroke-width="4">
<path d="M33 13H40.0002C40.5525 13 41 13.4477 41 14V26.1407C41 26.6349 40.639 27.0549 40.1504 27.1293L18.8496 30.3707C18.361 30.4451 18 30.8651 18 31.3593V43M33 7.99947C33 10.0324 33 14.7332 33 18.002C33 18.5543 32.5523 19 32 19H8C7.44772 19 7 18.5523 7 18V8C7 7.44772 7.4444 7 7.99668 7C15.598 7 28.3768 7 32.0097 7C32.562 7 33 7.44718 33 7.99947Z" stroke-linecap="butt"></path>
</svg>