<svg width="48" height="48" viewBox="0 0 48 48" fill="none" xmlns="http://www.w3.org/2000/svg" stroke="currentColor" stroke-width="4">
<path d="M6 6V24M6 24V42M6 24H26M26 24V6M26 24V42" stroke-linecap="butt"></path>
<path d="M37.001 30H35.001M37.001 30C39.7624 30 42.001 27.7614 42.001 25C42.001 22.2386 39.7624 20 37.001 20H36.4454C33.9908 20 32.001 21.9898 32.001 24.4444M37.001 30C39.7624 30 42.001 32.2386 42.001 35C42.001 37.7614 39.7624 40 37.001 40H36.4454C33.9908 40 32.001 38.0102 32.001 35.5556" stroke-linecap="butt"></path>
</svg>