<svg width="48" height="48" viewBox="0 0 48 48" fill="none" xmlns="http://www.w3.org/2000/svg" stroke="currentColor" stroke-width="4">
<path d="M13 24H43M13 37H43M13 11H43" stroke-linecap="butt"></path>
<path fill-rule="evenodd" clip-rule="evenodd" d="M5.57769 13.0596V14.7547H10.619V13.0596H9.16369V7.55518H7.74759L5.25522 8.96752L6.01781 10.4813L7.13199 9.84463V13.0596H5.57769Z" fill="currentColor" stroke="none" stroke-width="none" stroke-linecap="butt"></path>
<path fill-rule="evenodd" clip-rule="evenodd" d="M5.36979 26.2047V27.6953H10.4408V26.0002H7.96295L8.9032 25.0599C9.35685 24.6195 9.68624 24.2 9.88501 23.8025C10.0836 23.3984 10.1834 22.976 10.1834 22.5363C10.1834 21.8504 9.95914 21.3114 9.49973 20.9366C9.0502 20.5645 8.40747 20.3869 7.58849 20.3869C7.11529 20.3869 6.65477 20.458 6.20827 20.6001C5.76902 20.742 5.39074 20.9357 5.07539 21.1825L5.00893 21.2345L5.66143 22.7684L5.77383 22.6834C6.03709 22.4844 6.29804 22.3384 6.55664 22.2438C6.82319 22.1486 7.08117 22.1018 7.33109 22.1018C7.63983 22.1018 7.85111 22.1628 7.98347 22.2665C8.11072 22.3662 8.18139 22.5185 8.18139 22.7442C8.18139 22.9205 8.1316 23.1 8.02735 23.2839L8.02603 23.2864C7.92698 23.4721 7.75239 23.7021 7.49798 23.9761L5.36979 26.2047Z" fill="currentColor" stroke="none" stroke-width="none" stroke-linecap="butt"></path>
<path fill-rule="evenodd" clip-rule="evenodd" d="M10.3814 38.3439C10.3814 37.9012 10.2634 37.5176 10.023 37.1991C9.84144 36.9517 9.60281 36.7655 9.31039 36.6393C9.48888 36.544 9.64283 36.4243 9.77123 36.28C9.81609 36.2296 9.85783 36.1762 9.89641 36.1198C10.1021 35.8286 10.2032 35.486 10.2032 35.0967C10.2032 34.6931 10.0949 34.3339 9.87621 34.0235C9.65814 33.714 9.35033 33.4777 8.95826 33.3125C8.57223 33.1471 8.12467 33.0661 7.61819 33.0661C7.13872 33.0661 6.66609 33.137 6.20063 33.2786C5.74227 33.4135 5.36526 33.5973 5.07398 33.8331L5.00875 33.8859L5.66055 35.3725L5.77043 35.2958C6.04624 35.1034 6.33405 34.9564 6.63394 34.8543L6.6359 34.8536C6.93633 34.745 7.21731 34.6919 7.47959 34.6919C7.74646 34.6919 7.93383 34.757 8.05874 34.8711L8.06257 34.8743C8.19118 34.9815 8.26059 35.1359 8.26059 35.3541C8.26059 35.5554 8.19113 35.6848 8.06379 35.7663C7.92604 35.8545 7.68838 35.9074 7.33109 35.9074H6.32019V37.5332H7.50929C7.88007 37.5332 8.12258 37.5895 8.25923 37.6824C8.38552 37.7683 8.45859 37.9131 8.45859 38.1459C8.45859 38.4 8.38117 38.5576 8.24856 38.6494L8.24692 38.6506C8.11147 38.7481 7.86106 38.8081 7.46969 38.8081C6.87521 38.8081 6.27576 38.6092 5.66973 38.203L5.56053 38.1298L4.91016 39.6131L4.97397 39.666C5.25903 39.9024 5.63645 40.0897 6.10116 40.2311L6.10256 40.2315C6.56835 40.3665 7.05388 40.4339 7.55879 40.4339C8.41102 40.4339 9.09677 40.256 9.60363 39.888C10.1209 39.5106 10.3814 38.9922 10.3814 38.3439Z" fill="currentColor" stroke="none" stroke-width="none" stroke-linecap="butt"></path>
</svg>