<svg width="48" height="48" viewBox="0 0 48 48" fill="none" xmlns="http://www.w3.org/2000/svg" stroke="currentColor" stroke-width="4">
<path d="M18.0795 33.0931C18.0795 36.4068 15.3932 39.0931 12.0795 39.0931C8.76578 39.0931 6.07949 36.4068 6.07949 33.0931C5.86817 29.5 8.76578 27.0931 12.0795 27.0931C15.3932 27.0931 18.0795 29.7794 18.0795 33.0931Z" fill="currentColor" stroke="none" stroke-width="none" stroke-linecap="butt"></path>
<path d="M39.0795 33.0931C39.0795 36.4068 36.3932 39.0931 33.0795 39.0931C29.7658 39.0931 27.0795 36.4068 27.0795 33.0931C26.8682 29.5 29.7658 27.0931 33.0795 27.0931C36.3932 27.0931 39.0795 29.7794 39.0795 33.0931Z" fill="currentColor" stroke="none" stroke-width="none" stroke-linecap="butt"></path>
<path d="M6.07949 33.0931C6.07949 36.4068 8.76578 39.0931 12.0795 39.0931C15.3932 39.0931 18.0795 36.4068 18.0795 33.0931C18.0795 29.7794 15.3932 27.0931 12.0795 27.0931C8.76578 27.0931 5.86817 29.5 6.07949 33.0931ZM6.07949 33.0931C5.57957 24.593 7.07942 7.59314 21.0794 9.09309M27.0795 33.0931C27.0795 36.4068 29.7658 39.0931 33.0795 39.0931C36.3932 39.0931 39.0795 36.4068 39.0795 33.0931C39.0795 29.7794 36.3932 27.0931 33.0795 27.0931C29.7658 27.0931 26.8682 29.5 27.0795 33.0931ZM27.0795 33.0931C26.5796 24.593 28.0794 7.59314 42.0794 9.09309" stroke-linecap="butt"></path>
</svg>