<svg width="48" height="48" viewBox="0 0 48 48" fill="none" xmlns="http://www.w3.org/2000/svg" stroke="currentColor" stroke-width="4">
<path d="M40.2929 7.70703C39.9927 8.00722 28.6148 19.3851 17.2426 30.7573M17.2426 30.7573C16.1569 29.6715 14.6569 28.9999 13 28.9999C9.68629 28.9999 7 31.6862 7 34.9999C7 38.3136 9.68629 40.9999 13 40.9999C16.3137 40.9999 19 38.3136 19 34.9999C19 33.3431 18.3284 31.8431 17.2426 30.7573ZM30.7574 30.7573C29.6716 31.8431 29 33.3431 29 34.9999C29 38.3136 31.6863 40.9999 35 40.9999C38.3137 40.9999 41 38.3136 41 34.9999C41 31.6862 38.3137 28.9999 35 28.9999C33.3431 28.9999 31.8431 29.6715 30.7574 30.7573ZM30.7574 30.7573L7.70711 7.70703" stroke-linecap="butt"></path>
</svg>