<svg width="67" height="32" viewBox="0 0 67 32" fill="none" xmlns="http://www.w3.org/2000/svg">
<g clip-path="url(#clip0_804:13401)">
<g clip-path="url(#clip1_804:13401)">
<path d="M10.0334 2.36386L1.92744 8.73638C0.795453 9.62707 0.129395 11.0201 0.129395 12.4981V27.641C0.129395 28.3219 0.892874 28.693 1.39268 28.2541L11.0744 19.7549L20.756 28.2541C21.2559 28.693 22.0193 28.323 22.0193 27.641V12.4981C22.0193 11.019 21.3533 9.62599 20.2213 8.73638L12.1153 2.36386C11.499 1.87871 10.6497 1.87871 10.0334 2.36386Z" fill="#00E5E5"/>
<path d="M20.2227 8.73679L12.1167 2.36427C11.5004 1.8802 10.6511 1.8802 10.0348 2.36427L1.92883 8.73679C1.33054 9.20796 0.866739 9.82111 0.558594 10.5117L18.3886 26.1752L20.7574 28.2545C21.2572 28.6934 22.0207 28.3234 22.0207 27.6414V12.4986C22.0207 11.0195 21.3557 9.62748 20.2227 8.73679Z" fill="#006EFF"/>
<path d="M51.2245 10.2078H53.1972C53.3105 10.2078 53.4027 10.1142 53.4027 9.99914V7.66377C53.4027 7.54867 53.3105 7.45508 53.1972 7.45508H51.2245C51.1112 7.45508 51.019 7.54867 51.019 7.66377V9.99914C51.0201 10.1142 51.1112 10.2078 51.2245 10.2078Z" fill="white"/>
<path d="M66.0357 23.452H55.9093C55.8172 23.452 55.725 23.4531 55.635 23.4541C54.7762 23.4649 54.0826 23.4724 53.2292 22.5032C53.3605 21.9514 53.4261 21.3425 53.4261 20.667V13.1832V12.015V11.2211C53.4261 11.106 53.334 11.0125 53.2207 11.0125H49.4869C49.3736 11.0125 49.2815 11.106 49.2815 11.2211V13.1811C49.2815 13.2962 49.3736 13.3898 49.4869 13.3898H51.0425V20.6659C51.0425 22.3763 50.531 23.2971 49.3133 23.6736C49.2286 23.6994 49.1714 23.7812 49.1714 23.8715V26.0617C49.1714 26.1262 49.2296 26.1746 49.291 26.1639C49.9624 26.038 50.5607 25.8239 51.0764 25.5227C51.4639 25.2968 51.807 25.0204 52.1025 24.6998C53.3149 25.739 54.4819 25.8336 55.3692 25.8336C55.4709 25.8336 55.5694 25.8325 55.6636 25.8315C55.7494 25.8304 55.8309 25.8293 55.9082 25.8293H66.0346C66.1479 25.8293 66.2401 25.7357 66.2401 25.6206V23.6607C66.2401 23.5456 66.1479 23.452 66.0357 23.452Z" fill="white"/>
<path d="M54.1936 20.7014H59.7879V22.8249C59.7879 22.94 59.88 23.0335 59.9933 23.0335H61.8803C61.9936 23.0335 62.0858 22.94 62.0858 22.8249V20.7014H65.9222C66.0355 20.7014 66.1276 20.6078 66.1276 20.4927V18.7081C66.1276 18.593 66.0355 18.4994 65.9222 18.4994H62.0858V16.6998H65.5918C65.7051 16.6998 65.7973 16.6062 65.7973 16.4911V14.7065C65.7973 14.5914 65.7051 14.4978 65.5918 14.4978H62.0858V12.0301C62.0858 11.915 61.9936 11.8214 61.8803 11.8214H59.9933C59.88 11.8214 59.7879 11.915 59.7879 12.0301V14.4999H57.2624C57.1925 14.4999 57.1438 14.4289 57.1671 14.3622L58.3838 10.978H65.774C65.8873 10.978 65.9794 10.8844 65.9794 10.7693V8.98474C65.9794 8.86964 65.8873 8.77605 65.774 8.77605H59.1748L59.6005 7.59277C59.6248 7.52608 59.5761 7.45508 59.5052 7.45508H57.4731C57.3873 7.45508 57.3111 7.50886 57.2814 7.59062L56.8462 8.77605H54.6437C54.5304 8.77605 54.4382 8.86964 54.4382 8.98474V10.7693C54.4382 10.8844 54.5304 10.978 54.6437 10.978H56.0383L54.7686 14.4365C54.7527 14.4784 54.7453 14.5236 54.7453 14.5688V16.4932C54.7453 16.6083 54.8375 16.7019 54.9508 16.7019H59.789V18.5016H54.1947C54.0814 18.5016 53.9893 18.5952 53.9893 18.7103V20.4949C53.9882 20.6089 54.0803 20.7014 54.1936 20.7014Z" fill="white"/>
<path d="M45.5847 9.16159C45.6197 9.09275 45.5699 9.01099 45.4947 9.01099H43.2403C43.1683 9.01099 43.1016 9.04972 43.0645 9.11211C41.9908 10.9161 41.259 11.6745 40.341 12.549C40.2944 12.5931 40.2488 12.6361 40.2033 12.6781V8.47529C40.2033 8.36019 40.1112 8.2666 39.9979 8.2666H29.7709C29.6576 8.2666 29.5654 8.36019 29.5654 8.47529V10.2599C29.5654 10.375 29.6576 10.4686 29.7709 10.4686H37.8313C37.9446 10.4686 38.0368 10.5622 38.0368 10.6773V15.7718C38.0368 18.3697 38.1977 19.9531 38.5906 21.2375C38.8235 21.9981 39.1423 22.6564 39.5669 23.2491C39.9831 23.8322 40.504 24.356 41.1585 24.8498C41.8626 25.3812 42.7034 25.748 43.6586 25.9373C44.2452 26.0546 44.7492 26.0782 45.0637 26.0836C45.1781 26.0858 45.2713 25.9922 45.2713 25.8749V24.0893C45.2713 23.9752 45.1813 23.8838 45.069 23.8816C43.9932 23.8515 43.1132 23.5837 42.4503 23.0835C41.5153 22.3767 40.9795 21.6291 40.6586 20.5835C40.3526 19.5831 40.2171 18.2793 40.2044 16.144C41.8182 17.8254 42.4948 19.1367 43.0444 20.179C43.0804 20.2468 43.1492 20.2888 43.2244 20.2888H45.4937C45.5646 20.2888 45.6144 20.2178 45.589 20.15C45.1622 19.0022 43.7274 16.6249 41.5799 14.4283C42.7892 13.3257 44.3341 11.6131 45.5847 9.16159Z" fill="white"/>
</g>
</g>
<defs>
<clipPath id="clip0_804:13401">
<rect width="67" height="32" fill="white"/>
</clipPath>
<clipPath id="clip1_804:13401">
<rect width="66.8889" height="28" fill="white" transform="translate(0.129395 2)"/>
</clipPath>
</defs>
</svg>
