<svg width="106" height="32" viewBox="0 0 106 32" fill="none" xmlns="http://www.w3.org/2000/svg">
<path d="M11.3929 9.9392L18.8111 27.0001H3.85454C1.08233 27.0001 -0.781832 24.1558 0.323211 21.6142L5.4016 9.9392C6.53548 7.32072 10.2542 7.32072 11.3929 9.9392Z" fill="#00DCE5"/>
<path d="M11.903 16.8865V15.8343H8.92903V14.8494H7.87684V15.8343H4.90283V16.8865H6.12318C6.27693 17.4823 6.6709 18.5585 7.6222 19.6011C6.9832 20.0911 6.16162 20.5283 5.0854 20.831L5.36887 21.8448C6.6661 21.4796 7.64622 20.9367 8.40053 20.3265C9.15485 20.9319 10.135 21.4796 11.4322 21.8448L11.7157 20.831C10.6394 20.5283 9.81787 20.0911 9.17887 19.6011C10.1254 18.5633 10.5193 17.4823 10.6779 16.8865H11.903V16.8865ZM8.40534 18.89C7.7279 18.1453 7.38678 17.391 7.22342 16.8865H9.58725C9.4239 17.391 9.08278 18.1501 8.40534 18.89Z" fill="white"/>
<path d="M27.2623 22.2387L20.6608 7.04673C19.4741 4.31776 15.6017 4.31776 14.4149 7.04673L6.57874 25.0637C6.04063 26.2505 5.1614 26.9279 4.24854 27H5.73794H7.89998H24.1441C26.5944 27 28.2424 24.4872 27.2623 22.2387Z" fill="#006EFF"/>
<path d="M20.1123 21.8399H21.4431L18.0847 13.6289H16.9941L13.6357 21.8399H14.9666L15.7834 19.846H19.3003L20.1123 21.8399ZM16.283 18.616L17.537 15.5459L18.791 18.616H16.283Z" fill="white"/>
<path d="M59.7646 24.9772H57.9821C57.8764 24.9772 57.7852 24.8907 57.7852 24.7802V8.52169C57.7852 8.41599 57.8716 8.32471 57.9821 8.32471H59.7646C59.8703 8.32471 59.9616 8.41119 59.9616 8.52169V24.7802C59.9568 24.8859 59.8703 24.9772 59.7646 24.9772Z" fill="white"/>
<path d="M53.2017 25.3952H51.424C51.3135 25.3952 51.2271 25.3087 51.2271 25.1982V10.4819C51.2271 10.3714 51.3135 10.2849 51.424 10.2849H53.2017C53.3122 10.2849 53.3987 10.3714 53.3987 10.4819V25.1982C53.3987 25.3087 53.3122 25.3952 53.2017 25.3952Z" fill="white"/>
<path d="M66.3331 25.3952H64.5554C64.4449 25.3952 64.3584 25.3087 64.3584 25.1982V10.4819C64.3584 10.3714 64.4449 10.2849 64.5554 10.2849H66.3331C66.4436 10.2849 66.5301 10.3714 66.5301 10.4819V25.1982C66.5301 25.3087 66.4388 25.3952 66.3331 25.3952Z" fill="white"/>
<path d="M51.5728 25.0301V23.2236H66.1737V25.0301C66.1737 25.2319 66.0104 25.3953 65.8086 25.3953H51.9379C51.7361 25.3953 51.5728 25.2319 51.5728 25.0301Z" fill="white"/>
<path d="M35.0149 10.6548C35.0485 11.5148 35.1638 13.4847 35.5722 16.5884C35.5866 16.7085 35.4953 16.819 35.3704 16.819H33.3045C33.2036 16.819 33.1171 16.7422 33.1027 16.6413C32.6991 13.5135 32.5886 11.5389 32.5598 10.6692C32.5549 10.5539 32.6462 10.4626 32.7615 10.4626H34.8131C34.9236 10.4626 35.0101 10.5491 35.0149 10.6548Z" fill="white"/>
<path d="M44.8441 10.6548C44.8104 11.5052 44.6951 13.4655 44.2915 16.5452C44.2771 16.6653 44.3684 16.771 44.4885 16.771H46.5401C46.641 16.771 46.7274 16.6941 46.737 16.5932C47.1358 13.4895 47.2463 11.5293 47.28 10.6692C47.2848 10.5539 47.1935 10.4626 47.0782 10.4626H45.041C44.9353 10.4626 44.8489 10.5443 44.8441 10.6548Z" fill="white"/>
<path d="M38.8217 14.8973C38.9082 19.87 34.5841 23.2092 32.0233 23.3677C31.9176 23.3725 31.8359 23.459 31.8359 23.5647V25.376C31.8359 25.4865 31.9272 25.5778 32.0425 25.573C33.9595 25.4577 36.1408 24.4199 37.7839 22.8296C39.2637 21.3979 41.0318 18.8563 41.0318 14.9021V8.52169C41.0318 8.41599 40.9453 8.32471 40.8348 8.32471H39.0235C38.9178 8.32471 38.8265 8.41119 38.8265 8.52169V14.8973H38.8217Z" fill="white"/>
<path d="M41.0211 14.8973C40.9346 19.87 45.2587 23.2092 47.8195 23.3677C47.9252 23.3725 48.0069 23.459 48.0069 23.5647V25.376C48.0069 25.4865 47.9156 25.5778 47.8003 25.573C45.8833 25.4577 43.7021 24.4199 42.0589 22.8296C40.5791 21.3979 38.811 18.8563 38.811 14.9021V8.52169C38.811 8.41599 38.8975 8.32471 39.008 8.32471H40.8193C40.925 8.32471 41.0163 8.41119 41.0163 8.52169V14.8973H41.0211Z" fill="white"/>
<path d="M73.4236 9.86206H74.6871C74.7928 9.86206 74.8841 9.94854 74.8841 10.059V17.5974C74.8841 17.7031 74.7977 17.7943 74.6871 17.7943H73.4236C73.3179 17.7943 73.2266 17.7079 73.2266 17.5974V10.059C73.2266 9.94854 73.3179 9.86206 73.4236 9.86206Z" fill="white"/>
<path d="M75.4697 13.4943L76.4114 13.8018C76.5171 13.8354 76.6276 13.7778 76.6612 13.6721C76.8486 13.0475 77.1513 11.8512 77.2329 11.0536C77.2377 10.996 77.1897 10.9431 77.132 10.9431H76.027C75.9357 10.9431 75.8444 11.02 75.8348 11.1113C75.7435 11.7743 75.5033 12.7256 75.3447 13.2541C75.3159 13.355 75.3688 13.4655 75.4697 13.4943Z" fill="white"/>
<path d="M72.6356 13.4943L71.694 13.8018C71.5883 13.8354 71.4778 13.7778 71.4441 13.6721C71.2568 13.0475 70.9541 11.8512 70.8724 11.0536C70.8676 10.996 70.9156 10.9431 70.9733 10.9431H72.0783C72.1696 10.9431 72.2609 11.02 72.2705 11.1113C72.3618 11.7743 72.602 12.7256 72.7606 13.2541C72.7942 13.355 72.7365 13.4655 72.6356 13.4943Z" fill="white"/>
<path d="M78.5787 9.70349L78.5259 9.63623V9.74193C78.5451 9.72752 78.5595 9.7131 78.5787 9.70349Z" fill="white"/>
<path d="M74.2209 8.64178H70.5935C70.4878 8.64178 70.3965 8.72827 70.3965 8.83877V10.2033C70.3965 10.309 70.483 10.4002 70.5935 10.4002H74.2209C75.7343 10.4002 76.7241 10.2753 77.3727 10.1216C77.464 10.1024 77.5264 10.0207 77.5264 9.9294V8.37273C77.5264 8.30066 77.4544 8.25262 77.3871 8.28144C77.0123 8.43999 76.061 8.64178 74.2209 8.64178Z" fill="white"/>
<path d="M80.1528 15.147L81.0128 13.845C81.0704 13.7537 81.0464 13.6336 80.9551 13.5759L78.3847 11.8847C78.3174 11.8415 78.231 11.8895 78.231 11.9664V13.7777C78.231 13.845 78.2646 13.9026 78.3174 13.9411L80.1528 15.147Z" fill="white"/>
<path d="M77.0498 19.5046L77.1507 19.6583V19.4421L77.0498 19.5046Z" fill="white"/>
<path d="M80.1528 17.0447L78.3174 18.2554C78.2646 18.2939 78.231 18.3515 78.231 18.4188V20.2301C78.231 20.3118 78.3174 20.3598 78.3847 20.3118L80.9551 18.6206C81.0464 18.5629 81.0704 18.438 81.0128 18.3515L80.1528 17.0447Z" fill="white"/>
<path d="M80.9421 25.4481H78.4341C78.3669 25.4481 78.3188 25.3857 78.338 25.3232L78.684 24.0404C78.708 23.9539 78.7849 23.8963 78.8713 23.8963H79.9812C80.034 23.8963 80.0773 23.853 80.0773 23.8002V10.4436C80.0773 10.3619 80.01 10.2994 79.9331 10.2994H78.1843C78.0786 10.2994 77.9873 10.2129 77.9873 10.1024V8.68991C77.9873 8.58421 78.0738 8.49292 78.1843 8.49292H81.4274C81.5331 8.49292 81.6243 8.5794 81.6243 8.68991V24.7659C81.6291 25.1406 81.3216 25.4481 80.9421 25.4481Z" fill="white"/>
<path d="M84.3715 15.147L85.2315 13.845C85.2892 13.7537 85.2652 13.6336 85.1739 13.5759L82.6035 11.8847C82.5362 11.8415 82.4497 11.8895 82.4497 11.9664V13.7777C82.4497 13.845 82.4833 13.9026 82.5362 13.9411L84.3715 15.147Z" fill="white"/>
<path d="M81.2686 19.5046L81.3694 19.6583V19.4421L81.2686 19.5046Z" fill="white"/>
<path d="M84.3715 17.0447L82.5362 18.2554C82.4833 18.2939 82.4497 18.3515 82.4497 18.4188V20.2301C82.4497 20.3118 82.5362 20.3598 82.6035 20.3118L85.1739 18.6206C85.2652 18.5629 85.2892 18.438 85.2315 18.3515L84.3715 17.0447Z" fill="white"/>
<path d="M85.1599 25.4481H82.6519C82.5846 25.4481 82.5366 25.3857 82.5558 25.3232L82.9017 24.0404C82.9258 23.9539 83.0026 23.8963 83.0891 23.8963H84.199C84.2518 23.8963 84.2951 23.853 84.2951 23.8002V10.4436C84.2951 10.3619 84.2278 10.2994 84.1509 10.2994H82.4021C82.2964 10.2994 82.2051 10.2129 82.2051 10.1024V8.68991C82.2051 8.58421 82.2916 8.49292 82.4021 8.49292H85.6451C85.7508 8.49292 85.8421 8.5794 85.8421 8.68991V24.7659C85.8421 25.1406 85.5394 25.4481 85.1599 25.4481Z" fill="white"/>
<path d="M70.1948 14.3544V13.0908C70.1948 12.9851 70.2813 12.8938 70.3918 12.8938H77.7187C77.8244 12.8938 77.9157 12.9803 77.9157 13.0908V14.3544C77.9157 14.4601 77.8292 14.5514 77.7187 14.5514H70.3918C70.2813 14.5514 70.1948 14.4601 70.1948 14.3544Z" fill="white"/>
<path d="M77.5797 25.4239H70.5315C70.4258 25.4239 70.3345 25.3374 70.3345 25.2269V18.1787C70.3345 18.073 70.421 17.9817 70.5315 17.9817H77.5797C77.6854 17.9817 77.7767 18.0682 77.7767 18.1787V25.2269C77.7767 25.3374 77.6854 25.4239 77.5797 25.4239ZM71.9872 23.9201H76.1239C76.2056 23.9201 76.2681 23.8528 76.2681 23.776V19.6393C76.2681 19.5576 76.2008 19.4951 76.1239 19.4951H71.9872C71.9056 19.4951 71.8431 19.5624 71.8431 19.6393V23.776C71.8431 23.8528 71.9056 23.9201 71.9872 23.9201Z" fill="white"/>
<path d="M71.4326 22.3569H76.6743V21.0549H71.4326V22.3569Z" fill="white"/>
<path d="M74.7075 24.326V19.0842H73.4055V24.326H74.7075Z" fill="white"/>
<path d="M75.5754 13.1868H74.456C74.3407 13.1868 74.2542 13.2829 74.259 13.3982C74.3455 14.878 75.34 16.992 77.7471 17.6214C77.8095 17.6358 77.8768 17.5877 77.8768 17.5205V16.2184C77.8768 16.1368 77.8239 16.0647 77.7471 16.0359C76.2817 15.4689 75.8301 14.0996 75.7676 13.3597C75.7628 13.2636 75.6811 13.1868 75.5754 13.1868Z" fill="white"/>
<path d="M72.5294 13.1868H73.6489C73.7642 13.1868 73.8506 13.2829 73.8458 13.3982C73.7594 14.878 72.7648 16.992 70.3578 17.6214C70.2953 17.6358 70.228 17.5877 70.228 17.5205V16.2184C70.228 16.1368 70.2809 16.0647 70.3578 16.0359C71.8231 15.4689 72.2748 14.0996 72.3372 13.3597C72.3468 13.2636 72.4285 13.1868 72.5294 13.1868Z" fill="white"/>
<path d="M94.4575 19.2598V17.7368C94.4575 17.6311 94.544 17.5398 94.6545 17.5398H104.797C104.903 17.5398 104.994 17.6263 104.994 17.7368V19.2598C104.994 19.3655 104.907 19.4568 104.797 19.4568H94.6545C94.544 19.4568 94.4575 19.3655 94.4575 19.2598Z" fill="white"/>
<path d="M89.7251 10.0111V8.49288C89.7251 8.38718 89.8116 8.2959 89.9221 8.2959H92.3724C92.4781 8.2959 92.5694 8.38238 92.5694 8.49288V10.0159C92.5694 10.1216 92.4829 10.2129 92.3724 10.2129H89.9221C89.8116 10.2081 89.7251 10.1216 89.7251 10.0111Z" fill="white"/>
<path d="M94.1841 22.6087V21.0857C94.1841 20.98 94.2706 20.8887 94.3811 20.8887H105.071C105.177 20.8887 105.268 20.9752 105.268 21.0857V22.6087C105.268 22.7144 105.182 22.8057 105.071 22.8057H94.3811C94.2706 22.8057 94.1841 22.7192 94.1841 22.6087Z" fill="white"/>
<path d="M98.8309 16.1753H100.623C100.729 16.1753 100.815 16.2618 100.815 16.3675V25.4625C100.815 25.5682 100.729 25.6546 100.623 25.6546H98.8309C98.7252 25.6546 98.6387 25.5682 98.6387 25.4625V16.3627C98.6387 16.257 98.7252 16.1753 98.8309 16.1753Z" fill="white"/>
<path d="M94.3481 25.2557H91.1579C90.7784 25.2557 90.4709 24.9482 90.4709 24.5687V12.8648C90.4709 12.7832 90.4036 12.7207 90.3267 12.7207H89.0295C88.9238 12.7207 88.8325 12.6342 88.8325 12.5237V11.1496C88.8325 11.0439 88.919 10.9526 89.0295 10.9526H92.2966C92.4023 10.9526 92.4936 11.0391 92.4936 11.1496V23.3964C92.4936 23.4492 92.5368 23.4925 92.5897 23.4925H93.8389C93.9301 23.4925 94.007 23.5501 94.031 23.6414L94.449 25.1308C94.4634 25.1933 94.4154 25.2557 94.3481 25.2557Z" fill="white"/>
<path d="M94.7085 10.1169V8.55538C94.7085 8.44968 94.795 8.3584 94.9055 8.3584H104.543C104.649 8.3584 104.74 8.44488 104.74 8.55538V10.309H94.9055C94.7998 10.309 94.7085 10.2226 94.7085 10.1169Z" fill="white"/>
<path d="M103.501 9.64593C102.746 11.5101 99.4986 13.8499 94.8959 14.0181C94.7902 14.0229 94.7085 14.1045 94.7085 14.2102V15.6996C94.7085 15.8101 94.7998 15.9014 94.9103 15.8966C97.8699 15.8053 100.08 15.0558 101.464 14.2871C102.876 13.4992 103.996 12.6007 104.702 11.5533C104.726 11.5197 104.736 11.4813 104.736 11.4428V9.98705C104.736 9.90057 104.683 9.8285 104.601 9.79967L103.741 9.52101C103.645 9.49218 103.539 9.54503 103.501 9.64593Z" fill="white"/>
<path d="M96.9089 11.1064H94.8862C94.7228 11.1064 94.6316 11.2938 94.7277 11.4187C97.2548 14.6426 101.925 15.8629 104.543 15.9206C104.654 15.9254 104.74 15.8341 104.74 15.7236V14.2294C104.74 14.1237 104.654 14.0324 104.548 14.0324C102.838 14.0468 99.3592 13.3021 97.0434 11.1497C97.005 11.1257 96.957 11.1064 96.9089 11.1064Z" fill="white"/>
</svg>
