<svg width="104" height="32" viewBox="0 0 104 32" fill="none" xmlns="http://www.w3.org/2000/svg">
<path d="M0 20.2025V29.5208C5.05776e-05 29.6046 0.0220698 29.6869 0.0638511 29.7596C0.105632 29.8322 0.165722 29.8926 0.238132 29.9348C0.310542 29.977 0.392742 29.9995 0.47654 30C0.560339 30.0005 0.642802 29.979 0.715722 29.9377L15.9109 21.3612L6.41893 16.0002L0.512474 19.3322C0.357421 19.4186 0.22821 19.5448 0.138136 19.6978C0.0480615 19.8508 0.000376901 20.025 0 20.2025V20.2025Z" fill="#006AFF"/>
<path d="M15.9109 10.6375L0.715722 2.06102C0.642594 2.0202 0.560082 1.99918 0.476339 2.00002C0.392596 2.00087 0.310527 2.02356 0.238238 2.06584C0.16595 2.10813 0.105951 2.16855 0.0641692 2.24113C0.0223871 2.31371 0.000264614 2.39594 0 2.47968V11.798C0.000517507 11.9748 0.0478975 12.1484 0.137309 12.301C0.22672 12.4535 0.354966 12.5797 0.508996 12.6666L6.41545 15.9985L15.9144 10.6375H15.9109Z" fill="#00E6E4"/>
<path d="M15.9111 21.3596V10.6394L6.41211 16.0004L15.9111 21.3596Z" fill="#39C7E8"/>
<path d="M32.623 9.90625L28.7212 20.9009L24.8212 9.90625H22.1338L27.1126 23.941H27.6424H29.8H30.3299L35.3104 9.90625H32.623Z" fill="white"/>
<path d="M86.6423 20.8922L84.0834 13.6689H81.396L85.0337 23.941H85.5653H87.7229H88.2527L91.8817 13.6689H89.1943L86.6423 20.8922Z" fill="white"/>
<path d="M50.0309 9.90625H47.3452V23.941H50.0309V9.90625Z" fill="white"/>
<path d="M67.3961 9.90625H64.7104V23.9428H66.5658V23.9688H74.6333V21.2831H67.3961V9.90625Z" fill="white"/>
<path d="M79.5597 13.6689H76.874V23.9392H79.5597V13.6689Z" fill="white"/>
<path d="M79.5701 9.90625H76.874V12.6006H79.5701V9.90625Z" fill="white"/>
<path d="M40.336 13.4048H39.5456C38.2302 13.4048 36.9687 13.9273 36.0386 14.8574C35.1085 15.7876 34.5859 17.0491 34.5859 18.3645V19.2556C34.5859 20.571 35.1085 21.8326 36.0386 22.7627C36.9687 23.6928 38.2302 24.2153 39.5456 24.2153H40.336C41.6514 24.2153 42.9129 23.6928 43.8431 22.7627C44.7732 21.8326 45.2957 20.571 45.2957 19.2556V18.3645C45.2957 17.0491 44.7732 15.7876 43.8431 14.8574C42.9129 13.9273 41.6514 13.4048 40.336 13.4048V13.4048ZM42.6448 19.2939C42.6539 19.6547 42.5907 20.0138 42.459 20.3498C42.3272 20.6859 42.1295 20.9921 41.8775 21.2506C41.6255 21.5091 41.3243 21.7145 40.9917 21.8547C40.6591 21.995 40.3018 22.0672 39.9408 22.0672C39.5799 22.0672 39.2225 21.995 38.8899 21.8547C38.5573 21.7145 38.2561 21.5091 38.0042 21.2506C37.7522 20.9921 37.5545 20.6859 37.4227 20.3498C37.2909 20.0138 37.2277 19.6547 37.2369 19.2939V18.3332C37.2277 17.9723 37.2909 17.6133 37.4227 17.2773C37.5545 16.9412 37.7522 16.6349 38.0042 16.3765C38.2561 16.118 38.5573 15.9126 38.8899 15.7723C39.2225 15.6321 39.5799 15.5598 39.9408 15.5598C40.3018 15.5598 40.6591 15.6321 40.9917 15.7723C41.3243 15.9126 41.6255 16.118 41.8775 16.3765C42.1295 16.6349 42.3272 16.9412 42.459 17.2773C42.5907 17.6133 42.6539 17.9723 42.6448 18.3332V19.2939Z" fill="white"/>
<path d="M57.371 15.6214C57.9051 15.6214 58.4273 15.7796 58.8716 16.0761C59.3159 16.3726 59.6624 16.7941 59.8673 17.2874L62.4731 16.7888C62.1435 15.8033 61.5124 14.9464 60.6692 14.3391C59.8259 13.7319 58.8131 13.405 57.774 13.4048H56.9714C55.656 13.4048 54.3945 13.9273 53.4644 14.8574C52.5342 15.7876 52.0117 17.0491 52.0117 18.3645V19.2556C52.0117 20.571 52.5342 21.8326 53.4644 22.7627C54.3945 23.6928 55.656 24.2153 56.9714 24.2153H57.7618C58.8008 24.2146 59.8134 23.8875 60.6565 23.2803C61.4997 22.6731 62.1308 21.8165 62.4609 20.8313L59.8551 20.3327C59.6152 20.9105 59.1822 21.3872 58.6301 21.6814C58.078 21.9757 57.4409 22.0693 56.8275 21.9463C56.214 21.8233 55.6623 21.4914 55.2662 21.0071C54.8702 20.5227 54.6544 19.916 54.6557 19.2904V18.3332C54.6548 17.9765 54.7244 17.6232 54.8606 17.2936C54.9968 16.9639 55.1968 16.6645 55.4492 16.4124C55.7015 16.1604 56.0012 15.9607 56.3311 15.825C56.6609 15.6892 57.0143 15.6201 57.371 15.6214V15.6214Z" fill="white"/>
<path d="M98.4762 13.4048H97.6858C96.3704 13.4048 95.1089 13.9273 94.1787 14.8574C93.2486 15.7876 92.7261 17.0491 92.7261 18.3645V19.2556C92.7261 20.571 93.2486 21.8326 94.1787 22.7627C95.1089 23.6928 96.3704 24.2153 97.6858 24.2153H98.4762C99.5159 24.2147 100.529 23.8873 101.373 23.2794C102.216 22.6715 102.847 21.8139 103.177 20.8278L100.571 20.3327C100.349 20.8687 99.9605 21.319 99.4628 21.6171C98.965 21.9152 98.3846 22.0452 97.8072 21.9879C97.2299 21.9307 96.6863 21.6892 96.2568 21.2991C95.8273 20.9091 95.5346 20.3912 95.4222 19.822H103.429V17.6557C103.181 15.347 100.955 13.4048 98.4762 13.4048ZM95.4865 17.6018C95.6416 17.0326 95.9797 16.5302 96.4485 16.1721C96.9174 15.814 97.491 15.6199 98.081 15.6199C98.671 15.6199 99.2446 15.814 99.7134 16.1721C100.182 16.5302 100.52 17.0326 100.675 17.6018H95.4865Z" fill="white"/>
</svg>
