<svg width="128" height="128" viewBox="0 0 128 128" fill="none" xmlns="http://www.w3.org/2000/svg">
<g clip-path="url(#clip0)">
<rect x="25" y="28" width="113" height="37.87" rx="1" fill="#E8F3FF"/>
<path d="M36 51.87L40.466 42H41.936L46.402 51.87H44.582L43.602 49.588H38.786L37.82 51.87H36ZM41.18 43.946L39.402 48.16H42.986L41.208 43.946H41.18Z" fill="#4080FF"/>
<path d="M47.314 51.87V45.024H49.022V46.228C49.358 45.416 50.0766 44.968 51.178 44.884L51.71 44.842L51.822 46.326L50.814 46.424C49.666 46.536 49.092 47.124 49.092 48.188V51.87H47.314Z" fill="#4080FF"/>
<rect x="25" y="28" width="113" height="37.87" rx="1" stroke="#4080FF" stroke-width="2"/>
<path d="M56 39V55" stroke="#4080FF"/>
<path d="M24 71H127V125C127 126.105 126.105 127 125 127H24V71Z" fill="#E8F3FF"/>
<rect x="36" y="83" width="36" height="4" rx="2" fill="#BEDAFF"/>
<rect x="36" y="91" width="69" height="4" rx="2" fill="#BEDAFF"/>
<rect x="36" y="107" width="36" height="4" rx="2" fill="#BEDAFF"/>
<rect x="36" y="115" width="69" height="4" rx="2" fill="#BEDAFF"/>
</g>
<defs>
<clipPath id="clip0">
<rect width="128" height="128" fill="white"/>
</clipPath>
</defs>
</svg>
