<svg width="128" height="128" viewBox="0 0 128 128" fill="none" xmlns="http://www.w3.org/2000/svg">
<rect x="49" y="49" width="30" height="30" rx="15" fill="#1D1D20" stroke="#3469E1" stroke-width="2"/>
<path d="M61.7885 60.843C61.7885 59.653 62.7825 58.6653 64.0374 58.6653C65.2923 58.6653 66.2863 59.653 66.2863 60.843C66.2863 62.0329 65.2923 63.0207 64.0374 63.0207C62.7825 63.0207 61.7885 62.0329 61.7885 60.843ZM59.6287 67.6976C59.6287 66.2029 60.8601 64.9787 62.3928 64.9787H65.682C67.2148 64.9787 68.4462 66.2029 68.4462 67.6976V69.3211C68.4462 69.3223 68.4461 69.3226 68.4459 69.3228L68.4459 69.3229C68.4458 69.3231 68.4457 69.3235 68.4454 69.3239C68.4449 69.3248 68.444 69.326 68.4426 69.3273C68.4405 69.3294 68.4379 69.3311 68.4352 69.3323C68.4327 69.3333 68.4296 69.3341 68.425 69.3341H59.6498C59.6453 69.3341 59.6421 69.3333 59.6397 69.3323C59.6369 69.3311 59.6343 69.3294 59.6322 69.3273C59.6301 69.3252 59.6292 69.3236 59.6289 69.3229L59.6289 69.3228C59.6288 69.3226 59.6287 69.3223 59.6287 69.3211V67.6976Z" fill="#3469E1" stroke="#3469E1" stroke-width="1.05616"/>
</svg>
