<svg width="128" height="128" viewBox="0 0 128 128" fill="none" xmlns="http://www.w3.org/2000/svg">
<rect x="49" y="49" width="30" height="30" rx="15" fill="#E8F3FF" stroke="#4080FF" stroke-width="2"/>
<path fill-rule="evenodd" clip-rule="evenodd" d="M61.2605 60.8435C61.2605 59.349 62.5039 58.1377 64.0374 58.1377C65.5709 58.1377 66.8144 59.349 66.8144 60.8435C66.8144 62.338 65.5709 63.5492 64.0374 63.5492C62.5039 63.5492 61.2605 62.338 61.2605 60.8435ZM59.1006 67.6981C59.1006 65.9048 60.5755 64.4512 62.3928 64.4512H65.682C67.4994 64.4512 68.9743 65.9048 68.9743 67.6981V69.3215C68.9743 69.6204 68.7274 69.8627 68.425 69.8627H59.6498C59.3474 69.8627 59.1006 69.6204 59.1006 69.3215V67.6981Z" fill="#4080FF"/>
</svg>
