<svg width="128" height="128" viewBox="0 0 128 128" fill="none" xmlns="http://www.w3.org/2000/svg">
<rect x="49" y="49" width="30" height="30" rx="15" fill="#E8F3FF" stroke="#4080FF" stroke-width="2"/>
<path fill-rule="evenodd" clip-rule="evenodd" d="M62.4003 68.7998C62.1222 68.3048 61.8389 67.7357 61.5728 67.1076L59.6068 68.996C59.5669 68.8545 59.5134 68.7043 59.4545 68.5393C59.2571 67.9858 58.9999 67.2646 59 66.14C59.0001 64.931 59.3528 64.0889 60.4928 63.5798C59.7944 59.9253 60.2725 55.5386 64.1999 52C67.8251 55.5386 68.2667 59.9253 67.622 63.5798C68.6743 64.0889 68.9999 64.931 69 66.14C69.0001 67.2646 68.7627 67.9857 68.5805 68.5392C68.5261 68.7043 68.4767 68.8545 68.4399 68.996L66.6251 67.1076C66.3794 67.7357 66.118 68.3048 65.8612 68.7998H62.4003ZM65.8003 58.7994C65.8003 59.6831 65.084 60.3994 64.2003 60.3994C63.3167 60.3994 62.6003 59.6831 62.6003 58.7994C62.6003 57.9157 63.3167 57.1994 64.2003 57.1994C65.084 57.1994 65.8003 57.9157 65.8003 58.7994Z" fill="#4080FF"/>
<path d="M63.9787 75.4997C67.0965 72.3819 65.2778 70.534 63.9787 69.9998C62.6796 70.534 60.8609 72.3819 63.9787 75.4997Z" fill="#4080FF"/>
</svg>
