<svg width="128" height="128" viewBox="0 0 128 128" fill="none" xmlns="http://www.w3.org/2000/svg">
<rect x="49" y="49" width="30" height="30" rx="15" fill="#1D1D20" stroke="#3469E1" stroke-width="2"/>
<path d="M61.2264 66.747L59.8272 68.091C59.6621 67.6035 59.5 67.0042 59.5 66.14C59.5 65.5786 59.583 65.1593 59.7584 64.8359C59.9279 64.5235 60.2088 64.2543 60.6967 64.0364L61.0583 63.8749L60.9839 63.486C60.3295 60.0616 60.745 56.0261 64.1857 52.6972C67.3482 56.0223 67.7352 60.0602 67.1296 63.4929L67.0639 63.8653L67.4043 64.0299C67.8437 64.2425 68.1009 64.5065 68.2585 64.8213C68.4227 65.1491 68.5 65.5743 68.5 66.14C68.5 66.9737 68.3615 67.5628 68.2153 68.0407L66.9856 66.7611L66.4442 66.1977L66.1595 66.9255C65.9639 67.4255 65.7583 67.8864 65.554 68.2998H62.6961C62.4724 67.883 62.2472 67.4177 62.0331 66.9125L61.7499 66.2442L61.2264 66.747ZM64.2003 60.8994C65.3601 60.8994 66.3003 59.9592 66.3003 58.7994C66.3003 57.6396 65.3601 56.6994 64.2003 56.6994C63.0405 56.6994 62.1003 57.6396 62.1003 58.7994C62.1003 59.9592 63.0405 60.8994 64.2003 60.8994ZM62.8077 71.901C62.9632 71.2727 63.47 70.8087 63.9787 70.5496C64.4874 70.8087 64.9942 71.2727 65.1497 71.901C65.3027 72.5194 65.1545 73.4683 63.9787 74.7743C62.8029 73.4683 62.6546 72.5194 62.8077 71.901Z" fill="#3469E1" stroke="#3469E1"/>
</svg>
