<svg width="128" height="128" viewBox="0 0 128 128" fill="none" xmlns="http://www.w3.org/2000/svg">
<path d="M27.6605 58.1299V67.9999H25.8965V63.7159H20.8425V67.9999H19.0645V58.1299H20.8425V62.2599H25.8965V58.1299H27.6605Z" fill="#6AA1FF"/>
<path d="M32.7512 68.1119C32.0512 68.1119 31.4352 67.9672 30.9032 67.6779C30.3805 67.3885 29.9745 66.9732 29.6852 66.4319C29.3959 65.8906 29.2512 65.2606 29.2512 64.5419C29.2512 63.8232 29.3959 63.1979 29.6852 62.6659C29.9745 62.1245 30.3805 61.7092 30.9032 61.4199C31.4352 61.1306 32.0512 60.9859 32.7512 60.9859C33.4512 60.9859 34.0625 61.1306 34.5852 61.4199C35.1172 61.7092 35.5232 62.1245 35.8032 62.6659C36.0925 63.1979 36.2372 63.8232 36.2372 64.5419C36.2372 65.2606 36.0925 65.8906 35.8032 66.4319C35.5232 66.9732 35.1172 67.3885 34.5852 67.6779C34.0625 67.9672 33.4512 68.1119 32.7512 68.1119ZM32.7372 66.7539C33.3065 66.7539 33.7405 66.5672 34.0392 66.1939C34.3379 65.8206 34.4872 65.2699 34.4872 64.5419C34.4872 63.8232 34.3379 63.2772 34.0392 62.9039C33.7405 62.5212 33.3112 62.3299 32.7512 62.3299C32.1912 62.3299 31.7572 62.5212 31.4492 62.9039C31.1505 63.2772 31.0012 63.8232 31.0012 64.5419C31.0012 65.2699 31.1505 65.8206 31.4492 66.1939C31.7479 66.5672 32.1772 66.7539 32.7372 66.7539Z" fill="#6AA1FF"/>
<path d="M45.8159 60.9859C46.5906 60.9859 47.1693 61.2192 47.5519 61.6859C47.9346 62.1432 48.1259 62.8479 48.1259 63.7999V67.9999H46.3759V63.8699C46.3759 63.3472 46.2873 62.9692 46.1099 62.7359C45.9326 62.4932 45.6479 62.3719 45.2559 62.3719C44.7893 62.3719 44.4253 62.5306 44.1639 62.8479C43.9026 63.1652 43.7719 63.6085 43.7719 64.1779V67.9999H42.0219V63.8699C42.0219 63.3472 41.9333 62.9692 41.7559 62.7359C41.5879 62.4932 41.3033 62.3719 40.9019 62.3719C40.4446 62.3719 40.0853 62.5306 39.8239 62.8479C39.5626 63.1652 39.4319 63.6085 39.4319 64.1779V67.9999H37.6819V61.1539H39.3899V62.1199C39.5953 61.7466 39.8799 61.4666 40.2439 61.2799C40.6079 61.0839 41.0233 60.9859 41.4899 60.9859C42.5259 60.9859 43.2119 61.4152 43.5479 62.2739C43.7626 61.8726 44.0706 61.5599 44.4719 61.3359C44.8733 61.1025 45.3213 60.9859 45.8159 60.9859Z" fill="#6AA1FF"/>
<path d="M55.9106 64.8919H51.2486C51.3046 65.5266 51.4959 65.9979 51.8226 66.3059C52.1493 66.6139 52.6159 66.7679 53.2226 66.7679C53.9786 66.7679 54.6693 66.5252 55.2946 66.0399L55.7986 67.2439C55.4813 67.5052 55.0799 67.7152 54.5946 67.8739C54.1186 68.0325 53.6379 68.1119 53.1526 68.1119C52.0326 68.1119 51.1459 67.7946 50.4926 67.1599C49.8486 66.5252 49.5266 65.6572 49.5266 64.5559C49.5266 63.8559 49.6666 63.2352 49.9466 62.6939C50.2266 62.1526 50.6186 61.7326 51.1226 61.4339C51.6359 61.1352 52.2146 60.9859 52.8586 60.9859C53.8013 60.9859 54.5433 61.2892 55.0846 61.8959C55.6353 62.5026 55.9106 63.3379 55.9106 64.4019V64.8919ZM52.9006 62.2179C52.4339 62.2179 52.0559 62.3672 51.7666 62.6659C51.4866 62.9645 51.3139 63.3939 51.2486 63.9539H54.4126C54.3939 63.3845 54.2539 62.9552 53.9926 62.6659C53.7313 62.3672 53.3673 62.2179 52.9006 62.2179Z" fill="#6AA1FF"/>
<path d="M74.8442 60.9863C75.4322 60.9863 75.9548 61.1357 76.4122 61.4343C76.8788 61.733 77.2382 62.1577 77.4902 62.7083C77.7515 63.2497 77.8822 63.875 77.8822 64.5843C77.8822 65.2937 77.7515 65.9143 77.4902 66.4463C77.2382 66.9783 76.8835 67.389 76.4262 67.6783C75.9688 67.9677 75.4415 68.1123 74.8442 68.1123C74.3588 68.1123 73.9248 68.0097 73.5422 67.8043C73.1595 67.599 72.8655 67.3143 72.6602 66.9503V70.5203H70.9102V61.1543H72.6322V62.1903C72.8375 61.8077 73.1315 61.5137 73.5142 61.3083C73.9062 61.0937 74.3495 60.9863 74.8442 60.9863ZM74.3822 66.7543C74.9328 66.7543 75.3622 66.5677 75.6702 66.1943C75.9782 65.8117 76.1322 65.275 76.1322 64.5843C76.1322 63.875 75.9782 63.3243 75.6702 62.9323C75.3622 62.5403 74.9328 62.3443 74.3822 62.3443C73.8222 62.3443 73.3882 62.5357 73.0802 62.9183C72.7815 63.301 72.6322 63.847 72.6322 64.5563C72.6322 65.2563 72.7815 65.7977 73.0802 66.1803C73.3882 66.563 73.8222 66.7543 74.3822 66.7543Z" fill="#6AA1FF"/>
<path d="M82.2584 60.9863C83.2197 60.9863 83.9337 61.2197 84.4004 61.6863C84.867 62.153 85.1004 62.8717 85.1004 63.8423V68.0003H83.4344V66.9503C83.2757 67.3143 83.0237 67.599 82.6784 67.8043C82.3424 68.0097 81.9504 68.1123 81.5024 68.1123C81.045 68.1123 80.6297 68.019 80.2564 67.8323C79.883 67.6457 79.589 67.389 79.3744 67.0623C79.1597 66.7357 79.0524 66.3717 79.0524 65.9703C79.0524 65.4663 79.1784 65.0697 79.4304 64.7803C79.6917 64.491 80.1117 64.281 80.6904 64.1503C81.269 64.0197 82.067 63.9543 83.0844 63.9543H83.4344V63.6323C83.4344 63.1657 83.3317 62.8297 83.1264 62.6243C82.9304 62.419 82.599 62.3163 82.1324 62.3163C81.7684 62.3163 81.3857 62.3817 80.9844 62.5123C80.5924 62.6337 80.205 62.8063 79.8224 63.0303L79.3324 61.8263C79.715 61.5837 80.177 61.383 80.7184 61.2243C81.2597 61.0657 81.773 60.9863 82.2584 60.9863ZM81.8524 66.8523C82.319 66.8523 82.697 66.6983 82.9864 66.3903C83.285 66.073 83.4344 65.667 83.4344 65.1723V64.8783H83.1824C82.557 64.8783 82.0717 64.9063 81.7264 64.9623C81.381 65.0183 81.1337 65.1163 80.9844 65.2563C80.835 65.3963 80.7604 65.5877 80.7604 65.8303C80.7604 66.129 80.863 66.3763 81.0684 66.5723C81.2737 66.759 81.535 66.8523 81.8524 66.8523Z" fill="#6AA1FF"/>
<path d="M93.5429 61.1543V67.3703C93.5429 68.4437 93.2442 69.2557 92.6469 69.8063C92.0589 70.357 91.1862 70.6323 90.0289 70.6323C89.4316 70.6323 88.8576 70.553 88.3069 70.3943C87.7562 70.245 87.2756 70.0303 86.8649 69.7503L87.3549 68.5183C88.2042 69.0317 89.0816 69.2883 89.9869 69.2883C91.2002 69.2883 91.8069 68.691 91.8069 67.4963V66.6003C91.6016 66.983 91.3029 67.2817 90.9109 67.4963C90.5189 67.7017 90.0709 67.8043 89.5669 67.8043C88.9696 67.8043 88.4376 67.6643 87.9709 67.3843C87.5136 67.095 87.1542 66.6937 86.8929 66.1803C86.6316 65.667 86.5009 65.0743 86.5009 64.4023C86.5009 63.7303 86.6269 63.1377 86.8789 62.6243C87.1402 62.1017 87.5042 61.7003 87.9709 61.4203C88.4376 61.131 88.9696 60.9863 89.5669 60.9863C90.0709 60.9863 90.5189 61.0937 90.9109 61.3083C91.3029 61.5137 91.6016 61.8077 91.8069 62.1903V61.1543H93.5429ZM90.0289 66.4463C90.5889 66.4463 91.0229 66.2643 91.3309 65.9003C91.6482 65.5363 91.8069 65.037 91.8069 64.4023C91.8069 63.7583 91.6482 63.2543 91.3309 62.8903C91.0229 62.5263 90.5889 62.3443 90.0289 62.3443C89.4782 62.3443 89.0442 62.5263 88.7269 62.8903C88.4096 63.2543 88.2509 63.7583 88.2509 64.4023C88.2509 65.0277 88.4096 65.527 88.7269 65.9003C89.0442 66.2643 89.4782 66.4463 90.0289 66.4463Z" fill="#6AA1FF"/>
<path d="M101.361 64.8923H96.6995C96.7555 65.527 96.9468 65.9983 97.2735 66.3063C97.6001 66.6143 98.0668 66.7683 98.6735 66.7683C99.4295 66.7683 100.12 66.5257 100.745 66.0403L101.249 67.2443C100.932 67.5057 100.531 67.7157 100.045 67.8743C99.5695 68.033 99.0888 68.1123 98.6035 68.1123C97.4835 68.1123 96.5968 67.795 95.9435 67.1603C95.2995 66.5257 94.9775 65.6577 94.9775 64.5563C94.9775 63.8563 95.1175 63.2357 95.3975 62.6943C95.6775 62.153 96.0695 61.733 96.5735 61.4343C97.0868 61.1357 97.6655 60.9863 98.3095 60.9863C99.2521 60.9863 99.9941 61.2897 100.535 61.8963C101.086 62.503 101.361 63.3383 101.361 64.4023V64.8923ZM98.3515 62.2183C97.8848 62.2183 97.5068 62.3677 97.2175 62.6663C96.9375 62.965 96.7648 63.3943 96.6995 63.9543H99.8635C99.8448 63.385 99.7048 62.9557 99.4435 62.6663C99.1821 62.3677 98.8181 62.2183 98.3515 62.2183Z" fill="#6AA1FF"/>
<path d="M62.036 68.994L60.72 68.602L64.346 57.36L65.662 57.752L62.036 68.994Z" fill="#4080FF"/>
<path d="M107.036 68.994L105.72 68.602L109.346 57.36L110.662 57.752L107.036 68.994Z" fill="#4080FF"/>
</svg>
