<svg width="128" height="128" viewBox="0 0 128 128" fill="none" xmlns="http://www.w3.org/2000/svg">
<path d="M25.896 58.13H27.66V68H25.896V63.716H20.842V68H19.064V58.13H20.842V62.26H25.896V58.13ZM32.7508 68.112C32.0508 68.112 31.4348 67.9673 30.9028 67.678C30.3801 67.3887 29.9741 66.9733 29.6848 66.432C29.3954 65.8907 29.2508 65.2607 29.2508 64.542C29.2508 63.8233 29.3954 63.198 29.6848 62.666C29.9741 62.1247 30.3801 61.7093 30.9028 61.42C31.4348 61.1307 32.0508 60.986 32.7508 60.986C33.4508 60.986 34.0621 61.1307 34.5848 61.42C35.1168 61.7093 35.5228 62.1247 35.8028 62.666C36.0921 63.198 36.2368 63.8233 36.2368 64.542C36.2368 65.2607 36.0921 65.8907 35.8028 66.432C35.5228 66.9733 35.1168 67.3887 34.5848 67.678C34.0621 67.9673 33.4508 68.112 32.7508 68.112ZM32.7368 66.754C33.3061 66.754 33.7401 66.5673 34.0388 66.194C34.3374 65.8207 34.4868 65.27 34.4868 64.542C34.4868 63.8233 34.3374 63.2773 34.0388 62.904C33.7401 62.5213 33.3108 62.33 32.7508 62.33C32.1908 62.33 31.7568 62.5213 31.4488 62.904C31.1501 63.2773 31.0008 63.8233 31.0008 64.542C31.0008 65.27 31.1501 65.8207 31.4488 66.194C31.7474 66.5673 32.1768 66.754 32.7368 66.754ZM45.8155 60.986C46.5902 60.986 47.1688 61.2193 47.5515 61.686C47.9342 62.1433 48.1255 62.848 48.1255 63.8V68H46.3755V63.87C46.3755 63.3473 46.2868 62.9693 46.1095 62.736C45.9322 62.4933 45.6475 62.372 45.2555 62.372C44.7888 62.372 44.4248 62.5307 44.1635 62.848C43.9022 63.1653 43.7715 63.6087 43.7715 64.178V68H42.0215V63.87C42.0215 63.3473 41.9328 62.9693 41.7555 62.736C41.5875 62.4933 41.3028 62.372 40.9015 62.372C40.4442 62.372 40.0848 62.5307 39.8235 62.848C39.5622 63.1653 39.4315 63.6087 39.4315 64.178V68H37.6815V61.154H39.3895V62.12C39.5948 61.7467 39.8795 61.4667 40.2435 61.28C40.6075 61.084 41.0228 60.986 41.4895 60.986C42.5255 60.986 43.2115 61.4153 43.5475 62.274C43.7622 61.8727 44.0702 61.56 44.4715 61.336C44.8728 61.1027 45.3208 60.986 45.8155 60.986ZM55.9101 64.892H51.2481C51.3041 65.5267 51.4955 65.998 51.8221 66.306C52.1488 66.614 52.6155 66.768 53.2221 66.768C53.9781 66.768 54.6688 66.5253 55.2941 66.04L55.7981 67.244C55.4808 67.5053 55.0795 67.7153 54.5941 67.874C54.1181 68.0327 53.6375 68.112 53.1521 68.112C52.0321 68.112 51.1455 67.7947 50.4921 67.16C49.8481 66.5253 49.5261 65.6573 49.5261 64.556C49.5261 63.856 49.6661 63.2353 49.9461 62.694C50.2261 62.1527 50.6181 61.7327 51.1221 61.434C51.6355 61.1353 52.2141 60.986 52.8581 60.986C53.8008 60.986 54.5428 61.2893 55.0841 61.896C55.6348 62.5027 55.9101 63.338 55.9101 64.402V64.892ZM52.9001 62.218C52.4335 62.218 52.0555 62.3673 51.7661 62.666C51.4861 62.9647 51.3135 63.394 51.2481 63.954H54.4121C54.3935 63.3847 54.2535 62.9553 53.9921 62.666C53.7308 62.3673 53.3668 62.218 52.9001 62.218Z" fill="#3469E1"/>
<path d="M74.844 60.986C75.432 60.986 75.9547 61.1353 76.412 61.434C76.8787 61.7327 77.238 62.1573 77.49 62.708C77.7513 63.2493 77.882 63.8747 77.882 64.584C77.882 65.2933 77.7513 65.914 77.49 66.446C77.238 66.978 76.8833 67.3887 76.426 67.678C75.9687 67.9673 75.4413 68.112 74.844 68.112C74.3587 68.112 73.9247 68.0093 73.542 67.804C73.1593 67.5987 72.8653 67.314 72.66 66.95V70.52H70.91V61.154H72.632V62.19C72.8373 61.8073 73.1313 61.5133 73.514 61.308C73.906 61.0933 74.3493 60.986 74.844 60.986ZM74.382 66.754C74.9327 66.754 75.362 66.5673 75.67 66.194C75.978 65.8113 76.132 65.2747 76.132 64.584C76.132 63.8747 75.978 63.324 75.67 62.932C75.362 62.54 74.9327 62.344 74.382 62.344C73.822 62.344 73.388 62.5353 73.08 62.918C72.7813 63.3007 72.632 63.8467 72.632 64.556C72.632 65.256 72.7813 65.7973 73.08 66.18C73.388 66.5627 73.822 66.754 74.382 66.754ZM82.2582 60.986C83.2195 60.986 83.9335 61.2193 84.4002 61.686C84.8669 62.1527 85.1002 62.8713 85.1002 63.842V68H83.4342V66.95C83.2755 67.314 83.0235 67.5987 82.6782 67.804C82.3422 68.0093 81.9502 68.112 81.5022 68.112C81.0449 68.112 80.6295 68.0187 80.2562 67.832C79.8829 67.6453 79.5889 67.3887 79.3742 67.062C79.1595 66.7353 79.0522 66.3713 79.0522 65.97C79.0522 65.466 79.1782 65.0693 79.4302 64.78C79.6915 64.4907 80.1115 64.2807 80.6902 64.15C81.2689 64.0193 82.0669 63.954 83.0842 63.954H83.4342V63.632C83.4342 63.1653 83.3315 62.8293 83.1262 62.624C82.9302 62.4187 82.5989 62.316 82.1322 62.316C81.7682 62.316 81.3855 62.3813 80.9842 62.512C80.5922 62.6333 80.2049 62.806 79.8222 63.03L79.3322 61.826C79.7149 61.5833 80.1769 61.3827 80.7182 61.224C81.2595 61.0653 81.7729 60.986 82.2582 60.986ZM81.8522 66.852C82.3189 66.852 82.6969 66.698 82.9862 66.39C83.2849 66.0727 83.4342 65.6667 83.4342 65.172V64.878H83.1822C82.5569 64.878 82.0715 64.906 81.7262 64.962C81.3809 65.018 81.1335 65.116 80.9842 65.256C80.8349 65.396 80.7602 65.5873 80.7602 65.83C80.7602 66.1287 80.8629 66.376 81.0682 66.572C81.2735 66.7587 81.5349 66.852 81.8522 66.852ZM93.5428 61.154V67.37C93.5428 68.4433 93.2441 69.2553 92.6468 69.806C92.0588 70.3567 91.1861 70.632 90.0288 70.632C89.4314 70.632 88.8574 70.5527 88.3068 70.394C87.7561 70.2447 87.2754 70.03 86.8648 69.75L87.3548 68.518C88.2041 69.0313 89.0814 69.288 89.9868 69.288C91.2001 69.288 91.8068 68.6907 91.8068 67.496V66.6C91.6014 66.9827 91.3028 67.2813 90.9108 67.496C90.5188 67.7013 90.0708 67.804 89.5667 67.804C88.9694 67.804 88.4374 67.664 87.9708 67.384C87.5134 67.0947 87.1541 66.6933 86.8927 66.18C86.6314 65.6667 86.5008 65.074 86.5008 64.402C86.5008 63.73 86.6268 63.1373 86.8788 62.624C87.1401 62.1013 87.5041 61.7 87.9708 61.42C88.4374 61.1307 88.9694 60.986 89.5667 60.986C90.0708 60.986 90.5188 61.0933 90.9108 61.308C91.3028 61.5133 91.6014 61.8073 91.8068 62.19V61.154H93.5428ZM90.0288 66.446C90.5888 66.446 91.0228 66.264 91.3308 65.9C91.6481 65.536 91.8068 65.0367 91.8068 64.402C91.8068 63.758 91.6481 63.254 91.3308 62.89C91.0228 62.526 90.5888 62.344 90.0288 62.344C89.4781 62.344 89.0441 62.526 88.7268 62.89C88.4094 63.254 88.2508 63.758 88.2508 64.402C88.2508 65.0273 88.4094 65.5267 88.7268 65.9C89.0441 66.264 89.4781 66.446 90.0288 66.446ZM101.361 64.892H96.6993C96.7553 65.5267 96.9466 65.998 97.2733 66.306C97.6 66.614 98.0666 66.768 98.6733 66.768C99.4293 66.768 100.12 66.5253 100.745 66.04L101.249 67.244C100.932 67.5053 100.531 67.7153 100.045 67.874C99.5693 68.0327 99.0886 68.112 98.6033 68.112C97.4833 68.112 96.5966 67.7947 95.9433 67.16C95.2993 66.5253 94.9773 65.6573 94.9773 64.556C94.9773 63.856 95.1173 63.2353 95.3973 62.694C95.6773 62.1527 96.0693 61.7327 96.5733 61.434C97.0866 61.1353 97.6653 60.986 98.3093 60.986C99.252 60.986 99.994 61.2893 100.535 61.896C101.086 62.5027 101.361 63.338 101.361 64.402V64.892ZM98.3513 62.218C97.8846 62.218 97.5066 62.3673 97.2173 62.666C96.9373 62.9647 96.7646 63.394 96.6993 63.954H99.8633C99.8446 63.3847 99.7046 62.9553 99.4433 62.666C99.182 62.3673 98.818 62.218 98.3513 62.218Z" fill="#3469E1"/>
<path d="M62.05 69.022L60.72 68.602L64.318 57.346L65.648 57.766L62.05 69.022Z" fill="#3469E1"/>
<path d="M107.05 69.022L105.72 68.602L109.318 57.346L110.648 57.766L107.05 69.022Z" fill="#3469E1"/>
</svg>
