<svg width="128" height="128" viewBox="0 0 128 128" fill="none" xmlns="http://www.w3.org/2000/svg">
<rect x="18" y="49" width="91" height="30" rx="1" fill="#1D1D20"/>
<path d="M41.61 69L40.616 66.69H35.814L34.82 69H33L37.466 59.13H38.936L43.402 69H41.61ZM36.402 65.29H40.014L38.208 61.09L36.402 65.29ZM50.0202 69.126C49.0495 69.126 48.2002 68.9207 47.4722 68.51C46.7535 68.09 46.1982 67.4973 45.8062 66.732C45.4235 65.9667 45.2322 65.0753 45.2322 64.058C45.2322 63.0407 45.4235 62.154 45.8062 61.398C46.1982 60.6327 46.7535 60.0447 47.4722 59.634C48.2002 59.214 49.0495 59.004 50.0202 59.004C50.6828 59.004 51.3082 59.1067 51.8962 59.312C52.4842 59.5173 52.9788 59.8067 53.3802 60.18L52.7782 61.496C52.3302 61.1413 51.8868 60.8847 51.4482 60.726C51.0095 60.558 50.5428 60.474 50.0482 60.474C49.0962 60.474 48.3588 60.782 47.8362 61.398C47.3228 62.014 47.0662 62.9007 47.0662 64.058C47.0662 65.2247 47.3228 66.116 47.8362 66.732C48.3588 67.348 49.0962 67.656 50.0482 67.656C50.5428 67.656 51.0095 67.5767 51.4482 67.418C51.8868 67.25 52.3302 66.9887 52.7782 66.634L53.3802 67.95C52.9788 68.3233 52.4842 68.6127 51.8962 68.818C51.3082 69.0233 50.6828 69.126 50.0202 69.126ZM58.6157 69V60.614H55.3957V59.13H63.6417V60.614H60.4217V69H58.6157ZM66.2777 69V59.13H68.0837V69H66.2777ZM76.0112 69.126C75.0498 69.126 74.2145 68.9207 73.5052 68.51C72.8052 68.0993 72.2638 67.5113 71.8812 66.746C71.4985 65.9807 71.3072 65.0847 71.3072 64.058C71.3072 63.0313 71.4938 62.14 71.8672 61.384C72.2498 60.6187 72.7958 60.0307 73.5052 59.62C74.2145 59.2093 75.0498 59.004 76.0112 59.004C76.9725 59.004 77.8032 59.2093 78.5032 59.62C79.2125 60.0307 79.7538 60.6187 80.1272 61.384C80.5098 62.14 80.7012 63.0313 80.7012 64.058C80.7012 65.0847 80.5098 65.9807 80.1272 66.746C79.7445 67.5113 79.1985 68.0993 78.4892 68.51C77.7892 68.9207 76.9632 69.126 76.0112 69.126ZM76.0112 67.684C76.9165 67.684 77.6212 67.3713 78.1252 66.746C78.6385 66.1207 78.8952 65.2247 78.8952 64.058C78.8952 62.8913 78.6385 62 78.1252 61.384C77.6212 60.7587 76.9165 60.446 76.0112 60.446C75.0965 60.446 74.3825 60.7587 73.8692 61.384C73.3652 62 73.1132 62.8913 73.1132 64.058C73.1132 65.2247 73.3652 66.1207 73.8692 66.746C74.3825 67.3713 75.0965 67.684 76.0112 67.684ZM90.5613 59.13H92.2553V69H90.8973L85.6053 62.112V69H83.9253V59.13H85.2693L90.5613 66.004V59.13Z" fill="#3469E1"/>
<rect x="18" y="49" width="91" height="30" rx="1" stroke="#3469E1" stroke-width="2"/>
</svg>
