<svg width="128" height="128" viewBox="0 0 128 128" fill="none" xmlns="http://www.w3.org/2000/svg">
<rect x="18.8721" y="48.9395" width="89.2553" height="30.122" rx="1" fill="#E8F3FF"/>
<path d="M42.4821 68.9355L41.4881 66.6255H36.6861L35.6921 68.9355H33.8721L38.3381 59.0655H39.8081L44.2741 68.9355H42.4821ZM37.2741 65.2255H40.8861L39.0801 61.0255L37.2741 65.2255Z" fill="#4080FF"/>
<path d="M50.8922 69.0615C49.9216 69.0615 49.0722 68.8561 48.3442 68.4455C47.6256 68.0255 47.0702 67.4328 46.6782 66.6675C46.2956 65.9021 46.1042 65.0108 46.1042 63.9935C46.1042 62.9761 46.2956 62.0895 46.6782 61.3335C47.0702 60.5681 47.6256 59.9801 48.3442 59.5695C49.0722 59.1495 49.9216 58.9395 50.8922 58.9395C51.5549 58.9395 52.1802 59.0421 52.7682 59.2475C53.3562 59.4528 53.8509 59.7421 54.2522 60.1155L53.6502 61.4315C53.2022 61.0768 52.7589 60.8201 52.3202 60.6615C51.8816 60.4935 51.4149 60.4095 50.9202 60.4095C49.9682 60.4095 49.2309 60.7175 48.7082 61.3335C48.1949 61.9495 47.9382 62.8361 47.9382 63.9935C47.9382 65.1601 48.1949 66.0515 48.7082 66.6675C49.2309 67.2835 49.9682 67.5915 50.9202 67.5915C51.4149 67.5915 51.8816 67.5121 52.3202 67.3535C52.7589 67.1855 53.2022 66.9241 53.6502 66.5695L54.2522 67.8855C53.8509 68.2588 53.3562 68.5481 52.7682 68.7535C52.1802 68.9588 51.5549 69.0615 50.8922 69.0615Z" fill="#4080FF"/>
<path d="M59.4878 68.9355V60.5495H56.2678V59.0655H64.5138V60.5495H61.2938V68.9355H59.4878Z" fill="#4080FF"/>
<path d="M67.1497 68.9355V59.0655H68.9557V68.9355H67.1497Z" fill="#4080FF"/>
<path d="M76.8832 69.0615C75.9219 69.0615 75.0866 68.8561 74.3772 68.4455C73.6772 68.0348 73.1359 67.4468 72.7532 66.6815C72.3706 65.9161 72.1792 65.0201 72.1792 63.9935C72.1792 62.9668 72.3659 62.0755 72.7392 61.3195C73.1219 60.5541 73.6679 59.9661 74.3772 59.5555C75.0866 59.1448 75.9219 58.9395 76.8832 58.9395C77.8446 58.9395 78.6752 59.1448 79.3752 59.5555C80.0846 59.9661 80.6259 60.5541 80.9992 61.3195C81.3819 62.0755 81.5732 62.9668 81.5732 63.9935C81.5732 65.0201 81.3819 65.9161 80.9992 66.6815C80.6166 67.4468 80.0706 68.0348 79.3612 68.4455C78.6612 68.8561 77.8352 69.0615 76.8832 69.0615ZM76.8832 67.6195C77.7886 67.6195 78.4932 67.3068 78.9972 66.6815C79.5106 66.0561 79.7672 65.1601 79.7672 63.9935C79.7672 62.8268 79.5106 61.9355 78.9972 61.3195C78.4932 60.6941 77.7886 60.3815 76.8832 60.3815C75.9686 60.3815 75.2546 60.6941 74.7412 61.3195C74.2372 61.9355 73.9852 62.8268 73.9852 63.9935C73.9852 65.1601 74.2372 66.0561 74.7412 66.6815C75.2546 67.3068 75.9686 67.6195 76.8832 67.6195Z" fill="#4080FF"/>
<path d="M91.4334 59.0655H93.1274V68.9355H91.7694L86.4774 62.0475V68.9355H84.7974V59.0655H86.1414L91.4334 65.9395V59.0655Z" fill="#4080FF"/>
<rect x="18.8721" y="48.9395" width="89.2553" height="30.122" rx="1" stroke="#4080FF" stroke-width="2"/>
</svg>
