<svg width="128" height="128" viewBox="0 0 128 128" fill="none" xmlns="http://www.w3.org/2000/svg">
<rect x="53" y="53" width="22" height="22" rx="1" fill="#E8F3FF"/>
<path fill-rule="evenodd" clip-rule="evenodd" d="M69.6381 57.9055C69.4311 57.6991 69.0919 57.7136 68.9032 57.937L61.9653 66.1485L59.1995 63.2602C59.0055 63.0577 58.6829 63.0542 58.4847 63.2526L56.9534 64.7852C56.7612 64.9775 56.758 65.2881 56.946 65.4844L61.6228 70.3682C61.7634 70.515 61.9714 70.5572 62.1508 70.4939C62.3057 70.5066 62.4649 70.4472 62.5739 70.3183L63.5528 69.1596L64.2146 68.4973L64.1603 68.4406L71.1991 60.1097C71.367 59.9109 71.3544 59.6166 71.1702 59.4329L69.6381 57.9055Z" fill="#4080FF"/>
<rect x="53" y="53" width="22" height="22" rx="1" stroke="#4080FF" stroke-width="2"/>
</svg>
