<svg width="128" height="128" viewBox="0 0 128 128" fill="none" xmlns="http://www.w3.org/2000/svg">
<rect x="53" y="53" width="22" height="22" rx="1" fill="#1D1D20"/>
<path fill-rule="evenodd" clip-rule="evenodd" d="M69.6381 57.9051C69.4311 57.6986 69.0919 57.7131 68.9032 57.9365L61.9653 66.148L59.1995 63.2597C59.0055 63.0572 58.6829 63.0538 58.4847 63.2522L56.9534 64.7847C56.7612 64.977 56.758 65.2876 56.946 65.4839L61.6228 70.3678C61.7634 70.5145 61.9714 70.5568 62.1508 70.4934C62.3057 70.5061 62.4649 70.4467 62.5739 70.3178L63.5528 69.1591L64.2146 68.4968L64.1603 68.4401L71.1991 60.1092C71.367 59.9104 71.3544 59.6161 71.1702 59.4324L69.6381 57.9051Z" fill="#3469E1"/>
<rect x="53" y="53" width="22" height="22" rx="1" stroke="#3469E1" stroke-width="2"/>
</svg>
