<svg width="128" height="128" viewBox="0 0 128 128" fill="none" xmlns="http://www.w3.org/2000/svg">
<path d="M64.0002 51.2729C64.9439 51.2729 65.8749 51.3768 66.7811 51.5808L67.3041 51.6986L68.935 55.4165L72.9504 54.9776L73.3133 55.3729C74.5841 56.7571 75.5376 58.408 76.0965 60.211L76.2541 60.7193L75.9408 61.1494L73.8647 64.0002L76.2541 67.2812L76.0965 67.7894C75.5376 69.5924 74.5841 71.2434 73.3133 72.6275L72.9504 73.0229L68.935 72.5839L67.3041 76.3019L66.7811 76.4196C65.8749 76.6236 64.9439 76.7275 64.0002 76.7275C63.0563 76.7275 62.125 76.6236 61.2186 76.4195L60.6956 76.3017L60.4803 75.8107L59.0653 72.5839L55.05 73.0229L54.687 72.6275C53.4161 71.2432 52.4626 69.592 51.9037 67.7888L51.7461 67.2805L52.0594 66.8503L54.1356 64.0002L51.7461 60.72L51.9037 60.2116C52.4626 58.4084 53.4161 56.7573 54.687 55.3729L55.05 54.9776L59.0653 55.4165L60.6956 51.6988L61.2186 51.581C62.125 51.3769 63.0563 51.2729 64.0002 51.2729ZM64.0002 53.3942C63.3919 53.3942 62.7907 53.4458 62.201 53.5477L60.8944 56.5275C60.5897 57.2219 59.8697 57.6383 59.1159 57.5559L55.9027 57.2046C55.1265 58.1388 54.5146 59.2004 54.0968 60.3444L56.0154 62.9781C56.4591 63.5873 56.4591 64.4131 56.0154 65.0224L54.0968 67.6561C54.5146 68.8 55.1265 69.8616 55.9027 70.7958L59.1159 70.4445C59.8697 70.3621 60.5898 70.7785 60.8944 71.4731L62.201 74.4527C62.7907 74.5546 63.3919 74.6063 64.0002 74.6063C64.6083 74.6063 65.2093 74.5546 65.7989 74.4528L67.106 71.4729C67.4106 70.7785 68.1307 70.3621 68.8845 70.4445L72.0977 70.7958C72.8738 69.8617 73.4856 68.8003 73.9034 67.6565L71.985 65.0223C71.5413 64.4131 71.5413 63.5873 71.9849 62.9782L73.9034 60.3439C73.4856 59.2001 72.8738 58.1387 72.0977 57.2046L68.8845 57.5559C68.1307 57.6383 67.4106 57.2219 67.106 56.5275L65.7989 53.5476C65.2093 53.4458 64.6083 53.3942 64.0002 53.3942ZM64.0002 58.6972C66.9189 58.6972 69.283 61.0726 69.283 64.0002C69.283 66.9279 66.9189 69.3033 64.0002 69.3033C61.0814 69.3033 58.7174 66.9279 58.7174 64.0002C58.7174 61.0726 61.0814 58.6972 64.0002 58.6972ZM64.0002 60.8184C62.2552 60.8184 60.8386 62.2418 60.8386 64.0002C60.8386 65.7586 62.2552 67.182 64.0002 67.182C65.7452 67.182 67.1618 65.7586 67.1618 64.0002C67.1618 62.2418 65.7452 60.8184 64.0002 60.8184Z" fill="#4C87FF"/>
</svg>
