<svg width="128" height="128" viewBox="0 0 128 128" fill="none" xmlns="http://www.w3.org/2000/svg">
<path d="M64.0002 51.2725C64.9439 51.2725 65.8749 51.3763 66.7811 51.5804L67.3041 51.6981L68.935 55.416L72.9504 54.9771L73.3133 55.3724C74.5841 56.7566 75.5376 58.4075 76.0965 60.2105L76.2541 60.7188L75.9408 61.1489L73.8647 63.9997L76.2541 67.2807L76.0965 67.789C75.5376 69.5919 74.5841 71.2429 73.3133 72.627L72.9504 73.0224L68.935 72.5834L67.3041 76.3014L66.7811 76.4191C65.8749 76.6231 64.9439 76.727 64.0002 76.727C63.0563 76.727 62.125 76.6231 61.2186 76.419L60.6956 76.3012L60.4803 75.8102L59.0653 72.5834L55.05 73.0224L54.687 72.627C53.4161 71.2427 52.4626 69.5916 51.9037 67.7883L51.7461 67.28L52.0594 66.8498L54.1356 63.9997L51.7461 60.7195L51.9037 60.2111C52.4626 58.4079 53.4161 56.7568 54.687 55.3724L55.05 54.9771L59.0653 55.416L60.6956 51.6983L61.2186 51.5805C62.125 51.3764 63.0563 51.2725 64.0002 51.2725ZM64.0002 53.3937C63.3919 53.3937 62.7907 53.4454 62.201 53.5472L60.8944 56.527C60.5897 57.2214 59.8697 57.6378 59.1159 57.5554L55.9027 57.2041C55.1265 58.1384 54.5146 59.1999 54.0968 60.3439L56.0154 62.9777C56.4591 63.5868 56.4591 64.4126 56.0154 65.0219L54.0968 67.6556C54.5146 68.7995 55.1265 69.8611 55.9027 70.7953L59.1159 70.4441C59.8697 70.3617 60.5898 70.778 60.8944 71.4726L62.201 74.4522C62.7907 74.5541 63.3919 74.6058 64.0002 74.6058C64.6083 74.6058 65.2093 74.5541 65.7989 74.4523L67.106 71.4725C67.4106 70.778 68.1307 70.3617 68.8845 70.4441L72.0977 70.7953C72.8738 69.8612 73.4856 68.7998 73.9034 67.6561L71.985 65.0218C71.5413 64.4126 71.5413 63.5868 71.9849 62.9777L73.9034 60.3434C73.4856 59.1996 72.8738 58.1382 72.0977 57.2041L68.8845 57.5554C68.1307 57.6378 67.4106 57.2214 67.106 56.527L65.7989 53.5471C65.2093 53.4453 64.6083 53.3937 64.0002 53.3937ZM64.0002 58.6967C66.9189 58.6967 69.283 61.0721 69.283 63.9997C69.283 66.9274 66.9189 69.3028 64.0002 69.3028C61.0814 69.3028 58.7174 66.9274 58.7174 63.9997C58.7174 61.0721 61.0814 58.6967 64.0002 58.6967ZM64.0002 60.8179C62.2552 60.8179 60.8386 62.2413 60.8386 63.9997C60.8386 65.7581 62.2552 67.1816 64.0002 67.1816C65.7452 67.1816 67.1618 65.7581 67.1618 63.9997C67.1618 62.2413 65.7452 60.8179 64.0002 60.8179Z" fill="#165DFF"/>
</svg>
