<svg width="128" height="128" viewBox="0 0 128 128" fill="none" xmlns="http://www.w3.org/2000/svg">
<g clip-path="url(#clip0)">
<rect x="25" y="45" width="113" height="38" rx="1" fill="#E8F3FF"/>
<path fill-rule="evenodd" clip-rule="evenodd" d="M43.5003 56.5C43.7304 56.5 43.917 56.6865 43.917 56.9167V57.75H48.0837V56.9167C48.0837 56.6865 48.2702 56.5 48.5003 56.5H49.3337C49.5638 56.5 49.7503 56.6865 49.7503 56.9167V57.75H52.2503C52.7106 57.75 53.0837 58.1438 53.0837 58.6296V70.2037C53.0837 70.6895 52.7106 71.0833 52.2503 71.0833H39.7503C39.2901 71.0833 38.917 70.6895 38.917 70.2037V58.6296C38.917 58.1438 39.2901 57.75 39.7503 57.75H42.2499L42.2503 56.9167C42.2503 56.6865 42.4369 56.5 42.667 56.5H43.5003ZM51.417 64H40.5837V69.4167H51.417V64ZM42.2499 59.4167H40.5837V62.3333H51.417V59.4167H49.7503V60.25C49.7503 60.4801 49.5638 60.6667 49.3337 60.6667H48.5003C48.2702 60.6667 48.0837 60.4801 48.0837 60.25V59.4167H43.917V60.25C43.917 60.4801 43.7304 60.6667 43.5003 60.6667H42.667C42.4369 60.6667 42.2503 60.4801 42.2503 60.25L42.2499 59.4167Z" fill="#165DFF"/>
<rect x="25" y="45" width="113" height="38" rx="1" stroke="#4080FF" stroke-width="2"/>
<path d="M73.7561 68.47V70H65.4401V68.614L69.8141 63.826C70.3781 63.214 70.7861 62.656 71.0381 62.152C71.2901 61.648 71.4161 61.15 71.4161 60.658C71.4161 60.01 71.2301 59.518 70.8581 59.182C70.4861 58.846 69.9521 58.678 69.2561 58.678C68.0681 58.678 66.8921 59.14 65.7281 60.064L65.0801 58.696C65.5841 58.228 66.2201 57.856 66.9881 57.58C67.7561 57.304 68.5301 57.166 69.3101 57.166C70.5221 57.166 71.4821 57.472 72.1901 58.084C72.8981 58.684 73.2521 59.5 73.2521 60.532C73.2521 61.264 73.0901 61.96 72.7661 62.62C72.4541 63.28 71.9261 64.018 71.1821 64.834L67.7801 68.47H73.7561Z" fill="#165DFF"/>
<path d="M80.193 70.144C78.717 70.144 77.589 69.592 76.809 68.488C76.041 67.384 75.657 65.776 75.657 63.664C75.657 61.552 76.041 59.944 76.809 58.84C77.589 57.724 78.717 57.166 80.193 57.166C81.669 57.166 82.791 57.718 83.559 58.822C84.339 59.926 84.729 61.534 84.729 63.646C84.729 65.77 84.339 67.384 83.559 68.488C82.791 69.592 81.669 70.144 80.193 70.144ZM80.193 68.65C81.117 68.65 81.795 68.248 82.227 67.444C82.659 66.64 82.875 65.374 82.875 63.646C82.875 61.93 82.659 60.676 82.227 59.884C81.795 59.08 81.117 58.678 80.193 58.678C79.269 58.678 78.591 59.08 78.159 59.884C77.727 60.676 77.511 61.93 77.511 63.646C77.511 65.362 77.727 66.628 78.159 67.444C78.591 68.248 79.269 68.65 80.193 68.65Z" fill="#165DFF"/>
<path d="M95.342 68.47V70H87.026V68.614L91.4 63.826C91.964 63.214 92.372 62.656 92.624 62.152C92.876 61.648 93.002 61.15 93.002 60.658C93.002 60.01 92.816 59.518 92.444 59.182C92.072 58.846 91.538 58.678 90.842 58.678C89.654 58.678 88.478 59.14 87.314 60.064L86.666 58.696C87.17 58.228 87.806 57.856 88.574 57.58C89.342 57.304 90.116 57.166 90.896 57.166C92.108 57.166 93.068 57.472 93.776 58.084C94.484 58.684 94.838 59.5 94.838 60.532C94.838 61.264 94.676 61.96 94.352 62.62C94.04 63.28 93.512 64.018 92.768 64.834L89.366 68.47H95.342Z" fill="#165DFF"/>
<path d="M101.779 70.144C100.303 70.144 99.175 69.592 98.395 68.488C97.627 67.384 97.243 65.776 97.243 63.664C97.243 61.552 97.627 59.944 98.395 58.84C99.175 57.724 100.303 57.166 101.779 57.166C103.255 57.166 104.377 57.718 105.145 58.822C105.925 59.926 106.315 61.534 106.315 63.646C106.315 65.77 105.925 67.384 105.145 68.488C104.377 69.592 103.255 70.144 101.779 70.144ZM101.779 68.65C102.703 68.65 103.381 68.248 103.813 67.444C104.245 66.64 104.461 65.374 104.461 63.646C104.461 61.93 104.245 60.676 103.813 59.884C103.381 59.08 102.703 58.678 101.779 58.678C100.855 58.678 100.177 59.08 99.745 59.884C99.313 60.676 99.097 61.93 99.097 63.646C99.097 65.362 99.313 66.628 99.745 67.444C100.177 68.248 100.855 68.65 101.779 68.65Z" fill="#165DFF"/>
<path d="M108.432 64.474H113.634V65.932H108.432V64.474Z" fill="#165DFF"/>
<path d="M124.519 68.47V70H117.103V68.47H119.875V59.524L117.661 60.874L116.869 59.488L120.397 57.31H121.729V68.47H124.519Z" fill="#165DFF"/>
<path d="M135.312 68.47V70H127.896V68.47H130.668V59.524L128.454 60.874L127.662 59.488L131.19 57.31H132.522V68.47H135.312Z" fill="#165DFF"/>
</g>
<defs>
<clipPath id="clip0">
<rect width="128" height="128" fill="white"/>
</clipPath>
</defs>
</svg>
