<svg width="128" height="128" viewBox="0 0 128 128" fill="none" xmlns="http://www.w3.org/2000/svg">
<g clip-path="url(#clip0)">
<rect x="25" y="45" width="113" height="38" rx="1" fill="#1D1D20"/>
<path fill-rule="evenodd" clip-rule="evenodd" d="M43.5003 56.5C43.7304 56.5 43.917 56.6865 43.917 56.9167V57.75H48.0837V56.9167C48.0837 56.6865 48.2702 56.5 48.5003 56.5H49.3337C49.5638 56.5 49.7503 56.6865 49.7503 56.9167V57.75H52.2503C52.7106 57.75 53.0837 58.1438 53.0837 58.6296V70.2037C53.0837 70.6895 52.7106 71.0833 52.2503 71.0833H39.7503C39.2901 71.0833 38.917 70.6895 38.917 70.2037V58.6296C38.917 58.1438 39.2901 57.75 39.7503 57.75H42.2499L42.2503 56.9167C42.2503 56.6865 42.4369 56.5 42.667 56.5H43.5003ZM51.417 64H40.5837V69.4167H51.417V64ZM42.2499 59.4167H40.5837V62.3333H51.417V59.4167H49.7503V60.25C49.7503 60.4801 49.5638 60.6667 49.3337 60.6667H48.5003C48.2702 60.6667 48.0837 60.4801 48.0837 60.25V59.4167H43.917V60.25C43.917 60.4801 43.7304 60.6667 43.5003 60.6667H42.667C42.4369 60.6667 42.2503 60.4801 42.2503 60.25L42.2499 59.4167Z" fill="#4C87FF"/>
<rect x="25" y="45" width="113" height="38" rx="1" stroke="#3469E1" stroke-width="2"/>
<path d="M73.756 68.47V70H65.44V68.614L69.814 63.826C70.378 63.214 70.786 62.656 71.038 62.152C71.29 61.648 71.416 61.15 71.416 60.658C71.416 60.01 71.23 59.518 70.858 59.182C70.486 58.846 69.952 58.678 69.256 58.678C68.068 58.678 66.892 59.14 65.728 60.064L65.08 58.696C65.584 58.228 66.22 57.856 66.988 57.58C67.756 57.304 68.53 57.166 69.31 57.166C70.522 57.166 71.482 57.472 72.19 58.084C72.898 58.684 73.252 59.5 73.252 60.532C73.252 61.264 73.09 61.96 72.766 62.62C72.454 63.28 71.926 64.018 71.182 64.834L67.78 68.47H73.756ZM80.193 70.144C78.717 70.144 77.589 69.592 76.809 68.488C76.041 67.384 75.657 65.776 75.657 63.664C75.657 61.552 76.041 59.944 76.809 58.84C77.589 57.724 78.717 57.166 80.193 57.166C81.669 57.166 82.791 57.718 83.559 58.822C84.339 59.926 84.729 61.534 84.729 63.646C84.729 65.77 84.339 67.384 83.559 68.488C82.791 69.592 81.669 70.144 80.193 70.144ZM80.193 68.65C81.117 68.65 81.795 68.248 82.227 67.444C82.659 66.64 82.875 65.374 82.875 63.646C82.875 61.93 82.659 60.676 82.227 59.884C81.795 59.08 81.117 58.678 80.193 58.678C79.269 58.678 78.591 59.08 78.159 59.884C77.727 60.676 77.511 61.93 77.511 63.646C77.511 65.362 77.727 66.628 78.159 67.444C78.591 68.248 79.269 68.65 80.193 68.65ZM95.3419 68.47V70H87.0259V68.614L91.3999 63.826C91.9639 63.214 92.3719 62.656 92.6239 62.152C92.8759 61.648 93.0019 61.15 93.0019 60.658C93.0019 60.01 92.8159 59.518 92.4439 59.182C92.0719 58.846 91.5379 58.678 90.8419 58.678C89.6539 58.678 88.4779 59.14 87.3139 60.064L86.6659 58.696C87.1699 58.228 87.8059 57.856 88.5739 57.58C89.3419 57.304 90.1159 57.166 90.8959 57.166C92.1079 57.166 93.0679 57.472 93.7759 58.084C94.4839 58.684 94.8379 59.5 94.8379 60.532C94.8379 61.264 94.6759 61.96 94.3519 62.62C94.0399 63.28 93.5119 64.018 92.7679 64.834L89.3659 68.47H95.3419ZM101.779 70.144C100.303 70.144 99.1749 69.592 98.3949 68.488C97.6269 67.384 97.2429 65.776 97.2429 63.664C97.2429 61.552 97.6269 59.944 98.3949 58.84C99.1749 57.724 100.303 57.166 101.779 57.166C103.255 57.166 104.377 57.718 105.145 58.822C105.925 59.926 106.315 61.534 106.315 63.646C106.315 65.77 105.925 67.384 105.145 68.488C104.377 69.592 103.255 70.144 101.779 70.144ZM101.779 68.65C102.703 68.65 103.381 68.248 103.813 67.444C104.245 66.64 104.461 65.374 104.461 63.646C104.461 61.93 104.245 60.676 103.813 59.884C103.381 59.08 102.703 58.678 101.779 58.678C100.855 58.678 100.177 59.08 99.7449 59.884C99.3129 60.676 99.0969 61.93 99.0969 63.646C99.0969 65.362 99.3129 66.628 99.7449 67.444C100.177 68.248 100.855 68.65 101.779 68.65ZM108.432 64.474H113.634V65.932H108.432V64.474ZM124.519 68.47V70H117.103V68.47H119.875V59.524L117.661 60.874L116.869 59.488L120.397 57.31H121.729V68.47H124.519ZM135.312 68.47V70H127.896V68.47H130.668V59.524L128.454 60.874L127.662 59.488L131.19 57.31H132.522V68.47H135.312Z" fill="#4C87FF"/>
</g>
<defs>
<clipPath id="clip0">
<rect width="128" height="128" fill="white"/>
</clipPath>
</defs>
</svg>
