<svg width="128" height="128" viewBox="0 0 128 128" fill="none" xmlns="http://www.w3.org/2000/svg">
<rect x="20" y="47" width="16" height="2" rx="1" fill="#BEDAFF"/>
<rect x="20" y="55" width="20" height="2" rx="1" fill="#6AA1FF"/>
<rect x="20" y="71" width="16" height="2" rx="1" fill="#BEDAFF"/>
<rect x="20" y="79" width="24" height="2" rx="1" fill="#6AA1FF"/>
<rect x="52" y="47" width="16" height="2" rx="1" fill="#BEDAFF"/>
<rect x="52" y="55" width="21" height="2" rx="1" fill="#6AA1FF"/>
<rect x="52" y="71" width="16" height="2" rx="1" fill="#BEDAFF"/>
<rect x="52" y="79" width="21" height="2" rx="1" fill="#6AA1FF"/>
<rect x="84" y="47" width="16" height="2" rx="1" fill="#BEDAFF"/>
<rect x="84" y="55" width="21" height="2" rx="1" fill="#6AA1FF"/>
<rect x="84" y="71" width="24" height="2" rx="1" fill="#BEDAFF"/>
<rect x="84" y="79" width="16" height="2" rx="1" fill="#6AA1FF"/>
</svg>
