<svg width="128" height="128" viewBox="0 0 128 128" fill="none" xmlns="http://www.w3.org/2000/svg">
<g clip-path="url(#clip0)">
<rect x="25" y="45" width="113" height="38" rx="1" fill="#1D1D20"/>
<path d="M39.388 69V60.614H36.168V59.13H44.414V60.614H41.194V69H39.388ZM50.4082 65.892H45.7462C45.8022 66.5267 45.9935 66.998 46.3202 67.306C46.6469 67.614 47.1135 67.768 47.7202 67.768C48.4762 67.768 49.1669 67.5253 49.7922 67.04L50.2962 68.244C49.9789 68.5053 49.5775 68.7153 49.0922 68.874C48.6162 69.0327 48.1355 69.112 47.6502 69.112C46.5302 69.112 45.6435 68.7947 44.9902 68.16C44.3462 67.5253 44.0242 66.6573 44.0242 65.556C44.0242 64.856 44.1642 64.2353 44.4442 63.694C44.7242 63.1527 45.1162 62.7327 45.6202 62.434C46.1335 62.1353 46.7122 61.986 47.3562 61.986C48.2989 61.986 49.0409 62.2893 49.5822 62.896C50.1329 63.5027 50.4082 64.338 50.4082 65.402V65.892ZM47.3982 63.218C46.9315 63.218 46.5535 63.3673 46.2642 63.666C45.9842 63.9647 45.8115 64.394 45.7462 64.954H48.9102C48.8915 64.3847 48.7515 63.9553 48.4902 63.666C48.2289 63.3673 47.8649 63.218 47.3982 63.218ZM55.6207 65.472L58.5047 69H56.4327L54.6127 66.718L52.8067 69H50.7347L53.6047 65.472L50.8887 62.154H52.9747L54.6127 64.24L56.2507 62.154H58.3367L55.6207 65.472ZM62.7498 67.796C62.9552 67.796 63.1698 67.782 63.3938 67.754L63.3098 69.056C63.0298 69.084 62.7732 69.098 62.5398 69.098C61.5785 69.098 60.8692 68.8787 60.4118 68.44C59.9545 67.992 59.7258 67.3293 59.7258 66.452V63.47H58.4098V62.154H59.7258V60.11H61.4758V62.154H63.2818V63.47H61.4758V66.424C61.4758 67.3387 61.9005 67.796 62.7498 67.796Z" fill="#3469E1"/>
<rect x="25" y="45" width="113" height="38" rx="1" stroke="#3469E1" stroke-width="2"/>
<path d="M68 56V72" stroke="#3469E1"/>
</g>
<defs>
<clipPath id="clip0">
<rect width="128" height="128" fill="white"/>
</clipPath>
</defs>
</svg>
