<svg width="128" height="128" viewBox="0 0 128 128" fill="none" xmlns="http://www.w3.org/2000/svg">
<g clip-path="url(#clip0)">
<rect x="25" y="45" width="113" height="38.01" rx="1" fill="#E8F3FF"/>
<path d="M40.298 69.01V67.134H36V65.818L40.606 59.14H42.09V65.65H43.476V67.134H42.09V69.01H40.298ZM40.298 65.65V61.884L37.722 65.65H40.298Z" fill="#4080FF"/>
<path d="M44.9265 69.01V67.68L48.1185 64.278C48.5479 63.8113 48.8559 63.4007 49.0425 63.046C49.2292 62.682 49.3225 62.3133 49.3225 61.94C49.3225 60.988 48.7485 60.512 47.6005 60.512C46.7045 60.512 45.8785 60.848 45.1225 61.52L44.5205 60.176C44.9125 59.8213 45.4025 59.5367 45.9905 59.322C46.5785 59.1073 47.1899 59 47.8245 59C48.8792 59 49.6865 59.238 50.2465 59.714C50.8159 60.19 51.1005 60.8713 51.1005 61.758C51.1005 62.3553 50.9559 62.9293 50.6665 63.48C50.3865 64.0307 49.9432 64.6233 49.3365 65.258L47.1665 67.526H51.4785V69.01H44.9265Z" fill="#4080FF"/>
<rect x="25" y="45" width="113" height="38.01" rx="1" stroke="#4080FF" stroke-width="2"/>
<path d="M56 56V72" stroke="#4080FF"/>
</g>
<defs>
<clipPath id="clip0">
<rect width="128" height="128" fill="white"/>
</clipPath>
</defs>
</svg>
