<svg width="128" height="128" viewBox="0 0 128 128" fill="none" xmlns="http://www.w3.org/2000/svg">
<g clip-path="url(#clip0)">
<rect x="25" y="45" width="113" height="38" rx="1" fill="#1D1D20"/>
<path d="M44.022 65.668V67.068H42.636V69H40.872V67.068H36.588V65.738L41.18 59.13H42.636V65.668H44.022ZM38.268 65.668H40.872V61.902L38.268 65.668ZM52.0525 67.544V69H45.4165V67.67L48.7765 64.058C49.1685 63.6287 49.4532 63.2367 49.6305 62.882C49.8172 62.518 49.9105 62.1587 49.9105 61.804C49.9105 61.356 49.7799 61.02 49.5185 60.796C49.2665 60.5627 48.8932 60.446 48.3985 60.446C47.5119 60.446 46.6205 60.7867 45.7245 61.468L45.1225 60.152C45.5145 59.8067 46.0139 59.5313 46.6205 59.326C47.2365 59.1113 47.8525 59.004 48.4685 59.004C49.4579 59.004 50.2419 59.2467 50.8205 59.732C51.3992 60.2173 51.6885 60.8707 51.6885 61.692C51.6885 62.2613 51.5672 62.798 51.3245 63.302C51.0819 63.7967 50.6712 64.352 50.0925 64.968L47.6705 67.544H52.0525Z" fill="#3469E1"/>
<rect x="25" y="45" width="113" height="38" rx="1" stroke="#3469E1" stroke-width="2"/>
<path d="M56 56V72" stroke="#3469E1"/>
</g>
<defs>
<clipPath id="clip0">
<rect width="128" height="128" fill="white"/>
</clipPath>
</defs>
</svg>
