<svg width="128" height="128" viewBox="0 0 128 128" fill="none" xmlns="http://www.w3.org/2000/svg">
<g clip-path="url(#clip0)">
<rect x="25" y="45" width="113" height="37.982" rx="1" fill="#E8F3FF"/>
<path d="M39.22 68.87V60.484H36V59H44.246V60.484H41.026V68.87H39.22Z" fill="#4080FF"/>
<path d="M50.2402 65.762H45.5782C45.6342 66.3967 45.8255 66.868 46.1522 67.176C46.4789 67.484 46.9455 67.638 47.5522 67.638C48.3082 67.638 48.9989 67.3953 49.6242 66.91L50.1282 68.114C49.8109 68.3753 49.4095 68.5853 48.9242 68.744C48.4482 68.9027 47.9675 68.982 47.4822 68.982C46.3622 68.982 45.4755 68.6647 44.8222 68.03C44.1782 67.3953 43.8562 66.5273 43.8562 65.426C43.8562 64.726 43.9962 64.1053 44.2762 63.564C44.5562 63.0227 44.9482 62.6027 45.4522 62.304C45.9655 62.0053 46.5442 61.856 47.1882 61.856C48.1309 61.856 48.8729 62.1593 49.4142 62.766C49.9649 63.3727 50.2402 64.208 50.2402 65.272V65.762ZM47.2302 63.088C46.7635 63.088 46.3855 63.2373 46.0962 63.536C45.8162 63.8347 45.6435 64.264 45.5782 64.824H48.7422C48.7235 64.2547 48.5835 63.8253 48.3222 63.536C48.0609 63.2373 47.6969 63.088 47.2302 63.088Z" fill="#4080FF"/>
<path d="M55.4527 65.342L58.3367 68.87H56.2647L54.4447 66.588L52.6387 68.87H50.5667L53.4367 65.342L50.7207 62.024H52.8067L54.4447 64.11L56.0827 62.024H58.1687L55.4527 65.342Z" fill="#4080FF"/>
<path d="M62.5818 67.666C62.7872 67.666 63.0018 67.652 63.2258 67.624L63.1418 68.926C62.8618 68.954 62.6052 68.968 62.3718 68.968C61.4105 68.968 60.7012 68.7487 60.2438 68.31C59.7865 67.862 59.5578 67.1993 59.5578 66.322V63.34H58.2418V62.024H59.5578V59.98H61.3078V62.024H63.1138V63.34H61.3078V66.294C61.3078 67.2087 61.7325 67.666 62.5818 67.666Z" fill="#4080FF"/>
<rect x="25" y="45" width="113" height="37.982" rx="1" stroke="#4080FF" stroke-width="2"/>
<path d="M68 56V72" stroke="#4080FF"/>
</g>
<defs>
<clipPath id="clip0">
<rect width="128" height="128" fill="white"/>
</clipPath>
</defs>
</svg>
