<svg width="128" height="128" viewBox="0 0 128 128" fill="none" xmlns="http://www.w3.org/2000/svg">
<path d="M55.0781 68.9999V59.1299H56.8701V67.4739H61.6021V68.9999H55.0781Z" fill="#4080FF"/>
<path d="M64.3395 68.9999V59.1299H66.1315V68.9999H64.3395Z" fill="#4080FF"/>
<path d="M69.677 68.9999V59.1299H71.021L76.327 66.0179V59.1299H77.993V68.9999H76.663L71.343 62.0839V68.9999H69.677Z" fill="#4080FF"/>
<path d="M81.5496 68.9999V59.1299H83.3416V63.4979H83.3696L87.7236 59.1299H89.9076L85.1056 63.8759L90.1456 68.9999H87.9336L83.3696 64.4359H83.3416V68.9999H81.5496Z" fill="#4080FF"/>
<path d="M44.9744 61.7454L42.2304 64.4894C41.7176 65.0022 41.7176 65.8336 42.2304 66.3464C42.7432 66.8592 43.5746 66.8592 44.0874 66.3464L47.2086 63.2252C48.0608 62.373 48.0608 60.9913 47.2086 60.1391C46.3564 59.287 44.9747 59.287 44.1225 60.1391L40.8778 63.3839C39.7074 64.5543 39.7074 66.4518 40.8778 67.6222C42.0482 68.7926 43.9457 68.7926 45.1161 67.6222L47.4726 65.2658C47.646 65.0924 47.646 64.8112 47.4726 64.6378C47.2992 64.4645 47.0181 64.4645 46.8447 64.6378L44.4882 66.9943C43.6646 67.8179 42.3293 67.8179 41.5057 66.9943C40.6821 66.1707 40.6821 64.8354 41.5057 64.0118L44.7504 60.767C45.2558 60.2616 46.0753 60.2616 46.5807 60.767C47.0861 61.2725 47.0861 62.0919 46.5807 62.5973L43.4595 65.7185C43.2935 65.8845 43.0243 65.8845 42.8583 65.7185C42.6923 65.5525 42.6923 65.2833 42.8583 65.1173L45.6023 62.3733C45.7757 62.1999 45.7757 61.9188 45.6023 61.7454C45.4289 61.572 45.1478 61.572 44.9744 61.7454Z" fill="#4080FF"/>
</svg>
