<svg width="128" height="128" viewBox="0 0 128 128" fill="none" xmlns="http://www.w3.org/2000/svg">
<path d="M55.064 69V59.13H56.87V67.516H61.476V69H55.064ZM64.2296 69V59.13H66.0356V69H64.2296ZM76.2031 59.13H77.8971V69H76.5391L71.2471 62.112V69H69.5671V59.13H70.9111L76.2031 66.004V59.13ZM90.0081 69H87.8101L83.2321 64.408V69H81.4261V59.13H83.2321V63.54L87.6281 59.13H89.7841L85.0101 63.876L90.0081 69Z" fill="#3469E1"/>
<path d="M45.2868 62.0578L42.5428 64.8018C42.2026 65.1421 42.2026 65.6937 42.5428 66.034C42.8831 66.3743 43.4347 66.3743 43.775 66.034L46.8962 62.9128C47.5758 62.2332 47.5758 61.1312 46.8962 60.4516C46.2165 59.7719 45.1146 59.7719 44.4349 60.4516L41.1902 63.6963C40.1923 64.6941 40.1923 66.312 41.1902 67.3098C42.188 68.3077 43.8059 68.3077 44.8037 67.3098L47.1602 64.9533C47.161 64.9526 47.1608 64.9525 47.1607 64.9528C47.1607 64.9529 47.1608 64.9525 47.1608 64.9518C47.1608 64.9511 47.1607 64.9507 47.1607 64.9508C47.1608 64.9511 47.161 64.951 47.1602 64.9503C47.1594 64.9495 47.1593 64.9496 47.1597 64.9497C47.1597 64.9498 47.1596 64.9497 47.1594 64.9497C47.1593 64.9496 47.159 64.9496 47.1586 64.9496C47.1583 64.9496 47.158 64.9496 47.1578 64.9497C47.1578 64.9497 47.1577 64.9497 47.1577 64.9497C47.1576 64.9498 47.1574 64.95 47.1571 64.9503L44.8006 67.3067C43.8045 68.3029 42.1894 68.3029 41.1933 67.3067C40.1971 66.3106 40.1971 64.6955 41.1933 63.6994L44.438 60.4546C45.116 59.7767 46.2151 59.7767 46.8931 60.4546C47.571 61.1326 47.571 62.2318 46.8931 62.9097L43.7719 66.0309C43.4334 66.3695 42.8845 66.3695 42.5459 66.0309C42.2074 65.6924 42.2074 65.1435 42.5459 64.8049L45.2899 62.0609C45.2907 62.0601 45.2906 62.0601 45.2904 62.0604L45.2868 62.0578ZM45.2868 62.0578C45.2871 62.0575 45.2873 62.0574 45.2874 62.0573L45.2868 62.0578Z" fill="#3469E1" stroke="#3469E1" stroke-width="0.883615"/>
</svg>
