<svg width="128" height="128" viewBox="0 0 128 128" fill="none" xmlns="http://www.w3.org/2000/svg">
<path d="M30.568 75.864C28.408 75.864 26.52 75.432 24.904 74.568C23.288 73.72 22.048 72.528 21.184 70.992C20.32 69.456 19.888 67.704 19.888 65.736C19.888 63.464 20.344 61.52 21.256 59.904C22.184 58.272 23.456 57.032 25.072 56.184C26.704 55.336 28.56 54.912 30.64 54.912C32.752 54.912 34.568 55.296 36.088 56.064C37.608 56.816 38.768 57.864 39.568 59.208C40.368 60.552 40.768 62.104 40.768 63.864C40.768 65.192 40.56 66.36 40.144 67.368C39.744 68.36 39.16 69.128 38.392 69.672C37.64 70.216 36.752 70.488 35.728 70.488C34.896 70.488 34.2 70.312 33.64 69.96C33.096 69.592 32.744 69.112 32.584 68.52H32.536C32.088 69.144 31.608 69.632 31.096 69.984C30.6 70.32 29.944 70.488 29.128 70.488C27.88 70.488 26.92 70.088 26.248 69.288C25.592 68.472 25.264 67.408 25.264 66.096C25.264 64.944 25.48 63.904 25.912 62.976C26.344 62.048 26.936 61.32 27.688 60.792C28.456 60.264 29.32 60 30.28 60C30.904 60 31.448 60.12 31.912 60.36C32.376 60.584 32.728 60.936 32.968 61.416H33.04L33.28 60.192H36.256L35.272 65.52C35.192 66.048 35.152 66.472 35.152 66.792C35.152 67.24 35.232 67.576 35.392 67.8C35.568 68.024 35.856 68.136 36.256 68.136C36.512 68.136 36.768 67.992 37.024 67.704C37.296 67.416 37.52 66.952 37.696 66.312C37.888 65.672 37.984 64.856 37.984 63.864C37.984 61.784 37.352 60.184 36.088 59.064C34.84 57.944 33.024 57.384 30.64 57.384C29.136 57.384 27.792 57.712 26.608 58.368C25.44 59.008 24.528 59.96 23.872 61.224C23.216 62.472 22.888 63.976 22.888 65.736C22.888 67.272 23.192 68.616 23.8 69.768C24.408 70.904 25.288 71.784 26.44 72.408C27.608 73.048 28.984 73.368 30.568 73.368C31.672 73.368 32.616 73.248 33.4 73.008C34.2 72.768 34.768 72.432 35.104 72H38.968C38.36 73.152 37.328 74.08 35.872 74.784C34.416 75.504 32.648 75.864 30.568 75.864ZM29.8 68.136C30.648 68.136 31.304 67.76 31.768 67.008C32.248 66.24 32.488 65.352 32.488 64.344C32.488 63.688 32.344 63.192 32.056 62.856C31.768 62.52 31.368 62.352 30.856 62.352C30.056 62.352 29.432 62.736 28.984 63.504C28.536 64.272 28.312 65.144 28.312 66.12C28.312 66.712 28.44 67.2 28.696 67.584C28.952 67.952 29.32 68.136 29.8 68.136Z" fill="#3469E1"/>
<rect x="46" y="52" width="64" height="24" rx="2" fill="#303857"/>
</svg>
