<svg width="128" height="128" viewBox="0 0 128 128" fill="none" xmlns="http://www.w3.org/2000/svg">
<mask id="path-1-inside-1" fill="white">
<path d="M16 51C16 48.7909 17.7909 47 20 47H108C110.209 47 112 48.7909 112 51V78C112 80.2091 110.209 82 108 82H20C17.7909 82 16 80.2091 16 78V51Z"/>
</mask>
<path d="M16 51C16 48.7909 17.7909 47 20 47H108C110.209 47 112 48.7909 112 51V78C112 80.2091 110.209 82 108 82H20C17.7909 82 16 80.2091 16 78V51Z" fill="#1D1D20"/>
<path d="M20 49H108V45H20V49ZM110 51V78H114V51H110ZM108 80H20V84H108V80ZM18 78V51H14V78H18ZM20 80C18.8954 80 18 79.1046 18 78H14C14 81.3137 16.6863 84 20 84V80ZM110 78C110 79.1046 109.105 80 108 80V84C111.314 84 114 81.3137 114 78H110ZM108 49C109.105 49 110 49.8954 110 51H114C114 47.6863 111.314 45 108 45V49ZM20 45C16.6863 45 14 47.6863 14 51H18C18 49.8954 18.8954 49 20 49V45Z" fill="#3469E1" mask="url(#path-1-inside-1)"/>
<rect x="24" y="58" width="8" height="8" rx="4" fill="#3469E1"/>
<rect x="36" y="58" width="36" height="4" rx="2" fill="#303857"/>
<rect x="36" y="67" width="69" height="4" rx="2" fill="#303857"/>
</svg>
