<svg width="128" height="128" viewBox="0 0 128 128" fill="none" xmlns="http://www.w3.org/2000/svg">
<g clip-path="url(#clip0)">
<g filter="url(#filter0_d)">
<rect width="115" height="40" transform="translate(24 44)" fill="#1D1D20"/>
<path d="M43.896 59.13H45.66V69H43.896V64.716H38.842V69H37.064V59.13H38.842V63.26H43.896V59.13ZM49.1827 69V59.13H55.7908V60.558H50.9467V63.274H55.5107V64.688H50.9467V67.572H55.7908V69H49.1827ZM66.2088 69L65.2148 66.69H60.4128L59.4188 69H57.5988L62.0648 59.13H63.5348L68.0008 69H66.2088ZM61.0008 65.29H64.6128L62.8068 61.09L61.0008 65.29ZM70.4535 59.13H74.0935C75.7081 59.13 76.9588 59.564 77.8455 60.432C78.7415 61.2907 79.1895 62.4993 79.1895 64.058C79.1895 65.6167 78.7415 66.83 77.8455 67.698C76.9588 68.566 75.7081 69 74.0935 69H70.4535V59.13ZM73.9815 67.53C76.2495 67.53 77.3835 66.3727 77.3835 64.058C77.3835 61.7527 76.2495 60.6 73.9815 60.6H72.2595V67.53H73.9815ZM82.4081 69V59.13H89.0161V60.558H84.1721V63.274H88.7361V64.688H84.1721V67.572H89.0161V69H82.4081ZM100.326 69H98.3663L96.6723 65.85C96.5136 65.5513 96.3176 65.3413 96.0843 65.22C95.8509 65.0987 95.5569 65.038 95.2023 65.038H93.8303V69H92.0523V59.13H96.4203C97.5403 59.13 98.3896 59.382 98.9683 59.886C99.5563 60.3807 99.8503 61.0993 99.8503 62.042C99.8503 62.798 99.6356 63.4233 99.2063 63.918C98.7863 64.4033 98.1889 64.7207 97.4143 64.87C97.9369 65.01 98.3569 65.3787 98.6743 65.976L100.326 69ZM96.1683 63.652C96.8496 63.652 97.3489 63.526 97.6663 63.274C97.9836 63.0127 98.1423 62.616 98.1423 62.084C98.1423 61.5427 97.9836 61.1507 97.6663 60.908C97.3489 60.656 96.8496 60.53 96.1683 60.53H93.8163V63.652H96.1683Z" fill="#3469E1"/>
</g>
</g>
<defs>
<filter id="filter0_d" x="24" y="44" width="115" height="42" filterUnits="userSpaceOnUse" color-interpolation-filters="sRGB">
<feFlood flood-opacity="0" result="BackgroundImageFix"/>
<feColorMatrix in="SourceAlpha" type="matrix" values="0 0 0 0 0 0 0 0 0 0 0 0 0 0 0 0 0 0 127 0"/>
<feOffset dy="2"/>
<feColorMatrix type="matrix" values="0 0 0 0 0.0862745 0 0 0 0 0.364706 0 0 0 0 1 0 0 0 1 0"/>
<feBlend mode="normal" in2="BackgroundImageFix" result="effect1_dropShadow"/>
<feBlend mode="normal" in="SourceGraphic" in2="effect1_dropShadow" result="shape"/>
</filter>
<clipPath id="clip0">
<rect width="128" height="128" fill="white"/>
</clipPath>
</defs>
</svg>
