<svg width="128" height="128" viewBox="0 0 128 128" fill="none" xmlns="http://www.w3.org/2000/svg">
<g clip-path="url(#clip0)">
<g filter="url(#filter0_d)">
<rect width="115" height="40" transform="translate(24 44)" fill="#E8F3FF"/>
<path d="M37.078 69V59.13H38.87V63.246H43.952V59.13H45.744V69H43.952V64.744H38.87V69H37.078ZM49.3061 69V59.13H55.8721V60.558H51.0281V63.274H55.5641V64.702H51.0281V67.572H55.8721V69H49.3061ZM57.8179 69L62.2839 59.13H63.7539L68.2199 69H66.3999L65.4199 66.718H60.6039L59.6379 69H57.8179ZM62.9979 61.076L61.2199 65.29H64.8039L63.0259 61.076H62.9979ZM70.6999 69V59.13H74.3679C76.0199 59.13 77.2939 59.5547 78.1899 60.404C79.0952 61.2533 79.5479 62.4713 79.5479 64.058C79.5479 65.6353 79.0952 66.8533 78.1899 67.712C77.2939 68.5707 76.0199 69 74.3679 69H70.6999ZM72.4919 67.516H74.2559C76.5332 67.516 77.6719 66.3633 77.6719 64.058C77.6719 61.762 76.5332 60.614 74.2559 60.614H72.4919V67.516ZM82.7639 69V59.13H89.3299V60.558H84.4859V63.274H89.0219V64.702H84.4859V67.572H89.3299V69H82.7639ZM92.5175 69V59.13H96.8015C97.8841 59.13 98.7195 59.3913 99.3075 59.914C99.8955 60.4273 100.189 61.1507 100.189 62.084C100.189 62.8213 99.9981 63.4327 99.6155 63.918C99.2328 64.394 98.6821 64.716 97.9635 64.884C98.4395 65.0333 98.8315 65.3927 99.1395 65.962L100.791 69H98.8175L97.1095 65.85C96.9415 65.542 96.7408 65.332 96.5075 65.22C96.2835 65.108 95.9941 65.052 95.6395 65.052H94.3095V69H92.5175ZM94.3095 63.722H96.4935C97.8001 63.722 98.4535 63.19 98.4535 62.126C98.4535 61.0713 97.8001 60.544 96.4935 60.544H94.3095V63.722Z" fill="#4080FF"/>
</g>
</g>
<defs>
<filter id="filter0_d" x="24" y="44" width="115" height="42" filterUnits="userSpaceOnUse" color-interpolation-filters="sRGB">
<feFlood flood-opacity="0" result="BackgroundImageFix"/>
<feColorMatrix in="SourceAlpha" type="matrix" values="0 0 0 0 0 0 0 0 0 0 0 0 0 0 0 0 0 0 127 0"/>
<feOffset dy="2"/>
<feColorMatrix type="matrix" values="0 0 0 0 0.0862745 0 0 0 0 0.364706 0 0 0 0 1 0 0 0 1 0"/>
<feBlend mode="normal" in2="BackgroundImageFix" result="effect1_dropShadow"/>
<feBlend mode="normal" in="SourceGraphic" in2="effect1_dropShadow" result="shape"/>
</filter>
<clipPath id="clip0">
<rect width="128" height="128" fill="white"/>
</clipPath>
</defs>
</svg>
