<svg width="128" height="128" viewBox="0 0 128 128" fill="none" xmlns="http://www.w3.org/2000/svg">
<rect x="47" y="47" width="34" height="34" rx="1" fill="#E8F3FF"/>
<path d="M61.526 69V67.516H63.752V61.174L62.03 62.21L61.33 60.894L64.27 59.13H65.544V67.516H67.63V69H61.526Z" fill="#4080FF"/>
<rect x="47" y="47" width="34" height="34" rx="1" stroke="#4080FF" stroke-width="2"/>
<rect x="86" y="46" width="36" height="36" rx="2" fill="#E8F3FF"/>
<path d="M101.12 69V67.67L104.312 64.268C104.741 63.8013 105.049 63.3907 105.236 63.036C105.423 62.672 105.516 62.3033 105.516 61.93C105.516 60.978 104.942 60.502 103.794 60.502C102.898 60.502 102.072 60.838 101.316 61.51L100.714 60.166C101.106 59.8113 101.596 59.5267 102.184 59.312C102.772 59.0973 103.383 58.99 104.018 58.99C105.073 58.99 105.88 59.228 106.44 59.704C107.009 60.18 107.294 60.8613 107.294 61.748C107.294 62.3453 107.149 62.9193 106.86 63.47C106.58 64.0207 106.137 64.6133 105.53 65.248L103.36 67.516H107.672V69H101.12Z" fill="#4080FF"/>
<rect x="6" y="46" width="36" height="36" rx="2" fill="#E8F3FF"/>
<path opacity="0.01" fill-rule="evenodd" clip-rule="evenodd" d="M15 64C15 59.5817 18.5817 56 23 56V56C27.4183 56 31 59.5817 31 64V64C31 68.4183 27.4183 72 23 72V72C18.5817 72 15 68.4183 15 64V64Z" fill="#E8E9EA"/>
<path d="M20.9907 64.0795C21.0146 64.0099 21.0543 63.9446 21.1099 63.889L24.6454 60.3535C24.8407 60.1582 25.1573 60.1582 25.3525 60.3535L25.7061 60.707C25.9014 60.9023 25.9014 61.2189 25.7061 61.4141L22.7872 64.333L25.6454 67.1912C25.8407 67.3865 25.8407 67.7031 25.6454 67.8983L25.2919 68.2519C25.0966 68.4471 24.78 68.4471 24.5848 68.2519L21.0492 64.7163C20.876 64.5431 20.8565 64.2743 20.9907 64.0795Z" fill="#4080FF"/>
</svg>
