<svg width="128" height="128" viewBox="0 0 128 128" fill="none" xmlns="http://www.w3.org/2000/svg">
<rect x="47" y="47" width="34" height="34" rx="1" fill="#1D1D20"/>
<path d="M65.544 67.544H67.686V69H61.596V67.544H63.738V61.188L62.044 62.21L61.33 60.894L64.256 59.13H65.544V67.544Z" fill="#3469E1"/>
<rect x="47" y="47" width="34" height="34" rx="1" stroke="#3469E1" stroke-width="2"/>
<rect x="86" y="46" width="36" height="36" rx="2" fill="#1D1D20"/>
<path d="M107.658 67.544V69H101.022V67.67L104.382 64.058C104.774 63.6287 105.059 63.2367 105.236 62.882C105.423 62.518 105.516 62.1587 105.516 61.804C105.516 61.356 105.385 61.02 105.124 60.796C104.872 60.5627 104.499 60.446 104.004 60.446C103.117 60.446 102.226 60.7867 101.33 61.468L100.728 60.152C101.12 59.8067 101.619 59.5313 102.226 59.326C102.842 59.1113 103.458 59.004 104.074 59.004C105.063 59.004 105.847 59.2467 106.426 59.732C107.005 60.2173 107.294 60.8707 107.294 61.692C107.294 62.2613 107.173 62.798 106.93 63.302C106.687 63.7967 106.277 64.352 105.698 64.968L103.276 67.544H107.658Z" fill="#3469E1"/>
<path d="M107.658 67.544H108.658V66.544H107.658V67.544ZM107.658 69V70H108.658V69H107.658ZM101.022 69H100.022V70H101.022V69ZM101.022 67.67L100.29 66.9889L100.022 67.2768V67.67H101.022ZM104.382 64.058L105.114 64.7391L105.12 64.7323L104.382 64.058ZM105.236 62.882L104.346 62.4257L104.342 62.4348L105.236 62.882ZM105.124 60.796L104.445 61.5298L104.459 61.5428L104.473 61.5553L105.124 60.796ZM101.33 61.468L100.421 61.884L100.941 63.0205L101.935 62.264L101.33 61.468ZM100.728 60.152L100.067 59.4016L99.5097 59.8926L99.8186 60.568L100.728 60.152ZM102.226 59.326L102.547 60.2733L102.555 60.2703L102.226 59.326ZM106.426 59.732L107.069 58.9658L107.069 58.9658L106.426 59.732ZM106.93 63.302L107.828 63.7424L107.831 63.7358L106.93 63.302ZM105.698 64.968L106.427 65.653L106.427 65.6527L105.698 64.968ZM103.276 67.544L102.547 66.859L100.963 68.544H103.276V67.544ZM106.658 67.544V69H108.658V67.544H106.658ZM107.658 68H101.022V70H107.658V68ZM102.022 69V67.67H100.022V69H102.022ZM101.754 68.3511L105.114 64.7391L103.65 63.3769L100.29 66.9889L101.754 68.3511ZM105.12 64.7323C105.549 64.2634 105.898 63.795 106.13 63.3292L104.342 62.4348C104.22 62.6783 103.999 62.9939 103.644 63.3837L105.12 64.7323ZM106.126 63.3383C106.374 62.8548 106.516 62.3401 106.516 61.804H104.516C104.516 61.9772 104.472 62.1812 104.346 62.4257L106.126 63.3383ZM106.516 61.804C106.516 61.1581 106.32 60.5044 105.775 60.0367L104.473 61.5553C104.475 61.557 104.476 61.5577 104.476 61.5585C104.477 61.5594 104.481 61.565 104.486 61.5784C104.497 61.6066 104.516 61.675 104.516 61.804H106.516ZM105.803 60.0622C105.299 59.5953 104.64 59.446 104.004 59.446V61.446C104.176 61.446 104.288 61.4666 104.357 61.488C104.421 61.5082 104.442 61.5272 104.445 61.5298L105.803 60.0622ZM104.004 59.446C102.846 59.446 101.747 59.8944 100.725 60.672L101.935 62.264C102.705 61.6789 103.389 61.446 104.004 61.446V59.446ZM102.239 61.052L101.637 59.736L99.8186 60.568L100.421 61.884L102.239 61.052ZM101.389 60.9024C101.662 60.6619 102.038 60.4454 102.547 60.2732L101.905 58.3788C101.201 58.6172 100.578 58.9514 100.067 59.4016L101.389 60.9024ZM102.555 60.2703C103.072 60.0903 103.576 60.004 104.074 60.004V58.004C103.34 58.004 102.612 58.1323 101.897 58.3817L102.555 60.2703ZM104.074 60.004C104.902 60.004 105.434 60.2054 105.783 60.4982L107.069 58.9658C106.26 58.288 105.225 58.004 104.074 58.004V60.004ZM105.783 60.4982C106.114 60.7754 106.294 61.137 106.294 61.692H108.294C108.294 60.6044 107.895 59.6592 107.069 58.9658L105.783 60.4982ZM106.294 61.692C106.294 62.1139 106.205 62.502 106.029 62.8682L107.831 63.7358C108.14 63.094 108.294 62.4088 108.294 61.692H106.294ZM106.032 62.8616C105.85 63.2326 105.512 63.7055 104.969 64.2833L106.427 65.6527C107.041 64.9985 107.524 64.3607 107.828 63.7424L106.032 62.8616ZM104.969 64.283L102.547 66.859L104.005 68.229L106.427 65.653L104.969 64.283ZM103.276 68.544H107.658V66.544H103.276V68.544Z" fill="#3469E1"/>
<rect x="6" y="46" width="36" height="36" rx="2" fill="#1D1D20"/>
<path opacity="0.01" fill-rule="evenodd" clip-rule="evenodd" d="M15 64C15 59.5817 18.5817 56 23 56V56C27.4183 56 31 59.5817 31 64V64C31 68.4183 27.4183 72 23 72V72C18.5817 72 15 68.4183 15 64V64Z" fill="#3469E1"/>
<path d="M20.9907 64.0795C21.0146 64.0099 21.0543 63.9446 21.1099 63.889L24.6454 60.3535C24.8407 60.1582 25.1573 60.1582 25.3525 60.3535L25.7061 60.707C25.9014 60.9023 25.9014 61.2189 25.7061 61.4141L22.7872 64.333L25.6454 67.1912C25.8407 67.3865 25.8407 67.7031 25.6454 67.8983L25.2919 68.2519C25.0966 68.4471 24.78 68.4471 24.5848 68.2519L21.0492 64.7163C20.876 64.5431 20.8565 64.2743 20.9907 64.0795Z" fill="#3469E1"/>
</svg>
