<svg width="128" height="128" viewBox="0 0 128 128" fill="none" xmlns="http://www.w3.org/2000/svg">
<mask id="path-1-inside-1" fill="white">
<path fill-rule="evenodd" clip-rule="evenodd" d="M20 38C17.7909 38 16 39.7909 16 42V82C16 84.2091 17.7909 86 20 86H57L61.3753 89.5002C61.7405 89.7924 62.2595 89.7924 62.6247 89.5002L67 86H108C110.209 86 112 84.2091 112 82V42C112 39.7909 110.209 38 108 38H20Z"/>
</mask>
<path fill-rule="evenodd" clip-rule="evenodd" d="M20 38C17.7909 38 16 39.7909 16 42V82C16 84.2091 17.7909 86 20 86H57L61.3753 89.5002C61.7405 89.7924 62.2595 89.7924 62.6247 89.5002L67 86H108C110.209 86 112 84.2091 112 82V42C112 39.7909 110.209 38 108 38H20Z" fill="#1D1D20"/>
<path d="M57 86L58.2494 84.4383L57.7016 84H57V86ZM62.6247 89.5002L61.3753 87.9385L62.6247 89.5002ZM67 86V84H66.2984L65.7506 84.4383L67 86ZM18 42C18 40.8954 18.8954 40 20 40V36C16.6863 36 14 38.6863 14 42H18ZM18 82V42H14V82H18ZM20 84C18.8954 84 18 83.1046 18 82H14C14 85.3137 16.6863 88 20 88V84ZM57 84H20V88H57V84ZM55.7506 87.5617L60.1259 91.062L62.6247 87.9385L58.2494 84.4383L55.7506 87.5617ZM60.1259 91.062C61.2216 91.9385 62.7784 91.9385 63.8741 91.062L61.3753 87.9385C61.7405 87.6463 62.2595 87.6463 62.6247 87.9385L60.1259 91.062ZM63.8741 91.062L68.2494 87.5617L65.7506 84.4383L61.3753 87.9385L63.8741 91.062ZM108 84H67V88H108V84ZM110 82C110 83.1046 109.105 84 108 84V88C111.314 88 114 85.3137 114 82H110ZM110 42V82H114V42H110ZM108 40C109.105 40 110 40.8954 110 42H114C114 38.6863 111.314 36 108 36V40ZM20 40H108V36H20V40Z" fill="#3469E1" mask="url(#path-1-inside-1)"/>
<rect x="24" y="49" width="8" height="8" rx="4" fill="#3469E1"/>
<rect x="36" y="49" width="36" height="4" rx="2" fill="#303857"/>
<rect x="36" y="58" width="69" height="4" rx="2" fill="#303857"/>
<rect x="81" y="69" width="24" height="8" rx="1" fill="#3469E1"/>
<rect x="53" y="69" width="24" height="8" rx="1" fill="#303857"/>
</svg>
