<svg width="128" height="128" viewBox="0 0 128 128" fill="none" xmlns="http://www.w3.org/2000/svg">
<path d="M29.3818 58.4827C29.3931 58.4564 29.4066 58.4442 29.4181 58.437C29.4319 58.4284 29.4512 58.4222 29.4737 58.4222C29.4962 58.4222 29.5155 58.4284 29.5293 58.437C29.5408 58.4442 29.5543 58.4564 29.5656 58.4827L30.6239 60.9503C30.7828 61.3207 31.1315 61.5746 31.5329 61.612L34.2014 61.8605C34.2298 61.8631 34.2456 61.8722 34.256 61.8809C34.2685 61.8914 34.2803 61.9077 34.2873 61.9291C34.2942 61.9504 34.2943 61.9706 34.2904 61.9863C34.2871 61.9996 34.2797 62.0162 34.2583 62.035L32.2414 63.8141C31.9403 64.0797 31.8078 64.4882 31.8957 64.88L32.4854 67.507C32.4917 67.5349 32.4879 67.5527 32.4828 67.5653C32.4767 67.5804 32.4647 67.5967 32.4465 67.6099C32.4283 67.623 32.4091 67.6293 32.3929 67.6304C32.3793 67.6314 32.3612 67.6294 32.3366 67.6148L30.037 66.2437C29.6899 66.0368 29.2574 66.0368 28.9104 66.2437L26.6107 67.6148C26.5862 67.6294 26.5681 67.6314 26.5545 67.6304C26.5383 67.6293 26.519 67.623 26.5008 67.6099C26.4826 67.5967 26.4707 67.5804 26.4646 67.5653C26.4594 67.5527 26.4557 67.5349 26.4619 67.507L27.0516 64.88C27.1396 64.4882 27.0071 64.0797 26.706 63.8141L24.689 62.035C24.6677 62.0162 24.6603 61.9996 24.657 61.9863C24.6531 61.9706 24.6532 61.9504 24.6601 61.9291C24.6671 61.9077 24.6789 61.8914 24.6913 61.8809C24.7018 61.8722 24.7175 61.8631 24.7459 61.8605L27.4145 61.612C27.8158 61.5746 28.1646 61.3207 28.3234 60.9503L29.3818 58.4827Z" fill="#3469E1" stroke="#3469E1"/>
<path d="M46.6445 58.4827C46.6558 58.4564 46.6693 58.4442 46.6808 58.437C46.6946 58.4284 46.7139 58.4222 46.7364 58.4222C46.7589 58.4222 46.7782 58.4284 46.7919 58.437C46.8035 58.4442 46.817 58.4564 46.8283 58.4827L47.8866 60.9503C48.0455 61.3207 48.3942 61.5746 48.7956 61.612L51.4641 61.8605C51.4925 61.8631 51.5083 61.8722 51.5187 61.8809C51.5312 61.8914 51.543 61.9077 51.5499 61.9291C51.5569 61.9504 51.557 61.9706 51.5531 61.9863C51.5498 61.9996 51.5424 62.0162 51.521 62.035L49.5041 63.8141C49.203 64.0797 49.0705 64.4882 49.1584 64.88L49.7481 67.507C49.7544 67.5349 49.7506 67.5527 49.7455 67.5653C49.7394 67.5804 49.7274 67.5967 49.7092 67.6099C49.691 67.623 49.6718 67.6293 49.6556 67.6304C49.642 67.6314 49.6239 67.6294 49.5993 67.6148L47.2997 66.2437C46.9526 66.0368 46.5201 66.0368 46.1731 66.2437L43.8734 67.6148C43.8489 67.6294 43.8308 67.6314 43.8172 67.6304C43.801 67.6293 43.7817 67.623 43.7635 67.6099C43.7453 67.5967 43.7334 67.5804 43.7273 67.5653C43.7221 67.5527 43.7184 67.5349 43.7246 67.507L44.3143 64.88C44.4023 64.4882 44.2698 64.0797 43.9687 63.8141L41.9517 62.035C41.9304 62.0162 41.923 61.9996 41.9197 61.9863C41.9158 61.9706 41.9159 61.9504 41.9228 61.9291C41.9298 61.9077 41.9416 61.8914 41.954 61.8809C41.9645 61.8722 41.9802 61.8631 42.0086 61.8605L44.6772 61.612C45.0785 61.5746 45.4273 61.3207 45.5861 60.9503L46.6445 58.4827Z" fill="#3469E1" stroke="#3469E1"/>
<path d="M63.9081 58.4827C63.9194 58.4564 63.9329 58.4442 63.9445 58.437C63.9583 58.4284 63.9775 58.4222 64.0001 58.4222C64.0226 58.4222 64.0418 58.4284 64.0556 58.437C64.0672 58.4442 64.0807 58.4564 64.092 58.4827L65.1503 60.9503C65.3092 61.3207 65.6579 61.5746 66.0592 61.612L68.7278 61.8605C68.7562 61.8631 68.7719 61.8722 68.7824 61.8809C68.7948 61.8914 68.8067 61.9077 68.8136 61.9291C68.8206 61.9504 68.8207 61.9706 68.8167 61.9863C68.8135 61.9996 68.8061 62.0162 68.7847 62.035L66.7678 63.8141C66.4667 64.0797 66.3342 64.4882 66.4221 64.88L67.0118 67.507C67.0181 67.5349 67.0143 67.5527 67.0092 67.5653C67.003 67.5804 66.9911 67.5967 66.9729 67.6099C66.9547 67.623 66.9355 67.6293 66.9192 67.6304C66.9056 67.6314 66.8876 67.6294 66.863 67.6148L64.5634 66.2437C64.2163 66.0368 63.7838 66.0368 63.4367 66.2437L61.1371 67.6148C61.1125 67.6294 61.0945 67.6314 61.0809 67.6304C61.0646 67.6293 61.0454 67.623 61.0272 67.6099C61.009 67.5967 60.997 67.5804 60.9909 67.5653C60.9858 67.5527 60.982 67.5349 60.9883 67.507L61.578 64.88C61.6659 64.4882 61.5334 64.0797 61.2323 63.8141L59.2154 62.035C59.194 62.0162 59.1866 61.9996 59.1834 61.9863C59.1794 61.9706 59.1795 61.9504 59.1865 61.9291C59.1934 61.9077 59.2053 61.8914 59.2177 61.8809C59.2282 61.8722 59.2439 61.8631 59.2723 61.8605L61.9409 61.612C62.3422 61.5746 62.6909 61.3207 62.8498 60.9503L63.9081 58.4827Z" fill="#3469E1" stroke="#3469E1"/>
<path d="M80.7113 58.2857C80.9192 57.801 81.6063 57.801 81.8142 58.2857L82.8725 60.7532C82.9592 60.9553 83.1494 61.0937 83.3683 61.1141L86.0369 61.3626C86.5604 61.4114 86.7725 62.0622 86.3781 62.41L84.3612 64.1891C84.197 64.3339 84.1247 64.5568 84.1727 64.7704L84.7623 67.3975C84.8777 67.9115 84.3221 68.314 83.8697 68.0442L81.57 66.6732C81.3807 66.5603 81.1448 66.5603 80.9555 66.6732L78.6558 68.0442C78.2034 68.314 77.6478 67.9114 77.7631 67.3975L78.3528 64.7704C78.4008 64.5568 78.3285 64.3339 78.1643 64.1891L76.1474 62.41C75.753 62.0622 75.9651 61.4114 76.4886 61.3626L79.1572 61.1141C79.3761 61.0937 79.5663 60.9553 79.653 60.7532L80.7113 58.2857Z" fill="#303857"/>
<path d="M97.975 58.2857C98.1829 57.801 98.87 57.801 99.0778 58.2857L100.136 60.7532C100.223 60.9553 100.413 61.0937 100.632 61.1141L103.301 61.3626C103.824 61.4114 104.036 62.0622 103.642 62.41L101.625 64.1891C101.461 64.3339 101.388 64.5568 101.436 64.7704L102.026 67.3975C102.141 67.9115 101.586 68.314 101.133 68.0442L98.8337 66.6732C98.6444 66.5603 98.4085 66.5603 98.2192 66.6732L95.9195 68.0442C95.467 68.314 94.9114 67.9115 95.0268 67.3975L95.6165 64.7704C95.6645 64.5568 95.5922 64.3339 95.428 64.1891L93.411 62.41C93.0167 62.0622 93.2287 61.4114 93.7523 61.3626L96.4209 61.1141C96.6398 61.0937 96.83 60.9553 96.9167 60.7532L97.975 58.2857Z" fill="#303857"/>
</svg>
