<svg width="128" height="128" viewBox="0 0 128 128" fill="none" xmlns="http://www.w3.org/2000/svg">
<path d="M28.9223 58.2857C29.1301 57.801 29.8172 57.801 30.0251 58.2857L31.0834 60.7532C31.1701 60.9553 31.3603 61.0937 31.5792 61.1141L34.2478 61.3626C34.7714 61.4114 34.9834 62.0622 34.5891 62.41L32.5721 64.1891C32.4079 64.3339 32.3356 64.5568 32.3836 64.7704L32.9733 67.3975C33.0887 67.9115 32.5331 68.314 32.0806 68.0442L29.7809 66.6732C29.5916 66.5603 29.3557 66.5603 29.1664 66.6732L26.8668 68.0442C26.4143 68.314 25.8587 67.9115 25.9741 67.3975L26.5638 64.7704C26.6117 64.5568 26.5395 64.3339 26.3752 64.1891L24.3583 62.41C23.964 62.0622 24.176 61.4114 24.6996 61.3626L27.3681 61.1141C27.587 61.0937 27.7773 60.9553 27.8639 60.7532L28.9223 58.2857Z" fill="#4080FF"/>
<path d="M46.185 58.2857C46.3928 57.801 47.0799 57.801 47.2878 58.2857L48.3461 60.7532C48.4328 60.9553 48.623 61.0937 48.8419 61.1141L51.5105 61.3626C52.0341 61.4114 52.2461 62.0622 51.8518 62.41L49.8348 64.1891C49.6706 64.3339 49.5983 64.5568 49.6463 64.7704L50.236 67.3975C50.3514 67.9115 49.7958 68.314 49.3433 68.0442L47.0436 66.6732C46.8543 66.5603 46.6184 66.5603 46.4291 66.6732L44.1295 68.0442C43.677 68.314 43.1214 67.9115 43.2368 67.3975L43.8265 64.7704C43.8744 64.5568 43.8022 64.3339 43.6379 64.1891L41.621 62.41C41.2266 62.0622 41.4387 61.4114 41.9623 61.3626L44.6308 61.1141C44.8497 61.0937 45.04 60.9553 45.1266 60.7532L46.185 58.2857Z" fill="#4080FF"/>
<path d="M63.4486 58.2857C63.6565 57.801 64.3436 57.801 64.5515 58.2857L65.6098 60.7532C65.6965 60.9553 65.8867 61.0937 66.1056 61.1141L68.7742 61.3626C69.2977 61.4114 69.5098 62.0622 69.1154 62.41L67.0985 64.1891C66.9343 64.3339 66.862 64.5568 66.91 64.7704L67.4997 67.3975C67.615 67.9115 67.0594 68.314 66.607 68.0442L64.3073 66.6732C64.118 66.5603 63.8821 66.5603 63.6928 66.6732L61.3931 68.0442C60.9407 68.314 60.3851 67.9114 60.5004 67.3975L61.0901 64.7704C61.1381 64.5568 61.0658 64.3339 60.9016 64.1891L58.8847 62.41C58.4903 62.0622 58.7024 61.4114 59.2259 61.3626L61.8945 61.1141C62.1134 61.0937 62.3036 60.9553 62.3903 60.7532L63.4486 58.2857Z" fill="#4080FF"/>
<path d="M80.7113 58.2857C80.9192 57.801 81.6063 57.801 81.8142 58.2857L82.8725 60.7532C82.9592 60.9553 83.1494 61.0937 83.3683 61.1141L86.0369 61.3626C86.5604 61.4114 86.7725 62.0622 86.3781 62.41L84.3612 64.1891C84.197 64.3339 84.1247 64.5568 84.1727 64.7704L84.7623 67.3975C84.8777 67.9115 84.3221 68.314 83.8697 68.0442L81.57 66.6732C81.3807 66.5603 81.1448 66.5603 80.9555 66.6732L78.6558 68.0442C78.2034 68.314 77.6478 67.9114 77.7631 67.3975L78.3528 64.7704C78.4008 64.5568 78.3285 64.3339 78.1643 64.1891L76.1474 62.41C75.753 62.0622 75.9651 61.4114 76.4886 61.3626L79.1572 61.1141C79.3761 61.0937 79.5663 60.9553 79.653 60.7532L80.7113 58.2857Z" fill="#BEDAFF"/>
<path d="M97.975 58.2857C98.1829 57.801 98.87 57.801 99.0778 58.2857L100.136 60.7532C100.223 60.9553 100.413 61.0937 100.632 61.1141L103.301 61.3626C103.824 61.4114 104.036 62.0622 103.642 62.41L101.625 64.1891C101.461 64.3339 101.388 64.5568 101.436 64.7704L102.026 67.3975C102.141 67.9115 101.586 68.314 101.133 68.0442L98.8337 66.6732C98.6444 66.5603 98.4085 66.5603 98.2192 66.6732L95.9195 68.0442C95.467 68.314 94.9114 67.9115 95.0268 67.3975L95.6165 64.7704C95.6645 64.5568 95.5922 64.3339 95.428 64.1891L93.411 62.41C93.0167 62.0622 93.2287 61.4114 93.7523 61.3626L96.4209 61.1141C96.6398 61.0937 96.83 60.9553 96.9167 60.7532L97.975 58.2857Z" fill="#BEDAFF"/>
</svg>
