<svg width="128" height="128" viewBox="0 0 128 128" fill="none" xmlns="http://www.w3.org/2000/svg">
<rect x="49" y="49" width="30" height="30" rx="1" fill="#303857" stroke="#4080FF" stroke-width="2"/>
<path d="M98 31C98 30.4477 97.5523 30 97 30L88 30C87.4477 30 87 30.4477 87 31C87 31.5523 87.4477 32 88 32H96V40C96 40.5523 96.4477 41 97 41C97.5523 41 98 40.5523 98 40V31ZM83.7071 45.7071L97.7071 31.7071L96.2929 30.2929L82.2929 44.2929L83.7071 45.7071Z" fill="#4080FF"/>
<path d="M30 97C30 97.5523 30.4477 98 31 98H40C40.5523 98 41 97.5523 41 97C41 96.4477 40.5523 96 40 96H32V88C32 87.4477 31.5523 87 31 87C30.4477 87 30 87.4477 30 88L30 97ZM44.2929 82.2929L30.2929 96.2929L31.7071 97.7071L45.7071 83.7071L44.2929 82.2929Z" fill="#4080FF"/>
</svg>
