<svg width="128" height="128" viewBox="0 0 128 128" fill="none" xmlns="http://www.w3.org/2000/svg">
<rect x="52" y="90" width="24" height="8" rx="1" fill="#6AA1FF"/>
<rect x="49" y="31" width="30" height="30" rx="15" fill="#E8F3FF" stroke="#4080FF" stroke-width="2"/>
<rect x="54" y="70" width="20" height="4" rx="2" fill="#6AA1FF"/>
<rect x="37" y="78" width="54" height="4" rx="2" fill="#BEDAFF"/>
<path fill-rule="evenodd" clip-rule="evenodd" d="M64.8629 49.2337C65.2311 49.2337 65.5296 49.5322 65.5296 49.9004V51.6337C65.5296 52.0019 65.2311 52.3004 64.8629 52.3004H63.1296C62.7614 52.3004 62.4629 52.0019 62.4629 51.6337V49.9004C62.4629 49.5322 62.7614 49.2337 63.1296 49.2337H64.8629ZM64.8629 39.4424C65.2311 39.4424 65.5296 39.7409 65.5296 40.109V47.1226C65.5296 47.4908 65.2311 47.7893 64.8629 47.7893H63.1296C62.7614 47.7893 62.4629 47.4908 62.4629 47.1226V40.109C62.4629 39.7409 62.7614 39.4424 63.1296 39.4424H64.8629Z" fill="#4080FF"/>
</svg>
