<svg width="128" height="128" viewBox="0 0 128 128" fill="none" xmlns="http://www.w3.org/2000/svg">
<rect x="52" y="90" width="24" height="8" rx="1" fill="#3469E1"/>
<rect x="49" y="31" width="30" height="30" rx="15" fill="#1D1D20" stroke="#3469E1" stroke-width="2"/>
<rect x="54" y="70" width="20" height="4" rx="2" fill="#3469E1"/>
<rect x="37" y="78" width="54" height="4" rx="2" fill="#303857"/>
<path d="M64.8629 49.7337C64.9549 49.7337 65.0296 49.8084 65.0296 49.9004V51.6337C65.0296 51.7258 64.9549 51.8004 64.8629 51.8004H63.1296C63.0375 51.8004 62.9629 51.7258 62.9629 51.6337V49.9004C62.9629 49.8084 63.0375 49.7337 63.1296 49.7337H64.8629ZM64.8629 39.9424C64.9549 39.9424 65.0296 40.017 65.0296 40.109V47.1226C65.0296 47.2147 64.9549 47.2893 64.8629 47.2893H63.1296C63.0375 47.2893 62.9629 47.2147 62.9629 47.1226V40.109C62.9629 40.017 63.0375 39.9424 63.1296 39.9424H64.8629Z" fill="#3469E1" stroke="#3469E1"/>
</svg>
