<svg width="128" height="128" viewBox="0 0 128 128" fill="none" xmlns="http://www.w3.org/2000/svg">
<path d="M28 80H100" stroke="#E8F3FF" stroke-width="2" stroke-linecap="round"/>
<path d="M28 80H57" stroke="#4080FF" stroke-width="2" stroke-linecap="round"/>
<rect x="55" y="78" width="4" height="4" rx="2" fill="#E8F3FF"/>
<rect x="55" y="78" width="4" height="4" rx="2" stroke="#4080FF" stroke-width="2"/>
<mask id="path-4-inside-1" fill="white">
<path fill-rule="evenodd" clip-rule="evenodd" d="M36 45C34.8954 45 34 45.8954 34 47V68C34 69.1046 34.8954 70 36 70H52L56.3753 73.5002C56.7405 73.7924 57.2595 73.7924 57.6247 73.5002L62 70H79C80.1046 70 81 69.1046 81 68V47C81 45.8954 80.1046 45 79 45H36Z"/>
</mask>
<path fill-rule="evenodd" clip-rule="evenodd" d="M36 45C34.8954 45 34 45.8954 34 47V68C34 69.1046 34.8954 70 36 70H52L56.3753 73.5002C56.7405 73.7924 57.2595 73.7924 57.6247 73.5002L62 70H79C80.1046 70 81 69.1046 81 68V47C81 45.8954 80.1046 45 79 45H36Z" fill="#E8F3FF"/>
<path d="M52 70L53.2494 68.4383L52.7016 68H52V70ZM57.6247 73.5002L56.3753 71.9385L57.6247 73.5002ZM62 70V68H61.2984L60.7506 68.4383L62 70ZM36 47L36 47V43C33.7909 43 32 44.7909 32 47H36ZM36 68V47H32V68H36ZM36 68H36H32C32 70.2091 33.7909 72 36 72V68ZM52 68H36V72H52V68ZM50.7506 71.5617L55.1259 75.062L57.6247 71.9385L53.2494 68.4383L50.7506 71.5617ZM55.1259 75.062C56.2216 75.9385 57.7784 75.9385 58.8741 75.062L56.3753 71.9385C56.7405 71.6463 57.2595 71.6463 57.6247 71.9385L55.1259 75.062ZM58.8741 75.062L63.2494 71.5617L60.7506 68.4383L56.3753 71.9385L58.8741 75.062ZM79 68H62V72H79V68ZM79 68V72C81.2091 72 83 70.2091 83 68H79ZM79 47V68H83V47H79ZM79 47H83C83 44.7909 81.2091 43 79 43V47ZM36 47H79V43H36V47Z" fill="#4080FF" mask="url(#path-4-inside-1)"/>
<path d="M52.9914 63.0002V61.1242H48.6934V59.8082L53.2994 53.1302H54.7834V59.6402H56.1694V61.1242H54.7834V63.0002H52.9914ZM52.9914 59.6402V55.8742L50.4154 59.6402H52.9914Z" fill="#4080FF"/>
<path d="M57.6199 63.0002V61.6702L60.8119 58.2682C61.2412 57.8016 61.5492 57.3909 61.7359 57.0362C61.9226 56.6722 62.0159 56.3036 62.0159 55.9302C62.0159 54.9782 61.4419 54.5022 60.2939 54.5022C59.3979 54.5022 58.5719 54.8382 57.8159 55.5102L57.2139 54.1662C57.6059 53.8116 58.0959 53.5269 58.6839 53.3122C59.2719 53.0976 59.8832 52.9902 60.5179 52.9902C61.5726 52.9902 62.3799 53.2282 62.9399 53.7042C63.5092 54.1802 63.7939 54.8616 63.7939 55.7482C63.7939 56.3456 63.6492 56.9196 63.3599 57.4702C63.0799 58.0209 62.6366 58.6136 62.0299 59.2482L59.8599 61.5162H64.1719V63.0002H57.6199Z" fill="#4080FF"/>
</svg>
