<svg width="128" height="128" viewBox="0 0 128 128" fill="none" xmlns="http://www.w3.org/2000/svg">
<path d="M28 80H100" stroke="#1D1D20" stroke-width="2" stroke-linecap="round"/>
<path d="M28 80H57" stroke="#3469E1" stroke-width="2" stroke-linecap="round"/>
<rect x="55" y="78" width="4" height="4" rx="2" fill="#1D1D20"/>
<rect x="55" y="78" width="4" height="4" rx="2" stroke="#3469E1" stroke-width="2"/>
<mask id="path-4-inside-1" fill="white">
<path fill-rule="evenodd" clip-rule="evenodd" d="M36 45C34.8954 45 34 45.8954 34 47V68C34 69.1046 34.8954 70 36 70H52L56.3753 73.5002C56.7405 73.7924 57.2595 73.7924 57.6247 73.5002L62 70H79C80.1046 70 81 69.1046 81 68V47C81 45.8954 80.1046 45 79 45H36Z"/>
</mask>
<path fill-rule="evenodd" clip-rule="evenodd" d="M36 45C34.8954 45 34 45.8954 34 47V68C34 69.1046 34.8954 70 36 70H52L56.3753 73.5002C56.7405 73.7924 57.2595 73.7924 57.6247 73.5002L62 70H79C80.1046 70 81 69.1046 81 68V47C81 45.8954 80.1046 45 79 45H36Z" fill="#1D1D20"/>
<path d="M52 70L53.2494 68.4383L52.7016 68H52V70ZM57.6247 73.5002L56.3753 71.9385L57.6247 73.5002ZM62 70V68H61.2984L60.7506 68.4383L62 70ZM36 47L36 47V43C33.7909 43 32 44.7909 32 47H36ZM36 68V47H32V68H36ZM36 68H36H32C32 70.2091 33.7909 72 36 72V68ZM52 68H36V72H52V68ZM50.7506 71.5617L55.1259 75.062L57.6247 71.9385L53.2494 68.4383L50.7506 71.5617ZM55.1259 75.062C56.2216 75.9385 57.7784 75.9385 58.8741 75.062L56.3753 71.9385C56.7405 71.6463 57.2595 71.6463 57.6247 71.9385L55.1259 75.062ZM58.8741 75.062L63.2494 71.5617L60.7506 68.4383L56.3753 71.9385L58.8741 75.062ZM79 68H62V72H79V68ZM79 68V72C81.2091 72 83 70.2091 83 68H79ZM79 47V68H83V47H79ZM79 47H83C83 44.7909 81.2091 43 79 43V47ZM36 47H79V43H36V47Z" fill="#3469E1" mask="url(#path-4-inside-1)"/>
<path d="M56.1206 59.668V61.068H54.7346V63H52.9706V61.068H48.6866V59.738L53.2786 53.13H54.7346V59.668H56.1206ZM50.3666 59.668H52.9706V55.902L50.3666 59.668ZM64.1512 61.544V63H57.5152V61.67L60.8752 58.058C61.2672 57.6287 61.5518 57.2367 61.7292 56.882C61.9158 56.518 62.0092 56.1587 62.0092 55.804C62.0092 55.356 61.8785 55.02 61.6172 54.796C61.3652 54.5627 60.9918 54.446 60.4972 54.446C59.6105 54.446 58.7192 54.7867 57.8232 55.468L57.2212 54.152C57.6132 53.8067 58.1125 53.5313 58.7192 53.326C59.3352 53.1113 59.9512 53.004 60.5672 53.004C61.5565 53.004 62.3405 53.2467 62.9192 53.732C63.4978 54.2173 63.7872 54.8707 63.7872 55.692C63.7872 56.2613 63.6658 56.798 63.4232 57.302C63.1805 57.7967 62.7698 58.352 62.1912 58.968L59.7692 61.544H64.1512Z" fill="#3469E1"/>
</svg>
