<svg width="128" height="128" viewBox="0 0 128 128" fill="none" xmlns="http://www.w3.org/2000/svg">
<path d="M23.88 70.79H27.91V73H17.198V70.79H21.202V57.868L18.004 59.818L16.86 57.816L21.956 54.67H23.88V70.79ZM43.6818 70.79V73H31.6698V70.998L37.9878 64.082C38.8025 63.198 39.3918 62.392 39.7558 61.664C40.1198 60.936 40.3018 60.2167 40.3018 59.506C40.3018 58.57 40.0332 57.8593 39.4958 57.374C38.9585 56.8887 38.1872 56.646 37.1818 56.646C35.4658 56.646 33.7672 57.3133 32.0858 58.648L31.1498 56.672C31.8778 55.996 32.7965 55.4587 33.9058 55.06C35.0152 54.6613 36.1332 54.462 37.2598 54.462C39.0105 54.462 40.3972 54.904 41.4198 55.788C42.4425 56.6547 42.9538 57.8333 42.9538 59.324C42.9538 60.3813 42.7198 61.3867 42.2518 62.34C41.8012 63.2933 41.0385 64.3593 39.9638 65.538L35.0498 70.79H43.6818ZM53.8637 61.404C55.0077 61.404 56.013 61.6467 56.8797 62.132C57.7464 62.6173 58.4137 63.302 58.8817 64.186C59.367 65.07 59.6097 66.084 59.6097 67.228C59.6097 68.4067 59.341 69.4467 58.8037 70.348C58.2837 71.2493 57.5297 71.9513 56.5417 72.454C55.571 72.9393 54.4357 73.182 53.1357 73.182C52.009 73.182 50.891 72.9827 49.7817 72.584C48.6897 72.1853 47.7797 71.648 47.0517 70.972L47.9877 68.996C49.6344 70.3307 51.359 70.998 53.1617 70.998C54.375 70.998 55.3197 70.6773 55.9957 70.036C56.6717 69.3773 57.0097 68.4587 57.0097 67.28C57.0097 66.1533 56.6717 65.252 55.9957 64.576C55.3197 63.9 54.4184 63.562 53.2917 63.562C51.6797 63.562 50.3537 64.186 49.3137 65.434H47.5977V54.67H58.8297V56.828H50.2497V62.6C51.203 61.8027 52.4077 61.404 53.8637 61.404ZM65.3975 69.906V72.012C65.3975 72.8267 65.2589 73.5633 64.9815 74.222C64.7215 74.898 64.2709 75.5567 63.6295 76.198L62.4855 75.288C63.2135 74.508 63.6295 73.7453 63.7335 73H62.3035V69.906H65.3975ZM75.7008 61.378C76.8102 61.378 77.7895 61.6293 78.6388 62.132C79.5055 62.6173 80.1728 63.302 80.6408 64.186C81.1262 65.07 81.3688 66.084 81.3688 67.228C81.3688 68.372 81.1088 69.4033 80.5888 70.322C80.0862 71.2233 79.3755 71.934 78.4568 72.454C77.5382 72.9567 76.5068 73.208 75.3628 73.208C73.0922 73.208 71.3415 72.4367 70.1108 70.894C68.8975 69.334 68.2908 67.1153 68.2908 64.238C68.2908 62.1927 68.5768 60.442 69.1488 58.986C69.7208 57.5127 70.5528 56.3947 71.6448 55.632C72.7368 54.852 74.0368 54.462 75.5448 54.462C76.6195 54.462 77.6682 54.6527 78.6908 55.034C79.7135 55.4153 80.6062 55.9613 81.3688 56.672L80.4068 58.648C78.7775 57.3133 77.1828 56.646 75.6228 56.646C74.1322 56.646 72.9795 57.3047 72.1648 58.622C71.3502 59.922 70.9428 61.7767 70.9428 64.186V64.264C71.3242 63.3627 71.9395 62.6607 72.7888 62.158C73.6555 61.638 74.6262 61.378 75.7008 61.378ZM75.2328 71.024C76.3075 71.024 77.1655 70.686 77.8068 70.01C78.4482 69.3167 78.7688 68.4067 78.7688 67.28C78.7688 66.1533 78.4395 65.252 77.7808 64.576C77.1395 63.9 76.2815 63.562 75.2068 63.562C74.1322 63.562 73.2482 63.9087 72.5548 64.602C71.8615 65.278 71.5148 66.1707 71.5148 67.28C71.5148 68.3893 71.8528 69.2907 72.5288 69.984C73.2222 70.6773 74.1235 71.024 75.2328 71.024ZM84.1413 54.67H96.5433V56.672L88.0673 73H85.2073L93.6313 56.88H84.1413V54.67ZM105.919 73.208C103.787 73.208 102.158 72.4107 101.031 70.816C99.9218 69.2213 99.3671 66.8987 99.3671 63.848C99.3671 60.7973 99.9218 58.4747 101.031 56.88C102.158 55.268 103.787 54.462 105.919 54.462C108.051 54.462 109.672 55.2593 110.781 56.854C111.908 58.4487 112.471 60.7713 112.471 63.822C112.471 66.89 111.908 69.2213 110.781 70.816C109.672 72.4107 108.051 73.208 105.919 73.208ZM105.919 71.05C107.254 71.05 108.233 70.4693 108.857 69.308C109.481 68.1467 109.793 66.318 109.793 63.822C109.793 61.3433 109.481 59.532 108.857 58.388C108.233 57.2267 107.254 56.646 105.919 56.646C104.584 56.646 103.605 57.2267 102.981 58.388C102.357 59.532 102.045 61.3433 102.045 63.822C102.045 66.3007 102.357 68.1293 102.981 69.308C103.605 70.4693 104.584 71.05 105.919 71.05Z" fill="#3469E1"/>
</svg>
