<svg width="128" height="128" viewBox="0 0 128 128" fill="none" xmlns="http://www.w3.org/2000/svg">
<path d="M27.9104 70.7899V72.9999H17.1984V70.7899H21.2024V57.8679L18.0044 59.8179L16.8604 57.8159L21.9564 54.6699H23.8804V70.7899H27.9104Z" fill="#6AA1FF"/>
<path d="M43.6822 70.7899V72.9999H31.6702V70.9979L37.9882 64.0819C38.8029 63.1979 39.3922 62.3919 39.7562 61.6639C40.1202 60.9359 40.3022 60.2166 40.3022 59.5059C40.3022 58.5699 40.0335 57.8592 39.4962 57.3739C38.9589 56.8886 38.1875 56.6459 37.1822 56.6459C35.4662 56.6459 33.7675 57.3132 32.0862 58.6479L31.1502 56.6719C31.8782 55.9959 32.7969 55.4586 33.9062 55.0599C35.0155 54.6612 36.1335 54.4619 37.2602 54.4619C39.0109 54.4619 40.3975 54.9039 41.4202 55.7879C42.4429 56.6546 42.9542 57.8332 42.9542 59.3239C42.9542 60.3812 42.7202 61.3866 42.2522 62.3399C41.8015 63.2932 41.0389 64.3592 39.9642 65.5379L35.0502 70.7899H43.6822Z" fill="#6AA1FF"/>
<path d="M53.864 61.4039C55.008 61.4039 56.0134 61.6466 56.88 62.1319C57.7467 62.6172 58.414 63.3019 58.882 64.1859C59.3674 65.0699 59.61 66.0839 59.61 67.2279C59.61 68.4066 59.3414 69.4466 58.804 70.3479C58.284 71.2492 57.53 71.9512 56.542 72.4539C55.5714 72.9392 54.436 73.1819 53.136 73.1819C52.0094 73.1819 50.8914 72.9826 49.782 72.5839C48.69 72.1852 47.78 71.6479 47.052 70.9719L47.988 68.9959C49.6347 70.3306 51.3594 70.9979 53.162 70.9979C54.3754 70.9979 55.32 70.6772 55.996 70.0359C56.672 69.3772 57.01 68.4586 57.01 67.2799C57.01 66.1532 56.672 65.2519 55.996 64.5759C55.32 63.8999 54.4187 63.5619 53.292 63.5619C51.68 63.5619 50.354 64.1859 49.314 65.4339H47.598V54.6699H58.83V56.8279H50.25V62.5999C51.2034 61.8026 52.408 61.4039 53.864 61.4039Z" fill="#6AA1FF"/>
<path d="M65.3979 69.9059V72.0119C65.3979 72.8266 65.2592 73.5632 64.9819 74.2219C64.7219 74.8979 64.2712 75.5566 63.6299 76.1979L62.4859 75.2879C63.2139 74.5079 63.6299 73.7452 63.7339 72.9999H62.3039V69.9059H65.3979Z" fill="#6AA1FF"/>
<path d="M75.7012 61.3779C76.8105 61.3779 77.7899 61.6292 78.6392 62.1319C79.5059 62.6172 80.1732 63.3019 80.6412 64.1859C81.1265 65.0699 81.3692 66.0839 81.3692 67.2279C81.3692 68.3719 81.1092 69.4032 80.5892 70.3219C80.0865 71.2232 79.3759 71.9339 78.4572 72.4539C77.5385 72.9566 76.5072 73.2079 75.3632 73.2079C73.0925 73.2079 71.3419 72.4366 70.1112 70.8939C68.8979 69.3339 68.2912 67.1152 68.2912 64.2379C68.2912 62.1926 68.5772 60.4419 69.1492 58.9859C69.7212 57.5126 70.5532 56.3946 71.6452 55.6319C72.7372 54.8519 74.0372 54.4619 75.5452 54.4619C76.6199 54.4619 77.6685 54.6526 78.6912 55.0339C79.7139 55.4152 80.6065 55.9612 81.3692 56.6719L80.4072 58.6479C78.7779 57.3132 77.1832 56.6459 75.6232 56.6459C74.1325 56.6459 72.9799 57.3046 72.1652 58.6219C71.3505 59.9219 70.9432 61.7766 70.9432 64.1859V64.2639C71.3245 63.3626 71.9399 62.6606 72.7892 62.1579C73.6559 61.6379 74.6265 61.3779 75.7012 61.3779ZM75.2332 71.0239C76.3079 71.0239 77.1659 70.6859 77.8072 70.0099C78.4485 69.3166 78.7692 68.4066 78.7692 67.2799C78.7692 66.1532 78.4399 65.2519 77.7812 64.5759C77.1399 63.8999 76.2819 63.5619 75.2072 63.5619C74.1325 63.5619 73.2485 63.9086 72.5552 64.6019C71.8619 65.2779 71.5152 66.1706 71.5152 67.2799C71.5152 68.3892 71.8532 69.2906 72.5292 69.9839C73.2225 70.6772 74.1239 71.0239 75.2332 71.0239Z" fill="#6AA1FF"/>
<path d="M96.5436 54.6699V56.6719L88.0676 72.9999H85.2076L93.6316 56.8799H84.1416V54.6699H96.5436Z" fill="#6AA1FF"/>
<path d="M105.919 73.2079C103.787 73.2079 102.158 72.4106 101.031 70.8159C99.9222 69.2212 99.3675 66.8986 99.3675 63.8479C99.3675 60.7972 99.9222 58.4746 101.031 56.8799C102.158 55.2679 103.787 54.4619 105.919 54.4619C108.051 54.4619 109.672 55.2592 110.781 56.8539C111.908 58.4486 112.471 60.7712 112.471 63.8219C112.471 66.8899 111.908 69.2212 110.781 70.8159C109.672 72.4106 108.051 73.2079 105.919 73.2079ZM105.919 71.0499C107.254 71.0499 108.233 70.4692 108.857 69.3079C109.481 68.1466 109.793 66.3179 109.793 63.8219C109.793 61.3432 109.481 59.5319 108.857 58.3879C108.233 57.2266 107.254 56.6459 105.919 56.6459C104.585 56.6459 103.605 57.2266 102.981 58.3879C102.357 59.5319 102.045 61.3432 102.045 63.8219C102.045 66.3006 102.357 68.1292 102.981 69.3079C103.605 70.4692 104.585 71.0499 105.919 71.0499Z" fill="#6AA1FF"/>
</svg>
