<svg width="128" height="128" viewBox="0 0 128 128" fill="none" xmlns="http://www.w3.org/2000/svg">
<path fill-rule="evenodd" clip-rule="evenodd" d="M41.9008 58.9055C41.6938 58.6991 41.3546 58.7136 41.1659 58.937L34.228 67.1485L31.4622 64.2602C31.2682 64.0577 30.9456 64.0542 30.7474 64.2526L29.2161 65.7852C29.0239 65.9775 29.0206 66.2881 29.2087 66.4844L33.8855 71.3682C34.026 71.515 34.2341 71.5572 34.4135 71.4939C34.5684 71.5066 34.7276 71.4472 34.8366 71.3183L35.8155 70.1596L36.4773 69.4973L36.423 69.4406L43.4618 61.1097C43.6297 60.9109 43.6171 60.6166 43.4329 60.4329L41.9008 58.9055Z" fill="#3469E1"/>
<path d="M41.1659 58.937L41.3569 59.0983L41.3569 59.0983L41.1659 58.937ZM41.9008 58.9055L41.7243 59.0826L41.9008 58.9055ZM34.228 67.1485L34.0474 67.3214L34.2396 67.5221L34.419 67.3098L34.228 67.1485ZM31.4622 64.2602L31.6427 64.0873L31.6427 64.0873L31.4622 64.2602ZM30.7474 64.2526L30.5705 64.0759L30.7474 64.2526ZM29.2161 65.7852L29.3929 65.9619L29.2161 65.7852ZM29.2087 66.4844L29.0281 66.6573L29.0281 66.6573L29.2087 66.4844ZM33.8855 71.3682L34.0661 71.1953L34.0661 71.1953L33.8855 71.3682ZM34.4135 71.4939L34.4339 71.2447L34.3806 71.2404L34.3303 71.2582L34.4135 71.4939ZM34.8366 71.3183L34.6456 71.1569L34.8366 71.3183ZM35.8155 70.1596L35.6387 69.9829L35.6313 69.9903L35.6245 69.9983L35.8155 70.1596ZM36.4773 69.4973L36.6541 69.674L36.827 69.501L36.6579 69.3244L36.4773 69.4973ZM36.423 69.4406L36.232 69.2793L36.0869 69.4511L36.2424 69.6135L36.423 69.4406ZM43.4618 61.1097L43.6528 61.271L43.6528 61.271L43.4618 61.1097ZM43.4329 60.4329L43.6094 60.2558L43.6094 60.2558L43.4329 60.4329ZM41.3569 59.0983C41.4512 58.9866 41.6208 58.9794 41.7243 59.0826L42.0773 58.7285C41.7668 58.4189 41.258 58.4406 40.9749 58.7756L41.3569 59.0983ZM34.419 67.3098L41.3569 59.0983L40.9749 58.7756L34.037 66.9871L34.419 67.3098ZM31.2816 64.4331L34.0474 67.3214L34.4086 66.9756L31.6427 64.0873L31.2816 64.4331ZM30.9242 64.4293C31.0233 64.3301 31.1846 64.3319 31.2816 64.4331L31.6427 64.0873C31.3518 63.7835 30.8679 63.7783 30.5705 64.0759L30.9242 64.4293ZM29.3929 65.9619L30.9242 64.4293L30.5705 64.0759L29.0392 65.6085L29.3929 65.9619ZM29.3892 66.3115C29.2952 66.2133 29.2969 66.0581 29.3929 65.9619L29.0392 65.6085C28.751 65.897 28.7461 66.3628 29.0281 66.6573L29.3892 66.3115ZM34.0661 71.1953L29.3892 66.3115L29.0281 66.6573L33.7049 71.5412L34.0661 71.1953ZM34.3303 71.2582C34.2399 71.2901 34.1361 71.2684 34.0661 71.1953L33.7049 71.5412C33.916 71.7616 34.2283 71.8244 34.4968 71.7296L34.3303 71.2582ZM34.6456 71.1569C34.5912 71.2213 34.5122 71.2511 34.4339 71.2447L34.3931 71.7431C34.6247 71.762 34.864 71.6732 35.0276 71.4796L34.6456 71.1569ZM35.6245 69.9983L34.6456 71.1569L35.0276 71.4796L36.0065 70.321L35.6245 69.9983ZM36.3004 69.3206L35.6387 69.9829L35.9924 70.3363L36.6541 69.674L36.3004 69.3206ZM36.2424 69.6135L36.2967 69.6702L36.6579 69.3244L36.6036 69.2677L36.2424 69.6135ZM43.2708 60.9483L36.232 69.2793L36.614 69.602L43.6528 61.271L43.2708 60.9483ZM43.2564 60.6099C43.3485 60.7018 43.3548 60.8489 43.2708 60.9483L43.6528 61.271C43.9047 60.9729 43.8858 60.5314 43.6094 60.2558L43.2564 60.6099ZM41.7243 59.0826L43.2564 60.6099L43.6094 60.2558L42.0773 58.7285L41.7243 59.0826Z" fill="#3469E1"/>
<rect x="24" y="51" width="26" height="26" rx="13" fill="#1D1D20" stroke="#3469E1" stroke-width="2"/>
<rect x="84" y="53" width="22" height="22" rx="11" fill="#1D1D20" stroke="#3469E1" stroke-width="2"/>
<path fill-rule="evenodd" clip-rule="evenodd" d="M42.142 58.9055C41.935 58.6991 41.5958 58.7136 41.4071 58.937L34.4692 67.1485L31.7034 64.2602C31.5094 64.0577 31.1868 64.0542 30.9886 64.2526L29.4573 65.7852C29.2652 65.9775 29.2619 66.2881 29.4499 66.4844L34.1267 71.3682C34.2673 71.515 34.4753 71.5572 34.6547 71.4939C34.8096 71.5066 34.9688 71.4472 35.0778 71.3183L36.0567 70.1596L36.7185 69.4973L36.6642 69.4406L43.703 61.1097C43.8709 60.9109 43.8584 60.6166 43.6741 60.4329L42.142 58.9055Z" fill="#3469E1"/>
<path d="M41.4071 58.937L41.5981 59.0983L41.5981 59.0983L41.4071 58.937ZM42.142 58.9055L41.9655 59.0826L42.142 58.9055ZM34.4692 67.1485L34.2887 67.3214L34.4808 67.5221L34.6602 67.3098L34.4692 67.1485ZM31.7034 64.2602L31.884 64.0873L31.884 64.0873L31.7034 64.2602ZM30.9886 64.2526L30.8117 64.0759L30.9886 64.2526ZM29.4573 65.7852L29.6341 65.9619L29.4573 65.7852ZM29.4499 66.4844L29.2693 66.6573L29.2693 66.6573L29.4499 66.4844ZM34.1267 71.3682L34.3073 71.1953L34.3073 71.1953L34.1267 71.3682ZM34.6547 71.4939L34.6751 71.2447L34.6218 71.2404L34.5715 71.2582L34.6547 71.4939ZM35.0778 71.3183L34.8868 71.1569L35.0778 71.3183ZM36.0567 70.1596L35.8799 69.9829L35.8725 69.9903L35.8658 69.9983L36.0567 70.1596ZM36.7185 69.4973L36.8954 69.674L37.0682 69.501L36.8991 69.3244L36.7185 69.4973ZM36.6642 69.4406L36.4733 69.2793L36.3281 69.4511L36.4837 69.6135L36.6642 69.4406ZM43.703 61.1097L43.894 61.271L43.894 61.271L43.703 61.1097ZM43.6741 60.4329L43.8506 60.2558L43.8506 60.2558L43.6741 60.4329ZM41.5981 59.0983C41.6924 58.9866 41.862 58.9794 41.9655 59.0826L42.3185 58.7285C42.008 58.4189 41.4992 58.4406 41.2161 58.7756L41.5981 59.0983ZM34.6602 67.3098L41.5981 59.0983L41.2161 58.7756L34.2783 66.9871L34.6602 67.3098ZM31.5228 64.4331L34.2887 67.3214L34.6498 66.9756L31.884 64.0873L31.5228 64.4331ZM31.1654 64.4293C31.2645 64.3301 31.4258 64.3319 31.5228 64.4331L31.884 64.0873C31.593 63.7835 31.1091 63.7783 30.8117 64.0759L31.1654 64.4293ZM29.6341 65.9619L31.1654 64.4293L30.8117 64.0759L29.2804 65.6085L29.6341 65.9619ZM29.6304 66.3115C29.5364 66.2133 29.5381 66.0581 29.6341 65.9619L29.2804 65.6085C28.9922 65.897 28.9873 66.3628 29.2693 66.6573L29.6304 66.3115ZM34.3073 71.1953L29.6304 66.3115L29.2693 66.6573L33.9461 71.5412L34.3073 71.1953ZM34.5715 71.2582C34.4811 71.2901 34.3773 71.2684 34.3073 71.1953L33.9461 71.5412C34.1573 71.7616 34.4696 71.8244 34.738 71.7296L34.5715 71.2582ZM34.8868 71.1569C34.8325 71.2213 34.7534 71.2511 34.6751 71.2447L34.6344 71.7431C34.8659 71.762 35.1052 71.6732 35.2688 71.4796L34.8868 71.1569ZM35.8658 69.9983L34.8868 71.1569L35.2688 71.4796L36.2477 70.321L35.8658 69.9983ZM36.5416 69.3206L35.8799 69.9829L36.2336 70.3363L36.8954 69.674L36.5416 69.3206ZM36.4837 69.6135L36.5379 69.6702L36.8991 69.3244L36.8448 69.2677L36.4837 69.6135ZM43.512 60.9483L36.4733 69.2793L36.8552 69.602L43.894 61.271L43.512 60.9483ZM43.4976 60.6099C43.5897 60.7018 43.596 60.8489 43.512 60.9483L43.894 61.271C44.1459 60.9729 44.127 60.5314 43.8506 60.2558L43.4976 60.6099ZM41.9655 59.0826L43.4976 60.6099L43.8506 60.2558L42.3185 58.7285L41.9655 59.0826Z" fill="#3469E1"/>
<path d="M55 64H79" stroke="#3469E1" stroke-width="2"/>
<path d="M98.658 67.544V69H92.022V67.67L95.382 64.058C95.774 63.6287 96.0587 63.2367 96.236 62.882C96.4227 62.518 96.516 62.1587 96.516 61.804C96.516 61.356 96.3853 61.02 96.124 60.796C95.872 60.5627 95.4987 60.446 95.004 60.446C94.1173 60.446 93.226 60.7867 92.33 61.468L91.728 60.152C92.12 59.8067 92.6193 59.5313 93.226 59.326C93.842 59.1113 94.458 59.004 95.074 59.004C96.0633 59.004 96.8473 59.2467 97.426 59.732C98.0047 60.2173 98.294 60.8707 98.294 61.692C98.294 62.2613 98.1727 62.798 97.93 63.302C97.6873 63.7967 97.2767 64.352 96.698 64.968L94.276 67.544H98.658Z" fill="#3469E1"/>
<path d="M98.658 67.544H99.658V66.544H98.658V67.544ZM98.658 69V70H99.658V69H98.658ZM92.022 69H91.022V70H92.022V69ZM92.022 67.67L91.2898 66.9889L91.022 67.2768V67.67H92.022ZM95.382 64.058L96.1142 64.7391L96.1205 64.7323L95.382 64.058ZM96.236 62.882L95.3461 62.4257L95.3416 62.4348L96.236 62.882ZM96.124 60.796L95.4446 61.5298L95.4587 61.5428L95.4732 61.5553L96.124 60.796ZM92.33 61.468L91.4206 61.884L91.9405 63.0205L92.9353 62.264L92.33 61.468ZM91.728 60.152L91.067 59.4016L90.5097 59.8926L90.8186 60.568L91.728 60.152ZM93.226 59.326L93.5466 60.2733L93.5551 60.2703L93.226 59.326ZM97.426 59.732L98.0686 58.9658L98.0686 58.9658L97.426 59.732ZM97.93 63.302L98.8278 63.7424L98.831 63.7358L97.93 63.302ZM96.698 64.968L97.4265 65.653L97.4268 65.6527L96.698 64.968ZM94.276 67.544L93.5475 66.859L91.9632 68.544H94.276V67.544ZM97.658 67.544V69H99.658V67.544H97.658ZM98.658 68H92.022V70H98.658V68ZM93.022 69V67.67H91.022V69H93.022ZM92.7542 68.3511L96.1142 64.7391L94.6498 63.3769L91.2898 66.9889L92.7542 68.3511ZM96.1205 64.7323C96.5486 64.2634 96.8975 63.795 97.1304 63.3292L95.3416 62.4348C95.2198 62.6783 94.9994 62.9939 94.6435 63.3837L96.1205 64.7323ZM97.1258 63.3383C97.3738 62.8548 97.516 62.3401 97.516 61.804H95.516C95.516 61.9772 95.4716 62.1812 95.3462 62.4257L97.1258 63.3383ZM97.516 61.804C97.516 61.1581 97.3204 60.5044 96.7748 60.0367L95.4732 61.5553C95.4753 61.557 95.4757 61.5577 95.4763 61.5585C95.4769 61.5594 95.4808 61.565 95.486 61.5784C95.497 61.6066 95.516 61.675 95.516 61.804H97.516ZM96.8034 60.0622C96.2991 59.5953 95.6405 59.446 95.004 59.446V61.446C95.1756 61.446 95.2882 61.4666 95.3567 61.488C95.4213 61.5082 95.4419 61.5272 95.4446 61.5298L96.8034 60.0622ZM95.004 59.446C93.8458 59.446 92.7473 59.8944 91.7247 60.672L92.9353 62.264C93.7047 61.6789 94.3889 61.446 95.004 61.446V59.446ZM93.2394 61.052L92.6374 59.736L90.8186 60.568L91.4206 61.884L93.2394 61.052ZM92.389 60.9024C92.662 60.6619 93.0378 60.4454 93.5466 60.2732L92.9054 58.3788C92.2009 58.6172 91.578 58.9514 91.067 59.4016L92.389 60.9024ZM93.5551 60.2703C94.0716 60.0903 94.5765 60.004 95.074 60.004V58.004C94.3395 58.004 93.6124 58.1323 92.8969 58.3817L93.5551 60.2703ZM95.074 60.004C95.9021 60.004 96.4342 60.2054 96.7834 60.4982L98.0686 58.9658C97.2604 58.288 96.2245 58.004 95.074 58.004V60.004ZM96.7834 60.4982C97.1139 60.7754 97.294 61.137 97.294 61.692H99.294C99.294 60.6044 98.8954 59.6592 98.0686 58.9658L96.7834 60.4982ZM97.294 61.692C97.294 62.1139 97.2053 62.502 97.029 62.8682L98.831 63.7358C99.14 63.094 99.294 62.4088 99.294 61.692H97.294ZM97.0322 62.8616C96.8502 63.2326 96.5119 63.7055 95.9692 64.2833L97.4268 65.6527C98.0414 64.9985 98.5245 64.3607 98.8278 63.7424L97.0322 62.8616ZM95.9695 64.283L93.5475 66.859L95.0045 68.229L97.4265 65.653L95.9695 64.283ZM94.276 68.544H98.658V66.544H94.276V68.544Z" fill="#3469E1"/>
</svg>
