<svg width="128" height="128" viewBox="0 0 128 128" fill="none" xmlns="http://www.w3.org/2000/svg">
<path fill-rule="evenodd" clip-rule="evenodd" d="M41.9008 58.9055C41.6938 58.6991 41.3546 58.7136 41.1659 58.937L34.228 67.1485L31.4622 64.2602C31.2682 64.0577 30.9456 64.0542 30.7474 64.2526L29.2161 65.7852C29.0239 65.9775 29.0206 66.2881 29.2087 66.4844L33.8855 71.3682C34.026 71.515 34.2341 71.5572 34.4135 71.4939C34.5684 71.5066 34.7276 71.4472 34.8366 71.3183L35.8155 70.1596L36.4773 69.4973L36.423 69.4406L43.4618 61.1097C43.6297 60.9109 43.6171 60.6166 43.4329 60.4329L41.9008 58.9055Z" fill="#4080FF"/>
<rect x="24" y="51" width="26" height="26" rx="13" fill="#E8F3FF" stroke="#4080FF" stroke-width="2"/>
<rect x="84" y="53" width="22" height="22" rx="11" fill="#E8F3FF" stroke="#4080FF" stroke-width="2"/>
<path fill-rule="evenodd" clip-rule="evenodd" d="M42.142 58.9055C41.935 58.6991 41.5958 58.7136 41.4071 58.937L34.4692 67.1485L31.7034 64.2602C31.5094 64.0577 31.1868 64.0542 30.9886 64.2526L29.4573 65.7852C29.2652 65.9775 29.2619 66.2881 29.4499 66.4844L34.1267 71.3682C34.2673 71.515 34.4753 71.5572 34.6547 71.4939C34.8096 71.5066 34.9688 71.4472 35.0778 71.3183L36.0567 70.1596L36.7185 69.4973L36.6642 69.4406L43.703 61.1097C43.8709 60.9109 43.8584 60.6166 43.6741 60.4329L42.142 58.9055Z" fill="#4080FF"/>
<path d="M55 64H79" stroke="#94BFFF" stroke-width="2"/>
<path d="M92.12 69V67.67L95.312 64.268C95.7413 63.8013 96.0493 63.3907 96.236 63.036C96.4227 62.672 96.516 62.3033 96.516 61.93C96.516 60.978 95.942 60.502 94.794 60.502C93.898 60.502 93.072 60.838 92.316 61.51L91.714 60.166C92.106 59.8113 92.596 59.5267 93.184 59.312C93.772 59.0973 94.3833 58.99 95.018 58.99C96.0727 58.99 96.88 59.228 97.44 59.704C98.0093 60.18 98.294 60.8613 98.294 61.748C98.294 62.3453 98.1493 62.9193 97.86 63.47C97.58 64.0207 97.1367 64.6133 96.53 65.248L94.36 67.516H98.672V69H92.12Z" fill="#4080FF"/>
</svg>
