<svg width="128" height="128" viewBox="0 0 128 128" fill="none" xmlns="http://www.w3.org/2000/svg">
<rect x="37" y="49" width="54" height="30" rx="1" fill="#1D1D20"/>
<path d="M47.388 60.614H44.168V59.13H52.414V60.614H49.194V69H47.388V60.614ZM55.3422 61.986C56.3035 61.986 57.0175 62.2193 57.4842 62.686C57.9509 63.1527 58.1842 63.8713 58.1842 64.842V69H56.5182V67.95C56.3595 68.314 56.1075 68.5987 55.7622 68.804C55.4262 69.0093 55.0342 69.112 54.5862 69.112C54.1289 69.112 53.7135 69.0187 53.3402 68.832C52.9669 68.6453 52.6729 68.3887 52.4582 68.062C52.2435 67.7353 52.1362 67.3713 52.1362 66.97C52.1362 66.466 52.2622 66.0693 52.5142 65.78C52.7755 65.4907 53.1955 65.2807 53.7742 65.15C54.3529 65.0193 55.1509 64.954 56.1682 64.954H56.5182V64.632C56.5182 64.1653 56.4155 63.8293 56.2102 63.624C56.0142 63.4187 55.6829 63.316 55.2162 63.316C54.8522 63.316 54.4695 63.3813 54.0682 63.512C53.6762 63.6333 53.2889 63.806 52.9062 64.03L52.4162 62.826C52.7989 62.5833 53.2609 62.3827 53.8022 62.224C54.3435 62.0653 54.8569 61.986 55.3422 61.986ZM54.9362 67.852C55.4029 67.852 55.7809 67.698 56.0702 67.39C56.3689 67.0727 56.5182 66.6667 56.5182 66.172V65.878H56.2662C55.6409 65.878 55.1555 65.906 54.8102 65.962C54.4649 66.018 54.2175 66.116 54.0682 66.256C53.9189 66.396 53.8442 66.5873 53.8442 66.83C53.8442 67.1287 53.9469 67.376 54.1522 67.572C54.3575 67.7587 54.6189 67.852 54.9362 67.852ZM66.6267 62.154V68.37C66.6267 69.4433 66.3281 70.2553 65.7307 70.806C65.1427 71.3567 64.2701 71.632 63.1127 71.632C62.5154 71.632 61.9414 71.5527 61.3907 71.394C60.8401 71.2447 60.3594 71.03 59.9487 70.75L60.4387 69.518C61.2881 70.0313 62.1654 70.288 63.0707 70.288C64.2841 70.288 64.8907 69.6907 64.8907 68.496V67.6C64.6854 67.9827 64.3867 68.2813 63.9947 68.496C63.6027 68.7013 63.1547 68.804 62.6507 68.804C62.0534 68.804 61.5214 68.664 61.0547 68.384C60.5974 68.0947 60.2381 67.6933 59.9767 67.18C59.7154 66.6667 59.5847 66.074 59.5847 65.402C59.5847 64.73 59.7107 64.1373 59.9627 63.624C60.2241 63.1013 60.5881 62.7 61.0547 62.42C61.5214 62.1307 62.0534 61.986 62.6507 61.986C63.1547 61.986 63.6027 62.0933 63.9947 62.308C64.3867 62.5133 64.6854 62.8073 64.8907 63.19V62.154H66.6267ZM63.1127 67.446C63.6727 67.446 64.1067 67.264 64.4147 66.9C64.7321 66.536 64.8907 66.0367 64.8907 65.402C64.8907 64.758 64.7321 64.254 64.4147 63.89C64.1067 63.526 63.6727 63.344 63.1127 63.344C62.5621 63.344 62.1281 63.526 61.8107 63.89C61.4934 64.254 61.3347 64.758 61.3347 65.402C61.3347 66.0273 61.4934 66.5267 61.8107 66.9C62.1281 67.264 62.5621 67.446 63.1127 67.446Z" fill="#4C87FF"/>
<path d="M81.2983 60.3486C81.1031 60.1533 80.7865 60.1533 80.5912 60.3486L78.0002 62.9396L75.4093 60.3486C75.214 60.1533 74.8974 60.1533 74.7021 60.3486L74.3486 60.7021C74.1533 60.8974 74.1533 61.214 74.3486 61.4093L76.9396 64.0002L74.3486 66.5912C74.1533 66.7865 74.1533 67.1031 74.3486 67.2983L74.7021 67.6519C74.8974 67.8472 75.214 67.8472 75.4093 67.6519L78.0002 65.0609L80.5912 67.6519C80.7865 67.8472 81.1031 67.8472 81.2983 67.6519L81.6519 67.2983C81.8472 67.1031 81.8472 66.7865 81.6519 66.5912L79.0609 64.0002L81.6519 61.4093C81.8472 61.214 81.8472 60.8974 81.6519 60.7021L81.2983 60.3486Z" fill="#4C87FF"/>
<rect x="37" y="49" width="54" height="30" rx="1" stroke="#4C87FF" stroke-width="2"/>
</svg>
