<svg width="128" height="128" viewBox="0 0 128 128" fill="none" xmlns="http://www.w3.org/2000/svg">
<rect x="37" y="49" width="54" height="30" rx="1" fill="#E8F3FF"/>
<path d="M47.388 60.6139H44.168V59.1299H52.414V60.6139H49.194V68.9999H47.388V60.6139Z" fill="#165DFF"/>
<path d="M55.3422 61.9859C56.3035 61.9859 57.0175 62.2192 57.4842 62.6859C57.9508 63.1526 58.1842 63.8712 58.1842 64.8419V68.9999H56.5182V67.9499C56.3595 68.3139 56.1075 68.5986 55.7622 68.8039C55.4262 69.0092 55.0342 69.1119 54.5862 69.1119C54.1288 69.1119 53.7135 69.0186 53.3402 68.8319C52.9668 68.6452 52.6728 68.3886 52.4582 68.0619C52.2435 67.7352 52.1362 67.3712 52.1362 66.9699C52.1362 66.4659 52.2622 66.0692 52.5142 65.7799C52.7755 65.4906 53.1955 65.2805 53.7742 65.1499C54.3528 65.0192 55.1508 64.9539 56.1682 64.9539H56.5182V64.6319C56.5182 64.1652 56.4155 63.8292 56.2102 63.6239C56.0142 63.4185 55.6828 63.3159 55.2162 63.3159C54.8522 63.3159 54.4695 63.3812 54.0682 63.5119C53.6762 63.6332 53.2888 63.8059 52.9062 64.0299L52.4162 62.8259C52.7988 62.5832 53.2608 62.3826 53.8022 62.2239C54.3435 62.0652 54.8568 61.9859 55.3422 61.9859ZM54.9362 67.8519C55.4028 67.8519 55.7808 67.6979 56.0702 67.3899C56.3688 67.0726 56.5182 66.6666 56.5182 66.1719V65.8779H56.2662C55.6408 65.8779 55.1555 65.9059 54.8102 65.9619C54.4648 66.0179 54.2175 66.1159 54.0682 66.2559C53.9188 66.3959 53.8442 66.5872 53.8442 66.8299C53.8442 67.1286 53.9468 67.3759 54.1522 67.5719C54.3575 67.7585 54.6188 67.8519 54.9362 67.8519Z" fill="#165DFF"/>
<path d="M66.6267 62.1539V68.3699C66.6267 69.4432 66.328 70.2552 65.7307 70.8059C65.1427 71.3566 64.27 71.6319 63.1127 71.6319C62.5154 71.6319 61.9414 71.5526 61.3907 71.3939C60.84 71.2446 60.3594 71.0299 59.9487 70.7499L60.4387 69.5179C61.288 70.0312 62.1654 70.2879 63.0707 70.2879C64.284 70.2879 64.8907 69.6906 64.8907 68.4959V67.5999C64.6854 67.9826 64.3867 68.2812 63.9947 68.4959C63.6027 68.7012 63.1547 68.8039 62.6507 68.8039C62.0534 68.8039 61.5214 68.6639 61.0547 68.3839C60.5974 68.0946 60.238 67.6932 59.9767 67.1799C59.7154 66.6666 59.5847 66.0739 59.5847 65.4019C59.5847 64.7299 59.7107 64.1372 59.9627 63.6239C60.224 63.1012 60.588 62.6999 61.0547 62.4199C61.5214 62.1306 62.0534 61.9859 62.6507 61.9859C63.1547 61.9859 63.6027 62.0932 63.9947 62.3079C64.3867 62.5132 64.6854 62.8072 64.8907 63.1899V62.1539H66.6267ZM63.1127 67.4459C63.6727 67.4459 64.1067 67.2639 64.4147 66.8999C64.732 66.5359 64.8907 66.0366 64.8907 65.4019C64.8907 64.7579 64.732 64.2539 64.4147 63.8899C64.1067 63.5259 63.6727 63.3439 63.1127 63.3439C62.562 63.3439 62.128 63.5259 61.8107 63.8899C61.4934 64.2539 61.3347 64.7579 61.3347 65.4019C61.3347 66.0272 61.4934 66.5265 61.8107 66.8999C62.128 67.2639 62.562 67.4459 63.1127 67.4459Z" fill="#165DFF"/>
<path d="M81.2983 60.3486C81.1031 60.1533 80.7865 60.1533 80.5912 60.3486L78.0002 62.9396L75.4093 60.3486C75.214 60.1533 74.8974 60.1533 74.7021 60.3486L74.3486 60.7021C74.1533 60.8974 74.1533 61.214 74.3486 61.4093L76.9396 64.0002L74.3486 66.5912C74.1533 66.7865 74.1533 67.1031 74.3486 67.2983L74.7021 67.6519C74.8974 67.8472 75.214 67.8472 75.4093 67.6519L78.0002 65.0609L80.5912 67.6519C80.7865 67.8472 81.1031 67.8472 81.2983 67.6519L81.6519 67.2983C81.8472 67.1031 81.8472 66.7865 81.6519 66.5912L79.0609 64.0002L81.6519 61.4093C81.8472 61.214 81.8472 60.8974 81.6519 60.7021L81.2983 60.3486Z" fill="#165DFF"/>
<rect x="37" y="49" width="54" height="30" rx="1" stroke="#165DFF" stroke-width="2"/>
</svg>
