<svg width="128" height="128" viewBox="0 0 128 128" fill="none" xmlns="http://www.w3.org/2000/svg">
<g clip-path="url(#clip0)">
<rect x="25" y="45" width="113" height="38" rx="1" fill="#1D1D20"/>
<path fill-rule="evenodd" clip-rule="evenodd" d="M45.9984 55.979C50.4282 55.979 54.0192 59.5701 54.0192 63.9998C54.0192 68.4296 50.4282 72.0207 45.9984 72.0207C41.5686 72.0207 37.9775 68.4296 37.9775 63.9998C37.9775 59.5701 41.5686 55.979 45.9984 55.979ZM45.9984 57.8019C42.5754 57.8019 39.8005 60.5768 39.8005 63.9998C39.8005 67.4229 42.5754 70.1978 45.9984 70.1978C49.4214 70.1978 52.1963 67.4229 52.1963 63.9998C52.1963 60.5768 49.4214 57.8019 45.9984 57.8019ZM46.6282 60.354C46.8296 60.354 46.9928 60.5172 46.9928 60.7186V63.2707H49.2796C49.481 63.2707 49.6442 63.4339 49.6442 63.6353V64.5818C49.6442 64.7832 49.481 64.9464 49.2796 64.9464H45.6338C45.4324 64.9464 45.2692 64.7832 45.2692 64.5818V60.7186C45.2692 60.5172 45.4324 60.354 45.6338 60.354H46.6282Z" fill="#4C87FF"/>
<rect x="25" y="45" width="113" height="38" rx="1" stroke="#3469E1" stroke-width="2"/>
<path d="M73.63 68.47V70H66.214V68.47H68.986V59.524L66.772 60.874L65.98 59.488L69.508 57.31H70.84V68.47H73.63ZM80.193 70.144C78.717 70.144 77.589 69.592 76.809 68.488C76.041 67.384 75.657 65.776 75.657 63.664C75.657 61.552 76.041 59.944 76.809 58.84C77.589 57.724 78.717 57.166 80.193 57.166C81.669 57.166 82.791 57.718 83.559 58.822C84.339 59.926 84.729 61.534 84.729 63.646C84.729 65.77 84.339 67.384 83.559 68.488C82.791 69.592 81.669 70.144 80.193 70.144ZM80.193 68.65C81.117 68.65 81.795 68.248 82.227 67.444C82.659 66.64 82.875 65.374 82.875 63.646C82.875 61.93 82.659 60.676 82.227 59.884C81.795 59.08 81.117 58.678 80.193 58.678C79.269 58.678 78.591 59.08 78.159 59.884C77.727 60.676 77.511 61.93 77.511 63.646C77.511 65.362 77.727 66.628 78.159 67.444C78.591 68.248 79.269 68.65 80.193 68.65ZM88.7899 61.216V63.358H86.6479V61.216H88.7899ZM88.7899 67.858V70H86.6479V67.858H88.7899ZM99.505 68.47V70H92.089V68.47H94.861V59.524L92.647 60.874L91.855 59.488L95.383 57.31H96.715V68.47H99.505ZM106.068 70.144C104.592 70.144 103.464 69.592 102.684 68.488C101.916 67.384 101.532 65.776 101.532 63.664C101.532 61.552 101.916 59.944 102.684 58.84C103.464 57.724 104.592 57.166 106.068 57.166C107.544 57.166 108.666 57.718 109.434 58.822C110.214 59.926 110.604 61.534 110.604 63.646C110.604 65.77 110.214 67.384 109.434 68.488C108.666 69.592 107.544 70.144 106.068 70.144ZM106.068 68.65C106.992 68.65 107.67 68.248 108.102 67.444C108.534 66.64 108.75 65.374 108.75 63.646C108.75 61.93 108.534 60.676 108.102 59.884C107.67 59.08 106.992 58.678 106.068 58.678C105.144 58.678 104.466 59.08 104.034 59.884C103.602 60.676 103.386 61.93 103.386 63.646C103.386 65.362 103.602 66.628 104.034 67.444C104.466 68.248 105.144 68.65 106.068 68.65Z" fill="#4C87FF"/>
</g>
<defs>
<clipPath id="clip0">
<rect width="128" height="128" fill="white"/>
</clipPath>
</defs>
</svg>
