<svg width="128" height="128" viewBox="0 0 128 128" fill="none" xmlns="http://www.w3.org/2000/svg">
<g clip-path="url(#clip0)">
<rect x="25" y="45" width="113" height="38" rx="1" fill="#E8F3FF"/>
<path fill-rule="evenodd" clip-rule="evenodd" d="M45.9984 55.9795C50.4282 55.9795 54.0192 59.5705 54.0192 64.0003C54.0192 68.4301 50.4282 72.0212 45.9984 72.0212C41.5686 72.0212 37.9775 68.4301 37.9775 64.0003C37.9775 59.5705 41.5686 55.9795 45.9984 55.9795ZM45.9984 57.8024C42.5754 57.8024 39.8005 60.5773 39.8005 64.0003C39.8005 67.4233 42.5754 70.1982 45.9984 70.1982C49.4214 70.1982 52.1963 67.4233 52.1963 64.0003C52.1963 60.5773 49.4214 57.8024 45.9984 57.8024ZM46.6282 60.3545C46.8296 60.3545 46.9928 60.5177 46.9928 60.7191V63.2712H49.2796C49.481 63.2712 49.6442 63.4344 49.6442 63.6357V64.5823C49.6442 64.7837 49.481 64.9469 49.2796 64.9469H45.6338C45.4324 64.9469 45.2692 64.7837 45.2692 64.5823V60.7191C45.2692 60.5177 45.4324 60.3545 45.6338 60.3545H46.6282Z" fill="#165DFF"/>
<rect x="25" y="45" width="113" height="38" rx="1" stroke="#4080FF" stroke-width="2"/>
<path d="M70.8405 68.47H73.6305V70H66.2145V68.47H68.9865V59.524L66.7725 60.874L65.9805 59.488L69.5085 57.31H70.8405V68.47Z" fill="#165DFF"/>
<path d="M80.1934 70.144C78.7174 70.144 77.5894 69.592 76.8094 68.488C76.0414 67.384 75.6574 65.776 75.6574 63.664C75.6574 61.552 76.0414 59.944 76.8094 58.84C77.5894 57.724 78.7174 57.166 80.1934 57.166C81.6694 57.166 82.7914 57.718 83.5594 58.822C84.3394 59.926 84.7294 61.534 84.7294 63.646C84.7294 65.77 84.3394 67.384 83.5594 68.488C82.7914 69.592 81.6694 70.144 80.1934 70.144ZM80.1934 68.65C81.1174 68.65 81.7954 68.248 82.2274 67.444C82.6594 66.64 82.8754 65.374 82.8754 63.646C82.8754 61.93 82.6594 60.676 82.2274 59.884C81.7954 59.08 81.1174 58.678 80.1934 58.678C79.2694 58.678 78.5914 59.08 78.1594 59.884C77.7274 60.676 77.5114 61.93 77.5114 63.646C77.5114 65.362 77.7274 66.628 78.1594 67.444C78.5914 68.248 79.2694 68.65 80.1934 68.65Z" fill="#165DFF"/>
<path d="M86.6484 61.216H88.7904V63.358H86.6484V61.216ZM86.6484 67.858H88.7904V70H86.6484V67.858Z" fill="#165DFF"/>
<path d="M96.7155 68.47H99.5055V70H92.0895V68.47H94.8615V59.524L92.6475 60.874L91.8555 59.488L95.3835 57.31H96.7155V68.47Z" fill="#165DFF"/>
<path d="M106.068 70.144C104.592 70.144 103.464 69.592 102.684 68.488C101.916 67.384 101.532 65.776 101.532 63.664C101.532 61.552 101.916 59.944 102.684 58.84C103.464 57.724 104.592 57.166 106.068 57.166C107.544 57.166 108.666 57.718 109.434 58.822C110.214 59.926 110.604 61.534 110.604 63.646C110.604 65.77 110.214 67.384 109.434 68.488C108.666 69.592 107.544 70.144 106.068 70.144ZM106.068 68.65C106.992 68.65 107.67 68.248 108.102 67.444C108.534 66.64 108.75 65.374 108.75 63.646C108.75 61.93 108.534 60.676 108.102 59.884C107.67 59.08 106.992 58.678 106.068 58.678C105.144 58.678 104.466 59.08 104.034 59.884C103.602 60.676 103.386 61.93 103.386 63.646C103.386 65.362 103.602 66.628 104.034 67.444C104.466 68.248 105.144 68.65 106.068 68.65Z" fill="#165DFF"/>
</g>
<defs>
<clipPath id="clip0">
<rect width="128" height="128" fill="white"/>
</clipPath>
</defs>
</svg>
