<svg width="128" height="128" viewBox="0 0 128 128" fill="none" xmlns="http://www.w3.org/2000/svg">
<rect x="47.5" y="30.5" width="5" height="5" rx="2.5" fill="#3469E1"/>
<rect x="57" y="30" width="17" height="2" rx="1" fill="#3469E1"/>
<rect x="57" y="34" width="32" height="2" rx="1" fill="#1D1D20"/>
<rect x="47.5" y="30.5" width="5" height="5" rx="2.5" stroke="#3469E1"/>
<path d="M50 40V50" stroke="#3469E1" stroke-width="2"/>
<path d="M50 64V74" stroke="#3469E1" stroke-width="2"/>
<path d="M50 88V98" stroke="#3469E1" stroke-width="2"/>
<rect x="47.5" y="54.5" width="5" height="5" rx="2.5" fill="#3469E1"/>
<rect x="57" y="54" width="17" height="2" rx="1" fill="#3469E1"/>
<rect x="57" y="58" width="32" height="2" rx="1" fill="#1D1D20"/>
<rect x="47.5" y="54.5" width="5" height="5" rx="2.5" stroke="#3469E1"/>
<rect x="47.5" y="78.5" width="5" height="5" rx="2.5" fill="#3469E1"/>
<rect x="57" y="77" width="17" height="2" rx="1" fill="#303857"/>
<rect x="57" y="81" width="32" height="2" rx="1" fill="#1D1D20"/>
<rect x="47.5" y="78.5" width="5" height="5" rx="2.5" stroke="#3469E1"/>
</svg>
