<svg width="128" height="128" viewBox="0 0 128 128" fill="none" xmlns="http://www.w3.org/2000/svg">
<mask id="path-1-inside-1" fill="white">
<path fill-rule="evenodd" clip-rule="evenodd" d="M42 50C40.8954 50 40 50.8954 40 52V73C40 74.1046 40.8954 75 42 75H58L62.3753 78.5002C62.7405 78.7924 63.2595 78.7924 63.6247 78.5002L68 75H85C86.1046 75 87 74.1046 87 73V52C87 50.8954 86.1046 50 85 50H42Z"/>
</mask>
<path fill-rule="evenodd" clip-rule="evenodd" d="M42 50C40.8954 50 40 50.8954 40 52V73C40 74.1046 40.8954 75 42 75H58L62.3753 78.5002C62.7405 78.7924 63.2595 78.7924 63.6247 78.5002L68 75H85C86.1046 75 87 74.1046 87 73V52C87 50.8954 86.1046 50 85 50H42Z" fill="#1D1D20"/>
<path d="M58 75L59.2494 73.4383L58.7016 73H58V75ZM63.6247 78.5002L62.3753 76.9385L63.6247 78.5002ZM68 75V73H67.2984L66.7506 73.4383L68 75ZM42 52L42 52V48C39.7909 48 38 49.7909 38 52H42ZM42 73V52H38V73H42ZM42 73H42H38C38 75.2091 39.7909 77 42 77V73ZM58 73H42V77H58V73ZM56.7506 76.5617L61.1259 80.062L63.6247 76.9385L59.2494 73.4383L56.7506 76.5617ZM61.1259 80.062C62.2216 80.9385 63.7784 80.9385 64.8741 80.062L62.3753 76.9385C62.7405 76.6463 63.2595 76.6463 63.6247 76.9385L61.1259 80.062ZM64.8741 80.062L69.2494 76.5617L66.7506 73.4383L62.3753 76.9385L64.8741 80.062ZM85 73H68V77H85V73ZM85 73V77C87.2091 77 89 75.2091 89 73H85ZM85 52V73H89V52H85ZM85 52H89C89 49.7909 87.2091 48 85 48V52ZM42 52H85V48H42V52Z" fill="#3469E1" mask="url(#path-1-inside-1)"/>
<path d="M62.1206 64.668V66.068H60.7346V68H58.9706V66.068H54.6866V64.738L59.2786 58.13H60.7346V64.668H62.1206ZM56.3666 64.668H58.9706V60.902L56.3666 64.668ZM70.1512 66.544V68H63.5152V66.67L66.8752 63.058C67.2672 62.6287 67.5518 62.2367 67.7292 61.882C67.9158 61.518 68.0092 61.1587 68.0092 60.804C68.0092 60.356 67.8785 60.02 67.6172 59.796C67.3652 59.5627 66.9918 59.446 66.4972 59.446C65.6105 59.446 64.7192 59.7867 63.8232 60.468L63.2212 59.152C63.6132 58.8067 64.1125 58.5313 64.7192 58.326C65.3352 58.1113 65.9512 58.004 66.5672 58.004C67.5565 58.004 68.3405 58.2467 68.9192 58.732C69.4978 59.2173 69.7872 59.8707 69.7872 60.692C69.7872 61.2613 69.6658 61.798 69.4232 62.302C69.1805 62.7967 68.7698 63.352 68.1912 63.968L65.7692 66.544H70.1512Z" fill="#3469E1"/>
</svg>
