<svg width="128" height="128" viewBox="0 0 128 128" fill="none" xmlns="http://www.w3.org/2000/svg">
<mask id="path-1-inside-1" fill="white">
<path fill-rule="evenodd" clip-rule="evenodd" d="M42 50C40.8954 50 40 50.8954 40 52V73C40 74.1046 40.8954 75 42 75H58L62.3753 78.5002C62.7405 78.7924 63.2595 78.7924 63.6247 78.5002L68 75H85C86.1046 75 87 74.1046 87 73V52C87 50.8954 86.1046 50 85 50H42Z"/>
</mask>
<path fill-rule="evenodd" clip-rule="evenodd" d="M42 50C40.8954 50 40 50.8954 40 52V73C40 74.1046 40.8954 75 42 75H58L62.3753 78.5002C62.7405 78.7924 63.2595 78.7924 63.6247 78.5002L68 75H85C86.1046 75 87 74.1046 87 73V52C87 50.8954 86.1046 50 85 50H42Z" fill="#E8F3FF"/>
<path d="M58 75L59.2494 73.4383L58.7016 73H58V75ZM63.6247 78.5002L62.3753 76.9385L63.6247 78.5002ZM68 75V73H67.2984L66.7506 73.4383L68 75ZM42 52L42 52V48C39.7909 48 38 49.7909 38 52H42ZM42 73V52H38V73H42ZM42 73H42H38C38 75.2091 39.7909 77 42 77V73ZM58 73H42V77H58V73ZM56.7506 76.5617L61.1259 80.062L63.6247 76.9385L59.2494 73.4383L56.7506 76.5617ZM61.1259 80.062C62.2216 80.9385 63.7784 80.9385 64.8741 80.062L62.3753 76.9385C62.7405 76.6463 63.2595 76.6463 63.6247 76.9385L61.1259 80.062ZM64.8741 80.062L69.2494 76.5617L66.7506 73.4383L62.3753 76.9385L64.8741 80.062ZM85 73H68V77H85V73ZM85 73V77C87.2091 77 89 75.2091 89 73H85ZM85 52V73H89V52H85ZM85 52H89C89 49.7909 87.2091 48 85 48V52ZM42 52H85V48H42V52Z" fill="#4080FF" mask="url(#path-1-inside-1)"/>
<path d="M58.9915 68V66.124H54.6935V64.808L59.2995 58.13H60.7835V64.64H62.1695V66.124H60.7835V68H58.9915ZM58.9915 64.64V60.874L56.4155 64.64H58.9915ZM63.62 68V66.67L66.812 63.268C67.2413 62.8013 67.5493 62.3907 67.736 62.036C67.9227 61.672 68.016 61.3033 68.016 60.93C68.016 59.978 67.442 59.502 66.294 59.502C65.398 59.502 64.572 59.838 63.816 60.51L63.214 59.166C63.606 58.8113 64.096 58.5267 64.684 58.312C65.272 58.0973 65.8833 57.99 66.518 57.99C67.5727 57.99 68.38 58.228 68.94 58.704C69.5093 59.18 69.794 59.8613 69.794 60.748C69.794 61.3453 69.6493 61.9193 69.36 62.47C69.08 63.0207 68.6367 63.6133 68.03 64.248L65.86 66.516H70.172V68H63.62Z" fill="#4080FF"/>
</svg>
