<svg width="128" height="128" viewBox="0 0 128 128" fill="none" xmlns="http://www.w3.org/2000/svg">
<rect x="20" y="41" width="34" height="46" rx="1" fill="#1D1D20"/>
<rect x="25" y="48" width="24" height="2" rx="1" fill="#303857"/>
<rect x="25" y="58" width="24" height="2" rx="1" fill="#303857"/>
<rect x="25" y="68" width="24" height="2" rx="1" fill="#303857"/>
<rect x="25" y="78" width="24" height="2" rx="1" fill="#303857"/>
<rect x="20" y="41" width="34" height="46" rx="1" stroke="#3469E1" stroke-width="2"/>
<rect x="73" y="41" width="34" height="46" rx="1" fill="#1D1D20"/>
<rect x="78" y="48" width="24" height="2" rx="1" fill="#303857"/>
<rect x="78" y="58" width="24" height="2" rx="1" fill="#303857"/>
<rect x="78" y="68" width="24" height="2" rx="1" fill="#303857"/>
<rect x="78" y="78" width="24" height="2" rx="1" fill="#303857"/>
<rect x="73" y="41" width="34" height="46" rx="1" stroke="#3469E1" stroke-width="2"/>
<path d="M64.9404 53.2869C65.1402 53.162 65.3994 53.3056 65.3994 53.5413L65.3994 58.4587C65.3994 58.6944 65.1402 58.838 64.9404 58.7131L61.2778 56.424C60.9645 56.2282 60.9645 55.7718 61.2778 55.576L64.9404 53.2869Z" fill="#4C87FF"/>
<path d="M61.4092 75.4006C61.2094 75.5255 60.9502 75.3819 60.9502 75.1462L60.9502 69.8538C60.9502 69.6181 61.2094 69.4745 61.4092 69.5994L65.3718 72.076C65.6851 72.2718 65.6851 72.7282 65.3718 72.924L61.4092 75.4006Z" fill="#4C87FF"/>
</svg>
