<svg width="128" height="128" viewBox="0 0 128 128" fill="none" xmlns="http://www.w3.org/2000/svg">
<rect x="29" y="48" width="70" height="59" rx="1" fill="#1D1D20" stroke="#3469E1" stroke-width="2"/>
<rect x="50" y="56" width="36" height="2" rx="1" fill="#3469E1"/>
<rect x="58" y="66" width="28" height="2" rx="1" fill="#303857"/>
<rect x="66" y="76" width="20" height="2" rx="1" fill="#303857"/>
<rect x="66" y="86" width="20" height="2" rx="1" fill="#303857"/>
<path d="M48 55L45 59L42 55L48 55Z" fill="#3469E1"/>
<path d="M43 94L47 97L43 100V94Z" fill="#3469E1"/>
<path d="M56 65L53 69L50 65L56 65Z" fill="#303857"/>
<rect x="50" y="96" width="36" height="2" rx="1" fill="#3469E1"/>
<rect x="28" y="19" width="72" height="24" rx="2" fill="#1D1D20"/>
<path d="M92.7783 32.9906C92.5831 33.1859 92.2665 33.1859 92.0712 32.9906L89.8911 30.8105L87.7736 32.9281C87.5783 33.1234 87.2617 33.1234 87.0665 32.9281L86.7129 32.5746C86.5176 32.3793 86.5176 32.0627 86.7129 31.8675L89.5413 29.039C89.7366 28.8438 90.0532 28.8438 90.2484 29.039L90.602 29.3926C90.6195 29.4101 90.6355 29.4286 90.6498 29.4479L93.1319 31.9299C93.3271 32.1252 93.3271 32.4418 93.1319 32.637L92.7783 32.9906Z" fill="#3469E1"/>
</svg>
