<svg width="128" height="128" viewBox="0 0 128 128" fill="none" xmlns="http://www.w3.org/2000/svg">
<rect x="58.3013" y="38" width="18.8" height="4" rx="2" fill="#3469E1"/>
<rect x="58.3013" y="50" width="47" height="4" rx="2" fill="#303857"/>
<rect x="58.3013" y="62" width="47" height="4" rx="2" fill="#303857"/>
<rect x="58.3013" y="74" width="34.075" height="4" rx="2" fill="#303857"/>
<rect x="58.3013" y="86" width="34.075" height="4" rx="2" fill="#303857"/>
<path d="M23 50.9868L28.9684 38H31.2711L37.2395 50.9868H34.3658L33.15 48.1684H27.0895L25.8921 50.9868H23ZM30.0921 41.0395L28.0474 45.9395H32.2105L30.1289 41.0395H30.0921Z" fill="#3469E1"/>
<path d="M41.1803 51.1895C40.5048 51.1895 39.9092 51.0605 39.3934 50.8026C38.8777 50.5447 38.4662 50.1947 38.1592 49.7526C37.8645 49.3105 37.7171 48.8132 37.7171 48.2605C37.7171 47.6096 37.8891 47.0877 38.2329 46.6947C38.5768 46.3018 39.1355 46.0254 39.9092 45.8658C40.6829 45.6939 41.7084 45.6079 42.9855 45.6079H43.6487V45.2947C43.6487 44.7544 43.5259 44.3737 43.2803 44.1526C43.0347 43.9193 42.6171 43.8026 42.0277 43.8026C41.5364 43.8026 41.0145 43.8825 40.4619 44.0421C39.9215 44.1895 39.3812 44.4167 38.8408 44.7237L38.0855 42.8632C38.4048 42.6544 38.7917 42.464 39.2461 42.2921C39.7127 42.1202 40.1978 41.9912 40.7013 41.9053C41.2048 41.807 41.6838 41.7579 42.1382 41.7579C43.5382 41.7579 44.582 42.0772 45.2698 42.7158C45.9575 43.3421 46.3013 44.3184 46.3013 45.6447V50.9868H43.704V49.6237C43.5198 50.1026 43.2066 50.4833 42.7645 50.7658C42.3347 51.0482 41.8066 51.1895 41.1803 51.1895ZM41.8066 49.3289C42.3224 49.3289 42.7584 49.1509 43.1145 48.7947C43.4706 48.4386 43.6487 47.9781 43.6487 47.4132V47.0447H43.004C42.0584 47.0447 41.3891 47.1307 40.9961 47.3026C40.6031 47.4623 40.4066 47.7447 40.4066 48.15C40.4066 48.4939 40.5233 48.7763 40.7566 48.9974C41.0022 49.2184 41.3522 49.3289 41.8066 49.3289Z" fill="#3469E1"/>
</svg>
