<svg width="128" height="128" viewBox="0 0 128 128" fill="none" xmlns="http://www.w3.org/2000/svg">
<rect x="41" y="41" width="46" height="46" rx="3" fill="#E8F3FF" stroke="#4080FF" stroke-width="2"/>
<path fill-rule="evenodd" clip-rule="evenodd" d="M63.167 58.666C62.8909 58.666 62.667 58.8899 62.667 59.166V62.666H59.167C58.8908 62.666 58.667 62.8899 58.667 63.166V64.8327C58.667 65.1088 58.8909 65.3327 59.167 65.3327H62.667V68.8327C62.667 69.1088 62.8909 69.3327 63.167 69.3327H64.8337C65.1098 69.3327 65.3337 69.1088 65.3337 68.8327V65.3327H68.8337C69.1098 65.3327 69.3337 65.1088 69.3337 64.8327V63.166C69.3337 62.8899 69.1098 62.666 68.8337 62.666H65.3337V59.166C65.3337 58.8899 65.1098 58.666 64.8337 58.666H63.167Z" fill="#4080FF"/>
</svg>
