<svg
  width="17"
  height="17"
  viewBox="0 0 17 17"
  fill="none"
  xmlns="http://www.w3.org/2000/svg"
>
  <path
    d="M8.41813 15.1666C4.73613 15.1666 1.75146 12.1819 1.75146 8.49992C1.75146 4.81792 4.73613 1.83325 8.41813 1.83325C12.1001 1.83325 15.0848 4.81792 15.0848 8.49992C15.0848 12.1819 12.1001 15.1666 8.41813 15.1666ZM6.89147 13.6113C6.23374 12.2161 5.85271 10.7067 5.76947 9.16659H3.12613C3.25586 10.1925 3.68075 11.1587 4.34918 11.9477C5.01761 12.7368 5.90081 13.3147 6.89147 13.6113ZM7.1048 9.16659C7.20546 10.7926 7.67013 12.3199 8.41813 13.6679C9.18634 12.2843 9.63509 10.7462 9.73147 9.16659H7.1048ZM13.7101 9.16659H11.0668C10.9836 10.7067 10.6025 12.2161 9.9448 13.6113C10.9355 13.3147 11.8187 12.7368 12.4871 11.9477C13.1555 11.1587 13.5804 10.1925 13.7101 9.16659ZM3.12613 7.83325H5.76947C5.85271 6.29311 6.23374 4.78371 6.89147 3.38859C5.90081 3.68517 5.01761 4.26309 4.34918 5.05212C3.68075 5.84114 3.25586 6.80732 3.12613 7.83325ZM7.10546 7.83325H9.7308C9.63463 6.25365 9.18611 4.71561 8.41813 3.33192C7.64992 4.71555 7.20117 6.2536 7.1048 7.83325H7.10546ZM9.9448 3.38859C10.6025 4.78371 10.9836 6.29311 11.0668 7.83325H13.7101C13.5804 6.80732 13.1555 5.84114 12.4871 5.05212C11.8187 4.26309 10.9355 3.68517 9.9448 3.38859Z"
    fill="#C9CDD4"
  />
</svg>