<svg
  width="112"
  height="63"
  viewBox="0 0 112 63"
  fill="none"
  xmlns="http://www.w3.org/2000/svg"
>
  <path
    d="M2 59L27.7478 4H39.0613L64.8091 59H50.4527L45.6933 47.844H21.1158L16.3564 59H2ZM33.2875 18.9787L25.7972 36.844H40.9338L33.4436 18.9787H33.2875Z"
    fill="#4E5969"
  />
  <path
    d="M84.6976 58.9996C81.7061 58.9996 79.0557 58.4586 76.7465 57.3767C74.4897 56.2947 72.7053 54.8264 71.3933 52.9717C70.1337 51.0654 69.5039 48.9016 69.5039 46.4801C69.5039 43.7495 70.2387 41.5857 71.7082 39.9885C73.1777 38.3399 75.5394 37.1807 78.7933 36.5109C82.0472 35.7896 86.377 35.429 91.7827 35.429H94.7742V34.3471C94.7742 32.4923 94.2756 31.1786 93.2785 30.4057C92.3338 29.6329 90.6806 29.2465 88.3189 29.2465C86.3245 29.2465 84.1203 29.5557 81.7061 30.1739C79.2919 30.7921 76.9302 31.7453 74.6209 33.0333L71.0784 23.9915C72.3904 23.0641 74.0699 22.2398 76.1167 21.5185C78.1635 20.7972 80.3153 20.2562 82.572 19.8956C84.8288 19.4834 86.9543 19.2773 88.9487 19.2773C95.404 19.2773 100.18 20.6426 103.276 23.3732C106.425 26.1038 108 30.4057 108 36.2791V58.1495H94.9317V52.7398C94.2494 54.6976 93.0161 56.2432 91.2316 57.3767C89.4472 58.4586 87.2692 58.9996 84.6976 58.9996ZM87.8465 50.035C89.7884 50.035 91.4153 49.4168 92.7274 48.1803C94.0919 46.9438 94.7742 45.3209 94.7742 43.3116V41.9206H91.7827C88.6862 41.9206 86.4033 42.2554 84.9338 42.9252C83.5167 43.5434 82.8082 44.5481 82.8082 45.9391C82.8082 47.1241 83.2281 48.103 84.0678 48.8758C84.96 49.6486 86.2196 50.035 87.8465 50.035Z"
    fill="#4E5969"
  />
  <rect
    x="4.39291"
    y="3.39291"
    width="104.214"
    height="56.2142"
    stroke="#5F00FB"
    strokeWidth="1.21417"
  />
  <rect
    x="1.39291"
    y="1.39291"
    width="5.21417"
    height="5.21417"
    fill="white"
    stroke="#5F00FB"
    strokeWidth="1.21417"
  />
  <rect
    x="105.393"
    y="1.39291"
    width="5.21417"
    height="5.21417"
    fill="white"
    stroke="#5F00FB"
    strokeWidth="1.21417"
  />
  <rect
    x="1.39291"
    y="56.8919"
    width="5.21417"
    height="5.21417"
    fill="white"
    stroke="#5F00FB"
    strokeWidth="1.21417"
  />
  <rect
    x="105.393"
    y="56.89"
    width="5.21417"
    height="5.21417"
    fill="white"
    stroke="#5F00FB"
    strokeWidth="1.21417"
  />
</svg>