<svg width="63" height="13" viewBox="0 0 63 13" fill="none" xmlns="http://www.w3.org/2000/svg">
<ellipse cx="25.5395" cy="9.29222" rx="1.05955" ry="1.05955" fill="#1A2234"/>
<path fill-rule="evenodd" clip-rule="evenodd" d="M30.0557 3.9268C30.8747 3.9268 31.4543 4.2481 31.8512 4.7269V1.12329H33.4892V10.1953H31.8827V9.52122C31.4858 10.0126 30.8936 10.3528 30.0557 10.3528C28.3736 10.3528 27.101 8.97312 27.101 7.13981C27.101 5.3065 28.3736 3.9268 30.0557 3.9268ZM6.53178 10.1956V4.09089H4.92527V4.76499C4.52207 4.26729 3.93617 3.92709 3.09826 3.92709C1.41616 3.92709 0.143555 5.3068 0.143555 7.1401C0.143555 8.97341 1.41616 10.3531 3.09826 10.3531C3.93617 10.3531 4.52837 10.0129 4.92527 9.52151V10.1956H6.53178ZM1.82483 7.13946C1.82483 6.20705 2.43593 5.45735 3.39983 5.45735C4.33854 5.45735 4.97484 6.17555 4.97484 7.13946C4.97484 8.10336 4.33854 8.82156 3.39983 8.82156C2.43593 8.82156 1.82483 8.07186 1.82483 7.13946ZM10.9426 3.92709C11.2954 3.92709 11.5726 3.97749 11.7994 4.05939L11.5537 5.6911C11.2828 5.5714 10.8922 5.4958 10.5583 5.4958C9.79595 5.4958 9.27305 5.962 9.27305 6.8692V10.1956H7.62874V4.09089H9.22265V4.75869C9.60695 4.18539 10.1929 3.92709 10.9426 3.92709ZM17.3996 5.07999C16.8389 4.34289 15.9758 3.92709 14.9552 3.92709C13.0085 3.92709 11.7044 5.2942 11.7044 7.1401C11.7044 8.99231 13.0085 10.3531 14.9552 10.3531C15.9758 10.3531 16.8326 9.94361 17.4059 9.20651L16.2341 8.20481C15.8876 8.58281 15.434 8.82221 14.9048 8.82221C14.0543 8.82221 13.3802 8.16071 13.3802 7.1401C13.3802 6.1258 14.0606 5.458 14.9111 5.458C15.4466 5.458 15.8435 5.6722 16.2152 6.0691L17.3996 5.07999ZM20.7512 3.92709C22.6538 3.92709 24.0587 5.3005 24.0587 7.1401C24.0587 8.97971 22.6538 10.3531 20.7512 10.3531C18.8549 10.3531 17.4563 8.97971 17.4563 7.1401C17.4563 5.3005 18.8549 3.92709 20.7512 3.92709ZM19.1325 7.13946C19.1325 6.15035 19.8255 5.45735 20.7516 5.45735C21.6777 5.45735 22.3771 6.15035 22.3771 7.13946C22.3771 8.12856 21.6777 8.82156 20.7516 8.82156C19.8255 8.82156 19.1325 8.12856 19.1325 7.13946ZM28.7839 7.13946C28.7839 6.20705 29.395 5.45735 30.3589 5.45735C31.2976 5.45735 31.9339 6.17555 31.9339 7.13946C31.9339 8.10336 31.2976 8.82156 30.3589 8.82156C29.395 8.82156 28.7839 8.07186 28.7839 7.13946ZM37.294 3.92709C39.0517 3.92709 40.255 5.23119 40.2613 7.1338C40.2613 7.3228 40.2487 7.5496 40.2298 7.6882H35.9017C36.0781 8.57021 36.6955 8.95451 37.4704 8.95451C37.9996 8.95451 38.5729 8.74031 39.0139 8.36861L39.9778 9.42701C39.2848 10.0633 38.4028 10.3531 37.3759 10.3531C35.5048 10.3531 34.2069 9.08051 34.2069 7.159C34.2069 5.2375 35.467 3.92709 37.294 3.92709ZM35.9084 6.56713C36.0533 5.81113 36.5069 5.34493 37.2818 5.34493C37.9874 5.34493 38.4599 5.78593 38.6111 6.56713H35.9084ZM45.8621 4.5134L45.3077 5.79231C44.8226 5.55291 44.0477 5.30091 43.361 5.29461C42.7373 5.29461 42.4223 5.51511 42.4223 5.84901C42.4223 6.20181 42.8633 6.29001 43.4177 6.37191L43.9595 6.45381C45.2825 6.65541 46.0196 7.24761 46.0196 8.28082C46.0196 9.54082 44.9864 10.3535 43.2161 10.3535C42.3845 10.3535 41.2946 10.196 40.5008 9.63532L41.1497 8.38792C41.6726 8.73442 42.3089 8.98642 43.2287 8.98642C43.991 8.98642 44.3564 8.77222 44.3564 8.41312C44.3564 8.11702 44.0477 7.95321 43.3421 7.85241L42.8444 7.78311C41.4332 7.58781 40.7339 6.97041 40.7339 5.93091C40.7339 4.6772 41.7041 3.9338 43.3106 3.9338C44.2871 3.9338 45.0494 4.1165 45.8621 4.5134ZM48.3316 10.1946V4.08985H46.6873V10.1946H48.3316ZM47.5015 1.12329C48.0937 1.12329 48.5536 1.58949 48.5536 2.18169C48.5536 2.7739 48.0937 3.2275 47.5015 3.2275C46.9093 3.2275 46.4557 2.7739 46.4557 2.18169C46.4557 1.58949 46.9093 1.12329 47.5015 1.12329ZM53.7496 4.77129C53.3338 4.25469 52.7101 3.92709 51.8596 3.92709C50.3728 3.92709 49.0498 5.16819 49.0498 7.0456C49.0498 8.91671 50.3728 10.1578 51.8596 10.1578C52.7038 10.1578 53.3212 9.84281 53.737 9.33251V9.76091C53.737 10.813 53.0188 11.38 51.9982 11.38C51.2674 11.38 50.5933 11.1595 49.9822 10.7563L49.3963 12.0982C50.083 12.5833 51.1036 12.8353 52.0675 12.8353C54.0835 12.8353 55.3624 11.6509 55.3624 9.69161V4.09089H53.7496V4.77129ZM52.2767 5.43889C51.338 5.43889 50.7395 6.1571 50.7395 7.0454C50.7395 7.9274 51.338 8.6456 52.2767 8.6456C53.1902 8.6456 53.8076 7.9526 53.8076 7.0454C53.8076 6.1319 53.1902 5.43889 52.2767 5.43889ZM62.2303 6.3085C62.2303 4.89099 61.2412 3.92709 59.8552 3.92709C59.1622 3.92709 58.4944 4.16019 58.0597 4.80909V4.09089H56.4595V10.1956H58.1038V6.8503C58.1038 5.9305 58.6897 5.4706 59.3953 5.4706C60.145 5.4706 60.586 5.9557 60.586 6.8377V10.1956H62.2303V6.3085Z" fill="#1A2234"/>
</svg>
